<svg xmlns="http://www.w3.org/2000/svg" xmlns:rdkit="http://www.rdkit.org/xml" xmlns:xlink="http://www.w3.org/1999/xlink" version="1.1" baseProfile="full" xml:space="preserve" width="1200px" height="200px" viewBox="0 0 1200 200">
<!-- END OF HEADER -->
<rect style="opacity:1.0;fill:#FFFFFF;stroke:none" width="1200.0" height="200.0" x="0.0" y="0.0"> </rect>
<path class="bond-0 atom-0 atom-1" d="M 278.6,159.8 L 274.0,133.2" style="fill:none;fill-rule:evenodd;stroke:#0000FF;stroke-width:2.0px;stroke-linecap:butt;stroke-linejoin:miter;stroke-opacity:1"/>
<path class="bond-0 atom-0 atom-1" d="M 274.0,133.2 L 269.4,106.7" style="fill:none;fill-rule:evenodd;stroke:#000000;stroke-width:2.0px;stroke-linecap:butt;stroke-linejoin:miter;stroke-opacity:1"/>
<path class="bond-1 atom-1 atom-2" d="M 269.4,106.7 L 319.6,64.7" style="fill:none;fill-rule:evenodd;stroke:#000000;stroke-width:2.0px;stroke-linecap:butt;stroke-linejoin:miter;stroke-opacity:1"/>
<path class="bond-2 atom-2 atom-3" d="M 319.6,64.7 L 381.2,87.2" style="fill:none;fill-rule:evenodd;stroke:#000000;stroke-width:2.0px;stroke-linecap:butt;stroke-linejoin:miter;stroke-opacity:1"/>
<path class="bond-3 atom-3 atom-4" d="M 382.2,92.8 L 403.1,75.3" style="fill:none;fill-rule:evenodd;stroke:#000000;stroke-width:2.0px;stroke-linecap:butt;stroke-linejoin:miter;stroke-opacity:1"/>
<path class="bond-3 atom-3 atom-4" d="M 403.1,75.3 L 423.9,57.9" style="fill:none;fill-rule:evenodd;stroke:#FF0000;stroke-width:2.0px;stroke-linecap:butt;stroke-linejoin:miter;stroke-opacity:1"/>
<path class="bond-3 atom-3 atom-4" d="M 375.9,85.2 L 396.8,67.8" style="fill:none;fill-rule:evenodd;stroke:#000000;stroke-width:2.0px;stroke-linecap:butt;stroke-linejoin:miter;stroke-opacity:1"/>
<path class="bond-3 atom-3 atom-4" d="M 396.8,67.8 L 417.6,50.3" style="fill:none;fill-rule:evenodd;stroke:#FF0000;stroke-width:2.0px;stroke-linecap:butt;stroke-linejoin:miter;stroke-opacity:1"/>
<path class="bond-4 atom-3 atom-5" d="M 381.2,87.2 L 385.8,113.7" style="fill:none;fill-rule:evenodd;stroke:#000000;stroke-width:2.0px;stroke-linecap:butt;stroke-linejoin:miter;stroke-opacity:1"/>
<path class="bond-4 atom-3 atom-5" d="M 385.8,113.7 L 390.4,140.2" style="fill:none;fill-rule:evenodd;stroke:#FF0000;stroke-width:2.0px;stroke-linecap:butt;stroke-linejoin:miter;stroke-opacity:1"/>
<path class="bond-5 atom-1 atom-6" d="M 269.4,106.7 L 207.8,84.1" style="fill:none;fill-rule:evenodd;stroke:#000000;stroke-width:2.0px;stroke-linecap:butt;stroke-linejoin:miter;stroke-opacity:1"/>
<path class="bond-6 atom-6 atom-7" d="M 206.8,78.6 L 185.9,96.0" style="fill:none;fill-rule:evenodd;stroke:#000000;stroke-width:2.0px;stroke-linecap:butt;stroke-linejoin:miter;stroke-opacity:1"/>
<path class="bond-6 atom-6 atom-7" d="M 185.9,96.0 L 165.1,113.5" style="fill:none;fill-rule:evenodd;stroke:#FF0000;stroke-width:2.0px;stroke-linecap:butt;stroke-linejoin:miter;stroke-opacity:1"/>
<path class="bond-6 atom-6 atom-7" d="M 213.1,86.1 L 192.2,103.6" style="fill:none;fill-rule:evenodd;stroke:#000000;stroke-width:2.0px;stroke-linecap:butt;stroke-linejoin:miter;stroke-opacity:1"/>
<path class="bond-6 atom-6 atom-7" d="M 192.2,103.6 L 171.4,121.0" style="fill:none;fill-rule:evenodd;stroke:#FF0000;stroke-width:2.0px;stroke-linecap:butt;stroke-linejoin:miter;stroke-opacity:1"/>
<path class="bond-7 atom-6 atom-8" d="M 207.8,84.1 L 203.2,57.8" style="fill:none;fill-rule:evenodd;stroke:#000000;stroke-width:2.0px;stroke-linecap:butt;stroke-linejoin:miter;stroke-opacity:1"/>
<path class="bond-7 atom-6 atom-8" d="M 203.2,57.8 L 198.6,31.4" style="fill:none;fill-rule:evenodd;stroke:#FF0000;stroke-width:2.0px;stroke-linecap:butt;stroke-linejoin:miter;stroke-opacity:1"/>
<path d="M 317.1,66.8 L 319.6,64.7 L 322.7,65.8" style="fill:none;stroke:#000000;stroke-width:2.0px;stroke-linecap:butt;stroke-linejoin:miter;stroke-opacity:1;"/>
<path d="M 378.1,86.1 L 381.2,87.2 L 381.4,88.5" style="fill:none;stroke:#000000;stroke-width:2.0px;stroke-linecap:butt;stroke-linejoin:miter;stroke-opacity:1;"/>
<path d="M 210.9,85.3 L 207.8,84.1 L 207.6,82.8" style="fill:none;stroke:#000000;stroke-width:2.0px;stroke-linecap:butt;stroke-linejoin:miter;stroke-opacity:1;"/>
<path class="atom-0" d="M 276.5 162.0 L 282.6 171.8 Q 283.2 172.8, 284.2 174.5 Q 285.1 176.3, 285.2 176.4 L 285.2 162.0 L 287.6 162.0 L 287.6 180.5 L 285.1 180.5 L 278.6 169.8 Q 277.8 168.5, 277.0 167.1 Q 276.2 165.6, 276.0 165.2 L 276.0 180.5 L 273.6 180.5 L 273.6 162.0 L 276.5 162.0 " fill="#0000FF"/>
<path class="atom-0" d="M 291.2 162.0 L 293.7 162.0 L 293.7 169.9 L 303.2 169.9 L 303.2 162.0 L 305.7 162.0 L 305.7 180.5 L 303.2 180.5 L 303.2 172.0 L 293.7 172.0 L 293.7 180.5 L 291.2 180.5 L 291.2 162.0 " fill="#0000FF"/>
<path class="atom-0" d="M 309.3 179.9 Q 309.8 178.7, 310.9 178.1 Q 311.9 177.4, 313.4 177.4 Q 315.3 177.4, 316.3 178.4 Q 317.4 179.4, 317.4 181.2 Q 317.4 183.0, 316.0 184.7 Q 314.7 186.4, 311.9 188.4 L 317.6 188.4 L 317.6 189.8 L 309.3 189.8 L 309.3 188.7 Q 311.6 187.0, 312.9 185.8 Q 314.3 184.6, 315.0 183.5 Q 315.6 182.4, 315.6 181.3 Q 315.6 180.1, 315.0 179.5 Q 314.5 178.8, 313.4 178.8 Q 312.4 178.8, 311.8 179.2 Q 311.1 179.6, 310.7 180.5 L 309.3 179.9 " fill="#0000FF"/>
<path class="atom-4" d="M 423.0 45.2 Q 423.0 40.8, 425.2 38.3 Q 427.4 35.8, 431.5 35.8 Q 435.6 35.8, 437.8 38.3 Q 440.0 40.8, 440.0 45.2 Q 440.0 49.7, 437.8 52.3 Q 435.5 54.8, 431.5 54.8 Q 427.4 54.8, 425.2 52.3 Q 423.0 49.7, 423.0 45.2 M 431.5 52.7 Q 434.3 52.7, 435.8 50.9 Q 437.4 48.9, 437.4 45.2 Q 437.4 41.6, 435.8 39.7 Q 434.3 37.9, 431.5 37.9 Q 428.6 37.9, 427.1 39.7 Q 425.6 41.5, 425.6 45.2 Q 425.6 49.0, 427.1 50.9 Q 428.6 52.7, 431.5 52.7 " fill="#FF0000"/>
<path class="atom-5" d="M 383.9 151.8 Q 383.9 147.4, 386.1 144.9 Q 388.3 142.4, 392.4 142.4 Q 396.6 142.4, 398.8 144.9 Q 401.0 147.4, 401.0 151.8 Q 401.0 156.3, 398.7 158.9 Q 396.5 161.4, 392.4 161.4 Q 388.4 161.4, 386.1 158.9 Q 383.9 156.3, 383.9 151.8 M 392.4 159.3 Q 395.3 159.3, 396.8 157.4 Q 398.3 155.5, 398.3 151.8 Q 398.3 148.2, 396.8 146.3 Q 395.3 144.5, 392.4 144.5 Q 389.6 144.5, 388.1 146.3 Q 386.5 148.1, 386.5 151.8 Q 386.5 155.6, 388.1 157.4 Q 389.6 159.3, 392.4 159.3 " fill="#FF0000"/>
<path class="atom-5" d="M 403.9 142.6 L 406.4 142.6 L 406.4 150.5 L 415.9 150.5 L 415.9 142.6 L 418.4 142.6 L 418.4 161.1 L 415.9 161.1 L 415.9 152.6 L 406.4 152.6 L 406.4 161.1 L 403.9 161.1 L 403.9 142.6 " fill="#FF0000"/>
<path class="atom-7" d="M 149.0 126.2 Q 149.0 121.8, 151.2 119.3 Q 153.4 116.8, 157.5 116.8 Q 161.6 116.8, 163.8 119.3 Q 166.0 121.8, 166.0 126.2 Q 166.0 130.7, 163.8 133.3 Q 161.6 135.8, 157.5 135.8 Q 153.4 135.8, 151.2 133.3 Q 149.0 130.8, 149.0 126.2 M 157.5 133.7 Q 160.4 133.7, 161.9 131.9 Q 163.4 129.9, 163.4 126.2 Q 163.4 122.6, 161.9 120.7 Q 160.4 118.9, 157.5 118.9 Q 154.7 118.9, 153.1 120.7 Q 151.6 122.6, 151.6 126.2 Q 151.6 130.0, 153.1 131.9 Q 154.7 133.7, 157.5 133.7 " fill="#FF0000"/>
<path class="atom-8" d="M 188.0 19.6 Q 188.0 15.2, 190.2 12.7 Q 192.4 10.2, 196.6 10.2 Q 200.7 10.2, 202.9 12.7 Q 205.1 15.2, 205.1 19.6 Q 205.1 24.1, 202.8 26.7 Q 200.6 29.2, 196.6 29.2 Q 192.5 29.2, 190.2 26.7 Q 188.0 24.2, 188.0 19.6 M 196.6 27.2 Q 199.4 27.2, 200.9 25.3 Q 202.5 23.4, 202.5 19.6 Q 202.5 16.0, 200.9 14.1 Q 199.4 12.3, 196.6 12.3 Q 193.7 12.3, 192.2 14.1 Q 190.7 16.0, 190.7 19.6 Q 190.7 23.4, 192.2 25.3 Q 193.7 27.2, 196.6 27.2 " fill="#FF0000"/>
<path class="atom-8" d="M 208.0 10.4 L 210.5 10.4 L 210.5 18.3 L 220.0 18.3 L 220.0 10.4 L 222.5 10.4 L 222.5 29.0 L 220.0 29.0 L 220.0 20.4 L 210.5 20.4 L 210.5 29.0 L 208.0 29.0 L 208.0 10.4 " fill="#FF0000"/>
<path class="bond-8 atom-9 atom-10" d="M 808.5,116.7 L 782.6,106.3" style="fill:none;fill-rule:evenodd;stroke:#0000FF;stroke-width:2.0px;stroke-linecap:butt;stroke-linejoin:miter;stroke-opacity:1"/>
<path class="bond-8 atom-9 atom-10" d="M 782.6,106.3 L 756.8,96.0" style="fill:none;fill-rule:evenodd;stroke:#000000;stroke-width:2.0px;stroke-linecap:butt;stroke-linejoin:miter;stroke-opacity:1"/>
<path class="bond-9 atom-10 atom-11" d="M 756.8,96.0 L 705.3,136.4" style="fill:none;fill-rule:evenodd;stroke:#000000;stroke-width:2.0px;stroke-linecap:butt;stroke-linejoin:miter;stroke-opacity:1"/>
<path class="bond-10 atom-11 atom-12" d="M 705.3,136.4 L 644.4,112.1" style="fill:none;fill-rule:evenodd;stroke:#000000;stroke-width:2.0px;stroke-linecap:butt;stroke-linejoin:miter;stroke-opacity:1"/>
<path class="bond-11 atom-12 atom-13" d="M 643.6,106.4 L 622.1,123.4" style="fill:none;fill-rule:evenodd;stroke:#000000;stroke-width:2.0px;stroke-linecap:butt;stroke-linejoin:miter;stroke-opacity:1"/>
<path class="bond-11 atom-12 atom-13" d="M 622.1,123.4 L 600.6,140.3" style="fill:none;fill-rule:evenodd;stroke:#FF0000;stroke-width:2.0px;stroke-linecap:butt;stroke-linejoin:miter;stroke-opacity:1"/>
<path class="bond-11 atom-12 atom-13" d="M 649.7,114.2 L 628.2,131.1" style="fill:none;fill-rule:evenodd;stroke:#000000;stroke-width:2.0px;stroke-linecap:butt;stroke-linejoin:miter;stroke-opacity:1"/>
<path class="bond-11 atom-12 atom-13" d="M 628.2,131.1 L 606.6,148.0" style="fill:none;fill-rule:evenodd;stroke:#FF0000;stroke-width:2.0px;stroke-linecap:butt;stroke-linejoin:miter;stroke-opacity:1"/>
<path class="bond-12 atom-12 atom-14" d="M 644.4,112.1 L 640.6,85.5" style="fill:none;fill-rule:evenodd;stroke:#000000;stroke-width:2.0px;stroke-linecap:butt;stroke-linejoin:miter;stroke-opacity:1"/>
<path class="bond-12 atom-12 atom-14" d="M 640.6,85.5 L 636.9,59.0" style="fill:none;fill-rule:evenodd;stroke:#FF0000;stroke-width:2.0px;stroke-linecap:butt;stroke-linejoin:miter;stroke-opacity:1"/>
<path d="M 758.1,96.5 L 756.8,96.0 L 754.2,98.0" style="fill:none;stroke:#000000;stroke-width:2.0px;stroke-linecap:butt;stroke-linejoin:miter;stroke-opacity:1;"/>
<path d="M 707.9,134.4 L 705.3,136.4 L 702.2,135.2" style="fill:none;stroke:#000000;stroke-width:2.0px;stroke-linecap:butt;stroke-linejoin:miter;stroke-opacity:1;"/>
<path d="M 647.5,113.3 L 644.4,112.1 L 644.3,110.7" style="fill:none;stroke:#000000;stroke-width:2.0px;stroke-linecap:butt;stroke-linejoin:miter;stroke-opacity:1;"/>
<path class="atom-0" d="M 813.6 111.1 L 819.6 120.9 Q 820.2 121.9, 821.2 123.6 Q 822.2 125.4, 822.2 125.5 L 822.2 111.1 L 824.7 111.1 L 824.7 129.6 L 822.1 129.6 L 815.6 118.9 Q 814.9 117.6, 814.0 116.2 Q 813.3 114.7, 813.0 114.3 L 813.0 129.6 L 810.6 129.6 L 810.6 111.1 L 813.6 111.1 " fill="#0000FF"/>
<path class="atom-0" d="M 828.2 111.1 L 830.8 111.1 L 830.8 119.0 L 840.2 119.0 L 840.2 111.1 L 842.8 111.1 L 842.8 129.6 L 840.2 129.6 L 840.2 121.1 L 830.8 121.1 L 830.8 129.6 L 828.2 129.6 L 828.2 111.1 " fill="#0000FF"/>
<path class="atom-0" d="M 846.4 129.0 Q 846.8 127.8, 847.9 127.2 Q 849.0 126.5, 850.5 126.5 Q 852.3 126.5, 853.4 127.5 Q 854.4 128.5, 854.4 130.3 Q 854.4 132.1, 853.1 133.8 Q 851.7 135.5, 849.0 137.5 L 854.6 137.5 L 854.6 138.9 L 846.4 138.9 L 846.4 137.8 Q 848.6 136.1, 850.0 134.9 Q 851.4 133.7, 852.0 132.6 Q 852.7 131.5, 852.7 130.4 Q 852.7 129.2, 852.1 128.6 Q 851.5 127.9, 850.5 127.9 Q 849.5 127.9, 848.8 128.3 Q 848.2 128.7, 847.7 129.6 L 846.4 129.0 " fill="#0000FF"/>
<path class="atom-4" d="M 584.4 152.6 Q 584.4 148.1, 586.6 145.6 Q 588.8 143.2, 592.9 143.2 Q 597.0 143.2, 599.2 145.6 Q 601.4 148.1, 601.4 152.6 Q 601.4 157.1, 599.2 159.7 Q 597.0 162.2, 592.9 162.2 Q 588.8 162.2, 586.6 159.7 Q 584.4 157.1, 584.4 152.6 M 592.9 160.1 Q 595.7 160.1, 597.3 158.2 Q 598.8 156.3, 598.8 152.6 Q 598.8 148.9, 597.3 147.1 Q 595.7 145.3, 592.9 145.3 Q 590.1 145.3, 588.5 147.1 Q 587.0 148.9, 587.0 152.6 Q 587.0 156.3, 588.5 158.2 Q 590.1 160.1, 592.9 160.1 " fill="#FF0000"/>
<path class="atom-5" d="M 626.6 47.2 Q 626.6 42.8, 628.8 40.3 Q 631.0 37.8, 635.2 37.8 Q 639.3 37.8, 641.5 40.3 Q 643.7 42.8, 643.7 47.2 Q 643.7 51.7, 641.4 54.3 Q 639.2 56.8, 635.2 56.8 Q 631.1 56.8, 628.8 54.3 Q 626.6 51.8, 626.6 47.2 M 635.2 54.7 Q 638.0 54.7, 639.5 52.9 Q 641.1 50.9, 641.1 47.2 Q 641.1 43.6, 639.5 41.7 Q 638.0 39.9, 635.2 39.9 Q 632.3 39.9, 630.8 41.7 Q 629.3 43.6, 629.3 47.2 Q 629.3 51.0, 630.8 52.9 Q 632.3 54.7, 635.2 54.7 " fill="#FF0000"/>
<path class="atom-5" d="M 646.6 38.0 L 649.1 38.0 L 649.1 45.9 L 658.6 45.9 L 658.6 38.0 L 661.1 38.0 L 661.1 56.6 L 658.6 56.6 L 658.6 48.0 L 649.1 48.0 L 649.1 56.6 L 646.6 56.6 L 646.6 38.0 " fill="#FF0000"/>
<path d="M 879.0,90.0 L 879.0,110.0" style="fill:none;fill-rule:evenodd;stroke:#000000;stroke-width:2.0px;stroke-linecap:butt;stroke-linejoin:miter;stroke-opacity:1"/>
<path d="M 869.0,100.0 L 889.0,100.0" style="fill:none;fill-rule:evenodd;stroke:#000000;stroke-width:2.0px;stroke-linecap:butt;stroke-linejoin:miter;stroke-opacity:1"/>
<path class="bond-13 atom-15 atom-16" d="M 1032.4,104.8 L 1009.6,104.8" style="fill:none;fill-rule:evenodd;stroke:#FF0000;stroke-width:2.0px;stroke-linecap:butt;stroke-linejoin:miter;stroke-opacity:1"/>
<path class="bond-13 atom-15 atom-16" d="M 1009.6,104.8 L 986.8,104.8" style="fill:none;fill-rule:evenodd;stroke:#000000;stroke-width:2.0px;stroke-linecap:butt;stroke-linejoin:miter;stroke-opacity:1"/>
<path class="bond-13 atom-15 atom-16" d="M 1032.4,94.9 L 1009.6,94.9" style="fill:none;fill-rule:evenodd;stroke:#FF0000;stroke-width:2.0px;stroke-linecap:butt;stroke-linejoin:miter;stroke-opacity:1"/>
<path class="bond-13 atom-15 atom-16" d="M 1009.6,94.9 L 986.8,94.9" style="fill:none;fill-rule:evenodd;stroke:#000000;stroke-width:2.0px;stroke-linecap:butt;stroke-linejoin:miter;stroke-opacity:1"/>
<path class="bond-14 atom-16 atom-17" d="M 968.2,104.8 L 945.4,104.8" style="fill:none;fill-rule:evenodd;stroke:#000000;stroke-width:2.0px;stroke-linecap:butt;stroke-linejoin:miter;stroke-opacity:1"/>
<path class="bond-14 atom-16 atom-17" d="M 945.4,104.8 L 922.6,104.8" style="fill:none;fill-rule:evenodd;stroke:#FF0000;stroke-width:2.0px;stroke-linecap:butt;stroke-linejoin:miter;stroke-opacity:1"/>
<path class="bond-14 atom-16 atom-17" d="M 968.2,94.9 L 945.4,94.9" style="fill:none;fill-rule:evenodd;stroke:#000000;stroke-width:2.0px;stroke-linecap:butt;stroke-linejoin:miter;stroke-opacity:1"/>
<path class="bond-14 atom-16 atom-17" d="M 945.4,94.9 L 922.6,94.9" style="fill:none;fill-rule:evenodd;stroke:#FF0000;stroke-width:2.0px;stroke-linecap:butt;stroke-linejoin:miter;stroke-opacity:1"/>
<path class="atom-0" d="M 1034.5 99.9 Q 1034.5 95.5, 1036.7 93.0 Q 1038.9 90.5, 1043.0 90.5 Q 1047.2 90.5, 1049.4 93.0 Q 1051.6 95.5, 1051.6 99.9 Q 1051.6 104.4, 1049.3 107.0 Q 1047.1 109.5, 1043.0 109.5 Q 1039.0 109.5, 1036.7 107.0 Q 1034.5 104.4, 1034.5 99.9 M 1043.0 107.4 Q 1045.9 107.4, 1047.4 105.5 Q 1048.9 103.6, 1048.9 99.9 Q 1048.9 96.3, 1047.4 94.4 Q 1045.9 92.6, 1043.0 92.6 Q 1040.2 92.6, 1038.7 94.4 Q 1037.1 96.2, 1037.1 99.9 Q 1037.1 103.7, 1038.7 105.5 Q 1040.2 107.4, 1043.0 107.4 " fill="#FF0000"/>
<path class="atom-1" d="M 970.3 99.9 Q 970.3 95.3, 972.5 92.9 Q 974.7 90.5, 978.8 90.5 Q 982.6 90.5, 984.7 93.2 L 982.9 94.6 Q 981.4 92.6, 978.8 92.6 Q 976.0 92.6, 974.5 94.5 Q 973.0 96.4, 973.0 99.9 Q 973.0 103.6, 974.5 105.5 Q 976.1 107.4, 979.1 107.4 Q 981.1 107.4, 983.5 106.1 L 984.2 108.1 Q 983.3 108.7, 981.8 109.1 Q 980.3 109.5, 978.7 109.5 Q 974.7 109.5, 972.5 107.0 Q 970.3 104.5, 970.3 99.9 " fill="#000000"/>
<path class="atom-2" d="M 903.4 99.9 Q 903.4 95.5, 905.6 93.0 Q 907.8 90.5, 912.0 90.5 Q 916.1 90.5, 918.3 93.0 Q 920.5 95.5, 920.5 99.9 Q 920.5 104.4, 918.3 107.0 Q 916.0 109.5, 912.0 109.5 Q 907.9 109.5, 905.6 107.0 Q 903.4 104.4, 903.4 99.9 M 912.0 107.4 Q 914.8 107.4, 916.3 105.5 Q 917.9 103.6, 917.9 99.9 Q 917.9 96.3, 916.3 94.4 Q 914.8 92.6, 912.0 92.6 Q 909.1 92.6, 907.6 94.4 Q 906.1 96.2, 906.1 99.9 Q 906.1 103.7, 907.6 105.5 Q 909.1 107.4, 912.0 107.4 " fill="#FF0000"/>
<path d="M 464.0,100.0 L 560.0,100.0" style="fill:none;fill-rule:evenodd;stroke:#000000;stroke-width:2.0px;stroke-linecap:butt;stroke-linejoin:miter;stroke-opacity:1"/>
<path d="M 560.0,100.0 L 555.0,102.9" style="fill:none;fill-rule:evenodd;stroke:#000000;stroke-width:2.0px;stroke-linecap:butt;stroke-linejoin:miter;stroke-opacity:1"/>
<path d="M 560.0,100.0 L 555.0,97.1" style="fill:none;fill-rule:evenodd;stroke:#000000;stroke-width:2.0px;stroke-linecap:butt;stroke-linejoin:miter;stroke-opacity:1"/>
</svg>