<svg xmlns="http://www.w3.org/2000/svg" xmlns:rdkit="http://www.rdkit.org/xml" xmlns:xlink="http://www.w3.org/1999/xlink" version="1.1" baseProfile="full" xml:space="preserve" width="1200px" height="200px" viewBox="0 0 1200 200">
<!-- END OF HEADER -->
<rect style="opacity:1.0;fill:#FFFFFF;stroke:none" width="1200.0" height="200.0" x="0.0" y="0.0"> </rect>
<path class="bond-0 atom-0 atom-1" d="M 316.6,159.8 L 312.0,133.2" style="fill:none;fill-rule:evenodd;stroke:#0000FF;stroke-width:2.0px;stroke-linecap:butt;stroke-linejoin:miter;stroke-opacity:1"/>
<path class="bond-0 atom-0 atom-1" d="M 312.0,133.2 L 307.4,106.7" style="fill:none;fill-rule:evenodd;stroke:#000000;stroke-width:2.0px;stroke-linecap:butt;stroke-linejoin:miter;stroke-opacity:1"/>
<path class="bond-1 atom-1 atom-2" d="M 307.4,106.7 L 357.6,64.7" style="fill:none;fill-rule:evenodd;stroke:#000000;stroke-width:2.0px;stroke-linecap:butt;stroke-linejoin:miter;stroke-opacity:1"/>
<path class="bond-2 atom-2 atom-3" d="M 357.6,64.7 L 419.2,87.2" style="fill:none;fill-rule:evenodd;stroke:#000000;stroke-width:2.0px;stroke-linecap:butt;stroke-linejoin:miter;stroke-opacity:1"/>
<path class="bond-3 atom-3 atom-4" d="M 420.2,92.8 L 441.1,75.3" style="fill:none;fill-rule:evenodd;stroke:#000000;stroke-width:2.0px;stroke-linecap:butt;stroke-linejoin:miter;stroke-opacity:1"/>
<path class="bond-3 atom-3 atom-4" d="M 441.1,75.3 L 461.9,57.9" style="fill:none;fill-rule:evenodd;stroke:#FF0000;stroke-width:2.0px;stroke-linecap:butt;stroke-linejoin:miter;stroke-opacity:1"/>
<path class="bond-3 atom-3 atom-4" d="M 413.9,85.2 L 434.8,67.8" style="fill:none;fill-rule:evenodd;stroke:#000000;stroke-width:2.0px;stroke-linecap:butt;stroke-linejoin:miter;stroke-opacity:1"/>
<path class="bond-3 atom-3 atom-4" d="M 434.8,67.8 L 455.6,50.3" style="fill:none;fill-rule:evenodd;stroke:#FF0000;stroke-width:2.0px;stroke-linecap:butt;stroke-linejoin:miter;stroke-opacity:1"/>
<path class="bond-4 atom-3 atom-5" d="M 419.2,87.2 L 423.8,113.7" style="fill:none;fill-rule:evenodd;stroke:#000000;stroke-width:2.0px;stroke-linecap:butt;stroke-linejoin:miter;stroke-opacity:1"/>
<path class="bond-4 atom-3 atom-5" d="M 423.8,113.7 L 428.4,140.2" style="fill:none;fill-rule:evenodd;stroke:#FF0000;stroke-width:2.0px;stroke-linecap:butt;stroke-linejoin:miter;stroke-opacity:1"/>
<path class="bond-5 atom-1 atom-6" d="M 307.4,106.7 L 245.8,84.1" style="fill:none;fill-rule:evenodd;stroke:#000000;stroke-width:2.0px;stroke-linecap:butt;stroke-linejoin:miter;stroke-opacity:1"/>
<path class="bond-6 atom-6 atom-7" d="M 244.8,78.6 L 223.9,96.0" style="fill:none;fill-rule:evenodd;stroke:#000000;stroke-width:2.0px;stroke-linecap:butt;stroke-linejoin:miter;stroke-opacity:1"/>
<path class="bond-6 atom-6 atom-7" d="M 223.9,96.0 L 203.1,113.5" style="fill:none;fill-rule:evenodd;stroke:#FF0000;stroke-width:2.0px;stroke-linecap:butt;stroke-linejoin:miter;stroke-opacity:1"/>
<path class="bond-6 atom-6 atom-7" d="M 251.1,86.1 L 230.2,103.6" style="fill:none;fill-rule:evenodd;stroke:#000000;stroke-width:2.0px;stroke-linecap:butt;stroke-linejoin:miter;stroke-opacity:1"/>
<path class="bond-6 atom-6 atom-7" d="M 230.2,103.6 L 209.4,121.0" style="fill:none;fill-rule:evenodd;stroke:#FF0000;stroke-width:2.0px;stroke-linecap:butt;stroke-linejoin:miter;stroke-opacity:1"/>
<path class="bond-7 atom-6 atom-8" d="M 245.8,84.1 L 241.2,57.8" style="fill:none;fill-rule:evenodd;stroke:#000000;stroke-width:2.0px;stroke-linecap:butt;stroke-linejoin:miter;stroke-opacity:1"/>
<path class="bond-7 atom-6 atom-8" d="M 241.2,57.8 L 236.6,31.4" style="fill:none;fill-rule:evenodd;stroke:#FF0000;stroke-width:2.0px;stroke-linecap:butt;stroke-linejoin:miter;stroke-opacity:1"/>
<path d="M 355.1,66.8 L 357.6,64.7 L 360.7,65.8" style="fill:none;stroke:#000000;stroke-width:2.0px;stroke-linecap:butt;stroke-linejoin:miter;stroke-opacity:1;"/>
<path d="M 416.1,86.1 L 419.2,87.2 L 419.4,88.5" style="fill:none;stroke:#000000;stroke-width:2.0px;stroke-linecap:butt;stroke-linejoin:miter;stroke-opacity:1;"/>
<path d="M 248.9,85.3 L 245.8,84.1 L 245.6,82.8" style="fill:none;stroke:#000000;stroke-width:2.0px;stroke-linecap:butt;stroke-linejoin:miter;stroke-opacity:1;"/>
<path class="atom-0" d="M 314.5 162.0 L 320.6 171.8 Q 321.2 172.8, 322.2 174.5 Q 323.1 176.3, 323.2 176.4 L 323.2 162.0 L 325.6 162.0 L 325.6 180.5 L 323.1 180.5 L 316.6 169.8 Q 315.8 168.5, 315.0 167.1 Q 314.2 165.6, 314.0 165.2 L 314.0 180.5 L 311.6 180.5 L 311.6 162.0 L 314.5 162.0 " fill="#0000FF"/>
<path class="atom-0" d="M 329.2 162.0 L 331.7 162.0 L 331.7 169.9 L 341.2 169.9 L 341.2 162.0 L 343.7 162.0 L 343.7 180.5 L 341.2 180.5 L 341.2 172.0 L 331.7 172.0 L 331.7 180.5 L 329.2 180.5 L 329.2 162.0 " fill="#0000FF"/>
<path class="atom-0" d="M 347.3 179.9 Q 347.8 178.7, 348.9 178.1 Q 349.9 177.4, 351.4 177.4 Q 353.3 177.4, 354.3 178.4 Q 355.4 179.4, 355.4 181.2 Q 355.4 183.0, 354.0 184.7 Q 352.7 186.4, 349.9 188.4 L 355.6 188.4 L 355.6 189.8 L 347.3 189.8 L 347.3 188.7 Q 349.6 187.0, 350.9 185.8 Q 352.3 184.6, 353.0 183.5 Q 353.6 182.4, 353.6 181.3 Q 353.6 180.1, 353.0 179.5 Q 352.5 178.8, 351.4 178.8 Q 350.4 178.8, 349.8 179.2 Q 349.1 179.6, 348.7 180.5 L 347.3 179.9 " fill="#0000FF"/>
<path class="atom-4" d="M 461.0 45.2 Q 461.0 40.8, 463.2 38.3 Q 465.4 35.8, 469.5 35.8 Q 473.6 35.8, 475.8 38.3 Q 478.0 40.8, 478.0 45.2 Q 478.0 49.7, 475.8 52.3 Q 473.5 54.8, 469.5 54.8 Q 465.4 54.8, 463.2 52.3 Q 461.0 49.7, 461.0 45.2 M 469.5 52.7 Q 472.3 52.7, 473.8 50.9 Q 475.4 48.9, 475.4 45.2 Q 475.4 41.6, 473.8 39.7 Q 472.3 37.9, 469.5 37.9 Q 466.6 37.9, 465.1 39.7 Q 463.6 41.5, 463.6 45.2 Q 463.6 49.0, 465.1 50.9 Q 466.6 52.7, 469.5 52.7 " fill="#FF0000"/>
<path class="atom-5" d="M 421.9 151.8 Q 421.9 147.4, 424.1 144.9 Q 426.3 142.4, 430.4 142.4 Q 434.6 142.4, 436.8 144.9 Q 439.0 147.4, 439.0 151.8 Q 439.0 156.3, 436.7 158.9 Q 434.5 161.4, 430.4 161.4 Q 426.4 161.4, 424.1 158.9 Q 421.9 156.3, 421.9 151.8 M 430.4 159.3 Q 433.3 159.3, 434.8 157.4 Q 436.3 155.5, 436.3 151.8 Q 436.3 148.2, 434.8 146.3 Q 433.3 144.5, 430.4 144.5 Q 427.6 144.5, 426.1 146.3 Q 424.5 148.1, 424.5 151.8 Q 424.5 155.6, 426.1 157.4 Q 427.6 159.3, 430.4 159.3 " fill="#FF0000"/>
<path class="atom-5" d="M 441.9 142.6 L 444.4 142.6 L 444.4 150.5 L 453.9 150.5 L 453.9 142.6 L 456.4 142.6 L 456.4 161.1 L 453.9 161.1 L 453.9 152.6 L 444.4 152.6 L 444.4 161.1 L 441.9 161.1 L 441.9 142.6 " fill="#FF0000"/>
<path class="atom-7" d="M 187.0 126.2 Q 187.0 121.8, 189.2 119.3 Q 191.4 116.8, 195.5 116.8 Q 199.6 116.8, 201.8 119.3 Q 204.0 121.8, 204.0 126.2 Q 204.0 130.7, 201.8 133.3 Q 199.6 135.8, 195.5 135.8 Q 191.4 135.8, 189.2 133.3 Q 187.0 130.8, 187.0 126.2 M 195.5 133.7 Q 198.4 133.7, 199.9 131.9 Q 201.4 129.9, 201.4 126.2 Q 201.4 122.6, 199.9 120.7 Q 198.4 118.9, 195.5 118.9 Q 192.7 118.9, 191.1 120.7 Q 189.6 122.6, 189.6 126.2 Q 189.6 130.0, 191.1 131.9 Q 192.7 133.7, 195.5 133.7 " fill="#FF0000"/>
<path class="atom-8" d="M 226.0 19.6 Q 226.0 15.2, 228.2 12.7 Q 230.4 10.2, 234.6 10.2 Q 238.7 10.2, 240.9 12.7 Q 243.1 15.2, 243.1 19.6 Q 243.1 24.1, 240.8 26.7 Q 238.6 29.2, 234.6 29.2 Q 230.5 29.2, 228.2 26.7 Q 226.0 24.2, 226.0 19.6 M 234.6 27.2 Q 237.4 27.2, 238.9 25.3 Q 240.5 23.4, 240.5 19.6 Q 240.5 16.0, 238.9 14.1 Q 237.4 12.3, 234.6 12.3 Q 231.7 12.3, 230.2 14.1 Q 228.7 16.0, 228.7 19.6 Q 228.7 23.4, 230.2 25.3 Q 231.7 27.2, 234.6 27.2 " fill="#FF0000"/>
<path class="atom-8" d="M 246.0 10.4 L 248.5 10.4 L 248.5 18.3 L 258.0 18.3 L 258.0 10.4 L 260.5 10.4 L 260.5 29.0 L 258.0 29.0 L 258.0 20.4 L 248.5 20.4 L 248.5 29.0 L 246.0 29.0 L 246.0 10.4 " fill="#FF0000"/>
<path class="bond-8 atom-9 atom-10" d="M 780.0,38.7 L 747.2,95.4" style="fill:none;fill-rule:evenodd;stroke:#000000;stroke-width:2.0px;stroke-linecap:butt;stroke-linejoin:miter;stroke-opacity:1"/>
<path class="bond-9 atom-10 atom-11" d="M 747.2,95.4 L 760.3,118.1" style="fill:none;fill-rule:evenodd;stroke:#000000;stroke-width:2.0px;stroke-linecap:butt;stroke-linejoin:miter;stroke-opacity:1"/>
<path class="bond-9 atom-10 atom-11" d="M 760.3,118.1 L 773.4,140.7" style="fill:none;fill-rule:evenodd;stroke:#0000FF;stroke-width:2.0px;stroke-linecap:butt;stroke-linejoin:miter;stroke-opacity:1"/>
<path class="bond-10 atom-10 atom-12" d="M 747.2,95.4 L 681.7,95.4" style="fill:none;fill-rule:evenodd;stroke:#000000;stroke-width:2.0px;stroke-linecap:butt;stroke-linejoin:miter;stroke-opacity:1"/>
<path class="bond-11 atom-12 atom-13" d="M 678.8,90.5 L 665.1,114.3" style="fill:none;fill-rule:evenodd;stroke:#000000;stroke-width:2.0px;stroke-linecap:butt;stroke-linejoin:miter;stroke-opacity:1"/>
<path class="bond-11 atom-12 atom-13" d="M 665.1,114.3 L 651.3,138.2" style="fill:none;fill-rule:evenodd;stroke:#FF0000;stroke-width:2.0px;stroke-linecap:butt;stroke-linejoin:miter;stroke-opacity:1"/>
<path class="bond-11 atom-12 atom-13" d="M 687.4,95.4 L 673.6,119.2" style="fill:none;fill-rule:evenodd;stroke:#000000;stroke-width:2.0px;stroke-linecap:butt;stroke-linejoin:miter;stroke-opacity:1"/>
<path class="bond-11 atom-12 atom-13" d="M 673.6,119.2 L 659.8,143.1" style="fill:none;fill-rule:evenodd;stroke:#FF0000;stroke-width:2.0px;stroke-linecap:butt;stroke-linejoin:miter;stroke-opacity:1"/>
<path class="bond-12 atom-12 atom-14" d="M 681.7,95.4 L 668.7,73.0" style="fill:none;fill-rule:evenodd;stroke:#000000;stroke-width:2.0px;stroke-linecap:butt;stroke-linejoin:miter;stroke-opacity:1"/>
<path class="bond-12 atom-12 atom-14" d="M 668.7,73.0 L 655.7,50.5" style="fill:none;fill-rule:evenodd;stroke:#FF0000;stroke-width:2.0px;stroke-linecap:butt;stroke-linejoin:miter;stroke-opacity:1"/>
<path d="M 685.0,95.4 L 681.7,95.4 L 681.0,94.3" style="fill:none;stroke:#000000;stroke-width:2.0px;stroke-linecap:butt;stroke-linejoin:miter;stroke-opacity:1;"/>
<path class="atom-2" d="M 775.9 142.9 L 782.0 152.7 Q 782.6 153.7, 783.5 155.4 Q 784.5 157.2, 784.6 157.3 L 784.6 142.9 L 787.0 142.9 L 787.0 161.5 L 784.5 161.5 L 778.0 150.7 Q 777.2 149.4, 776.4 148.0 Q 775.6 146.6, 775.4 146.1 L 775.4 161.5 L 772.9 161.5 L 772.9 142.9 L 775.9 142.9 " fill="#0000FF"/>
<path class="atom-2" d="M 790.6 142.9 L 793.1 142.9 L 793.1 150.8 L 802.6 150.8 L 802.6 142.9 L 805.1 142.9 L 805.1 161.5 L 802.6 161.5 L 802.6 152.9 L 793.1 152.9 L 793.1 161.5 L 790.6 161.5 L 790.6 142.9 " fill="#0000FF"/>
<path class="atom-2" d="M 808.7 160.8 Q 809.2 159.6, 810.3 159.0 Q 811.3 158.3, 812.8 158.3 Q 814.7 158.3, 815.7 159.3 Q 816.7 160.4, 816.7 162.1 Q 816.7 164.0, 815.4 165.6 Q 814.1 167.3, 811.3 169.3 L 816.9 169.3 L 816.9 170.7 L 808.7 170.7 L 808.7 169.6 Q 811.0 167.9, 812.3 166.7 Q 813.7 165.5, 814.4 164.4 Q 815.0 163.3, 815.0 162.2 Q 815.0 161.0, 814.4 160.4 Q 813.8 159.7, 812.8 159.7 Q 811.8 159.7, 811.2 160.1 Q 810.5 160.5, 810.0 161.4 L 808.7 160.8 " fill="#0000FF"/>
<path class="atom-4" d="M 640.4 152.2 Q 640.4 147.8, 642.6 145.3 Q 644.8 142.8, 648.9 142.8 Q 653.0 142.8, 655.2 145.3 Q 657.4 147.8, 657.4 152.2 Q 657.4 156.7, 655.2 159.3 Q 653.0 161.8, 648.9 161.8 Q 644.8 161.8, 642.6 159.3 Q 640.4 156.8, 640.4 152.2 M 648.9 159.7 Q 651.7 159.7, 653.3 157.9 Q 654.8 155.9, 654.8 152.2 Q 654.8 148.6, 653.3 146.7 Q 651.7 144.9, 648.9 144.9 Q 646.1 144.9, 644.5 146.7 Q 643.0 148.6, 643.0 152.2 Q 643.0 156.0, 644.5 157.9 Q 646.1 159.7, 648.9 159.7 " fill="#FF0000"/>
<path class="atom-5" d="M 622.1 29.5 L 624.6 29.5 L 624.6 37.4 L 634.1 37.4 L 634.1 29.5 L 636.6 29.5 L 636.6 48.0 L 634.1 48.0 L 634.1 39.5 L 624.6 39.5 L 624.6 48.0 L 622.1 48.0 L 622.1 29.5 " fill="#FF0000"/>
<path class="atom-5" d="M 640.4 38.7 Q 640.4 34.2, 642.6 31.8 Q 644.8 29.3, 648.9 29.3 Q 653.0 29.3, 655.2 31.8 Q 657.4 34.2, 657.4 38.7 Q 657.4 43.2, 655.2 45.8 Q 653.0 48.3, 648.9 48.3 Q 644.8 48.3, 642.6 45.8 Q 640.4 43.2, 640.4 38.7 M 648.9 46.2 Q 651.7 46.2, 653.3 44.3 Q 654.8 42.4, 654.8 38.7 Q 654.8 35.1, 653.3 33.2 Q 651.7 31.4, 648.9 31.4 Q 646.1 31.4, 644.5 33.2 Q 643.0 35.0, 643.0 38.7 Q 643.0 42.5, 644.5 44.3 Q 646.1 46.2, 648.9 46.2 " fill="#FF0000"/>
<path d="M 841.0,90.0 L 841.0,110.0" style="fill:none;fill-rule:evenodd;stroke:#000000;stroke-width:2.0px;stroke-linecap:butt;stroke-linejoin:miter;stroke-opacity:1"/>
<path d="M 831.0,100.0 L 851.0,100.0" style="fill:none;fill-rule:evenodd;stroke:#000000;stroke-width:2.0px;stroke-linecap:butt;stroke-linejoin:miter;stroke-opacity:1"/>
<path class="bond-13 atom-15 atom-16" d="M 994.4,104.8 L 971.6,104.8" style="fill:none;fill-rule:evenodd;stroke:#FF0000;stroke-width:2.0px;stroke-linecap:butt;stroke-linejoin:miter;stroke-opacity:1"/>
<path class="bond-13 atom-15 atom-16" d="M 971.6,104.8 L 948.8,104.8" style="fill:none;fill-rule:evenodd;stroke:#000000;stroke-width:2.0px;stroke-linecap:butt;stroke-linejoin:miter;stroke-opacity:1"/>
<path class="bond-13 atom-15 atom-16" d="M 994.4,94.9 L 971.6,94.9" style="fill:none;fill-rule:evenodd;stroke:#FF0000;stroke-width:2.0px;stroke-linecap:butt;stroke-linejoin:miter;stroke-opacity:1"/>
<path class="bond-13 atom-15 atom-16" d="M 971.6,94.9 L 948.8,94.9" style="fill:none;fill-rule:evenodd;stroke:#000000;stroke-width:2.0px;stroke-linecap:butt;stroke-linejoin:miter;stroke-opacity:1"/>
<path class="bond-14 atom-16 atom-17" d="M 930.2,104.8 L 907.4,104.8" style="fill:none;fill-rule:evenodd;stroke:#000000;stroke-width:2.0px;stroke-linecap:butt;stroke-linejoin:miter;stroke-opacity:1"/>
<path class="bond-14 atom-16 atom-17" d="M 907.4,104.8 L 884.6,104.8" style="fill:none;fill-rule:evenodd;stroke:#FF0000;stroke-width:2.0px;stroke-linecap:butt;stroke-linejoin:miter;stroke-opacity:1"/>
<path class="bond-14 atom-16 atom-17" d="M 930.2,94.9 L 907.4,94.9" style="fill:none;fill-rule:evenodd;stroke:#000000;stroke-width:2.0px;stroke-linecap:butt;stroke-linejoin:miter;stroke-opacity:1"/>
<path class="bond-14 atom-16 atom-17" d="M 907.4,94.9 L 884.6,94.9" style="fill:none;fill-rule:evenodd;stroke:#FF0000;stroke-width:2.0px;stroke-linecap:butt;stroke-linejoin:miter;stroke-opacity:1"/>
<path class="atom-0" d="M 996.5 99.9 Q 996.5 95.5, 998.7 93.0 Q 1000.9 90.5, 1005.0 90.5 Q 1009.2 90.5, 1011.4 93.0 Q 1013.6 95.5, 1013.6 99.9 Q 1013.6 104.4, 1011.3 107.0 Q 1009.1 109.5, 1005.0 109.5 Q 1001.0 109.5, 998.7 107.0 Q 996.5 104.4, 996.5 99.9 M 1005.0 107.4 Q 1007.9 107.4, 1009.4 105.5 Q 1010.9 103.6, 1010.9 99.9 Q 1010.9 96.3, 1009.4 94.4 Q 1007.9 92.6, 1005.0 92.6 Q 1002.2 92.6, 1000.7 94.4 Q 999.1 96.2, 999.1 99.9 Q 999.1 103.7, 1000.7 105.5 Q 1002.2 107.4, 1005.0 107.4 " fill="#FF0000"/>
<path class="atom-1" d="M 932.3 99.9 Q 932.3 95.3, 934.5 92.9 Q 936.7 90.5, 940.8 90.5 Q 944.6 90.5, 946.7 93.2 L 944.9 94.6 Q 943.4 92.6, 940.8 92.6 Q 938.0 92.6, 936.5 94.5 Q 935.0 96.4, 935.0 99.9 Q 935.0 103.6, 936.5 105.5 Q 938.1 107.4, 941.1 107.4 Q 943.1 107.4, 945.5 106.1 L 946.2 108.1 Q 945.3 108.7, 943.8 109.1 Q 942.3 109.5, 940.7 109.5 Q 936.7 109.5, 934.5 107.0 Q 932.3 104.5, 932.3 99.9 " fill="#000000"/>
<path class="atom-2" d="M 865.4 99.9 Q 865.4 95.5, 867.6 93.0 Q 869.8 90.5, 874.0 90.5 Q 878.1 90.5, 880.3 93.0 Q 882.5 95.5, 882.5 99.9 Q 882.5 104.4, 880.3 107.0 Q 878.0 109.5, 874.0 109.5 Q 869.9 109.5, 867.6 107.0 Q 865.4 104.4, 865.4 99.9 M 874.0 107.4 Q 876.8 107.4, 878.3 105.5 Q 879.9 103.6, 879.9 99.9 Q 879.9 96.3, 878.3 94.4 Q 876.8 92.6, 874.0 92.6 Q 871.1 92.6, 869.6 94.4 Q 868.1 96.2, 868.1 99.9 Q 868.1 103.7, 869.6 105.5 Q 871.1 107.4, 874.0 107.4 " fill="#FF0000"/>
<path d="M 502.0,100.0 L 598.0,100.0" style="fill:none;fill-rule:evenodd;stroke:#000000;stroke-width:2.0px;stroke-linecap:butt;stroke-linejoin:miter;stroke-opacity:1"/>
<path d="M 598.0,100.0 L 593.0,102.9" style="fill:none;fill-rule:evenodd;stroke:#000000;stroke-width:2.0px;stroke-linecap:butt;stroke-linejoin:miter;stroke-opacity:1"/>
<path d="M 598.0,100.0 L 593.0,97.1" style="fill:none;fill-rule:evenodd;stroke:#000000;stroke-width:2.0px;stroke-linecap:butt;stroke-linejoin:miter;stroke-opacity:1"/>
</svg>