<svg xmlns="http://www.w3.org/2000/svg" xmlns:rdkit="http://www.rdkit.org/xml" xmlns:xlink="http://www.w3.org/1999/xlink" version="1.1" baseProfile="full" xml:space="preserve" width="400px" height="200px" viewBox="0 0 400 200">
<!-- END OF HEADER -->
<rect style="opacity:1.0;fill:#FFFFFF;stroke:none" width="400.0" height="200.0" x="0.0" y="0.0"> </rect>
<path class="bond-6 atom-6 atom-7" d="M 274.4,84.9 L 279.1,87.9 L 278.9,93.4 L 241.3,113.1 L 236.9,104.6 Z" style="fill:#FF7F7F;fill-rule:evenodd;fill-opacity:1;stroke:#FF7F7F;stroke-width:0.0px;stroke-linecap:butt;stroke-linejoin:miter;stroke-opacity:1;"/>
<path class="bond-7 atom-7 atom-8" d="M 276.1,42.6 L 285.8,43.0 L 284.0,85.3 L 279.1,87.9 L 274.4,84.9 Z" style="fill:#FF7F7F;fill-rule:evenodd;fill-opacity:1;stroke:#FF7F7F;stroke-width:0.0px;stroke-linecap:butt;stroke-linejoin:miter;stroke-opacity:1;"/>
<path class="bond-8 atom-7 atom-9" d="M 284.0,85.3 L 317.5,106.5 L 317.2,112.0 L 312.3,114.6 L 278.9,93.4 L 279.1,87.9 Z" style="fill:#FF7F7F;fill-rule:evenodd;fill-opacity:1;stroke:#FF7F7F;stroke-width:0.0px;stroke-linecap:butt;stroke-linejoin:miter;stroke-opacity:1;"/>
<path class="bond-9 atom-9 atom-10" d="M 317.2,112.0 L 321.9,115.0 L 320.2,157.4 L 310.6,157.0 L 312.3,114.6 Z" style="fill:#FF7F7F;fill-rule:evenodd;fill-opacity:1;stroke:#FF7F7F;stroke-width:0.0px;stroke-linecap:butt;stroke-linejoin:miter;stroke-opacity:1;"/>
<path class="bond-10 atom-9 atom-11" d="M 355.0,86.8 L 359.5,95.4 L 321.9,115.0 L 317.2,112.0 L 317.5,106.5 Z" style="fill:#FF7F7F;fill-rule:evenodd;fill-opacity:1;stroke:#FF7F7F;stroke-width:0.0px;stroke-linecap:butt;stroke-linejoin:miter;stroke-opacity:1;"/>
<ellipse cx="239.1" cy="108.8" rx="9.0" ry="9.0" class="atom-6" style="fill:#FF7F7F;fill-rule:evenodd;stroke:#FF7F7F;stroke-width:1.0px;stroke-linecap:butt;stroke-linejoin:miter;stroke-opacity:1"/>
<ellipse cx="279.1" cy="87.9" rx="9.0" ry="9.0" class="atom-7" style="fill:#FF7F7F;fill-rule:evenodd;stroke:#FF7F7F;stroke-width:1.0px;stroke-linecap:butt;stroke-linejoin:miter;stroke-opacity:1"/>
<ellipse cx="291.2" cy="46.0" rx="21.4" ry="13.6" class="atom-8" style="fill:#FF7F7F;fill-rule:evenodd;stroke:#FF7F7F;stroke-width:1.0px;stroke-linecap:butt;stroke-linejoin:miter;stroke-opacity:1"/>
<ellipse cx="317.2" cy="112.0" rx="9.0" ry="9.0" class="atom-9" style="fill:#FF7F7F;fill-rule:evenodd;stroke:#FF7F7F;stroke-width:1.0px;stroke-linecap:butt;stroke-linejoin:miter;stroke-opacity:1"/>
<ellipse cx="315.4" cy="157.3" rx="9.0" ry="9.3" class="atom-10" style="fill:#FF7F7F;fill-rule:evenodd;stroke:#FF7F7F;stroke-width:1.0px;stroke-linecap:butt;stroke-linejoin:miter;stroke-opacity:1"/>
<ellipse cx="363.2" cy="91.2" rx="16.8" ry="9.3" class="atom-11" style="fill:#FF7F7F;fill-rule:evenodd;stroke:#FF7F7F;stroke-width:1.0px;stroke-linecap:butt;stroke-linejoin:miter;stroke-opacity:1"/>
<path class="bond-0 atom-0 atom-1" d="M 77.9,139.5 L 78.7,119.9" style="fill:none;fill-rule:evenodd;stroke:#0000FF;stroke-width:2.0px;stroke-linecap:butt;stroke-linejoin:miter;stroke-opacity:1"/>
<path class="bond-0 atom-0 atom-1" d="M 78.7,119.9 L 79.5,100.3" style="fill:none;fill-rule:evenodd;stroke:#000000;stroke-width:2.0px;stroke-linecap:butt;stroke-linejoin:miter;stroke-opacity:1"/>
<path class="bond-0 atom-0 atom-1" d="M 84.7,139.8 L 85.5,120.2" style="fill:none;fill-rule:evenodd;stroke:#0000FF;stroke-width:2.0px;stroke-linecap:butt;stroke-linejoin:miter;stroke-opacity:1"/>
<path class="bond-0 atom-0 atom-1" d="M 85.5,120.2 L 86.3,100.6" style="fill:none;fill-rule:evenodd;stroke:#000000;stroke-width:2.0px;stroke-linecap:butt;stroke-linejoin:miter;stroke-opacity:1"/>
<path class="bond-1 atom-1 atom-2" d="M 82.8,102.4 L 66.9,92.3" style="fill:none;fill-rule:evenodd;stroke:#000000;stroke-width:2.0px;stroke-linecap:butt;stroke-linejoin:miter;stroke-opacity:1"/>
<path class="bond-1 atom-1 atom-2" d="M 66.9,92.3 L 51.0,82.3" style="fill:none;fill-rule:evenodd;stroke:#0000FF;stroke-width:2.0px;stroke-linecap:butt;stroke-linejoin:miter;stroke-opacity:1"/>
<path class="bond-2 atom-1 atom-3" d="M 82.8,102.4 L 99.6,93.6" style="fill:none;fill-rule:evenodd;stroke:#000000;stroke-width:2.0px;stroke-linecap:butt;stroke-linejoin:miter;stroke-opacity:1"/>
<path class="bond-2 atom-1 atom-3" d="M 99.6,93.6 L 116.5,84.8" style="fill:none;fill-rule:evenodd;stroke:#0000FF;stroke-width:2.0px;stroke-linecap:butt;stroke-linejoin:miter;stroke-opacity:1"/>
<path class="bond-3 atom-3 atom-4" d="M 129.2,85.5 L 145.1,95.5" style="fill:none;fill-rule:evenodd;stroke:#0000FF;stroke-width:2.0px;stroke-linecap:butt;stroke-linejoin:miter;stroke-opacity:1"/>
<path class="bond-3 atom-3 atom-4" d="M 145.1,95.5 L 161.0,105.6" style="fill:none;fill-rule:evenodd;stroke:#000000;stroke-width:2.0px;stroke-linecap:butt;stroke-linejoin:miter;stroke-opacity:1"/>
<path class="bond-4 atom-4 atom-5" d="M 161.0,105.6 L 200.9,84.7" style="fill:none;fill-rule:evenodd;stroke:#000000;stroke-width:2.0px;stroke-linecap:butt;stroke-linejoin:miter;stroke-opacity:1"/>
<path class="bond-5 atom-5 atom-6" d="M 200.9,84.7 L 239.1,108.8" style="fill:none;fill-rule:evenodd;stroke:#000000;stroke-width:2.0px;stroke-linecap:butt;stroke-linejoin:miter;stroke-opacity:1"/>
<path class="bond-6 atom-6 atom-7" d="M 239.1,108.8 L 279.1,87.9" style="fill:none;fill-rule:evenodd;stroke:#000000;stroke-width:2.0px;stroke-linecap:butt;stroke-linejoin:miter;stroke-opacity:1"/>
<path class="bond-7 atom-7 atom-8" d="M 279.1,87.9 L 280.6,50.7" style="fill:none;fill-rule:evenodd;stroke:#000000;stroke-width:2.0px;stroke-linecap:butt;stroke-linejoin:miter;stroke-opacity:1"/>
<path class="bond-8 atom-7 atom-9" d="M 279.1,87.9 L 317.2,112.0" style="fill:none;fill-rule:evenodd;stroke:#000000;stroke-width:2.0px;stroke-linecap:butt;stroke-linejoin:miter;stroke-opacity:1"/>
<path class="bond-9 atom-9 atom-10" d="M 313.9,110.0 L 312.3,149.1" style="fill:none;fill-rule:evenodd;stroke:#000000;stroke-width:2.0px;stroke-linecap:butt;stroke-linejoin:miter;stroke-opacity:1"/>
<path class="bond-9 atom-9 atom-10" d="M 320.7,110.2 L 319.1,149.3" style="fill:none;fill-rule:evenodd;stroke:#000000;stroke-width:2.0px;stroke-linecap:butt;stroke-linejoin:miter;stroke-opacity:1"/>
<path class="bond-10 atom-9 atom-11" d="M 317.2,112.0 L 349.9,94.9" style="fill:none;fill-rule:evenodd;stroke:#000000;stroke-width:2.0px;stroke-linecap:butt;stroke-linejoin:miter;stroke-opacity:1"/>
<path d="M 82.0,101.9 L 82.8,102.4 L 83.7,102.0" style="fill:none;stroke:#000000;stroke-width:2.0px;stroke-linecap:butt;stroke-linejoin:miter;stroke-opacity:1;"/>
<path d="M 160.2,105.1 L 161.0,105.6 L 163.0,104.6" style="fill:none;stroke:#000000;stroke-width:2.0px;stroke-linecap:butt;stroke-linejoin:miter;stroke-opacity:1;"/>
<path d="M 198.9,85.7 L 200.9,84.7 L 202.9,85.9" style="fill:none;stroke:#000000;stroke-width:2.0px;stroke-linecap:butt;stroke-linejoin:miter;stroke-opacity:1;"/>
<path d="M 237.2,107.6 L 239.1,108.8 L 241.1,107.8" style="fill:none;stroke:#000000;stroke-width:2.0px;stroke-linecap:butt;stroke-linejoin:miter;stroke-opacity:1;"/>
<path d="M 315.3,110.8 L 317.2,112.0 L 318.9,111.2" style="fill:none;stroke:#000000;stroke-width:2.0px;stroke-linecap:butt;stroke-linejoin:miter;stroke-opacity:1;"/>
<path class="atom-0" d="M 78.1 141.1 L 82.3 147.9 Q 82.7 148.6, 83.4 149.8 Q 84.1 151.0, 84.1 151.1 L 84.1 141.1 L 85.8 141.1 L 85.8 153.9 L 84.1 153.9 L 79.6 146.5 Q 79.0 145.6, 78.5 144.6 Q 77.9 143.7, 77.8 143.3 L 77.8 153.9 L 76.1 153.9 L 76.1 141.1 L 78.1 141.1 " fill="#0000FF"/>
<path class="atom-0" d="M 88.3 141.1 L 90.0 141.1 L 90.0 146.6 L 96.6 146.6 L 96.6 141.1 L 98.3 141.1 L 98.3 153.9 L 96.6 153.9 L 96.6 148.0 L 90.0 148.0 L 90.0 153.9 L 88.3 153.9 L 88.3 141.1 " fill="#0000FF"/>
<path class="atom-2" d="M 20.0 71.9 L 21.7 71.9 L 21.7 77.3 L 28.3 77.3 L 28.3 71.9 L 30.0 71.9 L 30.0 84.6 L 28.3 84.6 L 28.3 78.7 L 21.7 78.7 L 21.7 84.6 L 20.0 84.6 L 20.0 71.9 " fill="#0000FF"/>
<path class="atom-2" d="M 32.5 84.2 Q 32.8 83.4, 33.6 83.0 Q 34.3 82.5, 35.3 82.5 Q 36.6 82.5, 37.3 83.2 Q 38.0 83.9, 38.0 85.1 Q 38.0 86.4, 37.1 87.5 Q 36.2 88.7, 34.3 90.1 L 38.2 90.1 L 38.2 91.0 L 32.5 91.0 L 32.5 90.2 Q 34.1 89.1, 35.0 88.3 Q 35.9 87.4, 36.4 86.7 Q 36.8 85.9, 36.8 85.2 Q 36.8 84.4, 36.4 83.9 Q 36.0 83.5, 35.3 83.5 Q 34.6 83.5, 34.2 83.7 Q 33.7 84.0, 33.4 84.6 L 32.5 84.2 " fill="#0000FF"/>
<path class="atom-2" d="M 41.9 71.9 L 46.0 78.6 Q 46.5 79.3, 47.1 80.5 Q 47.8 81.7, 47.8 81.8 L 47.8 71.9 L 49.5 71.9 L 49.5 84.6 L 47.8 84.6 L 43.3 77.2 Q 42.8 76.4, 42.2 75.4 Q 41.7 74.4, 41.5 74.1 L 41.5 84.6 L 39.8 84.6 L 39.8 71.9 L 41.9 71.9 " fill="#0000FF"/>
<path class="atom-3" d="M 120.0 75.1 L 124.2 81.8 Q 124.6 82.5, 125.3 83.7 Q 125.9 84.9, 126.0 85.0 L 126.0 75.1 L 127.7 75.1 L 127.7 87.9 L 125.9 87.9 L 121.4 80.4 Q 120.9 79.6, 120.3 78.6 Q 119.8 77.6, 119.6 77.3 L 119.6 87.9 L 118.0 87.9 L 118.0 75.1 L 120.0 75.1 " fill="#0000FF"/>
<path class="atom-3" d="M 117.8 61.0 L 119.5 61.0 L 119.5 66.4 L 126.1 66.4 L 126.1 61.0 L 127.8 61.0 L 127.8 73.8 L 126.1 73.8 L 126.1 67.9 L 119.5 67.9 L 119.5 73.8 L 117.8 73.8 L 117.8 61.0 " fill="#0000FF"/>
<path class="atom-8" d="M 278.1 36.4 L 282.3 43.2 Q 282.7 43.8, 283.4 45.0 Q 284.1 46.2, 284.1 46.3 L 284.1 36.4 L 285.8 36.4 L 285.8 49.2 L 284.0 49.2 L 279.5 41.8 Q 279.0 40.9, 278.5 39.9 Q 277.9 38.9, 277.8 38.6 L 277.8 49.2 L 276.1 49.2 L 276.1 36.4 L 278.1 36.4 " fill="#000000"/>
<path class="atom-8" d="M 288.2 36.4 L 290.0 36.4 L 290.0 41.8 L 296.5 41.8 L 296.5 36.4 L 298.2 36.4 L 298.2 49.2 L 296.5 49.2 L 296.5 43.3 L 290.0 43.3 L 290.0 49.2 L 288.2 49.2 L 288.2 36.4 " fill="#000000"/>
<path class="atom-8" d="M 300.7 48.7 Q 301.0 47.9, 301.8 47.5 Q 302.5 47.0, 303.6 47.0 Q 304.8 47.0, 305.5 47.7 Q 306.3 48.4, 306.3 49.6 Q 306.3 50.9, 305.3 52.1 Q 304.4 53.2, 302.5 54.6 L 306.4 54.6 L 306.4 55.6 L 300.7 55.6 L 300.7 54.8 Q 302.3 53.6, 303.2 52.8 Q 304.2 52.0, 304.6 51.2 Q 305.1 50.5, 305.1 49.7 Q 305.1 48.9, 304.7 48.4 Q 304.3 48.0, 303.6 48.0 Q 302.9 48.0, 302.4 48.3 Q 302.0 48.5, 301.6 49.1 L 300.7 48.7 " fill="#000000"/>
<path class="atom-10" d="M 309.5 157.2 Q 309.5 154.1, 311.0 152.4 Q 312.5 150.7, 315.4 150.7 Q 318.2 150.7, 319.7 152.4 Q 321.2 154.1, 321.2 157.2 Q 321.2 160.3, 319.7 162.1 Q 318.2 163.8, 315.4 163.8 Q 312.6 163.8, 311.0 162.1 Q 309.5 160.3, 309.5 157.2 M 315.4 162.4 Q 317.3 162.4, 318.4 161.1 Q 319.4 159.8, 319.4 157.2 Q 319.4 154.7, 318.4 153.4 Q 317.3 152.1, 315.4 152.1 Q 313.4 152.1, 312.4 153.4 Q 311.3 154.7, 311.3 157.2 Q 311.3 159.8, 312.4 161.1 Q 313.4 162.4, 315.4 162.4 " fill="#000000"/>
<path class="atom-11" d="M 351.4 91.1 Q 351.4 88.1, 352.9 86.3 Q 354.4 84.6, 357.2 84.6 Q 360.1 84.6, 361.6 86.3 Q 363.1 88.1, 363.1 91.1 Q 363.1 94.2, 361.6 96.0 Q 360.0 97.8, 357.2 97.8 Q 354.4 97.8, 352.9 96.0 Q 351.4 94.3, 351.4 91.1 M 357.2 96.3 Q 359.2 96.3, 360.2 95.0 Q 361.3 93.7, 361.3 91.1 Q 361.3 88.6, 360.2 87.4 Q 359.2 86.1, 357.2 86.1 Q 355.3 86.1, 354.2 87.3 Q 353.2 88.6, 353.2 91.1 Q 353.2 93.7, 354.2 95.0 Q 355.3 96.3, 357.2 96.3 " fill="#000000"/>
<path class="atom-11" d="M 365.1 84.8 L 366.8 84.8 L 366.8 90.2 L 373.4 90.2 L 373.4 84.8 L 375.1 84.8 L 375.1 97.6 L 373.4 97.6 L 373.4 91.7 L 366.8 91.7 L 366.8 97.6 L 365.1 97.6 L 365.1 84.8 " fill="#000000"/>
<path class="note" d="M 80.3 165.9 Q 79.2 165.9, 78.6 165.0 Q 78.0 164.1, 78.0 162.6 Q 78.0 161.0, 78.6 160.2 Q 79.2 159.3, 80.3 159.3 Q 81.5 159.3, 82.1 160.2 Q 82.7 161.0, 82.7 162.6 Q 82.7 164.1, 82.1 165.0 Q 81.5 165.9, 80.3 165.9 M 80.3 165.1 Q 81.0 165.1, 81.4 164.5 Q 81.8 163.8, 81.8 162.6 Q 81.8 161.3, 81.4 160.7 Q 81.0 160.0, 80.3 160.0 Q 79.7 160.0, 79.3 160.7 Q 78.9 161.3, 78.9 162.6 Q 78.9 163.8, 79.3 164.5 Q 79.7 165.1, 80.3 165.1 " fill="#000000"/>
<path class="note" d="M 81.6 97.4 L 83.0 97.4 L 83.0 92.6 L 81.4 93.1 L 81.2 92.6 L 83.2 91.7 L 83.8 91.8 L 83.8 97.4 L 85.1 97.4 L 85.1 98.1 L 81.6 98.1 L 81.6 97.4 " fill="#000000"/>
<path class="note" d="M 35.6 63.0 Q 35.8 62.4, 36.4 62.0 Q 36.9 61.7, 37.7 61.7 Q 38.7 61.7, 39.2 62.2 Q 39.7 62.7, 39.7 63.7 Q 39.7 64.6, 39.0 65.5 Q 38.3 66.4, 36.9 67.4 L 39.8 67.4 L 39.8 68.1 L 35.5 68.1 L 35.5 67.5 Q 36.7 66.7, 37.4 66.1 Q 38.2 65.4, 38.5 64.9 Q 38.8 64.3, 38.8 63.7 Q 38.8 63.1, 38.5 62.7 Q 38.2 62.4, 37.7 62.4 Q 37.2 62.4, 36.8 62.6 Q 36.5 62.8, 36.2 63.3 L 35.6 63.0 " fill="#000000"/>
<path class="note" d="M 123.1 96.4 Q 123.7 96.5, 124.0 96.9 Q 124.3 97.3, 124.3 98.0 Q 124.3 98.5, 124.1 98.9 Q 123.8 99.4, 123.3 99.6 Q 122.8 99.8, 122.2 99.8 Q 121.5 99.8, 121.0 99.6 Q 120.5 99.3, 120.0 98.9 L 120.6 98.3 Q 121.0 98.8, 121.3 98.9 Q 121.6 99.1, 122.2 99.1 Q 122.7 99.1, 123.1 98.8 Q 123.4 98.5, 123.4 98.0 Q 123.4 97.3, 123.1 97.0 Q 122.7 96.7, 121.9 96.7 L 121.5 96.7 L 121.5 96.1 L 121.9 96.1 Q 122.6 96.1, 122.9 95.8 Q 123.3 95.5, 123.3 94.9 Q 123.3 94.5, 123.0 94.2 Q 122.7 94.0, 122.2 94.0 Q 121.6 94.0, 121.3 94.2 Q 121.0 94.4, 120.7 94.8 L 120.1 94.5 Q 120.3 94.0, 120.9 93.6 Q 121.4 93.3, 122.2 93.3 Q 123.1 93.3, 123.7 93.7 Q 124.2 94.1, 124.2 94.9 Q 124.2 95.4, 123.9 95.8 Q 123.6 96.2, 123.1 96.4 " fill="#000000"/>
<path class="note" d="M 162.3 114.1 L 163.1 114.1 L 163.1 114.9 L 162.3 114.9 L 162.3 116.3 L 161.5 116.3 L 161.5 114.9 L 158.2 114.9 L 158.2 114.3 L 161.0 109.9 L 162.3 109.9 L 162.3 114.1 M 159.2 114.1 L 161.5 114.1 L 161.5 110.5 L 159.2 114.1 " fill="#000000"/>
<path class="note" d="M 201.4 76.3 Q 202.0 76.3, 202.4 76.6 Q 202.9 76.8, 203.2 77.3 Q 203.4 77.7, 203.4 78.3 Q 203.4 79.0, 203.1 79.5 Q 202.8 79.9, 202.3 80.2 Q 201.7 80.4, 201.1 80.4 Q 200.5 80.4, 200.0 80.2 Q 199.5 80.0, 199.1 79.6 L 199.6 79.0 Q 199.9 79.3, 200.3 79.5 Q 200.7 79.7, 201.2 79.7 Q 201.7 79.7, 202.1 79.3 Q 202.5 79.0, 202.5 78.3 Q 202.5 77.7, 202.1 77.4 Q 201.7 77.0, 201.1 77.0 Q 200.5 77.0, 199.9 77.3 L 199.4 77.0 L 199.7 74.0 L 203.0 74.0 L 202.9 74.7 L 200.5 74.7 L 200.3 76.6 Q 200.9 76.3, 201.4 76.3 " fill="#000000"/>
<path class="note" d="M 239.1 115.6 Q 239.6 115.6, 240.1 115.8 Q 240.5 116.1, 240.8 116.5 Q 241.0 117.0, 241.0 117.5 Q 241.0 118.1, 240.7 118.6 Q 240.4 119.1, 240.0 119.4 Q 239.5 119.7, 238.8 119.7 Q 237.7 119.7, 237.1 118.9 Q 236.6 118.1, 236.6 116.6 Q 236.6 114.9, 237.3 114.0 Q 238.0 113.1, 239.3 113.1 Q 239.7 113.1, 240.1 113.2 Q 240.4 113.3, 240.7 113.5 L 240.4 114.1 Q 239.9 113.8, 239.4 113.8 Q 238.5 113.8, 238.0 114.4 Q 237.5 115.0, 237.5 116.2 Q 237.8 115.9, 238.2 115.8 Q 238.6 115.6, 239.1 115.6 M 238.9 118.9 Q 239.2 118.9, 239.5 118.7 Q 239.8 118.6, 239.9 118.2 Q 240.1 117.9, 240.1 117.5 Q 240.1 117.0, 239.8 116.6 Q 239.5 116.3, 238.9 116.3 Q 238.5 116.3, 238.1 116.5 Q 237.7 116.6, 237.5 116.9 Q 237.5 118.0, 237.8 118.4 Q 238.2 118.9, 238.9 118.9 " fill="#000000"/>
<path class="note" d="M 274.0 81.4 L 270.6 81.4 L 270.6 80.7 L 274.8 80.7 L 274.8 81.3 L 272.3 87.1 L 271.4 87.1 L 274.0 81.4 " fill="#000000"/>
<path class="note" d="M 282.6 27.6 Q 283.1 27.8, 283.5 28.2 Q 283.8 28.6, 283.8 29.2 Q 283.8 29.8, 283.5 30.2 Q 283.3 30.6, 282.7 30.8 Q 282.3 31.1, 281.6 31.1 Q 280.5 31.1, 279.9 30.6 Q 279.3 30.1, 279.3 29.2 Q 279.3 28.7, 279.6 28.3 Q 279.8 27.9, 280.4 27.6 Q 280.0 27.4, 279.8 27.0 Q 279.5 26.7, 279.5 26.1 Q 279.5 25.4, 280.1 24.9 Q 280.6 24.5, 281.6 24.5 Q 282.5 24.5, 283.0 24.9 Q 283.6 25.4, 283.6 26.1 Q 283.6 26.6, 283.3 27.0 Q 283.1 27.3, 282.6 27.6 M 281.6 25.2 Q 281.0 25.2, 280.7 25.4 Q 280.4 25.7, 280.4 26.1 Q 280.4 26.5, 280.6 26.7 Q 280.8 26.9, 281.1 27.0 Q 281.4 27.2, 282.0 27.4 Q 282.3 27.1, 282.5 26.8 Q 282.7 26.5, 282.7 26.1 Q 282.7 25.7, 282.4 25.4 Q 282.1 25.2, 281.6 25.2 M 281.6 30.4 Q 282.2 30.4, 282.6 30.1 Q 282.9 29.7, 282.9 29.2 Q 282.9 28.9, 282.7 28.6 Q 282.5 28.4, 282.2 28.3 Q 282.0 28.2, 281.5 28.0 L 281.1 27.9 Q 280.6 28.1, 280.4 28.5 Q 280.2 28.8, 280.2 29.2 Q 280.2 29.7, 280.6 30.1 Q 281.0 30.4, 281.6 30.4 " fill="#000000"/>
<path class="note" d="M 317.5 101.3 Q 318.6 101.3, 319.2 102.1 Q 319.8 102.8, 319.8 104.4 Q 319.8 106.1, 319.0 107.0 Q 318.3 107.8, 317.0 107.8 Q 316.6 107.8, 316.2 107.7 Q 315.9 107.7, 315.6 107.5 L 315.9 106.9 Q 316.4 107.1, 317.0 107.1 Q 317.9 107.1, 318.3 106.5 Q 318.8 105.9, 318.8 104.7 Q 318.5 105.0, 318.1 105.2 Q 317.7 105.4, 317.2 105.4 Q 316.7 105.4, 316.2 105.1 Q 315.8 104.9, 315.6 104.4 Q 315.3 104.0, 315.3 103.4 Q 315.3 102.8, 315.6 102.3 Q 315.9 101.8, 316.4 101.6 Q 316.8 101.3, 317.5 101.3 M 316.2 103.4 Q 316.2 104.0, 316.5 104.3 Q 316.9 104.6, 317.4 104.6 Q 317.8 104.6, 318.2 104.5 Q 318.6 104.3, 318.8 104.0 Q 318.8 103.0, 318.5 102.5 Q 318.1 102.0, 317.5 102.0 Q 317.1 102.0, 316.8 102.2 Q 316.5 102.4, 316.4 102.7 Q 316.2 103.0, 316.2 103.4 " fill="#000000"/>
<path class="note" d="M 310.4 174.7 L 311.8 174.7 L 311.8 169.9 L 310.3 170.4 L 310.1 169.9 L 312.0 169.0 L 312.7 169.1 L 312.7 174.7 L 313.9 174.7 L 313.9 175.4 L 310.4 175.4 L 310.4 174.7 " fill="#000000"/>
<path class="note" d="M 317.1 175.5 Q 315.9 175.5, 315.3 174.6 Q 314.7 173.8, 314.7 172.2 Q 314.7 170.7, 315.3 169.8 Q 315.9 169.0, 317.1 169.0 Q 318.3 169.0, 318.8 169.8 Q 319.4 170.7, 319.4 172.2 Q 319.4 173.8, 318.8 174.6 Q 318.3 175.5, 317.1 175.5 M 317.1 174.8 Q 317.8 174.8, 318.1 174.1 Q 318.5 173.5, 318.5 172.2 Q 318.5 171.0, 318.1 170.3 Q 317.8 169.7, 317.1 169.7 Q 316.4 169.7, 316.0 170.3 Q 315.6 171.0, 315.6 172.2 Q 315.6 173.5, 316.0 174.1 Q 316.4 174.8, 317.1 174.8 " fill="#000000"/>
<path class="note" d="M 360.3 106.9 L 361.7 106.9 L 361.7 102.1 L 360.2 102.6 L 360.0 102.1 L 361.9 101.2 L 362.6 101.3 L 362.6 106.9 L 363.8 106.9 L 363.8 107.6 L 360.3 107.6 L 360.3 106.9 " fill="#000000"/>
<path class="note" d="M 364.9 106.9 L 366.3 106.9 L 366.3 102.1 L 364.8 102.6 L 364.6 102.1 L 366.5 101.2 L 367.2 101.3 L 367.2 106.9 L 368.4 106.9 L 368.4 107.6 L 364.9 107.6 L 364.9 106.9 " fill="#000000"/>
</svg>