<svg xmlns="http://www.w3.org/2000/svg" xmlns:rdkit="http://www.rdkit.org/xml" xmlns:xlink="http://www.w3.org/1999/xlink" version="1.1" baseProfile="full" xml:space="preserve" width="900px" height="200px" viewBox="0 0 900 200">
<!-- END OF HEADER -->
<rect style="opacity:1.0;fill:#FFFFFF;stroke:none" width="900.0" height="200.0" x="0.0" y="0.0"> </rect>
<path class="bond-0 atom-0 atom-1" d="M 163.8,89.5 L 138.6,77.5" style="fill:none;fill-rule:evenodd;stroke:#000000;stroke-width:2.0px;stroke-linecap:butt;stroke-linejoin:miter;stroke-opacity:1"/>
<path class="bond-1 atom-1 atom-2" d="M 131.3,65.3 L 130.0,48.8" style="fill:none;fill-rule:evenodd;stroke:#000000;stroke-width:2.0px;stroke-linecap:butt;stroke-linejoin:miter;stroke-opacity:1"/>
<path class="bond-1 atom-1 atom-2" d="M 130.0,48.8 L 128.7,32.4" style="fill:none;fill-rule:evenodd;stroke:#FF0000;stroke-width:2.0px;stroke-linecap:butt;stroke-linejoin:miter;stroke-opacity:1"/>
<path class="bond-2 atom-0 atom-3" d="M 179.3,108.0 L 181.8,138.7" style="fill:none;fill-rule:evenodd;stroke:#000000;stroke-width:2.0px;stroke-linecap:butt;stroke-linejoin:miter;stroke-opacity:1"/>
<path class="bond-3 atom-3 atom-4" d="M 196.0,158.5 L 207.4,164.0" style="fill:none;fill-rule:evenodd;stroke:#000000;stroke-width:2.0px;stroke-linecap:butt;stroke-linejoin:miter;stroke-opacity:1"/>
<path class="bond-3 atom-3 atom-4" d="M 207.4,164.0 L 218.8,169.5" style="fill:none;fill-rule:evenodd;stroke:#FF0000;stroke-width:2.0px;stroke-linecap:butt;stroke-linejoin:miter;stroke-opacity:1"/>
<path class="bond-3 atom-3 atom-4" d="M 199.3,151.6 L 210.7,157.0" style="fill:none;fill-rule:evenodd;stroke:#000000;stroke-width:2.0px;stroke-linecap:butt;stroke-linejoin:miter;stroke-opacity:1"/>
<path class="bond-3 atom-3 atom-4" d="M 210.7,157.0 L 222.2,162.5" style="fill:none;fill-rule:evenodd;stroke:#FF0000;stroke-width:2.0px;stroke-linecap:butt;stroke-linejoin:miter;stroke-opacity:1"/>
<path class="bond-4 atom-3 atom-5" d="M 169.0,157.1 L 157.6,164.9" style="fill:none;fill-rule:evenodd;stroke:#000000;stroke-width:2.0px;stroke-linecap:butt;stroke-linejoin:miter;stroke-opacity:1"/>
<path class="bond-4 atom-3 atom-5" d="M 157.6,164.9 L 146.1,172.7" style="fill:none;fill-rule:evenodd;stroke:#FF0000;stroke-width:2.0px;stroke-linecap:butt;stroke-linejoin:miter;stroke-opacity:1"/>
<path class="bond-5 atom-0 atom-6" d="M 191.5,87.5 L 199.4,82.1" style="fill:none;fill-rule:evenodd;stroke:#000000;stroke-width:2.0px;stroke-linecap:butt;stroke-linejoin:miter;stroke-opacity:1"/>
<path class="bond-5 atom-0 atom-6" d="M 199.4,82.1 L 207.3,76.7" style="fill:none;fill-rule:evenodd;stroke:#FF0000;stroke-width:2.0px;stroke-linecap:butt;stroke-linejoin:miter;stroke-opacity:1"/>
<path class="bond-6 atom-6 atom-7" d="M 237.3,75.3 L 245.1,79.0" style="fill:none;fill-rule:evenodd;stroke:#FF0000;stroke-width:2.0px;stroke-linecap:butt;stroke-linejoin:miter;stroke-opacity:1"/>
<path class="bond-6 atom-6 atom-7" d="M 245.1,79.0 L 252.9,82.7" style="fill:none;fill-rule:evenodd;stroke:#FF7F00;stroke-width:2.0px;stroke-linecap:butt;stroke-linejoin:miter;stroke-opacity:1"/>
<path class="bond-7 atom-7 atom-8" d="M 275.1,82.2 L 281.8,68.1" style="fill:none;fill-rule:evenodd;stroke:#FF7F00;stroke-width:2.0px;stroke-linecap:butt;stroke-linejoin:miter;stroke-opacity:1"/>
<path class="bond-7 atom-7 atom-8" d="M 281.8,68.1 L 288.5,54.1" style="fill:none;fill-rule:evenodd;stroke:#FF0000;stroke-width:2.0px;stroke-linecap:butt;stroke-linejoin:miter;stroke-opacity:1"/>
<path class="bond-7 atom-7 atom-8" d="M 268.1,78.8 L 274.8,64.8" style="fill:none;fill-rule:evenodd;stroke:#FF7F00;stroke-width:2.0px;stroke-linecap:butt;stroke-linejoin:miter;stroke-opacity:1"/>
<path class="bond-7 atom-7 atom-8" d="M 274.8,64.8 L 281.5,50.8" style="fill:none;fill-rule:evenodd;stroke:#FF0000;stroke-width:2.0px;stroke-linecap:butt;stroke-linejoin:miter;stroke-opacity:1"/>
<path class="bond-8 atom-7 atom-9" d="M 263.0,98.6 L 256.2,112.8" style="fill:none;fill-rule:evenodd;stroke:#FF7F00;stroke-width:2.0px;stroke-linecap:butt;stroke-linejoin:miter;stroke-opacity:1"/>
<path class="bond-8 atom-7 atom-9" d="M 256.2,112.8 L 249.4,126.9" style="fill:none;fill-rule:evenodd;stroke:#FF0000;stroke-width:2.0px;stroke-linecap:butt;stroke-linejoin:miter;stroke-opacity:1"/>
<path class="bond-9 atom-7 atom-10" d="M 281.7,96.4 L 293.5,102.1" style="fill:none;fill-rule:evenodd;stroke:#FF7F00;stroke-width:2.0px;stroke-linecap:butt;stroke-linejoin:miter;stroke-opacity:1"/>
<path class="bond-9 atom-7 atom-10" d="M 293.5,102.1 L 305.3,107.7" style="fill:none;fill-rule:evenodd;stroke:#FF0000;stroke-width:2.0px;stroke-linecap:butt;stroke-linejoin:miter;stroke-opacity:1"/>
<path class="atom-0" d="M 165.5 96.6 Q 165.5 93.0, 167.2 91.1 Q 168.9 89.2, 172.1 89.2 Q 175.1 89.2, 176.7 91.3 L 175.4 92.4 Q 174.2 90.8, 172.1 90.8 Q 169.9 90.8, 168.7 92.3 Q 167.6 93.8, 167.6 96.6 Q 167.6 99.5, 168.8 100.9 Q 170.0 102.4, 172.3 102.4 Q 173.9 102.4, 175.8 101.5 L 176.4 103.0 Q 175.6 103.5, 174.5 103.8 Q 173.3 104.1, 172.1 104.1 Q 168.9 104.1, 167.2 102.1 Q 165.5 100.2, 165.5 96.6 " fill="#000000"/>
<path class="atom-0" d="M 178.3 101.5 L 180.3 101.5 L 180.3 103.5 L 178.3 103.5 L 178.3 101.5 M 178.3 94.4 L 180.3 94.4 L 180.3 96.5 L 178.3 96.5 L 178.3 94.4 " fill="#000000"/>
<path class="atom-0" d="M 183.4 102.2 L 186.6 102.2 L 186.6 91.4 L 183.1 92.5 L 182.6 91.2 L 187.1 89.2 L 188.5 89.5 L 188.5 102.2 L 191.4 102.2 L 191.4 103.9 L 183.4 103.9 L 183.4 102.2 " fill="#000000"/>
<path class="atom-1" d="M 109.9 74.4 Q 109.9 70.8, 111.6 68.9 Q 113.3 67.0, 116.5 67.0 Q 119.6 67.0, 121.2 69.1 L 119.8 70.2 Q 118.6 68.7, 116.5 68.7 Q 114.3 68.7, 113.2 70.2 Q 112.0 71.6, 112.0 74.4 Q 112.0 77.3, 113.2 78.8 Q 114.4 80.3, 116.8 80.3 Q 118.4 80.3, 120.2 79.3 L 120.8 80.8 Q 120.1 81.3, 118.9 81.6 Q 117.8 81.9, 116.5 81.9 Q 113.3 81.9, 111.6 80.0 Q 109.9 78.0, 109.9 74.4 " fill="#000000"/>
<path class="atom-1" d="M 122.7 79.3 L 124.8 79.3 L 124.8 81.4 L 122.7 81.4 L 122.7 79.3 M 122.7 72.2 L 124.8 72.2 L 124.8 74.3 L 122.7 74.3 L 122.7 72.2 " fill="#000000"/>
<path class="atom-1" d="M 127.2 69.9 Q 127.7 68.5, 129.0 67.8 Q 130.2 67.0, 132.0 67.0 Q 134.2 67.0, 135.5 68.2 Q 136.7 69.4, 136.7 71.5 Q 136.7 73.7, 135.1 75.7 Q 133.5 77.7, 130.2 80.1 L 136.9 80.1 L 136.9 81.7 L 127.1 81.7 L 127.1 80.3 Q 129.8 78.4, 131.4 77.0 Q 133.1 75.5, 133.8 74.2 Q 134.6 72.9, 134.6 71.6 Q 134.6 70.2, 133.9 69.4 Q 133.2 68.6, 132.0 68.6 Q 130.8 68.6, 130.1 69.1 Q 129.3 69.6, 128.7 70.6 L 127.2 69.9 " fill="#000000"/>
<path class="atom-2" d="M 121.3 23.1 Q 121.3 19.6, 123.1 17.7 Q 124.8 15.7, 128.0 15.7 Q 131.2 15.7, 133.0 17.7 Q 134.7 19.6, 134.7 23.1 Q 134.7 26.6, 133.0 28.7 Q 131.2 30.7, 128.0 30.7 Q 124.8 30.7, 123.1 28.7 Q 121.3 26.7, 121.3 23.1 M 128.0 29.0 Q 130.2 29.0, 131.4 27.5 Q 132.6 26.0, 132.6 23.1 Q 132.6 20.2, 131.4 18.8 Q 130.2 17.3, 128.0 17.3 Q 125.8 17.3, 124.6 18.8 Q 123.4 20.2, 123.4 23.1 Q 123.4 26.1, 124.6 27.5 Q 125.8 29.0, 128.0 29.0 " fill="#FF0000"/>
<path class="atom-2" d="M 136.7 28.0 L 138.7 28.0 L 138.7 30.1 L 136.7 30.1 L 136.7 28.0 M 136.7 20.9 L 138.7 20.9 L 138.7 23.0 L 136.7 23.0 L 136.7 20.9 " fill="#FF0000"/>
<path class="atom-2" d="M 150.7 25.4 L 152.4 25.4 L 152.4 27.1 L 150.7 27.1 L 150.7 30.4 L 148.8 30.4 L 148.8 27.1 L 141.2 27.1 L 141.2 25.8 L 147.6 15.9 L 150.7 15.9 L 150.7 25.4 M 143.6 25.4 L 148.8 25.4 L 148.8 17.2 L 143.6 25.4 " fill="#FF0000"/>
<path class="atom-2" d="M 154.4 15.9 L 156.4 15.9 L 156.4 22.1 L 163.8 22.1 L 163.8 15.9 L 165.8 15.9 L 165.8 30.4 L 163.8 30.4 L 163.8 23.7 L 156.4 23.7 L 156.4 30.4 L 154.4 30.4 L 154.4 15.9 " fill="#FF0000"/>
<path class="atom-3" d="M 169.0 147.9 Q 169.0 144.3, 170.7 142.4 Q 172.4 140.4, 175.6 140.4 Q 178.6 140.4, 180.2 142.6 L 178.8 143.7 Q 177.7 142.1, 175.6 142.1 Q 173.4 142.1, 172.2 143.6 Q 171.1 145.1, 171.1 147.9 Q 171.1 150.8, 172.3 152.2 Q 173.5 153.7, 175.8 153.7 Q 177.4 153.7, 179.3 152.8 L 179.9 154.3 Q 179.1 154.8, 178.0 155.1 Q 176.8 155.4, 175.5 155.4 Q 172.4 155.4, 170.7 153.4 Q 169.0 151.5, 169.0 147.9 " fill="#000000"/>
<path class="atom-3" d="M 181.8 152.8 L 183.9 152.8 L 183.9 154.8 L 181.8 154.8 L 181.8 152.8 M 181.8 145.7 L 183.9 145.7 L 183.9 147.8 L 181.8 147.8 L 181.8 145.7 " fill="#000000"/>
<path class="atom-3" d="M 193.2 147.5 Q 194.6 147.9, 195.3 148.8 Q 196.0 149.7, 196.0 151.2 Q 196.0 152.4, 195.3 153.4 Q 194.7 154.3, 193.6 154.9 Q 192.5 155.4, 191.0 155.4 Q 189.4 155.4, 188.2 154.8 Q 187.1 154.3, 186.2 153.2 L 187.3 152.0 Q 188.2 153.0, 189.0 153.4 Q 189.8 153.7, 191.0 153.7 Q 192.3 153.7, 193.1 153.0 Q 193.9 152.3, 193.9 151.2 Q 193.9 149.7, 193.1 149.0 Q 192.2 148.3, 190.4 148.3 L 189.4 148.3 L 189.4 146.9 L 190.3 146.9 Q 191.9 146.8, 192.8 146.2 Q 193.6 145.5, 193.6 144.2 Q 193.6 143.2, 192.9 142.7 Q 192.2 142.1, 191.0 142.1 Q 189.8 142.1, 189.0 142.5 Q 188.3 143.0, 187.7 144.0 L 186.3 143.3 Q 186.8 142.1, 188.0 141.3 Q 189.3 140.4, 191.0 140.4 Q 193.1 140.4, 194.4 141.5 Q 195.7 142.5, 195.7 144.2 Q 195.7 145.3, 195.0 146.2 Q 194.4 147.0, 193.2 147.5 " fill="#000000"/>
<path class="atom-4" d="M 222.2 170.0 Q 222.2 166.5, 223.9 164.6 Q 225.7 162.6, 228.9 162.6 Q 232.1 162.6, 233.8 164.6 Q 235.6 166.5, 235.6 170.0 Q 235.6 173.6, 233.8 175.6 Q 232.1 177.6, 228.9 177.6 Q 225.7 177.6, 223.9 175.6 Q 222.2 173.6, 222.2 170.0 M 228.9 175.9 Q 231.1 175.9, 232.3 174.4 Q 233.5 172.9, 233.5 170.0 Q 233.5 167.2, 232.3 165.7 Q 231.1 164.3, 228.9 164.3 Q 226.7 164.3, 225.5 165.7 Q 224.3 167.1, 224.3 170.0 Q 224.3 173.0, 225.5 174.4 Q 226.7 175.9, 228.9 175.9 " fill="#FF0000"/>
<path class="atom-4" d="M 237.5 174.9 L 239.5 174.9 L 239.5 177.0 L 237.5 177.0 L 237.5 174.9 M 237.5 167.9 L 239.5 167.9 L 239.5 169.9 L 237.5 169.9 L 237.5 167.9 " fill="#FF0000"/>
<path class="atom-4" d="M 242.8 175.7 L 245.9 175.7 L 245.9 164.8 L 242.4 165.9 L 241.9 164.7 L 246.4 162.7 L 247.9 162.9 L 247.9 175.7 L 250.7 175.7 L 250.7 177.3 L 242.8 177.3 L 242.8 175.7 " fill="#FF0000"/>
<path class="atom-4" d="M 257.8 177.5 Q 255.1 177.5, 253.8 175.5 Q 252.5 173.6, 252.5 170.0 Q 252.5 166.5, 253.8 164.6 Q 255.1 162.6, 257.8 162.6 Q 260.5 162.6, 261.8 164.6 Q 263.1 166.5, 263.1 170.0 Q 263.1 173.6, 261.8 175.5 Q 260.5 177.5, 257.8 177.5 M 257.8 175.9 Q 259.4 175.9, 260.2 174.4 Q 261.1 172.9, 261.1 170.0 Q 261.1 167.2, 260.2 165.7 Q 259.4 164.3, 257.8 164.3 Q 256.2 164.3, 255.4 165.7 Q 254.5 167.2, 254.5 170.0 Q 254.5 172.9, 255.4 174.4 Q 256.2 175.9, 257.8 175.9 " fill="#FF0000"/>
<path class="atom-5" d="M 91.3 169.7 L 93.3 169.7 L 93.3 175.9 L 100.7 175.9 L 100.7 169.7 L 102.7 169.7 L 102.7 184.3 L 100.7 184.3 L 100.7 177.6 L 93.3 177.6 L 93.3 184.3 L 91.3 184.3 L 91.3 169.7 " fill="#FF0000"/>
<path class="atom-5" d="M 105.3 177.0 Q 105.3 173.5, 107.1 171.5 Q 108.8 169.6, 112.0 169.6 Q 115.3 169.6, 117.0 171.5 Q 118.7 173.5, 118.7 177.0 Q 118.7 180.5, 117.0 182.5 Q 115.2 184.5, 112.0 184.5 Q 108.8 184.5, 107.1 182.5 Q 105.3 180.5, 105.3 177.0 M 112.0 182.9 Q 114.2 182.9, 115.4 181.4 Q 116.7 179.9, 116.7 177.0 Q 116.7 174.1, 115.4 172.7 Q 114.2 171.2, 112.0 171.2 Q 109.8 171.2, 108.6 172.7 Q 107.4 174.1, 107.4 177.0 Q 107.4 179.9, 108.6 181.4 Q 109.8 182.9, 112.0 182.9 " fill="#FF0000"/>
<path class="atom-5" d="M 120.6 181.9 L 122.7 181.9 L 122.7 183.9 L 120.6 183.9 L 120.6 181.9 M 120.6 174.8 L 122.7 174.8 L 122.7 176.9 L 120.6 176.9 L 120.6 174.8 " fill="#FF0000"/>
<path class="atom-5" d="M 125.9 182.7 L 129.1 182.7 L 129.1 171.8 L 125.6 172.9 L 125.1 171.6 L 129.6 169.6 L 131.0 169.9 L 131.0 182.7 L 133.9 182.7 L 133.9 184.3 L 125.9 184.3 L 125.9 182.7 " fill="#FF0000"/>
<path class="atom-5" d="M 136.5 182.7 L 139.7 182.7 L 139.7 171.8 L 136.1 172.9 L 135.7 171.6 L 140.1 169.6 L 141.6 169.9 L 141.6 182.7 L 144.4 182.7 L 144.4 184.3 L 136.5 184.3 L 136.5 182.7 " fill="#FF0000"/>
<path class="atom-6" d="M 206.1 67.4 Q 206.1 63.9, 207.8 62.0 Q 209.5 60.0, 212.8 60.0 Q 216.0 60.0, 217.7 62.0 Q 219.5 63.9, 219.5 67.4 Q 219.5 71.0, 217.7 73.0 Q 216.0 75.0, 212.8 75.0 Q 209.6 75.0, 207.8 73.0 Q 206.1 71.0, 206.1 67.4 M 212.8 73.4 Q 215.0 73.4, 216.2 71.9 Q 217.4 70.4, 217.4 67.4 Q 217.4 64.6, 216.2 63.1 Q 215.0 61.7, 212.8 61.7 Q 210.6 61.7, 209.3 63.1 Q 208.1 64.6, 208.1 67.4 Q 208.1 70.4, 209.3 71.9 Q 210.6 73.4, 212.8 73.4 " fill="#FF0000"/>
<path class="atom-6" d="M 221.3 72.4 L 223.4 72.4 L 223.4 74.4 L 221.3 74.4 L 221.3 72.4 M 221.3 65.3 L 223.4 65.3 L 223.4 67.3 L 221.3 67.3 L 221.3 65.3 " fill="#FF0000"/>
<path class="atom-6" d="M 231.1 65.7 Q 232.3 65.7, 233.4 66.2 Q 234.4 66.7, 235.0 67.8 Q 235.6 68.8, 235.6 70.2 Q 235.6 71.7, 234.9 72.8 Q 234.2 73.8, 233.0 74.4 Q 231.8 74.9, 230.4 74.9 Q 229.1 74.9, 227.9 74.4 Q 226.6 73.9, 225.8 73.0 L 227.0 71.7 Q 227.7 72.5, 228.6 72.9 Q 229.5 73.3, 230.5 73.3 Q 231.8 73.3, 232.7 72.5 Q 233.6 71.7, 233.6 70.2 Q 233.6 68.7, 232.7 67.9 Q 231.8 67.2, 230.4 67.2 Q 229.1 67.2, 227.7 67.8 L 226.5 67.2 L 227.2 60.2 L 234.7 60.2 L 234.5 61.8 L 228.9 61.8 L 228.5 66.2 Q 229.8 65.7, 231.1 65.7 " fill="#FF0000"/>
<path class="atom-7" d="M 258.9 82.4 Q 261.4 82.4, 262.6 83.5 Q 263.9 84.6, 263.9 86.7 Q 263.9 88.7, 262.6 89.8 Q 261.3 91.0, 258.9 91.0 L 256.6 91.0 L 256.6 96.9 L 254.6 96.9 L 254.6 82.4 L 258.9 82.4 M 258.9 89.3 Q 260.3 89.3, 261.1 88.6 Q 261.8 87.9, 261.8 86.7 Q 261.8 85.4, 261.1 84.7 Q 260.3 84.0, 258.9 84.0 L 256.6 84.0 L 256.6 89.3 L 258.9 89.3 " fill="#FF7F00"/>
<path class="atom-7" d="M 265.6 94.5 L 267.6 94.5 L 267.6 96.6 L 265.6 96.6 L 265.6 94.5 M 265.6 87.5 L 267.6 87.5 L 267.6 89.5 L 265.6 89.5 L 265.6 87.5 " fill="#FF7F00"/>
<path class="atom-7" d="M 275.6 87.8 Q 276.9 87.8, 277.9 88.4 Q 278.9 89.0, 279.4 90.0 Q 280.0 91.0, 280.0 92.2 Q 280.0 93.7, 279.3 94.8 Q 278.7 95.9, 277.6 96.5 Q 276.5 97.1, 275.1 97.1 Q 272.5 97.1, 271.2 95.4 Q 269.9 93.6, 269.9 90.1 Q 269.9 86.2, 271.5 84.2 Q 273.1 82.2, 276.2 82.2 Q 277.1 82.2, 277.9 82.4 Q 278.7 82.6, 279.4 83.1 L 278.6 84.4 Q 277.5 83.9, 276.2 83.9 Q 274.2 83.9, 273.1 85.2 Q 272.1 86.5, 272.0 89.2 Q 272.7 88.6, 273.6 88.2 Q 274.6 87.8, 275.6 87.8 M 275.1 95.4 Q 275.9 95.4, 276.5 95.0 Q 277.2 94.6, 277.6 93.9 Q 277.9 93.2, 277.9 92.3 Q 277.9 91.0, 277.2 90.2 Q 276.5 89.5, 275.2 89.5 Q 274.3 89.5, 273.4 89.9 Q 272.6 90.2, 272.0 90.8 Q 272.0 93.2, 272.8 94.3 Q 273.6 95.4, 275.1 95.4 " fill="#FF7F00"/>
<path class="atom-8" d="M 282.8 43.2 Q 282.8 39.7, 284.5 37.7 Q 286.2 35.8, 289.5 35.8 Q 292.7 35.8, 294.4 37.7 Q 296.1 39.7, 296.1 43.2 Q 296.1 46.7, 294.4 48.7 Q 292.6 50.7, 289.5 50.7 Q 286.2 50.7, 284.5 48.7 Q 282.8 46.8, 282.8 43.2 M 289.5 49.1 Q 291.7 49.1, 292.9 47.6 Q 294.1 46.1, 294.1 43.2 Q 294.1 40.3, 292.9 38.9 Q 291.7 37.4, 289.5 37.4 Q 287.2 37.4, 286.0 38.9 Q 284.8 40.3, 284.8 43.2 Q 284.8 46.1, 286.0 47.6 Q 287.2 49.1, 289.5 49.1 " fill="#FF0000"/>
<path class="atom-8" d="M 298.0 48.1 L 300.1 48.1 L 300.1 50.2 L 298.0 50.2 L 298.0 48.1 M 298.0 41.0 L 300.1 41.0 L 300.1 43.1 L 298.0 43.1 L 298.0 41.0 " fill="#FF0000"/>
<path class="atom-8" d="M 310.1 37.6 L 302.4 37.6 L 302.4 35.9 L 312.1 35.9 L 312.1 37.4 L 306.2 50.5 L 304.3 50.5 L 310.1 37.6 " fill="#FF0000"/>
<path class="atom-9" d="M 206.0 128.8 L 208.0 128.8 L 208.0 135.0 L 215.5 135.0 L 215.5 128.8 L 217.4 128.8 L 217.4 143.4 L 215.5 143.4 L 215.5 136.6 L 208.0 136.6 L 208.0 143.4 L 206.0 143.4 L 206.0 128.8 " fill="#FF0000"/>
<path class="atom-9" d="M 220.1 136.0 Q 220.1 132.5, 221.8 130.6 Q 223.6 128.6, 226.8 128.6 Q 230.0 128.6, 231.8 130.6 Q 233.5 132.5, 233.5 136.0 Q 233.5 139.6, 231.7 141.6 Q 230.0 143.6, 226.8 143.6 Q 223.6 143.6, 221.8 141.6 Q 220.1 139.6, 220.1 136.0 M 226.8 141.9 Q 229.0 141.9, 230.2 140.5 Q 231.4 139.0, 231.4 136.0 Q 231.4 133.2, 230.2 131.7 Q 229.0 130.3, 226.8 130.3 Q 224.6 130.3, 223.4 131.7 Q 222.2 133.2, 222.2 136.0 Q 222.2 139.0, 223.4 140.5 Q 224.6 141.9, 226.8 141.9 " fill="#FF0000"/>
<path class="atom-9" d="M 235.4 141.0 L 237.5 141.0 L 237.5 143.0 L 235.4 143.0 L 235.4 141.0 M 235.4 133.9 L 237.5 133.9 L 237.5 135.9 L 235.4 135.9 L 235.4 133.9 " fill="#FF0000"/>
<path class="atom-9" d="M 247.4 135.6 Q 248.7 136.2, 249.5 137.1 Q 250.3 137.9, 250.3 139.4 Q 250.3 140.6, 249.6 141.6 Q 249.0 142.5, 247.8 143.1 Q 246.7 143.6, 245.2 143.6 Q 242.8 143.6, 241.4 142.5 Q 240.0 141.3, 240.0 139.4 Q 240.0 138.2, 240.6 137.3 Q 241.2 136.4, 242.5 135.7 Q 241.5 135.2, 241.0 134.4 Q 240.5 133.6, 240.5 132.4 Q 240.5 130.6, 241.7 129.6 Q 243.0 128.6, 245.1 128.6 Q 247.2 128.6, 248.5 129.6 Q 249.7 130.6, 249.7 132.4 Q 249.7 133.4, 249.1 134.2 Q 248.6 135.0, 247.4 135.6 M 245.1 130.2 Q 243.9 130.2, 243.2 130.7 Q 242.6 131.3, 242.6 132.4 Q 242.6 133.1, 243.0 133.6 Q 243.5 134.1, 244.1 134.4 Q 244.8 134.7, 246.0 135.1 Q 246.9 134.5, 247.3 133.9 Q 247.7 133.2, 247.7 132.4 Q 247.7 131.3, 247.0 130.7 Q 246.3 130.2, 245.1 130.2 M 245.2 142.0 Q 246.6 142.0, 247.4 141.3 Q 248.2 140.6, 248.2 139.4 Q 248.2 138.6, 247.8 138.1 Q 247.3 137.6, 246.7 137.3 Q 246.0 137.0, 244.9 136.6 L 244.0 136.3 Q 242.9 136.9, 242.5 137.7 Q 242.0 138.4, 242.0 139.4 Q 242.0 140.6, 242.9 141.3 Q 243.8 142.0, 245.2 142.0 " fill="#FF0000"/>
<path class="atom-10" d="M 307.0 111.8 Q 307.0 108.3, 308.7 106.3 Q 310.5 104.4, 313.7 104.4 Q 316.9 104.4, 318.7 106.3 Q 320.4 108.3, 320.4 111.8 Q 320.4 115.3, 318.6 117.3 Q 316.9 119.3, 313.7 119.3 Q 310.5 119.3, 308.7 117.3 Q 307.0 115.3, 307.0 111.8 M 313.7 117.7 Q 315.9 117.7, 317.1 116.2 Q 318.3 114.7, 318.3 111.8 Q 318.3 108.9, 317.1 107.5 Q 315.9 106.0, 313.7 106.0 Q 311.5 106.0, 310.3 107.5 Q 309.1 108.9, 309.1 111.8 Q 309.1 114.7, 310.3 116.2 Q 311.5 117.7, 313.7 117.7 " fill="#FF0000"/>
<path class="atom-10" d="M 322.3 116.7 L 324.4 116.7 L 324.4 118.8 L 322.3 118.8 L 322.3 116.7 M 322.3 109.6 L 324.4 109.6 L 324.4 111.7 L 322.3 111.7 L 322.3 109.6 " fill="#FF0000"/>
<path class="atom-10" d="M 331.8 104.4 Q 334.4 104.4, 335.7 106.1 Q 337.0 107.9, 337.0 111.4 Q 337.0 115.3, 335.3 117.3 Q 333.7 119.3, 330.6 119.3 Q 329.7 119.3, 328.9 119.1 Q 328.2 118.9, 327.4 118.4 L 328.2 117.1 Q 329.3 117.6, 330.6 117.6 Q 332.7 117.6, 333.7 116.3 Q 334.8 115.0, 334.9 112.2 Q 334.2 112.9, 333.2 113.3 Q 332.3 113.6, 331.3 113.6 Q 330.0 113.6, 329.0 113.1 Q 328.0 112.5, 327.4 111.5 Q 326.9 110.5, 326.9 109.2 Q 326.9 107.8, 327.5 106.7 Q 328.1 105.6, 329.2 105.0 Q 330.3 104.4, 331.8 104.4 M 328.9 109.2 Q 328.9 110.5, 329.6 111.2 Q 330.4 112.0, 331.6 112.0 Q 332.5 112.0, 333.4 111.6 Q 334.3 111.3, 334.9 110.7 Q 334.8 108.2, 334.1 107.2 Q 333.3 106.1, 331.7 106.1 Q 331.0 106.1, 330.3 106.5 Q 329.7 106.9, 329.3 107.6 Q 328.9 108.3, 328.9 109.2 " fill="#FF0000"/>
<path class="atom-10" d="M 339.3 104.5 L 341.3 104.5 L 341.3 110.7 L 348.7 110.7 L 348.7 104.5 L 350.7 104.5 L 350.7 119.1 L 348.7 119.1 L 348.7 112.4 L 341.3 112.4 L 341.3 119.1 L 339.3 119.1 L 339.3 104.5 " fill="#FF0000"/>
<path class="bond-10 atom-11 atom-12" d="M 655.5,100.5 L 671.6,92.4" style="fill:none;fill-rule:evenodd;stroke:#000000;stroke-width:2.0px;stroke-linecap:butt;stroke-linejoin:miter;stroke-opacity:1"/>
<path class="bond-11 atom-12 atom-13" d="M 700.6,93.8 L 716.0,103.8" style="fill:none;fill-rule:evenodd;stroke:#000000;stroke-width:2.0px;stroke-linecap:butt;stroke-linejoin:miter;stroke-opacity:1"/>
<path class="bond-12 atom-13 atom-14" d="M 746.8,108.6 L 757.9,103.0" style="fill:none;fill-rule:evenodd;stroke:#000000;stroke-width:2.0px;stroke-linecap:butt;stroke-linejoin:miter;stroke-opacity:1"/>
<path class="bond-12 atom-13 atom-14" d="M 757.9,103.0 L 769.1,97.3" style="fill:none;fill-rule:evenodd;stroke:#FF0000;stroke-width:2.0px;stroke-linecap:butt;stroke-linejoin:miter;stroke-opacity:1"/>
<path class="bond-12 atom-13 atom-14" d="M 743.3,101.7 L 754.4,96.1" style="fill:none;fill-rule:evenodd;stroke:#000000;stroke-width:2.0px;stroke-linecap:butt;stroke-linejoin:miter;stroke-opacity:1"/>
<path class="bond-12 atom-13 atom-14" d="M 754.4,96.1 L 765.6,90.4" style="fill:none;fill-rule:evenodd;stroke:#FF0000;stroke-width:2.0px;stroke-linecap:butt;stroke-linejoin:miter;stroke-opacity:1"/>
<path class="bond-13 atom-13 atom-15" d="M 729.2,124.5 L 728.4,139.8" style="fill:none;fill-rule:evenodd;stroke:#000000;stroke-width:2.0px;stroke-linecap:butt;stroke-linejoin:miter;stroke-opacity:1"/>
<path class="bond-13 atom-13 atom-15" d="M 728.4,139.8 L 727.5,155.2" style="fill:none;fill-rule:evenodd;stroke:#FF0000;stroke-width:2.0px;stroke-linecap:butt;stroke-linejoin:miter;stroke-opacity:1"/>
<path class="bond-14 atom-12 atom-16" d="M 687.1,78.1 L 688.1,60.4" style="fill:none;fill-rule:evenodd;stroke:#000000;stroke-width:2.0px;stroke-linecap:butt;stroke-linejoin:miter;stroke-opacity:1"/>
<path class="bond-14 atom-12 atom-16" d="M 688.1,60.4 L 689.1,42.7" style="fill:none;fill-rule:evenodd;stroke:#FF0000;stroke-width:2.0px;stroke-linecap:butt;stroke-linejoin:miter;stroke-opacity:1"/>
<path class="bond-15 atom-11 atom-17" d="M 627.0,98.9 L 619.5,94.0" style="fill:none;fill-rule:evenodd;stroke:#000000;stroke-width:2.0px;stroke-linecap:butt;stroke-linejoin:miter;stroke-opacity:1"/>
<path class="bond-15 atom-11 atom-17" d="M 619.5,94.0 L 611.9,89.1" style="fill:none;fill-rule:evenodd;stroke:#FF0000;stroke-width:2.0px;stroke-linecap:butt;stroke-linejoin:miter;stroke-opacity:1"/>
<path class="bond-16 atom-17 atom-18" d="M 581.3,88.2 L 573.8,92.0" style="fill:none;fill-rule:evenodd;stroke:#FF0000;stroke-width:2.0px;stroke-linecap:butt;stroke-linejoin:miter;stroke-opacity:1"/>
<path class="bond-16 atom-17 atom-18" d="M 573.8,92.0 L 566.3,95.8" style="fill:none;fill-rule:evenodd;stroke:#FF7F00;stroke-width:2.0px;stroke-linecap:butt;stroke-linejoin:miter;stroke-opacity:1"/>
<path class="bond-17 atom-18 atom-19" d="M 550.8,92.4 L 543.8,78.4" style="fill:none;fill-rule:evenodd;stroke:#FF7F00;stroke-width:2.0px;stroke-linecap:butt;stroke-linejoin:miter;stroke-opacity:1"/>
<path class="bond-17 atom-18 atom-19" d="M 543.8,78.4 L 536.7,64.5" style="fill:none;fill-rule:evenodd;stroke:#FF0000;stroke-width:2.0px;stroke-linecap:butt;stroke-linejoin:miter;stroke-opacity:1"/>
<path class="bond-17 atom-18 atom-19" d="M 544.0,95.9 L 536.9,81.9" style="fill:none;fill-rule:evenodd;stroke:#FF7F00;stroke-width:2.0px;stroke-linecap:butt;stroke-linejoin:miter;stroke-opacity:1"/>
<path class="bond-17 atom-18 atom-19" d="M 536.9,81.9 L 529.8,68.0" style="fill:none;fill-rule:evenodd;stroke:#FF0000;stroke-width:2.0px;stroke-linecap:butt;stroke-linejoin:miter;stroke-opacity:1"/>
<path class="bond-18 atom-18 atom-20" d="M 556.6,112.3 L 563.6,126.1" style="fill:none;fill-rule:evenodd;stroke:#FF7F00;stroke-width:2.0px;stroke-linecap:butt;stroke-linejoin:miter;stroke-opacity:1"/>
<path class="bond-18 atom-18 atom-20" d="M 563.6,126.1 L 570.5,139.9" style="fill:none;fill-rule:evenodd;stroke:#FF0000;stroke-width:2.0px;stroke-linecap:butt;stroke-linejoin:miter;stroke-opacity:1"/>
<path class="bond-19 atom-18 atom-21" d="M 537.5,110.3 L 525.1,116.6" style="fill:none;fill-rule:evenodd;stroke:#FF7F00;stroke-width:2.0px;stroke-linecap:butt;stroke-linejoin:miter;stroke-opacity:1"/>
<path class="bond-19 atom-18 atom-21" d="M 525.1,116.6 L 512.7,122.9" style="fill:none;fill-rule:evenodd;stroke:#FF0000;stroke-width:2.0px;stroke-linecap:butt;stroke-linejoin:miter;stroke-opacity:1"/>
<path class="atom-0" d="M 627.9 108.0 Q 627.9 104.4, 629.6 102.5 Q 631.3 100.6, 634.5 100.6 Q 637.5 100.6, 639.1 102.7 L 637.8 103.8 Q 636.6 102.3, 634.5 102.3 Q 632.3 102.3, 631.2 103.8 Q 630.0 105.2, 630.0 108.0 Q 630.0 110.9, 631.2 112.4 Q 632.4 113.9, 634.8 113.9 Q 636.4 113.9, 638.2 112.9 L 638.8 114.4 Q 638.1 114.9, 636.9 115.2 Q 635.7 115.5, 634.5 115.5 Q 631.3 115.5, 629.6 113.6 Q 627.9 111.6, 627.9 108.0 " fill="#000000"/>
<path class="atom-0" d="M 640.7 112.9 L 642.8 112.9 L 642.8 115.0 L 640.7 115.0 L 640.7 112.9 M 640.7 105.8 L 642.8 105.8 L 642.8 107.9 L 640.7 107.9 L 640.7 105.8 " fill="#000000"/>
<path class="atom-0" d="M 645.8 113.7 L 649.0 113.7 L 649.0 102.8 L 645.5 103.9 L 645.0 102.7 L 649.5 100.7 L 651.0 100.9 L 651.0 113.7 L 653.8 113.7 L 653.8 115.3 L 645.8 115.3 L 645.8 113.7 " fill="#000000"/>
<path class="atom-1" d="M 673.3 84.8 Q 673.3 81.2, 674.9 79.3 Q 676.7 77.4, 679.9 77.4 Q 682.9 77.4, 684.5 79.5 L 683.1 80.6 Q 682.0 79.0, 679.9 79.0 Q 677.7 79.0, 676.5 80.5 Q 675.4 82.0, 675.4 84.8 Q 675.4 87.7, 676.6 89.2 Q 677.8 90.6, 680.1 90.6 Q 681.7 90.6, 683.6 89.7 L 684.2 91.2 Q 683.4 91.7, 682.3 92.0 Q 681.1 92.3, 679.8 92.3 Q 676.7 92.3, 674.9 90.3 Q 673.3 88.4, 673.3 84.8 " fill="#000000"/>
<path class="atom-1" d="M 686.1 89.7 L 688.1 89.7 L 688.1 91.7 L 686.1 91.7 L 686.1 89.7 M 686.1 82.6 L 688.1 82.6 L 688.1 84.7 L 686.1 84.7 L 686.1 82.6 " fill="#000000"/>
<path class="atom-1" d="M 690.5 80.3 Q 691.0 78.9, 692.3 78.1 Q 693.6 77.4, 695.4 77.4 Q 697.6 77.4, 698.8 78.6 Q 700.0 79.7, 700.0 81.9 Q 700.0 84.0, 698.4 86.0 Q 696.8 88.1, 693.5 90.4 L 700.3 90.4 L 700.3 92.1 L 690.5 92.1 L 690.5 90.7 Q 693.2 88.8, 694.8 87.3 Q 696.4 85.9, 697.2 84.6 Q 698.0 83.3, 698.0 82.0 Q 698.0 80.6, 697.3 79.8 Q 696.6 79.0, 695.4 79.0 Q 694.2 79.0, 693.4 79.5 Q 692.6 80.0, 692.1 81.0 L 690.5 80.3 " fill="#000000"/>
<path class="atom-2" d="M 716.3 112.9 Q 716.3 109.3, 718.0 107.4 Q 719.7 105.5, 723.0 105.5 Q 726.0 105.5, 727.6 107.6 L 726.2 108.7 Q 725.0 107.2, 723.0 107.2 Q 720.8 107.2, 719.6 108.7 Q 718.4 110.1, 718.4 112.9 Q 718.4 115.8, 719.6 117.3 Q 720.8 118.8, 723.2 118.8 Q 724.8 118.8, 726.7 117.8 L 727.2 119.3 Q 726.5 119.8, 725.3 120.1 Q 724.2 120.4, 722.9 120.4 Q 719.7 120.4, 718.0 118.5 Q 716.3 116.5, 716.3 112.9 " fill="#000000"/>
<path class="atom-2" d="M 729.2 117.8 L 731.2 117.8 L 731.2 119.9 L 729.2 119.9 L 729.2 117.8 M 729.2 110.7 L 731.2 110.7 L 731.2 112.8 L 729.2 112.8 L 729.2 110.7 " fill="#000000"/>
<path class="atom-2" d="M 740.5 112.6 Q 742.0 113.0, 742.6 113.9 Q 743.3 114.8, 743.3 116.2 Q 743.3 117.5, 742.7 118.4 Q 742.1 119.4, 741.0 119.9 Q 739.8 120.4, 738.4 120.4 Q 736.8 120.4, 735.6 119.9 Q 734.5 119.3, 733.5 118.2 L 734.7 117.0 Q 735.6 118.0, 736.4 118.4 Q 737.1 118.8, 738.4 118.8 Q 739.7 118.8, 740.5 118.1 Q 741.3 117.4, 741.3 116.2 Q 741.3 114.7, 740.4 114.1 Q 739.6 113.4, 737.8 113.4 L 736.8 113.4 L 736.8 111.9 L 737.7 111.9 Q 739.3 111.9, 740.1 111.2 Q 741.0 110.5, 741.0 109.2 Q 741.0 108.3, 740.3 107.7 Q 739.6 107.1, 738.4 107.1 Q 737.2 107.1, 736.4 107.6 Q 735.7 108.0, 735.1 109.1 L 733.7 108.3 Q 734.2 107.1, 735.4 106.3 Q 736.6 105.5, 738.4 105.5 Q 740.5 105.5, 741.8 106.5 Q 743.0 107.5, 743.0 109.2 Q 743.0 110.4, 742.4 111.2 Q 741.7 112.1, 740.5 112.6 " fill="#000000"/>
<path class="atom-3" d="M 769.0 89.7 Q 769.0 86.2, 770.8 84.2 Q 772.5 82.3, 775.7 82.3 Q 779.0 82.3, 780.7 84.2 Q 782.4 86.2, 782.4 89.7 Q 782.4 93.2, 780.7 95.2 Q 778.9 97.2, 775.7 97.2 Q 772.5 97.2, 770.8 95.2 Q 769.0 93.2, 769.0 89.7 M 775.7 95.6 Q 778.0 95.6, 779.2 94.1 Q 780.4 92.6, 780.4 89.7 Q 780.4 86.8, 779.2 85.4 Q 778.0 83.9, 775.7 83.9 Q 773.5 83.9, 772.3 85.4 Q 771.1 86.8, 771.1 89.7 Q 771.1 92.6, 772.3 94.1 Q 773.5 95.6, 775.7 95.6 " fill="#FF0000"/>
<path class="atom-3" d="M 784.3 94.6 L 786.4 94.6 L 786.4 96.6 L 784.3 96.6 L 784.3 94.6 M 784.3 87.5 L 786.4 87.5 L 786.4 89.6 L 784.3 89.6 L 784.3 87.5 " fill="#FF0000"/>
<path class="atom-3" d="M 789.6 95.4 L 792.8 95.4 L 792.8 84.5 L 789.3 85.6 L 788.8 84.3 L 793.3 82.3 L 794.7 82.6 L 794.7 95.4 L 797.6 95.4 L 797.6 97.0 L 789.6 97.0 L 789.6 95.4 " fill="#FF0000"/>
<path class="atom-3" d="M 804.7 97.2 Q 802.0 97.2, 800.6 95.2 Q 799.3 93.2, 799.3 89.7 Q 799.3 86.2, 800.6 84.2 Q 802.0 82.3, 804.7 82.3 Q 807.3 82.3, 808.7 84.2 Q 810.0 86.2, 810.0 89.7 Q 810.0 93.2, 808.6 95.2 Q 807.3 97.2, 804.7 97.2 M 804.7 95.5 Q 806.2 95.5, 807.1 94.1 Q 807.9 92.6, 807.9 89.7 Q 807.9 86.8, 807.1 85.4 Q 806.2 83.9, 804.7 83.9 Q 803.1 83.9, 802.2 85.4 Q 801.4 86.8, 801.4 89.7 Q 801.4 92.6, 802.2 94.1 Q 803.1 95.5, 804.7 95.5 " fill="#FF0000"/>
<path class="atom-4" d="M 720.3 164.3 Q 720.3 160.8, 722.0 158.8 Q 723.8 156.9, 727.0 156.9 Q 730.2 156.9, 732.0 158.8 Q 733.7 160.8, 733.7 164.3 Q 733.7 167.8, 731.9 169.8 Q 730.2 171.8, 727.0 171.8 Q 723.8 171.8, 722.0 169.8 Q 720.3 167.8, 720.3 164.3 M 727.0 170.2 Q 729.2 170.2, 730.4 168.7 Q 731.6 167.2, 731.6 164.3 Q 731.6 161.4, 730.4 160.0 Q 729.2 158.5, 727.0 158.5 Q 724.8 158.5, 723.6 159.9 Q 722.4 161.4, 722.4 164.3 Q 722.4 167.2, 723.6 168.7 Q 724.8 170.2, 727.0 170.2 " fill="#FF0000"/>
<path class="atom-4" d="M 735.6 169.2 L 737.7 169.2 L 737.7 171.2 L 735.6 171.2 L 735.6 169.2 M 735.6 162.1 L 737.7 162.1 L 737.7 164.2 L 735.6 164.2 L 735.6 162.1 " fill="#FF0000"/>
<path class="atom-4" d="M 740.9 170.0 L 744.1 170.0 L 744.1 159.1 L 740.6 160.2 L 740.1 158.9 L 744.6 156.9 L 746.0 157.2 L 746.0 170.0 L 748.9 170.0 L 748.9 171.6 L 740.9 171.6 L 740.9 170.0 " fill="#FF0000"/>
<path class="atom-4" d="M 751.4 170.0 L 754.6 170.0 L 754.6 159.1 L 751.1 160.2 L 750.6 158.9 L 755.1 156.9 L 756.6 157.2 L 756.6 170.0 L 759.4 170.0 L 759.4 171.6 L 751.4 171.6 L 751.4 170.0 " fill="#FF0000"/>
<path class="atom-4" d="M 761.2 157.0 L 763.2 157.0 L 763.2 163.2 L 770.6 163.2 L 770.6 157.0 L 772.6 157.0 L 772.6 171.6 L 770.6 171.6 L 770.6 164.9 L 763.2 164.9 L 763.2 171.6 L 761.2 171.6 L 761.2 157.0 " fill="#FF0000"/>
<path class="atom-5" d="M 682.9 33.4 Q 682.9 29.9, 684.6 28.0 Q 686.4 26.0, 689.6 26.0 Q 692.8 26.0, 694.6 28.0 Q 696.3 29.9, 696.3 33.4 Q 696.3 36.9, 694.5 39.0 Q 692.8 41.0, 689.6 41.0 Q 686.4 41.0, 684.6 39.0 Q 682.9 37.0, 682.9 33.4 M 689.6 39.3 Q 691.8 39.3, 693.0 37.8 Q 694.2 36.3, 694.2 33.4 Q 694.2 30.5, 693.0 29.1 Q 691.8 27.6, 689.6 27.6 Q 687.4 27.6, 686.2 29.1 Q 685.0 30.5, 685.0 33.4 Q 685.0 36.3, 686.2 37.8 Q 687.4 39.3, 689.6 39.3 " fill="#FF0000"/>
<path class="atom-5" d="M 698.3 38.3 L 700.3 38.3 L 700.3 40.4 L 698.3 40.4 L 698.3 38.3 M 698.3 31.2 L 700.3 31.2 L 700.3 33.3 L 698.3 33.3 L 698.3 31.2 " fill="#FF0000"/>
<path class="atom-5" d="M 712.3 35.7 L 714.0 35.7 L 714.0 37.4 L 712.3 37.4 L 712.3 40.7 L 710.3 40.7 L 710.3 37.4 L 702.8 37.4 L 702.8 36.1 L 709.2 26.2 L 712.3 26.2 L 712.3 35.7 M 705.2 35.7 L 710.3 35.7 L 710.3 27.5 L 705.2 35.7 " fill="#FF0000"/>
<path class="atom-5" d="M 716.0 26.2 L 718.0 26.2 L 718.0 32.4 L 725.4 32.4 L 725.4 26.2 L 727.4 26.2 L 727.4 40.7 L 725.4 40.7 L 725.4 34.0 L 718.0 34.0 L 718.0 40.7 L 716.0 40.7 L 716.0 26.2 " fill="#FF0000"/>
<path class="atom-6" d="M 583.0 79.9 Q 583.0 76.4, 584.8 74.4 Q 586.5 72.5, 589.7 72.5 Q 592.9 72.5, 594.7 74.4 Q 596.4 76.4, 596.4 79.9 Q 596.4 83.4, 594.6 85.4 Q 592.9 87.4, 589.7 87.4 Q 586.5 87.4, 584.8 85.4 Q 583.0 83.4, 583.0 79.9 M 589.7 85.8 Q 591.9 85.8, 593.1 84.3 Q 594.3 82.8, 594.3 79.9 Q 594.3 77.0, 593.1 75.6 Q 591.9 74.1, 589.7 74.1 Q 587.5 74.1, 586.3 75.5 Q 585.1 77.0, 585.1 79.9 Q 585.1 82.8, 586.3 84.3 Q 587.5 85.8, 589.7 85.8 " fill="#FF0000"/>
<path class="atom-6" d="M 598.3 84.8 L 600.3 84.8 L 600.3 86.8 L 598.3 86.8 L 598.3 84.8 M 598.3 77.7 L 600.3 77.7 L 600.3 79.8 L 598.3 79.8 L 598.3 77.7 " fill="#FF0000"/>
<path class="atom-6" d="M 608.0 78.1 Q 609.3 78.1, 610.3 78.6 Q 611.4 79.2, 612.0 80.2 Q 612.6 81.2, 612.6 82.6 Q 612.6 84.1, 611.8 85.2 Q 611.1 86.2, 609.9 86.8 Q 608.7 87.4, 607.4 87.4 Q 606.0 87.4, 604.8 86.9 Q 603.6 86.4, 602.7 85.4 L 603.9 84.1 Q 604.6 84.9, 605.6 85.3 Q 606.5 85.7, 607.4 85.7 Q 608.7 85.7, 609.6 84.9 Q 610.5 84.1, 610.5 82.6 Q 610.5 81.1, 609.6 80.4 Q 608.7 79.6, 607.3 79.6 Q 606.0 79.6, 604.6 80.2 L 603.5 79.6 L 604.2 72.6 L 611.7 72.6 L 611.5 74.3 L 605.9 74.3 L 605.4 78.6 Q 606.7 78.1, 608.0 78.1 " fill="#FF0000"/>
<path class="atom-7" d="M 543.5 95.9 Q 546.0 95.9, 547.2 97.0 Q 548.5 98.1, 548.5 100.1 Q 548.5 102.2, 547.2 103.3 Q 545.9 104.4, 543.5 104.4 L 541.2 104.4 L 541.2 110.4 L 539.2 110.4 L 539.2 95.9 L 543.5 95.9 M 543.5 102.8 Q 544.9 102.8, 545.7 102.1 Q 546.4 101.4, 546.4 100.1 Q 546.4 98.8, 545.7 98.2 Q 544.9 97.5, 543.5 97.5 L 541.2 97.5 L 541.2 102.8 L 543.5 102.8 " fill="#FF7F00"/>
<path class="atom-7" d="M 550.2 108.0 L 552.2 108.0 L 552.2 110.1 L 550.2 110.1 L 550.2 108.0 M 550.2 100.9 L 552.2 100.9 L 552.2 103.0 L 550.2 103.0 L 550.2 100.9 " fill="#FF7F00"/>
<path class="atom-7" d="M 560.2 101.3 Q 561.5 101.3, 562.5 101.9 Q 563.5 102.4, 564.0 103.4 Q 564.6 104.5, 564.6 105.7 Q 564.6 107.2, 564.0 108.3 Q 563.3 109.4, 562.2 110.0 Q 561.1 110.6, 559.7 110.6 Q 557.1 110.6, 555.8 108.8 Q 554.5 107.1, 554.5 103.6 Q 554.5 99.7, 556.1 97.7 Q 557.7 95.7, 560.8 95.7 Q 561.7 95.7, 562.5 95.9 Q 563.3 96.1, 564.0 96.5 L 563.2 97.9 Q 562.2 97.3, 560.9 97.3 Q 558.8 97.3, 557.7 98.7 Q 556.7 100.0, 556.6 102.7 Q 557.3 102.0, 558.2 101.7 Q 559.2 101.3, 560.2 101.3 M 559.7 108.9 Q 560.5 108.9, 561.1 108.5 Q 561.8 108.1, 562.2 107.4 Q 562.5 106.6, 562.5 105.8 Q 562.5 104.5, 561.8 103.7 Q 561.1 103.0, 559.8 103.0 Q 558.9 103.0, 558.1 103.3 Q 557.2 103.7, 556.6 104.3 Q 556.7 106.7, 557.4 107.8 Q 558.2 108.9, 559.7 108.9 " fill="#FF7F00"/>
<path class="atom-8" d="M 504.2 57.2 Q 504.2 53.7, 505.9 51.7 Q 507.6 49.8, 510.8 49.8 Q 514.1 49.8, 515.8 51.7 Q 517.5 53.7, 517.5 57.2 Q 517.5 60.7, 515.8 62.8 Q 514.0 64.8, 510.8 64.8 Q 507.6 64.8, 505.9 62.8 Q 504.2 60.8, 504.2 57.2 M 510.8 63.1 Q 513.1 63.1, 514.3 61.6 Q 515.5 60.1, 515.5 57.2 Q 515.5 54.3, 514.3 52.9 Q 513.1 51.4, 510.8 51.4 Q 508.6 51.4, 507.4 52.9 Q 506.2 54.3, 506.2 57.2 Q 506.2 60.1, 507.4 61.6 Q 508.6 63.1, 510.8 63.1 " fill="#FF0000"/>
<path class="atom-8" d="M 519.4 62.1 L 521.4 62.1 L 521.4 64.2 L 519.4 64.2 L 519.4 62.1 M 519.4 55.0 L 521.4 55.0 L 521.4 57.1 L 519.4 57.1 L 519.4 55.0 " fill="#FF0000"/>
<path class="atom-8" d="M 531.5 51.6 L 523.8 51.6 L 523.8 50.0 L 533.5 50.0 L 533.5 51.4 L 527.6 64.5 L 525.6 64.5 L 531.5 51.6 " fill="#FF0000"/>
<path class="atom-9" d="M 568.4 149.0 Q 568.4 145.5, 570.2 143.5 Q 571.9 141.6, 575.1 141.6 Q 578.4 141.6, 580.1 143.5 Q 581.8 145.5, 581.8 149.0 Q 581.8 152.5, 580.1 154.6 Q 578.3 156.6, 575.1 156.6 Q 571.9 156.6, 570.2 154.6 Q 568.4 152.6, 568.4 149.0 M 575.1 154.9 Q 577.4 154.9, 578.5 153.4 Q 579.8 151.9, 579.8 149.0 Q 579.8 146.1, 578.5 144.7 Q 577.4 143.2, 575.1 143.2 Q 572.9 143.2, 571.7 144.7 Q 570.5 146.1, 570.5 149.0 Q 570.5 151.9, 571.7 153.4 Q 572.9 154.9, 575.1 154.9 " fill="#FF0000"/>
<path class="atom-9" d="M 583.8 153.9 L 585.8 153.9 L 585.8 156.0 L 583.8 156.0 L 583.8 153.9 M 583.8 146.8 L 585.8 146.8 L 585.8 148.9 L 583.8 148.9 L 583.8 146.8 " fill="#FF0000"/>
<path class="atom-9" d="M 595.7 148.6 Q 597.1 149.2, 597.8 150.0 Q 598.6 150.9, 598.6 152.3 Q 598.6 153.6, 598.0 154.5 Q 597.3 155.5, 596.2 156.0 Q 595.0 156.5, 593.5 156.5 Q 591.1 156.5, 589.7 155.4 Q 588.3 154.3, 588.3 152.3 Q 588.3 151.1, 588.9 150.3 Q 589.5 149.3, 590.8 148.7 Q 589.9 148.1, 589.4 147.4 Q 588.8 146.5, 588.8 145.3 Q 588.8 143.6, 590.1 142.6 Q 591.3 141.6, 593.4 141.6 Q 595.6 141.6, 596.8 142.6 Q 598.1 143.6, 598.1 145.3 Q 598.1 146.4, 597.5 147.2 Q 596.9 148.0, 595.7 148.6 M 593.4 143.1 Q 592.2 143.1, 591.6 143.7 Q 590.9 144.3, 590.9 145.3 Q 590.9 146.1, 591.3 146.6 Q 591.8 147.1, 592.4 147.4 Q 593.1 147.7, 594.4 148.1 Q 595.2 147.5, 595.6 146.8 Q 596.0 146.2, 596.0 145.3 Q 596.0 144.3, 595.3 143.7 Q 594.7 143.1, 593.4 143.1 M 593.5 155.0 Q 594.9 155.0, 595.7 154.3 Q 596.5 153.5, 596.5 152.3 Q 596.5 151.5, 596.1 151.0 Q 595.7 150.5, 595.0 150.3 Q 594.4 150.0, 593.2 149.6 L 592.3 149.3 Q 591.3 149.9, 590.8 150.6 Q 590.4 151.4, 590.4 152.3 Q 590.4 153.5, 591.2 154.3 Q 592.1 155.0, 593.5 155.0 " fill="#FF0000"/>
<path class="atom-9" d="M 600.8 141.8 L 602.8 141.8 L 602.8 147.9 L 610.2 147.9 L 610.2 141.8 L 612.2 141.8 L 612.2 156.3 L 610.2 156.3 L 610.2 149.6 L 602.8 149.6 L 602.8 156.3 L 600.8 156.3 L 600.8 141.8 " fill="#FF0000"/>
<path class="atom-10" d="M 467.0 119.1 L 469.0 119.1 L 469.0 125.3 L 476.4 125.3 L 476.4 119.1 L 478.4 119.1 L 478.4 133.7 L 476.4 133.7 L 476.4 126.9 L 469.0 126.9 L 469.0 133.7 L 467.0 133.7 L 467.0 119.1 " fill="#FF0000"/>
<path class="atom-10" d="M 481.1 126.3 Q 481.1 122.8, 482.8 120.9 Q 484.5 118.9, 487.8 118.9 Q 491.0 118.9, 492.7 120.9 Q 494.5 122.8, 494.5 126.3 Q 494.5 129.9, 492.7 131.9 Q 491.0 133.9, 487.8 133.9 Q 484.6 133.9, 482.8 131.9 Q 481.1 129.9, 481.1 126.3 M 487.8 132.2 Q 490.0 132.2, 491.2 130.8 Q 492.4 129.3, 492.4 126.3 Q 492.4 123.5, 491.2 122.0 Q 490.0 120.6, 487.8 120.6 Q 485.6 120.6, 484.3 122.0 Q 483.2 123.4, 483.2 126.3 Q 483.2 129.3, 484.3 130.8 Q 485.6 132.2, 487.8 132.2 " fill="#FF0000"/>
<path class="atom-10" d="M 496.4 131.2 L 498.5 131.2 L 498.5 133.3 L 496.4 133.3 L 496.4 131.2 M 496.4 124.2 L 498.5 124.2 L 498.5 126.2 L 496.4 126.2 L 496.4 124.2 " fill="#FF0000"/>
<path class="atom-10" d="M 505.8 118.9 Q 508.4 118.9, 509.7 120.7 Q 511.0 122.4, 511.0 125.9 Q 511.0 129.8, 509.4 131.8 Q 507.8 133.8, 504.7 133.8 Q 503.8 133.8, 503.0 133.6 Q 502.3 133.4, 501.5 133.0 L 502.3 131.6 Q 503.4 132.2, 504.7 132.2 Q 506.7 132.2, 507.8 130.9 Q 508.8 129.5, 509.0 126.8 Q 508.2 127.5, 507.3 127.8 Q 506.4 128.2, 505.3 128.2 Q 504.1 128.2, 503.1 127.6 Q 502.1 127.1, 501.5 126.1 Q 500.9 125.1, 500.9 123.8 Q 500.9 122.4, 501.6 121.3 Q 502.2 120.2, 503.3 119.5 Q 504.4 118.9, 505.8 118.9 M 503.0 123.8 Q 503.0 125.1, 503.7 125.8 Q 504.4 126.5, 505.7 126.5 Q 506.6 126.5, 507.5 126.2 Q 508.4 125.8, 509.0 125.2 Q 508.9 122.8, 508.1 121.7 Q 507.4 120.6, 505.8 120.6 Q 505.0 120.6, 504.4 121.0 Q 503.7 121.4, 503.4 122.2 Q 503.0 122.9, 503.0 123.8 " fill="#FF0000"/>
<path d="M 370.0,100.0 L 448.0,100.0" style="fill:none;fill-rule:evenodd;stroke:#000000;stroke-width:2.0px;stroke-linecap:butt;stroke-linejoin:miter;stroke-opacity:1"/>
<path d="M 448.0,100.0 L 443.0,102.9" style="fill:none;fill-rule:evenodd;stroke:#000000;stroke-width:2.0px;stroke-linecap:butt;stroke-linejoin:miter;stroke-opacity:1"/>
<path d="M 448.0,100.0 L 443.0,97.1" style="fill:none;fill-rule:evenodd;stroke:#000000;stroke-width:2.0px;stroke-linecap:butt;stroke-linejoin:miter;stroke-opacity:1"/>
</svg>