<svg xmlns="http://www.w3.org/2000/svg" xmlns:rdkit="http://www.rdkit.org/xml" xmlns:xlink="http://www.w3.org/1999/xlink" version="1.1" baseProfile="full" xml:space="preserve" width="400px" height="200px" viewBox="0 0 400 200">
<!-- END OF HEADER -->
<rect style="opacity:1.0;fill:#FFFFFF;stroke:none" width="400.0" height="200.0" x="0.0" y="0.0"> </rect>
<path class="bond-0 atom-0 atom-1" d="M 246.9,114.6 L 252.8,117.6 L 255.4,167.9 L 243.9,168.5 L 241.3,118.2 Z" style="fill:#FF7F7F;fill-rule:evenodd;fill-opacity:1;stroke:#FF7F7F;stroke-width:0.0px;stroke-linecap:butt;stroke-linejoin:miter;stroke-opacity:1;"/>
<path class="bond-1 atom-1 atom-2" d="M 198.7,83.5 L 246.6,108.0 L 246.9,114.6 L 241.3,118.2 L 199.4,96.7 Z" style="fill:#FF7F7F;fill-rule:evenodd;fill-opacity:1;stroke:#FF7F7F;stroke-width:0.0px;stroke-linecap:butt;stroke-linejoin:miter;stroke-opacity:1;"/>
<path class="bond-6 atom-1 atom-7" d="M 286.1,82.3 L 292.0,85.4 L 292.3,92.0 L 252.8,117.6 L 246.9,114.6 L 246.6,108.0 Z" style="fill:#FF7F7F;fill-rule:evenodd;fill-opacity:1;stroke:#FF7F7F;stroke-width:0.0px;stroke-linecap:butt;stroke-linejoin:miter;stroke-opacity:1;"/>
<path class="bond-2 atom-2 atom-3" d="M 198.7,83.5 L 199.4,96.7 L 157.1,124.1 L 150.9,114.5 Z" style="fill:#FF7F7F;fill-rule:evenodd;fill-opacity:1;stroke:#FF7F7F;stroke-width:0.0px;stroke-linecap:butt;stroke-linejoin:miter;stroke-opacity:1;"/>
<path class="bond-7 atom-7 atom-8" d="M 294.9,31.4 L 297.5,81.8 L 292.0,85.4 L 286.1,82.3 L 283.5,32.0 Z" style="fill:#FF7F7F;fill-rule:evenodd;fill-opacity:1;stroke:#FF7F7F;stroke-width:0.0px;stroke-linecap:butt;stroke-linejoin:miter;stroke-opacity:1;"/>
<path class="bond-8 atom-7 atom-9" d="M 297.5,81.8 L 342.4,104.7 L 337.2,114.9 L 292.3,92.0 L 292.0,85.4 Z" style="fill:#FF7F7F;fill-rule:evenodd;fill-opacity:1;stroke:#FF7F7F;stroke-width:0.0px;stroke-linecap:butt;stroke-linejoin:miter;stroke-opacity:1;"/>
<ellipse cx="261.9" cy="172.0" rx="25.5" ry="16.1" class="atom-0" style="fill:#FF7F7F;fill-rule:evenodd;stroke:#FF7F7F;stroke-width:1.0px;stroke-linecap:butt;stroke-linejoin:miter;stroke-opacity:1"/>
<ellipse cx="246.9" cy="114.6" rx="10.7" ry="10.7" class="atom-1" style="fill:#FF7F7F;fill-rule:evenodd;stroke:#FF7F7F;stroke-width:1.0px;stroke-linecap:butt;stroke-linejoin:miter;stroke-opacity:1"/>
<ellipse cx="199.1" cy="90.1" rx="10.7" ry="10.7" class="atom-2" style="fill:#FF7F7F;fill-rule:evenodd;stroke:#FF7F7F;stroke-width:1.0px;stroke-linecap:butt;stroke-linejoin:miter;stroke-opacity:1"/>
<ellipse cx="154.0" cy="119.3" rx="10.7" ry="10.7" class="atom-3" style="fill:#FF7F7F;fill-rule:evenodd;stroke:#FF7F7F;stroke-width:1.0px;stroke-linecap:butt;stroke-linejoin:miter;stroke-opacity:1"/>
<ellipse cx="103.4" cy="41.4" rx="10.7" ry="11.0" class="atom-5" style="fill:#FF7F7F;fill-rule:evenodd;stroke:#FF7F7F;stroke-width:1.0px;stroke-linecap:butt;stroke-linejoin:miter;stroke-opacity:1"/>
<ellipse cx="53.6" cy="124.2" rx="20.5" ry="11.0" class="atom-6" style="fill:#FF7F7F;fill-rule:evenodd;stroke:#FF7F7F;stroke-width:1.0px;stroke-linecap:butt;stroke-linejoin:miter;stroke-opacity:1"/>
<ellipse cx="292.0" cy="85.4" rx="10.7" ry="10.7" class="atom-7" style="fill:#FF7F7F;fill-rule:evenodd;stroke:#FF7F7F;stroke-width:1.0px;stroke-linecap:butt;stroke-linejoin:miter;stroke-opacity:1"/>
<ellipse cx="289.2" cy="31.8" rx="10.7" ry="11.0" class="atom-8" style="fill:#FF7F7F;fill-rule:evenodd;stroke:#FF7F7F;stroke-width:1.0px;stroke-linecap:butt;stroke-linejoin:miter;stroke-opacity:1"/>
<ellipse cx="346.9" cy="109.9" rx="20.0" ry="11.0" class="atom-9" style="fill:#FF7F7F;fill-rule:evenodd;stroke:#FF7F7F;stroke-width:1.0px;stroke-linecap:butt;stroke-linejoin:miter;stroke-opacity:1"/>
<path class="bond-0 atom-0 atom-1" d="M 249.2,158.8 L 246.9,114.6" style="fill:none;fill-rule:evenodd;stroke:#000000;stroke-width:2.0px;stroke-linecap:butt;stroke-linejoin:miter;stroke-opacity:1"/>
<path class="bond-1 atom-1 atom-2" d="M 246.9,114.6 L 199.1,90.1" style="fill:none;fill-rule:evenodd;stroke:#000000;stroke-width:2.0px;stroke-linecap:butt;stroke-linejoin:miter;stroke-opacity:1"/>
<path class="bond-2 atom-2 atom-3" d="M 199.1,90.1 L 154.0,119.3" style="fill:none;fill-rule:evenodd;stroke:#000000;stroke-width:2.0px;stroke-linecap:butt;stroke-linejoin:miter;stroke-opacity:1"/>
<path class="bond-3 atom-3 atom-4" d="M 154.0,119.3 L 106.2,94.9" style="fill:none;fill-rule:evenodd;stroke:#000000;stroke-width:2.0px;stroke-linecap:butt;stroke-linejoin:miter;stroke-opacity:1"/>
<path class="bond-4 atom-4 atom-5" d="M 110.3,97.0 L 107.9,50.8" style="fill:none;fill-rule:evenodd;stroke:#000000;stroke-width:2.0px;stroke-linecap:butt;stroke-linejoin:miter;stroke-opacity:1"/>
<path class="bond-4 atom-4 atom-5" d="M 102.3,97.4 L 99.9,51.2" style="fill:none;fill-rule:evenodd;stroke:#000000;stroke-width:2.0px;stroke-linecap:butt;stroke-linejoin:miter;stroke-opacity:1"/>
<path class="bond-5 atom-4 atom-6" d="M 106.2,94.9 L 69.9,118.5" style="fill:none;fill-rule:evenodd;stroke:#000000;stroke-width:2.0px;stroke-linecap:butt;stroke-linejoin:miter;stroke-opacity:1"/>
<path class="bond-6 atom-1 atom-7" d="M 246.9,114.6 L 292.0,85.4" style="fill:none;fill-rule:evenodd;stroke:#000000;stroke-width:2.0px;stroke-linecap:butt;stroke-linejoin:miter;stroke-opacity:1"/>
<path class="bond-7 atom-7 atom-8" d="M 296.1,87.5 L 293.7,41.2" style="fill:none;fill-rule:evenodd;stroke:#000000;stroke-width:2.0px;stroke-linecap:butt;stroke-linejoin:miter;stroke-opacity:1"/>
<path class="bond-7 atom-7 atom-8" d="M 288.1,87.9 L 285.7,41.6" style="fill:none;fill-rule:evenodd;stroke:#000000;stroke-width:2.0px;stroke-linecap:butt;stroke-linejoin:miter;stroke-opacity:1"/>
<path class="bond-8 atom-7 atom-9" d="M 292.0,85.4 L 331.0,105.3" style="fill:none;fill-rule:evenodd;stroke:#000000;stroke-width:2.0px;stroke-linecap:butt;stroke-linejoin:miter;stroke-opacity:1"/>
<path d="M 201.5,91.4 L 199.1,90.1 L 196.8,91.6" style="fill:none;stroke:#000000;stroke-width:2.0px;stroke-linecap:butt;stroke-linejoin:miter;stroke-opacity:1;"/>
<path d="M 156.3,117.9 L 154.0,119.3 L 151.6,118.1" style="fill:none;stroke:#000000;stroke-width:2.0px;stroke-linecap:butt;stroke-linejoin:miter;stroke-opacity:1;"/>
<path d="M 108.6,96.1 L 106.2,94.9 L 104.4,96.1" style="fill:none;stroke:#000000;stroke-width:2.0px;stroke-linecap:butt;stroke-linejoin:miter;stroke-opacity:1;"/>
<path d="M 289.7,86.8 L 292.0,85.4 L 293.9,86.4" style="fill:none;stroke:#000000;stroke-width:2.0px;stroke-linecap:butt;stroke-linejoin:miter;stroke-opacity:1;"/>
<path class="atom-0" d="M 246.3 160.6 L 251.3 168.6 Q 251.8 169.4, 252.6 170.9 Q 253.4 172.3, 253.4 172.4 L 253.4 160.6 L 255.4 160.6 L 255.4 175.8 L 253.3 175.8 L 248.0 167.0 Q 247.4 166.0, 246.7 164.8 Q 246.1 163.6, 245.9 163.2 L 245.9 175.8 L 243.9 175.8 L 243.9 160.6 L 246.3 160.6 " fill="#000000"/>
<path class="atom-0" d="M 258.3 160.6 L 260.4 160.6 L 260.4 167.1 L 268.2 167.1 L 268.2 160.6 L 270.2 160.6 L 270.2 175.8 L 268.2 175.8 L 268.2 168.8 L 260.4 168.8 L 260.4 175.8 L 258.3 175.8 L 258.3 160.6 " fill="#000000"/>
<path class="atom-0" d="M 273.2 175.3 Q 273.6 174.3, 274.5 173.8 Q 275.3 173.2, 276.6 173.2 Q 278.1 173.2, 278.9 174.1 Q 279.8 174.9, 279.8 176.4 Q 279.8 177.8, 278.7 179.2 Q 277.6 180.6, 275.3 182.3 L 279.9 182.3 L 279.9 183.4 L 273.2 183.4 L 273.2 182.5 Q 275.1 181.1, 276.2 180.1 Q 277.3 179.1, 277.8 178.2 Q 278.4 177.3, 278.4 176.4 Q 278.4 175.5, 277.9 174.9 Q 277.4 174.4, 276.6 174.4 Q 275.7 174.4, 275.2 174.7 Q 274.7 175.0, 274.3 175.8 L 273.2 175.3 " fill="#000000"/>
<path class="atom-5" d="M 96.4 41.3 Q 96.4 37.7, 98.2 35.6 Q 100.0 33.6, 103.4 33.6 Q 106.8 33.6, 108.6 35.6 Q 110.4 37.7, 110.4 41.3 Q 110.4 45.0, 108.6 47.1 Q 106.7 49.2, 103.4 49.2 Q 100.1 49.2, 98.2 47.1 Q 96.4 45.0, 96.4 41.3 M 103.4 47.5 Q 105.7 47.5, 107.0 45.9 Q 108.3 44.4, 108.3 41.3 Q 108.3 38.3, 107.0 36.8 Q 105.7 35.3, 103.4 35.3 Q 101.1 35.3, 99.8 36.8 Q 98.6 38.3, 98.6 41.3 Q 98.6 44.4, 99.8 45.9 Q 101.1 47.5, 103.4 47.5 " fill="#000000"/>
<path class="atom-6" d="M 39.1 116.6 L 41.2 116.6 L 41.2 123.1 L 49.0 123.1 L 49.0 116.6 L 51.0 116.6 L 51.0 131.8 L 49.0 131.8 L 49.0 124.8 L 41.2 124.8 L 41.2 131.8 L 39.1 131.8 L 39.1 116.6 " fill="#000000"/>
<path class="atom-6" d="M 54.1 124.2 Q 54.1 120.5, 55.9 118.5 Q 57.7 116.4, 61.1 116.4 Q 64.5 116.4, 66.3 118.5 Q 68.1 120.5, 68.1 124.2 Q 68.1 127.9, 66.3 130.0 Q 64.4 132.1, 61.1 132.1 Q 57.8 132.1, 55.9 130.0 Q 54.1 127.9, 54.1 124.2 M 61.1 130.3 Q 63.4 130.3, 64.7 128.8 Q 65.9 127.2, 65.9 124.2 Q 65.9 121.2, 64.7 119.7 Q 63.4 118.2, 61.1 118.2 Q 58.8 118.2, 57.5 119.7 Q 56.3 121.2, 56.3 124.2 Q 56.3 127.2, 57.5 128.8 Q 58.8 130.3, 61.1 130.3 " fill="#000000"/>
<path class="atom-8" d="M 282.2 31.8 Q 282.2 28.1, 284.0 26.1 Q 285.8 24.0, 289.2 24.0 Q 292.6 24.0, 294.4 26.1 Q 296.2 28.1, 296.2 31.8 Q 296.2 35.5, 294.4 37.6 Q 292.5 39.6, 289.2 39.6 Q 285.9 39.6, 284.0 37.6 Q 282.2 35.5, 282.2 31.8 M 289.2 37.9 Q 291.5 37.9, 292.8 36.4 Q 294.0 34.8, 294.0 31.8 Q 294.0 28.8, 292.8 27.3 Q 291.5 25.8, 289.2 25.8 Q 286.9 25.8, 285.6 27.3 Q 284.4 28.8, 284.4 31.8 Q 284.4 34.8, 285.6 36.4 Q 286.9 37.9, 289.2 37.9 " fill="#000000"/>
<path class="atom-9" d="M 332.8 109.8 Q 332.8 106.2, 334.6 104.1 Q 336.4 102.1, 339.8 102.1 Q 343.2 102.1, 345.0 104.1 Q 346.8 106.2, 346.8 109.8 Q 346.8 113.5, 344.9 115.6 Q 343.1 117.7, 339.8 117.7 Q 336.4 117.7, 334.6 115.6 Q 332.8 113.5, 332.8 109.8 M 339.8 116.0 Q 342.1 116.0, 343.4 114.4 Q 344.6 112.9, 344.6 109.8 Q 344.6 106.8, 343.4 105.3 Q 342.1 103.8, 339.8 103.8 Q 337.5 103.8, 336.2 105.3 Q 335.0 106.8, 335.0 109.8 Q 335.0 112.9, 336.2 114.4 Q 337.5 116.0, 339.8 116.0 " fill="#000000"/>
<path class="atom-9" d="M 349.1 102.3 L 351.2 102.3 L 351.2 108.7 L 359.0 108.7 L 359.0 102.3 L 361.0 102.3 L 361.0 117.5 L 359.0 117.5 L 359.0 110.4 L 351.2 110.4 L 351.2 117.5 L 349.1 117.5 L 349.1 102.3 " fill="#000000"/>
<path class="note" d="M 250.6 190.0 Q 249.2 190.0, 248.5 189.0 Q 247.8 187.9, 247.8 186.1 Q 247.8 184.3, 248.5 183.2 Q 249.2 182.2, 250.6 182.2 Q 252.0 182.2, 252.7 183.2 Q 253.4 184.3, 253.4 186.1 Q 253.4 187.9, 252.7 189.0 Q 252.0 190.0, 250.6 190.0 M 250.6 189.1 Q 251.4 189.1, 251.8 188.4 Q 252.3 187.6, 252.3 186.1 Q 252.3 184.6, 251.8 183.8 Q 251.4 183.1, 250.6 183.1 Q 249.8 183.1, 249.3 183.8 Q 248.9 184.6, 248.9 186.1 Q 248.9 187.6, 249.3 188.4 Q 249.8 189.1, 250.6 189.1 " fill="#000000"/>
<path class="note" d="M 237.5 122.4 L 239.2 122.4 L 239.2 116.7 L 237.3 117.3 L 237.1 116.6 L 239.4 115.6 L 240.2 115.7 L 240.2 122.4 L 241.7 122.4 L 241.7 123.3 L 237.5 123.3 L 237.5 122.4 " fill="#000000"/>
<path class="note" d="M 196.1 78.9 Q 196.4 78.2, 197.0 77.8 Q 197.7 77.4, 198.6 77.4 Q 199.8 77.4, 200.4 78.0 Q 201.0 78.6, 201.0 79.7 Q 201.0 80.8, 200.2 81.9 Q 199.4 82.9, 197.7 84.2 L 201.2 84.2 L 201.2 85.0 L 196.1 85.0 L 196.1 84.3 Q 197.5 83.3, 198.3 82.6 Q 199.2 81.8, 199.6 81.1 Q 200.0 80.5, 200.0 79.8 Q 200.0 79.0, 199.6 78.6 Q 199.2 78.2, 198.6 78.2 Q 198.0 78.2, 197.6 78.5 Q 197.2 78.7, 196.9 79.3 L 196.1 78.9 " fill="#000000"/>
<path class="note" d="M 155.6 128.1 Q 156.3 128.3, 156.7 128.8 Q 157.0 129.3, 157.0 130.0 Q 157.0 130.7, 156.7 131.2 Q 156.4 131.7, 155.8 132.0 Q 155.2 132.2, 154.4 132.2 Q 153.6 132.2, 153.0 132.0 Q 152.4 131.7, 151.9 131.1 L 152.5 130.5 Q 153.0 131.0, 153.4 131.2 Q 153.8 131.4, 154.4 131.4 Q 155.1 131.4, 155.5 131.0 Q 155.9 130.6, 155.9 130.0 Q 155.9 129.3, 155.5 128.9 Q 155.1 128.6, 154.1 128.6 L 153.6 128.6 L 153.6 127.8 L 154.1 127.8 Q 154.9 127.8, 155.3 127.4 Q 155.8 127.1, 155.8 126.4 Q 155.8 125.9, 155.4 125.6 Q 155.1 125.3, 154.4 125.3 Q 153.8 125.3, 153.4 125.5 Q 153.0 125.7, 152.7 126.3 L 152.0 125.9 Q 152.2 125.3, 152.9 124.9 Q 153.5 124.4, 154.4 124.4 Q 155.6 124.4, 156.2 125.0 Q 156.9 125.5, 156.9 126.4 Q 156.9 127.0, 156.5 127.4 Q 156.2 127.9, 155.6 128.1 " fill="#000000"/>
<path class="note" d="M 108.7 105.0 L 109.6 105.0 L 109.6 105.9 L 108.7 105.9 L 108.7 107.7 L 107.6 107.7 L 107.6 105.9 L 103.7 105.9 L 103.7 105.2 L 107.0 100.1 L 108.7 100.1 L 108.7 105.0 M 105.0 105.0 L 107.6 105.0 L 107.6 100.7 L 105.0 105.0 " fill="#000000"/>
<path class="note" d="M 102.7 22.5 Q 103.4 22.5, 103.9 22.7 Q 104.4 23.0, 104.8 23.6 Q 105.1 24.1, 105.1 24.8 Q 105.1 25.6, 104.7 26.2 Q 104.3 26.7, 103.7 27.0 Q 103.1 27.3, 102.4 27.3 Q 101.7 27.3, 101.0 27.0 Q 100.4 26.8, 99.9 26.3 L 100.6 25.6 Q 100.9 26.0, 101.4 26.2 Q 101.9 26.4, 102.4 26.4 Q 103.1 26.4, 103.5 26.0 Q 104.0 25.6, 104.0 24.8 Q 104.0 24.0, 103.5 23.6 Q 103.1 23.3, 102.3 23.3 Q 101.7 23.3, 100.9 23.5 L 100.3 23.3 L 100.7 19.6 L 104.6 19.6 L 104.5 20.5 L 101.6 20.5 L 101.3 22.7 Q 102.0 22.5, 102.7 22.5 " fill="#000000"/>
<path class="note" d="M 51.7 108.2 Q 52.4 108.2, 52.9 108.5 Q 53.4 108.8, 53.7 109.3 Q 54.0 109.8, 54.0 110.5 Q 54.0 111.2, 53.7 111.8 Q 53.4 112.4, 52.8 112.7 Q 52.2 113.0, 51.5 113.0 Q 50.1 113.0, 49.4 112.1 Q 48.7 111.2, 48.7 109.4 Q 48.7 107.4, 49.6 106.3 Q 50.4 105.3, 52.1 105.3 Q 52.5 105.3, 52.9 105.4 Q 53.3 105.5, 53.7 105.7 L 53.3 106.4 Q 52.7 106.1, 52.1 106.1 Q 51.0 106.1, 50.4 106.8 Q 49.9 107.5, 49.8 108.9 Q 50.2 108.6, 50.7 108.4 Q 51.2 108.2, 51.7 108.2 M 51.5 112.2 Q 51.9 112.2, 52.2 111.9 Q 52.6 111.7, 52.7 111.3 Q 52.9 111.0, 52.9 110.5 Q 52.9 109.8, 52.6 109.4 Q 52.2 109.1, 51.5 109.1 Q 51.1 109.1, 50.6 109.3 Q 50.1 109.4, 49.8 109.8 Q 49.9 111.0, 50.3 111.6 Q 50.7 112.2, 51.5 112.2 " fill="#000000"/>
<path class="note" d="M 293.9 91.3 L 289.9 91.3 L 289.9 90.5 L 294.9 90.5 L 294.9 91.3 L 291.9 98.1 L 290.8 98.1 L 293.9 91.3 " fill="#000000"/>
<path class="note" d="M 289.5 13.7 Q 290.2 14.0, 290.6 14.4 Q 291.0 14.9, 291.0 15.6 Q 291.0 16.3, 290.6 16.8 Q 290.3 17.2, 289.7 17.5 Q 289.1 17.8, 288.3 17.8 Q 287.1 17.8, 286.3 17.2 Q 285.6 16.6, 285.6 15.6 Q 285.6 15.0, 285.9 14.5 Q 286.2 14.0, 286.9 13.7 Q 286.4 13.4, 286.1 13.0 Q 285.9 12.6, 285.9 11.9 Q 285.9 11.1, 286.5 10.5 Q 287.2 10.0, 288.3 10.0 Q 289.4 10.0, 290.0 10.5 Q 290.7 11.1, 290.7 11.9 Q 290.7 12.5, 290.4 12.9 Q 290.1 13.3, 289.5 13.7 M 288.3 10.8 Q 287.7 10.8, 287.3 11.1 Q 287.0 11.4, 287.0 11.9 Q 287.0 12.3, 287.2 12.6 Q 287.4 12.9, 287.8 13.0 Q 288.1 13.2, 288.8 13.4 Q 289.2 13.1, 289.4 12.7 Q 289.6 12.4, 289.6 11.9 Q 289.6 11.4, 289.3 11.1 Q 288.9 10.8, 288.3 10.8 M 288.3 17.0 Q 289.0 17.0, 289.5 16.6 Q 289.9 16.2, 289.9 15.6 Q 289.9 15.2, 289.7 14.9 Q 289.4 14.7, 289.1 14.5 Q 288.8 14.4, 288.2 14.2 L 287.7 14.0 Q 287.1 14.3, 286.9 14.7 Q 286.7 15.1, 286.7 15.6 Q 286.7 16.2, 287.1 16.6 Q 287.6 17.0, 288.3 17.0 " fill="#000000"/>
<path class="note" d="M 349.4 121.0 Q 350.8 121.0, 351.5 121.9 Q 352.2 122.8, 352.2 124.6 Q 352.2 126.6, 351.3 127.7 Q 350.5 128.7, 348.9 128.7 Q 348.4 128.7, 348.0 128.6 Q 347.6 128.5, 347.2 128.3 L 347.6 127.6 Q 348.2 127.9, 348.8 127.9 Q 349.9 127.9, 350.5 127.2 Q 351.0 126.5, 351.1 125.1 Q 350.7 125.4, 350.2 125.6 Q 349.7 125.8, 349.2 125.8 Q 348.5 125.8, 348.0 125.5 Q 347.5 125.2, 347.2 124.7 Q 346.9 124.2, 346.9 123.5 Q 346.9 122.7, 347.2 122.2 Q 347.5 121.6, 348.1 121.3 Q 348.7 121.0, 349.4 121.0 M 348.0 123.5 Q 348.0 124.2, 348.3 124.5 Q 348.7 124.9, 349.4 124.9 Q 349.8 124.9, 350.3 124.7 Q 350.8 124.6, 351.1 124.2 Q 351.0 123.0, 350.6 122.4 Q 350.2 121.8, 349.4 121.8 Q 349.0 121.8, 348.7 122.1 Q 348.4 122.3, 348.2 122.6 Q 348.0 123.0, 348.0 123.5 " fill="#000000"/>
</svg>