<svg xmlns="http://www.w3.org/2000/svg" xmlns:rdkit="http://www.rdkit.org/xml" xmlns:xlink="http://www.w3.org/1999/xlink" version="1.1" baseProfile="full" xml:space="preserve" width="400px" height="200px" viewBox="0 0 400 200">
<!-- END OF HEADER -->
<rect style="opacity:1.0;fill:#FFFFFF;stroke:none" width="400.0" height="200.0" x="0.0" y="0.0"> </rect>
<path class="bond-0 atom-0 atom-1" d="M 243.9,114.6 L 249.8,117.6 L 252.4,167.9 L 240.9,168.5 L 238.3,118.2 Z" style="fill:#FF7F7F;fill-rule:evenodd;fill-opacity:1;stroke:#FF7F7F;stroke-width:0.0px;stroke-linecap:butt;stroke-linejoin:miter;stroke-opacity:1;"/>
<path class="bond-1 atom-1 atom-2" d="M 195.7,83.5 L 243.6,108.0 L 243.9,114.6 L 238.3,118.2 L 196.4,96.7 Z" style="fill:#FF7F7F;fill-rule:evenodd;fill-opacity:1;stroke:#FF7F7F;stroke-width:0.0px;stroke-linecap:butt;stroke-linejoin:miter;stroke-opacity:1;"/>
<path class="bond-6 atom-1 atom-7" d="M 283.1,82.3 L 289.0,85.4 L 289.3,92.0 L 249.8,117.6 L 243.9,114.6 L 243.6,108.0 Z" style="fill:#FF7F7F;fill-rule:evenodd;fill-opacity:1;stroke:#FF7F7F;stroke-width:0.0px;stroke-linecap:butt;stroke-linejoin:miter;stroke-opacity:1;"/>
<path class="bond-2 atom-2 atom-3" d="M 195.7,83.5 L 196.4,96.7 L 154.1,124.1 L 147.9,114.5 Z" style="fill:#FF7F7F;fill-rule:evenodd;fill-opacity:1;stroke:#FF7F7F;stroke-width:0.0px;stroke-linecap:butt;stroke-linejoin:miter;stroke-opacity:1;"/>
<path class="bond-7 atom-7 atom-8" d="M 291.9,31.4 L 294.5,81.8 L 289.0,85.4 L 283.1,82.3 L 280.5,32.0 Z" style="fill:#FF7F7F;fill-rule:evenodd;fill-opacity:1;stroke:#FF7F7F;stroke-width:0.0px;stroke-linecap:butt;stroke-linejoin:miter;stroke-opacity:1;"/>
<path class="bond-8 atom-7 atom-9" d="M 294.5,81.8 L 339.4,104.7 L 334.2,114.9 L 289.3,92.0 L 289.0,85.4 Z" style="fill:#FF7F7F;fill-rule:evenodd;fill-opacity:1;stroke:#FF7F7F;stroke-width:0.0px;stroke-linecap:butt;stroke-linejoin:miter;stroke-opacity:1;"/>
<ellipse cx="258.9" cy="172.0" rx="25.5" ry="16.1" class="atom-0" style="fill:#FF7F7F;fill-rule:evenodd;stroke:#FF7F7F;stroke-width:1.0px;stroke-linecap:butt;stroke-linejoin:miter;stroke-opacity:1"/>
<ellipse cx="243.9" cy="114.6" rx="10.7" ry="10.7" class="atom-1" style="fill:#FF7F7F;fill-rule:evenodd;stroke:#FF7F7F;stroke-width:1.0px;stroke-linecap:butt;stroke-linejoin:miter;stroke-opacity:1"/>
<ellipse cx="196.1" cy="90.1" rx="10.7" ry="10.7" class="atom-2" style="fill:#FF7F7F;fill-rule:evenodd;stroke:#FF7F7F;stroke-width:1.0px;stroke-linecap:butt;stroke-linejoin:miter;stroke-opacity:1"/>
<ellipse cx="151.0" cy="119.3" rx="10.7" ry="10.7" class="atom-3" style="fill:#FF7F7F;fill-rule:evenodd;stroke:#FF7F7F;stroke-width:1.0px;stroke-linecap:butt;stroke-linejoin:miter;stroke-opacity:1"/>
<ellipse cx="289.0" cy="85.4" rx="10.7" ry="10.7" class="atom-7" style="fill:#FF7F7F;fill-rule:evenodd;stroke:#FF7F7F;stroke-width:1.0px;stroke-linecap:butt;stroke-linejoin:miter;stroke-opacity:1"/>
<ellipse cx="286.2" cy="31.8" rx="10.7" ry="11.0" class="atom-8" style="fill:#FF7F7F;fill-rule:evenodd;stroke:#FF7F7F;stroke-width:1.0px;stroke-linecap:butt;stroke-linejoin:miter;stroke-opacity:1"/>
<ellipse cx="343.9" cy="109.9" rx="20.0" ry="11.0" class="atom-9" style="fill:#FF7F7F;fill-rule:evenodd;stroke:#FF7F7F;stroke-width:1.0px;stroke-linecap:butt;stroke-linejoin:miter;stroke-opacity:1"/>
<path class="bond-0 atom-0 atom-1" d="M 246.2,158.8 L 243.9,114.6" style="fill:none;fill-rule:evenodd;stroke:#000000;stroke-width:2.0px;stroke-linecap:butt;stroke-linejoin:miter;stroke-opacity:1"/>
<path class="bond-1 atom-1 atom-2" d="M 243.9,114.6 L 196.1,90.1" style="fill:none;fill-rule:evenodd;stroke:#000000;stroke-width:2.0px;stroke-linecap:butt;stroke-linejoin:miter;stroke-opacity:1"/>
<path class="bond-2 atom-2 atom-3" d="M 196.1,90.1 L 151.0,119.3" style="fill:none;fill-rule:evenodd;stroke:#000000;stroke-width:2.0px;stroke-linecap:butt;stroke-linejoin:miter;stroke-opacity:1"/>
<path class="bond-3 atom-3 atom-4" d="M 151.0,119.3 L 103.2,94.9" style="fill:none;fill-rule:evenodd;stroke:#000000;stroke-width:2.0px;stroke-linecap:butt;stroke-linejoin:miter;stroke-opacity:1"/>
<path class="bond-4 atom-4 atom-5" d="M 107.3,97.0 L 106.1,73.9" style="fill:none;fill-rule:evenodd;stroke:#000000;stroke-width:2.0px;stroke-linecap:butt;stroke-linejoin:miter;stroke-opacity:1"/>
<path class="bond-4 atom-4 atom-5" d="M 106.1,73.9 L 104.9,50.8" style="fill:none;fill-rule:evenodd;stroke:#FF0000;stroke-width:2.0px;stroke-linecap:butt;stroke-linejoin:miter;stroke-opacity:1"/>
<path class="bond-4 atom-4 atom-5" d="M 99.3,97.4 L 98.1,74.3" style="fill:none;fill-rule:evenodd;stroke:#000000;stroke-width:2.0px;stroke-linecap:butt;stroke-linejoin:miter;stroke-opacity:1"/>
<path class="bond-4 atom-4 atom-5" d="M 98.1,74.3 L 96.9,51.2" style="fill:none;fill-rule:evenodd;stroke:#FF0000;stroke-width:2.0px;stroke-linecap:butt;stroke-linejoin:miter;stroke-opacity:1"/>
<path class="bond-5 atom-4 atom-6" d="M 103.2,94.9 L 85.0,106.7" style="fill:none;fill-rule:evenodd;stroke:#000000;stroke-width:2.0px;stroke-linecap:butt;stroke-linejoin:miter;stroke-opacity:1"/>
<path class="bond-5 atom-4 atom-6" d="M 85.0,106.7 L 66.9,118.5" style="fill:none;fill-rule:evenodd;stroke:#FF0000;stroke-width:2.0px;stroke-linecap:butt;stroke-linejoin:miter;stroke-opacity:1"/>
<path class="bond-6 atom-1 atom-7" d="M 243.9,114.6 L 289.0,85.4" style="fill:none;fill-rule:evenodd;stroke:#000000;stroke-width:2.0px;stroke-linecap:butt;stroke-linejoin:miter;stroke-opacity:1"/>
<path class="bond-7 atom-7 atom-8" d="M 293.1,87.5 L 290.7,41.2" style="fill:none;fill-rule:evenodd;stroke:#000000;stroke-width:2.0px;stroke-linecap:butt;stroke-linejoin:miter;stroke-opacity:1"/>
<path class="bond-7 atom-7 atom-8" d="M 285.1,87.9 L 282.7,41.6" style="fill:none;fill-rule:evenodd;stroke:#000000;stroke-width:2.0px;stroke-linecap:butt;stroke-linejoin:miter;stroke-opacity:1"/>
<path class="bond-8 atom-7 atom-9" d="M 289.0,85.4 L 328.0,105.3" style="fill:none;fill-rule:evenodd;stroke:#000000;stroke-width:2.0px;stroke-linecap:butt;stroke-linejoin:miter;stroke-opacity:1"/>
<path d="M 198.5,91.4 L 196.1,90.1 L 193.8,91.6" style="fill:none;stroke:#000000;stroke-width:2.0px;stroke-linecap:butt;stroke-linejoin:miter;stroke-opacity:1;"/>
<path d="M 153.3,117.9 L 151.0,119.3 L 148.6,118.1" style="fill:none;stroke:#000000;stroke-width:2.0px;stroke-linecap:butt;stroke-linejoin:miter;stroke-opacity:1;"/>
<path d="M 105.6,96.1 L 103.2,94.9 L 102.3,95.5" style="fill:none;stroke:#000000;stroke-width:2.0px;stroke-linecap:butt;stroke-linejoin:miter;stroke-opacity:1;"/>
<path d="M 286.7,86.8 L 289.0,85.4 L 290.9,86.4" style="fill:none;stroke:#000000;stroke-width:2.0px;stroke-linecap:butt;stroke-linejoin:miter;stroke-opacity:1;"/>
<path class="atom-0" d="M 243.3 160.6 L 248.3 168.6 Q 248.8 169.4, 249.6 170.9 Q 250.4 172.3, 250.4 172.4 L 250.4 160.6 L 252.4 160.6 L 252.4 175.8 L 250.3 175.8 L 245.0 167.0 Q 244.4 166.0, 243.7 164.8 Q 243.1 163.6, 242.9 163.2 L 242.9 175.8 L 240.9 175.8 L 240.9 160.6 L 243.3 160.6 " fill="#000000"/>
<path class="atom-0" d="M 255.3 160.6 L 257.4 160.6 L 257.4 167.1 L 265.2 167.1 L 265.2 160.6 L 267.2 160.6 L 267.2 175.8 L 265.2 175.8 L 265.2 168.8 L 257.4 168.8 L 257.4 175.8 L 255.3 175.8 L 255.3 160.6 " fill="#000000"/>
<path class="atom-0" d="M 270.2 175.3 Q 270.6 174.3, 271.5 173.8 Q 272.3 173.2, 273.6 173.2 Q 275.1 173.2, 275.9 174.1 Q 276.8 174.9, 276.8 176.4 Q 276.8 177.8, 275.7 179.2 Q 274.6 180.6, 272.3 182.3 L 276.9 182.3 L 276.9 183.4 L 270.2 183.4 L 270.2 182.5 Q 272.1 181.1, 273.2 180.1 Q 274.3 179.1, 274.8 178.2 Q 275.4 177.3, 275.4 176.4 Q 275.4 175.5, 274.9 174.9 Q 274.4 174.4, 273.6 174.4 Q 272.7 174.4, 272.2 174.7 Q 271.7 175.0, 271.3 175.8 L 270.2 175.3 " fill="#000000"/>
<path class="atom-5" d="M 93.4 41.3 Q 93.4 37.7, 95.2 35.6 Q 97.0 33.6, 100.4 33.6 Q 103.8 33.6, 105.6 35.6 Q 107.4 37.7, 107.4 41.3 Q 107.4 45.0, 105.6 47.1 Q 103.7 49.2, 100.4 49.2 Q 97.1 49.2, 95.2 47.1 Q 93.4 45.0, 93.4 41.3 M 100.4 47.5 Q 102.7 47.5, 104.0 45.9 Q 105.3 44.4, 105.3 41.3 Q 105.3 38.3, 104.0 36.8 Q 102.7 35.3, 100.4 35.3 Q 98.1 35.3, 96.8 36.8 Q 95.6 38.3, 95.6 41.3 Q 95.6 44.4, 96.8 45.9 Q 98.1 47.5, 100.4 47.5 " fill="#FF0000"/>
<path class="atom-6" d="M 36.1 116.6 L 38.2 116.6 L 38.2 123.1 L 46.0 123.1 L 46.0 116.6 L 48.0 116.6 L 48.0 131.8 L 46.0 131.8 L 46.0 124.8 L 38.2 124.8 L 38.2 131.8 L 36.1 131.8 L 36.1 116.6 " fill="#FF0000"/>
<path class="atom-6" d="M 51.1 124.2 Q 51.1 120.5, 52.9 118.5 Q 54.7 116.4, 58.1 116.4 Q 61.5 116.4, 63.3 118.5 Q 65.1 120.5, 65.1 124.2 Q 65.1 127.9, 63.3 130.0 Q 61.4 132.1, 58.1 132.1 Q 54.8 132.1, 52.9 130.0 Q 51.1 127.9, 51.1 124.2 M 58.1 130.3 Q 60.4 130.3, 61.7 128.8 Q 62.9 127.2, 62.9 124.2 Q 62.9 121.2, 61.7 119.7 Q 60.4 118.2, 58.1 118.2 Q 55.8 118.2, 54.5 119.7 Q 53.3 121.2, 53.3 124.2 Q 53.3 127.2, 54.5 128.8 Q 55.8 130.3, 58.1 130.3 " fill="#FF0000"/>
<path class="atom-8" d="M 279.2 31.8 Q 279.2 28.1, 281.0 26.1 Q 282.8 24.0, 286.2 24.0 Q 289.6 24.0, 291.4 26.1 Q 293.2 28.1, 293.2 31.8 Q 293.2 35.5, 291.4 37.6 Q 289.5 39.6, 286.2 39.6 Q 282.9 39.6, 281.0 37.6 Q 279.2 35.5, 279.2 31.8 M 286.2 37.9 Q 288.5 37.9, 289.8 36.4 Q 291.0 34.8, 291.0 31.8 Q 291.0 28.8, 289.8 27.3 Q 288.5 25.8, 286.2 25.8 Q 283.9 25.8, 282.6 27.3 Q 281.4 28.8, 281.4 31.8 Q 281.4 34.8, 282.6 36.4 Q 283.9 37.9, 286.2 37.9 " fill="#000000"/>
<path class="atom-9" d="M 329.8 109.8 Q 329.8 106.2, 331.6 104.1 Q 333.4 102.1, 336.8 102.1 Q 340.2 102.1, 342.0 104.1 Q 343.8 106.2, 343.8 109.8 Q 343.8 113.5, 341.9 115.6 Q 340.1 117.7, 336.8 117.7 Q 333.4 117.7, 331.6 115.6 Q 329.8 113.5, 329.8 109.8 M 336.8 116.0 Q 339.1 116.0, 340.4 114.4 Q 341.6 112.9, 341.6 109.8 Q 341.6 106.8, 340.4 105.3 Q 339.1 103.8, 336.8 103.8 Q 334.5 103.8, 333.2 105.3 Q 332.0 106.8, 332.0 109.8 Q 332.0 112.9, 333.2 114.4 Q 334.5 116.0, 336.8 116.0 " fill="#000000"/>
<path class="atom-9" d="M 346.1 102.3 L 348.2 102.3 L 348.2 108.7 L 356.0 108.7 L 356.0 102.3 L 358.0 102.3 L 358.0 117.5 L 356.0 117.5 L 356.0 110.4 L 348.2 110.4 L 348.2 117.5 L 346.1 117.5 L 346.1 102.3 " fill="#000000"/>
<path class="note" d="M 247.6 190.0 Q 246.2 190.0, 245.5 189.0 Q 244.8 187.9, 244.8 186.1 Q 244.8 184.3, 245.5 183.2 Q 246.2 182.2, 247.6 182.2 Q 249.0 182.2, 249.7 183.2 Q 250.4 184.3, 250.4 186.1 Q 250.4 187.9, 249.7 189.0 Q 249.0 190.0, 247.6 190.0 M 247.6 189.1 Q 248.4 189.1, 248.8 188.4 Q 249.3 187.6, 249.3 186.1 Q 249.3 184.6, 248.8 183.8 Q 248.4 183.1, 247.6 183.1 Q 246.8 183.1, 246.3 183.8 Q 245.9 184.6, 245.9 186.1 Q 245.9 187.6, 246.3 188.4 Q 246.8 189.1, 247.6 189.1 " fill="#000000"/>
<path class="note" d="M 234.5 122.4 L 236.2 122.4 L 236.2 116.7 L 234.3 117.3 L 234.1 116.6 L 236.4 115.6 L 237.2 115.7 L 237.2 122.4 L 238.7 122.4 L 238.7 123.3 L 234.5 123.3 L 234.5 122.4 " fill="#000000"/>
<path class="note" d="M 193.1 78.9 Q 193.4 78.2, 194.0 77.8 Q 194.7 77.4, 195.6 77.4 Q 196.8 77.4, 197.4 78.0 Q 198.0 78.6, 198.0 79.7 Q 198.0 80.8, 197.2 81.9 Q 196.4 82.9, 194.7 84.2 L 198.2 84.2 L 198.2 85.0 L 193.1 85.0 L 193.1 84.3 Q 194.5 83.3, 195.3 82.6 Q 196.2 81.8, 196.6 81.1 Q 197.0 80.5, 197.0 79.8 Q 197.0 79.0, 196.6 78.6 Q 196.2 78.2, 195.6 78.2 Q 195.0 78.2, 194.6 78.5 Q 194.2 78.7, 193.9 79.3 L 193.1 78.9 " fill="#000000"/>
<path class="note" d="M 152.6 128.1 Q 153.3 128.3, 153.7 128.8 Q 154.0 129.3, 154.0 130.0 Q 154.0 130.7, 153.7 131.2 Q 153.4 131.7, 152.8 132.0 Q 152.2 132.2, 151.4 132.2 Q 150.6 132.2, 150.0 132.0 Q 149.4 131.7, 148.9 131.1 L 149.5 130.5 Q 150.0 131.0, 150.4 131.2 Q 150.8 131.4, 151.4 131.4 Q 152.1 131.4, 152.5 131.0 Q 152.9 130.6, 152.9 130.0 Q 152.9 129.3, 152.5 128.9 Q 152.1 128.6, 151.1 128.6 L 150.6 128.6 L 150.6 127.8 L 151.1 127.8 Q 151.9 127.8, 152.3 127.4 Q 152.8 127.1, 152.8 126.4 Q 152.8 125.9, 152.4 125.6 Q 152.1 125.3, 151.4 125.3 Q 150.8 125.3, 150.4 125.5 Q 150.0 125.7, 149.7 126.3 L 149.0 125.9 Q 149.2 125.3, 149.9 124.9 Q 150.5 124.4, 151.4 124.4 Q 152.6 124.4, 153.2 125.0 Q 153.9 125.5, 153.9 126.4 Q 153.9 127.0, 153.5 127.4 Q 153.2 127.9, 152.6 128.1 " fill="#000000"/>
<path class="note" d="M 105.7 105.0 L 106.6 105.0 L 106.6 105.9 L 105.7 105.9 L 105.7 107.7 L 104.6 107.7 L 104.6 105.9 L 100.7 105.9 L 100.7 105.2 L 104.0 100.1 L 105.7 100.1 L 105.7 105.0 M 102.0 105.0 L 104.6 105.0 L 104.6 100.7 L 102.0 105.0 " fill="#000000"/>
<path class="note" d="M 99.7 22.5 Q 100.4 22.5, 100.9 22.7 Q 101.4 23.0, 101.8 23.6 Q 102.1 24.1, 102.1 24.8 Q 102.1 25.6, 101.7 26.2 Q 101.3 26.7, 100.7 27.0 Q 100.1 27.3, 99.4 27.3 Q 98.7 27.3, 98.0 27.0 Q 97.4 26.8, 96.9 26.3 L 97.6 25.6 Q 97.9 26.0, 98.4 26.2 Q 98.9 26.4, 99.4 26.4 Q 100.1 26.4, 100.5 26.0 Q 101.0 25.6, 101.0 24.8 Q 101.0 24.0, 100.5 23.6 Q 100.1 23.3, 99.3 23.3 Q 98.7 23.3, 97.9 23.5 L 97.3 23.3 L 97.7 19.6 L 101.6 19.6 L 101.5 20.5 L 98.6 20.5 L 98.3 22.7 Q 99.0 22.5, 99.7 22.5 " fill="#000000"/>
<path class="note" d="M 48.7 108.2 Q 49.4 108.2, 49.9 108.5 Q 50.4 108.8, 50.7 109.3 Q 51.0 109.8, 51.0 110.5 Q 51.0 111.2, 50.7 111.8 Q 50.4 112.4, 49.8 112.7 Q 49.2 113.0, 48.5 113.0 Q 47.1 113.0, 46.4 112.1 Q 45.7 111.2, 45.7 109.4 Q 45.7 107.4, 46.6 106.3 Q 47.4 105.3, 49.0 105.3 Q 49.5 105.3, 49.9 105.4 Q 50.3 105.5, 50.7 105.7 L 50.3 106.4 Q 49.7 106.1, 49.1 106.1 Q 48.0 106.1, 47.4 106.8 Q 46.9 107.5, 46.8 108.9 Q 47.2 108.6, 47.7 108.4 Q 48.2 108.2, 48.7 108.2 M 48.5 112.2 Q 48.9 112.2, 49.2 111.9 Q 49.6 111.7, 49.7 111.3 Q 49.9 111.0, 49.9 110.5 Q 49.9 109.8, 49.6 109.4 Q 49.2 109.1, 48.5 109.1 Q 48.1 109.1, 47.6 109.3 Q 47.1 109.4, 46.8 109.8 Q 46.9 111.0, 47.3 111.6 Q 47.7 112.2, 48.5 112.2 " fill="#000000"/>
<path class="note" d="M 290.9 91.3 L 286.9 91.3 L 286.9 90.5 L 291.9 90.5 L 291.9 91.3 L 288.9 98.1 L 287.8 98.1 L 290.9 91.3 " fill="#000000"/>
<path class="note" d="M 286.5 13.7 Q 287.2 14.0, 287.6 14.4 Q 288.0 14.9, 288.0 15.6 Q 288.0 16.3, 287.6 16.8 Q 287.3 17.2, 286.7 17.5 Q 286.1 17.8, 285.3 17.8 Q 284.1 17.8, 283.3 17.2 Q 282.6 16.6, 282.6 15.6 Q 282.6 15.0, 282.9 14.5 Q 283.2 14.0, 283.9 13.7 Q 283.4 13.4, 283.1 13.0 Q 282.9 12.6, 282.9 11.9 Q 282.9 11.1, 283.5 10.5 Q 284.2 10.0, 285.3 10.0 Q 286.4 10.0, 287.0 10.5 Q 287.7 11.1, 287.7 11.9 Q 287.7 12.5, 287.4 12.9 Q 287.1 13.3, 286.5 13.7 M 285.3 10.8 Q 284.6 10.8, 284.3 11.1 Q 284.0 11.4, 284.0 11.9 Q 284.0 12.3, 284.2 12.6 Q 284.4 12.9, 284.8 13.0 Q 285.1 13.2, 285.8 13.4 Q 286.2 13.1, 286.4 12.7 Q 286.6 12.4, 286.6 11.9 Q 286.6 11.4, 286.3 11.1 Q 285.9 10.8, 285.3 10.8 M 285.3 17.0 Q 286.0 17.0, 286.5 16.6 Q 286.9 16.2, 286.9 15.6 Q 286.9 15.2, 286.7 14.9 Q 286.4 14.7, 286.1 14.5 Q 285.8 14.4, 285.2 14.2 L 284.7 14.0 Q 284.1 14.3, 283.9 14.7 Q 283.7 15.1, 283.7 15.6 Q 283.7 16.2, 284.1 16.6 Q 284.6 17.0, 285.3 17.0 " fill="#000000"/>
<path class="note" d="M 346.4 121.0 Q 347.8 121.0, 348.5 121.9 Q 349.2 122.8, 349.2 124.6 Q 349.2 126.6, 348.3 127.7 Q 347.5 128.7, 345.9 128.7 Q 345.4 128.7, 345.0 128.6 Q 344.6 128.5, 344.2 128.3 L 344.6 127.6 Q 345.2 127.9, 345.8 127.9 Q 346.9 127.9, 347.5 127.2 Q 348.0 126.5, 348.1 125.1 Q 347.7 125.4, 347.2 125.6 Q 346.7 125.8, 346.2 125.8 Q 345.5 125.8, 345.0 125.5 Q 344.5 125.2, 344.2 124.7 Q 343.9 124.2, 343.9 123.5 Q 343.9 122.7, 344.2 122.2 Q 344.5 121.6, 345.1 121.3 Q 345.7 121.0, 346.4 121.0 M 345.0 123.5 Q 345.0 124.2, 345.3 124.5 Q 345.7 124.9, 346.4 124.9 Q 346.8 124.9, 347.3 124.7 Q 347.8 124.6, 348.1 124.2 Q 348.0 123.0, 347.6 122.4 Q 347.2 121.8, 346.4 121.8 Q 346.0 121.8, 345.7 122.1 Q 345.4 122.3, 345.2 122.6 Q 345.0 123.0, 345.0 123.5 " fill="#000000"/>
</svg>