<svg xmlns="http://www.w3.org/2000/svg" xmlns:rdkit="http://www.rdkit.org/xml" xmlns:xlink="http://www.w3.org/1999/xlink" version="1.1" baseProfile="full" xml:space="preserve" width="900px" height="200px" viewBox="0 0 900 200">
<!-- END OF HEADER -->
<rect style="opacity:1.0;fill:#FFFFFF;stroke:none" width="900.0" height="200.0" x="0.0" y="0.0"> </rect>
<path class="bond-0 atom-0 atom-1" d="M 214.0,157.2 L 206.3,143.8" style="fill:none;fill-rule:evenodd;stroke:#FF0000;stroke-width:2.0px;stroke-linecap:butt;stroke-linejoin:miter;stroke-opacity:1"/>
<path class="bond-0 atom-0 atom-1" d="M 206.3,143.8 L 198.6,130.4" style="fill:none;fill-rule:evenodd;stroke:#000000;stroke-width:2.0px;stroke-linecap:butt;stroke-linejoin:miter;stroke-opacity:1"/>
<path class="bond-1 atom-1 atom-2" d="M 178.0,121.3 L 163.2,121.3" style="fill:none;fill-rule:evenodd;stroke:#000000;stroke-width:2.0px;stroke-linecap:butt;stroke-linejoin:miter;stroke-opacity:1"/>
<path class="bond-1 atom-1 atom-2" d="M 163.2,121.3 L 148.5,121.3" style="fill:none;fill-rule:evenodd;stroke:#FF0000;stroke-width:2.0px;stroke-linecap:butt;stroke-linejoin:miter;stroke-opacity:1"/>
<path class="bond-2 atom-1 atom-3" d="M 198.6,112.1 L 213.9,85.6" style="fill:none;fill-rule:evenodd;stroke:#000000;stroke-width:2.0px;stroke-linecap:butt;stroke-linejoin:miter;stroke-opacity:1"/>
<path class="bond-3 atom-3 atom-4" d="M 214.0,67.1 L 206.3,53.9" style="fill:none;fill-rule:evenodd;stroke:#000000;stroke-width:2.0px;stroke-linecap:butt;stroke-linejoin:miter;stroke-opacity:1"/>
<path class="bond-3 atom-3 atom-4" d="M 206.3,53.9 L 198.7,40.6" style="fill:none;fill-rule:evenodd;stroke:#FF0000;stroke-width:2.0px;stroke-linecap:butt;stroke-linejoin:miter;stroke-opacity:1"/>
<path class="bond-4 atom-3 atom-5" d="M 234.6,76.3 L 255.7,76.3" style="fill:none;fill-rule:evenodd;stroke:#000000;stroke-width:2.0px;stroke-linecap:butt;stroke-linejoin:miter;stroke-opacity:1"/>
<path class="bond-5 atom-5 atom-6" d="M 276.5,67.1 L 284.1,53.9" style="fill:none;fill-rule:evenodd;stroke:#000000;stroke-width:2.0px;stroke-linecap:butt;stroke-linejoin:miter;stroke-opacity:1"/>
<path class="bond-5 atom-5 atom-6" d="M 284.1,53.9 L 291.8,40.7" style="fill:none;fill-rule:evenodd;stroke:#FF0000;stroke-width:2.0px;stroke-linecap:butt;stroke-linejoin:miter;stroke-opacity:1"/>
<path class="bond-6 atom-5 atom-7" d="M 276.6,85.6 L 291.9,112.1" style="fill:none;fill-rule:evenodd;stroke:#000000;stroke-width:2.0px;stroke-linecap:butt;stroke-linejoin:miter;stroke-opacity:1"/>
<path class="bond-7 atom-7 atom-8" d="M 313.3,121.3 L 327.0,121.3" style="fill:none;fill-rule:evenodd;stroke:#000000;stroke-width:2.0px;stroke-linecap:butt;stroke-linejoin:miter;stroke-opacity:1"/>
<path class="bond-7 atom-7 atom-8" d="M 327.0,121.3 L 340.6,121.3" style="fill:none;fill-rule:evenodd;stroke:#FF0000;stroke-width:2.0px;stroke-linecap:butt;stroke-linejoin:miter;stroke-opacity:1"/>
<path class="bond-8 atom-7 atom-9" d="M 291.8,130.6 L 276.5,157.1" style="fill:none;fill-rule:evenodd;stroke:#000000;stroke-width:2.0px;stroke-linecap:butt;stroke-linejoin:miter;stroke-opacity:1"/>
<path class="bond-9 atom-9 atom-0" d="M 263.8,166.2 L 244.6,166.2" style="fill:none;fill-rule:evenodd;stroke:#000000;stroke-width:2.0px;stroke-linecap:butt;stroke-linejoin:miter;stroke-opacity:1"/>
<path class="bond-9 atom-9 atom-0" d="M 244.6,166.2 L 225.4,166.2" style="fill:none;fill-rule:evenodd;stroke:#FF0000;stroke-width:2.0px;stroke-linecap:butt;stroke-linejoin:miter;stroke-opacity:1"/>
<path class="atom-0" d="M 195.0 166.3 Q 195.0 162.7, 196.8 160.8 Q 198.5 158.8, 201.8 158.8 Q 205.1 158.8, 206.8 160.8 Q 208.5 162.7, 208.5 166.3 Q 208.5 169.8, 206.8 171.9 Q 205.0 173.9, 201.8 173.9 Q 198.5 173.9, 196.8 171.9 Q 195.0 169.9, 195.0 166.3 M 201.8 172.2 Q 204.0 172.2, 205.2 170.7 Q 206.5 169.2, 206.5 166.3 Q 206.5 163.4, 205.2 161.9 Q 204.0 160.4, 201.8 160.4 Q 199.5 160.4, 198.3 161.9 Q 197.1 163.4, 197.1 166.3 Q 197.1 169.2, 198.3 170.7 Q 199.5 172.2, 201.8 172.2 " fill="#FF0000"/>
<path class="atom-0" d="M 210.4 171.2 L 212.5 171.2 L 212.5 173.3 L 210.4 173.3 L 210.4 171.2 M 210.4 164.1 L 212.5 164.1 L 212.5 166.2 L 210.4 166.2 L 210.4 164.1 " fill="#FF0000"/>
<path class="atom-0" d="M 215.7 172.0 L 218.9 172.0 L 218.9 161.0 L 215.3 162.1 L 214.8 160.9 L 219.4 158.9 L 220.8 159.1 L 220.8 172.0 L 223.7 172.0 L 223.7 173.7 L 215.7 173.7 L 215.7 172.0 " fill="#FF0000"/>
<path class="atom-1" d="M 179.7 121.3 Q 179.7 117.7, 181.4 115.7 Q 183.1 113.8, 186.4 113.8 Q 189.4 113.8, 191.0 116.0 L 189.6 117.1 Q 188.5 115.5, 186.4 115.5 Q 184.1 115.5, 183.0 117.0 Q 181.8 118.5, 181.8 121.3 Q 181.8 124.2, 183.0 125.7 Q 184.2 127.2, 186.6 127.2 Q 188.2 127.2, 190.1 126.2 L 190.7 127.8 Q 189.9 128.3, 188.8 128.6 Q 187.6 128.9, 186.3 128.9 Q 183.1 128.9, 181.4 126.9 Q 179.7 125.0, 179.7 121.3 " fill="#000000"/>
<path class="atom-1" d="M 192.6 126.3 L 194.7 126.3 L 194.7 128.3 L 192.6 128.3 L 192.6 126.3 M 192.6 119.1 L 194.7 119.1 L 194.7 121.2 L 192.6 121.2 L 192.6 119.1 " fill="#000000"/>
<path class="atom-1" d="M 197.1 116.8 Q 197.6 115.4, 198.9 114.6 Q 200.2 113.8, 202.0 113.8 Q 204.2 113.8, 205.5 115.0 Q 206.7 116.2, 206.7 118.4 Q 206.7 120.5, 205.1 122.6 Q 203.5 124.6, 200.2 127.0 L 206.9 127.0 L 206.9 128.7 L 197.0 128.7 L 197.0 127.3 Q 199.8 125.3, 201.4 123.9 Q 203.0 122.4, 203.8 121.1 Q 204.6 119.8, 204.6 118.5 Q 204.6 117.1, 203.9 116.3 Q 203.2 115.5, 202.0 115.5 Q 200.8 115.5, 200.0 116.0 Q 199.2 116.4, 198.7 117.5 L 197.1 116.8 " fill="#000000"/>
<path class="atom-2" d="M 91.1 114.0 L 93.1 114.0 L 93.1 120.2 L 100.6 120.2 L 100.6 114.0 L 102.6 114.0 L 102.6 128.7 L 100.6 128.7 L 100.6 121.9 L 93.1 121.9 L 93.1 128.7 L 91.1 128.7 L 91.1 114.0 " fill="#FF0000"/>
<path class="atom-2" d="M 105.3 121.3 Q 105.3 117.8, 107.0 115.8 Q 108.8 113.8, 112.0 113.8 Q 115.3 113.8, 117.0 115.8 Q 118.8 117.8, 118.8 121.3 Q 118.8 124.9, 117.0 126.9 Q 115.3 128.9, 112.0 128.9 Q 108.8 128.9, 107.0 126.9 Q 105.3 124.9, 105.3 121.3 M 112.0 127.3 Q 114.3 127.3, 115.5 125.8 Q 116.7 124.2, 116.7 121.3 Q 116.7 118.4, 115.5 117.0 Q 114.3 115.5, 112.0 115.5 Q 109.8 115.5, 108.6 116.9 Q 107.4 118.4, 107.4 121.3 Q 107.4 124.3, 108.6 125.8 Q 109.8 127.3, 112.0 127.3 " fill="#FF0000"/>
<path class="atom-2" d="M 120.8 126.3 L 122.8 126.3 L 122.8 128.3 L 120.8 128.3 L 120.8 126.3 M 120.8 119.1 L 122.8 119.1 L 122.8 121.2 L 120.8 121.2 L 120.8 119.1 " fill="#FF0000"/>
<path class="atom-2" d="M 126.1 127.0 L 129.4 127.0 L 129.4 116.0 L 125.8 117.1 L 125.3 115.9 L 129.8 113.9 L 131.3 114.1 L 131.3 127.0 L 134.2 127.0 L 134.2 128.7 L 126.1 128.7 L 126.1 127.0 " fill="#FF0000"/>
<path class="atom-2" d="M 141.4 128.9 Q 138.7 128.9, 137.3 126.9 Q 136.0 124.9, 136.0 121.3 Q 136.0 117.8, 137.3 115.8 Q 138.7 113.8, 141.4 113.8 Q 144.1 113.8, 145.4 115.8 Q 146.8 117.8, 146.8 121.3 Q 146.8 124.9, 145.4 126.9 Q 144.1 128.9, 141.4 128.9 M 141.4 127.2 Q 143.0 127.2, 143.8 125.7 Q 144.7 124.2, 144.7 121.3 Q 144.7 118.4, 143.8 117.0 Q 143.0 115.5, 141.4 115.5 Q 139.8 115.5, 138.9 117.0 Q 138.1 118.4, 138.1 121.3 Q 138.1 124.2, 138.9 125.7 Q 139.8 127.2, 141.4 127.2 " fill="#FF0000"/>
<path class="atom-3" d="M 205.7 76.3 Q 205.7 72.7, 207.4 70.8 Q 209.1 68.8, 212.4 68.8 Q 215.4 68.8, 217.1 71.0 L 215.7 72.1 Q 214.5 70.5, 212.4 70.5 Q 210.2 70.5, 209.0 72.0 Q 207.8 73.5, 207.8 76.3 Q 207.8 79.2, 209.0 80.7 Q 210.3 82.2, 212.6 82.2 Q 214.3 82.2, 216.1 81.3 L 216.7 82.8 Q 216.0 83.3, 214.8 83.6 Q 213.6 83.9, 212.3 83.9 Q 209.1 83.9, 207.4 81.9 Q 205.7 80.0, 205.7 76.3 " fill="#000000"/>
<path class="atom-3" d="M 218.7 81.3 L 220.7 81.3 L 220.7 83.4 L 218.7 83.4 L 218.7 81.3 M 218.7 74.1 L 220.7 74.1 L 220.7 76.2 L 218.7 76.2 L 218.7 74.1 " fill="#000000"/>
<path class="atom-3" d="M 230.8 70.7 L 223.1 70.7 L 223.1 69.0 L 232.8 69.0 L 232.8 70.5 L 226.9 83.7 L 224.9 83.7 L 230.8 70.7 " fill="#000000"/>
<path class="atom-4" d="M 154.0 24.0 L 156.0 24.0 L 156.0 30.3 L 163.5 30.3 L 163.5 24.0 L 165.5 24.0 L 165.5 38.7 L 163.5 38.7 L 163.5 31.9 L 156.0 31.9 L 156.0 38.7 L 154.0 38.7 L 154.0 24.0 " fill="#FF0000"/>
<path class="atom-4" d="M 168.2 31.3 Q 168.2 27.8, 169.9 25.8 Q 171.7 23.9, 174.9 23.9 Q 178.2 23.9, 179.9 25.8 Q 181.7 27.8, 181.7 31.3 Q 181.7 34.9, 179.9 37.0 Q 178.1 39.0, 174.9 39.0 Q 171.7 39.0, 169.9 37.0 Q 168.2 34.9, 168.2 31.3 M 174.9 37.3 Q 177.2 37.3, 178.4 35.8 Q 179.6 34.3, 179.6 31.3 Q 179.6 28.5, 178.4 27.0 Q 177.2 25.5, 174.9 25.5 Q 172.7 25.5, 171.5 27.0 Q 170.3 28.4, 170.3 31.3 Q 170.3 34.3, 171.5 35.8 Q 172.7 37.3, 174.9 37.3 " fill="#FF0000"/>
<path class="atom-4" d="M 183.6 36.3 L 185.7 36.3 L 185.7 38.4 L 183.6 38.4 L 183.6 36.3 M 183.6 29.2 L 185.7 29.2 L 185.7 31.2 L 183.6 31.2 L 183.6 29.2 " fill="#FF0000"/>
<path class="atom-4" d="M 193.2 23.9 Q 195.8 23.9, 197.1 25.7 Q 198.4 27.4, 198.4 31.0 Q 198.4 34.9, 196.8 36.9 Q 195.2 38.9, 192.0 38.9 Q 191.1 38.9, 190.3 38.7 Q 189.5 38.5, 188.8 38.1 L 189.6 36.7 Q 190.7 37.2, 192.0 37.2 Q 194.1 37.2, 195.1 35.9 Q 196.2 34.6, 196.3 31.8 Q 195.6 32.5, 194.6 32.9 Q 193.7 33.2, 192.7 33.2 Q 191.4 33.2, 190.4 32.7 Q 189.3 32.1, 188.8 31.1 Q 188.2 30.1, 188.2 28.8 Q 188.2 27.3, 188.8 26.2 Q 189.5 25.1, 190.6 24.5 Q 191.7 23.9, 193.2 23.9 M 190.3 28.7 Q 190.3 30.1, 191.0 30.8 Q 191.7 31.6, 193.0 31.6 Q 193.9 31.6, 194.8 31.2 Q 195.7 30.8, 196.3 30.2 Q 196.2 27.8, 195.5 26.7 Q 194.7 25.6, 193.1 25.6 Q 192.3 25.6, 191.7 26.0 Q 191.0 26.4, 190.7 27.1 Q 190.3 27.9, 190.3 28.7 " fill="#FF0000"/>
<path class="atom-5" d="M 257.4 76.3 Q 257.4 72.7, 259.1 70.8 Q 260.8 68.8, 264.1 68.8 Q 267.1 68.8, 268.8 71.0 L 267.4 72.1 Q 266.2 70.5, 264.1 70.5 Q 261.9 70.5, 260.7 72.0 Q 259.5 73.5, 259.5 76.3 Q 259.5 79.2, 260.7 80.7 Q 262.0 82.2, 264.3 82.2 Q 266.0 82.2, 267.8 81.3 L 268.4 82.8 Q 267.7 83.3, 266.5 83.6 Q 265.3 83.9, 264.0 83.9 Q 260.8 83.9, 259.1 81.9 Q 257.4 80.0, 257.4 76.3 " fill="#000000"/>
<path class="atom-5" d="M 270.4 81.3 L 272.5 81.3 L 272.5 83.4 L 270.4 83.4 L 270.4 81.3 M 270.4 74.1 L 272.5 74.1 L 272.5 76.2 L 270.4 76.2 L 270.4 74.1 " fill="#000000"/>
<path class="atom-5" d="M 280.6 74.5 Q 281.8 74.5, 282.9 75.1 Q 283.9 75.7, 284.4 76.7 Q 285.0 77.7, 285.0 79.0 Q 285.0 80.4, 284.4 81.5 Q 283.7 82.6, 282.6 83.3 Q 281.5 83.9, 280.1 83.9 Q 277.4 83.9, 276.1 82.1 Q 274.8 80.3, 274.8 76.8 Q 274.8 72.9, 276.4 70.9 Q 278.1 68.8, 281.2 68.8 Q 282.1 68.8, 282.9 69.0 Q 283.7 69.3, 284.4 69.7 L 283.6 71.1 Q 282.5 70.5, 281.2 70.5 Q 279.1 70.5, 278.1 71.9 Q 277.0 73.2, 276.9 75.9 Q 277.6 75.3, 278.6 74.9 Q 279.5 74.5, 280.6 74.5 M 280.1 82.2 Q 280.9 82.2, 281.5 81.8 Q 282.2 81.3, 282.5 80.6 Q 282.9 79.9, 282.9 79.0 Q 282.9 77.7, 282.2 76.9 Q 281.5 76.2, 280.2 76.2 Q 279.3 76.2, 278.4 76.6 Q 277.5 76.9, 276.9 77.5 Q 277.0 80.0, 277.8 81.1 Q 278.5 82.2, 280.1 82.2 " fill="#000000"/>
<path class="atom-6" d="M 290.4 31.3 Q 290.4 27.8, 292.2 25.8 Q 293.9 23.9, 297.2 23.9 Q 300.4 23.9, 302.2 25.8 Q 303.9 27.8, 303.9 31.3 Q 303.9 34.9, 302.2 37.0 Q 300.4 39.0, 297.2 39.0 Q 293.9 39.0, 292.2 37.0 Q 290.4 34.9, 290.4 31.3 M 297.2 37.3 Q 299.4 37.3, 300.6 35.8 Q 301.8 34.3, 301.8 31.3 Q 301.8 28.5, 300.6 27.0 Q 299.4 25.5, 297.2 25.5 Q 294.9 25.5, 293.7 27.0 Q 292.5 28.4, 292.5 31.3 Q 292.5 34.3, 293.7 35.8 Q 294.9 37.3, 297.2 37.3 " fill="#FF0000"/>
<path class="atom-6" d="M 305.9 36.3 L 308.0 36.3 L 308.0 38.4 L 305.9 38.4 L 305.9 36.3 M 305.9 29.2 L 308.0 29.2 L 308.0 31.2 L 305.9 31.2 L 305.9 29.2 " fill="#FF0000"/>
<path class="atom-6" d="M 318.0 31.0 Q 319.3 31.5, 320.1 32.4 Q 320.9 33.3, 320.9 34.7 Q 320.9 36.0, 320.2 36.9 Q 319.6 37.9, 318.4 38.4 Q 317.3 38.9, 315.8 38.9 Q 313.3 38.9, 311.9 37.8 Q 310.5 36.7, 310.5 34.7 Q 310.5 33.5, 311.1 32.6 Q 311.7 31.7, 313.0 31.0 Q 312.1 30.5, 311.5 29.7 Q 311.0 28.9, 311.0 27.6 Q 311.0 25.9, 312.3 24.9 Q 313.5 23.9, 315.7 23.9 Q 317.8 23.9, 319.1 24.9 Q 320.3 25.9, 320.3 27.6 Q 320.3 28.7, 319.7 29.5 Q 319.1 30.3, 318.0 31.0 M 315.7 25.4 Q 314.4 25.4, 313.8 26.0 Q 313.1 26.6, 313.1 27.6 Q 313.1 28.4, 313.5 28.9 Q 314.0 29.4, 314.6 29.7 Q 315.3 30.0, 316.6 30.4 Q 317.5 29.8, 317.8 29.1 Q 318.2 28.5, 318.2 27.6 Q 318.2 26.6, 317.6 26.0 Q 316.9 25.4, 315.7 25.4 M 315.8 37.4 Q 317.1 37.4, 318.0 36.7 Q 318.8 35.9, 318.8 34.7 Q 318.8 33.9, 318.3 33.4 Q 317.9 32.9, 317.2 32.6 Q 316.6 32.3, 315.4 31.9 L 314.5 31.6 Q 313.5 32.3, 313.0 33.0 Q 312.6 33.7, 312.6 34.7 Q 312.6 35.9, 313.4 36.7 Q 314.3 37.4, 315.8 37.4 " fill="#FF0000"/>
<path class="atom-6" d="M 323.1 24.0 L 325.1 24.0 L 325.1 30.3 L 332.6 30.3 L 332.6 24.0 L 334.6 24.0 L 334.6 38.7 L 332.6 38.7 L 332.6 31.9 L 325.1 31.9 L 325.1 38.7 L 323.1 38.7 L 323.1 24.0 " fill="#FF0000"/>
<path class="atom-7" d="M 282.8 121.3 Q 282.8 117.7, 284.5 115.7 Q 286.2 113.8, 289.5 113.8 Q 292.5 113.8, 294.1 116.0 L 292.8 117.1 Q 291.6 115.5, 289.5 115.5 Q 287.3 115.5, 286.1 117.0 Q 284.9 118.5, 284.9 121.3 Q 284.9 124.2, 286.1 125.7 Q 287.3 127.2, 289.7 127.2 Q 291.3 127.2, 293.2 126.2 L 293.8 127.8 Q 293.0 128.3, 291.9 128.6 Q 290.7 128.9, 289.4 128.9 Q 286.2 128.9, 284.5 126.9 Q 282.8 125.0, 282.8 121.3 " fill="#000000"/>
<path class="atom-7" d="M 295.8 126.3 L 297.9 126.3 L 297.9 128.3 L 295.8 128.3 L 295.8 126.3 M 295.8 119.1 L 297.9 119.1 L 297.9 121.2 L 295.8 121.2 L 295.8 119.1 " fill="#000000"/>
<path class="atom-7" d="M 309.8 123.6 L 311.6 123.6 L 311.6 125.3 L 309.8 125.3 L 309.8 128.7 L 307.8 128.7 L 307.8 125.3 L 300.2 125.3 L 300.2 124.0 L 306.7 114.0 L 309.8 114.0 L 309.8 123.6 M 302.7 123.6 L 307.8 123.6 L 307.8 115.3 L 302.7 123.6 " fill="#000000"/>
<path class="atom-8" d="M 342.4 121.3 Q 342.4 117.8, 344.1 115.8 Q 345.8 113.8, 349.1 113.8 Q 352.4 113.8, 354.1 115.8 Q 355.9 117.8, 355.9 121.3 Q 355.9 124.9, 354.1 126.9 Q 352.3 128.9, 349.1 128.9 Q 345.9 128.9, 344.1 126.9 Q 342.4 124.9, 342.4 121.3 M 349.1 127.3 Q 351.3 127.3, 352.6 125.8 Q 353.8 124.2, 353.8 121.3 Q 353.8 118.4, 352.6 117.0 Q 351.3 115.5, 349.1 115.5 Q 346.9 115.5, 345.6 116.9 Q 344.4 118.4, 344.4 121.3 Q 344.4 124.3, 345.6 125.8 Q 346.9 127.3, 349.1 127.3 " fill="#FF0000"/>
<path class="atom-8" d="M 357.8 126.3 L 359.9 126.3 L 359.9 128.3 L 357.8 128.3 L 357.8 126.3 M 357.8 119.1 L 359.9 119.1 L 359.9 121.2 L 357.8 121.2 L 357.8 119.1 " fill="#FF0000"/>
<path class="atom-8" d="M 369.4 120.9 Q 370.9 121.4, 371.6 122.3 Q 372.3 123.2, 372.3 124.7 Q 372.3 125.9, 371.6 126.9 Q 371.0 127.8, 369.9 128.4 Q 368.7 128.9, 367.2 128.9 Q 365.7 128.9, 364.5 128.4 Q 363.3 127.8, 362.4 126.7 L 363.6 125.5 Q 364.5 126.5, 365.2 126.9 Q 366.0 127.2, 367.2 127.2 Q 368.6 127.2, 369.4 126.5 Q 370.2 125.8, 370.2 124.6 Q 370.2 123.1, 369.3 122.5 Q 368.5 121.8, 366.7 121.8 L 365.6 121.8 L 365.6 120.3 L 366.6 120.3 Q 368.2 120.3, 369.0 119.6 Q 369.9 118.9, 369.9 117.6 Q 369.9 116.6, 369.2 116.1 Q 368.5 115.5, 367.3 115.5 Q 366.0 115.5, 365.3 115.9 Q 364.5 116.3, 363.9 117.4 L 362.5 116.7 Q 363.0 115.5, 364.3 114.6 Q 365.5 113.8, 367.3 113.8 Q 369.4 113.8, 370.7 114.8 Q 372.0 115.8, 372.0 117.6 Q 372.0 118.8, 371.3 119.6 Q 370.7 120.5, 369.4 120.9 " fill="#FF0000"/>
<path class="atom-8" d="M 374.4 114.0 L 376.4 114.0 L 376.4 120.2 L 383.9 120.2 L 383.9 114.0 L 385.9 114.0 L 385.9 128.7 L 383.9 128.7 L 383.9 121.9 L 376.4 121.9 L 376.4 128.7 L 374.4 128.7 L 374.4 114.0 " fill="#FF0000"/>
<path class="atom-9" d="M 265.5 166.3 Q 265.5 162.6, 267.2 160.7 Q 269.0 158.8, 272.2 158.8 Q 275.3 158.8, 276.9 160.9 L 275.5 162.0 Q 274.3 160.5, 272.2 160.5 Q 270.0 160.5, 268.8 162.0 Q 267.7 163.5, 267.7 166.3 Q 267.7 169.2, 268.9 170.7 Q 270.1 172.2, 272.5 172.2 Q 274.1 172.2, 276.0 171.2 L 276.5 172.8 Q 275.8 173.3, 274.6 173.6 Q 273.5 173.8, 272.2 173.8 Q 269.0 173.8, 267.2 171.9 Q 265.5 169.9, 265.5 166.3 " fill="#000000"/>
<path class="atom-9" d="M 278.5 171.2 L 280.6 171.2 L 280.6 173.3 L 278.5 173.3 L 278.5 171.2 M 278.5 164.1 L 280.6 164.1 L 280.6 166.2 L 278.5 166.2 L 278.5 164.1 " fill="#000000"/>
<path class="atom-9" d="M 288.2 164.5 Q 289.5 164.5, 290.6 165.0 Q 291.7 165.6, 292.3 166.6 Q 292.9 167.6, 292.9 169.0 Q 292.9 170.5, 292.1 171.6 Q 291.4 172.7, 290.2 173.3 Q 289.0 173.8, 287.6 173.8 Q 286.2 173.8, 285.0 173.3 Q 283.8 172.8, 282.9 171.9 L 284.2 170.6 Q 284.8 171.3, 285.8 171.7 Q 286.7 172.1, 287.7 172.1 Q 289.0 172.1, 289.9 171.3 Q 290.8 170.5, 290.8 169.0 Q 290.8 167.5, 289.9 166.8 Q 289.0 166.0, 287.5 166.0 Q 286.2 166.0, 284.8 166.6 L 283.7 166.0 L 284.4 159.0 L 291.9 159.0 L 291.7 160.6 L 286.1 160.6 L 285.6 165.0 Q 287.0 164.5, 288.2 164.5 " fill="#000000"/>
<path class="bond-10 atom-10 atom-11" d="M 547.0,113.6 L 557.9,124.0" style="fill:none;fill-rule:evenodd;stroke:#FF0000;stroke-width:2.0px;stroke-linecap:butt;stroke-linejoin:miter;stroke-opacity:1"/>
<path class="bond-10 atom-10 atom-11" d="M 557.9,124.0 L 568.8,134.4" style="fill:none;fill-rule:evenodd;stroke:#000000;stroke-width:2.0px;stroke-linecap:butt;stroke-linejoin:miter;stroke-opacity:1"/>
<path class="bond-11 atom-11 atom-12" d="M 593.9,139.0 L 603.5,136.1" style="fill:none;fill-rule:evenodd;stroke:#000000;stroke-width:2.0px;stroke-linecap:butt;stroke-linejoin:miter;stroke-opacity:1"/>
<path class="bond-12 atom-12 atom-13" d="M 635.7,134.4 L 646.6,142.8" style="fill:none;fill-rule:evenodd;stroke:#000000;stroke-width:2.0px;stroke-linecap:butt;stroke-linejoin:miter;stroke-opacity:1"/>
<path class="bond-12 atom-12 atom-13" d="M 646.6,142.8 L 657.6,151.2" style="fill:none;fill-rule:evenodd;stroke:#FF0000;stroke-width:2.0px;stroke-linecap:butt;stroke-linejoin:miter;stroke-opacity:1"/>
<path class="bond-13 atom-13 atom-14" d="M 682.8,151.2 L 693.8,143.6" style="fill:none;fill-rule:evenodd;stroke:#FF0000;stroke-width:2.0px;stroke-linecap:butt;stroke-linejoin:miter;stroke-opacity:1"/>
<path class="bond-13 atom-13 atom-14" d="M 693.8,143.6 L 704.9,136.0" style="fill:none;fill-rule:evenodd;stroke:#000000;stroke-width:2.0px;stroke-linecap:butt;stroke-linejoin:miter;stroke-opacity:1"/>
<path class="bond-14 atom-14 atom-15" d="M 735.6,139.2 L 744.2,142.2" style="fill:none;fill-rule:evenodd;stroke:#000000;stroke-width:2.0px;stroke-linecap:butt;stroke-linejoin:miter;stroke-opacity:1"/>
<path class="bond-14 atom-14 atom-15" d="M 744.2,142.2 L 752.8,145.3" style="fill:none;fill-rule:evenodd;stroke:#FF0000;stroke-width:2.0px;stroke-linecap:butt;stroke-linejoin:miter;stroke-opacity:1"/>
<path class="bond-15 atom-14 atom-16" d="M 709.6,121.8 L 700.3,90.5" style="fill:none;fill-rule:evenodd;stroke:#000000;stroke-width:2.0px;stroke-linecap:butt;stroke-linejoin:miter;stroke-opacity:1"/>
<path class="bond-16 atom-16 atom-17" d="M 704.5,72.0 L 713.2,60.7" style="fill:none;fill-rule:evenodd;stroke:#000000;stroke-width:2.0px;stroke-linecap:butt;stroke-linejoin:miter;stroke-opacity:1"/>
<path class="bond-16 atom-16 atom-17" d="M 713.2,60.7 L 721.9,49.3" style="fill:none;fill-rule:evenodd;stroke:#FF0000;stroke-width:2.0px;stroke-linecap:butt;stroke-linejoin:miter;stroke-opacity:1"/>
<path class="bond-17 atom-16 atom-18" d="M 690.1,81.0 L 652.4,80.0" style="fill:none;fill-rule:evenodd;stroke:#000000;stroke-width:2.0px;stroke-linecap:butt;stroke-linejoin:miter;stroke-opacity:1"/>
<path class="bond-18 atom-18 atom-19" d="M 639.3,70.7 L 631.0,58.5" style="fill:none;fill-rule:evenodd;stroke:#000000;stroke-width:2.0px;stroke-linecap:butt;stroke-linejoin:miter;stroke-opacity:1"/>
<path class="bond-18 atom-18 atom-19" d="M 631.0,58.5 L 622.6,46.4" style="fill:none;fill-rule:evenodd;stroke:#FF0000;stroke-width:2.0px;stroke-linecap:butt;stroke-linejoin:miter;stroke-opacity:1"/>
<path class="bond-19 atom-18 atom-12" d="M 642.3,89.1 L 631.5,119.8" style="fill:none;fill-rule:evenodd;stroke:#000000;stroke-width:2.0px;stroke-linecap:butt;stroke-linejoin:miter;stroke-opacity:1"/>
<path class="atom-0" d="M 502.2 100.5 L 504.2 100.5 L 504.2 106.8 L 511.8 106.8 L 511.8 100.5 L 513.7 100.5 L 513.7 115.3 L 511.8 115.3 L 511.8 108.5 L 504.2 108.5 L 504.2 115.3 L 502.2 115.3 L 502.2 100.5 " fill="#FF0000"/>
<path class="atom-0" d="M 516.4 107.9 Q 516.4 104.3, 518.2 102.4 Q 519.9 100.4, 523.2 100.4 Q 526.4 100.4, 528.2 102.4 Q 529.9 104.3, 529.9 107.9 Q 529.9 111.4, 528.1 113.5 Q 526.4 115.5, 523.2 115.5 Q 519.9 115.5, 518.2 113.5 Q 516.4 111.5, 516.4 107.9 M 523.2 113.8 Q 525.4 113.8, 526.6 112.3 Q 527.8 110.8, 527.8 107.9 Q 527.8 105.0, 526.6 103.5 Q 525.4 102.0, 523.2 102.0 Q 520.9 102.0, 519.7 103.5 Q 518.5 104.9, 518.5 107.9 Q 518.5 110.8, 519.7 112.3 Q 520.9 113.8, 523.2 113.8 " fill="#FF0000"/>
<path class="atom-0" d="M 531.8 112.8 L 533.9 112.8 L 533.9 114.9 L 531.8 114.9 L 531.8 112.8 M 531.8 105.7 L 533.9 105.7 L 533.9 107.8 L 531.8 107.8 L 531.8 105.7 " fill="#FF0000"/>
<path class="atom-0" d="M 537.2 113.6 L 540.4 113.6 L 540.4 102.6 L 536.9 103.7 L 536.4 102.5 L 540.9 100.5 L 542.4 100.7 L 542.4 113.6 L 545.3 113.6 L 545.3 115.3 L 537.2 115.3 L 537.2 113.6 " fill="#FF0000"/>
<path class="atom-1" d="M 564.8 143.6 Q 564.8 140.0, 566.5 138.0 Q 568.3 136.1, 571.5 136.1 Q 574.6 136.1, 576.2 138.3 L 574.8 139.4 Q 573.6 137.8, 571.5 137.8 Q 569.3 137.8, 568.1 139.3 Q 567.0 140.8, 567.0 143.6 Q 567.0 146.5, 568.2 148.0 Q 569.4 149.5, 571.8 149.5 Q 573.4 149.5, 575.3 148.5 L 575.8 150.1 Q 575.1 150.6, 573.9 150.9 Q 572.8 151.2, 571.5 151.2 Q 568.3 151.2, 566.5 149.2 Q 564.8 147.3, 564.8 143.6 " fill="#000000"/>
<path class="atom-1" d="M 577.8 148.6 L 579.9 148.6 L 579.9 150.6 L 577.8 150.6 L 577.8 148.6 M 577.8 141.4 L 579.9 141.4 L 579.9 143.5 L 577.8 143.5 L 577.8 141.4 " fill="#000000"/>
<path class="atom-1" d="M 587.5 141.8 Q 588.8 141.8, 589.9 142.3 Q 591.0 142.9, 591.6 143.9 Q 592.2 144.9, 592.2 146.3 Q 592.2 147.8, 591.4 149.0 Q 590.7 150.0, 589.5 150.6 Q 588.3 151.2, 586.9 151.2 Q 585.6 151.2, 584.3 150.7 Q 583.1 150.2, 582.2 149.2 L 583.5 147.9 Q 584.1 148.7, 585.1 149.1 Q 586.0 149.5, 587.0 149.5 Q 588.3 149.5, 589.2 148.7 Q 590.1 147.8, 590.1 146.4 Q 590.1 144.8, 589.2 144.1 Q 588.3 143.3, 586.8 143.3 Q 585.6 143.3, 584.1 143.9 L 583.0 143.4 L 583.7 136.3 L 591.2 136.3 L 591.0 137.9 L 585.4 137.9 L 584.9 142.3 Q 586.3 141.8, 587.5 141.8 " fill="#000000"/>
<path class="atom-2" d="M 605.2 128.8 Q 605.2 125.2, 606.9 123.3 Q 608.6 121.3, 611.9 121.3 Q 614.9 121.3, 616.5 123.5 L 615.1 124.6 Q 614.0 123.1, 611.9 123.1 Q 609.6 123.1, 608.5 124.5 Q 607.3 126.0, 607.3 128.8 Q 607.3 131.8, 608.5 133.3 Q 609.7 134.7, 612.1 134.7 Q 613.7 134.7, 615.6 133.8 L 616.2 135.3 Q 615.4 135.8, 614.2 136.1 Q 613.1 136.4, 611.8 136.4 Q 608.6 136.4, 606.9 134.5 Q 605.2 132.5, 605.2 128.8 " fill="#000000"/>
<path class="atom-2" d="M 618.2 133.8 L 620.2 133.8 L 620.2 135.9 L 618.2 135.9 L 618.2 133.8 M 618.2 126.6 L 620.2 126.6 L 620.2 128.7 L 618.2 128.7 L 618.2 126.6 " fill="#000000"/>
<path class="atom-2" d="M 632.2 131.2 L 633.9 131.2 L 633.9 132.8 L 632.2 132.8 L 632.2 136.2 L 630.2 136.2 L 630.2 132.8 L 622.6 132.8 L 622.6 131.5 L 629.1 121.5 L 632.2 121.5 L 632.2 131.2 M 625.0 131.2 L 630.2 131.2 L 630.2 122.8 L 625.0 131.2 " fill="#000000"/>
<path class="atom-3" d="M 654.6 160.4 Q 654.6 156.9, 656.4 154.9 Q 658.1 152.9, 661.4 152.9 Q 664.6 152.9, 666.4 154.9 Q 668.1 156.9, 668.1 160.4 Q 668.1 164.0, 666.4 166.0 Q 664.6 168.0, 661.4 168.0 Q 658.1 168.0, 656.4 166.0 Q 654.6 164.0, 654.6 160.4 M 661.4 166.4 Q 663.6 166.4, 664.8 164.9 Q 666.0 163.4, 666.0 160.4 Q 666.0 157.5, 664.8 156.1 Q 663.6 154.6, 661.4 154.6 Q 659.1 154.6, 657.9 156.1 Q 656.7 157.5, 656.7 160.4 Q 656.7 163.4, 657.9 164.9 Q 659.1 166.4, 661.4 166.4 " fill="#FF0000"/>
<path class="atom-3" d="M 670.0 165.4 L 672.1 165.4 L 672.1 167.5 L 670.0 167.5 L 670.0 165.4 M 670.0 158.2 L 672.1 158.2 L 672.1 160.3 L 670.0 160.3 L 670.0 158.2 " fill="#FF0000"/>
<path class="atom-3" d="M 681.6 160.1 Q 683.0 160.5, 683.7 161.4 Q 684.4 162.3, 684.4 163.8 Q 684.4 165.0, 683.8 166.0 Q 683.1 167.0, 682.0 167.5 Q 680.8 168.0, 679.3 168.0 Q 677.8 168.0, 676.6 167.5 Q 675.4 166.9, 674.5 165.8 L 675.7 164.6 Q 676.6 165.6, 677.4 166.0 Q 678.1 166.4, 679.3 166.4 Q 680.7 166.4, 681.5 165.7 Q 682.3 164.9, 682.3 163.8 Q 682.3 162.3, 681.4 161.6 Q 680.6 160.9, 678.8 160.9 L 677.7 160.9 L 677.7 159.4 L 678.7 159.4 Q 680.3 159.4, 681.1 158.7 Q 682.0 158.0, 682.0 156.7 Q 682.0 155.8, 681.3 155.2 Q 680.6 154.6, 679.4 154.6 Q 678.1 154.6, 677.4 155.0 Q 676.6 155.5, 676.0 156.6 L 674.6 155.8 Q 675.1 154.6, 676.4 153.8 Q 677.6 152.9, 679.4 152.9 Q 681.5 152.9, 682.8 154.0 Q 684.1 155.0, 684.1 156.7 Q 684.1 157.9, 683.4 158.7 Q 682.8 159.6, 681.6 160.1 " fill="#FF0000"/>
<path class="atom-4" d="M 706.6 131.0 Q 706.6 127.4, 708.3 125.5 Q 710.0 123.5, 713.3 123.5 Q 716.3 123.5, 718.0 125.7 L 716.6 126.8 Q 715.4 125.2, 713.3 125.2 Q 711.1 125.2, 709.9 126.7 Q 708.7 128.2, 708.7 131.0 Q 708.7 133.9, 709.9 135.4 Q 711.2 136.9, 713.5 136.9 Q 715.1 136.9, 717.0 135.9 L 717.6 137.5 Q 716.9 138.0, 715.7 138.3 Q 714.5 138.6, 713.2 138.6 Q 710.0 138.6, 708.3 136.6 Q 706.6 134.7, 706.6 131.0 " fill="#000000"/>
<path class="atom-4" d="M 719.6 136.0 L 721.6 136.0 L 721.6 138.0 L 719.6 138.0 L 719.6 136.0 M 719.6 128.8 L 721.6 128.8 L 721.6 130.9 L 719.6 130.9 L 719.6 128.8 " fill="#000000"/>
<path class="atom-4" d="M 724.0 126.5 Q 724.6 125.1, 725.8 124.3 Q 727.1 123.5, 728.9 123.5 Q 731.1 123.5, 732.4 124.7 Q 733.6 125.9, 733.6 128.1 Q 733.6 130.3, 732.0 132.3 Q 730.4 134.3, 727.1 136.7 L 733.9 136.7 L 733.9 138.4 L 724.0 138.4 L 724.0 137.0 Q 726.7 135.0, 728.3 133.6 Q 730.0 132.1, 730.8 130.8 Q 731.6 129.5, 731.6 128.2 Q 731.6 126.8, 730.9 126.0 Q 730.1 125.2, 728.9 125.2 Q 727.7 125.2, 726.9 125.7 Q 726.2 126.1, 725.6 127.2 L 724.0 126.5 " fill="#000000"/>
<path class="atom-5" d="M 754.5 148.3 Q 754.5 144.8, 756.2 142.8 Q 758.0 140.8, 761.2 140.8 Q 764.5 140.8, 766.2 142.8 Q 768.0 144.8, 768.0 148.3 Q 768.0 151.9, 766.2 153.9 Q 764.5 155.9, 761.2 155.9 Q 758.0 155.9, 756.2 153.9 Q 754.5 151.9, 754.5 148.3 M 761.2 154.3 Q 763.5 154.3, 764.7 152.8 Q 765.9 151.3, 765.9 148.3 Q 765.9 145.4, 764.7 144.0 Q 763.5 142.5, 761.2 142.5 Q 759.0 142.5, 757.8 144.0 Q 756.6 145.4, 756.6 148.3 Q 756.6 151.3, 757.8 152.8 Q 759.0 154.3, 761.2 154.3 " fill="#FF0000"/>
<path class="atom-5" d="M 770.0 153.3 L 772.0 153.3 L 772.0 155.4 L 770.0 155.4 L 770.0 153.3 M 770.0 146.1 L 772.0 146.1 L 772.0 148.2 L 770.0 148.2 L 770.0 146.1 " fill="#FF0000"/>
<path class="atom-5" d="M 775.3 154.1 L 778.6 154.1 L 778.6 143.1 L 775.0 144.2 L 774.5 142.9 L 779.0 140.9 L 780.5 141.2 L 780.5 154.1 L 783.4 154.1 L 783.4 155.7 L 775.3 155.7 L 775.3 154.1 " fill="#FF0000"/>
<path class="atom-5" d="M 790.6 155.9 Q 787.9 155.9, 786.5 153.9 Q 785.2 151.9, 785.2 148.3 Q 785.2 144.8, 786.5 142.8 Q 787.9 140.8, 790.6 140.8 Q 793.3 140.8, 794.6 142.8 Q 796.0 144.8, 796.0 148.3 Q 796.0 151.9, 794.6 153.9 Q 793.3 155.9, 790.6 155.9 M 790.6 154.2 Q 792.2 154.2, 793.0 152.7 Q 793.9 151.2, 793.9 148.3 Q 793.9 145.5, 793.0 144.0 Q 792.2 142.5, 790.6 142.5 Q 789.0 142.5, 788.1 144.0 Q 787.3 145.5, 787.3 148.3 Q 787.3 151.2, 788.1 152.7 Q 789.0 154.2, 790.6 154.2 " fill="#FF0000"/>
<path class="atom-5" d="M 798.3 141.0 L 800.2 141.0 L 800.2 147.3 L 807.8 147.3 L 807.8 141.0 L 809.8 141.0 L 809.8 155.7 L 807.8 155.7 L 807.8 148.9 L 800.2 148.9 L 800.2 155.7 L 798.3 155.7 L 798.3 141.0 " fill="#FF0000"/>
<path class="atom-6" d="M 691.8 81.2 Q 691.8 77.6, 693.6 75.7 Q 695.3 73.7, 698.5 73.7 Q 701.6 73.7, 703.2 75.9 L 701.8 77.0 Q 700.6 75.4, 698.5 75.4 Q 696.3 75.4, 695.1 76.9 Q 694.0 78.4, 694.0 81.2 Q 694.0 84.1, 695.2 85.6 Q 696.4 87.1, 698.8 87.1 Q 700.4 87.1, 702.3 86.2 L 702.9 87.7 Q 702.1 88.2, 700.9 88.5 Q 699.8 88.8, 698.5 88.8 Q 695.3 88.8, 693.6 86.8 Q 691.8 84.9, 691.8 81.2 " fill="#000000"/>
<path class="atom-6" d="M 704.8 86.2 L 706.9 86.2 L 706.9 88.3 L 704.8 88.3 L 704.8 86.2 M 704.8 79.0 L 706.9 79.0 L 706.9 81.1 L 704.8 81.1 L 704.8 79.0 " fill="#000000"/>
<path class="atom-6" d="M 716.9 75.6 L 709.2 75.6 L 709.2 73.9 L 719.0 73.9 L 719.0 75.4 L 713.0 88.6 L 711.0 88.6 L 716.9 75.6 " fill="#000000"/>
<path class="atom-7" d="M 722.4 40.0 Q 722.4 36.5, 724.1 34.5 Q 725.9 32.5, 729.1 32.5 Q 732.4 32.5, 734.1 34.5 Q 735.9 36.5, 735.9 40.0 Q 735.9 43.6, 734.1 45.6 Q 732.3 47.6, 729.1 47.6 Q 725.9 47.6, 724.1 45.6 Q 722.4 43.6, 722.4 40.0 M 729.1 46.0 Q 731.4 46.0, 732.6 44.5 Q 733.8 43.0, 733.8 40.0 Q 733.8 37.1, 732.6 35.7 Q 731.4 34.2, 729.1 34.2 Q 726.9 34.2, 725.6 35.6 Q 724.4 37.1, 724.4 40.0 Q 724.4 43.0, 725.6 44.5 Q 726.9 46.0, 729.1 46.0 " fill="#FF0000"/>
<path class="atom-7" d="M 737.8 45.0 L 739.9 45.0 L 739.9 47.0 L 737.8 47.0 L 737.8 45.0 M 737.8 37.8 L 739.9 37.8 L 739.9 39.9 L 737.8 39.9 L 737.8 37.8 " fill="#FF0000"/>
<path class="atom-7" d="M 747.4 32.5 Q 750.0 32.5, 751.3 34.3 Q 752.6 36.1, 752.6 39.6 Q 752.6 43.5, 751.0 45.5 Q 749.3 47.6, 746.2 47.6 Q 745.3 47.6, 744.5 47.4 Q 743.7 47.1, 743.0 46.7 L 743.8 45.3 Q 744.9 45.9, 746.2 45.9 Q 748.3 45.9, 749.3 44.6 Q 750.4 43.2, 750.5 40.5 Q 749.8 41.1, 748.8 41.5 Q 747.9 41.9, 746.9 41.9 Q 745.6 41.9, 744.5 41.3 Q 743.5 40.7, 743.0 39.7 Q 742.4 38.7, 742.4 37.4 Q 742.4 36.0, 743.0 34.9 Q 743.7 33.8, 744.8 33.1 Q 745.9 32.5, 747.4 32.5 M 744.5 37.4 Q 744.5 38.7, 745.2 39.5 Q 745.9 40.2, 747.2 40.2 Q 748.1 40.2, 749.0 39.9 Q 749.9 39.5, 750.5 38.9 Q 750.4 36.4, 749.7 35.3 Q 748.9 34.2, 747.3 34.2 Q 746.5 34.2, 745.9 34.6 Q 745.2 35.1, 744.9 35.8 Q 744.5 36.5, 744.5 37.4 " fill="#FF0000"/>
<path class="atom-7" d="M 755.0 32.7 L 756.9 32.7 L 756.9 38.9 L 764.5 38.9 L 764.5 32.7 L 766.5 32.7 L 766.5 47.4 L 764.5 47.4 L 764.5 40.6 L 756.9 40.6 L 756.9 47.4 L 755.0 47.4 L 755.0 32.7 " fill="#FF0000"/>
<path class="atom-8" d="M 623.1 79.9 Q 623.1 76.2, 624.8 74.3 Q 626.6 72.4, 629.8 72.4 Q 632.8 72.4, 634.5 74.5 L 633.1 75.7 Q 631.9 74.1, 629.8 74.1 Q 627.6 74.1, 626.4 75.6 Q 625.2 77.1, 625.2 79.9 Q 625.2 82.8, 626.4 84.3 Q 627.7 85.8, 630.0 85.8 Q 631.7 85.8, 633.6 84.8 L 634.1 86.4 Q 633.4 86.9, 632.2 87.2 Q 631.0 87.5, 629.7 87.5 Q 626.6 87.5, 624.8 85.5 Q 623.1 83.5, 623.1 79.9 " fill="#000000"/>
<path class="atom-8" d="M 636.1 84.8 L 638.2 84.8 L 638.2 86.9 L 636.1 86.9 L 636.1 84.8 M 636.1 77.7 L 638.2 77.7 L 638.2 79.8 L 636.1 79.8 L 636.1 77.7 " fill="#000000"/>
<path class="atom-8" d="M 646.3 78.1 Q 647.5 78.1, 648.6 78.6 Q 649.6 79.2, 650.1 80.2 Q 650.7 81.2, 650.7 82.5 Q 650.7 84.0, 650.1 85.1 Q 649.4 86.2, 648.3 86.8 Q 647.2 87.4, 645.8 87.4 Q 643.1 87.4, 641.8 85.7 Q 640.5 83.9, 640.5 80.3 Q 640.5 76.4, 642.1 74.4 Q 643.8 72.4, 646.9 72.4 Q 647.8 72.4, 648.6 72.6 Q 649.4 72.8, 650.1 73.2 L 649.3 74.6 Q 648.2 74.1, 646.9 74.1 Q 644.8 74.1, 643.8 75.4 Q 642.7 76.7, 642.6 79.5 Q 643.4 78.8, 644.3 78.5 Q 645.2 78.1, 646.3 78.1 M 645.8 85.7 Q 646.6 85.7, 647.2 85.3 Q 647.9 84.9, 648.3 84.2 Q 648.6 83.4, 648.6 82.5 Q 648.6 81.2, 647.9 80.5 Q 647.2 79.7, 645.9 79.7 Q 645.0 79.7, 644.1 80.1 Q 643.2 80.5, 642.6 81.1 Q 642.7 83.5, 643.5 84.6 Q 644.2 85.7, 645.8 85.7 " fill="#000000"/>
<path class="atom-9" d="M 576.7 29.8 L 578.7 29.8 L 578.7 36.0 L 586.2 36.0 L 586.2 29.8 L 588.2 29.8 L 588.2 44.5 L 586.2 44.5 L 586.2 37.7 L 578.7 37.7 L 578.7 44.5 L 576.7 44.5 L 576.7 29.8 " fill="#FF0000"/>
<path class="atom-9" d="M 590.9 37.1 Q 590.9 33.5, 592.7 31.6 Q 594.4 29.6, 597.7 29.6 Q 600.9 29.6, 602.7 31.6 Q 604.4 33.5, 604.4 37.1 Q 604.4 40.7, 602.7 42.7 Q 600.9 44.7, 597.7 44.7 Q 594.4 44.7, 592.7 42.7 Q 590.9 40.7, 590.9 37.1 M 597.7 43.0 Q 599.9 43.0, 601.1 41.5 Q 602.4 40.0, 602.4 37.1 Q 602.4 34.2, 601.1 32.7 Q 599.9 31.3, 597.7 31.3 Q 595.4 31.3, 594.2 32.7 Q 593.0 34.2, 593.0 37.1 Q 593.0 40.1, 594.2 41.5 Q 595.4 43.0, 597.7 43.0 " fill="#FF0000"/>
<path class="atom-9" d="M 606.4 42.0 L 608.5 42.0 L 608.5 44.1 L 606.4 44.1 L 606.4 42.0 M 606.4 34.9 L 608.5 34.9 L 608.5 37.0 L 606.4 37.0 L 606.4 34.9 " fill="#FF0000"/>
<path class="atom-9" d="M 618.5 36.7 Q 619.8 37.3, 620.6 38.1 Q 621.4 39.0, 621.4 40.4 Q 621.4 41.7, 620.7 42.7 Q 620.1 43.6, 618.9 44.2 Q 617.8 44.7, 616.3 44.7 Q 613.8 44.7, 612.4 43.6 Q 611.0 42.4, 611.0 40.4 Q 611.0 39.2, 611.6 38.3 Q 612.2 37.4, 613.5 36.7 Q 612.6 36.2, 612.0 35.4 Q 611.5 34.6, 611.5 33.4 Q 611.5 31.6, 612.8 30.6 Q 614.0 29.6, 616.2 29.6 Q 618.3 29.6, 619.6 30.6 Q 620.8 31.6, 620.8 33.4 Q 620.8 34.4, 620.2 35.3 Q 619.6 36.0, 618.5 36.7 M 616.2 31.2 Q 615.0 31.2, 614.3 31.7 Q 613.6 32.3, 613.6 33.4 Q 613.6 34.1, 614.1 34.7 Q 614.5 35.1, 615.2 35.4 Q 615.8 35.7, 617.1 36.2 Q 618.0 35.5, 618.4 34.9 Q 618.8 34.2, 618.8 33.4 Q 618.8 32.3, 618.1 31.7 Q 617.4 31.2, 616.2 31.2 M 616.3 43.1 Q 617.6 43.1, 618.5 42.4 Q 619.3 41.7, 619.3 40.4 Q 619.3 39.6, 618.9 39.1 Q 618.4 38.6, 617.8 38.3 Q 617.1 38.1, 615.9 37.7 L 615.0 37.4 Q 614.0 38.0, 613.5 38.7 Q 613.1 39.5, 613.1 40.4 Q 613.1 41.7, 613.9 42.4 Q 614.8 43.1, 616.3 43.1 " fill="#FF0000"/>
<path d="M 405.0,100.0 L 483.0,100.0" style="fill:none;fill-rule:evenodd;stroke:#000000;stroke-width:2.0px;stroke-linecap:butt;stroke-linejoin:miter;stroke-opacity:1"/>
<path d="M 483.0,100.0 L 478.0,102.9" style="fill:none;fill-rule:evenodd;stroke:#000000;stroke-width:2.0px;stroke-linecap:butt;stroke-linejoin:miter;stroke-opacity:1"/>
<path d="M 483.0,100.0 L 478.0,97.1" style="fill:none;fill-rule:evenodd;stroke:#000000;stroke-width:2.0px;stroke-linecap:butt;stroke-linejoin:miter;stroke-opacity:1"/>
</svg>