<svg xmlns="http://www.w3.org/2000/svg" xmlns:rdkit="http://www.rdkit.org/xml" xmlns:xlink="http://www.w3.org/1999/xlink" version="1.1" baseProfile="full" xml:space="preserve" width="400px" height="200px" viewBox="0 0 400 200">
<!-- END OF HEADER -->
<rect style="opacity:1.0;fill:#FFFFFF;stroke:none" width="400.0" height="200.0" x="0.0" y="0.0"> </rect>
<path class="bond-0 atom-0 atom-1" d="M 100.9,105.9 L 84.9,167.4 L 72.5,164.2 L 86.7,109.8 Z" style="fill:#FF7F7F;fill-rule:evenodd;fill-opacity:1;stroke:#FF7F7F;stroke-width:0.0px;stroke-linecap:butt;stroke-linejoin:miter;stroke-opacity:1;"/>
<path class="bond-1 atom-1 atom-2" d="M 55.7,61.2 L 100.9,105.9 L 86.7,109.8 L 46.7,70.3 Z" style="fill:#FF7F7F;fill-rule:evenodd;fill-opacity:1;stroke:#FF7F7F;stroke-width:0.0px;stroke-linecap:butt;stroke-linejoin:miter;stroke-opacity:1;"/>
<ellipse cx="78.7" cy="165.9" rx="12.0" ry="12.3" class="atom-0" style="fill:#FF7F7F;fill-rule:evenodd;stroke:#FF7F7F;stroke-width:1.0px;stroke-linecap:butt;stroke-linejoin:miter;stroke-opacity:1"/>
<ellipse cx="93.8" cy="107.9" rx="12.0" ry="12.0" class="atom-1" style="fill:#FF7F7F;fill-rule:evenodd;stroke:#FF7F7F;stroke-width:1.0px;stroke-linecap:butt;stroke-linejoin:miter;stroke-opacity:1"/>
<ellipse cx="42.9" cy="65.9" rx="22.9" ry="12.3" class="atom-2" style="fill:#FF7F7F;fill-rule:evenodd;stroke:#FF7F7F;stroke-width:1.0px;stroke-linecap:butt;stroke-linejoin:miter;stroke-opacity:1"/>
<ellipse cx="194.2" cy="134.1" rx="12.0" ry="12.0" class="atom-5" style="fill:#FF7F7F;fill-rule:evenodd;stroke:#FF7F7F;stroke-width:1.0px;stroke-linecap:butt;stroke-linejoin:miter;stroke-opacity:1"/>
<path class="bond-0 atom-0 atom-1" d="M 77.1,154.1 L 90.1,104.2" style="fill:none;fill-rule:evenodd;stroke:#000000;stroke-width:2.0px;stroke-linecap:butt;stroke-linejoin:miter;stroke-opacity:1"/>
<path class="bond-0 atom-0 atom-1" d="M 85.8,156.4 L 98.8,106.5" style="fill:none;fill-rule:evenodd;stroke:#000000;stroke-width:2.0px;stroke-linecap:butt;stroke-linejoin:miter;stroke-opacity:1"/>
<path class="bond-1 atom-1 atom-2" d="M 93.8,107.9 L 61.0,75.4" style="fill:none;fill-rule:evenodd;stroke:#000000;stroke-width:2.0px;stroke-linecap:butt;stroke-linejoin:miter;stroke-opacity:1"/>
<path class="bond-2 atom-1 atom-3" d="M 93.8,107.9 L 151.6,92.0" style="fill:none;fill-rule:evenodd;stroke:#000000;stroke-width:2.0px;stroke-linecap:butt;stroke-linejoin:miter;stroke-opacity:1"/>
<path class="bond-3 atom-3 atom-4" d="M 155.3,95.6 L 161.8,70.8" style="fill:none;fill-rule:evenodd;stroke:#000000;stroke-width:2.0px;stroke-linecap:butt;stroke-linejoin:miter;stroke-opacity:1"/>
<path class="bond-3 atom-3 atom-4" d="M 161.8,70.8 L 168.2,46.0" style="fill:none;fill-rule:evenodd;stroke:#FF0000;stroke-width:2.0px;stroke-linecap:butt;stroke-linejoin:miter;stroke-opacity:1"/>
<path class="bond-3 atom-3 atom-4" d="M 146.6,93.4 L 153.1,68.6" style="fill:none;fill-rule:evenodd;stroke:#000000;stroke-width:2.0px;stroke-linecap:butt;stroke-linejoin:miter;stroke-opacity:1"/>
<path class="bond-3 atom-3 atom-4" d="M 153.1,68.6 L 159.6,43.7" style="fill:none;fill-rule:evenodd;stroke:#FF0000;stroke-width:2.0px;stroke-linecap:butt;stroke-linejoin:miter;stroke-opacity:1"/>
<path class="bond-4 atom-3 atom-5" d="M 151.6,92.0 L 194.2,134.1" style="fill:none;fill-rule:evenodd;stroke:#000000;stroke-width:2.0px;stroke-linecap:butt;stroke-linejoin:miter;stroke-opacity:1"/>
<path class="bond-5 atom-5 atom-6" d="M 194.2,134.1 L 251.9,118.2" style="fill:none;fill-rule:evenodd;stroke:#000000;stroke-width:2.0px;stroke-linecap:butt;stroke-linejoin:miter;stroke-opacity:1"/>
<path class="bond-6 atom-6 atom-7" d="M 251.9,118.2 L 267.1,60.3" style="fill:none;fill-rule:evenodd;stroke:#000000;stroke-width:2.0px;stroke-linecap:butt;stroke-linejoin:miter;stroke-opacity:1"/>
<path class="bond-6 atom-6 atom-7" d="M 261.9,115.5 L 274.5,67.6" style="fill:none;fill-rule:evenodd;stroke:#000000;stroke-width:2.0px;stroke-linecap:butt;stroke-linejoin:miter;stroke-opacity:1"/>
<path class="bond-7 atom-7 atom-8" d="M 267.1,60.3 L 324.8,44.4" style="fill:none;fill-rule:evenodd;stroke:#000000;stroke-width:2.0px;stroke-linecap:butt;stroke-linejoin:miter;stroke-opacity:1"/>
<path class="bond-8 atom-8 atom-9" d="M 324.8,44.4 L 367.4,86.5" style="fill:none;fill-rule:evenodd;stroke:#000000;stroke-width:2.0px;stroke-linecap:butt;stroke-linejoin:miter;stroke-opacity:1"/>
<path class="bond-8 atom-8 atom-9" d="M 322.2,54.5 L 357.4,89.3" style="fill:none;fill-rule:evenodd;stroke:#000000;stroke-width:2.0px;stroke-linecap:butt;stroke-linejoin:miter;stroke-opacity:1"/>
<path class="bond-9 atom-9 atom-10" d="M 367.4,86.5 L 352.3,144.5" style="fill:none;fill-rule:evenodd;stroke:#000000;stroke-width:2.0px;stroke-linecap:butt;stroke-linejoin:miter;stroke-opacity:1"/>
<path class="bond-10 atom-10 atom-11" d="M 352.3,144.5 L 294.5,160.3" style="fill:none;fill-rule:evenodd;stroke:#000000;stroke-width:2.0px;stroke-linecap:butt;stroke-linejoin:miter;stroke-opacity:1"/>
<path class="bond-10 atom-10 atom-11" d="M 344.9,137.2 L 297.2,150.3" style="fill:none;fill-rule:evenodd;stroke:#000000;stroke-width:2.0px;stroke-linecap:butt;stroke-linejoin:miter;stroke-opacity:1"/>
<path class="bond-11 atom-11 atom-6" d="M 294.5,160.3 L 251.9,118.2" style="fill:none;fill-rule:evenodd;stroke:#000000;stroke-width:2.0px;stroke-linecap:butt;stroke-linejoin:miter;stroke-opacity:1"/>
<path d="M 92.2,106.2 L 93.8,107.9 L 96.7,107.1" style="fill:none;stroke:#000000;stroke-width:2.0px;stroke-linecap:butt;stroke-linejoin:miter;stroke-opacity:1;"/>
<path d="M 148.7,92.8 L 151.6,92.0 L 153.7,94.1" style="fill:none;stroke:#000000;stroke-width:2.0px;stroke-linecap:butt;stroke-linejoin:miter;stroke-opacity:1;"/>
<path d="M 192.1,132.0 L 194.2,134.1 L 197.1,133.3" style="fill:none;stroke:#000000;stroke-width:2.0px;stroke-linecap:butt;stroke-linejoin:miter;stroke-opacity:1;"/>
<path d="M 266.3,63.2 L 267.1,60.3 L 270.0,59.5" style="fill:none;stroke:#000000;stroke-width:2.0px;stroke-linecap:butt;stroke-linejoin:miter;stroke-opacity:1;"/>
<path d="M 321.9,45.2 L 324.8,44.4 L 327.0,46.5" style="fill:none;stroke:#000000;stroke-width:2.0px;stroke-linecap:butt;stroke-linejoin:miter;stroke-opacity:1;"/>
<path d="M 365.3,84.4 L 367.4,86.5 L 366.7,89.4" style="fill:none;stroke:#000000;stroke-width:2.0px;stroke-linecap:butt;stroke-linejoin:miter;stroke-opacity:1;"/>
<path d="M 353.0,141.6 L 352.3,144.5 L 349.4,145.3" style="fill:none;stroke:#000000;stroke-width:2.0px;stroke-linecap:butt;stroke-linejoin:miter;stroke-opacity:1;"/>
<path d="M 297.4,159.5 L 294.5,160.3 L 292.4,158.2" style="fill:none;stroke:#000000;stroke-width:2.0px;stroke-linecap:butt;stroke-linejoin:miter;stroke-opacity:1;"/>
<path class="atom-0" d="M 70.9 165.8 Q 70.9 161.8, 72.9 159.5 Q 74.9 157.2, 78.7 157.2 Q 82.4 157.2, 84.5 159.5 Q 86.5 161.8, 86.5 165.8 Q 86.5 170.0, 84.4 172.3 Q 82.4 174.6, 78.7 174.6 Q 75.0 174.6, 72.9 172.3 Q 70.9 170.0, 70.9 165.8 M 78.7 172.7 Q 81.3 172.7, 82.7 171.0 Q 84.1 169.2, 84.1 165.8 Q 84.1 162.5, 82.7 160.8 Q 81.3 159.1, 78.7 159.1 Q 76.1 159.1, 74.7 160.8 Q 73.3 162.5, 73.3 165.8 Q 73.3 169.3, 74.7 171.0 Q 76.1 172.7, 78.7 172.7 " fill="#000000"/>
<path class="atom-2" d="M 26.7 57.4 L 29.0 57.4 L 29.0 64.6 L 37.7 64.6 L 37.7 57.4 L 40.0 57.4 L 40.0 74.3 L 37.7 74.3 L 37.7 66.5 L 29.0 66.5 L 29.0 74.3 L 26.7 74.3 L 26.7 57.4 " fill="#000000"/>
<path class="atom-2" d="M 43.4 65.8 Q 43.4 61.7, 45.5 59.5 Q 47.5 57.2, 51.2 57.2 Q 55.0 57.2, 57.0 59.5 Q 59.0 61.7, 59.0 65.8 Q 59.0 69.9, 57.0 72.3 Q 54.9 74.6, 51.2 74.6 Q 47.5 74.6, 45.5 72.3 Q 43.4 70.0, 43.4 65.8 M 51.2 72.7 Q 53.8 72.7, 55.2 71.0 Q 56.6 69.2, 56.6 65.8 Q 56.6 62.5, 55.2 60.8 Q 53.8 59.1, 51.2 59.1 Q 48.6 59.1, 47.2 60.8 Q 45.8 62.5, 45.8 65.8 Q 45.8 69.2, 47.2 71.0 Q 48.6 72.7, 51.2 72.7 " fill="#000000"/>
<path class="atom-4" d="M 158.9 34.1 Q 158.9 30.0, 161.0 27.8 Q 163.0 25.5, 166.7 25.5 Q 170.5 25.5, 172.5 27.8 Q 174.5 30.0, 174.5 34.1 Q 174.5 38.2, 172.5 40.6 Q 170.4 42.9, 166.7 42.9 Q 163.0 42.9, 161.0 40.6 Q 158.9 38.3, 158.9 34.1 M 166.7 41.0 Q 169.3 41.0, 170.7 39.3 Q 172.1 37.5, 172.1 34.1 Q 172.1 30.8, 170.7 29.1 Q 169.3 27.4, 166.7 27.4 Q 164.1 27.4, 162.7 29.1 Q 161.3 30.8, 161.3 34.1 Q 161.3 37.5, 162.7 39.3 Q 164.1 41.0, 166.7 41.0 " fill="#FF0000"/>
<path class="note" d="M 73.6 189.5 Q 72.1 189.5, 71.3 188.3 Q 70.5 187.2, 70.5 185.1 Q 70.5 183.1, 71.3 182.0 Q 72.1 180.8, 73.6 180.8 Q 75.2 180.8, 76.0 182.0 Q 76.7 183.1, 76.7 185.1 Q 76.7 187.2, 76.0 188.3 Q 75.2 189.5, 73.6 189.5 M 73.6 188.5 Q 74.6 188.5, 75.1 187.7 Q 75.5 186.8, 75.5 185.1 Q 75.5 183.5, 75.1 182.6 Q 74.6 181.8, 73.6 181.8 Q 72.7 181.8, 72.2 182.6 Q 71.7 183.5, 71.7 185.1 Q 71.7 186.8, 72.2 187.7 Q 72.7 188.5, 73.6 188.5 " fill="#000000"/>
<path class="note" d="M 94.3 101.5 L 96.1 101.5 L 96.1 95.2 L 94.1 95.8 L 93.8 95.1 L 96.4 93.9 L 97.2 94.1 L 97.2 101.5 L 98.9 101.5 L 98.9 102.5 L 94.3 102.5 L 94.3 101.5 " fill="#000000"/>
<path class="note" d="M 43.1 43.9 Q 43.4 43.1, 44.2 42.7 Q 44.9 42.2, 45.9 42.2 Q 47.2 42.2, 47.9 42.9 Q 48.7 43.6, 48.7 44.9 Q 48.7 46.1, 47.7 47.3 Q 46.8 48.5, 44.9 49.9 L 48.8 49.9 L 48.8 50.8 L 43.1 50.8 L 43.1 50.0 Q 44.7 48.9, 45.6 48.0 Q 46.5 47.2, 47.0 46.4 Q 47.5 45.7, 47.5 44.9 Q 47.5 44.1, 47.1 43.6 Q 46.6 43.2, 45.9 43.2 Q 45.3 43.2, 44.8 43.5 Q 44.3 43.7, 44.0 44.4 L 43.1 43.9 " fill="#000000"/>
<path class="note" d="M 150.3 101.5 Q 151.1 101.7, 151.5 102.3 Q 151.9 102.8, 151.9 103.6 Q 151.9 104.3, 151.5 104.9 Q 151.2 105.5, 150.5 105.8 Q 149.9 106.1, 149.0 106.1 Q 148.1 106.1, 147.4 105.8 Q 146.7 105.4, 146.2 104.8 L 146.9 104.1 Q 147.4 104.7, 147.9 104.9 Q 148.3 105.1, 149.0 105.1 Q 149.8 105.1, 150.2 104.7 Q 150.7 104.3, 150.7 103.6 Q 150.7 102.7, 150.2 102.4 Q 149.7 102.0, 148.7 102.0 L 148.1 102.0 L 148.1 101.1 L 148.6 101.1 Q 149.5 101.1, 150.0 100.7 Q 150.5 100.3, 150.5 99.5 Q 150.5 99.0, 150.1 98.7 Q 149.7 98.3, 149.0 98.3 Q 148.3 98.3, 147.9 98.6 Q 147.4 98.8, 147.1 99.5 L 146.3 99.0 Q 146.6 98.3, 147.3 97.8 Q 148.0 97.4, 149.0 97.4 Q 150.3 97.4, 151.0 98.0 Q 151.7 98.5, 151.7 99.5 Q 151.7 100.2, 151.4 100.7 Q 151.0 101.2, 150.3 101.5 " fill="#000000"/>
<path class="note" d="M 174.0 16.1 L 175.0 16.1 L 175.0 17.0 L 174.0 17.0 L 174.0 19.0 L 172.9 19.0 L 172.9 17.0 L 168.5 17.0 L 168.5 16.3 L 172.2 10.5 L 174.0 10.5 L 174.0 16.1 M 169.9 16.1 L 172.9 16.1 L 172.9 11.3 L 169.9 16.1 " fill="#000000"/>
<path class="note" d="M 191.9 142.7 Q 192.6 142.7, 193.2 143.0 Q 193.8 143.3, 194.2 143.9 Q 194.5 144.5, 194.5 145.3 Q 194.5 146.2, 194.1 146.8 Q 193.7 147.4, 193.0 147.8 Q 192.3 148.1, 191.5 148.1 Q 190.7 148.1, 190.0 147.8 Q 189.3 147.5, 188.8 147.0 L 189.5 146.2 Q 189.9 146.6, 190.4 146.9 Q 191.0 147.1, 191.5 147.1 Q 192.3 147.1, 192.8 146.6 Q 193.3 146.2, 193.3 145.3 Q 193.3 144.4, 192.8 144.0 Q 192.3 143.6, 191.5 143.6 Q 190.7 143.6, 189.9 143.9 L 189.2 143.6 L 189.6 139.5 L 194.0 139.5 L 193.9 140.5 L 190.6 140.5 L 190.4 143.0 Q 191.1 142.7, 191.9 142.7 " fill="#000000"/>
<path class="note" d="M 245.2 110.2 Q 246.0 110.2, 246.5 110.5 Q 247.1 110.9, 247.5 111.4 Q 247.8 112.0, 247.8 112.8 Q 247.8 113.6, 247.4 114.2 Q 247.0 114.9, 246.4 115.2 Q 245.8 115.6, 244.9 115.6 Q 243.4 115.6, 242.6 114.6 Q 241.9 113.6, 241.9 111.5 Q 241.9 109.3, 242.8 108.1 Q 243.8 106.9, 245.6 106.9 Q 246.1 106.9, 246.6 107.0 Q 247.0 107.2, 247.4 107.4 L 247.0 108.2 Q 246.4 107.9, 245.6 107.9 Q 244.4 107.9, 243.8 108.7 Q 243.2 109.4, 243.1 111.0 Q 243.5 110.6, 244.1 110.4 Q 244.6 110.2, 245.2 110.2 M 244.9 114.6 Q 245.4 114.6, 245.8 114.4 Q 246.1 114.1, 246.4 113.7 Q 246.6 113.3, 246.6 112.8 Q 246.6 112.0, 246.2 111.6 Q 245.7 111.2, 245.0 111.2 Q 244.5 111.2, 244.0 111.4 Q 243.5 111.6, 243.1 111.9 Q 243.2 113.3, 243.6 114.0 Q 244.0 114.6, 244.9 114.6 " fill="#000000"/>
<path class="note" d="M 261.6 50.0 L 257.2 50.0 L 257.2 49.0 L 262.8 49.0 L 262.8 49.9 L 259.4 57.5 L 258.2 57.5 L 261.6 50.0 " fill="#000000"/>
<path class="note" d="M 328.7 34.6 Q 329.5 34.9, 329.9 35.4 Q 330.3 35.9, 330.3 36.7 Q 330.3 37.5, 330.0 38.0 Q 329.6 38.6, 328.9 38.9 Q 328.3 39.2, 327.4 39.2 Q 326.0 39.2, 325.2 38.5 Q 324.4 37.9, 324.4 36.7 Q 324.4 36.0, 324.7 35.5 Q 325.1 35.0, 325.8 34.6 Q 325.3 34.3, 325.0 33.8 Q 324.7 33.4, 324.7 32.7 Q 324.7 31.7, 325.4 31.1 Q 326.1 30.5, 327.4 30.5 Q 328.6 30.5, 329.3 31.1 Q 330.0 31.7, 330.0 32.7 Q 330.0 33.3, 329.7 33.8 Q 329.4 34.2, 328.7 34.6 M 327.4 31.4 Q 326.6 31.4, 326.3 31.7 Q 325.9 32.1, 325.9 32.7 Q 325.9 33.1, 326.1 33.4 Q 326.4 33.7, 326.8 33.9 Q 327.2 34.0, 327.9 34.3 Q 328.4 33.9, 328.6 33.5 Q 328.8 33.2, 328.8 32.7 Q 328.8 32.1, 328.4 31.7 Q 328.1 31.4, 327.4 31.4 M 327.4 38.3 Q 328.2 38.3, 328.7 37.9 Q 329.2 37.4, 329.2 36.7 Q 329.2 36.3, 328.9 36.0 Q 328.6 35.7, 328.3 35.5 Q 327.9 35.4, 327.2 35.2 L 326.7 35.0 Q 326.1 35.3, 325.8 35.8 Q 325.6 36.2, 325.6 36.7 Q 325.6 37.4, 326.1 37.9 Q 326.6 38.3, 327.4 38.3 " fill="#000000"/>
<path class="note" d="M 377.0 79.6 Q 378.5 79.6, 379.2 80.6 Q 380.0 81.6, 380.0 83.7 Q 380.0 85.9, 379.1 87.1 Q 378.1 88.3, 376.3 88.3 Q 375.8 88.3, 375.3 88.1 Q 374.9 88.0, 374.5 87.8 L 374.9 87.0 Q 375.5 87.3, 376.3 87.3 Q 377.5 87.3, 378.1 86.5 Q 378.7 85.8, 378.8 84.2 Q 378.4 84.6, 377.8 84.8 Q 377.3 85.0, 376.7 85.0 Q 375.9 85.0, 375.4 84.7 Q 374.8 84.3, 374.4 83.7 Q 374.1 83.2, 374.1 82.4 Q 374.1 81.6, 374.5 81.0 Q 374.8 80.3, 375.5 80.0 Q 376.1 79.6, 377.0 79.6 M 375.3 82.4 Q 375.3 83.2, 375.7 83.6 Q 376.2 84.0, 376.9 84.0 Q 377.4 84.0, 377.9 83.8 Q 378.4 83.6, 378.8 83.2 Q 378.7 81.8, 378.3 81.2 Q 377.9 80.6, 377.0 80.6 Q 376.5 80.6, 376.1 80.8 Q 375.7 81.1, 375.5 81.5 Q 375.3 81.9, 375.3 82.4 " fill="#000000"/>
<path class="note" d="M 353.7 154.8 L 355.5 154.8 L 355.5 148.5 L 353.5 149.1 L 353.2 148.4 L 355.8 147.2 L 356.6 147.4 L 356.6 154.8 L 358.3 154.8 L 358.3 155.8 L 353.7 155.8 L 353.7 154.8 " fill="#000000"/>
<path class="note" d="M 362.5 155.9 Q 360.9 155.9, 360.1 154.7 Q 359.4 153.6, 359.4 151.5 Q 359.4 149.5, 360.1 148.3 Q 360.9 147.2, 362.5 147.2 Q 364.1 147.2, 364.8 148.3 Q 365.6 149.5, 365.6 151.5 Q 365.6 153.6, 364.8 154.7 Q 364.0 155.9, 362.5 155.9 M 362.5 154.9 Q 363.4 154.9, 363.9 154.1 Q 364.4 153.2, 364.4 151.5 Q 364.4 149.8, 363.9 149.0 Q 363.4 148.1, 362.5 148.1 Q 361.6 148.1, 361.1 149.0 Q 360.6 149.8, 360.6 151.5 Q 360.6 153.2, 361.1 154.1 Q 361.6 154.9, 362.5 154.9 " fill="#000000"/>
<path class="note" d="M 286.9 173.3 L 288.7 173.3 L 288.7 166.9 L 286.7 167.6 L 286.4 166.9 L 289.0 165.7 L 289.8 165.9 L 289.8 173.3 L 291.5 173.3 L 291.5 174.2 L 286.9 174.2 L 286.9 173.3 " fill="#000000"/>
<path class="note" d="M 293.0 173.3 L 294.8 173.3 L 294.8 166.9 L 292.8 167.6 L 292.5 166.9 L 295.1 165.7 L 296.0 165.9 L 296.0 173.3 L 297.6 173.3 L 297.6 174.2 L 293.0 174.2 L 293.0 173.3 " fill="#000000"/>
</svg>