<svg xmlns="http://www.w3.org/2000/svg" xmlns:rdkit="http://www.rdkit.org/xml" xmlns:xlink="http://www.w3.org/1999/xlink" version="1.1" baseProfile="full" xml:space="preserve" width="900px" height="200px" viewBox="0 0 900 200">
<!-- END OF HEADER -->
<rect style="opacity:1.0;fill:#FFFFFF;stroke:none" width="900.0" height="200.0" x="0.0" y="0.0"> </rect>
<path class="bond-0 atom-0 atom-1" d="M 227.7,74.8 L 235.8,78.7" style="fill:none;fill-rule:evenodd;stroke:#FF0000;stroke-width:2.0px;stroke-linecap:butt;stroke-linejoin:miter;stroke-opacity:1"/>
<path class="bond-0 atom-0 atom-1" d="M 235.8,78.7 L 244.0,82.6" style="fill:none;fill-rule:evenodd;stroke:#FF7F00;stroke-width:2.0px;stroke-linecap:butt;stroke-linejoin:miter;stroke-opacity:1"/>
<path class="bond-1 atom-1 atom-2" d="M 266.2,82.0 L 272.9,67.9" style="fill:none;fill-rule:evenodd;stroke:#FF7F00;stroke-width:2.0px;stroke-linecap:butt;stroke-linejoin:miter;stroke-opacity:1"/>
<path class="bond-1 atom-1 atom-2" d="M 272.9,67.9 L 279.6,53.8" style="fill:none;fill-rule:evenodd;stroke:#FF0000;stroke-width:2.0px;stroke-linecap:butt;stroke-linejoin:miter;stroke-opacity:1"/>
<path class="bond-1 atom-1 atom-2" d="M 259.2,78.7 L 265.9,64.6" style="fill:none;fill-rule:evenodd;stroke:#FF7F00;stroke-width:2.0px;stroke-linecap:butt;stroke-linejoin:miter;stroke-opacity:1"/>
<path class="bond-1 atom-1 atom-2" d="M 265.9,64.6 L 272.6,50.5" style="fill:none;fill-rule:evenodd;stroke:#FF0000;stroke-width:2.0px;stroke-linecap:butt;stroke-linejoin:miter;stroke-opacity:1"/>
<path class="bond-2 atom-1 atom-3" d="M 254.0,98.5 L 247.2,112.7" style="fill:none;fill-rule:evenodd;stroke:#FF7F00;stroke-width:2.0px;stroke-linecap:butt;stroke-linejoin:miter;stroke-opacity:1"/>
<path class="bond-2 atom-1 atom-3" d="M 247.2,112.7 L 240.4,126.9" style="fill:none;fill-rule:evenodd;stroke:#FF0000;stroke-width:2.0px;stroke-linecap:butt;stroke-linejoin:miter;stroke-opacity:1"/>
<path class="bond-3 atom-1 atom-4" d="M 272.6,96.3 L 284.6,102.0" style="fill:none;fill-rule:evenodd;stroke:#FF7F00;stroke-width:2.0px;stroke-linecap:butt;stroke-linejoin:miter;stroke-opacity:1"/>
<path class="bond-3 atom-1 atom-4" d="M 284.6,102.0 L 296.5,107.7" style="fill:none;fill-rule:evenodd;stroke:#FF0000;stroke-width:2.0px;stroke-linecap:butt;stroke-linejoin:miter;stroke-opacity:1"/>
<path class="bond-4 atom-0 atom-5" d="M 198.1,76.5 L 190.1,82.0" style="fill:none;fill-rule:evenodd;stroke:#FF0000;stroke-width:2.0px;stroke-linecap:butt;stroke-linejoin:miter;stroke-opacity:1"/>
<path class="bond-4 atom-0 atom-5" d="M 190.1,82.0 L 182.1,87.5" style="fill:none;fill-rule:evenodd;stroke:#000000;stroke-width:2.0px;stroke-linecap:butt;stroke-linejoin:miter;stroke-opacity:1"/>
<path class="bond-5 atom-5 atom-6" d="M 153.8,89.1 L 129.8,77.6" style="fill:none;fill-rule:evenodd;stroke:#000000;stroke-width:2.0px;stroke-linecap:butt;stroke-linejoin:miter;stroke-opacity:1"/>
<path class="bond-6 atom-6 atom-7" d="M 121.8,65.2 L 120.5,48.6" style="fill:none;fill-rule:evenodd;stroke:#000000;stroke-width:2.0px;stroke-linecap:butt;stroke-linejoin:miter;stroke-opacity:1"/>
<path class="bond-6 atom-6 atom-7" d="M 120.5,48.6 L 119.2,32.0" style="fill:none;fill-rule:evenodd;stroke:#FF0000;stroke-width:2.0px;stroke-linecap:butt;stroke-linejoin:miter;stroke-opacity:1"/>
<path class="bond-7 atom-5 atom-8" d="M 170.0,108.0 L 172.6,141.2" style="fill:none;fill-rule:evenodd;stroke:#000000;stroke-width:2.0px;stroke-linecap:butt;stroke-linejoin:miter;stroke-opacity:1"/>
<path class="bond-8 atom-8 atom-9" d="M 186.9,158.8 L 198.3,164.2" style="fill:none;fill-rule:evenodd;stroke:#000000;stroke-width:2.0px;stroke-linecap:butt;stroke-linejoin:miter;stroke-opacity:1"/>
<path class="bond-8 atom-8 atom-9" d="M 198.3,164.2 L 209.7,169.6" style="fill:none;fill-rule:evenodd;stroke:#FF0000;stroke-width:2.0px;stroke-linecap:butt;stroke-linejoin:miter;stroke-opacity:1"/>
<path class="bond-8 atom-8 atom-9" d="M 190.2,151.8 L 201.6,157.2" style="fill:none;fill-rule:evenodd;stroke:#000000;stroke-width:2.0px;stroke-linecap:butt;stroke-linejoin:miter;stroke-opacity:1"/>
<path class="bond-8 atom-8 atom-9" d="M 201.6,157.2 L 213.0,162.7" style="fill:none;fill-rule:evenodd;stroke:#FF0000;stroke-width:2.0px;stroke-linecap:butt;stroke-linejoin:miter;stroke-opacity:1"/>
<path class="bond-9 atom-8 atom-10" d="M 159.6,157.2 L 148.5,164.8" style="fill:none;fill-rule:evenodd;stroke:#000000;stroke-width:2.0px;stroke-linecap:butt;stroke-linejoin:miter;stroke-opacity:1"/>
<path class="bond-9 atom-8 atom-10" d="M 148.5,164.8 L 137.4,172.4" style="fill:none;fill-rule:evenodd;stroke:#FF0000;stroke-width:2.0px;stroke-linecap:butt;stroke-linejoin:miter;stroke-opacity:1"/>
<path class="atom-0" d="M 197.4 67.2 Q 197.4 63.7, 199.2 61.7 Q 200.9 59.8, 204.1 59.8 Q 207.4 59.8, 209.1 61.7 Q 210.9 63.7, 210.9 67.2 Q 210.9 70.8, 209.1 72.8 Q 207.4 74.8, 204.1 74.8 Q 200.9 74.8, 199.2 72.8 Q 197.4 70.8, 197.4 67.2 M 204.1 73.1 Q 206.4 73.1, 207.6 71.6 Q 208.8 70.1, 208.8 67.2 Q 208.8 64.3, 207.6 62.9 Q 206.4 61.4, 204.1 61.4 Q 201.9 61.4, 200.7 62.9 Q 199.5 64.3, 199.5 67.2 Q 199.5 70.2, 200.7 71.6 Q 201.9 73.1, 204.1 73.1 " fill="#FF0000"/>
<path class="atom-0" d="M 212.7 72.1 L 214.8 72.1 L 214.8 74.2 L 212.7 74.2 L 212.7 72.1 M 212.7 65.0 L 214.8 65.0 L 214.8 67.1 L 212.7 67.1 L 212.7 65.0 " fill="#FF0000"/>
<path class="atom-0" d="M 217.9 72.9 L 221.1 72.9 L 221.1 62.0 L 217.6 63.1 L 217.1 61.9 L 221.6 59.8 L 223.1 60.1 L 223.1 72.9 L 226.0 72.9 L 226.0 74.6 L 217.9 74.6 L 217.9 72.9 " fill="#FF0000"/>
<path class="atom-1" d="M 250.0 82.2 Q 252.5 82.2, 253.8 83.3 Q 255.1 84.4, 255.1 86.5 Q 255.1 88.5, 253.8 89.7 Q 252.5 90.8, 250.0 90.8 L 247.7 90.8 L 247.7 96.8 L 245.7 96.8 L 245.7 82.2 L 250.0 82.2 M 250.0 89.2 Q 251.5 89.2, 252.2 88.5 Q 253.0 87.8, 253.0 86.5 Q 253.0 85.2, 252.2 84.5 Q 251.5 83.8, 250.0 83.8 L 247.7 83.8 L 247.7 89.2 L 250.0 89.2 " fill="#FF7F00"/>
<path class="atom-1" d="M 256.7 94.4 L 258.8 94.4 L 258.8 96.5 L 256.7 96.5 L 256.7 94.4 M 256.7 87.3 L 258.8 87.3 L 258.8 89.4 L 256.7 89.4 L 256.7 87.3 " fill="#FF7F00"/>
<path class="atom-1" d="M 268.1 89.1 Q 269.5 89.5, 270.2 90.5 Q 270.9 91.4, 270.9 92.8 Q 270.9 94.1, 270.3 95.0 Q 269.7 96.0, 268.5 96.5 Q 267.4 97.0, 265.9 97.0 Q 264.3 97.0, 263.2 96.5 Q 262.0 95.9, 261.1 94.8 L 262.2 93.6 Q 263.2 94.6, 263.9 95.0 Q 264.7 95.4, 265.9 95.4 Q 267.2 95.4, 268.0 94.7 Q 268.8 94.0, 268.8 92.8 Q 268.8 91.3, 268.0 90.6 Q 267.2 90.0, 265.4 90.0 L 264.3 90.0 L 264.3 88.5 L 265.2 88.5 Q 266.8 88.5, 267.7 87.8 Q 268.5 87.1, 268.5 85.8 Q 268.5 84.8, 267.8 84.3 Q 267.1 83.7, 265.9 83.7 Q 264.7 83.7, 263.9 84.1 Q 263.2 84.5, 262.6 85.6 L 261.2 84.9 Q 261.7 83.7, 262.9 82.9 Q 264.2 82.0, 265.9 82.0 Q 268.1 82.0, 269.3 83.0 Q 270.6 84.1, 270.6 85.8 Q 270.6 86.9, 270.0 87.8 Q 269.3 88.6, 268.1 89.1 " fill="#FF7F00"/>
<path class="atom-2" d="M 273.9 42.8 Q 273.9 39.3, 275.6 37.4 Q 277.3 35.4, 280.6 35.4 Q 283.8 35.4, 285.6 37.4 Q 287.3 39.3, 287.3 42.8 Q 287.3 46.4, 285.5 48.4 Q 283.8 50.4, 280.6 50.4 Q 277.4 50.4, 275.6 48.4 Q 273.9 46.4, 273.9 42.8 M 280.6 48.8 Q 282.8 48.8, 284.0 47.3 Q 285.2 45.8, 285.2 42.8 Q 285.2 40.0, 284.0 38.5 Q 282.8 37.1, 280.6 37.1 Q 278.3 37.1, 277.1 38.5 Q 275.9 40.0, 275.9 42.8 Q 275.9 45.8, 277.1 47.3 Q 278.3 48.8, 280.6 48.8 " fill="#FF0000"/>
<path class="atom-2" d="M 289.2 47.8 L 291.2 47.8 L 291.2 49.9 L 289.2 49.9 L 289.2 47.8 M 289.2 40.7 L 291.2 40.7 L 291.2 42.7 L 289.2 42.7 L 289.2 40.7 " fill="#FF0000"/>
<path class="atom-2" d="M 298.6 35.4 Q 301.2 35.4, 302.5 37.2 Q 303.8 38.9, 303.8 42.5 Q 303.8 46.3, 302.2 48.4 Q 300.6 50.4, 297.4 50.4 Q 296.5 50.4, 295.7 50.2 Q 295.0 50.0, 294.2 49.5 L 295.0 48.1 Q 296.1 48.7, 297.4 48.7 Q 299.5 48.7, 300.5 47.4 Q 301.6 46.1, 301.7 43.3 Q 301.0 44.0, 300.0 44.4 Q 299.1 44.7, 298.1 44.7 Q 296.8 44.7, 295.8 44.2 Q 294.8 43.6, 294.2 42.6 Q 293.7 41.6, 293.7 40.3 Q 293.7 38.9, 294.3 37.8 Q 294.9 36.7, 296.0 36.0 Q 297.1 35.4, 298.6 35.4 M 295.7 40.3 Q 295.7 41.6, 296.4 42.3 Q 297.2 43.1, 298.4 43.1 Q 299.3 43.1, 300.2 42.7 Q 301.1 42.3, 301.7 41.7 Q 301.6 39.3, 300.9 38.2 Q 300.1 37.1, 298.5 37.1 Q 297.8 37.1, 297.1 37.5 Q 296.5 37.9, 296.1 38.7 Q 295.7 39.4, 295.7 40.3 " fill="#FF0000"/>
<path class="atom-3" d="M 229.3 136.1 Q 229.3 132.6, 231.1 130.6 Q 232.8 128.6, 236.1 128.6 Q 239.3 128.6, 241.0 130.6 Q 242.8 132.6, 242.8 136.1 Q 242.8 139.6, 241.0 141.7 Q 239.3 143.7, 236.1 143.7 Q 232.8 143.7, 231.1 141.7 Q 229.3 139.7, 229.3 136.1 M 236.1 142.0 Q 238.3 142.0, 239.5 140.5 Q 240.7 139.0, 240.7 136.1 Q 240.7 133.2, 239.5 131.8 Q 238.3 130.3, 236.1 130.3 Q 233.8 130.3, 232.6 131.7 Q 231.4 133.2, 231.4 136.1 Q 231.4 139.0, 232.6 140.5 Q 233.8 142.0, 236.1 142.0 " fill="#FF0000"/>
<path class="atom-3" d="M 244.7 141.0 L 246.8 141.0 L 246.8 143.1 L 244.7 143.1 L 244.7 141.0 M 244.7 133.9 L 246.8 133.9 L 246.8 136.0 L 244.7 136.0 L 244.7 133.9 " fill="#FF0000"/>
<path class="atom-3" d="M 250.1 141.8 L 253.3 141.8 L 253.3 130.9 L 249.8 132.0 L 249.3 130.7 L 253.8 128.7 L 255.2 129.0 L 255.2 141.8 L 258.1 141.8 L 258.1 143.4 L 250.1 143.4 L 250.1 141.8 " fill="#FF0000"/>
<path class="atom-3" d="M 265.3 143.6 Q 262.6 143.6, 261.2 141.6 Q 259.9 139.6, 259.9 136.1 Q 259.9 132.6, 261.2 130.6 Q 262.5 128.6, 265.3 128.6 Q 268.0 128.6, 269.3 130.6 Q 270.6 132.6, 270.6 136.1 Q 270.6 139.6, 269.3 141.6 Q 267.9 143.6, 265.3 143.6 M 265.3 142.0 Q 266.8 142.0, 267.7 140.5 Q 268.5 139.0, 268.5 136.1 Q 268.5 133.2, 267.7 131.8 Q 266.8 130.3, 265.3 130.3 Q 263.7 130.3, 262.8 131.8 Q 262.0 133.2, 262.0 136.1 Q 262.0 139.0, 262.8 140.5 Q 263.7 142.0, 265.3 142.0 " fill="#FF0000"/>
<path class="atom-3" d="M 272.9 128.8 L 274.9 128.8 L 274.9 135.0 L 282.3 135.0 L 282.3 128.8 L 284.3 128.8 L 284.3 143.4 L 282.3 143.4 L 282.3 136.7 L 274.9 136.7 L 274.9 143.4 L 272.9 143.4 L 272.9 128.8 " fill="#FF0000"/>
<path class="atom-4" d="M 298.2 111.7 Q 298.2 108.2, 300.0 106.3 Q 301.7 104.3, 304.9 104.3 Q 308.2 104.3, 309.9 106.3 Q 311.6 108.2, 311.6 111.7 Q 311.6 115.3, 309.9 117.3 Q 308.1 119.3, 304.9 119.3 Q 301.7 119.3, 300.0 117.3 Q 298.2 115.3, 298.2 111.7 M 304.9 117.7 Q 307.2 117.7, 308.4 116.2 Q 309.6 114.7, 309.6 111.7 Q 309.6 108.9, 308.4 107.4 Q 307.2 105.9, 304.9 105.9 Q 302.7 105.9, 301.5 107.4 Q 300.3 108.8, 300.3 111.7 Q 300.3 114.7, 301.5 116.2 Q 302.7 117.7, 304.9 117.7 " fill="#FF0000"/>
<path class="atom-4" d="M 313.6 116.7 L 315.6 116.7 L 315.6 118.7 L 313.6 118.7 L 313.6 116.7 M 313.6 109.6 L 315.6 109.6 L 315.6 111.6 L 313.6 111.6 L 313.6 109.6 " fill="#FF0000"/>
<path class="atom-4" d="M 318.9 117.4 L 322.1 117.4 L 322.1 106.5 L 318.6 107.6 L 318.1 106.4 L 322.6 104.4 L 324.0 104.6 L 324.0 117.4 L 326.9 117.4 L 326.9 119.1 L 318.9 119.1 L 318.9 117.4 " fill="#FF0000"/>
<path class="atom-4" d="M 329.5 117.4 L 332.7 117.4 L 332.7 106.5 L 329.1 107.6 L 328.7 106.4 L 333.1 104.4 L 334.6 104.6 L 334.6 117.4 L 337.5 117.4 L 337.5 119.1 L 329.5 119.1 L 329.5 117.4 " fill="#FF0000"/>
<path class="atom-4" d="M 339.2 104.5 L 341.2 104.5 L 341.2 110.7 L 348.7 110.7 L 348.7 104.5 L 350.7 104.5 L 350.7 119.1 L 348.7 119.1 L 348.7 112.3 L 341.2 112.3 L 341.2 119.1 L 339.2 119.1 L 339.2 104.5 " fill="#FF0000"/>
<path class="atom-5" d="M 155.5 96.5 Q 155.5 92.8, 157.2 90.9 Q 158.9 89.0, 162.2 89.0 Q 165.2 89.0, 166.8 91.1 L 165.4 92.3 Q 164.3 90.7, 162.2 90.7 Q 160.0 90.7, 158.8 92.2 Q 157.6 93.7, 157.6 96.5 Q 157.6 99.4, 158.8 100.8 Q 160.0 102.3, 162.4 102.3 Q 164.0 102.3, 165.9 101.4 L 166.5 102.9 Q 165.7 103.4, 164.6 103.7 Q 163.4 104.0, 162.1 104.0 Q 158.9 104.0, 157.2 102.0 Q 155.5 100.1, 155.5 96.5 " fill="#000000"/>
<path class="atom-5" d="M 168.4 101.4 L 170.5 101.4 L 170.5 103.5 L 168.4 103.5 L 168.4 101.4 M 168.4 94.3 L 170.5 94.3 L 170.5 96.3 L 168.4 96.3 L 168.4 94.3 " fill="#000000"/>
<path class="atom-5" d="M 178.1 94.7 Q 179.4 94.7, 180.4 95.2 Q 181.5 95.7, 182.1 96.8 Q 182.7 97.8, 182.7 99.2 Q 182.7 100.7, 182.0 101.8 Q 181.2 102.9, 180.0 103.4 Q 178.8 104.0, 177.5 104.0 Q 176.1 104.0, 174.9 103.5 Q 173.6 103.0, 172.8 102.0 L 174.0 100.7 Q 174.7 101.5, 175.6 101.9 Q 176.6 102.3, 177.5 102.3 Q 178.8 102.3, 179.7 101.5 Q 180.6 100.7, 180.6 99.2 Q 180.6 97.7, 179.7 96.9 Q 178.8 96.2, 177.4 96.2 Q 176.1 96.2, 174.7 96.8 L 173.6 96.2 L 174.3 89.2 L 181.8 89.2 L 181.6 90.8 L 176.0 90.8 L 175.5 95.2 Q 176.8 94.7, 178.1 94.7 " fill="#000000"/>
<path class="atom-6" d="M 99.5 74.2 Q 99.5 70.6, 101.2 68.7 Q 102.9 66.7, 106.1 66.7 Q 109.2 66.7, 110.8 68.9 L 109.4 70.0 Q 108.2 68.4, 106.1 68.4 Q 103.9 68.4, 102.8 69.9 Q 101.6 71.4, 101.6 74.2 Q 101.6 77.1, 102.8 78.6 Q 104.0 80.1, 106.4 80.1 Q 108.0 80.1, 109.9 79.1 L 110.4 80.7 Q 109.7 81.2, 108.5 81.4 Q 107.4 81.7, 106.1 81.7 Q 102.9 81.7, 101.2 79.8 Q 99.5 77.8, 99.5 74.2 " fill="#000000"/>
<path class="atom-6" d="M 112.4 79.1 L 114.5 79.1 L 114.5 81.2 L 112.4 81.2 L 112.4 79.1 M 112.4 72.0 L 114.5 72.0 L 114.5 74.1 L 112.4 74.1 L 112.4 72.0 " fill="#000000"/>
<path class="atom-6" d="M 126.4 76.5 L 128.1 76.5 L 128.1 78.2 L 126.4 78.2 L 126.4 81.5 L 124.4 81.5 L 124.4 78.2 L 116.9 78.2 L 116.9 76.9 L 123.3 66.9 L 126.4 66.9 L 126.4 76.5 M 119.3 76.5 L 124.4 76.5 L 124.4 68.2 L 119.3 76.5 " fill="#000000"/>
<path class="atom-7" d="M 111.7 22.7 Q 111.7 19.2, 113.5 17.2 Q 115.2 15.2, 118.5 15.2 Q 121.7 15.2, 123.4 17.2 Q 125.2 19.2, 125.2 22.7 Q 125.2 26.2, 123.4 28.3 Q 121.7 30.3, 118.5 30.3 Q 115.2 30.3, 113.5 28.3 Q 111.7 26.3, 111.7 22.7 M 118.5 28.6 Q 120.7 28.6, 121.9 27.1 Q 123.1 25.6, 123.1 22.7 Q 123.1 19.8, 121.9 18.4 Q 120.7 16.9, 118.5 16.9 Q 116.2 16.9, 115.0 18.3 Q 113.8 19.8, 113.8 22.7 Q 113.8 25.6, 115.0 27.1 Q 116.2 28.6, 118.5 28.6 " fill="#FF0000"/>
<path class="atom-7" d="M 127.1 27.6 L 129.2 27.6 L 129.2 29.7 L 127.1 29.7 L 127.1 27.6 M 127.1 20.5 L 129.2 20.5 L 129.2 22.6 L 127.1 22.6 L 127.1 20.5 " fill="#FF0000"/>
<path class="atom-7" d="M 131.7 18.2 Q 132.2 16.8, 133.5 16.0 Q 134.8 15.2, 136.6 15.2 Q 138.8 15.2, 140.0 16.4 Q 141.3 17.6, 141.3 19.8 Q 141.3 21.9, 139.7 24.0 Q 138.1 26.0, 134.8 28.4 L 141.5 28.4 L 141.5 30.0 L 131.7 30.0 L 131.7 28.7 Q 134.4 26.7, 136.0 25.3 Q 137.6 23.8, 138.4 22.5 Q 139.2 21.2, 139.2 19.9 Q 139.2 18.5, 138.5 17.7 Q 137.8 16.9, 136.6 16.9 Q 135.4 16.9, 134.6 17.4 Q 133.8 17.8, 133.3 18.9 L 131.7 18.2 " fill="#FF0000"/>
<path class="atom-7" d="M 143.7 15.4 L 145.7 15.4 L 145.7 21.6 L 153.1 21.6 L 153.1 15.4 L 155.1 15.4 L 155.1 30.0 L 153.1 30.0 L 153.1 23.3 L 145.7 23.3 L 145.7 30.0 L 143.7 30.0 L 143.7 15.4 " fill="#FF0000"/>
<path class="atom-8" d="M 159.4 148.0 Q 159.4 144.3, 161.1 142.4 Q 162.8 140.5, 166.1 140.5 Q 169.1 140.5, 170.7 142.6 L 169.3 143.8 Q 168.2 142.2, 166.1 142.2 Q 163.9 142.2, 162.7 143.7 Q 161.5 145.2, 161.5 148.0 Q 161.5 150.9, 162.7 152.4 Q 163.9 153.8, 166.3 153.8 Q 167.9 153.8, 169.8 152.9 L 170.4 154.4 Q 169.6 154.9, 168.5 155.2 Q 167.3 155.5, 166.0 155.5 Q 162.8 155.5, 161.1 153.6 Q 159.4 151.6, 159.4 148.0 " fill="#000000"/>
<path class="atom-8" d="M 172.3 152.9 L 174.4 152.9 L 174.4 155.0 L 172.3 155.0 L 172.3 152.9 M 172.3 145.8 L 174.4 145.8 L 174.4 147.8 L 172.3 147.8 L 172.3 145.8 " fill="#000000"/>
<path class="atom-8" d="M 182.4 146.2 Q 183.7 146.2, 184.7 146.7 Q 185.7 147.3, 186.3 148.3 Q 186.9 149.3, 186.9 150.6 Q 186.9 152.0, 186.2 153.1 Q 185.6 154.2, 184.5 154.9 Q 183.4 155.5, 181.9 155.5 Q 179.3 155.5, 178.0 153.7 Q 176.7 151.9, 176.7 148.4 Q 176.7 144.5, 178.3 142.5 Q 180.0 140.5, 183.1 140.5 Q 184.0 140.5, 184.8 140.7 Q 185.5 140.9, 186.3 141.4 L 185.5 142.7 Q 184.4 142.2, 183.1 142.2 Q 181.0 142.2, 180.0 143.5 Q 178.9 144.8, 178.8 147.6 Q 179.5 146.9, 180.5 146.5 Q 181.4 146.2, 182.4 146.2 M 182.0 153.8 Q 182.7 153.8, 183.4 153.4 Q 184.0 153.0, 184.4 152.2 Q 184.8 151.5, 184.8 150.6 Q 184.8 149.3, 184.1 148.6 Q 183.3 147.8, 182.1 147.8 Q 181.2 147.8, 180.3 148.2 Q 179.4 148.6, 178.8 149.2 Q 178.9 151.6, 179.6 152.7 Q 180.4 153.8, 182.0 153.8 " fill="#000000"/>
<path class="atom-9" d="M 213.0 170.2 Q 213.0 166.7, 214.8 164.7 Q 216.5 162.8, 219.8 162.8 Q 223.0 162.8, 224.7 164.7 Q 226.5 166.7, 226.5 170.2 Q 226.5 173.8, 224.7 175.8 Q 223.0 177.8, 219.8 177.8 Q 216.5 177.8, 214.8 175.8 Q 213.0 173.8, 213.0 170.2 M 219.8 176.1 Q 222.0 176.1, 223.2 174.7 Q 224.4 173.1, 224.4 170.2 Q 224.4 167.3, 223.2 165.9 Q 222.0 164.4, 219.8 164.4 Q 217.5 164.4, 216.3 165.9 Q 215.1 167.3, 215.1 170.2 Q 215.1 173.2, 216.3 174.7 Q 217.5 176.1, 219.8 176.1 " fill="#FF0000"/>
<path class="atom-9" d="M 228.3 175.2 L 230.4 175.2 L 230.4 177.2 L 228.3 177.2 L 228.3 175.2 M 228.3 168.0 L 230.4 168.0 L 230.4 170.1 L 228.3 170.1 L 228.3 168.0 " fill="#FF0000"/>
<path class="atom-9" d="M 240.5 164.6 L 232.8 164.6 L 232.8 162.9 L 242.5 162.9 L 242.5 164.4 L 236.6 177.6 L 234.6 177.6 L 240.5 164.6 " fill="#FF0000"/>
<path class="atom-10" d="M 91.3 169.9 L 93.3 169.9 L 93.3 176.1 L 100.8 176.1 L 100.8 169.9 L 102.8 169.9 L 102.8 184.5 L 100.8 184.5 L 100.8 177.8 L 93.3 177.8 L 93.3 184.5 L 91.3 184.5 L 91.3 169.9 " fill="#FF0000"/>
<path class="atom-10" d="M 105.4 177.2 Q 105.4 173.7, 107.2 171.7 Q 108.9 169.8, 112.2 169.8 Q 115.4 169.8, 117.1 171.7 Q 118.9 173.7, 118.9 177.2 Q 118.9 180.7, 117.1 182.8 Q 115.4 184.8, 112.2 184.8 Q 108.9 184.8, 107.2 182.8 Q 105.4 180.8, 105.4 177.2 M 112.2 183.1 Q 114.4 183.1, 115.6 181.6 Q 116.8 180.1, 116.8 177.2 Q 116.8 174.3, 115.6 172.9 Q 114.4 171.4, 112.2 171.4 Q 109.9 171.4, 108.7 172.9 Q 107.5 174.3, 107.5 177.2 Q 107.5 180.1, 108.7 181.6 Q 109.9 183.1, 112.2 183.1 " fill="#FF0000"/>
<path class="atom-10" d="M 120.8 182.1 L 122.9 182.1 L 122.9 184.2 L 120.8 184.2 L 120.8 182.1 M 120.8 175.0 L 122.9 175.0 L 122.9 177.1 L 120.8 177.1 L 120.8 175.0 " fill="#FF0000"/>
<path class="atom-10" d="M 132.8 176.8 Q 134.2 177.4, 135.0 178.2 Q 135.7 179.1, 135.7 180.5 Q 135.7 181.8, 135.1 182.8 Q 134.4 183.7, 133.3 184.2 Q 132.1 184.8, 130.6 184.8 Q 128.2 184.8, 126.8 183.6 Q 125.4 182.5, 125.4 180.5 Q 125.4 179.3, 126.0 178.5 Q 126.6 177.5, 127.9 176.9 Q 127.0 176.3, 126.4 175.5 Q 125.9 174.7, 125.9 173.5 Q 125.9 171.8, 127.2 170.8 Q 128.4 169.8, 130.6 169.8 Q 132.7 169.8, 133.9 170.8 Q 135.2 171.8, 135.2 173.5 Q 135.2 174.6, 134.6 175.4 Q 134.0 176.2, 132.8 176.8 M 130.6 171.3 Q 129.3 171.3, 128.6 171.9 Q 128.0 172.5, 128.0 173.5 Q 128.0 174.3, 128.4 174.8 Q 128.9 175.3, 129.5 175.6 Q 130.2 175.8, 131.5 176.3 Q 132.3 175.7, 132.7 175.0 Q 133.1 174.3, 133.1 173.5 Q 133.1 172.5, 132.4 171.9 Q 131.8 171.3, 130.6 171.3 M 130.6 183.2 Q 132.0 183.2, 132.8 182.5 Q 133.7 181.7, 133.7 180.5 Q 133.7 179.7, 133.2 179.2 Q 132.8 178.7, 132.1 178.5 Q 131.5 178.2, 130.3 177.8 L 129.4 177.5 Q 128.4 178.1, 127.9 178.8 Q 127.5 179.6, 127.5 180.5 Q 127.5 181.7, 128.3 182.5 Q 129.2 183.2, 130.6 183.2 " fill="#FF0000"/>
<path class="bond-10 atom-11 atom-12" d="M 700.0,42.3 L 699.0,60.1" style="fill:none;fill-rule:evenodd;stroke:#FF0000;stroke-width:2.0px;stroke-linecap:butt;stroke-linejoin:miter;stroke-opacity:1"/>
<path class="bond-10 atom-11 atom-12" d="M 699.0,60.1 L 698.1,77.9" style="fill:none;fill-rule:evenodd;stroke:#000000;stroke-width:2.0px;stroke-linecap:butt;stroke-linejoin:miter;stroke-opacity:1"/>
<path class="bond-11 atom-12 atom-13" d="M 682.4,92.3 L 667.6,99.8" style="fill:none;fill-rule:evenodd;stroke:#000000;stroke-width:2.0px;stroke-linecap:butt;stroke-linejoin:miter;stroke-opacity:1"/>
<path class="bond-12 atom-13 atom-14" d="M 637.7,98.8 L 630.0,93.8" style="fill:none;fill-rule:evenodd;stroke:#000000;stroke-width:2.0px;stroke-linecap:butt;stroke-linejoin:miter;stroke-opacity:1"/>
<path class="bond-12 atom-13 atom-14" d="M 630.0,93.8 L 622.3,88.8" style="fill:none;fill-rule:evenodd;stroke:#FF0000;stroke-width:2.0px;stroke-linecap:butt;stroke-linejoin:miter;stroke-opacity:1"/>
<path class="bond-13 atom-14 atom-15" d="M 591.8,88.0 L 584.2,91.9" style="fill:none;fill-rule:evenodd;stroke:#FF0000;stroke-width:2.0px;stroke-linecap:butt;stroke-linejoin:miter;stroke-opacity:1"/>
<path class="bond-13 atom-14 atom-15" d="M 584.2,91.9 L 576.6,95.8" style="fill:none;fill-rule:evenodd;stroke:#FF7F00;stroke-width:2.0px;stroke-linecap:butt;stroke-linejoin:miter;stroke-opacity:1"/>
<path class="bond-14 atom-15 atom-16" d="M 561.2,92.3 L 554.1,78.4" style="fill:none;fill-rule:evenodd;stroke:#FF7F00;stroke-width:2.0px;stroke-linecap:butt;stroke-linejoin:miter;stroke-opacity:1"/>
<path class="bond-14 atom-15 atom-16" d="M 554.1,78.4 L 547.1,64.4" style="fill:none;fill-rule:evenodd;stroke:#FF0000;stroke-width:2.0px;stroke-linecap:butt;stroke-linejoin:miter;stroke-opacity:1"/>
<path class="bond-14 atom-15 atom-16" d="M 554.3,95.8 L 547.2,81.9" style="fill:none;fill-rule:evenodd;stroke:#FF7F00;stroke-width:2.0px;stroke-linecap:butt;stroke-linejoin:miter;stroke-opacity:1"/>
<path class="bond-14 atom-15 atom-16" d="M 547.2,81.9 L 540.2,67.9" style="fill:none;fill-rule:evenodd;stroke:#FF0000;stroke-width:2.0px;stroke-linecap:butt;stroke-linejoin:miter;stroke-opacity:1"/>
<path class="bond-15 atom-15 atom-17" d="M 567.0,112.3 L 574.0,126.1" style="fill:none;fill-rule:evenodd;stroke:#FF7F00;stroke-width:2.0px;stroke-linecap:butt;stroke-linejoin:miter;stroke-opacity:1"/>
<path class="bond-15 atom-15 atom-17" d="M 574.0,126.1 L 581.0,140.0" style="fill:none;fill-rule:evenodd;stroke:#FF0000;stroke-width:2.0px;stroke-linecap:butt;stroke-linejoin:miter;stroke-opacity:1"/>
<path class="bond-16 atom-15 atom-18" d="M 548.0,110.2 L 535.1,116.7" style="fill:none;fill-rule:evenodd;stroke:#FF7F00;stroke-width:2.0px;stroke-linecap:butt;stroke-linejoin:miter;stroke-opacity:1"/>
<path class="bond-16 atom-15 atom-18" d="M 535.1,116.7 L 522.3,123.2" style="fill:none;fill-rule:evenodd;stroke:#FF0000;stroke-width:2.0px;stroke-linecap:butt;stroke-linejoin:miter;stroke-opacity:1"/>
<path class="bond-17 atom-12 atom-19" d="M 711.9,93.9 L 727.0,103.7" style="fill:none;fill-rule:evenodd;stroke:#000000;stroke-width:2.0px;stroke-linecap:butt;stroke-linejoin:miter;stroke-opacity:1"/>
<path class="bond-18 atom-19 atom-20" d="M 758.1,108.5 L 769.2,102.9" style="fill:none;fill-rule:evenodd;stroke:#000000;stroke-width:2.0px;stroke-linecap:butt;stroke-linejoin:miter;stroke-opacity:1"/>
<path class="bond-18 atom-19 atom-20" d="M 769.2,102.9 L 780.4,97.2" style="fill:none;fill-rule:evenodd;stroke:#FF0000;stroke-width:2.0px;stroke-linecap:butt;stroke-linejoin:miter;stroke-opacity:1"/>
<path class="bond-18 atom-19 atom-20" d="M 754.6,101.6 L 765.7,96.0" style="fill:none;fill-rule:evenodd;stroke:#000000;stroke-width:2.0px;stroke-linecap:butt;stroke-linejoin:miter;stroke-opacity:1"/>
<path class="bond-18 atom-19 atom-20" d="M 765.7,96.0 L 776.9,90.3" style="fill:none;fill-rule:evenodd;stroke:#FF0000;stroke-width:2.0px;stroke-linecap:butt;stroke-linejoin:miter;stroke-opacity:1"/>
<path class="bond-19 atom-19 atom-21" d="M 740.3,124.5 L 739.5,139.9" style="fill:none;fill-rule:evenodd;stroke:#000000;stroke-width:2.0px;stroke-linecap:butt;stroke-linejoin:miter;stroke-opacity:1"/>
<path class="bond-19 atom-19 atom-21" d="M 739.5,139.9 L 738.6,155.3" style="fill:none;fill-rule:evenodd;stroke:#FF0000;stroke-width:2.0px;stroke-linecap:butt;stroke-linejoin:miter;stroke-opacity:1"/>
<path class="atom-0" d="M 693.8 33.1 Q 693.8 29.5, 695.6 27.6 Q 697.3 25.6, 700.5 25.6 Q 703.8 25.6, 705.5 27.6 Q 707.3 29.5, 707.3 33.1 Q 707.3 36.6, 705.5 38.6 Q 703.7 40.6, 700.5 40.6 Q 697.3 40.6, 695.6 38.6 Q 693.8 36.6, 693.8 33.1 M 700.5 39.0 Q 702.8 39.0, 704.0 37.5 Q 705.2 36.0, 705.2 33.1 Q 705.2 30.2, 704.0 28.7 Q 702.8 27.3, 700.5 27.3 Q 698.3 27.3, 697.1 28.7 Q 695.9 30.2, 695.9 33.1 Q 695.9 36.0, 697.1 37.5 Q 698.3 39.0, 700.5 39.0 " fill="#FF0000"/>
<path class="atom-0" d="M 709.2 38.0 L 711.2 38.0 L 711.2 40.1 L 709.2 40.1 L 709.2 38.0 M 709.2 30.9 L 711.2 30.9 L 711.2 32.9 L 709.2 32.9 L 709.2 30.9 " fill="#FF0000"/>
<path class="atom-0" d="M 714.5 38.8 L 717.7 38.8 L 717.7 27.8 L 714.2 28.9 L 713.7 27.7 L 718.2 25.7 L 719.6 25.9 L 719.6 38.8 L 722.5 38.8 L 722.5 40.4 L 714.5 40.4 L 714.5 38.8 " fill="#FF0000"/>
<path class="atom-0" d="M 724.3 25.8 L 726.3 25.8 L 726.3 32.0 L 733.7 32.0 L 733.7 25.8 L 735.7 25.8 L 735.7 40.4 L 733.7 40.4 L 733.7 33.7 L 726.3 33.7 L 726.3 40.4 L 724.3 40.4 L 724.3 25.8 " fill="#FF0000"/>
<path class="atom-1" d="M 684.1 84.7 Q 684.1 81.0, 685.8 79.1 Q 687.5 77.2, 690.8 77.2 Q 693.8 77.2, 695.4 79.3 L 694.0 80.4 Q 692.8 78.9, 690.8 78.9 Q 688.5 78.9, 687.4 80.4 Q 686.2 81.8, 686.2 84.7 Q 686.2 87.5, 687.4 89.0 Q 688.6 90.5, 691.0 90.5 Q 692.6 90.5, 694.5 89.6 L 695.1 91.1 Q 694.3 91.6, 693.1 91.9 Q 692.0 92.2, 690.7 92.2 Q 687.5 92.2, 685.8 90.2 Q 684.1 88.3, 684.1 84.7 " fill="#000000"/>
<path class="atom-1" d="M 697.0 89.6 L 699.1 89.6 L 699.1 91.6 L 697.0 91.6 L 697.0 89.6 M 697.0 82.5 L 699.1 82.5 L 699.1 84.5 L 697.0 84.5 L 697.0 82.5 " fill="#000000"/>
<path class="atom-1" d="M 706.7 82.8 Q 708.0 82.8, 709.0 83.4 Q 710.1 83.9, 710.7 85.0 Q 711.3 86.0, 711.3 87.4 Q 711.3 88.9, 710.5 90.0 Q 709.8 91.0, 708.6 91.6 Q 707.4 92.2, 706.1 92.2 Q 704.7 92.2, 703.5 91.7 Q 702.2 91.2, 701.4 90.2 L 702.6 88.9 Q 703.3 89.7, 704.2 90.1 Q 705.2 90.5, 706.1 90.5 Q 707.4 90.5, 708.3 89.7 Q 709.2 88.9, 709.2 87.4 Q 709.2 85.9, 708.3 85.1 Q 707.4 84.4, 706.0 84.4 Q 704.7 84.4, 703.3 84.9 L 702.1 84.4 L 702.8 77.4 L 710.4 77.4 L 710.2 79.0 L 704.5 79.0 L 704.1 83.4 Q 705.4 82.8, 706.7 82.8 " fill="#000000"/>
<path class="atom-2" d="M 637.3 108.0 Q 637.3 104.3, 639.0 102.4 Q 640.7 100.5, 643.9 100.5 Q 647.0 100.5, 648.6 102.7 L 647.2 103.8 Q 646.0 102.2, 643.9 102.2 Q 641.7 102.2, 640.5 103.7 Q 639.4 105.2, 639.4 108.0 Q 639.4 110.9, 640.6 112.4 Q 641.8 113.9, 644.2 113.9 Q 645.8 113.9, 647.7 112.9 L 648.2 114.4 Q 647.5 114.9, 646.3 115.2 Q 645.2 115.5, 643.9 115.5 Q 640.7 115.5, 639.0 113.6 Q 637.3 111.6, 637.3 108.0 " fill="#000000"/>
<path class="atom-2" d="M 650.2 112.9 L 652.3 112.9 L 652.3 115.0 L 650.2 115.0 L 650.2 112.9 M 650.2 105.8 L 652.3 105.8 L 652.3 107.9 L 650.2 107.9 L 650.2 105.8 " fill="#000000"/>
<path class="atom-2" d="M 664.2 110.3 L 665.9 110.3 L 665.9 112.0 L 664.2 112.0 L 664.2 115.3 L 662.2 115.3 L 662.2 112.0 L 654.7 112.0 L 654.7 110.6 L 661.1 100.7 L 664.2 100.7 L 664.2 110.3 M 657.0 110.3 L 662.2 110.3 L 662.2 102.0 L 657.0 110.3 " fill="#000000"/>
<path class="atom-3" d="M 593.5 79.7 Q 593.5 76.2, 595.3 74.2 Q 597.0 72.3, 600.3 72.3 Q 603.5 72.3, 605.2 74.2 Q 607.0 76.2, 607.0 79.7 Q 607.0 83.3, 605.2 85.3 Q 603.5 87.3, 600.3 87.3 Q 597.0 87.3, 595.3 85.3 Q 593.5 83.3, 593.5 79.7 M 600.3 85.6 Q 602.5 85.6, 603.7 84.2 Q 604.9 82.6, 604.9 79.7 Q 604.9 76.8, 603.7 75.4 Q 602.5 73.9, 600.3 73.9 Q 598.0 73.9, 596.8 75.4 Q 595.6 76.8, 595.6 79.7 Q 595.6 82.7, 596.8 84.2 Q 598.0 85.6, 600.3 85.6 " fill="#FF0000"/>
<path class="atom-3" d="M 608.8 84.6 L 610.9 84.6 L 610.9 86.7 L 608.8 86.7 L 608.8 84.6 M 608.8 77.5 L 610.9 77.5 L 610.9 79.6 L 608.8 79.6 L 608.8 77.5 " fill="#FF0000"/>
<path class="atom-3" d="M 613.3 75.2 Q 613.9 73.8, 615.2 73.1 Q 616.4 72.3, 618.2 72.3 Q 620.4 72.3, 621.7 73.5 Q 622.9 74.7, 622.9 76.8 Q 622.9 79.0, 621.3 81.0 Q 619.7 83.0, 616.4 85.4 L 623.2 85.4 L 623.2 87.1 L 613.3 87.1 L 613.3 85.7 Q 616.0 83.7, 617.6 82.3 Q 619.3 80.8, 620.1 79.5 Q 620.8 78.2, 620.8 76.9 Q 620.8 75.5, 620.1 74.7 Q 619.4 73.9, 618.2 73.9 Q 617.0 73.9, 616.3 74.4 Q 615.5 74.9, 614.9 75.9 L 613.3 75.2 " fill="#FF0000"/>
<path class="atom-4" d="M 554.0 95.8 Q 556.5 95.8, 557.7 96.9 Q 559.0 98.0, 559.0 100.1 Q 559.0 102.1, 557.7 103.2 Q 556.4 104.4, 554.0 104.4 L 551.6 104.4 L 551.6 110.4 L 549.7 110.4 L 549.7 95.8 L 554.0 95.8 M 554.0 102.7 Q 555.4 102.7, 556.2 102.0 Q 556.9 101.4, 556.9 100.1 Q 556.9 98.8, 556.2 98.1 Q 555.4 97.4, 554.0 97.4 L 551.6 97.4 L 551.6 102.7 L 554.0 102.7 " fill="#FF7F00"/>
<path class="atom-4" d="M 560.7 108.0 L 562.8 108.0 L 562.8 110.0 L 560.7 110.0 L 560.7 108.0 M 560.7 100.9 L 562.8 100.9 L 562.8 102.9 L 560.7 102.9 L 560.7 100.9 " fill="#FF7F00"/>
<path class="atom-4" d="M 572.0 102.7 Q 573.5 103.1, 574.1 104.0 Q 574.8 104.9, 574.8 106.4 Q 574.8 107.6, 574.2 108.6 Q 573.6 109.5, 572.5 110.1 Q 571.3 110.6, 569.8 110.6 Q 568.3 110.6, 567.1 110.1 Q 565.9 109.5, 565.0 108.4 L 566.2 107.2 Q 567.1 108.2, 567.9 108.6 Q 568.6 108.9, 569.8 108.9 Q 571.2 108.9, 572.0 108.2 Q 572.8 107.5, 572.8 106.4 Q 572.8 104.9, 571.9 104.2 Q 571.1 103.5, 569.3 103.5 L 568.3 103.5 L 568.3 102.0 L 569.2 102.0 Q 570.8 102.0, 571.6 101.3 Q 572.5 100.6, 572.5 99.3 Q 572.5 98.4, 571.8 97.8 Q 571.1 97.3, 569.9 97.3 Q 568.6 97.3, 567.9 97.7 Q 567.1 98.1, 566.6 99.2 L 565.1 98.5 Q 565.7 97.2, 566.9 96.4 Q 568.1 95.6, 569.9 95.6 Q 572.0 95.6, 573.3 96.6 Q 574.5 97.6, 574.5 99.3 Q 574.5 100.5, 573.9 101.4 Q 573.3 102.2, 572.0 102.7 " fill="#FF7F00"/>
<path class="atom-5" d="M 514.1 56.9 Q 514.1 53.4, 515.8 51.5 Q 517.5 49.5, 520.8 49.5 Q 524.0 49.5, 525.8 51.5 Q 527.5 53.4, 527.5 56.9 Q 527.5 60.5, 525.7 62.5 Q 524.0 64.5, 520.8 64.5 Q 517.6 64.5, 515.8 62.5 Q 514.1 60.5, 514.1 56.9 M 520.8 62.9 Q 523.0 62.9, 524.2 61.4 Q 525.4 59.9, 525.4 56.9 Q 525.4 54.1, 524.2 52.6 Q 523.0 51.2, 520.8 51.2 Q 518.5 51.2, 517.3 52.6 Q 516.1 54.1, 516.1 56.9 Q 516.1 59.9, 517.3 61.4 Q 518.5 62.9, 520.8 62.9 " fill="#FF0000"/>
<path class="atom-5" d="M 529.4 61.9 L 531.4 61.9 L 531.4 64.0 L 529.4 64.0 L 529.4 61.9 M 529.4 54.8 L 531.4 54.8 L 531.4 56.8 L 529.4 56.8 L 529.4 54.8 " fill="#FF0000"/>
<path class="atom-5" d="M 538.8 49.5 Q 541.4 49.5, 542.7 51.3 Q 544.0 53.0, 544.0 56.6 Q 544.0 60.4, 542.4 62.5 Q 540.8 64.5, 537.6 64.5 Q 536.7 64.5, 535.9 64.3 Q 535.2 64.1, 534.4 63.6 L 535.2 62.2 Q 536.3 62.8, 537.6 62.8 Q 539.7 62.8, 540.7 61.5 Q 541.8 60.1, 541.9 57.4 Q 541.2 58.1, 540.2 58.5 Q 539.3 58.8, 538.3 58.8 Q 537.0 58.8, 536.0 58.2 Q 535.0 57.7, 534.4 56.7 Q 533.9 55.7, 533.9 54.4 Q 533.9 53.0, 534.5 51.9 Q 535.1 50.7, 536.2 50.1 Q 537.3 49.5, 538.8 49.5 M 535.9 54.4 Q 535.9 55.7, 536.6 56.4 Q 537.4 57.2, 538.6 57.2 Q 539.5 57.2, 540.4 56.8 Q 541.3 56.4, 541.9 55.8 Q 541.8 53.4, 541.1 52.3 Q 540.3 51.2, 538.8 51.2 Q 538.0 51.2, 537.3 51.6 Q 536.7 52.0, 536.3 52.8 Q 535.9 53.5, 535.9 54.4 " fill="#FF0000"/>
<path class="atom-6" d="M 578.9 149.1 Q 578.9 145.6, 580.6 143.7 Q 582.3 141.7, 585.6 141.7 Q 588.8 141.7, 590.6 143.7 Q 592.3 145.6, 592.3 149.1 Q 592.3 152.7, 590.5 154.7 Q 588.8 156.7, 585.6 156.7 Q 582.4 156.7, 580.6 154.7 Q 578.9 152.7, 578.9 149.1 M 585.6 155.1 Q 587.8 155.1, 589.0 153.6 Q 590.2 152.1, 590.2 149.1 Q 590.2 146.3, 589.0 144.8 Q 587.8 143.3, 585.6 143.3 Q 583.4 143.3, 582.1 144.8 Q 580.9 146.2, 580.9 149.1 Q 580.9 152.1, 582.1 153.6 Q 583.4 155.1, 585.6 155.1 " fill="#FF0000"/>
<path class="atom-6" d="M 594.3 154.1 L 596.3 154.1 L 596.3 156.1 L 594.3 156.1 L 594.3 154.1 M 594.3 147.0 L 596.3 147.0 L 596.3 149.0 L 594.3 149.0 L 594.3 147.0 " fill="#FF0000"/>
<path class="atom-6" d="M 599.6 154.8 L 602.8 154.8 L 602.8 143.9 L 599.3 145.0 L 598.8 143.8 L 603.3 141.8 L 604.8 142.0 L 604.8 154.8 L 607.6 154.8 L 607.6 156.5 L 599.6 156.5 L 599.6 154.8 " fill="#FF0000"/>
<path class="atom-6" d="M 614.8 156.7 Q 612.1 156.7, 610.8 154.7 Q 609.4 152.7, 609.4 149.2 Q 609.4 145.6, 610.8 143.7 Q 612.1 141.7, 614.8 141.7 Q 617.5 141.7, 618.8 143.7 Q 620.1 145.6, 620.1 149.2 Q 620.1 152.7, 618.8 154.7 Q 617.5 156.7, 614.8 156.7 M 614.8 155.0 Q 616.4 155.0, 617.2 153.5 Q 618.1 152.0, 618.1 149.2 Q 618.1 146.3, 617.2 144.8 Q 616.4 143.3, 614.8 143.3 Q 613.2 143.3, 612.3 144.8 Q 611.5 146.3, 611.5 149.2 Q 611.5 152.0, 612.3 153.5 Q 613.2 155.0, 614.8 155.0 " fill="#FF0000"/>
<path class="atom-6" d="M 622.4 141.9 L 624.4 141.9 L 624.4 148.1 L 631.9 148.1 L 631.9 141.9 L 633.9 141.9 L 633.9 156.5 L 631.9 156.5 L 631.9 149.7 L 624.4 149.7 L 624.4 156.5 L 622.4 156.5 L 622.4 141.9 " fill="#FF0000"/>
<path class="atom-7" d="M 467.2 119.1 L 469.2 119.1 L 469.2 125.3 L 476.7 125.3 L 476.7 119.1 L 478.7 119.1 L 478.7 133.7 L 476.7 133.7 L 476.7 127.0 L 469.2 127.0 L 469.2 133.7 L 467.2 133.7 L 467.2 119.1 " fill="#FF0000"/>
<path class="atom-7" d="M 481.3 126.4 Q 481.3 122.9, 483.0 120.9 Q 484.8 118.9, 488.0 118.9 Q 491.3 118.9, 493.0 120.9 Q 494.7 122.9, 494.7 126.4 Q 494.7 129.9, 493.0 131.9 Q 491.2 134.0, 488.0 134.0 Q 484.8 134.0, 483.0 131.9 Q 481.3 129.9, 481.3 126.4 M 488.0 132.3 Q 490.3 132.3, 491.4 130.8 Q 492.7 129.3, 492.7 126.4 Q 492.7 123.5, 491.4 122.0 Q 490.3 120.6, 488.0 120.6 Q 485.8 120.6, 484.6 122.0 Q 483.4 123.5, 483.4 126.4 Q 483.4 129.3, 484.6 130.8 Q 485.8 132.3, 488.0 132.3 " fill="#FF0000"/>
<path class="atom-7" d="M 496.7 131.3 L 498.7 131.3 L 498.7 133.4 L 496.7 133.4 L 496.7 131.3 M 496.7 124.2 L 498.7 124.2 L 498.7 126.3 L 496.7 126.3 L 496.7 124.2 " fill="#FF0000"/>
<path class="atom-7" d="M 502.0 132.1 L 505.2 132.1 L 505.2 121.1 L 501.6 122.2 L 501.2 121.0 L 505.7 119.0 L 507.1 119.3 L 507.1 132.1 L 510.0 132.1 L 510.0 133.7 L 502.0 133.7 L 502.0 132.1 " fill="#FF0000"/>
<path class="atom-7" d="M 512.6 132.1 L 515.8 132.1 L 515.8 121.1 L 512.2 122.2 L 511.8 121.0 L 516.2 119.0 L 517.7 119.3 L 517.7 132.1 L 520.6 132.1 L 520.6 133.7 L 512.6 133.7 L 512.6 132.1 " fill="#FF0000"/>
<path class="atom-8" d="M 727.2 112.9 Q 727.2 109.3, 728.9 107.4 Q 730.6 105.4, 733.9 105.4 Q 736.9 105.4, 738.5 107.6 L 737.1 108.7 Q 736.0 107.1, 733.9 107.1 Q 731.7 107.1, 730.5 108.6 Q 729.3 110.1, 729.3 112.9 Q 729.3 115.8, 730.5 117.3 Q 731.7 118.8, 734.1 118.8 Q 735.7 118.8, 737.6 117.8 L 738.2 119.4 Q 737.4 119.9, 736.3 120.1 Q 735.1 120.4, 733.8 120.4 Q 730.6 120.4, 728.9 118.5 Q 727.2 116.5, 727.2 112.9 " fill="#000000"/>
<path class="atom-8" d="M 740.1 117.8 L 742.2 117.8 L 742.2 119.9 L 740.1 119.9 L 740.1 117.8 M 740.1 110.7 L 742.2 110.7 L 742.2 112.8 L 740.1 112.8 L 740.1 110.7 " fill="#000000"/>
<path class="atom-8" d="M 750.2 111.1 Q 751.5 111.1, 752.5 111.7 Q 753.5 112.2, 754.1 113.2 Q 754.7 114.3, 754.7 115.5 Q 754.7 117.0, 754.0 118.1 Q 753.4 119.2, 752.3 119.8 Q 751.2 120.4, 749.7 120.4 Q 747.1 120.4, 745.8 118.7 Q 744.5 116.9, 744.5 113.4 Q 744.5 109.5, 746.1 107.5 Q 747.8 105.4, 750.9 105.4 Q 751.8 105.4, 752.6 105.7 Q 753.3 105.9, 754.1 106.3 L 753.3 107.7 Q 752.2 107.1, 750.9 107.1 Q 748.8 107.1, 747.8 108.4 Q 746.7 109.8, 746.6 112.5 Q 747.3 111.8, 748.3 111.5 Q 749.2 111.1, 750.2 111.1 M 749.8 118.7 Q 750.5 118.7, 751.2 118.3 Q 751.9 117.9, 752.2 117.2 Q 752.6 116.4, 752.6 115.6 Q 752.6 114.3, 751.9 113.5 Q 751.1 112.8, 749.9 112.8 Q 749.0 112.8, 748.1 113.1 Q 747.2 113.5, 746.6 114.1 Q 746.7 116.5, 747.4 117.6 Q 748.2 118.7, 749.8 118.7 " fill="#000000"/>
<path class="atom-9" d="M 780.3 89.6 Q 780.3 86.0, 782.1 84.1 Q 783.8 82.1, 787.0 82.1 Q 790.3 82.1, 792.0 84.1 Q 793.8 86.0, 793.8 89.6 Q 793.8 93.1, 792.0 95.1 Q 790.2 97.1, 787.0 97.1 Q 783.8 97.1, 782.1 95.1 Q 780.3 93.1, 780.3 89.6 M 787.0 95.5 Q 789.3 95.5, 790.5 94.0 Q 791.7 92.5, 791.7 89.6 Q 791.7 86.7, 790.5 85.2 Q 789.3 83.8, 787.0 83.8 Q 784.8 83.8, 783.6 85.2 Q 782.4 86.7, 782.4 89.6 Q 782.4 92.5, 783.6 94.0 Q 784.8 95.5, 787.0 95.5 " fill="#FF0000"/>
<path class="atom-9" d="M 795.6 94.5 L 797.7 94.5 L 797.7 96.6 L 795.6 96.6 L 795.6 94.5 M 795.6 87.4 L 797.7 87.4 L 797.7 89.5 L 795.6 89.5 L 795.6 87.4 " fill="#FF0000"/>
<path class="atom-9" d="M 807.7 83.9 L 800.1 83.9 L 800.1 82.3 L 809.8 82.3 L 809.8 83.8 L 803.9 96.9 L 801.9 96.9 L 807.7 83.9 " fill="#FF0000"/>
<path class="atom-10" d="M 731.4 164.5 Q 731.4 161.0, 733.1 159.0 Q 734.9 157.0, 738.1 157.0 Q 741.3 157.0, 743.1 159.0 Q 744.8 161.0, 744.8 164.5 Q 744.8 168.0, 743.1 170.0 Q 741.3 172.1, 738.1 172.1 Q 734.9 172.1, 733.1 170.0 Q 731.4 168.0, 731.4 164.5 M 738.1 170.4 Q 740.3 170.4, 741.5 168.9 Q 742.7 167.4, 742.7 164.5 Q 742.7 161.6, 741.5 160.2 Q 740.3 158.7, 738.1 158.7 Q 735.9 158.7, 734.6 160.1 Q 733.4 161.6, 733.4 164.5 Q 733.4 167.4, 734.6 168.9 Q 735.9 170.4, 738.1 170.4 " fill="#FF0000"/>
<path class="atom-10" d="M 746.8 169.4 L 748.8 169.4 L 748.8 171.5 L 746.8 171.5 L 746.8 169.4 M 746.8 162.3 L 748.8 162.3 L 748.8 164.4 L 746.8 164.4 L 746.8 162.3 " fill="#FF0000"/>
<path class="atom-10" d="M 758.8 164.1 Q 760.1 164.7, 760.9 165.5 Q 761.7 166.4, 761.7 167.8 Q 761.7 169.1, 761.0 170.0 Q 760.4 171.0, 759.2 171.5 Q 758.1 172.0, 756.6 172.0 Q 754.1 172.0, 752.7 170.9 Q 751.3 169.8, 751.3 167.8 Q 751.3 166.6, 751.9 165.7 Q 752.6 164.8, 753.8 164.1 Q 752.9 163.6, 752.4 162.8 Q 751.9 162.0, 751.9 160.8 Q 751.9 159.1, 753.1 158.0 Q 754.4 157.0, 756.5 157.0 Q 758.6 157.0, 759.9 158.0 Q 761.1 159.1, 761.1 160.8 Q 761.1 161.8, 760.5 162.7 Q 759.9 163.4, 758.8 164.1 M 756.5 158.6 Q 755.3 158.6, 754.6 159.2 Q 753.9 159.7, 753.9 160.8 Q 753.9 161.5, 754.4 162.1 Q 754.8 162.5, 755.5 162.8 Q 756.1 163.1, 757.4 163.6 Q 758.3 162.9, 758.7 162.3 Q 759.1 161.6, 759.1 160.8 Q 759.1 159.7, 758.4 159.2 Q 757.7 158.6, 756.5 158.6 M 756.6 170.5 Q 757.9 170.5, 758.8 169.8 Q 759.6 169.0, 759.6 167.8 Q 759.6 167.0, 759.2 166.5 Q 758.7 166.0, 758.1 165.7 Q 757.4 165.4, 756.3 165.1 L 755.3 164.8 Q 754.3 165.4, 753.8 166.1 Q 753.4 166.8, 753.4 167.8 Q 753.4 169.0, 754.3 169.8 Q 755.1 170.5, 756.6 170.5 " fill="#FF0000"/>
<path class="atom-10" d="M 763.9 157.2 L 765.9 157.2 L 765.9 163.4 L 773.4 163.4 L 773.4 157.2 L 775.3 157.2 L 775.3 171.8 L 773.4 171.8 L 773.4 165.1 L 765.9 165.1 L 765.9 171.8 L 763.9 171.8 L 763.9 157.2 " fill="#FF0000"/>
<path d="M 370.0,100.0 L 448.0,100.0" style="fill:none;fill-rule:evenodd;stroke:#000000;stroke-width:2.0px;stroke-linecap:butt;stroke-linejoin:miter;stroke-opacity:1"/>
<path d="M 448.0,100.0 L 443.0,102.9" style="fill:none;fill-rule:evenodd;stroke:#000000;stroke-width:2.0px;stroke-linecap:butt;stroke-linejoin:miter;stroke-opacity:1"/>
<path d="M 448.0,100.0 L 443.0,97.1" style="fill:none;fill-rule:evenodd;stroke:#000000;stroke-width:2.0px;stroke-linecap:butt;stroke-linejoin:miter;stroke-opacity:1"/>
</svg>