<svg xmlns="http://www.w3.org/2000/svg" xmlns:rdkit="http://www.rdkit.org/xml" xmlns:xlink="http://www.w3.org/1999/xlink" version="1.1" baseProfile="full" xml:space="preserve" width="900px" height="200px" viewBox="0 0 900 200">
<!-- END OF HEADER -->
<rect style="opacity:1.0;fill:#FFFFFF;stroke:none" width="900.0" height="200.0" x="0.0" y="0.0"> </rect>
<path class="bond-0 atom-0 atom-1" d="M 315.5,121.2 L 329.8,121.2" style="fill:none;fill-rule:evenodd;stroke:#000000;stroke-width:2.0px;stroke-linecap:butt;stroke-linejoin:miter;stroke-opacity:1"/>
<path class="bond-0 atom-0 atom-1" d="M 329.8,121.2 L 344.1,121.2" style="fill:none;fill-rule:evenodd;stroke:#FF0000;stroke-width:2.0px;stroke-linecap:butt;stroke-linejoin:miter;stroke-opacity:1"/>
<path class="bond-1 atom-0 atom-2" d="M 295.4,130.5 L 280.1,156.9" style="fill:none;fill-rule:evenodd;stroke:#000000;stroke-width:2.0px;stroke-linecap:butt;stroke-linejoin:miter;stroke-opacity:1"/>
<path class="bond-2 atom-2 atom-3" d="M 267.5,166.0 L 249.0,166.0" style="fill:none;fill-rule:evenodd;stroke:#000000;stroke-width:2.0px;stroke-linecap:butt;stroke-linejoin:miter;stroke-opacity:1"/>
<path class="bond-2 atom-2 atom-3" d="M 249.0,166.0 L 230.5,166.0" style="fill:none;fill-rule:evenodd;stroke:#FF0000;stroke-width:2.0px;stroke-linecap:butt;stroke-linejoin:miter;stroke-opacity:1"/>
<path class="bond-3 atom-3 atom-4" d="M 218.0,157.0 L 210.3,143.7" style="fill:none;fill-rule:evenodd;stroke:#FF0000;stroke-width:2.0px;stroke-linecap:butt;stroke-linejoin:miter;stroke-opacity:1"/>
<path class="bond-3 atom-3 atom-4" d="M 210.3,143.7 L 202.6,130.5" style="fill:none;fill-rule:evenodd;stroke:#000000;stroke-width:2.0px;stroke-linecap:butt;stroke-linejoin:miter;stroke-opacity:1"/>
<path class="bond-4 atom-4 atom-5" d="M 181.9,121.2 L 167.1,121.2" style="fill:none;fill-rule:evenodd;stroke:#000000;stroke-width:2.0px;stroke-linecap:butt;stroke-linejoin:miter;stroke-opacity:1"/>
<path class="bond-4 atom-4 atom-5" d="M 167.1,121.2 L 152.3,121.2" style="fill:none;fill-rule:evenodd;stroke:#FF0000;stroke-width:2.0px;stroke-linecap:butt;stroke-linejoin:miter;stroke-opacity:1"/>
<path class="bond-5 atom-4 atom-6" d="M 202.4,112.2 L 217.8,85.7" style="fill:none;fill-rule:evenodd;stroke:#000000;stroke-width:2.0px;stroke-linecap:butt;stroke-linejoin:miter;stroke-opacity:1"/>
<path class="bond-6 atom-6 atom-7" d="M 217.9,67.2 L 210.2,54.1" style="fill:none;fill-rule:evenodd;stroke:#000000;stroke-width:2.0px;stroke-linecap:butt;stroke-linejoin:miter;stroke-opacity:1"/>
<path class="bond-6 atom-6 atom-7" d="M 210.2,54.1 L 202.6,40.9" style="fill:none;fill-rule:evenodd;stroke:#FF0000;stroke-width:2.0px;stroke-linecap:butt;stroke-linejoin:miter;stroke-opacity:1"/>
<path class="bond-7 atom-6 atom-8" d="M 238.3,76.4 L 259.6,76.4" style="fill:none;fill-rule:evenodd;stroke:#000000;stroke-width:2.0px;stroke-linecap:butt;stroke-linejoin:miter;stroke-opacity:1"/>
<path class="bond-8 atom-8 atom-9" d="M 280.1,67.2 L 287.7,54.1" style="fill:none;fill-rule:evenodd;stroke:#000000;stroke-width:2.0px;stroke-linecap:butt;stroke-linejoin:miter;stroke-opacity:1"/>
<path class="bond-8 atom-8 atom-9" d="M 287.7,54.1 L 295.4,40.9" style="fill:none;fill-rule:evenodd;stroke:#FF0000;stroke-width:2.0px;stroke-linecap:butt;stroke-linejoin:miter;stroke-opacity:1"/>
<path class="bond-9 atom-8 atom-0" d="M 280.3,85.7 L 295.5,112.1" style="fill:none;fill-rule:evenodd;stroke:#000000;stroke-width:2.0px;stroke-linecap:butt;stroke-linejoin:miter;stroke-opacity:1"/>
<path class="atom-0" d="M 287.7 121.2 Q 287.7 117.6, 289.4 115.7 Q 291.1 113.8, 294.4 113.8 Q 297.4 113.8, 299.0 115.9 L 297.6 117.0 Q 296.5 115.5, 294.4 115.5 Q 292.2 115.5, 291.0 117.0 Q 289.8 118.4, 289.8 121.2 Q 289.8 124.1, 291.0 125.6 Q 292.2 127.1, 294.6 127.1 Q 296.2 127.1, 298.1 126.1 L 298.7 127.7 Q 297.9 128.2, 296.8 128.5 Q 295.6 128.8, 294.3 128.8 Q 291.1 128.8, 289.4 126.8 Q 287.7 124.9, 287.7 121.2 " fill="#000000"/>
<path class="atom-0" d="M 300.6 126.2 L 302.7 126.2 L 302.7 128.2 L 300.6 128.2 L 300.6 126.2 M 300.6 119.0 L 302.7 119.0 L 302.7 121.1 L 300.6 121.1 L 300.6 119.0 " fill="#000000"/>
<path class="atom-0" d="M 305.8 126.9 L 309.0 126.9 L 309.0 116.0 L 305.4 117.1 L 304.9 115.9 L 309.4 113.8 L 310.9 114.1 L 310.9 126.9 L 313.8 126.9 L 313.8 128.6 L 305.8 128.6 L 305.8 126.9 " fill="#000000"/>
<path class="atom-1" d="M 345.8 121.2 Q 345.8 117.7, 347.5 115.7 Q 349.2 113.8, 352.5 113.8 Q 355.7 113.8, 357.5 115.7 Q 359.2 117.7, 359.2 121.2 Q 359.2 124.8, 357.5 126.8 Q 355.7 128.8, 352.5 128.8 Q 349.3 128.8, 347.5 126.8 Q 345.8 124.8, 345.8 121.2 M 352.5 127.2 Q 354.7 127.2, 355.9 125.7 Q 357.2 124.2, 357.2 121.2 Q 357.2 118.3, 355.9 116.9 Q 354.7 115.4, 352.5 115.4 Q 350.3 115.4, 349.0 116.9 Q 347.8 118.3, 347.8 121.2 Q 347.8 124.2, 349.0 125.7 Q 350.3 127.2, 352.5 127.2 " fill="#FF0000"/>
<path class="atom-1" d="M 361.2 126.2 L 363.3 126.2 L 363.3 128.2 L 361.2 128.2 L 361.2 126.2 M 361.2 119.0 L 363.3 119.0 L 363.3 121.1 L 361.2 121.1 L 361.2 119.0 " fill="#FF0000"/>
<path class="atom-1" d="M 370.7 113.8 Q 373.3 113.8, 374.6 115.5 Q 375.9 117.3, 375.9 120.8 Q 375.9 124.7, 374.3 126.7 Q 372.6 128.8, 369.5 128.8 Q 368.6 128.8, 367.8 128.5 Q 367.1 128.3, 366.3 127.9 L 367.1 126.5 Q 368.2 127.1, 369.5 127.1 Q 371.6 127.1, 372.6 125.8 Q 373.7 124.4, 373.8 121.7 Q 373.1 122.4, 372.1 122.7 Q 371.2 123.1, 370.2 123.1 Q 368.9 123.1, 367.9 122.5 Q 366.9 122.0, 366.3 120.9 Q 365.7 119.9, 365.7 118.7 Q 365.7 117.2, 366.4 116.1 Q 367.0 115.0, 368.1 114.4 Q 369.2 113.8, 370.7 113.8 M 367.8 118.6 Q 367.8 119.9, 368.5 120.7 Q 369.3 121.4, 370.5 121.4 Q 371.4 121.4, 372.3 121.1 Q 373.2 120.7, 373.8 120.1 Q 373.7 117.7, 373.0 116.6 Q 372.2 115.5, 370.6 115.5 Q 369.9 115.5, 369.2 115.9 Q 368.6 116.3, 368.2 117.0 Q 367.8 117.7, 367.8 118.6 " fill="#FF0000"/>
<path class="atom-1" d="M 378.2 113.9 L 380.2 113.9 L 380.2 120.2 L 387.7 120.2 L 387.7 113.9 L 389.7 113.9 L 389.7 128.6 L 387.7 128.6 L 387.7 121.8 L 380.2 121.8 L 380.2 128.6 L 378.2 128.6 L 378.2 113.9 " fill="#FF0000"/>
<path class="atom-2" d="M 269.2 166.1 Q 269.2 162.4, 270.9 160.5 Q 272.6 158.6, 275.9 158.6 Q 278.9 158.6, 280.5 160.7 L 279.2 161.8 Q 278.0 160.3, 275.9 160.3 Q 273.7 160.3, 272.5 161.8 Q 271.3 163.2, 271.3 166.1 Q 271.3 169.0, 272.5 170.4 Q 273.8 171.9, 276.1 171.9 Q 277.7 171.9, 279.6 171.0 L 280.2 172.5 Q 279.4 173.0, 278.3 173.3 Q 277.1 173.6, 275.8 173.6 Q 272.6 173.6, 270.9 171.6 Q 269.2 169.7, 269.2 166.1 " fill="#000000"/>
<path class="atom-2" d="M 282.1 171.0 L 284.2 171.0 L 284.2 173.0 L 282.1 173.0 L 282.1 171.0 M 282.1 163.9 L 284.2 163.9 L 284.2 165.9 L 282.1 165.9 L 282.1 163.9 " fill="#000000"/>
<path class="atom-2" d="M 286.6 161.5 Q 287.1 160.1, 288.4 159.4 Q 289.7 158.6, 291.4 158.6 Q 293.7 158.6, 294.9 159.8 Q 296.1 161.0, 296.1 163.1 Q 296.1 165.3, 294.5 167.3 Q 292.9 169.3, 289.6 171.7 L 296.4 171.7 L 296.4 173.4 L 286.5 173.4 L 286.5 172.0 Q 289.3 170.1, 290.9 168.6 Q 292.5 167.2, 293.3 165.9 Q 294.1 164.6, 294.1 163.2 Q 294.1 161.8, 293.4 161.0 Q 292.7 160.2, 291.4 160.2 Q 290.3 160.2, 289.5 160.7 Q 288.7 161.2, 288.1 162.2 L 286.6 161.5 " fill="#000000"/>
<path class="atom-3" d="M 197.6 166.0 Q 197.6 162.5, 199.3 160.5 Q 201.1 158.6, 204.3 158.6 Q 207.6 158.6, 209.3 160.5 Q 211.0 162.5, 211.0 166.0 Q 211.0 169.6, 209.3 171.6 Q 207.5 173.6, 204.3 173.6 Q 201.1 173.6, 199.3 171.6 Q 197.6 169.6, 197.6 166.0 M 204.3 172.0 Q 206.5 172.0, 207.7 170.5 Q 209.0 169.0, 209.0 166.0 Q 209.0 163.2, 207.7 161.7 Q 206.5 160.2, 204.3 160.2 Q 202.1 160.2, 200.9 161.7 Q 199.7 163.1, 199.7 166.0 Q 199.7 169.0, 200.9 170.5 Q 202.1 172.0, 204.3 172.0 " fill="#FF0000"/>
<path class="atom-3" d="M 213.0 171.0 L 215.0 171.0 L 215.0 173.0 L 213.0 173.0 L 213.0 171.0 M 213.0 163.9 L 215.0 163.9 L 215.0 165.9 L 213.0 165.9 L 213.0 163.9 " fill="#FF0000"/>
<path class="atom-3" d="M 227.0 168.4 L 228.8 168.4 L 228.8 170.0 L 227.0 170.0 L 227.0 173.4 L 225.1 173.4 L 225.1 170.0 L 217.5 170.0 L 217.5 168.7 L 223.9 158.7 L 227.0 158.7 L 227.0 168.4 M 219.9 168.4 L 225.1 168.4 L 225.1 160.1 L 219.9 168.4 " fill="#FF0000"/>
<path class="atom-4" d="M 183.6 121.2 Q 183.6 117.6, 185.3 115.7 Q 187.1 113.8, 190.3 113.8 Q 193.3 113.8, 194.9 115.9 L 193.6 117.0 Q 192.4 115.5, 190.3 115.5 Q 188.1 115.5, 186.9 117.0 Q 185.8 118.4, 185.8 121.2 Q 185.8 124.1, 187.0 125.6 Q 188.2 127.1, 190.5 127.1 Q 192.1 127.1, 194.0 126.1 L 194.6 127.7 Q 193.8 128.2, 192.7 128.5 Q 191.5 128.8, 190.2 128.8 Q 187.1 128.8, 185.3 126.8 Q 183.6 124.9, 183.6 121.2 " fill="#000000"/>
<path class="atom-4" d="M 196.5 126.2 L 198.6 126.2 L 198.6 128.2 L 196.5 128.2 L 196.5 126.2 M 196.5 119.0 L 198.6 119.0 L 198.6 121.1 L 196.5 121.1 L 196.5 119.0 " fill="#000000"/>
<path class="atom-4" d="M 206.3 119.4 Q 207.5 119.4, 208.6 120.0 Q 209.7 120.5, 210.3 121.5 Q 210.9 122.6, 210.9 123.9 Q 210.9 125.5, 210.1 126.6 Q 209.4 127.6, 208.2 128.2 Q 207.0 128.8, 205.6 128.8 Q 204.3 128.8, 203.0 128.3 Q 201.8 127.8, 200.9 126.8 L 202.2 125.5 Q 202.9 126.3, 203.8 126.7 Q 204.7 127.1, 205.7 127.1 Q 207.0 127.1, 207.9 126.3 Q 208.8 125.5, 208.8 124.0 Q 208.8 122.4, 207.9 121.7 Q 207.0 121.0, 205.6 121.0 Q 204.3 121.0, 202.9 121.5 L 201.7 121.0 L 202.4 113.9 L 210.0 113.9 L 209.7 115.6 L 204.1 115.6 L 203.7 119.9 Q 205.0 119.4, 206.3 119.4 " fill="#000000"/>
<path class="atom-5" d="M 106.3 113.9 L 108.3 113.9 L 108.3 120.2 L 115.8 120.2 L 115.8 113.9 L 117.8 113.9 L 117.8 128.6 L 115.8 128.6 L 115.8 121.8 L 108.3 121.8 L 108.3 128.6 L 106.3 128.6 L 106.3 113.9 " fill="#FF0000"/>
<path class="atom-5" d="M 120.5 121.2 Q 120.5 117.7, 122.2 115.7 Q 123.9 113.8, 127.2 113.8 Q 130.4 113.8, 132.2 115.7 Q 133.9 117.7, 133.9 121.2 Q 133.9 124.8, 132.1 126.8 Q 130.4 128.8, 127.2 128.8 Q 124.0 128.8, 122.2 126.8 Q 120.5 124.8, 120.5 121.2 M 127.2 127.2 Q 129.4 127.2, 130.6 125.7 Q 131.8 124.2, 131.8 121.2 Q 131.8 118.3, 130.6 116.9 Q 129.4 115.4, 127.2 115.4 Q 124.9 115.4, 123.7 116.9 Q 122.5 118.3, 122.5 121.2 Q 122.5 124.2, 123.7 125.7 Q 124.9 127.2, 127.2 127.2 " fill="#FF0000"/>
<path class="atom-5" d="M 135.9 126.2 L 137.9 126.2 L 137.9 128.2 L 135.9 128.2 L 135.9 126.2 M 135.9 119.0 L 137.9 119.0 L 137.9 121.1 L 135.9 121.1 L 135.9 119.0 " fill="#FF0000"/>
<path class="atom-5" d="M 146.2 119.4 Q 147.4 119.4, 148.5 120.0 Q 149.5 120.6, 150.0 121.6 Q 150.6 122.6, 150.6 123.9 Q 150.6 125.3, 149.9 126.4 Q 149.3 127.5, 148.2 128.1 Q 147.1 128.8, 145.7 128.8 Q 143.1 128.8, 141.7 127.0 Q 140.4 125.2, 140.4 121.7 Q 140.4 117.8, 142.0 115.8 Q 143.7 113.8, 146.8 113.8 Q 147.7 113.8, 148.5 114.0 Q 149.3 114.2, 150.0 114.6 L 149.2 116.0 Q 148.1 115.4, 146.8 115.4 Q 144.7 115.4, 143.7 116.8 Q 142.6 118.1, 142.5 120.8 Q 143.3 120.2, 144.2 119.8 Q 145.1 119.4, 146.2 119.4 M 145.7 127.1 Q 146.5 127.1, 147.1 126.6 Q 147.8 126.2, 148.1 125.5 Q 148.5 124.8, 148.5 123.9 Q 148.5 122.6, 147.8 121.8 Q 147.1 121.1, 145.8 121.1 Q 144.9 121.1, 144.0 121.5 Q 143.1 121.8, 142.5 122.4 Q 142.6 124.9, 143.4 126.0 Q 144.1 127.1, 145.7 127.1 " fill="#FF0000"/>
<path class="atom-6" d="M 209.6 76.4 Q 209.6 72.8, 211.3 70.9 Q 213.0 69.0, 216.3 69.0 Q 219.3 69.0, 220.9 71.1 L 219.6 72.2 Q 218.4 70.6, 216.3 70.6 Q 214.1 70.6, 212.9 72.1 Q 211.7 73.6, 211.7 76.4 Q 211.7 79.3, 212.9 80.8 Q 214.1 82.3, 216.5 82.3 Q 218.1 82.3, 220.0 81.3 L 220.6 82.9 Q 219.8 83.4, 218.7 83.7 Q 217.5 84.0, 216.2 84.0 Q 213.0 84.0, 211.3 82.0 Q 209.6 80.1, 209.6 76.4 " fill="#000000"/>
<path class="atom-6" d="M 222.5 81.3 L 224.6 81.3 L 224.6 83.4 L 222.5 83.4 L 222.5 81.3 M 222.5 74.2 L 224.6 74.2 L 224.6 76.3 L 222.5 76.3 L 222.5 74.2 " fill="#000000"/>
<path class="atom-6" d="M 234.6 70.8 L 226.9 70.8 L 226.9 69.1 L 236.6 69.1 L 236.6 70.6 L 230.7 83.8 L 228.7 83.8 L 234.6 70.8 " fill="#000000"/>
<path class="atom-7" d="M 157.9 24.3 L 159.9 24.3 L 159.9 30.5 L 167.4 30.5 L 167.4 24.3 L 169.4 24.3 L 169.4 39.0 L 167.4 39.0 L 167.4 32.2 L 159.9 32.2 L 159.9 39.0 L 157.9 39.0 L 157.9 24.3 " fill="#FF0000"/>
<path class="atom-7" d="M 172.1 31.6 Q 172.1 28.1, 173.8 26.1 Q 175.6 24.1, 178.8 24.1 Q 182.1 24.1, 183.8 26.1 Q 185.6 28.1, 185.6 31.6 Q 185.6 35.1, 183.8 37.2 Q 182.0 39.2, 178.8 39.2 Q 175.6 39.2, 173.8 37.2 Q 172.1 35.2, 172.1 31.6 M 178.8 37.5 Q 181.1 37.5, 182.3 36.0 Q 183.5 34.5, 183.5 31.6 Q 183.5 28.7, 182.3 27.3 Q 181.1 25.8, 178.8 25.8 Q 176.6 25.8, 175.4 27.2 Q 174.2 28.7, 174.2 31.6 Q 174.2 34.5, 175.4 36.0 Q 176.6 37.5, 178.8 37.5 " fill="#FF0000"/>
<path class="atom-7" d="M 187.5 36.5 L 189.6 36.5 L 189.6 38.6 L 187.5 38.6 L 187.5 36.5 M 187.5 29.4 L 189.6 29.4 L 189.6 31.5 L 187.5 31.5 L 187.5 29.4 " fill="#FF0000"/>
<path class="atom-7" d="M 199.5 31.2 Q 200.9 31.8, 201.7 32.6 Q 202.4 33.5, 202.4 34.9 Q 202.4 36.2, 201.8 37.2 Q 201.1 38.1, 200.0 38.6 Q 198.8 39.2, 197.3 39.2 Q 194.9 39.2, 193.5 38.0 Q 192.1 36.9, 192.1 34.9 Q 192.1 33.7, 192.7 32.9 Q 193.3 31.9, 194.6 31.3 Q 193.6 30.7, 193.1 29.9 Q 192.6 29.1, 192.6 27.9 Q 192.6 26.2, 193.9 25.2 Q 195.1 24.1, 197.3 24.1 Q 199.4 24.1, 200.6 25.2 Q 201.9 26.2, 201.9 27.9 Q 201.9 29.0, 201.3 29.8 Q 200.7 30.6, 199.5 31.2 M 197.3 25.7 Q 196.0 25.7, 195.3 26.3 Q 194.7 26.8, 194.7 27.9 Q 194.7 28.6, 195.1 29.2 Q 195.6 29.7, 196.2 30.0 Q 196.9 30.2, 198.2 30.7 Q 199.1 30.1, 199.4 29.4 Q 199.8 28.7, 199.8 27.9 Q 199.8 26.8, 199.1 26.3 Q 198.5 25.7, 197.3 25.7 M 197.3 37.6 Q 198.7 37.6, 199.5 36.9 Q 200.4 36.1, 200.4 34.9 Q 200.4 34.1, 199.9 33.6 Q 199.5 33.1, 198.8 32.9 Q 198.2 32.6, 197.0 32.2 L 196.1 31.9 Q 195.1 32.5, 194.6 33.2 Q 194.1 34.0, 194.1 34.9 Q 194.1 36.1, 195.0 36.9 Q 195.9 37.6, 197.3 37.6 " fill="#FF0000"/>
<path class="atom-8" d="M 261.3 76.4 Q 261.3 72.8, 263.0 70.9 Q 264.7 69.0, 268.0 69.0 Q 271.0 69.0, 272.6 71.1 L 271.2 72.2 Q 270.1 70.6, 268.0 70.6 Q 265.7 70.6, 264.6 72.1 Q 263.4 73.6, 263.4 76.4 Q 263.4 79.3, 264.6 80.8 Q 265.8 82.3, 268.2 82.3 Q 269.8 82.3, 271.7 81.3 L 272.3 82.9 Q 271.5 83.4, 270.3 83.7 Q 269.2 84.0, 267.9 84.0 Q 264.7 84.0, 263.0 82.0 Q 261.3 80.1, 261.3 76.4 " fill="#000000"/>
<path class="atom-8" d="M 274.2 81.3 L 276.3 81.3 L 276.3 83.4 L 274.2 83.4 L 274.2 81.3 M 274.2 74.2 L 276.3 74.2 L 276.3 76.3 L 274.2 76.3 L 274.2 74.2 " fill="#000000"/>
<path class="atom-8" d="M 285.6 76.1 Q 287.1 76.5, 287.7 77.4 Q 288.4 78.3, 288.4 79.8 Q 288.4 81.0, 287.8 82.0 Q 287.2 82.9, 286.1 83.5 Q 284.9 84.0, 283.4 84.0 Q 281.9 84.0, 280.7 83.4 Q 279.5 82.9, 278.6 81.8 L 279.8 80.6 Q 280.7 81.6, 281.5 81.9 Q 282.2 82.3, 283.4 82.3 Q 284.8 82.3, 285.6 81.6 Q 286.4 80.9, 286.4 79.7 Q 286.4 78.2, 285.5 77.6 Q 284.7 76.9, 282.9 76.9 L 281.8 76.9 L 281.8 75.4 L 282.8 75.4 Q 284.4 75.4, 285.2 74.7 Q 286.1 74.0, 286.1 72.7 Q 286.1 71.7, 285.4 71.2 Q 284.7 70.6, 283.5 70.6 Q 282.2 70.6, 281.5 71.0 Q 280.7 71.5, 280.1 72.6 L 278.7 71.8 Q 279.2 70.6, 280.5 69.8 Q 281.7 69.0, 283.5 69.0 Q 285.6 69.0, 286.9 70.0 Q 288.1 71.0, 288.1 72.7 Q 288.1 73.9, 287.5 74.7 Q 286.9 75.6, 285.6 76.1 " fill="#000000"/>
<path class="atom-9" d="M 294.0 31.6 Q 294.0 28.1, 295.8 26.1 Q 297.5 24.1, 300.7 24.1 Q 304.0 24.1, 305.7 26.1 Q 307.5 28.1, 307.5 31.6 Q 307.5 35.1, 305.7 37.2 Q 304.0 39.2, 300.7 39.2 Q 297.5 39.2, 295.8 37.2 Q 294.0 35.2, 294.0 31.6 M 300.7 37.5 Q 303.0 37.5, 304.2 36.0 Q 305.4 34.5, 305.4 31.6 Q 305.4 28.7, 304.2 27.3 Q 303.0 25.8, 300.7 25.8 Q 298.5 25.8, 297.3 27.2 Q 296.1 28.7, 296.1 31.6 Q 296.1 34.5, 297.3 36.0 Q 298.5 37.5, 300.7 37.5 " fill="#FF0000"/>
<path class="atom-9" d="M 309.4 36.5 L 311.5 36.5 L 311.5 38.6 L 309.4 38.6 L 309.4 36.5 M 309.4 29.4 L 311.5 29.4 L 311.5 31.5 L 309.4 31.5 L 309.4 29.4 " fill="#FF0000"/>
<path class="atom-9" d="M 314.8 37.3 L 318.0 37.3 L 318.0 26.4 L 314.5 27.4 L 314.0 26.2 L 318.5 24.2 L 320.0 24.5 L 320.0 37.3 L 322.8 37.3 L 322.8 39.0 L 314.8 39.0 L 314.8 37.3 " fill="#FF0000"/>
<path class="atom-9" d="M 330.0 39.1 Q 327.3 39.1, 326.0 37.1 Q 324.6 35.1, 324.6 31.6 Q 324.6 28.1, 326.0 26.1 Q 327.3 24.1, 330.0 24.1 Q 332.7 24.1, 334.0 26.1 Q 335.4 28.1, 335.4 31.6 Q 335.4 35.1, 334.0 37.1 Q 332.7 39.1, 330.0 39.1 M 330.0 37.5 Q 331.6 37.5, 332.4 36.0 Q 333.3 34.5, 333.3 31.6 Q 333.3 28.7, 332.4 27.3 Q 331.6 25.8, 330.0 25.8 Q 328.4 25.8, 327.6 27.3 Q 326.7 28.7, 326.7 31.6 Q 326.7 34.5, 327.6 36.0 Q 328.4 37.5, 330.0 37.5 " fill="#FF0000"/>
<path class="atom-9" d="M 337.6 24.3 L 339.6 24.3 L 339.6 30.5 L 347.1 30.5 L 347.1 24.3 L 349.1 24.3 L 349.1 39.0 L 347.1 39.0 L 347.1 32.2 L 339.6 32.2 L 339.6 39.0 L 337.6 39.0 L 337.6 24.3 " fill="#FF0000"/>
<path class="bond-10 atom-10 atom-11" d="M 583.9,99.4 L 604.9,96.0" style="fill:none;fill-rule:evenodd;stroke:#000000;stroke-width:2.0px;stroke-linecap:butt;stroke-linejoin:miter;stroke-opacity:1"/>
<path class="bond-11 atom-11 atom-12" d="M 635.5,98.9 L 656.4,119.7" style="fill:none;fill-rule:evenodd;stroke:#000000;stroke-width:2.0px;stroke-linecap:butt;stroke-linejoin:miter;stroke-opacity:1"/>
<path class="bond-12 atom-12 atom-13" d="M 663.6,140.5 L 661.2,155.7" style="fill:none;fill-rule:evenodd;stroke:#000000;stroke-width:2.0px;stroke-linecap:butt;stroke-linejoin:miter;stroke-opacity:1"/>
<path class="bond-12 atom-12 atom-13" d="M 661.2,155.7 L 658.8,170.8" style="fill:none;fill-rule:evenodd;stroke:#FF0000;stroke-width:2.0px;stroke-linecap:butt;stroke-linejoin:miter;stroke-opacity:1"/>
<path class="bond-13 atom-12 atom-14" d="M 680.8,121.0 L 704.2,109.1" style="fill:none;fill-rule:evenodd;stroke:#000000;stroke-width:2.0px;stroke-linecap:butt;stroke-linejoin:miter;stroke-opacity:1"/>
<path class="bond-14 atom-14 atom-15" d="M 729.5,114.5 L 739.4,119.5" style="fill:none;fill-rule:evenodd;stroke:#000000;stroke-width:2.0px;stroke-linecap:butt;stroke-linejoin:miter;stroke-opacity:1"/>
<path class="bond-14 atom-14 atom-15" d="M 739.4,119.5 L 749.3,124.5" style="fill:none;fill-rule:evenodd;stroke:#FF0000;stroke-width:2.0px;stroke-linecap:butt;stroke-linejoin:miter;stroke-opacity:1"/>
<path class="bond-15 atom-14 atom-16" d="M 710.1,96.2 L 705.0,63.5" style="fill:none;fill-rule:evenodd;stroke:#000000;stroke-width:2.0px;stroke-linecap:butt;stroke-linejoin:miter;stroke-opacity:1"/>
<path class="bond-16 atom-16 atom-17" d="M 710.8,46.9 L 721.2,36.5" style="fill:none;fill-rule:evenodd;stroke:#000000;stroke-width:2.0px;stroke-linecap:butt;stroke-linejoin:miter;stroke-opacity:1"/>
<path class="bond-16 atom-16 atom-17" d="M 721.2,36.5 L 731.6,26.1" style="fill:none;fill-rule:evenodd;stroke:#FF0000;stroke-width:2.0px;stroke-linecap:butt;stroke-linejoin:miter;stroke-opacity:1"/>
<path class="bond-17 atom-16 atom-18" d="M 696.1,53.1 L 677.9,50.2" style="fill:none;fill-rule:evenodd;stroke:#000000;stroke-width:2.0px;stroke-linecap:butt;stroke-linejoin:miter;stroke-opacity:1"/>
<path class="bond-17 atom-16 atom-18" d="M 677.9,50.2 L 659.7,47.3" style="fill:none;fill-rule:evenodd;stroke:#FF0000;stroke-width:2.0px;stroke-linecap:butt;stroke-linejoin:miter;stroke-opacity:1"/>
<path class="bond-18 atom-10 atom-19" d="M 571.6,92.8 L 561.8,80.6" style="fill:none;fill-rule:evenodd;stroke:#000000;stroke-width:2.0px;stroke-linecap:butt;stroke-linejoin:miter;stroke-opacity:1"/>
<path class="bond-18 atom-10 atom-19" d="M 561.8,80.6 L 552.0,68.5" style="fill:none;fill-rule:evenodd;stroke:#FF0000;stroke-width:2.0px;stroke-linecap:butt;stroke-linejoin:miter;stroke-opacity:1"/>
<path class="bond-19 atom-18 atom-11" d="M 647.7,55.3 L 640.6,69.2" style="fill:none;fill-rule:evenodd;stroke:#FF0000;stroke-width:2.0px;stroke-linecap:butt;stroke-linejoin:miter;stroke-opacity:1"/>
<path class="bond-19 atom-18 atom-11" d="M 640.6,69.2 L 633.5,83.1" style="fill:none;fill-rule:evenodd;stroke:#000000;stroke-width:2.0px;stroke-linecap:butt;stroke-linejoin:miter;stroke-opacity:1"/>
<path class="atom-0" d="M 556.1 100.4 Q 556.1 96.8, 557.8 94.9 Q 559.5 92.9, 562.8 92.9 Q 565.8 92.9, 567.4 95.1 L 566.1 96.2 Q 564.9 94.6, 562.8 94.6 Q 560.6 94.6, 559.4 96.1 Q 558.2 97.6, 558.2 100.4 Q 558.2 103.3, 559.4 104.8 Q 560.7 106.3, 563.0 106.3 Q 564.6 106.3, 566.5 105.3 L 567.1 106.9 Q 566.3 107.4, 565.2 107.7 Q 564.0 107.9, 562.7 107.9 Q 559.5 107.9, 557.8 106.0 Q 556.1 104.0, 556.1 100.4 " fill="#000000"/>
<path class="atom-0" d="M 569.0 105.3 L 571.1 105.3 L 571.1 107.4 L 569.0 107.4 L 569.0 105.3 M 569.0 98.2 L 571.1 98.2 L 571.1 100.3 L 569.0 100.3 L 569.0 98.2 " fill="#000000"/>
<path class="atom-0" d="M 574.2 106.1 L 577.4 106.1 L 577.4 95.1 L 573.8 96.2 L 573.4 95.0 L 577.8 93.0 L 579.3 93.3 L 579.3 106.1 L 582.2 106.1 L 582.2 107.8 L 574.2 107.8 L 574.2 106.1 " fill="#000000"/>
<path class="atom-1" d="M 606.6 92.3 Q 606.6 88.7, 608.3 86.8 Q 610.1 84.8, 613.3 84.8 Q 616.3 84.8, 617.9 87.0 L 616.6 88.1 Q 615.4 86.5, 613.3 86.5 Q 611.1 86.5, 609.9 88.0 Q 608.8 89.5, 608.8 92.3 Q 608.8 95.2, 610.0 96.7 Q 611.2 98.2, 613.5 98.2 Q 615.2 98.2, 617.0 97.2 L 617.6 98.8 Q 616.9 99.3, 615.7 99.6 Q 614.5 99.8, 613.2 99.8 Q 610.1 99.8, 608.3 97.9 Q 606.6 96.0, 606.6 92.3 " fill="#000000"/>
<path class="atom-1" d="M 619.6 97.2 L 621.6 97.2 L 621.6 99.3 L 619.6 99.3 L 619.6 97.2 M 619.6 90.1 L 621.6 90.1 L 621.6 92.2 L 619.6 92.2 L 619.6 90.1 " fill="#000000"/>
<path class="atom-1" d="M 624.0 87.8 Q 624.5 86.4, 625.8 85.6 Q 627.1 84.8, 628.9 84.8 Q 631.1 84.8, 632.3 86.0 Q 633.6 87.2, 633.6 89.4 Q 633.6 91.5, 632.0 93.6 Q 630.4 95.6, 627.1 98.0 L 633.8 98.0 L 633.8 99.7 L 623.9 99.7 L 623.9 98.3 Q 626.7 96.3, 628.3 94.9 Q 629.9 93.4, 630.7 92.1 Q 631.5 90.8, 631.5 89.5 Q 631.5 88.1, 630.8 87.3 Q 630.1 86.5, 628.9 86.5 Q 627.7 86.5, 626.9 87.0 Q 626.1 87.4, 625.6 88.5 L 624.0 87.8 " fill="#000000"/>
<path class="atom-2" d="M 651.9 128.9 Q 651.9 125.3, 653.6 123.3 Q 655.3 121.4, 658.6 121.4 Q 661.6 121.4, 663.2 123.6 L 661.8 124.7 Q 660.7 123.1, 658.6 123.1 Q 656.4 123.1, 655.2 124.6 Q 654.0 126.1, 654.0 128.9 Q 654.0 131.8, 655.2 133.3 Q 656.4 134.8, 658.8 134.8 Q 660.4 134.8, 662.3 133.8 L 662.9 135.4 Q 662.1 135.9, 660.9 136.1 Q 659.8 136.4, 658.5 136.4 Q 655.3 136.4, 653.6 134.5 Q 651.9 132.5, 651.9 128.9 " fill="#000000"/>
<path class="atom-2" d="M 664.8 133.8 L 666.9 133.8 L 666.9 135.9 L 664.8 135.9 L 664.8 133.8 M 664.8 126.7 L 666.9 126.7 L 666.9 128.8 L 664.8 128.8 L 664.8 126.7 " fill="#000000"/>
<path class="atom-2" d="M 676.2 128.5 Q 677.7 128.9, 678.4 129.9 Q 679.1 130.8, 679.1 132.2 Q 679.1 133.5, 678.4 134.4 Q 677.8 135.4, 676.7 135.9 Q 675.5 136.5, 674.0 136.5 Q 672.5 136.5, 671.3 135.9 Q 670.1 135.4, 669.2 134.2 L 670.4 133.0 Q 671.3 134.0, 672.1 134.4 Q 672.8 134.8, 674.0 134.8 Q 675.4 134.8, 676.2 134.1 Q 677.0 133.4, 677.0 132.2 Q 677.0 130.7, 676.1 130.1 Q 675.3 129.4, 673.5 129.4 L 672.5 129.4 L 672.5 127.9 L 673.4 127.9 Q 675.0 127.9, 675.8 127.2 Q 676.7 126.5, 676.7 125.2 Q 676.7 124.2, 676.0 123.7 Q 675.3 123.1, 674.1 123.1 Q 672.8 123.1, 672.1 123.5 Q 671.3 123.9, 670.8 125.0 L 669.3 124.3 Q 669.8 123.1, 671.1 122.3 Q 672.3 121.4, 674.1 121.4 Q 676.2 121.4, 677.5 122.4 Q 678.7 123.5, 678.7 125.2 Q 678.7 126.3, 678.1 127.2 Q 677.5 128.0, 676.2 128.5 " fill="#000000"/>
<path class="atom-3" d="M 650.7 180.0 Q 650.7 176.5, 652.4 174.5 Q 654.1 172.5, 657.4 172.5 Q 660.6 172.5, 662.4 174.5 Q 664.1 176.5, 664.1 180.0 Q 664.1 183.5, 662.4 185.6 Q 660.6 187.6, 657.4 187.6 Q 654.2 187.6, 652.4 185.6 Q 650.7 183.6, 650.7 180.0 M 657.4 185.9 Q 659.6 185.9, 660.8 184.4 Q 662.0 182.9, 662.0 180.0 Q 662.0 177.1, 660.8 175.7 Q 659.6 174.2, 657.4 174.2 Q 655.2 174.2, 653.9 175.6 Q 652.7 177.1, 652.7 180.0 Q 652.7 182.9, 653.9 184.4 Q 655.2 185.9, 657.4 185.9 " fill="#FF0000"/>
<path class="atom-3" d="M 666.1 184.9 L 668.2 184.9 L 668.2 187.0 L 666.1 187.0 L 666.1 184.9 M 666.1 177.8 L 668.2 177.8 L 668.2 179.9 L 666.1 179.9 L 666.1 177.8 " fill="#FF0000"/>
<path class="atom-3" d="M 671.4 185.7 L 674.7 185.7 L 674.7 174.7 L 671.1 175.8 L 670.6 174.6 L 675.1 172.6 L 676.6 172.9 L 676.6 185.7 L 679.5 185.7 L 679.5 187.4 L 671.4 187.4 L 671.4 185.7 " fill="#FF0000"/>
<path class="atom-3" d="M 686.6 187.5 Q 683.9 187.5, 682.6 185.5 Q 681.3 183.5, 681.3 180.0 Q 681.3 176.5, 682.6 174.5 Q 683.9 172.5, 686.6 172.5 Q 689.3 172.5, 690.7 174.5 Q 692.0 176.5, 692.0 180.0 Q 692.0 183.5, 690.7 185.5 Q 689.3 187.5, 686.6 187.5 M 686.6 185.9 Q 688.2 185.9, 689.1 184.4 Q 689.9 182.9, 689.9 180.0 Q 689.9 177.1, 689.1 175.7 Q 688.2 174.2, 686.6 174.2 Q 685.1 174.2, 684.2 175.7 Q 683.3 177.1, 683.3 180.0 Q 683.3 182.9, 684.2 184.4 Q 685.1 185.9, 686.6 185.9 " fill="#FF0000"/>
<path class="atom-3" d="M 694.3 172.7 L 696.3 172.7 L 696.3 178.9 L 703.8 178.9 L 703.8 172.7 L 705.7 172.7 L 705.7 187.4 L 703.8 187.4 L 703.8 180.6 L 696.3 180.6 L 696.3 187.4 L 694.3 187.4 L 694.3 172.7 " fill="#FF0000"/>
<path class="atom-4" d="M 705.9 105.4 Q 705.9 101.8, 707.6 99.9 Q 709.3 97.9, 712.6 97.9 Q 715.6 97.9, 717.2 100.1 L 715.9 101.2 Q 714.7 99.6, 712.6 99.6 Q 710.4 99.6, 709.2 101.1 Q 708.0 102.6, 708.0 105.4 Q 708.0 108.3, 709.2 109.8 Q 710.5 111.3, 712.8 111.3 Q 714.4 111.3, 716.3 110.3 L 716.9 111.9 Q 716.1 112.4, 715.0 112.6 Q 713.8 112.9, 712.5 112.9 Q 709.3 112.9, 707.6 111.0 Q 705.9 109.0, 705.9 105.4 " fill="#000000"/>
<path class="atom-4" d="M 718.8 110.3 L 720.9 110.3 L 720.9 112.4 L 718.8 112.4 L 718.8 110.3 M 718.8 103.2 L 720.9 103.2 L 720.9 105.3 L 718.8 105.3 L 718.8 103.2 " fill="#000000"/>
<path class="atom-4" d="M 730.9 99.7 L 723.2 99.7 L 723.2 98.1 L 733.0 98.1 L 733.0 99.6 L 727.0 112.7 L 725.0 112.7 L 730.9 99.7 " fill="#000000"/>
<path class="atom-5" d="M 751.0 128.9 Q 751.0 125.3, 752.7 123.4 Q 754.4 121.4, 757.7 121.4 Q 760.9 121.4, 762.7 123.4 Q 764.4 125.3, 764.4 128.9 Q 764.4 132.4, 762.7 134.5 Q 760.9 136.5, 757.7 136.5 Q 754.5 136.5, 752.7 134.5 Q 751.0 132.4, 751.0 128.9 M 757.7 134.8 Q 759.9 134.8, 761.1 133.3 Q 762.4 131.8, 762.4 128.9 Q 762.4 126.0, 761.1 124.5 Q 759.9 123.1, 757.7 123.1 Q 755.5 123.1, 754.2 124.5 Q 753.0 126.0, 753.0 128.9 Q 753.0 131.8, 754.2 133.3 Q 755.5 134.8, 757.7 134.8 " fill="#FF0000"/>
<path class="atom-5" d="M 766.4 133.8 L 768.5 133.8 L 768.5 135.9 L 766.4 135.9 L 766.4 133.8 M 766.4 126.7 L 768.5 126.7 L 768.5 128.8 L 766.4 128.8 L 766.4 126.7 " fill="#FF0000"/>
<path class="atom-5" d="M 778.4 128.5 Q 779.8 129.1, 780.5 129.9 Q 781.3 130.8, 781.3 132.2 Q 781.3 133.5, 780.7 134.4 Q 780.0 135.4, 778.9 135.9 Q 777.7 136.4, 776.2 136.4 Q 773.8 136.4, 772.4 135.3 Q 770.9 134.2, 770.9 132.2 Q 770.9 131.0, 771.6 130.1 Q 772.2 129.2, 773.5 128.5 Q 772.5 128.0, 772.0 127.2 Q 771.5 126.4, 771.5 125.2 Q 771.5 123.4, 772.7 122.4 Q 774.0 121.4, 776.1 121.4 Q 778.3 121.4, 779.5 122.4 Q 780.8 123.4, 780.8 125.2 Q 780.8 126.2, 780.2 127.0 Q 779.6 127.8, 778.4 128.5 M 776.1 123.0 Q 774.9 123.0, 774.2 123.5 Q 773.6 124.1, 773.6 125.2 Q 773.6 125.9, 774.0 126.4 Q 774.5 126.9, 775.1 127.2 Q 775.8 127.5, 777.0 128.0 Q 777.9 127.3, 778.3 126.7 Q 778.7 126.0, 778.7 125.2 Q 778.7 124.1, 778.0 123.5 Q 777.3 123.0, 776.1 123.0 M 776.2 134.9 Q 777.6 134.9, 778.4 134.2 Q 779.2 133.4, 779.2 132.2 Q 779.2 131.4, 778.8 130.9 Q 778.4 130.4, 777.7 130.1 Q 777.1 129.8, 775.9 129.5 L 775.0 129.2 Q 773.9 129.8, 773.5 130.5 Q 773.0 131.2, 773.0 132.2 Q 773.0 133.4, 773.9 134.2 Q 774.8 134.9, 776.2 134.9 " fill="#FF0000"/>
<path class="atom-5" d="M 783.5 121.6 L 785.5 121.6 L 785.5 127.8 L 793.0 127.8 L 793.0 121.6 L 795.0 121.6 L 795.0 136.2 L 793.0 136.2 L 793.0 129.5 L 785.5 129.5 L 785.5 136.2 L 783.5 136.2 L 783.5 121.6 " fill="#FF0000"/>
<path class="atom-6" d="M 697.8 54.3 Q 697.8 50.6, 699.5 48.7 Q 701.3 46.8, 704.5 46.8 Q 707.5 46.8, 709.1 48.9 L 707.8 50.1 Q 706.6 48.5, 704.5 48.5 Q 702.3 48.5, 701.1 50.0 Q 699.9 51.5, 699.9 54.3 Q 699.9 57.2, 701.1 58.7 Q 702.4 60.2, 704.7 60.2 Q 706.3 60.2, 708.2 59.2 L 708.8 60.7 Q 708.0 61.2, 706.9 61.5 Q 705.7 61.8, 704.4 61.8 Q 701.3 61.8, 699.5 59.9 Q 697.8 57.9, 697.8 54.3 " fill="#000000"/>
<path class="atom-6" d="M 710.7 59.2 L 712.8 59.2 L 712.8 61.3 L 710.7 61.3 L 710.7 59.2 M 710.7 52.1 L 712.8 52.1 L 712.8 54.2 L 710.7 54.2 L 710.7 52.1 " fill="#000000"/>
<path class="atom-6" d="M 720.5 52.5 Q 721.7 52.5, 722.8 53.0 Q 723.9 53.6, 724.5 54.6 Q 725.1 55.6, 725.1 57.0 Q 725.1 58.5, 724.3 59.6 Q 723.6 60.7, 722.4 61.2 Q 721.2 61.8, 719.8 61.8 Q 718.5 61.8, 717.2 61.3 Q 716.0 60.8, 715.1 59.9 L 716.4 58.6 Q 717.1 59.3, 718.0 59.7 Q 718.9 60.1, 719.9 60.1 Q 721.2 60.1, 722.1 59.3 Q 723.0 58.5, 723.0 57.0 Q 723.0 55.5, 722.1 54.8 Q 721.2 54.0, 719.8 54.0 Q 718.5 54.0, 717.0 54.6 L 715.9 54.0 L 716.6 47.0 L 724.1 47.0 L 723.9 48.6 L 718.3 48.6 L 717.9 53.0 Q 719.2 52.5, 720.5 52.5 " fill="#000000"/>
<path class="atom-7" d="M 733.3 17.7 Q 733.3 14.2, 735.1 12.2 Q 736.8 10.2, 740.1 10.2 Q 743.3 10.2, 745.1 12.2 Q 746.8 14.2, 746.8 17.7 Q 746.8 21.2, 745.0 23.3 Q 743.3 25.3, 740.1 25.3 Q 736.8 25.3, 735.1 23.3 Q 733.3 21.3, 733.3 17.7 M 740.1 23.6 Q 742.3 23.6, 743.5 22.1 Q 744.7 20.6, 744.7 17.7 Q 744.7 14.8, 743.5 13.3 Q 742.3 11.9, 740.1 11.9 Q 737.8 11.9, 736.6 13.3 Q 735.4 14.8, 735.4 17.7 Q 735.4 20.6, 736.6 22.1 Q 737.8 23.6, 740.1 23.6 " fill="#FF0000"/>
<path class="atom-7" d="M 748.8 22.6 L 750.8 22.6 L 750.8 24.7 L 748.8 24.7 L 748.8 22.6 M 748.8 15.5 L 750.8 15.5 L 750.8 17.6 L 748.8 17.6 L 748.8 15.5 " fill="#FF0000"/>
<path class="atom-7" d="M 759.0 15.9 Q 760.3 15.9, 761.3 16.5 Q 762.4 17.0, 762.9 18.0 Q 763.5 19.0, 763.5 20.3 Q 763.5 21.8, 762.8 22.9 Q 762.2 24.0, 761.1 24.6 Q 760.0 25.2, 758.6 25.2 Q 755.9 25.2, 754.6 23.4 Q 753.3 21.7, 753.3 18.2 Q 753.3 14.3, 754.9 12.3 Q 756.6 10.2, 759.7 10.2 Q 760.6 10.2, 761.4 10.4 Q 762.2 10.6, 762.9 11.1 L 762.1 12.5 Q 761.0 11.9, 759.7 11.9 Q 757.6 11.9, 756.6 13.2 Q 755.5 14.5, 755.4 17.3 Q 756.2 16.6, 757.1 16.3 Q 758.0 15.9, 759.0 15.9 M 758.6 23.5 Q 759.4 23.5, 760.0 23.1 Q 760.7 22.7, 761.0 22.0 Q 761.4 21.2, 761.4 20.3 Q 761.4 19.0, 760.7 18.3 Q 760.0 17.6, 758.7 17.6 Q 757.8 17.6, 756.9 17.9 Q 756.0 18.3, 755.4 18.9 Q 755.5 21.3, 756.3 22.4 Q 757.0 23.5, 758.6 23.5 " fill="#FF0000"/>
<path class="atom-7" d="M 765.5 10.4 L 767.5 10.4 L 767.5 16.6 L 775.0 16.6 L 775.0 10.4 L 777.0 10.4 L 777.0 25.0 L 775.0 25.0 L 775.0 18.3 L 767.5 18.3 L 767.5 25.0 L 765.5 25.0 L 765.5 10.4 " fill="#FF0000"/>
<path class="atom-8" d="M 626.8 46.2 Q 626.8 42.7, 628.6 40.7 Q 630.3 38.7, 633.6 38.7 Q 636.8 38.7, 638.6 40.7 Q 640.3 42.7, 640.3 46.2 Q 640.3 49.7, 638.5 51.8 Q 636.8 53.8, 633.6 53.8 Q 630.3 53.8, 628.6 51.8 Q 626.8 49.8, 626.8 46.2 M 633.6 52.1 Q 635.8 52.1, 637.0 50.6 Q 638.2 49.1, 638.2 46.2 Q 638.2 43.3, 637.0 41.9 Q 635.8 40.4, 633.6 40.4 Q 631.3 40.4, 630.1 41.8 Q 628.9 43.3, 628.9 46.2 Q 628.9 49.1, 630.1 50.6 Q 631.3 52.1, 633.6 52.1 " fill="#FF0000"/>
<path class="atom-8" d="M 642.2 51.1 L 644.3 51.1 L 644.3 53.2 L 642.2 53.2 L 642.2 51.1 M 642.2 44.0 L 644.3 44.0 L 644.3 46.1 L 642.2 46.1 L 642.2 44.0 " fill="#FF0000"/>
<path class="atom-8" d="M 656.3 48.5 L 658.0 48.5 L 658.0 50.2 L 656.3 50.2 L 656.3 53.5 L 654.3 53.5 L 654.3 50.2 L 646.7 50.2 L 646.7 48.9 L 653.2 38.9 L 656.3 38.9 L 656.3 48.5 M 649.1 48.5 L 654.3 48.5 L 654.3 40.2 L 649.1 48.5 " fill="#FF0000"/>
<path class="atom-9" d="M 506.0 52.9 L 508.0 52.9 L 508.0 59.1 L 515.5 59.1 L 515.5 52.9 L 517.5 52.9 L 517.5 67.5 L 515.5 67.5 L 515.5 60.8 L 508.0 60.8 L 508.0 67.5 L 506.0 67.5 L 506.0 52.9 " fill="#FF0000"/>
<path class="atom-9" d="M 520.2 60.2 Q 520.2 56.7, 521.9 54.7 Q 523.6 52.7, 526.9 52.7 Q 530.1 52.7, 531.9 54.7 Q 533.6 56.7, 533.6 60.2 Q 533.6 63.7, 531.9 65.8 Q 530.1 67.8, 526.9 67.8 Q 523.7 67.8, 521.9 65.8 Q 520.2 63.8, 520.2 60.2 M 526.9 66.1 Q 529.1 66.1, 530.3 64.6 Q 531.5 63.1, 531.5 60.2 Q 531.5 57.3, 530.3 55.8 Q 529.1 54.4, 526.9 54.4 Q 524.6 54.4, 523.4 55.8 Q 522.2 57.3, 522.2 60.2 Q 522.2 63.1, 523.4 64.6 Q 524.6 66.1, 526.9 66.1 " fill="#FF0000"/>
<path class="atom-9" d="M 535.6 65.1 L 537.6 65.1 L 537.6 67.2 L 535.6 67.2 L 535.6 65.1 M 535.6 58.0 L 537.6 58.0 L 537.6 60.1 L 535.6 60.1 L 535.6 58.0 " fill="#FF0000"/>
<path class="atom-9" d="M 545.1 52.7 Q 547.7 52.7, 549.0 54.5 Q 550.3 56.3, 550.3 59.8 Q 550.3 63.7, 548.7 65.7 Q 547.0 67.7, 543.9 67.7 Q 543.0 67.7, 542.2 67.5 Q 541.4 67.3, 540.7 66.9 L 541.5 65.5 Q 542.6 66.1, 543.9 66.1 Q 546.0 66.1, 547.0 64.7 Q 548.1 63.4, 548.2 60.6 Q 547.5 61.3, 546.5 61.7 Q 545.6 62.0, 544.6 62.0 Q 543.3 62.0, 542.3 61.5 Q 541.2 60.9, 540.7 59.9 Q 540.1 58.9, 540.1 57.6 Q 540.1 56.2, 540.7 55.1 Q 541.4 54.0, 542.5 53.3 Q 543.6 52.7, 545.1 52.7 M 542.2 57.6 Q 542.2 58.9, 542.9 59.6 Q 543.6 60.4, 544.9 60.4 Q 545.8 60.4, 546.7 60.0 Q 547.6 59.7, 548.2 59.0 Q 548.1 56.6, 547.3 55.5 Q 546.6 54.4, 545.0 54.4 Q 544.2 54.4, 543.6 54.8 Q 542.9 55.2, 542.6 56.0 Q 542.2 56.7, 542.2 57.6 " fill="#FF0000"/>
<path d="M 409.0,100.0 L 487.0,100.0" style="fill:none;fill-rule:evenodd;stroke:#000000;stroke-width:2.0px;stroke-linecap:butt;stroke-linejoin:miter;stroke-opacity:1"/>
<path d="M 487.0,100.0 L 482.0,102.9" style="fill:none;fill-rule:evenodd;stroke:#000000;stroke-width:2.0px;stroke-linecap:butt;stroke-linejoin:miter;stroke-opacity:1"/>
<path d="M 487.0,100.0 L 482.0,97.1" style="fill:none;fill-rule:evenodd;stroke:#000000;stroke-width:2.0px;stroke-linecap:butt;stroke-linejoin:miter;stroke-opacity:1"/>
</svg>