<?xml version="1.0" encoding="utf-8" standalone="no"?>
<!DOCTYPE svg PUBLIC "-//W3C//DTD SVG 1.1//EN"
  "http://www.w3.org/Graphics/SVG/1.1/DTD/svg11.dtd">
<svg xmlns:xlink="http://www.w3.org/1999/xlink" width="489.6pt" height="504pt" viewBox="0 0 489.6 504" xmlns="http://www.w3.org/2000/svg" version="1.1">
 <metadata>
  <rdf:RDF xmlns:dc="http://purl.org/dc/elements/1.1/" xmlns:cc="http://creativecommons.org/ns#" xmlns:rdf="http://www.w3.org/1999/02/22-rdf-syntax-ns#">
   <cc:Work>
    <dc:type rdf:resource="http://purl.org/dc/dcmitype/StillImage"/>
    <dc:date>2025-11-10T10:06:46.756047</dc:date>
    <dc:format>image/svg+xml</dc:format>
    <dc:creator>
     <cc:Agent>
      <dc:title>Matplotlib v3.10.1, https://matplotlib.org/</dc:title>
     </cc:Agent>
    </dc:creator>
   </cc:Work>
  </rdf:RDF>
 </metadata>
 <defs>
  <style type="text/css">*{stroke-linejoin: round; stroke-linecap: butt}</style>
 </defs>
 <g id="figure_1">
  <g id="patch_1">
   <path d="M 0 504 
L 489.6 504 
L 489.6 0 
L 0 0 
z
" style="fill: #ffffff"/>
  </g>
  <g id="axes_1">
   <g id="patch_2">
    <path d="M 64.880202 450.52 
L 474.48 450.52 
L 474.48 15.12 
L 64.880202 15.12 
z
" style="fill: #ffffff"/>
   </g>
   <g id="matplotlib.axis_1">
    <g id="xtick_1">
     <g id="line2d_1">
      <defs>
       <path id="md28e536b04" d="M 0 0 
L 0 3.5 
" style="stroke: #000000; stroke-width: 0.8"/>
      </defs>
      <g>
       <use xlink:href="#md28e536b04" x="64.880202" y="450.52" style="stroke: #000000; stroke-width: 0.8"/>
      </g>
     </g>
     <g id="text_1">
      <!-- 0.0 -->
      <g transform="translate(53.748014 468.157812) scale(0.14 -0.14)">
       <defs>
        <path id="DejaVuSans-30" d="M 2034 4250 
Q 1547 4250 1301 3770 
Q 1056 3291 1056 2328 
Q 1056 1369 1301 889 
Q 1547 409 2034 409 
Q 2525 409 2770 889 
Q 3016 1369 3016 2328 
Q 3016 3291 2770 3770 
Q 2525 4250 2034 4250 
z
M 2034 4750 
Q 2819 4750 3233 4129 
Q 3647 3509 3647 2328 
Q 3647 1150 3233 529 
Q 2819 -91 2034 -91 
Q 1250 -91 836 529 
Q 422 1150 422 2328 
Q 422 3509 836 4129 
Q 1250 4750 2034 4750 
z
" transform="scale(0.015625)"/>
        <path id="DejaVuSans-2e" d="M 684 794 
L 1344 794 
L 1344 0 
L 684 0 
L 684 794 
z
" transform="scale(0.015625)"/>
       </defs>
       <use xlink:href="#DejaVuSans-30"/>
       <use xlink:href="#DejaVuSans-2e" transform="translate(63.623047 0)"/>
       <use xlink:href="#DejaVuSans-30" transform="translate(95.410156 0)"/>
      </g>
     </g>
    </g>
    <g id="xtick_2">
     <g id="line2d_2">
      <g>
       <use xlink:href="#md28e536b04" x="139.352892" y="450.52" style="stroke: #000000; stroke-width: 0.8"/>
      </g>
     </g>
     <g id="text_2">
      <!-- 0.1 -->
      <g transform="translate(128.220705 468.157812) scale(0.14 -0.14)">
       <defs>
        <path id="DejaVuSans-31" d="M 794 531 
L 1825 531 
L 1825 4091 
L 703 3866 
L 703 4441 
L 1819 4666 
L 2450 4666 
L 2450 531 
L 3481 531 
L 3481 0 
L 794 0 
L 794 531 
z
" transform="scale(0.015625)"/>
       </defs>
       <use xlink:href="#DejaVuSans-30"/>
       <use xlink:href="#DejaVuSans-2e" transform="translate(63.623047 0)"/>
       <use xlink:href="#DejaVuSans-31" transform="translate(95.410156 0)"/>
      </g>
     </g>
    </g>
    <g id="xtick_3">
     <g id="line2d_3">
      <g>
       <use xlink:href="#md28e536b04" x="213.825583" y="450.52" style="stroke: #000000; stroke-width: 0.8"/>
      </g>
     </g>
     <g id="text_3">
      <!-- 0.2 -->
      <g transform="translate(202.693395 468.157812) scale(0.14 -0.14)">
       <defs>
        <path id="DejaVuSans-32" d="M 1228 531 
L 3431 531 
L 3431 0 
L 469 0 
L 469 531 
Q 828 903 1448 1529 
Q 2069 2156 2228 2338 
Q 2531 2678 2651 2914 
Q 2772 3150 2772 3378 
Q 2772 3750 2511 3984 
Q 2250 4219 1831 4219 
Q 1534 4219 1204 4116 
Q 875 4013 500 3803 
L 500 4441 
Q 881 4594 1212 4672 
Q 1544 4750 1819 4750 
Q 2544 4750 2975 4387 
Q 3406 4025 3406 3419 
Q 3406 3131 3298 2873 
Q 3191 2616 2906 2266 
Q 2828 2175 2409 1742 
Q 1991 1309 1228 531 
z
" transform="scale(0.015625)"/>
       </defs>
       <use xlink:href="#DejaVuSans-30"/>
       <use xlink:href="#DejaVuSans-2e" transform="translate(63.623047 0)"/>
       <use xlink:href="#DejaVuSans-32" transform="translate(95.410156 0)"/>
      </g>
     </g>
    </g>
    <g id="xtick_4">
     <g id="line2d_4">
      <g>
       <use xlink:href="#md28e536b04" x="288.298273" y="450.52" style="stroke: #000000; stroke-width: 0.8"/>
      </g>
     </g>
     <g id="text_4">
      <!-- 0.3 -->
      <g transform="translate(277.166086 468.157812) scale(0.14 -0.14)">
       <defs>
        <path id="DejaVuSans-33" d="M 2597 2516 
Q 3050 2419 3304 2112 
Q 3559 1806 3559 1356 
Q 3559 666 3084 287 
Q 2609 -91 1734 -91 
Q 1441 -91 1130 -33 
Q 819 25 488 141 
L 488 750 
Q 750 597 1062 519 
Q 1375 441 1716 441 
Q 2309 441 2620 675 
Q 2931 909 2931 1356 
Q 2931 1769 2642 2001 
Q 2353 2234 1838 2234 
L 1294 2234 
L 1294 2753 
L 1863 2753 
Q 2328 2753 2575 2939 
Q 2822 3125 2822 3475 
Q 2822 3834 2567 4026 
Q 2313 4219 1838 4219 
Q 1578 4219 1281 4162 
Q 984 4106 628 3988 
L 628 4550 
Q 988 4650 1302 4700 
Q 1616 4750 1894 4750 
Q 2613 4750 3031 4423 
Q 3450 4097 3450 3541 
Q 3450 3153 3228 2886 
Q 3006 2619 2597 2516 
z
" transform="scale(0.015625)"/>
       </defs>
       <use xlink:href="#DejaVuSans-30"/>
       <use xlink:href="#DejaVuSans-2e" transform="translate(63.623047 0)"/>
       <use xlink:href="#DejaVuSans-33" transform="translate(95.410156 0)"/>
      </g>
     </g>
    </g>
    <g id="xtick_5">
     <g id="line2d_5">
      <g>
       <use xlink:href="#md28e536b04" x="362.770964" y="450.52" style="stroke: #000000; stroke-width: 0.8"/>
      </g>
     </g>
     <g id="text_5">
      <!-- 0.4 -->
      <g transform="translate(351.638777 468.157812) scale(0.14 -0.14)">
       <defs>
        <path id="DejaVuSans-34" d="M 2419 4116 
L 825 1625 
L 2419 1625 
L 2419 4116 
z
M 2253 4666 
L 3047 4666 
L 3047 1625 
L 3713 1625 
L 3713 1100 
L 3047 1100 
L 3047 0 
L 2419 0 
L 2419 1100 
L 313 1100 
L 313 1709 
L 2253 4666 
z
" transform="scale(0.015625)"/>
       </defs>
       <use xlink:href="#DejaVuSans-30"/>
       <use xlink:href="#DejaVuSans-2e" transform="translate(63.623047 0)"/>
       <use xlink:href="#DejaVuSans-34" transform="translate(95.410156 0)"/>
      </g>
     </g>
    </g>
    <g id="xtick_6">
     <g id="line2d_6">
      <g>
       <use xlink:href="#md28e536b04" x="437.243655" y="450.52" style="stroke: #000000; stroke-width: 0.8"/>
      </g>
     </g>
     <g id="text_6">
      <!-- 0.5 -->
      <g transform="translate(426.111467 468.157812) scale(0.14 -0.14)">
       <defs>
        <path id="DejaVuSans-35" d="M 691 4666 
L 3169 4666 
L 3169 4134 
L 1269 4134 
L 1269 2991 
Q 1406 3038 1543 3061 
Q 1681 3084 1819 3084 
Q 2600 3084 3056 2656 
Q 3513 2228 3513 1497 
Q 3513 744 3044 326 
Q 2575 -91 1722 -91 
Q 1428 -91 1123 -41 
Q 819 9 494 109 
L 494 744 
Q 775 591 1075 516 
Q 1375 441 1709 441 
Q 2250 441 2565 725 
Q 2881 1009 2881 1497 
Q 2881 1984 2565 2268 
Q 2250 2553 1709 2553 
Q 1456 2553 1204 2497 
Q 953 2441 691 2322 
L 691 4666 
z
" transform="scale(0.015625)"/>
       </defs>
       <use xlink:href="#DejaVuSans-30"/>
       <use xlink:href="#DejaVuSans-2e" transform="translate(63.623047 0)"/>
       <use xlink:href="#DejaVuSans-35" transform="translate(95.410156 0)"/>
      </g>
     </g>
    </g>
    <g id="text_7">
     <!-- Fraction of DORA-XGB feasible reactions -->
     <g transform="translate(129.209788 485.707187) scale(0.14 -0.14)">
      <defs>
       <path id="DejaVuSans-46" d="M 628 4666 
L 3309 4666 
L 3309 4134 
L 1259 4134 
L 1259 2759 
L 3109 2759 
L 3109 2228 
L 1259 2228 
L 1259 0 
L 628 0 
L 628 4666 
z
" transform="scale(0.015625)"/>
       <path id="DejaVuSans-72" d="M 2631 2963 
Q 2534 3019 2420 3045 
Q 2306 3072 2169 3072 
Q 1681 3072 1420 2755 
Q 1159 2438 1159 1844 
L 1159 0 
L 581 0 
L 581 3500 
L 1159 3500 
L 1159 2956 
Q 1341 3275 1631 3429 
Q 1922 3584 2338 3584 
Q 2397 3584 2469 3576 
Q 2541 3569 2628 3553 
L 2631 2963 
z
" transform="scale(0.015625)"/>
       <path id="DejaVuSans-61" d="M 2194 1759 
Q 1497 1759 1228 1600 
Q 959 1441 959 1056 
Q 959 750 1161 570 
Q 1363 391 1709 391 
Q 2188 391 2477 730 
Q 2766 1069 2766 1631 
L 2766 1759 
L 2194 1759 
z
M 3341 1997 
L 3341 0 
L 2766 0 
L 2766 531 
Q 2569 213 2275 61 
Q 1981 -91 1556 -91 
Q 1019 -91 701 211 
Q 384 513 384 1019 
Q 384 1609 779 1909 
Q 1175 2209 1959 2209 
L 2766 2209 
L 2766 2266 
Q 2766 2663 2505 2880 
Q 2244 3097 1772 3097 
Q 1472 3097 1187 3025 
Q 903 2953 641 2809 
L 641 3341 
Q 956 3463 1253 3523 
Q 1550 3584 1831 3584 
Q 2591 3584 2966 3190 
Q 3341 2797 3341 1997 
z
" transform="scale(0.015625)"/>
       <path id="DejaVuSans-63" d="M 3122 3366 
L 3122 2828 
Q 2878 2963 2633 3030 
Q 2388 3097 2138 3097 
Q 1578 3097 1268 2742 
Q 959 2388 959 1747 
Q 959 1106 1268 751 
Q 1578 397 2138 397 
Q 2388 397 2633 464 
Q 2878 531 3122 666 
L 3122 134 
Q 2881 22 2623 -34 
Q 2366 -91 2075 -91 
Q 1284 -91 818 406 
Q 353 903 353 1747 
Q 353 2603 823 3093 
Q 1294 3584 2113 3584 
Q 2378 3584 2631 3529 
Q 2884 3475 3122 3366 
z
" transform="scale(0.015625)"/>
       <path id="DejaVuSans-74" d="M 1172 4494 
L 1172 3500 
L 2356 3500 
L 2356 3053 
L 1172 3053 
L 1172 1153 
Q 1172 725 1289 603 
Q 1406 481 1766 481 
L 2356 481 
L 2356 0 
L 1766 0 
Q 1100 0 847 248 
Q 594 497 594 1153 
L 594 3053 
L 172 3053 
L 172 3500 
L 594 3500 
L 594 4494 
L 1172 4494 
z
" transform="scale(0.015625)"/>
       <path id="DejaVuSans-69" d="M 603 3500 
L 1178 3500 
L 1178 0 
L 603 0 
L 603 3500 
z
M 603 4863 
L 1178 4863 
L 1178 4134 
L 603 4134 
L 603 4863 
z
" transform="scale(0.015625)"/>
       <path id="DejaVuSans-6f" d="M 1959 3097 
Q 1497 3097 1228 2736 
Q 959 2375 959 1747 
Q 959 1119 1226 758 
Q 1494 397 1959 397 
Q 2419 397 2687 759 
Q 2956 1122 2956 1747 
Q 2956 2369 2687 2733 
Q 2419 3097 1959 3097 
z
M 1959 3584 
Q 2709 3584 3137 3096 
Q 3566 2609 3566 1747 
Q 3566 888 3137 398 
Q 2709 -91 1959 -91 
Q 1206 -91 779 398 
Q 353 888 353 1747 
Q 353 2609 779 3096 
Q 1206 3584 1959 3584 
z
" transform="scale(0.015625)"/>
       <path id="DejaVuSans-6e" d="M 3513 2113 
L 3513 0 
L 2938 0 
L 2938 2094 
Q 2938 2591 2744 2837 
Q 2550 3084 2163 3084 
Q 1697 3084 1428 2787 
Q 1159 2491 1159 1978 
L 1159 0 
L 581 0 
L 581 3500 
L 1159 3500 
L 1159 2956 
Q 1366 3272 1645 3428 
Q 1925 3584 2291 3584 
Q 2894 3584 3203 3211 
Q 3513 2838 3513 2113 
z
" transform="scale(0.015625)"/>
       <path id="DejaVuSans-20" transform="scale(0.015625)"/>
       <path id="DejaVuSans-66" d="M 2375 4863 
L 2375 4384 
L 1825 4384 
Q 1516 4384 1395 4259 
Q 1275 4134 1275 3809 
L 1275 3500 
L 2222 3500 
L 2222 3053 
L 1275 3053 
L 1275 0 
L 697 0 
L 697 3053 
L 147 3053 
L 147 3500 
L 697 3500 
L 697 3744 
Q 697 4328 969 4595 
Q 1241 4863 1831 4863 
L 2375 4863 
z
" transform="scale(0.015625)"/>
       <path id="DejaVuSans-44" d="M 1259 4147 
L 1259 519 
L 2022 519 
Q 2988 519 3436 956 
Q 3884 1394 3884 2338 
Q 3884 3275 3436 3711 
Q 2988 4147 2022 4147 
L 1259 4147 
z
M 628 4666 
L 1925 4666 
Q 3281 4666 3915 4102 
Q 4550 3538 4550 2338 
Q 4550 1131 3912 565 
Q 3275 0 1925 0 
L 628 0 
L 628 4666 
z
" transform="scale(0.015625)"/>
       <path id="DejaVuSans-4f" d="M 2522 4238 
Q 1834 4238 1429 3725 
Q 1025 3213 1025 2328 
Q 1025 1447 1429 934 
Q 1834 422 2522 422 
Q 3209 422 3611 934 
Q 4013 1447 4013 2328 
Q 4013 3213 3611 3725 
Q 3209 4238 2522 4238 
z
M 2522 4750 
Q 3503 4750 4090 4092 
Q 4678 3434 4678 2328 
Q 4678 1225 4090 567 
Q 3503 -91 2522 -91 
Q 1538 -91 948 565 
Q 359 1222 359 2328 
Q 359 3434 948 4092 
Q 1538 4750 2522 4750 
z
" transform="scale(0.015625)"/>
       <path id="DejaVuSans-52" d="M 2841 2188 
Q 3044 2119 3236 1894 
Q 3428 1669 3622 1275 
L 4263 0 
L 3584 0 
L 2988 1197 
Q 2756 1666 2539 1819 
Q 2322 1972 1947 1972 
L 1259 1972 
L 1259 0 
L 628 0 
L 628 4666 
L 2053 4666 
Q 2853 4666 3247 4331 
Q 3641 3997 3641 3322 
Q 3641 2881 3436 2590 
Q 3231 2300 2841 2188 
z
M 1259 4147 
L 1259 2491 
L 2053 2491 
Q 2509 2491 2742 2702 
Q 2975 2913 2975 3322 
Q 2975 3731 2742 3939 
Q 2509 4147 2053 4147 
L 1259 4147 
z
" transform="scale(0.015625)"/>
       <path id="DejaVuSans-41" d="M 2188 4044 
L 1331 1722 
L 3047 1722 
L 2188 4044 
z
M 1831 4666 
L 2547 4666 
L 4325 0 
L 3669 0 
L 3244 1197 
L 1141 1197 
L 716 0 
L 50 0 
L 1831 4666 
z
" transform="scale(0.015625)"/>
       <path id="DejaVuSans-2d" d="M 313 2009 
L 1997 2009 
L 1997 1497 
L 313 1497 
L 313 2009 
z
" transform="scale(0.015625)"/>
       <path id="DejaVuSans-58" d="M 403 4666 
L 1081 4666 
L 2241 2931 
L 3406 4666 
L 4084 4666 
L 2584 2425 
L 4184 0 
L 3506 0 
L 2194 1984 
L 872 0 
L 191 0 
L 1856 2491 
L 403 4666 
z
" transform="scale(0.015625)"/>
       <path id="DejaVuSans-47" d="M 3809 666 
L 3809 1919 
L 2778 1919 
L 2778 2438 
L 4434 2438 
L 4434 434 
Q 4069 175 3628 42 
Q 3188 -91 2688 -91 
Q 1594 -91 976 548 
Q 359 1188 359 2328 
Q 359 3472 976 4111 
Q 1594 4750 2688 4750 
Q 3144 4750 3555 4637 
Q 3966 4525 4313 4306 
L 4313 3634 
Q 3963 3931 3569 4081 
Q 3175 4231 2741 4231 
Q 1884 4231 1454 3753 
Q 1025 3275 1025 2328 
Q 1025 1384 1454 906 
Q 1884 428 2741 428 
Q 3075 428 3337 486 
Q 3600 544 3809 666 
z
" transform="scale(0.015625)"/>
       <path id="DejaVuSans-42" d="M 1259 2228 
L 1259 519 
L 2272 519 
Q 2781 519 3026 730 
Q 3272 941 3272 1375 
Q 3272 1813 3026 2020 
Q 2781 2228 2272 2228 
L 1259 2228 
z
M 1259 4147 
L 1259 2741 
L 2194 2741 
Q 2656 2741 2882 2914 
Q 3109 3088 3109 3444 
Q 3109 3797 2882 3972 
Q 2656 4147 2194 4147 
L 1259 4147 
z
M 628 4666 
L 2241 4666 
Q 2963 4666 3353 4366 
Q 3744 4066 3744 3513 
Q 3744 3084 3544 2831 
Q 3344 2578 2956 2516 
Q 3422 2416 3680 2098 
Q 3938 1781 3938 1306 
Q 3938 681 3513 340 
Q 3088 0 2303 0 
L 628 0 
L 628 4666 
z
" transform="scale(0.015625)"/>
       <path id="DejaVuSans-65" d="M 3597 1894 
L 3597 1613 
L 953 1613 
Q 991 1019 1311 708 
Q 1631 397 2203 397 
Q 2534 397 2845 478 
Q 3156 559 3463 722 
L 3463 178 
Q 3153 47 2828 -22 
Q 2503 -91 2169 -91 
Q 1331 -91 842 396 
Q 353 884 353 1716 
Q 353 2575 817 3079 
Q 1281 3584 2069 3584 
Q 2775 3584 3186 3129 
Q 3597 2675 3597 1894 
z
M 3022 2063 
Q 3016 2534 2758 2815 
Q 2500 3097 2075 3097 
Q 1594 3097 1305 2825 
Q 1016 2553 972 2059 
L 3022 2063 
z
" transform="scale(0.015625)"/>
       <path id="DejaVuSans-73" d="M 2834 3397 
L 2834 2853 
Q 2591 2978 2328 3040 
Q 2066 3103 1784 3103 
Q 1356 3103 1142 2972 
Q 928 2841 928 2578 
Q 928 2378 1081 2264 
Q 1234 2150 1697 2047 
L 1894 2003 
Q 2506 1872 2764 1633 
Q 3022 1394 3022 966 
Q 3022 478 2636 193 
Q 2250 -91 1575 -91 
Q 1294 -91 989 -36 
Q 684 19 347 128 
L 347 722 
Q 666 556 975 473 
Q 1284 391 1588 391 
Q 1994 391 2212 530 
Q 2431 669 2431 922 
Q 2431 1156 2273 1281 
Q 2116 1406 1581 1522 
L 1381 1569 
Q 847 1681 609 1914 
Q 372 2147 372 2553 
Q 372 3047 722 3315 
Q 1072 3584 1716 3584 
Q 2034 3584 2315 3537 
Q 2597 3491 2834 3397 
z
" transform="scale(0.015625)"/>
       <path id="DejaVuSans-62" d="M 3116 1747 
Q 3116 2381 2855 2742 
Q 2594 3103 2138 3103 
Q 1681 3103 1420 2742 
Q 1159 2381 1159 1747 
Q 1159 1113 1420 752 
Q 1681 391 2138 391 
Q 2594 391 2855 752 
Q 3116 1113 3116 1747 
z
M 1159 2969 
Q 1341 3281 1617 3432 
Q 1894 3584 2278 3584 
Q 2916 3584 3314 3078 
Q 3713 2572 3713 1747 
Q 3713 922 3314 415 
Q 2916 -91 2278 -91 
Q 1894 -91 1617 61 
Q 1341 213 1159 525 
L 1159 0 
L 581 0 
L 581 4863 
L 1159 4863 
L 1159 2969 
z
" transform="scale(0.015625)"/>
       <path id="DejaVuSans-6c" d="M 603 4863 
L 1178 4863 
L 1178 0 
L 603 0 
L 603 4863 
z
" transform="scale(0.015625)"/>
      </defs>
      <use xlink:href="#DejaVuSans-46"/>
      <use xlink:href="#DejaVuSans-72" transform="translate(50.269531 0)"/>
      <use xlink:href="#DejaVuSans-61" transform="translate(91.382812 0)"/>
      <use xlink:href="#DejaVuSans-63" transform="translate(152.662109 0)"/>
      <use xlink:href="#DejaVuSans-74" transform="translate(207.642578 0)"/>
      <use xlink:href="#DejaVuSans-69" transform="translate(246.851562 0)"/>
      <use xlink:href="#DejaVuSans-6f" transform="translate(274.634766 0)"/>
      <use xlink:href="#DejaVuSans-6e" transform="translate(335.816406 0)"/>
      <use xlink:href="#DejaVuSans-20" transform="translate(399.195312 0)"/>
      <use xlink:href="#DejaVuSans-6f" transform="translate(430.982422 0)"/>
      <use xlink:href="#DejaVuSans-66" transform="translate(492.164062 0)"/>
      <use xlink:href="#DejaVuSans-20" transform="translate(527.369141 0)"/>
      <use xlink:href="#DejaVuSans-44" transform="translate(559.15625 0)"/>
      <use xlink:href="#DejaVuSans-4f" transform="translate(636.158203 0)"/>
      <use xlink:href="#DejaVuSans-52" transform="translate(714.869141 0)"/>
      <use xlink:href="#DejaVuSans-41" transform="translate(780.351562 0)"/>
      <use xlink:href="#DejaVuSans-2d" transform="translate(846.509766 0)"/>
      <use xlink:href="#DejaVuSans-58" transform="translate(877.59375 0)"/>
      <use xlink:href="#DejaVuSans-47" transform="translate(946.099609 0)"/>
      <use xlink:href="#DejaVuSans-42" transform="translate(1023.589844 0)"/>
      <use xlink:href="#DejaVuSans-20" transform="translate(1092.193359 0)"/>
      <use xlink:href="#DejaVuSans-66" transform="translate(1123.980469 0)"/>
      <use xlink:href="#DejaVuSans-65" transform="translate(1159.185547 0)"/>
      <use xlink:href="#DejaVuSans-61" transform="translate(1220.708984 0)"/>
      <use xlink:href="#DejaVuSans-73" transform="translate(1281.988281 0)"/>
      <use xlink:href="#DejaVuSans-69" transform="translate(1334.087891 0)"/>
      <use xlink:href="#DejaVuSans-62" transform="translate(1361.871094 0)"/>
      <use xlink:href="#DejaVuSans-6c" transform="translate(1425.347656 0)"/>
      <use xlink:href="#DejaVuSans-65" transform="translate(1453.130859 0)"/>
      <use xlink:href="#DejaVuSans-20" transform="translate(1514.654297 0)"/>
      <use xlink:href="#DejaVuSans-72" transform="translate(1546.441406 0)"/>
      <use xlink:href="#DejaVuSans-65" transform="translate(1585.304688 0)"/>
      <use xlink:href="#DejaVuSans-61" transform="translate(1646.828125 0)"/>
      <use xlink:href="#DejaVuSans-63" transform="translate(1708.107422 0)"/>
      <use xlink:href="#DejaVuSans-74" transform="translate(1763.087891 0)"/>
      <use xlink:href="#DejaVuSans-69" transform="translate(1802.296875 0)"/>
      <use xlink:href="#DejaVuSans-6f" transform="translate(1830.080078 0)"/>
      <use xlink:href="#DejaVuSans-6e" transform="translate(1891.261719 0)"/>
      <use xlink:href="#DejaVuSans-73" transform="translate(1954.640625 0)"/>
     </g>
    </g>
   </g>
   <g id="matplotlib.axis_2">
    <g id="ytick_1">
     <g id="line2d_7">
      <defs>
       <path id="m102e918f51" d="M 0 0 
L -3.5 0 
" style="stroke: #000000; stroke-width: 0.8"/>
      </defs>
      <g>
       <use xlink:href="#m102e918f51" x="64.880202" y="447.964702" style="stroke: #000000; stroke-width: 0.8"/>
      </g>
     </g>
     <g id="text_8">
      <!-- $\mathdefault{10^{3}}$ -->
      <g transform="translate(33.240202 453.283608) scale(0.14 -0.14)">
       <use xlink:href="#DejaVuSans-31" transform="translate(0 0.765625)"/>
       <use xlink:href="#DejaVuSans-30" transform="translate(63.623047 0.765625)"/>
       <use xlink:href="#DejaVuSans-33" transform="translate(128.203125 39.046875) scale(0.7)"/>
      </g>
     </g>
    </g>
    <g id="ytick_2">
     <g id="line2d_8">
      <g>
       <use xlink:href="#m102e918f51" x="64.880202" y="356.85599" style="stroke: #000000; stroke-width: 0.8"/>
      </g>
     </g>
     <g id="text_9">
      <!-- $\mathdefault{10^{4}}$ -->
      <g transform="translate(33.240202 362.174896) scale(0.14 -0.14)">
       <use xlink:href="#DejaVuSans-31" transform="translate(0 0.684375)"/>
       <use xlink:href="#DejaVuSans-30" transform="translate(63.623047 0.684375)"/>
       <use xlink:href="#DejaVuSans-34" transform="translate(128.203125 38.965625) scale(0.7)"/>
      </g>
     </g>
    </g>
    <g id="ytick_3">
     <g id="line2d_9">
      <g>
       <use xlink:href="#m102e918f51" x="64.880202" y="265.747279" style="stroke: #000000; stroke-width: 0.8"/>
      </g>
     </g>
     <g id="text_10">
      <!-- $\mathdefault{10^{5}}$ -->
      <g transform="translate(33.240202 271.066185) scale(0.14 -0.14)">
       <use xlink:href="#DejaVuSans-31" transform="translate(0 0.684375)"/>
       <use xlink:href="#DejaVuSans-30" transform="translate(63.623047 0.684375)"/>
       <use xlink:href="#DejaVuSans-35" transform="translate(128.203125 38.965625) scale(0.7)"/>
      </g>
     </g>
    </g>
    <g id="ytick_4">
     <g id="line2d_10">
      <g>
       <use xlink:href="#m102e918f51" x="64.880202" y="174.638567" style="stroke: #000000; stroke-width: 0.8"/>
      </g>
     </g>
     <g id="text_11">
      <!-- $\mathdefault{10^{6}}$ -->
      <g transform="translate(33.240202 179.957473) scale(0.14 -0.14)">
       <defs>
        <path id="DejaVuSans-36" d="M 2113 2584 
Q 1688 2584 1439 2293 
Q 1191 2003 1191 1497 
Q 1191 994 1439 701 
Q 1688 409 2113 409 
Q 2538 409 2786 701 
Q 3034 994 3034 1497 
Q 3034 2003 2786 2293 
Q 2538 2584 2113 2584 
z
M 3366 4563 
L 3366 3988 
Q 3128 4100 2886 4159 
Q 2644 4219 2406 4219 
Q 1781 4219 1451 3797 
Q 1122 3375 1075 2522 
Q 1259 2794 1537 2939 
Q 1816 3084 2150 3084 
Q 2853 3084 3261 2657 
Q 3669 2231 3669 1497 
Q 3669 778 3244 343 
Q 2819 -91 2113 -91 
Q 1303 -91 875 529 
Q 447 1150 447 2328 
Q 447 3434 972 4092 
Q 1497 4750 2381 4750 
Q 2619 4750 2861 4703 
Q 3103 4656 3366 4563 
z
" transform="scale(0.015625)"/>
       </defs>
       <use xlink:href="#DejaVuSans-31" transform="translate(0 0.765625)"/>
       <use xlink:href="#DejaVuSans-30" transform="translate(63.623047 0.765625)"/>
       <use xlink:href="#DejaVuSans-36" transform="translate(128.203125 39.046875) scale(0.7)"/>
      </g>
     </g>
    </g>
    <g id="ytick_5">
     <g id="line2d_11">
      <g>
       <use xlink:href="#m102e918f51" x="64.880202" y="83.529855" style="stroke: #000000; stroke-width: 0.8"/>
      </g>
     </g>
     <g id="text_12">
      <!-- $\mathdefault{10^{7}}$ -->
      <g transform="translate(33.240202 88.848761) scale(0.14 -0.14)">
       <defs>
        <path id="DejaVuSans-37" d="M 525 4666 
L 3525 4666 
L 3525 4397 
L 1831 0 
L 1172 0 
L 2766 4134 
L 525 4134 
L 525 4666 
z
" transform="scale(0.015625)"/>
       </defs>
       <use xlink:href="#DejaVuSans-31" transform="translate(0 0.684375)"/>
       <use xlink:href="#DejaVuSans-30" transform="translate(63.623047 0.684375)"/>
       <use xlink:href="#DejaVuSans-37" transform="translate(128.203125 38.965625) scale(0.7)"/>
      </g>
     </g>
    </g>
    <g id="ytick_6">
     <g id="line2d_12">
      <defs>
       <path id="m9d3f273ae3" d="M 0 0 
L -2 0 
" style="stroke: #000000; stroke-width: 0.6"/>
      </defs>
      <g>
       <use xlink:href="#m9d3f273ae3" x="64.880202" y="420.538247" style="stroke: #000000; stroke-width: 0.6"/>
      </g>
     </g>
    </g>
    <g id="ytick_7">
     <g id="line2d_13">
      <g>
       <use xlink:href="#m9d3f273ae3" x="64.880202" y="404.494799" style="stroke: #000000; stroke-width: 0.6"/>
      </g>
     </g>
    </g>
    <g id="ytick_8">
     <g id="line2d_14">
      <g>
       <use xlink:href="#m9d3f273ae3" x="64.880202" y="393.111792" style="stroke: #000000; stroke-width: 0.6"/>
      </g>
     </g>
    </g>
    <g id="ytick_9">
     <g id="line2d_15">
      <g>
       <use xlink:href="#m9d3f273ae3" x="64.880202" y="384.282445" style="stroke: #000000; stroke-width: 0.6"/>
      </g>
     </g>
    </g>
    <g id="ytick_10">
     <g id="line2d_16">
      <g>
       <use xlink:href="#m9d3f273ae3" x="64.880202" y="377.068344" style="stroke: #000000; stroke-width: 0.6"/>
      </g>
     </g>
    </g>
    <g id="ytick_11">
     <g id="line2d_17">
      <g>
       <use xlink:href="#m9d3f273ae3" x="64.880202" y="370.968908" style="stroke: #000000; stroke-width: 0.6"/>
      </g>
     </g>
    </g>
    <g id="ytick_12">
     <g id="line2d_18">
      <g>
       <use xlink:href="#m9d3f273ae3" x="64.880202" y="365.685337" style="stroke: #000000; stroke-width: 0.6"/>
      </g>
     </g>
    </g>
    <g id="ytick_13">
     <g id="line2d_19">
      <g>
       <use xlink:href="#m9d3f273ae3" x="64.880202" y="361.024896" style="stroke: #000000; stroke-width: 0.6"/>
      </g>
     </g>
    </g>
    <g id="ytick_14">
     <g id="line2d_20">
      <g>
       <use xlink:href="#m9d3f273ae3" x="64.880202" y="329.429535" style="stroke: #000000; stroke-width: 0.6"/>
      </g>
     </g>
    </g>
    <g id="ytick_15">
     <g id="line2d_21">
      <g>
       <use xlink:href="#m9d3f273ae3" x="64.880202" y="313.386087" style="stroke: #000000; stroke-width: 0.6"/>
      </g>
     </g>
    </g>
    <g id="ytick_16">
     <g id="line2d_22">
      <g>
       <use xlink:href="#m9d3f273ae3" x="64.880202" y="302.00308" style="stroke: #000000; stroke-width: 0.6"/>
      </g>
     </g>
    </g>
    <g id="ytick_17">
     <g id="line2d_23">
      <g>
       <use xlink:href="#m9d3f273ae3" x="64.880202" y="293.173734" style="stroke: #000000; stroke-width: 0.6"/>
      </g>
     </g>
    </g>
    <g id="ytick_18">
     <g id="line2d_24">
      <g>
       <use xlink:href="#m9d3f273ae3" x="64.880202" y="285.959632" style="stroke: #000000; stroke-width: 0.6"/>
      </g>
     </g>
    </g>
    <g id="ytick_19">
     <g id="line2d_25">
      <g>
       <use xlink:href="#m9d3f273ae3" x="64.880202" y="279.860197" style="stroke: #000000; stroke-width: 0.6"/>
      </g>
     </g>
    </g>
    <g id="ytick_20">
     <g id="line2d_26">
      <g>
       <use xlink:href="#m9d3f273ae3" x="64.880202" y="274.576625" style="stroke: #000000; stroke-width: 0.6"/>
      </g>
     </g>
    </g>
    <g id="ytick_21">
     <g id="line2d_27">
      <g>
       <use xlink:href="#m9d3f273ae3" x="64.880202" y="269.916185" style="stroke: #000000; stroke-width: 0.6"/>
      </g>
     </g>
    </g>
    <g id="ytick_22">
     <g id="line2d_28">
      <g>
       <use xlink:href="#m9d3f273ae3" x="64.880202" y="238.320823" style="stroke: #000000; stroke-width: 0.6"/>
      </g>
     </g>
    </g>
    <g id="ytick_23">
     <g id="line2d_29">
      <g>
       <use xlink:href="#m9d3f273ae3" x="64.880202" y="222.277376" style="stroke: #000000; stroke-width: 0.6"/>
      </g>
     </g>
    </g>
    <g id="ytick_24">
     <g id="line2d_30">
      <g>
       <use xlink:href="#m9d3f273ae3" x="64.880202" y="210.894368" style="stroke: #000000; stroke-width: 0.6"/>
      </g>
     </g>
    </g>
    <g id="ytick_25">
     <g id="line2d_31">
      <g>
       <use xlink:href="#m9d3f273ae3" x="64.880202" y="202.065022" style="stroke: #000000; stroke-width: 0.6"/>
      </g>
     </g>
    </g>
    <g id="ytick_26">
     <g id="line2d_32">
      <g>
       <use xlink:href="#m9d3f273ae3" x="64.880202" y="194.850921" style="stroke: #000000; stroke-width: 0.6"/>
      </g>
     </g>
    </g>
    <g id="ytick_27">
     <g id="line2d_33">
      <g>
       <use xlink:href="#m9d3f273ae3" x="64.880202" y="188.751485" style="stroke: #000000; stroke-width: 0.6"/>
      </g>
     </g>
    </g>
    <g id="ytick_28">
     <g id="line2d_34">
      <g>
       <use xlink:href="#m9d3f273ae3" x="64.880202" y="183.467913" style="stroke: #000000; stroke-width: 0.6"/>
      </g>
     </g>
    </g>
    <g id="ytick_29">
     <g id="line2d_35">
      <g>
       <use xlink:href="#m9d3f273ae3" x="64.880202" y="178.807473" style="stroke: #000000; stroke-width: 0.6"/>
      </g>
     </g>
    </g>
    <g id="ytick_30">
     <g id="line2d_36">
      <g>
       <use xlink:href="#m9d3f273ae3" x="64.880202" y="147.212112" style="stroke: #000000; stroke-width: 0.6"/>
      </g>
     </g>
    </g>
    <g id="ytick_31">
     <g id="line2d_37">
      <g>
       <use xlink:href="#m9d3f273ae3" x="64.880202" y="131.168664" style="stroke: #000000; stroke-width: 0.6"/>
      </g>
     </g>
    </g>
    <g id="ytick_32">
     <g id="line2d_38">
      <g>
       <use xlink:href="#m9d3f273ae3" x="64.880202" y="119.785657" style="stroke: #000000; stroke-width: 0.6"/>
      </g>
     </g>
    </g>
    <g id="ytick_33">
     <g id="line2d_39">
      <g>
       <use xlink:href="#m9d3f273ae3" x="64.880202" y="110.95631" style="stroke: #000000; stroke-width: 0.6"/>
      </g>
     </g>
    </g>
    <g id="ytick_34">
     <g id="line2d_40">
      <g>
       <use xlink:href="#m9d3f273ae3" x="64.880202" y="103.742209" style="stroke: #000000; stroke-width: 0.6"/>
      </g>
     </g>
    </g>
    <g id="ytick_35">
     <g id="line2d_41">
      <g>
       <use xlink:href="#m9d3f273ae3" x="64.880202" y="97.642773" style="stroke: #000000; stroke-width: 0.6"/>
      </g>
     </g>
    </g>
    <g id="ytick_36">
     <g id="line2d_42">
      <g>
       <use xlink:href="#m9d3f273ae3" x="64.880202" y="92.359202" style="stroke: #000000; stroke-width: 0.6"/>
      </g>
     </g>
    </g>
    <g id="ytick_37">
     <g id="line2d_43">
      <g>
       <use xlink:href="#m9d3f273ae3" x="64.880202" y="87.698761" style="stroke: #000000; stroke-width: 0.6"/>
      </g>
     </g>
    </g>
    <g id="ytick_38">
     <g id="line2d_44">
      <g>
       <use xlink:href="#m9d3f273ae3" x="64.880202" y="56.1034" style="stroke: #000000; stroke-width: 0.6"/>
      </g>
     </g>
    </g>
    <g id="ytick_39">
     <g id="line2d_45">
      <g>
       <use xlink:href="#m9d3f273ae3" x="64.880202" y="40.059952" style="stroke: #000000; stroke-width: 0.6"/>
      </g>
     </g>
    </g>
    <g id="ytick_40">
     <g id="line2d_46">
      <g>
       <use xlink:href="#m9d3f273ae3" x="64.880202" y="28.676945" style="stroke: #000000; stroke-width: 0.6"/>
      </g>
     </g>
    </g>
    <g id="ytick_41">
     <g id="line2d_47">
      <g>
       <use xlink:href="#m9d3f273ae3" x="64.880202" y="19.847599" style="stroke: #000000; stroke-width: 0.6"/>
      </g>
     </g>
    </g>
    <g id="text_13">
     <!-- Total number of reactions -->
     <g transform="translate(26.328639 322.129063) rotate(-90) scale(0.14 -0.14)">
      <defs>
       <path id="DejaVuSans-54" d="M -19 4666 
L 3928 4666 
L 3928 4134 
L 2272 4134 
L 2272 0 
L 1638 0 
L 1638 4134 
L -19 4134 
L -19 4666 
z
" transform="scale(0.015625)"/>
       <path id="DejaVuSans-75" d="M 544 1381 
L 544 3500 
L 1119 3500 
L 1119 1403 
Q 1119 906 1312 657 
Q 1506 409 1894 409 
Q 2359 409 2629 706 
Q 2900 1003 2900 1516 
L 2900 3500 
L 3475 3500 
L 3475 0 
L 2900 0 
L 2900 538 
Q 2691 219 2414 64 
Q 2138 -91 1772 -91 
Q 1169 -91 856 284 
Q 544 659 544 1381 
z
M 1991 3584 
L 1991 3584 
z
" transform="scale(0.015625)"/>
       <path id="DejaVuSans-6d" d="M 3328 2828 
Q 3544 3216 3844 3400 
Q 4144 3584 4550 3584 
Q 5097 3584 5394 3201 
Q 5691 2819 5691 2113 
L 5691 0 
L 5113 0 
L 5113 2094 
Q 5113 2597 4934 2840 
Q 4756 3084 4391 3084 
Q 3944 3084 3684 2787 
Q 3425 2491 3425 1978 
L 3425 0 
L 2847 0 
L 2847 2094 
Q 2847 2600 2669 2842 
Q 2491 3084 2119 3084 
Q 1678 3084 1418 2786 
Q 1159 2488 1159 1978 
L 1159 0 
L 581 0 
L 581 3500 
L 1159 3500 
L 1159 2956 
Q 1356 3278 1631 3431 
Q 1906 3584 2284 3584 
Q 2666 3584 2933 3390 
Q 3200 3197 3328 2828 
z
" transform="scale(0.015625)"/>
      </defs>
      <use xlink:href="#DejaVuSans-54"/>
      <use xlink:href="#DejaVuSans-6f" transform="translate(44.083984 0)"/>
      <use xlink:href="#DejaVuSans-74" transform="translate(105.265625 0)"/>
      <use xlink:href="#DejaVuSans-61" transform="translate(144.474609 0)"/>
      <use xlink:href="#DejaVuSans-6c" transform="translate(205.753906 0)"/>
      <use xlink:href="#DejaVuSans-20" transform="translate(233.537109 0)"/>
      <use xlink:href="#DejaVuSans-6e" transform="translate(265.324219 0)"/>
      <use xlink:href="#DejaVuSans-75" transform="translate(328.703125 0)"/>
      <use xlink:href="#DejaVuSans-6d" transform="translate(392.082031 0)"/>
      <use xlink:href="#DejaVuSans-62" transform="translate(489.494141 0)"/>
      <use xlink:href="#DejaVuSans-65" transform="translate(552.970703 0)"/>
      <use xlink:href="#DejaVuSans-72" transform="translate(614.494141 0)"/>
      <use xlink:href="#DejaVuSans-20" transform="translate(655.607422 0)"/>
      <use xlink:href="#DejaVuSans-6f" transform="translate(687.394531 0)"/>
      <use xlink:href="#DejaVuSans-66" transform="translate(748.576172 0)"/>
      <use xlink:href="#DejaVuSans-20" transform="translate(783.78125 0)"/>
      <use xlink:href="#DejaVuSans-72" transform="translate(815.568359 0)"/>
      <use xlink:href="#DejaVuSans-65" transform="translate(854.431641 0)"/>
      <use xlink:href="#DejaVuSans-61" transform="translate(915.955078 0)"/>
      <use xlink:href="#DejaVuSans-63" transform="translate(977.234375 0)"/>
      <use xlink:href="#DejaVuSans-74" transform="translate(1032.214844 0)"/>
      <use xlink:href="#DejaVuSans-69" transform="translate(1071.423828 0)"/>
      <use xlink:href="#DejaVuSans-6f" transform="translate(1099.207031 0)"/>
      <use xlink:href="#DejaVuSans-6e" transform="translate(1160.388672 0)"/>
      <use xlink:href="#DejaVuSans-73" transform="translate(1223.767578 0)"/>
     </g>
    </g>
   </g>
   <g id="line2d_48">
    <path d="M 278.934342 277.388052 
" clip-path="url(#p795ee3596b)" style="fill: none; stroke: #008000; stroke-width: 1.5; stroke-linecap: square"/>
    <defs>
     <path id="m804546d789" d="M 0 4.05 
C 1.074073 4.05 2.104298 3.623266 2.863782 2.863782 
C 3.623266 2.104298 4.05 1.074073 4.05 0 
C 4.05 -1.074073 3.623266 -2.104298 2.863782 -2.863782 
C 2.104298 -3.623266 1.074073 -4.05 0 -4.05 
C -1.074073 -4.05 -2.104298 -3.623266 -2.863782 -2.863782 
C -3.623266 -2.104298 -4.05 -1.074073 -4.05 0 
C -4.05 1.074073 -3.623266 2.104298 -2.863782 2.863782 
C -2.104298 3.623266 -1.074073 4.05 0 4.05 
z
" style="stroke: #008000"/>
    </defs>
    <g clip-path="url(#p795ee3596b)">
     <use xlink:href="#m804546d789" x="278.934342" y="277.388052" style="fill: #008000; stroke: #008000"/>
    </g>
   </g>
   <g id="line2d_49">
    <path d="M 259.050667 220.055495 
" clip-path="url(#p795ee3596b)" style="fill: none; stroke: #800080; stroke-opacity: 0.3; stroke-width: 1.5; stroke-linecap: square"/>
    <defs>
     <path id="m6f6b1226e4" d="M 0 3.6 
C 0.954731 3.6 1.870488 3.220681 2.545584 2.545584 
C 3.220681 1.870488 3.6 0.954731 3.6 0 
C 3.6 -0.954731 3.220681 -1.870488 2.545584 -2.545584 
C 1.870488 -3.220681 0.954731 -3.6 0 -3.6 
C -0.954731 -3.6 -1.870488 -3.220681 -2.545584 -2.545584 
C -3.220681 -1.870488 -3.6 -0.954731 -3.6 0 
C -3.6 0.954731 -3.220681 1.870488 -2.545584 2.545584 
C -1.870488 3.220681 -0.954731 3.6 0 3.6 
z
" style="stroke: #800080; stroke-opacity: 0.3"/>
    </defs>
    <g clip-path="url(#p795ee3596b)">
     <use xlink:href="#m6f6b1226e4" x="259.050667" y="220.055495" style="fill: #800080; fill-opacity: 0.3; stroke: #800080; stroke-opacity: 0.3"/>
    </g>
   </g>
   <g id="line2d_50">
    <path d="M 309.793241 241.200386 
" clip-path="url(#p795ee3596b)" style="fill: none; stroke: #800080; stroke-opacity: 0.45; stroke-width: 1.5; stroke-linecap: square"/>
    <defs>
     <path id="m7d05fde630" d="M 0 4.35 
C 1.153633 4.35 2.260172 3.891657 3.075914 3.075914 
C 3.891657 2.260172 4.35 1.153633 4.35 0 
C 4.35 -1.153633 3.891657 -2.260172 3.075914 -3.075914 
C 2.260172 -3.891657 1.153633 -4.35 0 -4.35 
C -1.153633 -4.35 -2.260172 -3.891657 -3.075914 -3.075914 
C -3.891657 -2.260172 -4.35 -1.153633 -4.35 0 
C -4.35 1.153633 -3.891657 2.260172 -3.075914 3.075914 
C -2.260172 3.891657 -1.153633 4.35 0 4.35 
z
" style="stroke: #800080; stroke-opacity: 0.45"/>
    </defs>
    <g clip-path="url(#p795ee3596b)">
     <use xlink:href="#m7d05fde630" x="309.793241" y="241.200386" style="fill: #800080; fill-opacity: 0.45; stroke: #800080; stroke-opacity: 0.45"/>
    </g>
   </g>
   <g id="line2d_51">
    <path d="M 323.036253 250.338822 
" clip-path="url(#p795ee3596b)" style="fill: none; stroke: #800080; stroke-opacity: 0.6; stroke-width: 1.5; stroke-linecap: square"/>
    <defs>
     <path id="md70b4f1296" d="M 0 4.65 
C 1.233194 4.65 2.416046 4.160047 3.288047 3.288047 
C 4.160047 2.416046 4.65 1.233194 4.65 0 
C 4.65 -1.233194 4.160047 -2.416046 3.288047 -3.288047 
C 2.416046 -4.160047 1.233194 -4.65 0 -4.65 
C -1.233194 -4.65 -2.416046 -4.160047 -3.288047 -3.288047 
C -4.160047 -2.416046 -4.65 -1.233194 -4.65 0 
C -4.65 1.233194 -4.160047 2.416046 -3.288047 3.288047 
C -2.416046 4.160047 -1.233194 4.65 0 4.65 
z
" style="stroke: #800080; stroke-opacity: 0.6"/>
    </defs>
    <g clip-path="url(#p795ee3596b)">
     <use xlink:href="#md70b4f1296" x="323.036253" y="250.338822" style="fill: #800080; fill-opacity: 0.6; stroke: #800080; stroke-opacity: 0.6"/>
    </g>
   </g>
   <g id="line2d_52">
    <path d="M 357.964634 268.316981 
" clip-path="url(#p795ee3596b)" style="fill: none; stroke: #800080; stroke-opacity: 0.85; stroke-width: 1.5; stroke-linecap: square"/>
    <defs>
     <path id="m731b64c0f7" d="M 0 5.175 
C 1.372426 5.175 2.688826 4.629729 3.659278 3.659278 
C 4.629729 2.688826 5.175 1.372426 5.175 0 
C 5.175 -1.372426 4.629729 -2.688826 3.659278 -3.659278 
C 2.688826 -4.629729 1.372426 -5.175 0 -5.175 
C -1.372426 -5.175 -2.688826 -4.629729 -3.659278 -3.659278 
C -4.629729 -2.688826 -5.175 -1.372426 -5.175 0 
C -5.175 1.372426 -4.629729 2.688826 -3.659278 3.659278 
C -2.688826 4.629729 -1.372426 5.175 0 5.175 
z
" style="stroke: #800080; stroke-opacity: 0.85"/>
    </defs>
    <g clip-path="url(#p795ee3596b)">
     <use xlink:href="#m731b64c0f7" x="357.964634" y="268.316981" style="fill: #800080; fill-opacity: 0.85; stroke: #800080; stroke-opacity: 0.85"/>
    </g>
   </g>
   <g id="line2d_53">
    <path d="M 389.404228 295.369425 
" clip-path="url(#p795ee3596b)" style="fill: none; stroke: #800080; stroke-width: 1.5; stroke-linecap: square"/>
    <defs>
     <path id="m13016628a5" d="M 0 6.6 
C 1.75034 6.6 3.429227 5.904582 4.666905 4.666905 
C 5.904582 3.429227 6.6 1.75034 6.6 0 
C 6.6 -1.75034 5.904582 -3.429227 4.666905 -4.666905 
C 3.429227 -5.904582 1.75034 -6.6 0 -6.6 
C -1.75034 -6.6 -3.429227 -5.904582 -4.666905 -4.666905 
C -5.904582 -3.429227 -6.6 -1.75034 -6.6 0 
C -6.6 1.75034 -5.904582 3.429227 -4.666905 4.666905 
C -3.429227 5.904582 -1.75034 6.6 0 6.6 
z
" style="stroke: #800080"/>
    </defs>
    <g clip-path="url(#p795ee3596b)">
     <use xlink:href="#m13016628a5" x="389.404228" y="295.369425" style="fill: #800080; stroke: #800080"/>
    </g>
   </g>
   <g id="line2d_54">
    <path d="M 101.095206 67.321227 
" clip-path="url(#p795ee3596b)" style="fill: none; stroke: #000000; stroke-opacity: 0.3; stroke-width: 1.5; stroke-linecap: square"/>
    <defs>
     <path id="m02271b80aa" d="M 0 3.9 
C 1.034292 3.9 2.026361 3.489071 2.757716 2.757716 
C 3.489071 2.026361 3.9 1.034292 3.9 0 
C 3.9 -1.034292 3.489071 -2.026361 2.757716 -2.757716 
C 2.026361 -3.489071 1.034292 -3.9 0 -3.9 
C -1.034292 -3.9 -2.026361 -3.489071 -2.757716 -2.757716 
C -3.489071 -2.026361 -3.9 -1.034292 -3.9 0 
C -3.9 1.034292 -3.489071 2.026361 -2.757716 2.757716 
C -2.026361 3.489071 -1.034292 3.9 0 3.9 
z
" style="stroke: #000000; stroke-opacity: 0.3"/>
    </defs>
    <g clip-path="url(#p795ee3596b)">
     <use xlink:href="#m02271b80aa" x="101.095206" y="67.321227" style="fill-opacity: 0.3; stroke: #000000; stroke-opacity: 0.3"/>
    </g>
   </g>
   <g id="line2d_55">
    <path d="M 351.650614 290.460392 
" clip-path="url(#p795ee3596b)" style="fill: none; stroke: #000000; stroke-opacity: 0.45; stroke-width: 1.5; stroke-linecap: square"/>
    <defs>
     <path id="macc2d580c1" d="M 0 4.2 
C 1.113853 4.2 2.182235 3.757462 2.969848 2.969848 
C 3.757462 2.182235 4.2 1.113853 4.2 0 
C 4.2 -1.113853 3.757462 -2.182235 2.969848 -2.969848 
C 2.182235 -3.757462 1.113853 -4.2 0 -4.2 
C -1.113853 -4.2 -2.182235 -3.757462 -2.969848 -2.969848 
C -3.757462 -2.182235 -4.2 -1.113853 -4.2 0 
C -4.2 1.113853 -3.757462 2.182235 -2.969848 2.969848 
C -2.182235 3.757462 -1.113853 4.2 0 4.2 
z
" style="stroke: #000000; stroke-opacity: 0.45"/>
    </defs>
    <g clip-path="url(#p795ee3596b)">
     <use xlink:href="#macc2d580c1" x="351.650614" y="290.460392" style="fill-opacity: 0.45; stroke: #000000; stroke-opacity: 0.45"/>
    </g>
   </g>
   <g id="line2d_56">
    <path d="M 406.256405 331.991638 
" clip-path="url(#p795ee3596b)" style="fill: none; stroke: #000000; stroke-opacity: 0.6; stroke-width: 1.5; stroke-linecap: square"/>
    <defs>
     <path id="m7c43904837" d="M 0 4.8 
C 1.272975 4.8 2.493983 4.294242 3.394113 3.394113 
C 4.294242 2.493983 4.8 1.272975 4.8 0 
C 4.8 -1.272975 4.294242 -2.493983 3.394113 -3.394113 
C 2.493983 -4.294242 1.272975 -4.8 0 -4.8 
C -1.272975 -4.8 -2.493983 -4.294242 -3.394113 -3.394113 
C -4.294242 -2.493983 -4.8 -1.272975 -4.8 0 
C -4.8 1.272975 -4.294242 2.493983 -3.394113 3.394113 
C -2.493983 4.294242 -1.272975 4.8 0 4.8 
z
" style="stroke: #000000; stroke-opacity: 0.6"/>
    </defs>
    <g clip-path="url(#p795ee3596b)">
     <use xlink:href="#m7c43904837" x="406.256405" y="331.991638" style="fill-opacity: 0.6; stroke: #000000; stroke-opacity: 0.6"/>
    </g>
   </g>
   <g id="line2d_57">
    <path d="M 382.826885 357.853707 
" clip-path="url(#p795ee3596b)" style="fill: none; stroke: #000000; stroke-opacity: 0.85; stroke-width: 1.5; stroke-linecap: square"/>
    <defs>
     <path id="mf2ae38810f" d="M 0 5.4 
C 1.432097 5.4 2.805731 4.831022 3.818377 3.818377 
C 4.831022 2.805731 5.4 1.432097 5.4 0 
C 5.4 -1.432097 4.831022 -2.805731 3.818377 -3.818377 
C 2.805731 -4.831022 1.432097 -5.4 0 -5.4 
C -1.432097 -5.4 -2.805731 -4.831022 -3.818377 -3.818377 
C -4.831022 -2.805731 -5.4 -1.432097 -5.4 0 
C -5.4 1.432097 -4.831022 2.805731 -3.818377 3.818377 
C -2.805731 4.831022 -1.432097 5.4 0 5.4 
z
" style="stroke: #000000; stroke-opacity: 0.85"/>
    </defs>
    <g clip-path="url(#p795ee3596b)">
     <use xlink:href="#mf2ae38810f" x="382.826885" y="357.853707" style="fill-opacity: 0.85; stroke: #000000; stroke-opacity: 0.85"/>
    </g>
   </g>
   <g id="line2d_58">
    <path d="M 367.503845 368.626013 
" clip-path="url(#p795ee3596b)" style="fill: none; stroke: #000000; stroke-width: 1.5; stroke-linecap: square"/>
    <defs>
     <path id="m83c849061f" d="M 0 6.15 
C 1.630999 6.15 3.195416 5.501997 4.348707 4.348707 
C 5.501997 3.195416 6.15 1.630999 6.15 0 
C 6.15 -1.630999 5.501997 -3.195416 4.348707 -4.348707 
C 3.195416 -5.501997 1.630999 -6.15 0 -6.15 
C -1.630999 -6.15 -3.195416 -5.501997 -4.348707 -4.348707 
C -5.501997 -3.195416 -6.15 -1.630999 -6.15 0 
C -6.15 1.630999 -5.501997 3.195416 -4.348707 4.348707 
C -3.195416 5.501997 -1.630999 6.15 0 6.15 
z
" style="stroke: #000000"/>
    </defs>
    <g clip-path="url(#p795ee3596b)">
     <use xlink:href="#m83c849061f" x="367.503845" y="368.626013" style="stroke: #000000"/>
    </g>
   </g>
   <g id="line2d_59">
    <path d="M 96.583328 137.814069 
" clip-path="url(#p795ee3596b)" style="fill: none; stroke: #ff8c00; stroke-width: 1.5; stroke-linecap: square"/>
    <defs>
     <path id="m7dd3114374" d="M 0 3.45 
C 0.914951 3.45 1.792551 3.086486 2.439518 2.439518 
C 3.086486 1.792551 3.45 0.914951 3.45 0 
C 3.45 -0.914951 3.086486 -1.792551 2.439518 -2.439518 
C 1.792551 -3.086486 0.914951 -3.45 0 -3.45 
C -0.914951 -3.45 -1.792551 -3.086486 -2.439518 -2.439518 
C -3.086486 -1.792551 -3.45 -0.914951 -3.45 0 
C -3.45 0.914951 -3.086486 1.792551 -2.439518 2.439518 
C -1.792551 3.086486 -0.914951 3.45 0 3.45 
z
" style="stroke: #ff8c00"/>
    </defs>
    <g clip-path="url(#p795ee3596b)">
     <use xlink:href="#m7dd3114374" x="96.583328" y="137.814069" style="fill: #ff8c00; stroke: #ff8c00"/>
    </g>
   </g>
   <g id="line2d_60">
    <path d="M 336.697155 263.640405 
" clip-path="url(#p795ee3596b)" style="fill: none; stroke: #0000ff; stroke-width: 1.5; stroke-linecap: square"/>
    <defs>
     <path id="mc5e85b0e6e" d="M 0 4.5 
C 1.193414 4.5 2.338109 4.025852 3.181981 3.181981 
C 4.025852 2.338109 4.5 1.193414 4.5 0 
C 4.5 -1.193414 4.025852 -2.338109 3.181981 -3.181981 
C 2.338109 -4.025852 1.193414 -4.5 0 -4.5 
C -1.193414 -4.5 -2.338109 -4.025852 -3.181981 -3.181981 
C -4.025852 -2.338109 -4.5 -1.193414 -4.5 0 
C -4.5 1.193414 -4.025852 2.338109 -3.181981 3.181981 
C -2.338109 4.025852 -1.193414 4.5 0 4.5 
z
" style="stroke: #0000ff"/>
    </defs>
    <g clip-path="url(#p795ee3596b)">
     <use xlink:href="#mc5e85b0e6e" x="336.697155" y="263.640405" style="fill: #0000ff; stroke: #0000ff"/>
    </g>
   </g>
   <g id="line2d_61">
    <path d="M 64.880202 105.48518 
L 69.017573 107.838422 
L 73.154945 110.191664 
L 77.292317 112.544905 
L 81.429688 114.898147 
L 85.56706 117.251388 
L 89.704432 119.60463 
L 93.841803 121.957871 
L 97.979175 124.311113 
L 102.116547 126.664354 
L 106.253919 129.017596 
L 110.39129 131.370837 
L 114.528662 133.724079 
L 118.666034 136.07732 
L 122.803405 138.430562 
L 126.940777 140.783804 
L 131.078149 143.137045 
L 135.21552 145.490287 
L 139.352892 147.843528 
L 143.490264 150.19677 
L 147.627636 152.550011 
L 151.765007 154.903253 
L 155.902379 157.256494 
L 160.039751 159.609736 
L 164.177122 161.962977 
L 168.314494 164.316219 
L 172.451866 166.66946 
L 176.589237 169.022702 
L 180.726609 171.375944 
L 184.863981 173.729185 
L 189.001353 176.082427 
L 193.138724 178.435668 
L 197.276096 180.78891 
L 201.413468 183.142151 
L 205.550839 185.495393 
L 209.688211 187.848634 
L 213.825583 190.201876 
L 217.962955 192.555117 
L 222.100326 194.908359 
L 226.237698 197.2616 
L 230.37507 199.614842 
L 234.512441 201.968083 
L 238.649813 204.321325 
L 242.787185 206.674567 
L 246.924556 209.027808 
L 251.061928 211.38105 
L 255.1993 213.734291 
L 259.336672 216.087533 
L 263.474043 218.440774 
L 267.611415 220.794016 
L 271.748787 223.147257 
L 275.886158 225.500499 
L 280.02353 227.85374 
L 284.160902 230.206982 
L 288.298273 232.560223 
L 292.435645 234.913465 
L 296.573017 237.266707 
L 300.710389 239.619948 
L 304.84776 241.97319 
L 308.985132 244.326431 
L 313.122504 246.679673 
L 317.259875 249.032914 
L 321.397247 251.386156 
L 325.534619 253.739397 
L 329.67199 256.092639 
L 333.809362 258.44588 
L 337.946734 260.799122 
L 342.084106 263.152363 
L 346.221477 265.505605 
L 350.358849 267.858847 
L 354.496221 270.212088 
L 358.633592 272.56533 
L 362.770964 274.918571 
L 366.908336 277.271813 
L 371.045707 279.625054 
L 375.183079 281.978296 
L 379.320451 284.331537 
L 383.457823 286.684779 
L 387.595194 289.03802 
L 391.732566 291.391262 
L 395.869938 293.744503 
L 400.007309 296.097745 
L 404.144681 298.450987 
L 408.282053 300.804228 
L 412.419424 303.15747 
L 416.556796 305.510711 
L 420.694168 307.863953 
L 424.83154 310.217194 
L 428.968911 312.570436 
L 433.106283 314.923677 
L 437.243655 317.276919 
L 441.381026 319.63016 
L 445.518398 321.983402 
L 449.65577 324.336643 
L 453.793141 326.689885 
L 457.930513 329.043127 
L 462.067885 331.396368 
L 466.205257 333.74961 
L 470.342628 336.102851 
L 474.48 338.456093 
" clip-path="url(#p795ee3596b)" style="fill: none; stroke-dasharray: 5.55,2.4; stroke-dashoffset: 0; stroke: #800080; stroke-opacity: 0.3; stroke-width: 1.5"/>
   </g>
   <g id="line2d_62">
    <path d="M 64.880202 34.910909 
L 69.017573 38.909073 
L 73.154945 42.907236 
L 77.292317 46.905399 
L 81.429688 50.903563 
L 85.56706 54.901726 
L 89.704432 58.89989 
L 93.841803 62.898053 
L 97.979175 66.896217 
L 102.116547 70.89438 
L 106.253919 74.892544 
L 110.39129 78.890707 
L 114.528662 82.888871 
L 118.666034 86.887034 
L 122.803405 90.885197 
L 126.940777 94.883361 
L 131.078149 98.881524 
L 135.21552 102.879688 
L 139.352892 106.877851 
L 143.490264 110.876015 
L 147.627636 114.874178 
L 151.765007 118.872342 
L 155.902379 122.870505 
L 160.039751 126.868669 
L 164.177122 130.866832 
L 168.314494 134.864995 
L 172.451866 138.863159 
L 176.589237 142.861322 
L 180.726609 146.859486 
L 184.863981 150.857649 
L 189.001353 154.855813 
L 193.138724 158.853976 
L 197.276096 162.85214 
L 201.413468 166.850303 
L 205.550839 170.848466 
L 209.688211 174.84663 
L 213.825583 178.844793 
L 217.962955 182.842957 
L 222.100326 186.84112 
L 226.237698 190.839284 
L 230.37507 194.837447 
L 234.512441 198.835611 
L 238.649813 202.833774 
L 242.787185 206.831938 
L 246.924556 210.830101 
L 251.061928 214.828264 
L 255.1993 218.826428 
L 259.336672 222.824591 
L 263.474043 226.822755 
L 267.611415 230.820918 
L 271.748787 234.819082 
L 275.886158 238.817245 
L 280.02353 242.815409 
L 284.160902 246.813572 
L 288.298273 250.811736 
L 292.435645 254.809899 
L 296.573017 258.808062 
L 300.710389 262.806226 
L 304.84776 266.804389 
L 308.985132 270.802553 
L 313.122504 274.800716 
L 317.259875 278.79888 
L 321.397247 282.797043 
L 325.534619 286.795207 
L 329.67199 290.79337 
L 333.809362 294.791534 
L 337.946734 298.789697 
L 342.084106 302.78786 
L 346.221477 306.786024 
L 350.358849 310.784187 
L 354.496221 314.782351 
L 358.633592 318.780514 
L 362.770964 322.778678 
L 366.908336 326.776841 
L 371.045707 330.775005 
L 375.183079 334.773168 
L 379.320451 338.771331 
L 383.457823 342.769495 
L 387.595194 346.767658 
L 391.732566 350.765822 
L 395.869938 354.763985 
L 400.007309 358.762149 
L 404.144681 362.760312 
L 408.282053 366.758476 
L 412.419424 370.756639 
L 416.556796 374.754803 
L 420.694168 378.752966 
L 424.83154 382.751129 
L 428.968911 386.749293 
L 433.106283 390.747456 
L 437.243655 394.74562 
L 441.381026 398.743783 
L 445.518398 402.741947 
L 449.65577 406.74011 
L 453.793141 410.738274 
L 457.930513 414.736437 
L 462.067885 418.734601 
L 466.205257 422.732764 
L 470.342628 426.730927 
L 474.48 430.729091 
" clip-path="url(#p795ee3596b)" style="fill: none; stroke-dasharray: 5.55,2.4; stroke-dashoffset: 0; stroke: #000000; stroke-opacity: 0.3; stroke-width: 1.5"/>
   </g>
   <g id="patch_3">
    <path d="M 64.880202 450.52 
L 64.880202 15.12 
" style="fill: none; stroke: #000000; stroke-width: 0.8; stroke-linejoin: miter; stroke-linecap: square"/>
   </g>
   <g id="patch_4">
    <path d="M 474.48 450.52 
L 474.48 15.12 
" style="fill: none; stroke: #000000; stroke-width: 0.8; stroke-linejoin: miter; stroke-linecap: square"/>
   </g>
   <g id="patch_5">
    <path d="M 64.880202 450.52 
L 474.48 450.52 
" style="fill: none; stroke: #000000; stroke-width: 0.8; stroke-linejoin: miter; stroke-linecap: square"/>
   </g>
   <g id="patch_6">
    <path d="M 64.880202 15.12 
L 474.48 15.12 
" style="fill: none; stroke: #000000; stroke-width: 0.8; stroke-linejoin: miter; stroke-linecap: square"/>
   </g>
   <g id="text_14">
    <!-- Slope: -4.65 -->
    <g style="fill: #800080" transform="translate(106.253919 126.72994) scale(0.11 -0.11)">
     <defs>
      <path id="DejaVuSans-53" d="M 3425 4513 
L 3425 3897 
Q 3066 4069 2747 4153 
Q 2428 4238 2131 4238 
Q 1616 4238 1336 4038 
Q 1056 3838 1056 3469 
Q 1056 3159 1242 3001 
Q 1428 2844 1947 2747 
L 2328 2669 
Q 3034 2534 3370 2195 
Q 3706 1856 3706 1288 
Q 3706 609 3251 259 
Q 2797 -91 1919 -91 
Q 1588 -91 1214 -16 
Q 841 59 441 206 
L 441 856 
Q 825 641 1194 531 
Q 1563 422 1919 422 
Q 2459 422 2753 634 
Q 3047 847 3047 1241 
Q 3047 1584 2836 1778 
Q 2625 1972 2144 2069 
L 1759 2144 
Q 1053 2284 737 2584 
Q 422 2884 422 3419 
Q 422 4038 858 4394 
Q 1294 4750 2059 4750 
Q 2388 4750 2728 4690 
Q 3069 4631 3425 4513 
z
" transform="scale(0.015625)"/>
      <path id="DejaVuSans-70" d="M 1159 525 
L 1159 -1331 
L 581 -1331 
L 581 3500 
L 1159 3500 
L 1159 2969 
Q 1341 3281 1617 3432 
Q 1894 3584 2278 3584 
Q 2916 3584 3314 3078 
Q 3713 2572 3713 1747 
Q 3713 922 3314 415 
Q 2916 -91 2278 -91 
Q 1894 -91 1617 61 
Q 1341 213 1159 525 
z
M 3116 1747 
Q 3116 2381 2855 2742 
Q 2594 3103 2138 3103 
Q 1681 3103 1420 2742 
Q 1159 2381 1159 1747 
Q 1159 1113 1420 752 
Q 1681 391 2138 391 
Q 2594 391 2855 752 
Q 3116 1113 3116 1747 
z
" transform="scale(0.015625)"/>
      <path id="DejaVuSans-3a" d="M 750 794 
L 1409 794 
L 1409 0 
L 750 0 
L 750 794 
z
M 750 3309 
L 1409 3309 
L 1409 2516 
L 750 2516 
L 750 3309 
z
" transform="scale(0.015625)"/>
     </defs>
     <use xlink:href="#DejaVuSans-53"/>
     <use xlink:href="#DejaVuSans-6c" transform="translate(63.476562 0)"/>
     <use xlink:href="#DejaVuSans-6f" transform="translate(91.259766 0)"/>
     <use xlink:href="#DejaVuSans-70" transform="translate(152.441406 0)"/>
     <use xlink:href="#DejaVuSans-65" transform="translate(215.917969 0)"/>
     <use xlink:href="#DejaVuSans-3a" transform="translate(277.441406 0)"/>
     <use xlink:href="#DejaVuSans-20" transform="translate(311.132812 0)"/>
     <use xlink:href="#DejaVuSans-2d" transform="translate(342.919922 0)"/>
     <use xlink:href="#DejaVuSans-34" transform="translate(379.003906 0)"/>
     <use xlink:href="#DejaVuSans-2e" transform="translate(442.626953 0)"/>
     <use xlink:href="#DejaVuSans-36" transform="translate(474.414062 0)"/>
     <use xlink:href="#DejaVuSans-35" transform="translate(538.037109 0)"/>
    </g>
   </g>
   <g id="text_15">
    <!-- Slope: -7.90 -->
    <g transform="translate(106.253919 83.250825) scale(0.11 -0.11)">
     <defs>
      <path id="DejaVuSans-39" d="M 703 97 
L 703 672 
Q 941 559 1184 500 
Q 1428 441 1663 441 
Q 2288 441 2617 861 
Q 2947 1281 2994 2138 
Q 2813 1869 2534 1725 
Q 2256 1581 1919 1581 
Q 1219 1581 811 2004 
Q 403 2428 403 3163 
Q 403 3881 828 4315 
Q 1253 4750 1959 4750 
Q 2769 4750 3195 4129 
Q 3622 3509 3622 2328 
Q 3622 1225 3098 567 
Q 2575 -91 1691 -91 
Q 1453 -91 1209 -44 
Q 966 3 703 97 
z
M 1959 2075 
Q 2384 2075 2632 2365 
Q 2881 2656 2881 3163 
Q 2881 3666 2632 3958 
Q 2384 4250 1959 4250 
Q 1534 4250 1286 3958 
Q 1038 3666 1038 3163 
Q 1038 2656 1286 2365 
Q 1534 2075 1959 2075 
z
" transform="scale(0.015625)"/>
     </defs>
     <use xlink:href="#DejaVuSans-53"/>
     <use xlink:href="#DejaVuSans-6c" transform="translate(63.476562 0)"/>
     <use xlink:href="#DejaVuSans-6f" transform="translate(91.259766 0)"/>
     <use xlink:href="#DejaVuSans-70" transform="translate(152.441406 0)"/>
     <use xlink:href="#DejaVuSans-65" transform="translate(215.917969 0)"/>
     <use xlink:href="#DejaVuSans-3a" transform="translate(277.441406 0)"/>
     <use xlink:href="#DejaVuSans-20" transform="translate(311.132812 0)"/>
     <use xlink:href="#DejaVuSans-2d" transform="translate(342.919922 0)"/>
     <use xlink:href="#DejaVuSans-37" transform="translate(379.003906 0)"/>
     <use xlink:href="#DejaVuSans-2e" transform="translate(442.626953 0)"/>
     <use xlink:href="#DejaVuSans-39" transform="translate(474.414062 0)"/>
     <use xlink:href="#DejaVuSans-30" transform="translate(538.037109 0)"/>
    </g>
   </g>
   <g id="legend_1">
    <g id="patch_7">
     <path d="M 315.425312 31.718437 
L 335.425312 31.718437 
L 335.425312 24.718437 
L 315.425312 24.718437 
z
" style="fill: #008000; stroke: #ffffff; stroke-linejoin: miter"/>
    </g>
    <g id="text_16">
     <!-- Mechinformed -->
     <g transform="translate(343.425312 31.718437) scale(0.1 -0.1)">
      <defs>
       <path id="DejaVuSans-4d" d="M 628 4666 
L 1569 4666 
L 2759 1491 
L 3956 4666 
L 4897 4666 
L 4897 0 
L 4281 0 
L 4281 4097 
L 3078 897 
L 2444 897 
L 1241 4097 
L 1241 0 
L 628 0 
L 628 4666 
z
" transform="scale(0.015625)"/>
       <path id="DejaVuSans-68" d="M 3513 2113 
L 3513 0 
L 2938 0 
L 2938 2094 
Q 2938 2591 2744 2837 
Q 2550 3084 2163 3084 
Q 1697 3084 1428 2787 
Q 1159 2491 1159 1978 
L 1159 0 
L 581 0 
L 581 4863 
L 1159 4863 
L 1159 2956 
Q 1366 3272 1645 3428 
Q 1925 3584 2291 3584 
Q 2894 3584 3203 3211 
Q 3513 2838 3513 2113 
z
" transform="scale(0.015625)"/>
       <path id="DejaVuSans-64" d="M 2906 2969 
L 2906 4863 
L 3481 4863 
L 3481 0 
L 2906 0 
L 2906 525 
Q 2725 213 2448 61 
Q 2172 -91 1784 -91 
Q 1150 -91 751 415 
Q 353 922 353 1747 
Q 353 2572 751 3078 
Q 1150 3584 1784 3584 
Q 2172 3584 2448 3432 
Q 2725 3281 2906 2969 
z
M 947 1747 
Q 947 1113 1208 752 
Q 1469 391 1925 391 
Q 2381 391 2643 752 
Q 2906 1113 2906 1747 
Q 2906 2381 2643 2742 
Q 2381 3103 1925 3103 
Q 1469 3103 1208 2742 
Q 947 2381 947 1747 
z
" transform="scale(0.015625)"/>
      </defs>
      <use xlink:href="#DejaVuSans-4d"/>
      <use xlink:href="#DejaVuSans-65" transform="translate(86.279297 0)"/>
      <use xlink:href="#DejaVuSans-63" transform="translate(147.802734 0)"/>
      <use xlink:href="#DejaVuSans-68" transform="translate(202.783203 0)"/>
      <use xlink:href="#DejaVuSans-69" transform="translate(266.162109 0)"/>
      <use xlink:href="#DejaVuSans-6e" transform="translate(293.945312 0)"/>
      <use xlink:href="#DejaVuSans-66" transform="translate(357.324219 0)"/>
      <use xlink:href="#DejaVuSans-6f" transform="translate(392.529297 0)"/>
      <use xlink:href="#DejaVuSans-72" transform="translate(453.710938 0)"/>
      <use xlink:href="#DejaVuSans-6d" transform="translate(493.074219 0)"/>
      <use xlink:href="#DejaVuSans-65" transform="translate(590.486328 0)"/>
      <use xlink:href="#DejaVuSans-64" transform="translate(652.009766 0)"/>
     </g>
    </g>
    <g id="patch_8">
     <path d="M 315.425312 46.396563 
L 335.425312 46.396563 
L 335.425312 39.396563 
L 315.425312 39.396563 
z
" style="fill-opacity: 0.3; stroke: #ffffff; stroke-linejoin: miter"/>
    </g>
    <g id="text_17">
     <!-- RC + 0 -->
     <g transform="translate(343.425312 46.396563) scale(0.1 -0.1)">
      <defs>
       <path id="DejaVuSans-43" d="M 4122 4306 
L 4122 3641 
Q 3803 3938 3442 4084 
Q 3081 4231 2675 4231 
Q 1875 4231 1450 3742 
Q 1025 3253 1025 2328 
Q 1025 1406 1450 917 
Q 1875 428 2675 428 
Q 3081 428 3442 575 
Q 3803 722 4122 1019 
L 4122 359 
Q 3791 134 3420 21 
Q 3050 -91 2638 -91 
Q 1578 -91 968 557 
Q 359 1206 359 2328 
Q 359 3453 968 4101 
Q 1578 4750 2638 4750 
Q 3056 4750 3426 4639 
Q 3797 4528 4122 4306 
z
" transform="scale(0.015625)"/>
       <path id="DejaVuSans-2b" d="M 2944 4013 
L 2944 2272 
L 4684 2272 
L 4684 1741 
L 2944 1741 
L 2944 0 
L 2419 0 
L 2419 1741 
L 678 1741 
L 678 2272 
L 2419 2272 
L 2419 4013 
L 2944 4013 
z
" transform="scale(0.015625)"/>
      </defs>
      <use xlink:href="#DejaVuSans-52"/>
      <use xlink:href="#DejaVuSans-43" transform="translate(64.482422 0)"/>
      <use xlink:href="#DejaVuSans-20" transform="translate(134.306641 0)"/>
      <use xlink:href="#DejaVuSans-2b" transform="translate(166.09375 0)"/>
      <use xlink:href="#DejaVuSans-20" transform="translate(249.882812 0)"/>
      <use xlink:href="#DejaVuSans-30" transform="translate(281.669922 0)"/>
     </g>
    </g>
    <g id="patch_9">
     <path d="M 315.425312 61.074687 
L 335.425312 61.074687 
L 335.425312 54.074687 
L 315.425312 54.074687 
z
" style="fill-opacity: 0.45; stroke: #ffffff; stroke-linejoin: miter"/>
    </g>
    <g id="text_18">
     <!-- RC + 1 -->
     <g transform="translate(343.425312 61.074687) scale(0.1 -0.1)">
      <use xlink:href="#DejaVuSans-52"/>
      <use xlink:href="#DejaVuSans-43" transform="translate(64.482422 0)"/>
      <use xlink:href="#DejaVuSans-20" transform="translate(134.306641 0)"/>
      <use xlink:href="#DejaVuSans-2b" transform="translate(166.09375 0)"/>
      <use xlink:href="#DejaVuSans-20" transform="translate(249.882812 0)"/>
      <use xlink:href="#DejaVuSans-31" transform="translate(281.669922 0)"/>
     </g>
    </g>
    <g id="patch_10">
     <path d="M 315.425312 75.752813 
L 335.425312 75.752813 
L 335.425312 68.752813 
L 315.425312 68.752813 
z
" style="fill-opacity: 0.6; stroke: #ffffff; stroke-linejoin: miter"/>
    </g>
    <g id="text_19">
     <!-- RC + 2 -->
     <g transform="translate(343.425312 75.752813) scale(0.1 -0.1)">
      <use xlink:href="#DejaVuSans-52"/>
      <use xlink:href="#DejaVuSans-43" transform="translate(64.482422 0)"/>
      <use xlink:href="#DejaVuSans-20" transform="translate(134.306641 0)"/>
      <use xlink:href="#DejaVuSans-2b" transform="translate(166.09375 0)"/>
      <use xlink:href="#DejaVuSans-20" transform="translate(249.882812 0)"/>
      <use xlink:href="#DejaVuSans-32" transform="translate(281.669922 0)"/>
     </g>
    </g>
    <g id="patch_11">
     <path d="M 315.425312 90.430938 
L 335.425312 90.430938 
L 335.425312 83.430938 
L 315.425312 83.430938 
z
" style="fill-opacity: 0.85; stroke: #ffffff; stroke-linejoin: miter"/>
    </g>
    <g id="text_20">
     <!-- RC + 3 -->
     <g transform="translate(343.425312 90.430938) scale(0.1 -0.1)">
      <use xlink:href="#DejaVuSans-52"/>
      <use xlink:href="#DejaVuSans-43" transform="translate(64.482422 0)"/>
      <use xlink:href="#DejaVuSans-20" transform="translate(134.306641 0)"/>
      <use xlink:href="#DejaVuSans-2b" transform="translate(166.09375 0)"/>
      <use xlink:href="#DejaVuSans-20" transform="translate(249.882812 0)"/>
      <use xlink:href="#DejaVuSans-33" transform="translate(281.669922 0)"/>
     </g>
    </g>
    <g id="patch_12">
     <path d="M 315.425312 105.109062 
L 335.425312 105.109062 
L 335.425312 98.109062 
L 315.425312 98.109062 
z
" style="stroke: #ffffff; stroke-linejoin: miter"/>
    </g>
    <g id="text_21">
     <!-- RC + 4 -->
     <g transform="translate(343.425312 105.109062) scale(0.1 -0.1)">
      <use xlink:href="#DejaVuSans-52"/>
      <use xlink:href="#DejaVuSans-43" transform="translate(64.482422 0)"/>
      <use xlink:href="#DejaVuSans-20" transform="translate(134.306641 0)"/>
      <use xlink:href="#DejaVuSans-2b" transform="translate(166.09375 0)"/>
      <use xlink:href="#DejaVuSans-20" transform="translate(249.882812 0)"/>
      <use xlink:href="#DejaVuSans-34" transform="translate(281.669922 0)"/>
     </g>
    </g>
    <g id="patch_13">
     <path d="M 315.425312 119.787188 
L 335.425312 119.787188 
L 335.425312 112.787188 
L 315.425312 112.787188 
z
" style="fill: #800080; fill-opacity: 0.3; stroke: #ffffff; stroke-linejoin: miter"/>
    </g>
    <g id="text_22">
     <!-- Mechinferred &gt;0.956 -->
     <g transform="translate(343.425312 119.787188) scale(0.1 -0.1)">
      <defs>
       <path id="DejaVuSans-3e" d="M 678 3150 
L 678 3719 
L 4684 2266 
L 4684 1747 
L 678 294 
L 678 863 
L 3897 2003 
L 678 3150 
z
" transform="scale(0.015625)"/>
      </defs>
      <use xlink:href="#DejaVuSans-4d"/>
      <use xlink:href="#DejaVuSans-65" transform="translate(86.279297 0)"/>
      <use xlink:href="#DejaVuSans-63" transform="translate(147.802734 0)"/>
      <use xlink:href="#DejaVuSans-68" transform="translate(202.783203 0)"/>
      <use xlink:href="#DejaVuSans-69" transform="translate(266.162109 0)"/>
      <use xlink:href="#DejaVuSans-6e" transform="translate(293.945312 0)"/>
      <use xlink:href="#DejaVuSans-66" transform="translate(357.324219 0)"/>
      <use xlink:href="#DejaVuSans-65" transform="translate(392.529297 0)"/>
      <use xlink:href="#DejaVuSans-72" transform="translate(454.052734 0)"/>
      <use xlink:href="#DejaVuSans-72" transform="translate(493.416016 0)"/>
      <use xlink:href="#DejaVuSans-65" transform="translate(532.279297 0)"/>
      <use xlink:href="#DejaVuSans-64" transform="translate(593.802734 0)"/>
      <use xlink:href="#DejaVuSans-20" transform="translate(657.279297 0)"/>
      <use xlink:href="#DejaVuSans-3e" transform="translate(689.066406 0)"/>
      <use xlink:href="#DejaVuSans-30" transform="translate(772.855469 0)"/>
      <use xlink:href="#DejaVuSans-2e" transform="translate(836.478516 0)"/>
      <use xlink:href="#DejaVuSans-39" transform="translate(868.265625 0)"/>
      <use xlink:href="#DejaVuSans-35" transform="translate(931.888672 0)"/>
      <use xlink:href="#DejaVuSans-36" transform="translate(995.511719 0)"/>
     </g>
    </g>
    <g id="patch_14">
     <path d="M 315.425312 134.465312 
L 335.425312 134.465312 
L 335.425312 127.465312 
L 315.425312 127.465312 
z
" style="fill: #800080; fill-opacity: 0.45; stroke: #ffffff; stroke-linejoin: miter"/>
    </g>
    <g id="text_23">
     <!-- Mechinferred &gt;0.224 -->
     <g transform="translate(343.425312 134.465312) scale(0.1 -0.1)">
      <use xlink:href="#DejaVuSans-4d"/>
      <use xlink:href="#DejaVuSans-65" transform="translate(86.279297 0)"/>
      <use xlink:href="#DejaVuSans-63" transform="translate(147.802734 0)"/>
      <use xlink:href="#DejaVuSans-68" transform="translate(202.783203 0)"/>
      <use xlink:href="#DejaVuSans-69" transform="translate(266.162109 0)"/>
      <use xlink:href="#DejaVuSans-6e" transform="translate(293.945312 0)"/>
      <use xlink:href="#DejaVuSans-66" transform="translate(357.324219 0)"/>
      <use xlink:href="#DejaVuSans-65" transform="translate(392.529297 0)"/>
      <use xlink:href="#DejaVuSans-72" transform="translate(454.052734 0)"/>
      <use xlink:href="#DejaVuSans-72" transform="translate(493.416016 0)"/>
      <use xlink:href="#DejaVuSans-65" transform="translate(532.279297 0)"/>
      <use xlink:href="#DejaVuSans-64" transform="translate(593.802734 0)"/>
      <use xlink:href="#DejaVuSans-20" transform="translate(657.279297 0)"/>
      <use xlink:href="#DejaVuSans-3e" transform="translate(689.066406 0)"/>
      <use xlink:href="#DejaVuSans-30" transform="translate(772.855469 0)"/>
      <use xlink:href="#DejaVuSans-2e" transform="translate(836.478516 0)"/>
      <use xlink:href="#DejaVuSans-32" transform="translate(868.265625 0)"/>
      <use xlink:href="#DejaVuSans-32" transform="translate(931.888672 0)"/>
      <use xlink:href="#DejaVuSans-34" transform="translate(995.511719 0)"/>
     </g>
    </g>
    <g id="patch_15">
     <path d="M 315.425312 149.143438 
L 335.425312 149.143438 
L 335.425312 142.143438 
L 315.425312 142.143438 
z
" style="fill: #800080; fill-opacity: 0.6; stroke: #ffffff; stroke-linejoin: miter"/>
    </g>
    <g id="text_24">
     <!-- Mechinferred &gt;0.112 -->
     <g transform="translate(343.425312 149.143438) scale(0.1 -0.1)">
      <use xlink:href="#DejaVuSans-4d"/>
      <use xlink:href="#DejaVuSans-65" transform="translate(86.279297 0)"/>
      <use xlink:href="#DejaVuSans-63" transform="translate(147.802734 0)"/>
      <use xlink:href="#DejaVuSans-68" transform="translate(202.783203 0)"/>
      <use xlink:href="#DejaVuSans-69" transform="translate(266.162109 0)"/>
      <use xlink:href="#DejaVuSans-6e" transform="translate(293.945312 0)"/>
      <use xlink:href="#DejaVuSans-66" transform="translate(357.324219 0)"/>
      <use xlink:href="#DejaVuSans-65" transform="translate(392.529297 0)"/>
      <use xlink:href="#DejaVuSans-72" transform="translate(454.052734 0)"/>
      <use xlink:href="#DejaVuSans-72" transform="translate(493.416016 0)"/>
      <use xlink:href="#DejaVuSans-65" transform="translate(532.279297 0)"/>
      <use xlink:href="#DejaVuSans-64" transform="translate(593.802734 0)"/>
      <use xlink:href="#DejaVuSans-20" transform="translate(657.279297 0)"/>
      <use xlink:href="#DejaVuSans-3e" transform="translate(689.066406 0)"/>
      <use xlink:href="#DejaVuSans-30" transform="translate(772.855469 0)"/>
      <use xlink:href="#DejaVuSans-2e" transform="translate(836.478516 0)"/>
      <use xlink:href="#DejaVuSans-31" transform="translate(868.265625 0)"/>
      <use xlink:href="#DejaVuSans-31" transform="translate(931.888672 0)"/>
      <use xlink:href="#DejaVuSans-32" transform="translate(995.511719 0)"/>
     </g>
    </g>
    <g id="patch_16">
     <path d="M 315.425312 163.821562 
L 335.425312 163.821562 
L 335.425312 156.821562 
L 315.425312 156.821562 
z
" style="fill: #800080; fill-opacity: 0.85; stroke: #ffffff; stroke-linejoin: miter"/>
    </g>
    <g id="text_25">
     <!-- Mechinferred &gt;0.039 -->
     <g transform="translate(343.425312 163.821562) scale(0.1 -0.1)">
      <use xlink:href="#DejaVuSans-4d"/>
      <use xlink:href="#DejaVuSans-65" transform="translate(86.279297 0)"/>
      <use xlink:href="#DejaVuSans-63" transform="translate(147.802734 0)"/>
      <use xlink:href="#DejaVuSans-68" transform="translate(202.783203 0)"/>
      <use xlink:href="#DejaVuSans-69" transform="translate(266.162109 0)"/>
      <use xlink:href="#DejaVuSans-6e" transform="translate(293.945312 0)"/>
      <use xlink:href="#DejaVuSans-66" transform="translate(357.324219 0)"/>
      <use xlink:href="#DejaVuSans-65" transform="translate(392.529297 0)"/>
      <use xlink:href="#DejaVuSans-72" transform="translate(454.052734 0)"/>
      <use xlink:href="#DejaVuSans-72" transform="translate(493.416016 0)"/>
      <use xlink:href="#DejaVuSans-65" transform="translate(532.279297 0)"/>
      <use xlink:href="#DejaVuSans-64" transform="translate(593.802734 0)"/>
      <use xlink:href="#DejaVuSans-20" transform="translate(657.279297 0)"/>
      <use xlink:href="#DejaVuSans-3e" transform="translate(689.066406 0)"/>
      <use xlink:href="#DejaVuSans-30" transform="translate(772.855469 0)"/>
      <use xlink:href="#DejaVuSans-2e" transform="translate(836.478516 0)"/>
      <use xlink:href="#DejaVuSans-30" transform="translate(868.265625 0)"/>
      <use xlink:href="#DejaVuSans-33" transform="translate(931.888672 0)"/>
      <use xlink:href="#DejaVuSans-39" transform="translate(995.511719 0)"/>
     </g>
    </g>
    <g id="patch_17">
     <path d="M 315.425312 178.499687 
L 335.425312 178.499687 
L 335.425312 171.499687 
L 315.425312 171.499687 
z
" style="fill: #800080; stroke: #ffffff; stroke-linejoin: miter"/>
    </g>
    <g id="text_26">
     <!-- Mechinferred &gt;0.019 -->
     <g transform="translate(343.425312 178.499687) scale(0.1 -0.1)">
      <use xlink:href="#DejaVuSans-4d"/>
      <use xlink:href="#DejaVuSans-65" transform="translate(86.279297 0)"/>
      <use xlink:href="#DejaVuSans-63" transform="translate(147.802734 0)"/>
      <use xlink:href="#DejaVuSans-68" transform="translate(202.783203 0)"/>
      <use xlink:href="#DejaVuSans-69" transform="translate(266.162109 0)"/>
      <use xlink:href="#DejaVuSans-6e" transform="translate(293.945312 0)"/>
      <use xlink:href="#DejaVuSans-66" transform="translate(357.324219 0)"/>
      <use xlink:href="#DejaVuSans-65" transform="translate(392.529297 0)"/>
      <use xlink:href="#DejaVuSans-72" transform="translate(454.052734 0)"/>
      <use xlink:href="#DejaVuSans-72" transform="translate(493.416016 0)"/>
      <use xlink:href="#DejaVuSans-65" transform="translate(532.279297 0)"/>
      <use xlink:href="#DejaVuSans-64" transform="translate(593.802734 0)"/>
      <use xlink:href="#DejaVuSans-20" transform="translate(657.279297 0)"/>
      <use xlink:href="#DejaVuSans-3e" transform="translate(689.066406 0)"/>
      <use xlink:href="#DejaVuSans-30" transform="translate(772.855469 0)"/>
      <use xlink:href="#DejaVuSans-2e" transform="translate(836.478516 0)"/>
      <use xlink:href="#DejaVuSans-30" transform="translate(868.265625 0)"/>
      <use xlink:href="#DejaVuSans-31" transform="translate(931.888672 0)"/>
      <use xlink:href="#DejaVuSans-39" transform="translate(995.511719 0)"/>
     </g>
    </g>
    <g id="patch_18">
     <path d="M 315.425312 193.177812 
L 335.425312 193.177812 
L 335.425312 186.177812 
L 315.425312 186.177812 
z
" style="fill: #ff8c00; stroke: #ffffff; stroke-linejoin: miter"/>
    </g>
    <g id="text_27">
     <!-- Pathway-level clustering -->
     <g transform="translate(343.425312 193.177812) scale(0.1 -0.1)">
      <defs>
       <path id="DejaVuSans-50" d="M 1259 4147 
L 1259 2394 
L 2053 2394 
Q 2494 2394 2734 2622 
Q 2975 2850 2975 3272 
Q 2975 3691 2734 3919 
Q 2494 4147 2053 4147 
L 1259 4147 
z
M 628 4666 
L 2053 4666 
Q 2838 4666 3239 4311 
Q 3641 3956 3641 3272 
Q 3641 2581 3239 2228 
Q 2838 1875 2053 1875 
L 1259 1875 
L 1259 0 
L 628 0 
L 628 4666 
z
" transform="scale(0.015625)"/>
       <path id="DejaVuSans-77" d="M 269 3500 
L 844 3500 
L 1563 769 
L 2278 3500 
L 2956 3500 
L 3675 769 
L 4391 3500 
L 4966 3500 
L 4050 0 
L 3372 0 
L 2619 2869 
L 1863 0 
L 1184 0 
L 269 3500 
z
" transform="scale(0.015625)"/>
       <path id="DejaVuSans-79" d="M 2059 -325 
Q 1816 -950 1584 -1140 
Q 1353 -1331 966 -1331 
L 506 -1331 
L 506 -850 
L 844 -850 
Q 1081 -850 1212 -737 
Q 1344 -625 1503 -206 
L 1606 56 
L 191 3500 
L 800 3500 
L 1894 763 
L 2988 3500 
L 3597 3500 
L 2059 -325 
z
" transform="scale(0.015625)"/>
       <path id="DejaVuSans-76" d="M 191 3500 
L 800 3500 
L 1894 563 
L 2988 3500 
L 3597 3500 
L 2284 0 
L 1503 0 
L 191 3500 
z
" transform="scale(0.015625)"/>
       <path id="DejaVuSans-67" d="M 2906 1791 
Q 2906 2416 2648 2759 
Q 2391 3103 1925 3103 
Q 1463 3103 1205 2759 
Q 947 2416 947 1791 
Q 947 1169 1205 825 
Q 1463 481 1925 481 
Q 2391 481 2648 825 
Q 2906 1169 2906 1791 
z
M 3481 434 
Q 3481 -459 3084 -895 
Q 2688 -1331 1869 -1331 
Q 1566 -1331 1297 -1286 
Q 1028 -1241 775 -1147 
L 775 -588 
Q 1028 -725 1275 -790 
Q 1522 -856 1778 -856 
Q 2344 -856 2625 -561 
Q 2906 -266 2906 331 
L 2906 616 
Q 2728 306 2450 153 
Q 2172 0 1784 0 
Q 1141 0 747 490 
Q 353 981 353 1791 
Q 353 2603 747 3093 
Q 1141 3584 1784 3584 
Q 2172 3584 2450 3431 
Q 2728 3278 2906 2969 
L 2906 3500 
L 3481 3500 
L 3481 434 
z
" transform="scale(0.015625)"/>
      </defs>
      <use xlink:href="#DejaVuSans-50"/>
      <use xlink:href="#DejaVuSans-61" transform="translate(55.802734 0)"/>
      <use xlink:href="#DejaVuSans-74" transform="translate(117.082031 0)"/>
      <use xlink:href="#DejaVuSans-68" transform="translate(156.291016 0)"/>
      <use xlink:href="#DejaVuSans-77" transform="translate(219.669922 0)"/>
      <use xlink:href="#DejaVuSans-61" transform="translate(301.457031 0)"/>
      <use xlink:href="#DejaVuSans-79" transform="translate(362.736328 0)"/>
      <use xlink:href="#DejaVuSans-2d" transform="translate(420.166016 0)"/>
      <use xlink:href="#DejaVuSans-6c" transform="translate(456.25 0)"/>
      <use xlink:href="#DejaVuSans-65" transform="translate(484.033203 0)"/>
      <use xlink:href="#DejaVuSans-76" transform="translate(545.556641 0)"/>
      <use xlink:href="#DejaVuSans-65" transform="translate(604.736328 0)"/>
      <use xlink:href="#DejaVuSans-6c" transform="translate(666.259766 0)"/>
      <use xlink:href="#DejaVuSans-20" transform="translate(694.042969 0)"/>
      <use xlink:href="#DejaVuSans-63" transform="translate(725.830078 0)"/>
      <use xlink:href="#DejaVuSans-6c" transform="translate(780.810547 0)"/>
      <use xlink:href="#DejaVuSans-75" transform="translate(808.59375 0)"/>
      <use xlink:href="#DejaVuSans-73" transform="translate(871.972656 0)"/>
      <use xlink:href="#DejaVuSans-74" transform="translate(924.072266 0)"/>
      <use xlink:href="#DejaVuSans-65" transform="translate(963.28125 0)"/>
      <use xlink:href="#DejaVuSans-72" transform="translate(1024.804688 0)"/>
      <use xlink:href="#DejaVuSans-69" transform="translate(1065.917969 0)"/>
      <use xlink:href="#DejaVuSans-6e" transform="translate(1093.701172 0)"/>
      <use xlink:href="#DejaVuSans-67" transform="translate(1157.080078 0)"/>
     </g>
    </g>
    <g id="patch_19">
     <path d="M 315.425312 207.855937 
L 335.425312 207.855937 
L 335.425312 200.855937 
L 315.425312 200.855937 
z
" style="fill: #0000ff; stroke: #ffffff; stroke-linejoin: miter"/>
    </g>
    <g id="text_28">
     <!-- RDChiral -->
     <g transform="translate(343.425312 207.855937) scale(0.1 -0.1)">
      <use xlink:href="#DejaVuSans-52"/>
      <use xlink:href="#DejaVuSans-44" transform="translate(69.482422 0)"/>
      <use xlink:href="#DejaVuSans-43" transform="translate(146.484375 0)"/>
      <use xlink:href="#DejaVuSans-68" transform="translate(216.308594 0)"/>
      <use xlink:href="#DejaVuSans-69" transform="translate(279.6875 0)"/>
      <use xlink:href="#DejaVuSans-72" transform="translate(307.470703 0)"/>
      <use xlink:href="#DejaVuSans-61" transform="translate(348.583984 0)"/>
      <use xlink:href="#DejaVuSans-6c" transform="translate(409.863281 0)"/>
     </g>
    </g>
   </g>
  </g>
 </g>
 <defs>
  <clipPath id="p795ee3596b">
   <rect x="64.880202" y="15.12" width="409.599798" height="435.4"/>
  </clipPath>
 </defs>
</svg>
