<?xml version="1.0" encoding="utf-8" standalone="no"?>
<!DOCTYPE svg PUBLIC "-//W3C//DTD SVG 1.1//EN"
  "http://www.w3.org/Graphics/SVG/1.1/DTD/svg11.dtd">
<svg xmlns:xlink="http://www.w3.org/1999/xlink" width="720pt" height="360pt" viewBox="0 0 720 360" xmlns="http://www.w3.org/2000/svg" version="1.1">
 <metadata>
  <rdf:RDF xmlns:dc="http://purl.org/dc/elements/1.1/" xmlns:cc="http://creativecommons.org/ns#" xmlns:rdf="http://www.w3.org/1999/02/22-rdf-syntax-ns#">
   <cc:Work>
    <dc:type rdf:resource="http://purl.org/dc/dcmitype/StillImage"/>
    <dc:date>2025-11-06T11:38:30.842387</dc:date>
    <dc:format>image/svg+xml</dc:format>
    <dc:creator>
     <cc:Agent>
      <dc:title>Matplotlib v3.10.1, https://matplotlib.org/</dc:title>
     </cc:Agent>
    </dc:creator>
   </cc:Work>
  </rdf:RDF>
 </metadata>
 <defs>
  <style type="text/css">*{stroke-linejoin: round; stroke-linecap: butt}</style>
 </defs>
 <g id="figure_1">
  <g id="patch_1">
   <path d="M 0 360 
L 720 360 
L 720 0 
L 0 0 
z
" style="fill: #ffffff"/>
  </g>
  <g id="axes_1">
   <g id="patch_2">
    <path d="M 50.002685 318.04 
L 709.2 318.04 
L 709.2 10.8 
L 50.002685 10.8 
z
" style="fill: #ffffff"/>
   </g>
   <g id="patch_3">
    <path d="M 79.966199 113683.739583 
L 101.368709 113683.739583 
L 101.368709 168.532783 
L 79.966199 168.532783 
z
" clip-path="url(#pc04390e853)" style="fill: #008000"/>
   </g>
   <g id="patch_4">
    <path d="M 101.368709 113683.739583 
L 122.77122 113683.739583 
L 122.77122 120.303619 
L 101.368709 120.303619 
z
" clip-path="url(#pc04390e853)" style="fill: #800080; fill-opacity: 0.3"/>
   </g>
   <g id="patch_5">
    <path d="M 122.77122 113683.739583 
L 144.17373 113683.739583 
L 144.17373 141.930396 
L 122.77122 141.930396 
z
" clip-path="url(#pc04390e853)" style="fill: #800080; fill-opacity: 0.45"/>
   </g>
   <g id="patch_6">
    <path d="M 144.17373 113683.739583 
L 165.57624 113683.739583 
L 165.57624 171.191629 
L 144.17373 171.191629 
z
" clip-path="url(#pc04390e853)" style="fill: #800080; fill-opacity: 0.6"/>
   </g>
   <g id="patch_7">
    <path d="M 165.57624 113683.739583 
L 186.97875 113683.739583 
L 186.97875 199.236768 
L 165.57624 199.236768 
z
" clip-path="url(#pc04390e853)" style="fill: #800080; fill-opacity: 0.85"/>
   </g>
   <g id="patch_8">
    <path d="M 186.97875 113683.739583 
L 208.381261 113683.739583 
L 208.381261 217.781962 
L 186.97875 217.781962 
z
" clip-path="url(#pc04390e853)" style="fill: #800080"/>
   </g>
   <g id="patch_9">
    <path d="M 208.381261 113683.739583 
L 229.783771 113683.739583 
L 229.783771 24.765455 
L 208.381261 24.765455 
z
" clip-path="url(#pc04390e853)" style="fill-opacity: 0.3"/>
   </g>
   <g id="patch_10">
    <path d="M 229.783771 113683.739583 
L 251.186281 113683.739583 
L 251.186281 185.87751 
L 229.783771 185.87751 
z
" clip-path="url(#pc04390e853)" style="fill-opacity: 0.45"/>
   </g>
   <g id="patch_11">
    <path d="M 251.186281 113683.739583 
L 272.588791 113683.739583 
L 272.588791 226.166974 
L 251.186281 226.166974 
z
" clip-path="url(#pc04390e853)" style="fill-opacity: 0.6"/>
   </g>
   <g id="patch_12">
    <path d="M 272.588791 113683.739583 
L 293.991301 113683.739583 
L 293.991301 259.159978 
L 272.588791 259.159978 
z
" clip-path="url(#pc04390e853)" style="fill-opacity: 0.85"/>
   </g>
   <g id="patch_13">
    <path d="M 293.991301 113683.739583 
L 315.393812 113683.739583 
L 315.393812 268.793842 
L 293.991301 268.793842 
z
" clip-path="url(#pc04390e853)"/>
   </g>
   <g id="patch_14">
    <path d="M 315.393812 113683.739583 
L 336.796322 113683.739583 
L 336.796322 37.2396 
L 315.393812 37.2396 
z
" clip-path="url(#pc04390e853)" style="fill: #ff8c00"/>
   </g>
   <g id="patch_15">
    <path d="M 336.796322 113683.739583 
L 358.198832 113683.739583 
L 358.198832 158.936497 
L 336.796322 158.936497 
z
" clip-path="url(#pc04390e853)" style="fill: #0000ff"/>
   </g>
   <g id="patch_16">
    <path d="M 401.003853 113683.739583 
L 422.406363 113683.739583 
L 422.406363 235.924109 
L 401.003853 235.924109 
z
" clip-path="url(#pc04390e853)" style="fill: #008000"/>
   </g>
   <g id="patch_17">
    <path d="M 422.406363 113683.739583 
L 443.808873 113683.739583 
L 443.808873 200.081345 
L 422.406363 200.081345 
z
" clip-path="url(#pc04390e853)" style="fill: #800080; fill-opacity: 0.3"/>
   </g>
   <g id="patch_18">
    <path d="M 443.808873 113683.739583 
L 465.211383 113683.739583 
L 465.211383 224.512919 
L 443.808873 224.512919 
z
" clip-path="url(#pc04390e853)" style="fill: #800080; fill-opacity: 0.45"/>
   </g>
   <g id="patch_19">
    <path d="M 465.211383 113683.739583 
L 486.613894 113683.739583 
L 486.613894 239.042615 
L 465.211383 239.042615 
z
" clip-path="url(#pc04390e853)" style="fill: #800080; fill-opacity: 0.6"/>
   </g>
   <g id="patch_20">
    <path d="M 486.613894 113683.739583 
L 508.016404 113683.739583 
L 508.016404 261.877228 
L 486.613894 261.877228 
z
" clip-path="url(#pc04390e853)" style="fill: #800080; fill-opacity: 0.85"/>
   </g>
   <g id="patch_21">
    <path d="M 508.016404 113683.739583 
L 529.418914 113683.739583 
L 529.418914 273.092313 
L 508.016404 273.092313 
z
" clip-path="url(#pc04390e853)" style="fill: #800080"/>
   </g>
   <g id="patch_22">
    <path d="M 529.418914 113683.739583 
L 550.821424 113683.739583 
L 550.821424 78.884526 
L 529.418914 78.884526 
z
" clip-path="url(#pc04390e853)" style="fill-opacity: 0.3"/>
   </g>
   <g id="patch_23">
    <path d="M 550.821424 113683.739583 
L 572.223934 113683.739583 
L 572.223934 251.41103 
L 550.821424 251.41103 
z
" clip-path="url(#pc04390e853)" style="fill-opacity: 0.45"/>
   </g>
   <g id="patch_24">
    <path d="M 572.223934 113683.739583 
L 593.626445 113683.739583 
L 593.626445 280.907058 
L 572.223934 280.907058 
z
" clip-path="url(#pc04390e853)" style="fill-opacity: 0.6"/>
   </g>
   <g id="patch_25">
    <path d="M 593.626445 113683.739583 
L 615.028955 113683.739583 
L 615.028955 297.483414 
L 593.626445 297.483414 
z
" clip-path="url(#pc04390e853)" style="fill-opacity: 0.85"/>
   </g>
   <g id="patch_26">
    <path d="M 615.028955 113683.739583 
L 636.431465 113683.739583 
L 636.431465 304.074545 
L 615.028955 304.074545 
z
" clip-path="url(#pc04390e853)"/>
   </g>
   <g id="patch_27">
    <path d="M 636.431465 113683.739583 
L 657.833975 113683.739583 
L 657.833975 123.383529 
L 636.431465 123.383529 
z
" clip-path="url(#pc04390e853)" style="fill: #ff8c00"/>
   </g>
   <g id="patch_28">
    <path d="M 657.833975 113683.739583 
L 679.236486 113683.739583 
L 679.236486 236.526089 
L 657.833975 236.526089 
z
" clip-path="url(#pc04390e853)" style="fill: #0000ff"/>
   </g>
   <g id="matplotlib.axis_1">
    <g id="xtick_1">
     <g id="line2d_1">
      <defs>
       <path id="m8b0c987e39" d="M 0 0 
L 0 3.5 
" style="stroke: #000000; stroke-width: 0.8"/>
      </defs>
      <g>
       <use xlink:href="#m8b0c987e39" x="229.783771" y="318.04" style="stroke: #000000; stroke-width: 0.8"/>
      </g>
     </g>
     <g id="text_1">
      <!-- 0 -->
      <g transform="translate(226.602521 332.638438) scale(0.1 -0.1)">
       <defs>
        <path id="DejaVuSans-30" d="M 2034 4250 
Q 1547 4250 1301 3770 
Q 1056 3291 1056 2328 
Q 1056 1369 1301 889 
Q 1547 409 2034 409 
Q 2525 409 2770 889 
Q 3016 1369 3016 2328 
Q 3016 3291 2770 3770 
Q 2525 4250 2034 4250 
z
M 2034 4750 
Q 2819 4750 3233 4129 
Q 3647 3509 3647 2328 
Q 3647 1150 3233 529 
Q 2819 -91 2034 -91 
Q 1250 -91 836 529 
Q 422 1150 422 2328 
Q 422 3509 836 4129 
Q 1250 4750 2034 4750 
z
" transform="scale(0.015625)"/>
       </defs>
       <use xlink:href="#DejaVuSans-30"/>
      </g>
     </g>
    </g>
    <g id="xtick_2">
     <g id="line2d_2">
      <g>
       <use xlink:href="#m8b0c987e39" x="550.821424" y="318.04" style="stroke: #000000; stroke-width: 0.8"/>
      </g>
     </g>
     <g id="text_2">
      <!-- 1 -->
      <g transform="translate(547.640174 332.638438) scale(0.1 -0.1)">
       <defs>
        <path id="DejaVuSans-31" d="M 794 531 
L 1825 531 
L 1825 4091 
L 703 3866 
L 703 4441 
L 1819 4666 
L 2450 4666 
L 2450 531 
L 3481 531 
L 3481 0 
L 794 0 
L 794 531 
z
" transform="scale(0.015625)"/>
       </defs>
       <use xlink:href="#DejaVuSans-31"/>
      </g>
     </g>
    </g>
    <g id="text_3">
     <!-- Generation -->
     <g transform="translate(351.708374 346.316563) scale(0.1 -0.1)">
      <defs>
       <path id="DejaVuSans-47" d="M 3809 666 
L 3809 1919 
L 2778 1919 
L 2778 2438 
L 4434 2438 
L 4434 434 
Q 4069 175 3628 42 
Q 3188 -91 2688 -91 
Q 1594 -91 976 548 
Q 359 1188 359 2328 
Q 359 3472 976 4111 
Q 1594 4750 2688 4750 
Q 3144 4750 3555 4637 
Q 3966 4525 4313 4306 
L 4313 3634 
Q 3963 3931 3569 4081 
Q 3175 4231 2741 4231 
Q 1884 4231 1454 3753 
Q 1025 3275 1025 2328 
Q 1025 1384 1454 906 
Q 1884 428 2741 428 
Q 3075 428 3337 486 
Q 3600 544 3809 666 
z
" transform="scale(0.015625)"/>
       <path id="DejaVuSans-65" d="M 3597 1894 
L 3597 1613 
L 953 1613 
Q 991 1019 1311 708 
Q 1631 397 2203 397 
Q 2534 397 2845 478 
Q 3156 559 3463 722 
L 3463 178 
Q 3153 47 2828 -22 
Q 2503 -91 2169 -91 
Q 1331 -91 842 396 
Q 353 884 353 1716 
Q 353 2575 817 3079 
Q 1281 3584 2069 3584 
Q 2775 3584 3186 3129 
Q 3597 2675 3597 1894 
z
M 3022 2063 
Q 3016 2534 2758 2815 
Q 2500 3097 2075 3097 
Q 1594 3097 1305 2825 
Q 1016 2553 972 2059 
L 3022 2063 
z
" transform="scale(0.015625)"/>
       <path id="DejaVuSans-6e" d="M 3513 2113 
L 3513 0 
L 2938 0 
L 2938 2094 
Q 2938 2591 2744 2837 
Q 2550 3084 2163 3084 
Q 1697 3084 1428 2787 
Q 1159 2491 1159 1978 
L 1159 0 
L 581 0 
L 581 3500 
L 1159 3500 
L 1159 2956 
Q 1366 3272 1645 3428 
Q 1925 3584 2291 3584 
Q 2894 3584 3203 3211 
Q 3513 2838 3513 2113 
z
" transform="scale(0.015625)"/>
       <path id="DejaVuSans-72" d="M 2631 2963 
Q 2534 3019 2420 3045 
Q 2306 3072 2169 3072 
Q 1681 3072 1420 2755 
Q 1159 2438 1159 1844 
L 1159 0 
L 581 0 
L 581 3500 
L 1159 3500 
L 1159 2956 
Q 1341 3275 1631 3429 
Q 1922 3584 2338 3584 
Q 2397 3584 2469 3576 
Q 2541 3569 2628 3553 
L 2631 2963 
z
" transform="scale(0.015625)"/>
       <path id="DejaVuSans-61" d="M 2194 1759 
Q 1497 1759 1228 1600 
Q 959 1441 959 1056 
Q 959 750 1161 570 
Q 1363 391 1709 391 
Q 2188 391 2477 730 
Q 2766 1069 2766 1631 
L 2766 1759 
L 2194 1759 
z
M 3341 1997 
L 3341 0 
L 2766 0 
L 2766 531 
Q 2569 213 2275 61 
Q 1981 -91 1556 -91 
Q 1019 -91 701 211 
Q 384 513 384 1019 
Q 384 1609 779 1909 
Q 1175 2209 1959 2209 
L 2766 2209 
L 2766 2266 
Q 2766 2663 2505 2880 
Q 2244 3097 1772 3097 
Q 1472 3097 1187 3025 
Q 903 2953 641 2809 
L 641 3341 
Q 956 3463 1253 3523 
Q 1550 3584 1831 3584 
Q 2591 3584 2966 3190 
Q 3341 2797 3341 1997 
z
" transform="scale(0.015625)"/>
       <path id="DejaVuSans-74" d="M 1172 4494 
L 1172 3500 
L 2356 3500 
L 2356 3053 
L 1172 3053 
L 1172 1153 
Q 1172 725 1289 603 
Q 1406 481 1766 481 
L 2356 481 
L 2356 0 
L 1766 0 
Q 1100 0 847 248 
Q 594 497 594 1153 
L 594 3053 
L 172 3053 
L 172 3500 
L 594 3500 
L 594 4494 
L 1172 4494 
z
" transform="scale(0.015625)"/>
       <path id="DejaVuSans-69" d="M 603 3500 
L 1178 3500 
L 1178 0 
L 603 0 
L 603 3500 
z
M 603 4863 
L 1178 4863 
L 1178 4134 
L 603 4134 
L 603 4863 
z
" transform="scale(0.015625)"/>
       <path id="DejaVuSans-6f" d="M 1959 3097 
Q 1497 3097 1228 2736 
Q 959 2375 959 1747 
Q 959 1119 1226 758 
Q 1494 397 1959 397 
Q 2419 397 2687 759 
Q 2956 1122 2956 1747 
Q 2956 2369 2687 2733 
Q 2419 3097 1959 3097 
z
M 1959 3584 
Q 2709 3584 3137 3096 
Q 3566 2609 3566 1747 
Q 3566 888 3137 398 
Q 2709 -91 1959 -91 
Q 1206 -91 779 398 
Q 353 888 353 1747 
Q 353 2609 779 3096 
Q 1206 3584 1959 3584 
z
" transform="scale(0.015625)"/>
      </defs>
      <use xlink:href="#DejaVuSans-47"/>
      <use xlink:href="#DejaVuSans-65" transform="translate(77.490234 0)"/>
      <use xlink:href="#DejaVuSans-6e" transform="translate(139.013672 0)"/>
      <use xlink:href="#DejaVuSans-65" transform="translate(202.392578 0)"/>
      <use xlink:href="#DejaVuSans-72" transform="translate(263.916016 0)"/>
      <use xlink:href="#DejaVuSans-61" transform="translate(305.029297 0)"/>
      <use xlink:href="#DejaVuSans-74" transform="translate(366.308594 0)"/>
      <use xlink:href="#DejaVuSans-69" transform="translate(405.517578 0)"/>
      <use xlink:href="#DejaVuSans-6f" transform="translate(433.300781 0)"/>
      <use xlink:href="#DejaVuSans-6e" transform="translate(494.482422 0)"/>
     </g>
    </g>
   </g>
   <g id="matplotlib.axis_2">
    <g id="ytick_1">
     <g id="line2d_3">
      <defs>
       <path id="meb1a8a2369" d="M 0 0 
L -3.5 0 
" style="stroke: #000000; stroke-width: 0.8"/>
      </defs>
      <g>
       <use xlink:href="#meb1a8a2369" x="50.002685" y="223.792218" style="stroke: #000000; stroke-width: 0.8"/>
      </g>
     </g>
     <g id="text_4">
      <!-- $\mathdefault{10^{2}}$ -->
      <g transform="translate(25.402685 227.591437) scale(0.1 -0.1)">
       <defs>
        <path id="DejaVuSans-32" d="M 1228 531 
L 3431 531 
L 3431 0 
L 469 0 
L 469 531 
Q 828 903 1448 1529 
Q 2069 2156 2228 2338 
Q 2531 2678 2651 2914 
Q 2772 3150 2772 3378 
Q 2772 3750 2511 3984 
Q 2250 4219 1831 4219 
Q 1534 4219 1204 4116 
Q 875 4013 500 3803 
L 500 4441 
Q 881 4594 1212 4672 
Q 1544 4750 1819 4750 
Q 2544 4750 2975 4387 
Q 3406 4025 3406 3419 
Q 3406 3131 3298 2873 
Q 3191 2616 2906 2266 
Q 2828 2175 2409 1742 
Q 1991 1309 1228 531 
z
" transform="scale(0.015625)"/>
       </defs>
       <use xlink:href="#DejaVuSans-31" transform="translate(0 0.765625)"/>
       <use xlink:href="#DejaVuSans-30" transform="translate(63.623047 0.765625)"/>
       <use xlink:href="#DejaVuSans-32" transform="translate(128.203125 39.046875) scale(0.7)"/>
      </g>
     </g>
    </g>
    <g id="ytick_2">
     <g id="line2d_4">
      <g>
       <use xlink:href="#meb1a8a2369" x="50.002685" y="110.558738" style="stroke: #000000; stroke-width: 0.8"/>
      </g>
     </g>
     <g id="text_5">
      <!-- $\mathdefault{10^{3}}$ -->
      <g transform="translate(25.402685 114.357957) scale(0.1 -0.1)">
       <defs>
        <path id="DejaVuSans-33" d="M 2597 2516 
Q 3050 2419 3304 2112 
Q 3559 1806 3559 1356 
Q 3559 666 3084 287 
Q 2609 -91 1734 -91 
Q 1441 -91 1130 -33 
Q 819 25 488 141 
L 488 750 
Q 750 597 1062 519 
Q 1375 441 1716 441 
Q 2309 441 2620 675 
Q 2931 909 2931 1356 
Q 2931 1769 2642 2001 
Q 2353 2234 1838 2234 
L 1294 2234 
L 1294 2753 
L 1863 2753 
Q 2328 2753 2575 2939 
Q 2822 3125 2822 3475 
Q 2822 3834 2567 4026 
Q 2313 4219 1838 4219 
Q 1578 4219 1281 4162 
Q 984 4106 628 3988 
L 628 4550 
Q 988 4650 1302 4700 
Q 1616 4750 1894 4750 
Q 2613 4750 3031 4423 
Q 3450 4097 3450 3541 
Q 3450 3153 3228 2886 
Q 3006 2619 2597 2516 
z
" transform="scale(0.015625)"/>
       </defs>
       <use xlink:href="#DejaVuSans-31" transform="translate(0 0.765625)"/>
       <use xlink:href="#DejaVuSans-30" transform="translate(63.623047 0.765625)"/>
       <use xlink:href="#DejaVuSans-33" transform="translate(128.203125 39.046875) scale(0.7)"/>
      </g>
     </g>
    </g>
    <g id="ytick_3">
     <g id="line2d_5">
      <defs>
       <path id="mdb01e72de0" d="M 0 0 
L -2 0 
" style="stroke: #000000; stroke-width: 0.6"/>
      </defs>
      <g>
       <use xlink:href="#mdb01e72de0" x="50.002685" y="302.939025" style="stroke: #000000; stroke-width: 0.6"/>
      </g>
     </g>
    </g>
    <g id="ytick_4">
     <g id="line2d_6">
      <g>
       <use xlink:href="#mdb01e72de0" x="50.002685" y="282.999599" style="stroke: #000000; stroke-width: 0.6"/>
      </g>
     </g>
    </g>
    <g id="ytick_5">
     <g id="line2d_7">
      <g>
       <use xlink:href="#mdb01e72de0" x="50.002685" y="268.852351" style="stroke: #000000; stroke-width: 0.6"/>
      </g>
     </g>
    </g>
    <g id="ytick_6">
     <g id="line2d_8">
      <g>
       <use xlink:href="#mdb01e72de0" x="50.002685" y="257.878893" style="stroke: #000000; stroke-width: 0.6"/>
      </g>
     </g>
    </g>
    <g id="ytick_7">
     <g id="line2d_9">
      <g>
       <use xlink:href="#mdb01e72de0" x="50.002685" y="248.912925" style="stroke: #000000; stroke-width: 0.6"/>
      </g>
     </g>
    </g>
    <g id="ytick_8">
     <g id="line2d_10">
      <g>
       <use xlink:href="#mdb01e72de0" x="50.002685" y="241.332307" style="stroke: #000000; stroke-width: 0.6"/>
      </g>
     </g>
    </g>
    <g id="ytick_9">
     <g id="line2d_11">
      <g>
       <use xlink:href="#mdb01e72de0" x="50.002685" y="234.765677" style="stroke: #000000; stroke-width: 0.6"/>
      </g>
     </g>
    </g>
    <g id="ytick_10">
     <g id="line2d_12">
      <g>
       <use xlink:href="#mdb01e72de0" x="50.002685" y="228.973498" style="stroke: #000000; stroke-width: 0.6"/>
      </g>
     </g>
    </g>
    <g id="ytick_11">
     <g id="line2d_13">
      <g>
       <use xlink:href="#mdb01e72de0" x="50.002685" y="189.705544" style="stroke: #000000; stroke-width: 0.6"/>
      </g>
     </g>
    </g>
    <g id="ytick_12">
     <g id="line2d_14">
      <g>
       <use xlink:href="#mdb01e72de0" x="50.002685" y="169.766118" style="stroke: #000000; stroke-width: 0.6"/>
      </g>
     </g>
    </g>
    <g id="ytick_13">
     <g id="line2d_15">
      <g>
       <use xlink:href="#mdb01e72de0" x="50.002685" y="155.61887" style="stroke: #000000; stroke-width: 0.6"/>
      </g>
     </g>
    </g>
    <g id="ytick_14">
     <g id="line2d_16">
      <g>
       <use xlink:href="#mdb01e72de0" x="50.002685" y="144.645412" style="stroke: #000000; stroke-width: 0.6"/>
      </g>
     </g>
    </g>
    <g id="ytick_15">
     <g id="line2d_17">
      <g>
       <use xlink:href="#mdb01e72de0" x="50.002685" y="135.679444" style="stroke: #000000; stroke-width: 0.6"/>
      </g>
     </g>
    </g>
    <g id="ytick_16">
     <g id="line2d_18">
      <g>
       <use xlink:href="#mdb01e72de0" x="50.002685" y="128.098826" style="stroke: #000000; stroke-width: 0.6"/>
      </g>
     </g>
    </g>
    <g id="ytick_17">
     <g id="line2d_19">
      <g>
       <use xlink:href="#mdb01e72de0" x="50.002685" y="121.532196" style="stroke: #000000; stroke-width: 0.6"/>
      </g>
     </g>
    </g>
    <g id="ytick_18">
     <g id="line2d_20">
      <g>
       <use xlink:href="#mdb01e72de0" x="50.002685" y="115.740018" style="stroke: #000000; stroke-width: 0.6"/>
      </g>
     </g>
    </g>
    <g id="ytick_19">
     <g id="line2d_21">
      <g>
       <use xlink:href="#mdb01e72de0" x="50.002685" y="76.472064" style="stroke: #000000; stroke-width: 0.6"/>
      </g>
     </g>
    </g>
    <g id="ytick_20">
     <g id="line2d_22">
      <g>
       <use xlink:href="#mdb01e72de0" x="50.002685" y="56.532638" style="stroke: #000000; stroke-width: 0.6"/>
      </g>
     </g>
    </g>
    <g id="ytick_21">
     <g id="line2d_23">
      <g>
       <use xlink:href="#mdb01e72de0" x="50.002685" y="42.38539" style="stroke: #000000; stroke-width: 0.6"/>
      </g>
     </g>
    </g>
    <g id="ytick_22">
     <g id="line2d_24">
      <g>
       <use xlink:href="#mdb01e72de0" x="50.002685" y="31.411932" style="stroke: #000000; stroke-width: 0.6"/>
      </g>
     </g>
    </g>
    <g id="ytick_23">
     <g id="line2d_25">
      <g>
       <use xlink:href="#mdb01e72de0" x="50.002685" y="22.445964" style="stroke: #000000; stroke-width: 0.6"/>
      </g>
     </g>
    </g>
    <g id="ytick_24">
     <g id="line2d_26">
      <g>
       <use xlink:href="#mdb01e72de0" x="50.002685" y="14.865346" style="stroke: #000000; stroke-width: 0.6"/>
      </g>
     </g>
    </g>
    <g id="text_6">
     <!-- Compound outdegree -->
     <g transform="translate(19.322997 218.884844) rotate(-90) scale(0.1 -0.1)">
      <defs>
       <path id="DejaVuSans-43" d="M 4122 4306 
L 4122 3641 
Q 3803 3938 3442 4084 
Q 3081 4231 2675 4231 
Q 1875 4231 1450 3742 
Q 1025 3253 1025 2328 
Q 1025 1406 1450 917 
Q 1875 428 2675 428 
Q 3081 428 3442 575 
Q 3803 722 4122 1019 
L 4122 359 
Q 3791 134 3420 21 
Q 3050 -91 2638 -91 
Q 1578 -91 968 557 
Q 359 1206 359 2328 
Q 359 3453 968 4101 
Q 1578 4750 2638 4750 
Q 3056 4750 3426 4639 
Q 3797 4528 4122 4306 
z
" transform="scale(0.015625)"/>
       <path id="DejaVuSans-6d" d="M 3328 2828 
Q 3544 3216 3844 3400 
Q 4144 3584 4550 3584 
Q 5097 3584 5394 3201 
Q 5691 2819 5691 2113 
L 5691 0 
L 5113 0 
L 5113 2094 
Q 5113 2597 4934 2840 
Q 4756 3084 4391 3084 
Q 3944 3084 3684 2787 
Q 3425 2491 3425 1978 
L 3425 0 
L 2847 0 
L 2847 2094 
Q 2847 2600 2669 2842 
Q 2491 3084 2119 3084 
Q 1678 3084 1418 2786 
Q 1159 2488 1159 1978 
L 1159 0 
L 581 0 
L 581 3500 
L 1159 3500 
L 1159 2956 
Q 1356 3278 1631 3431 
Q 1906 3584 2284 3584 
Q 2666 3584 2933 3390 
Q 3200 3197 3328 2828 
z
" transform="scale(0.015625)"/>
       <path id="DejaVuSans-70" d="M 1159 525 
L 1159 -1331 
L 581 -1331 
L 581 3500 
L 1159 3500 
L 1159 2969 
Q 1341 3281 1617 3432 
Q 1894 3584 2278 3584 
Q 2916 3584 3314 3078 
Q 3713 2572 3713 1747 
Q 3713 922 3314 415 
Q 2916 -91 2278 -91 
Q 1894 -91 1617 61 
Q 1341 213 1159 525 
z
M 3116 1747 
Q 3116 2381 2855 2742 
Q 2594 3103 2138 3103 
Q 1681 3103 1420 2742 
Q 1159 2381 1159 1747 
Q 1159 1113 1420 752 
Q 1681 391 2138 391 
Q 2594 391 2855 752 
Q 3116 1113 3116 1747 
z
" transform="scale(0.015625)"/>
       <path id="DejaVuSans-75" d="M 544 1381 
L 544 3500 
L 1119 3500 
L 1119 1403 
Q 1119 906 1312 657 
Q 1506 409 1894 409 
Q 2359 409 2629 706 
Q 2900 1003 2900 1516 
L 2900 3500 
L 3475 3500 
L 3475 0 
L 2900 0 
L 2900 538 
Q 2691 219 2414 64 
Q 2138 -91 1772 -91 
Q 1169 -91 856 284 
Q 544 659 544 1381 
z
M 1991 3584 
L 1991 3584 
z
" transform="scale(0.015625)"/>
       <path id="DejaVuSans-64" d="M 2906 2969 
L 2906 4863 
L 3481 4863 
L 3481 0 
L 2906 0 
L 2906 525 
Q 2725 213 2448 61 
Q 2172 -91 1784 -91 
Q 1150 -91 751 415 
Q 353 922 353 1747 
Q 353 2572 751 3078 
Q 1150 3584 1784 3584 
Q 2172 3584 2448 3432 
Q 2725 3281 2906 2969 
z
M 947 1747 
Q 947 1113 1208 752 
Q 1469 391 1925 391 
Q 2381 391 2643 752 
Q 2906 1113 2906 1747 
Q 2906 2381 2643 2742 
Q 2381 3103 1925 3103 
Q 1469 3103 1208 2742 
Q 947 2381 947 1747 
z
" transform="scale(0.015625)"/>
       <path id="DejaVuSans-20" transform="scale(0.015625)"/>
       <path id="DejaVuSans-67" d="M 2906 1791 
Q 2906 2416 2648 2759 
Q 2391 3103 1925 3103 
Q 1463 3103 1205 2759 
Q 947 2416 947 1791 
Q 947 1169 1205 825 
Q 1463 481 1925 481 
Q 2391 481 2648 825 
Q 2906 1169 2906 1791 
z
M 3481 434 
Q 3481 -459 3084 -895 
Q 2688 -1331 1869 -1331 
Q 1566 -1331 1297 -1286 
Q 1028 -1241 775 -1147 
L 775 -588 
Q 1028 -725 1275 -790 
Q 1522 -856 1778 -856 
Q 2344 -856 2625 -561 
Q 2906 -266 2906 331 
L 2906 616 
Q 2728 306 2450 153 
Q 2172 0 1784 0 
Q 1141 0 747 490 
Q 353 981 353 1791 
Q 353 2603 747 3093 
Q 1141 3584 1784 3584 
Q 2172 3584 2450 3431 
Q 2728 3278 2906 2969 
L 2906 3500 
L 3481 3500 
L 3481 434 
z
" transform="scale(0.015625)"/>
      </defs>
      <use xlink:href="#DejaVuSans-43"/>
      <use xlink:href="#DejaVuSans-6f" transform="translate(69.824219 0)"/>
      <use xlink:href="#DejaVuSans-6d" transform="translate(131.005859 0)"/>
      <use xlink:href="#DejaVuSans-70" transform="translate(228.417969 0)"/>
      <use xlink:href="#DejaVuSans-6f" transform="translate(291.894531 0)"/>
      <use xlink:href="#DejaVuSans-75" transform="translate(353.076172 0)"/>
      <use xlink:href="#DejaVuSans-6e" transform="translate(416.455078 0)"/>
      <use xlink:href="#DejaVuSans-64" transform="translate(479.833984 0)"/>
      <use xlink:href="#DejaVuSans-20" transform="translate(543.310547 0)"/>
      <use xlink:href="#DejaVuSans-6f" transform="translate(575.097656 0)"/>
      <use xlink:href="#DejaVuSans-75" transform="translate(636.279297 0)"/>
      <use xlink:href="#DejaVuSans-74" transform="translate(699.658203 0)"/>
      <use xlink:href="#DejaVuSans-64" transform="translate(738.867188 0)"/>
      <use xlink:href="#DejaVuSans-65" transform="translate(802.34375 0)"/>
      <use xlink:href="#DejaVuSans-67" transform="translate(863.867188 0)"/>
      <use xlink:href="#DejaVuSans-72" transform="translate(927.34375 0)"/>
      <use xlink:href="#DejaVuSans-65" transform="translate(966.207031 0)"/>
      <use xlink:href="#DejaVuSans-65" transform="translate(1027.730469 0)"/>
     </g>
    </g>
   </g>
   <g id="patch_29">
    <path d="M 50.002685 318.04 
L 50.002685 10.8 
" style="fill: none; stroke: #000000; stroke-width: 0.8; stroke-linejoin: miter; stroke-linecap: square"/>
   </g>
   <g id="patch_30">
    <path d="M 709.2 318.04 
L 709.2 10.8 
" style="fill: none; stroke: #000000; stroke-width: 0.8; stroke-linejoin: miter; stroke-linecap: square"/>
   </g>
   <g id="patch_31">
    <path d="M 50.002685 318.04 
L 709.2 318.04 
" style="fill: none; stroke: #000000; stroke-width: 0.8; stroke-linejoin: miter; stroke-linecap: square"/>
   </g>
   <g id="patch_32">
    <path d="M 50.002685 10.8 
L 709.2 10.8 
" style="fill: none; stroke: #000000; stroke-width: 0.8; stroke-linejoin: miter; stroke-linecap: square"/>
   </g>
   <g id="legend_1">
    <g id="patch_33">
     <path d="M 402.592187 27.398438 
L 422.592187 27.398438 
L 422.592187 20.398438 
L 402.592187 20.398438 
z
" style="fill: #008000; stroke: #ffffff; stroke-linejoin: miter"/>
    </g>
    <g id="text_7">
     <!-- Mechinformed -->
     <g transform="translate(430.592187 27.398438) scale(0.1 -0.1)">
      <defs>
       <path id="DejaVuSans-4d" d="M 628 4666 
L 1569 4666 
L 2759 1491 
L 3956 4666 
L 4897 4666 
L 4897 0 
L 4281 0 
L 4281 4097 
L 3078 897 
L 2444 897 
L 1241 4097 
L 1241 0 
L 628 0 
L 628 4666 
z
" transform="scale(0.015625)"/>
       <path id="DejaVuSans-63" d="M 3122 3366 
L 3122 2828 
Q 2878 2963 2633 3030 
Q 2388 3097 2138 3097 
Q 1578 3097 1268 2742 
Q 959 2388 959 1747 
Q 959 1106 1268 751 
Q 1578 397 2138 397 
Q 2388 397 2633 464 
Q 2878 531 3122 666 
L 3122 134 
Q 2881 22 2623 -34 
Q 2366 -91 2075 -91 
Q 1284 -91 818 406 
Q 353 903 353 1747 
Q 353 2603 823 3093 
Q 1294 3584 2113 3584 
Q 2378 3584 2631 3529 
Q 2884 3475 3122 3366 
z
" transform="scale(0.015625)"/>
       <path id="DejaVuSans-68" d="M 3513 2113 
L 3513 0 
L 2938 0 
L 2938 2094 
Q 2938 2591 2744 2837 
Q 2550 3084 2163 3084 
Q 1697 3084 1428 2787 
Q 1159 2491 1159 1978 
L 1159 0 
L 581 0 
L 581 4863 
L 1159 4863 
L 1159 2956 
Q 1366 3272 1645 3428 
Q 1925 3584 2291 3584 
Q 2894 3584 3203 3211 
Q 3513 2838 3513 2113 
z
" transform="scale(0.015625)"/>
       <path id="DejaVuSans-66" d="M 2375 4863 
L 2375 4384 
L 1825 4384 
Q 1516 4384 1395 4259 
Q 1275 4134 1275 3809 
L 1275 3500 
L 2222 3500 
L 2222 3053 
L 1275 3053 
L 1275 0 
L 697 0 
L 697 3053 
L 147 3053 
L 147 3500 
L 697 3500 
L 697 3744 
Q 697 4328 969 4595 
Q 1241 4863 1831 4863 
L 2375 4863 
z
" transform="scale(0.015625)"/>
      </defs>
      <use xlink:href="#DejaVuSans-4d"/>
      <use xlink:href="#DejaVuSans-65" transform="translate(86.279297 0)"/>
      <use xlink:href="#DejaVuSans-63" transform="translate(147.802734 0)"/>
      <use xlink:href="#DejaVuSans-68" transform="translate(202.783203 0)"/>
      <use xlink:href="#DejaVuSans-69" transform="translate(266.162109 0)"/>
      <use xlink:href="#DejaVuSans-6e" transform="translate(293.945312 0)"/>
      <use xlink:href="#DejaVuSans-66" transform="translate(357.324219 0)"/>
      <use xlink:href="#DejaVuSans-6f" transform="translate(392.529297 0)"/>
      <use xlink:href="#DejaVuSans-72" transform="translate(453.710938 0)"/>
      <use xlink:href="#DejaVuSans-6d" transform="translate(493.074219 0)"/>
      <use xlink:href="#DejaVuSans-65" transform="translate(590.486328 0)"/>
      <use xlink:href="#DejaVuSans-64" transform="translate(652.009766 0)"/>
     </g>
    </g>
    <g id="patch_34">
     <path d="M 402.592187 42.076563 
L 422.592187 42.076563 
L 422.592187 35.076563 
L 402.592187 35.076563 
z
" style="fill-opacity: 0.3; stroke: #ffffff; stroke-linejoin: miter"/>
    </g>
    <g id="text_8">
     <!-- RC + 0 -->
     <g transform="translate(430.592187 42.076563) scale(0.1 -0.1)">
      <defs>
       <path id="DejaVuSans-52" d="M 2841 2188 
Q 3044 2119 3236 1894 
Q 3428 1669 3622 1275 
L 4263 0 
L 3584 0 
L 2988 1197 
Q 2756 1666 2539 1819 
Q 2322 1972 1947 1972 
L 1259 1972 
L 1259 0 
L 628 0 
L 628 4666 
L 2053 4666 
Q 2853 4666 3247 4331 
Q 3641 3997 3641 3322 
Q 3641 2881 3436 2590 
Q 3231 2300 2841 2188 
z
M 1259 4147 
L 1259 2491 
L 2053 2491 
Q 2509 2491 2742 2702 
Q 2975 2913 2975 3322 
Q 2975 3731 2742 3939 
Q 2509 4147 2053 4147 
L 1259 4147 
z
" transform="scale(0.015625)"/>
       <path id="DejaVuSans-2b" d="M 2944 4013 
L 2944 2272 
L 4684 2272 
L 4684 1741 
L 2944 1741 
L 2944 0 
L 2419 0 
L 2419 1741 
L 678 1741 
L 678 2272 
L 2419 2272 
L 2419 4013 
L 2944 4013 
z
" transform="scale(0.015625)"/>
      </defs>
      <use xlink:href="#DejaVuSans-52"/>
      <use xlink:href="#DejaVuSans-43" transform="translate(64.482422 0)"/>
      <use xlink:href="#DejaVuSans-20" transform="translate(134.306641 0)"/>
      <use xlink:href="#DejaVuSans-2b" transform="translate(166.09375 0)"/>
      <use xlink:href="#DejaVuSans-20" transform="translate(249.882812 0)"/>
      <use xlink:href="#DejaVuSans-30" transform="translate(281.669922 0)"/>
     </g>
    </g>
    <g id="patch_35">
     <path d="M 402.592187 56.754687 
L 422.592187 56.754687 
L 422.592187 49.754687 
L 402.592187 49.754687 
z
" style="fill-opacity: 0.45; stroke: #ffffff; stroke-linejoin: miter"/>
    </g>
    <g id="text_9">
     <!-- RC + 1 -->
     <g transform="translate(430.592187 56.754687) scale(0.1 -0.1)">
      <use xlink:href="#DejaVuSans-52"/>
      <use xlink:href="#DejaVuSans-43" transform="translate(64.482422 0)"/>
      <use xlink:href="#DejaVuSans-20" transform="translate(134.306641 0)"/>
      <use xlink:href="#DejaVuSans-2b" transform="translate(166.09375 0)"/>
      <use xlink:href="#DejaVuSans-20" transform="translate(249.882812 0)"/>
      <use xlink:href="#DejaVuSans-31" transform="translate(281.669922 0)"/>
     </g>
    </g>
    <g id="patch_36">
     <path d="M 402.592187 71.432813 
L 422.592187 71.432813 
L 422.592187 64.432813 
L 402.592187 64.432813 
z
" style="fill-opacity: 0.6; stroke: #ffffff; stroke-linejoin: miter"/>
    </g>
    <g id="text_10">
     <!-- RC + 2 -->
     <g transform="translate(430.592187 71.432813) scale(0.1 -0.1)">
      <use xlink:href="#DejaVuSans-52"/>
      <use xlink:href="#DejaVuSans-43" transform="translate(64.482422 0)"/>
      <use xlink:href="#DejaVuSans-20" transform="translate(134.306641 0)"/>
      <use xlink:href="#DejaVuSans-2b" transform="translate(166.09375 0)"/>
      <use xlink:href="#DejaVuSans-20" transform="translate(249.882812 0)"/>
      <use xlink:href="#DejaVuSans-32" transform="translate(281.669922 0)"/>
     </g>
    </g>
    <g id="patch_37">
     <path d="M 402.592187 86.110937 
L 422.592187 86.110937 
L 422.592187 79.110937 
L 402.592187 79.110937 
z
" style="fill-opacity: 0.85; stroke: #ffffff; stroke-linejoin: miter"/>
    </g>
    <g id="text_11">
     <!-- RC + 3 -->
     <g transform="translate(430.592187 86.110937) scale(0.1 -0.1)">
      <use xlink:href="#DejaVuSans-52"/>
      <use xlink:href="#DejaVuSans-43" transform="translate(64.482422 0)"/>
      <use xlink:href="#DejaVuSans-20" transform="translate(134.306641 0)"/>
      <use xlink:href="#DejaVuSans-2b" transform="translate(166.09375 0)"/>
      <use xlink:href="#DejaVuSans-20" transform="translate(249.882812 0)"/>
      <use xlink:href="#DejaVuSans-33" transform="translate(281.669922 0)"/>
     </g>
    </g>
    <g id="patch_38">
     <path d="M 402.592187 100.789062 
L 422.592187 100.789062 
L 422.592187 93.789062 
L 402.592187 93.789062 
z
" style="stroke: #ffffff; stroke-linejoin: miter"/>
    </g>
    <g id="text_12">
     <!-- RC + 4 -->
     <g transform="translate(430.592187 100.789062) scale(0.1 -0.1)">
      <defs>
       <path id="DejaVuSans-34" d="M 2419 4116 
L 825 1625 
L 2419 1625 
L 2419 4116 
z
M 2253 4666 
L 3047 4666 
L 3047 1625 
L 3713 1625 
L 3713 1100 
L 3047 1100 
L 3047 0 
L 2419 0 
L 2419 1100 
L 313 1100 
L 313 1709 
L 2253 4666 
z
" transform="scale(0.015625)"/>
      </defs>
      <use xlink:href="#DejaVuSans-52"/>
      <use xlink:href="#DejaVuSans-43" transform="translate(64.482422 0)"/>
      <use xlink:href="#DejaVuSans-20" transform="translate(134.306641 0)"/>
      <use xlink:href="#DejaVuSans-2b" transform="translate(166.09375 0)"/>
      <use xlink:href="#DejaVuSans-20" transform="translate(249.882812 0)"/>
      <use xlink:href="#DejaVuSans-34" transform="translate(281.669922 0)"/>
     </g>
    </g>
    <g id="patch_39">
     <path d="M 402.592187 115.467187 
L 422.592187 115.467187 
L 422.592187 108.467187 
L 402.592187 108.467187 
z
" style="fill: #800080; fill-opacity: 0.3; stroke: #ffffff; stroke-linejoin: miter"/>
    </g>
    <g id="text_13">
     <!-- Mechinferred &gt;0.91 -->
     <g transform="translate(430.592187 115.467187) scale(0.1 -0.1)">
      <defs>
       <path id="DejaVuSans-3e" d="M 678 3150 
L 678 3719 
L 4684 2266 
L 4684 1747 
L 678 294 
L 678 863 
L 3897 2003 
L 678 3150 
z
" transform="scale(0.015625)"/>
       <path id="DejaVuSans-2e" d="M 684 794 
L 1344 794 
L 1344 0 
L 684 0 
L 684 794 
z
" transform="scale(0.015625)"/>
       <path id="DejaVuSans-39" d="M 703 97 
L 703 672 
Q 941 559 1184 500 
Q 1428 441 1663 441 
Q 2288 441 2617 861 
Q 2947 1281 2994 2138 
Q 2813 1869 2534 1725 
Q 2256 1581 1919 1581 
Q 1219 1581 811 2004 
Q 403 2428 403 3163 
Q 403 3881 828 4315 
Q 1253 4750 1959 4750 
Q 2769 4750 3195 4129 
Q 3622 3509 3622 2328 
Q 3622 1225 3098 567 
Q 2575 -91 1691 -91 
Q 1453 -91 1209 -44 
Q 966 3 703 97 
z
M 1959 2075 
Q 2384 2075 2632 2365 
Q 2881 2656 2881 3163 
Q 2881 3666 2632 3958 
Q 2384 4250 1959 4250 
Q 1534 4250 1286 3958 
Q 1038 3666 1038 3163 
Q 1038 2656 1286 2365 
Q 1534 2075 1959 2075 
z
" transform="scale(0.015625)"/>
      </defs>
      <use xlink:href="#DejaVuSans-4d"/>
      <use xlink:href="#DejaVuSans-65" transform="translate(86.279297 0)"/>
      <use xlink:href="#DejaVuSans-63" transform="translate(147.802734 0)"/>
      <use xlink:href="#DejaVuSans-68" transform="translate(202.783203 0)"/>
      <use xlink:href="#DejaVuSans-69" transform="translate(266.162109 0)"/>
      <use xlink:href="#DejaVuSans-6e" transform="translate(293.945312 0)"/>
      <use xlink:href="#DejaVuSans-66" transform="translate(357.324219 0)"/>
      <use xlink:href="#DejaVuSans-65" transform="translate(392.529297 0)"/>
      <use xlink:href="#DejaVuSans-72" transform="translate(454.052734 0)"/>
      <use xlink:href="#DejaVuSans-72" transform="translate(493.416016 0)"/>
      <use xlink:href="#DejaVuSans-65" transform="translate(532.279297 0)"/>
      <use xlink:href="#DejaVuSans-64" transform="translate(593.802734 0)"/>
      <use xlink:href="#DejaVuSans-20" transform="translate(657.279297 0)"/>
      <use xlink:href="#DejaVuSans-3e" transform="translate(689.066406 0)"/>
      <use xlink:href="#DejaVuSans-30" transform="translate(772.855469 0)"/>
      <use xlink:href="#DejaVuSans-2e" transform="translate(836.478516 0)"/>
      <use xlink:href="#DejaVuSans-39" transform="translate(868.265625 0)"/>
      <use xlink:href="#DejaVuSans-31" transform="translate(931.888672 0)"/>
     </g>
    </g>
    <g id="patch_40">
     <path d="M 550.145313 27.398438 
L 570.145313 27.398438 
L 570.145313 20.398438 
L 550.145313 20.398438 
z
" style="fill: #800080; fill-opacity: 0.45; stroke: #ffffff; stroke-linejoin: miter"/>
    </g>
    <g id="text_14">
     <!-- Mechinferred &gt;0.13 -->
     <g transform="translate(578.145313 27.398438) scale(0.1 -0.1)">
      <use xlink:href="#DejaVuSans-4d"/>
      <use xlink:href="#DejaVuSans-65" transform="translate(86.279297 0)"/>
      <use xlink:href="#DejaVuSans-63" transform="translate(147.802734 0)"/>
      <use xlink:href="#DejaVuSans-68" transform="translate(202.783203 0)"/>
      <use xlink:href="#DejaVuSans-69" transform="translate(266.162109 0)"/>
      <use xlink:href="#DejaVuSans-6e" transform="translate(293.945312 0)"/>
      <use xlink:href="#DejaVuSans-66" transform="translate(357.324219 0)"/>
      <use xlink:href="#DejaVuSans-65" transform="translate(392.529297 0)"/>
      <use xlink:href="#DejaVuSans-72" transform="translate(454.052734 0)"/>
      <use xlink:href="#DejaVuSans-72" transform="translate(493.416016 0)"/>
      <use xlink:href="#DejaVuSans-65" transform="translate(532.279297 0)"/>
      <use xlink:href="#DejaVuSans-64" transform="translate(593.802734 0)"/>
      <use xlink:href="#DejaVuSans-20" transform="translate(657.279297 0)"/>
      <use xlink:href="#DejaVuSans-3e" transform="translate(689.066406 0)"/>
      <use xlink:href="#DejaVuSans-30" transform="translate(772.855469 0)"/>
      <use xlink:href="#DejaVuSans-2e" transform="translate(836.478516 0)"/>
      <use xlink:href="#DejaVuSans-31" transform="translate(868.265625 0)"/>
      <use xlink:href="#DejaVuSans-33" transform="translate(931.888672 0)"/>
     </g>
    </g>
    <g id="patch_41">
     <path d="M 550.145313 42.076563 
L 570.145313 42.076563 
L 570.145313 35.076563 
L 550.145313 35.076563 
z
" style="fill: #800080; fill-opacity: 0.6; stroke: #ffffff; stroke-linejoin: miter"/>
    </g>
    <g id="text_15">
     <!-- Mechinferred &gt;0.04 -->
     <g transform="translate(578.145313 42.076563) scale(0.1 -0.1)">
      <use xlink:href="#DejaVuSans-4d"/>
      <use xlink:href="#DejaVuSans-65" transform="translate(86.279297 0)"/>
      <use xlink:href="#DejaVuSans-63" transform="translate(147.802734 0)"/>
      <use xlink:href="#DejaVuSans-68" transform="translate(202.783203 0)"/>
      <use xlink:href="#DejaVuSans-69" transform="translate(266.162109 0)"/>
      <use xlink:href="#DejaVuSans-6e" transform="translate(293.945312 0)"/>
      <use xlink:href="#DejaVuSans-66" transform="translate(357.324219 0)"/>
      <use xlink:href="#DejaVuSans-65" transform="translate(392.529297 0)"/>
      <use xlink:href="#DejaVuSans-72" transform="translate(454.052734 0)"/>
      <use xlink:href="#DejaVuSans-72" transform="translate(493.416016 0)"/>
      <use xlink:href="#DejaVuSans-65" transform="translate(532.279297 0)"/>
      <use xlink:href="#DejaVuSans-64" transform="translate(593.802734 0)"/>
      <use xlink:href="#DejaVuSans-20" transform="translate(657.279297 0)"/>
      <use xlink:href="#DejaVuSans-3e" transform="translate(689.066406 0)"/>
      <use xlink:href="#DejaVuSans-30" transform="translate(772.855469 0)"/>
      <use xlink:href="#DejaVuSans-2e" transform="translate(836.478516 0)"/>
      <use xlink:href="#DejaVuSans-30" transform="translate(868.265625 0)"/>
      <use xlink:href="#DejaVuSans-34" transform="translate(931.888672 0)"/>
     </g>
    </g>
    <g id="patch_42">
     <path d="M 550.145313 56.754687 
L 570.145313 56.754687 
L 570.145313 49.754687 
L 550.145313 49.754687 
z
" style="fill: #800080; fill-opacity: 0.85; stroke: #ffffff; stroke-linejoin: miter"/>
    </g>
    <g id="text_16">
     <!-- Mechinferred &gt;0.02 -->
     <g transform="translate(578.145313 56.754687) scale(0.1 -0.1)">
      <use xlink:href="#DejaVuSans-4d"/>
      <use xlink:href="#DejaVuSans-65" transform="translate(86.279297 0)"/>
      <use xlink:href="#DejaVuSans-63" transform="translate(147.802734 0)"/>
      <use xlink:href="#DejaVuSans-68" transform="translate(202.783203 0)"/>
      <use xlink:href="#DejaVuSans-69" transform="translate(266.162109 0)"/>
      <use xlink:href="#DejaVuSans-6e" transform="translate(293.945312 0)"/>
      <use xlink:href="#DejaVuSans-66" transform="translate(357.324219 0)"/>
      <use xlink:href="#DejaVuSans-65" transform="translate(392.529297 0)"/>
      <use xlink:href="#DejaVuSans-72" transform="translate(454.052734 0)"/>
      <use xlink:href="#DejaVuSans-72" transform="translate(493.416016 0)"/>
      <use xlink:href="#DejaVuSans-65" transform="translate(532.279297 0)"/>
      <use xlink:href="#DejaVuSans-64" transform="translate(593.802734 0)"/>
      <use xlink:href="#DejaVuSans-20" transform="translate(657.279297 0)"/>
      <use xlink:href="#DejaVuSans-3e" transform="translate(689.066406 0)"/>
      <use xlink:href="#DejaVuSans-30" transform="translate(772.855469 0)"/>
      <use xlink:href="#DejaVuSans-2e" transform="translate(836.478516 0)"/>
      <use xlink:href="#DejaVuSans-30" transform="translate(868.265625 0)"/>
      <use xlink:href="#DejaVuSans-32" transform="translate(931.888672 0)"/>
     </g>
    </g>
    <g id="patch_43">
     <path d="M 550.145313 71.432813 
L 570.145313 71.432813 
L 570.145313 64.432813 
L 550.145313 64.432813 
z
" style="fill: #800080; stroke: #ffffff; stroke-linejoin: miter"/>
    </g>
    <g id="text_17">
     <!-- Mechinferred &gt;0.01 -->
     <g transform="translate(578.145313 71.432813) scale(0.1 -0.1)">
      <use xlink:href="#DejaVuSans-4d"/>
      <use xlink:href="#DejaVuSans-65" transform="translate(86.279297 0)"/>
      <use xlink:href="#DejaVuSans-63" transform="translate(147.802734 0)"/>
      <use xlink:href="#DejaVuSans-68" transform="translate(202.783203 0)"/>
      <use xlink:href="#DejaVuSans-69" transform="translate(266.162109 0)"/>
      <use xlink:href="#DejaVuSans-6e" transform="translate(293.945312 0)"/>
      <use xlink:href="#DejaVuSans-66" transform="translate(357.324219 0)"/>
      <use xlink:href="#DejaVuSans-65" transform="translate(392.529297 0)"/>
      <use xlink:href="#DejaVuSans-72" transform="translate(454.052734 0)"/>
      <use xlink:href="#DejaVuSans-72" transform="translate(493.416016 0)"/>
      <use xlink:href="#DejaVuSans-65" transform="translate(532.279297 0)"/>
      <use xlink:href="#DejaVuSans-64" transform="translate(593.802734 0)"/>
      <use xlink:href="#DejaVuSans-20" transform="translate(657.279297 0)"/>
      <use xlink:href="#DejaVuSans-3e" transform="translate(689.066406 0)"/>
      <use xlink:href="#DejaVuSans-30" transform="translate(772.855469 0)"/>
      <use xlink:href="#DejaVuSans-2e" transform="translate(836.478516 0)"/>
      <use xlink:href="#DejaVuSans-30" transform="translate(868.265625 0)"/>
      <use xlink:href="#DejaVuSans-31" transform="translate(931.888672 0)"/>
     </g>
    </g>
    <g id="patch_44">
     <path d="M 550.145313 86.110937 
L 570.145313 86.110937 
L 570.145313 79.110937 
L 550.145313 79.110937 
z
" style="fill: #ff8c00; stroke: #ffffff; stroke-linejoin: miter"/>
    </g>
    <g id="text_18">
     <!-- Pathway-level clustering -->
     <g transform="translate(578.145313 86.110937) scale(0.1 -0.1)">
      <defs>
       <path id="DejaVuSans-50" d="M 1259 4147 
L 1259 2394 
L 2053 2394 
Q 2494 2394 2734 2622 
Q 2975 2850 2975 3272 
Q 2975 3691 2734 3919 
Q 2494 4147 2053 4147 
L 1259 4147 
z
M 628 4666 
L 2053 4666 
Q 2838 4666 3239 4311 
Q 3641 3956 3641 3272 
Q 3641 2581 3239 2228 
Q 2838 1875 2053 1875 
L 1259 1875 
L 1259 0 
L 628 0 
L 628 4666 
z
" transform="scale(0.015625)"/>
       <path id="DejaVuSans-77" d="M 269 3500 
L 844 3500 
L 1563 769 
L 2278 3500 
L 2956 3500 
L 3675 769 
L 4391 3500 
L 4966 3500 
L 4050 0 
L 3372 0 
L 2619 2869 
L 1863 0 
L 1184 0 
L 269 3500 
z
" transform="scale(0.015625)"/>
       <path id="DejaVuSans-79" d="M 2059 -325 
Q 1816 -950 1584 -1140 
Q 1353 -1331 966 -1331 
L 506 -1331 
L 506 -850 
L 844 -850 
Q 1081 -850 1212 -737 
Q 1344 -625 1503 -206 
L 1606 56 
L 191 3500 
L 800 3500 
L 1894 763 
L 2988 3500 
L 3597 3500 
L 2059 -325 
z
" transform="scale(0.015625)"/>
       <path id="DejaVuSans-2d" d="M 313 2009 
L 1997 2009 
L 1997 1497 
L 313 1497 
L 313 2009 
z
" transform="scale(0.015625)"/>
       <path id="DejaVuSans-6c" d="M 603 4863 
L 1178 4863 
L 1178 0 
L 603 0 
L 603 4863 
z
" transform="scale(0.015625)"/>
       <path id="DejaVuSans-76" d="M 191 3500 
L 800 3500 
L 1894 563 
L 2988 3500 
L 3597 3500 
L 2284 0 
L 1503 0 
L 191 3500 
z
" transform="scale(0.015625)"/>
       <path id="DejaVuSans-73" d="M 2834 3397 
L 2834 2853 
Q 2591 2978 2328 3040 
Q 2066 3103 1784 3103 
Q 1356 3103 1142 2972 
Q 928 2841 928 2578 
Q 928 2378 1081 2264 
Q 1234 2150 1697 2047 
L 1894 2003 
Q 2506 1872 2764 1633 
Q 3022 1394 3022 966 
Q 3022 478 2636 193 
Q 2250 -91 1575 -91 
Q 1294 -91 989 -36 
Q 684 19 347 128 
L 347 722 
Q 666 556 975 473 
Q 1284 391 1588 391 
Q 1994 391 2212 530 
Q 2431 669 2431 922 
Q 2431 1156 2273 1281 
Q 2116 1406 1581 1522 
L 1381 1569 
Q 847 1681 609 1914 
Q 372 2147 372 2553 
Q 372 3047 722 3315 
Q 1072 3584 1716 3584 
Q 2034 3584 2315 3537 
Q 2597 3491 2834 3397 
z
" transform="scale(0.015625)"/>
      </defs>
      <use xlink:href="#DejaVuSans-50"/>
      <use xlink:href="#DejaVuSans-61" transform="translate(55.802734 0)"/>
      <use xlink:href="#DejaVuSans-74" transform="translate(117.082031 0)"/>
      <use xlink:href="#DejaVuSans-68" transform="translate(156.291016 0)"/>
      <use xlink:href="#DejaVuSans-77" transform="translate(219.669922 0)"/>
      <use xlink:href="#DejaVuSans-61" transform="translate(301.457031 0)"/>
      <use xlink:href="#DejaVuSans-79" transform="translate(362.736328 0)"/>
      <use xlink:href="#DejaVuSans-2d" transform="translate(420.166016 0)"/>
      <use xlink:href="#DejaVuSans-6c" transform="translate(456.25 0)"/>
      <use xlink:href="#DejaVuSans-65" transform="translate(484.033203 0)"/>
      <use xlink:href="#DejaVuSans-76" transform="translate(545.556641 0)"/>
      <use xlink:href="#DejaVuSans-65" transform="translate(604.736328 0)"/>
      <use xlink:href="#DejaVuSans-6c" transform="translate(666.259766 0)"/>
      <use xlink:href="#DejaVuSans-20" transform="translate(694.042969 0)"/>
      <use xlink:href="#DejaVuSans-63" transform="translate(725.830078 0)"/>
      <use xlink:href="#DejaVuSans-6c" transform="translate(780.810547 0)"/>
      <use xlink:href="#DejaVuSans-75" transform="translate(808.59375 0)"/>
      <use xlink:href="#DejaVuSans-73" transform="translate(871.972656 0)"/>
      <use xlink:href="#DejaVuSans-74" transform="translate(924.072266 0)"/>
      <use xlink:href="#DejaVuSans-65" transform="translate(963.28125 0)"/>
      <use xlink:href="#DejaVuSans-72" transform="translate(1024.804688 0)"/>
      <use xlink:href="#DejaVuSans-69" transform="translate(1065.917969 0)"/>
      <use xlink:href="#DejaVuSans-6e" transform="translate(1093.701172 0)"/>
      <use xlink:href="#DejaVuSans-67" transform="translate(1157.080078 0)"/>
     </g>
    </g>
    <g id="patch_45">
     <path d="M 550.145313 100.789062 
L 570.145313 100.789062 
L 570.145313 93.789062 
L 550.145313 93.789062 
z
" style="fill: #0000ff; stroke: #ffffff; stroke-linejoin: miter"/>
    </g>
    <g id="text_19">
     <!-- RDChiral -->
     <g transform="translate(578.145313 100.789062) scale(0.1 -0.1)">
      <defs>
       <path id="DejaVuSans-44" d="M 1259 4147 
L 1259 519 
L 2022 519 
Q 2988 519 3436 956 
Q 3884 1394 3884 2338 
Q 3884 3275 3436 3711 
Q 2988 4147 2022 4147 
L 1259 4147 
z
M 628 4666 
L 1925 4666 
Q 3281 4666 3915 4102 
Q 4550 3538 4550 2338 
Q 4550 1131 3912 565 
Q 3275 0 1925 0 
L 628 0 
L 628 4666 
z
" transform="scale(0.015625)"/>
      </defs>
      <use xlink:href="#DejaVuSans-52"/>
      <use xlink:href="#DejaVuSans-44" transform="translate(69.482422 0)"/>
      <use xlink:href="#DejaVuSans-43" transform="translate(146.484375 0)"/>
      <use xlink:href="#DejaVuSans-68" transform="translate(216.308594 0)"/>
      <use xlink:href="#DejaVuSans-69" transform="translate(279.6875 0)"/>
      <use xlink:href="#DejaVuSans-72" transform="translate(307.470703 0)"/>
      <use xlink:href="#DejaVuSans-61" transform="translate(348.583984 0)"/>
      <use xlink:href="#DejaVuSans-6c" transform="translate(409.863281 0)"/>
     </g>
    </g>
   </g>
  </g>
 </g>
 <defs>
  <clipPath id="pc04390e853">
   <rect x="50.002685" y="10.8" width="659.197315" height="307.24"/>
  </clipPath>
 </defs>
</svg>
