<?xml version="1.0" encoding="utf-8" standalone="no"?>
<!DOCTYPE svg PUBLIC "-//W3C//DTD SVG 1.1//EN"
  "http://www.w3.org/Graphics/SVG/1.1/DTD/svg11.dtd">
<svg xmlns:xlink="http://www.w3.org/1999/xlink" width="576pt" height="432pt" viewBox="0 0 576 432" xmlns="http://www.w3.org/2000/svg" version="1.1">
 <metadata>
  <rdf:RDF xmlns:dc="http://purl.org/dc/elements/1.1/" xmlns:cc="http://creativecommons.org/ns#" xmlns:rdf="http://www.w3.org/1999/02/22-rdf-syntax-ns#">
   <cc:Work>
    <dc:type rdf:resource="http://purl.org/dc/dcmitype/StillImage"/>
    <dc:date>2025-06-09T12:56:45.314038</dc:date>
    <dc:format>image/svg+xml</dc:format>
    <dc:creator>
     <cc:Agent>
      <dc:title>Matplotlib v3.10.1, https://matplotlib.org/</dc:title>
     </cc:Agent>
    </dc:creator>
   </cc:Work>
  </rdf:RDF>
 </metadata>
 <defs>
  <style type="text/css">*{stroke-linejoin: round; stroke-linecap: butt}</style>
 </defs>
 <g id="figure_1">
  <g id="patch_1">
   <path d="M 0 432 
L 576 432 
L 576 0 
L 0 0 
z
" style="fill: #ffffff"/>
  </g>
  <g id="axes_1">
   <g id="patch_2">
    <path d="M 47.72 415.08 
L 565.2 415.08 
L 565.2 10.8 
L 47.72 10.8 
z
" style="fill: #ffffff"/>
   </g>
   <g id="patch_3">
    <path d="M 71.241818 576.792 
L 103.135809 576.792 
L 103.135809 189.229195 
L 71.241818 189.229195 
z
" clip-path="url(#p983a2700c0)" style="fill: #008000"/>
   </g>
   <g id="patch_4">
    <path d="M 111.109307 576.792 
L 143.003297 576.792 
L 143.003297 276.245512 
L 111.109307 276.245512 
z
" clip-path="url(#p983a2700c0)" style="fill: #0000ff"/>
   </g>
   <g id="patch_5">
    <path d="M 150.976795 576.792 
L 182.870786 576.792 
L 182.870786 232.663301 
L 150.976795 232.663301 
z
" clip-path="url(#p983a2700c0)" style="fill: #800080; fill-opacity: 0.3"/>
   </g>
   <g id="patch_6">
    <path d="M 190.844284 576.792 
L 222.738274 576.792 
L 222.738274 202.034459 
L 190.844284 202.034459 
z
" clip-path="url(#p983a2700c0)" style="fill: #800080; fill-opacity: 0.45"/>
   </g>
   <g id="patch_7">
    <path d="M 230.711772 576.792 
L 262.605763 576.792 
L 262.605763 186.74653 
L 230.711772 186.74653 
z
" clip-path="url(#p983a2700c0)" style="fill: #800080; fill-opacity: 0.6"/>
   </g>
   <g id="patch_8">
    <path d="M 270.57926 576.792 
L 302.473251 576.792 
L 302.473251 181.341078 
L 270.57926 181.341078 
z
" clip-path="url(#p983a2700c0)" style="fill: #800080; fill-opacity: 0.85"/>
   </g>
   <g id="patch_9">
    <path d="M 310.446749 576.792 
L 342.34074 576.792 
L 342.34074 168.304275 
L 310.446749 168.304275 
z
" clip-path="url(#p983a2700c0)" style="fill: #800080"/>
   </g>
   <g id="patch_10">
    <path d="M 350.314237 576.792 
L 382.208228 576.792 
L 382.208228 349.145598 
L 350.314237 349.145598 
z
" clip-path="url(#p983a2700c0)" style="fill-opacity: 0.3"/>
   </g>
   <g id="patch_11">
    <path d="M 390.181726 576.792 
L 422.075716 576.792 
L 422.075716 129.990992 
L 390.181726 129.990992 
z
" clip-path="url(#p983a2700c0)" style="fill-opacity: 0.45"/>
   </g>
   <g id="patch_12">
    <path d="M 430.049214 576.792 
L 461.943205 576.792 
L 461.943205 95.864691 
L 430.049214 95.864691 
z
" clip-path="url(#p983a2700c0)" style="fill-opacity: 0.6"/>
   </g>
   <g id="patch_13">
    <path d="M 469.916703 576.792 
L 501.810693 576.792 
L 501.810693 92.807321 
L 469.916703 92.807321 
z
" clip-path="url(#p983a2700c0)" style="fill-opacity: 0.85"/>
   </g>
   <g id="patch_14">
    <path d="M 509.784191 576.792 
L 541.678182 576.792 
L 541.678182 95.15453 
L 509.784191 95.15453 
z
" clip-path="url(#p983a2700c0)"/>
   </g>
   <g id="matplotlib.axis_1">
    <g id="xtick_1">
     <g id="line2d_1">
      <defs>
       <path id="m0b098aecf3" d="M 0 0 
L 0 3.5 
" style="stroke: #000000; stroke-width: 0.8"/>
      </defs>
      <g>
       <use xlink:href="#m0b098aecf3" x="87.188814" y="415.08" style="stroke: #000000; stroke-width: 0.8"/>
      </g>
     </g>
    </g>
    <g id="xtick_2">
     <g id="line2d_2">
      <g>
       <use xlink:href="#m0b098aecf3" x="127.056302" y="415.08" style="stroke: #000000; stroke-width: 0.8"/>
      </g>
     </g>
    </g>
    <g id="xtick_3">
     <g id="line2d_3">
      <g>
       <use xlink:href="#m0b098aecf3" x="166.92379" y="415.08" style="stroke: #000000; stroke-width: 0.8"/>
      </g>
     </g>
    </g>
    <g id="xtick_4">
     <g id="line2d_4">
      <g>
       <use xlink:href="#m0b098aecf3" x="206.791279" y="415.08" style="stroke: #000000; stroke-width: 0.8"/>
      </g>
     </g>
    </g>
    <g id="xtick_5">
     <g id="line2d_5">
      <g>
       <use xlink:href="#m0b098aecf3" x="246.658767" y="415.08" style="stroke: #000000; stroke-width: 0.8"/>
      </g>
     </g>
    </g>
    <g id="xtick_6">
     <g id="line2d_6">
      <g>
       <use xlink:href="#m0b098aecf3" x="286.526256" y="415.08" style="stroke: #000000; stroke-width: 0.8"/>
      </g>
     </g>
    </g>
    <g id="xtick_7">
     <g id="line2d_7">
      <g>
       <use xlink:href="#m0b098aecf3" x="326.393744" y="415.08" style="stroke: #000000; stroke-width: 0.8"/>
      </g>
     </g>
    </g>
    <g id="xtick_8">
     <g id="line2d_8">
      <g>
       <use xlink:href="#m0b098aecf3" x="366.261233" y="415.08" style="stroke: #000000; stroke-width: 0.8"/>
      </g>
     </g>
    </g>
    <g id="xtick_9">
     <g id="line2d_9">
      <g>
       <use xlink:href="#m0b098aecf3" x="406.128721" y="415.08" style="stroke: #000000; stroke-width: 0.8"/>
      </g>
     </g>
    </g>
    <g id="xtick_10">
     <g id="line2d_10">
      <g>
       <use xlink:href="#m0b098aecf3" x="445.99621" y="415.08" style="stroke: #000000; stroke-width: 0.8"/>
      </g>
     </g>
    </g>
    <g id="xtick_11">
     <g id="line2d_11">
      <g>
       <use xlink:href="#m0b098aecf3" x="485.863698" y="415.08" style="stroke: #000000; stroke-width: 0.8"/>
      </g>
     </g>
    </g>
    <g id="xtick_12">
     <g id="line2d_12">
      <g>
       <use xlink:href="#m0b098aecf3" x="525.731186" y="415.08" style="stroke: #000000; stroke-width: 0.8"/>
      </g>
     </g>
    </g>
   </g>
   <g id="matplotlib.axis_2">
    <g id="ytick_1">
     <g id="line2d_13">
      <defs>
       <path id="m7b1c9eaa54" d="M 0 0 
L -3.5 0 
" style="stroke: #000000; stroke-width: 0.8"/>
      </defs>
      <g>
       <use xlink:href="#m7b1c9eaa54" x="47.72" y="415.08" style="stroke: #000000; stroke-width: 0.8"/>
      </g>
     </g>
     <g id="text_1">
      <!-- 0.3 -->
      <g transform="translate(24.816875 418.879219) scale(0.1 -0.1)">
       <defs>
        <path id="DejaVuSans-30" d="M 2034 4250 
Q 1547 4250 1301 3770 
Q 1056 3291 1056 2328 
Q 1056 1369 1301 889 
Q 1547 409 2034 409 
Q 2525 409 2770 889 
Q 3016 1369 3016 2328 
Q 3016 3291 2770 3770 
Q 2525 4250 2034 4250 
z
M 2034 4750 
Q 2819 4750 3233 4129 
Q 3647 3509 3647 2328 
Q 3647 1150 3233 529 
Q 2819 -91 2034 -91 
Q 1250 -91 836 529 
Q 422 1150 422 2328 
Q 422 3509 836 4129 
Q 1250 4750 2034 4750 
z
" transform="scale(0.015625)"/>
        <path id="DejaVuSans-2e" d="M 684 794 
L 1344 794 
L 1344 0 
L 684 0 
L 684 794 
z
" transform="scale(0.015625)"/>
        <path id="DejaVuSans-33" d="M 2597 2516 
Q 3050 2419 3304 2112 
Q 3559 1806 3559 1356 
Q 3559 666 3084 287 
Q 2609 -91 1734 -91 
Q 1441 -91 1130 -33 
Q 819 25 488 141 
L 488 750 
Q 750 597 1062 519 
Q 1375 441 1716 441 
Q 2309 441 2620 675 
Q 2931 909 2931 1356 
Q 2931 1769 2642 2001 
Q 2353 2234 1838 2234 
L 1294 2234 
L 1294 2753 
L 1863 2753 
Q 2328 2753 2575 2939 
Q 2822 3125 2822 3475 
Q 2822 3834 2567 4026 
Q 2313 4219 1838 4219 
Q 1578 4219 1281 4162 
Q 984 4106 628 3988 
L 628 4550 
Q 988 4650 1302 4700 
Q 1616 4750 1894 4750 
Q 2613 4750 3031 4423 
Q 3450 4097 3450 3541 
Q 3450 3153 3228 2886 
Q 3006 2619 2597 2516 
z
" transform="scale(0.015625)"/>
       </defs>
       <use xlink:href="#DejaVuSans-30"/>
       <use xlink:href="#DejaVuSans-2e" transform="translate(63.623047 0)"/>
       <use xlink:href="#DejaVuSans-33" transform="translate(95.410156 0)"/>
      </g>
     </g>
    </g>
    <g id="ytick_2">
     <g id="line2d_14">
      <g>
       <use xlink:href="#m7b1c9eaa54" x="47.72" y="361.176" style="stroke: #000000; stroke-width: 0.8"/>
      </g>
     </g>
     <g id="text_2">
      <!-- 0.4 -->
      <g transform="translate(24.816875 364.975219) scale(0.1 -0.1)">
       <defs>
        <path id="DejaVuSans-34" d="M 2419 4116 
L 825 1625 
L 2419 1625 
L 2419 4116 
z
M 2253 4666 
L 3047 4666 
L 3047 1625 
L 3713 1625 
L 3713 1100 
L 3047 1100 
L 3047 0 
L 2419 0 
L 2419 1100 
L 313 1100 
L 313 1709 
L 2253 4666 
z
" transform="scale(0.015625)"/>
       </defs>
       <use xlink:href="#DejaVuSans-30"/>
       <use xlink:href="#DejaVuSans-2e" transform="translate(63.623047 0)"/>
       <use xlink:href="#DejaVuSans-34" transform="translate(95.410156 0)"/>
      </g>
     </g>
    </g>
    <g id="ytick_3">
     <g id="line2d_15">
      <g>
       <use xlink:href="#m7b1c9eaa54" x="47.72" y="307.272" style="stroke: #000000; stroke-width: 0.8"/>
      </g>
     </g>
     <g id="text_3">
      <!-- 0.5 -->
      <g transform="translate(24.816875 311.071219) scale(0.1 -0.1)">
       <defs>
        <path id="DejaVuSans-35" d="M 691 4666 
L 3169 4666 
L 3169 4134 
L 1269 4134 
L 1269 2991 
Q 1406 3038 1543 3061 
Q 1681 3084 1819 3084 
Q 2600 3084 3056 2656 
Q 3513 2228 3513 1497 
Q 3513 744 3044 326 
Q 2575 -91 1722 -91 
Q 1428 -91 1123 -41 
Q 819 9 494 109 
L 494 744 
Q 775 591 1075 516 
Q 1375 441 1709 441 
Q 2250 441 2565 725 
Q 2881 1009 2881 1497 
Q 2881 1984 2565 2268 
Q 2250 2553 1709 2553 
Q 1456 2553 1204 2497 
Q 953 2441 691 2322 
L 691 4666 
z
" transform="scale(0.015625)"/>
       </defs>
       <use xlink:href="#DejaVuSans-30"/>
       <use xlink:href="#DejaVuSans-2e" transform="translate(63.623047 0)"/>
       <use xlink:href="#DejaVuSans-35" transform="translate(95.410156 0)"/>
      </g>
     </g>
    </g>
    <g id="ytick_4">
     <g id="line2d_16">
      <g>
       <use xlink:href="#m7b1c9eaa54" x="47.72" y="253.368" style="stroke: #000000; stroke-width: 0.8"/>
      </g>
     </g>
     <g id="text_4">
      <!-- 0.6 -->
      <g transform="translate(24.816875 257.167219) scale(0.1 -0.1)">
       <defs>
        <path id="DejaVuSans-36" d="M 2113 2584 
Q 1688 2584 1439 2293 
Q 1191 2003 1191 1497 
Q 1191 994 1439 701 
Q 1688 409 2113 409 
Q 2538 409 2786 701 
Q 3034 994 3034 1497 
Q 3034 2003 2786 2293 
Q 2538 2584 2113 2584 
z
M 3366 4563 
L 3366 3988 
Q 3128 4100 2886 4159 
Q 2644 4219 2406 4219 
Q 1781 4219 1451 3797 
Q 1122 3375 1075 2522 
Q 1259 2794 1537 2939 
Q 1816 3084 2150 3084 
Q 2853 3084 3261 2657 
Q 3669 2231 3669 1497 
Q 3669 778 3244 343 
Q 2819 -91 2113 -91 
Q 1303 -91 875 529 
Q 447 1150 447 2328 
Q 447 3434 972 4092 
Q 1497 4750 2381 4750 
Q 2619 4750 2861 4703 
Q 3103 4656 3366 4563 
z
" transform="scale(0.015625)"/>
       </defs>
       <use xlink:href="#DejaVuSans-30"/>
       <use xlink:href="#DejaVuSans-2e" transform="translate(63.623047 0)"/>
       <use xlink:href="#DejaVuSans-36" transform="translate(95.410156 0)"/>
      </g>
     </g>
    </g>
    <g id="ytick_5">
     <g id="line2d_17">
      <g>
       <use xlink:href="#m7b1c9eaa54" x="47.72" y="199.464" style="stroke: #000000; stroke-width: 0.8"/>
      </g>
     </g>
     <g id="text_5">
      <!-- 0.7 -->
      <g transform="translate(24.816875 203.263219) scale(0.1 -0.1)">
       <defs>
        <path id="DejaVuSans-37" d="M 525 4666 
L 3525 4666 
L 3525 4397 
L 1831 0 
L 1172 0 
L 2766 4134 
L 525 4134 
L 525 4666 
z
" transform="scale(0.015625)"/>
       </defs>
       <use xlink:href="#DejaVuSans-30"/>
       <use xlink:href="#DejaVuSans-2e" transform="translate(63.623047 0)"/>
       <use xlink:href="#DejaVuSans-37" transform="translate(95.410156 0)"/>
      </g>
     </g>
    </g>
    <g id="ytick_6">
     <g id="line2d_18">
      <g>
       <use xlink:href="#m7b1c9eaa54" x="47.72" y="145.56" style="stroke: #000000; stroke-width: 0.8"/>
      </g>
     </g>
     <g id="text_6">
      <!-- 0.8 -->
      <g transform="translate(24.816875 149.359219) scale(0.1 -0.1)">
       <defs>
        <path id="DejaVuSans-38" d="M 2034 2216 
Q 1584 2216 1326 1975 
Q 1069 1734 1069 1313 
Q 1069 891 1326 650 
Q 1584 409 2034 409 
Q 2484 409 2743 651 
Q 3003 894 3003 1313 
Q 3003 1734 2745 1975 
Q 2488 2216 2034 2216 
z
M 1403 2484 
Q 997 2584 770 2862 
Q 544 3141 544 3541 
Q 544 4100 942 4425 
Q 1341 4750 2034 4750 
Q 2731 4750 3128 4425 
Q 3525 4100 3525 3541 
Q 3525 3141 3298 2862 
Q 3072 2584 2669 2484 
Q 3125 2378 3379 2068 
Q 3634 1759 3634 1313 
Q 3634 634 3220 271 
Q 2806 -91 2034 -91 
Q 1263 -91 848 271 
Q 434 634 434 1313 
Q 434 1759 690 2068 
Q 947 2378 1403 2484 
z
M 1172 3481 
Q 1172 3119 1398 2916 
Q 1625 2713 2034 2713 
Q 2441 2713 2670 2916 
Q 2900 3119 2900 3481 
Q 2900 3844 2670 4047 
Q 2441 4250 2034 4250 
Q 1625 4250 1398 4047 
Q 1172 3844 1172 3481 
z
" transform="scale(0.015625)"/>
       </defs>
       <use xlink:href="#DejaVuSans-30"/>
       <use xlink:href="#DejaVuSans-2e" transform="translate(63.623047 0)"/>
       <use xlink:href="#DejaVuSans-38" transform="translate(95.410156 0)"/>
      </g>
     </g>
    </g>
    <g id="ytick_7">
     <g id="line2d_19">
      <g>
       <use xlink:href="#m7b1c9eaa54" x="47.72" y="91.656" style="stroke: #000000; stroke-width: 0.8"/>
      </g>
     </g>
     <g id="text_7">
      <!-- 0.9 -->
      <g transform="translate(24.816875 95.455219) scale(0.1 -0.1)">
       <defs>
        <path id="DejaVuSans-39" d="M 703 97 
L 703 672 
Q 941 559 1184 500 
Q 1428 441 1663 441 
Q 2288 441 2617 861 
Q 2947 1281 2994 2138 
Q 2813 1869 2534 1725 
Q 2256 1581 1919 1581 
Q 1219 1581 811 2004 
Q 403 2428 403 3163 
Q 403 3881 828 4315 
Q 1253 4750 1959 4750 
Q 2769 4750 3195 4129 
Q 3622 3509 3622 2328 
Q 3622 1225 3098 567 
Q 2575 -91 1691 -91 
Q 1453 -91 1209 -44 
Q 966 3 703 97 
z
M 1959 2075 
Q 2384 2075 2632 2365 
Q 2881 2656 2881 3163 
Q 2881 3666 2632 3958 
Q 2384 4250 1959 4250 
Q 1534 4250 1286 3958 
Q 1038 3666 1038 3163 
Q 1038 2656 1286 2365 
Q 1534 2075 1959 2075 
z
" transform="scale(0.015625)"/>
       </defs>
       <use xlink:href="#DejaVuSans-30"/>
       <use xlink:href="#DejaVuSans-2e" transform="translate(63.623047 0)"/>
       <use xlink:href="#DejaVuSans-39" transform="translate(95.410156 0)"/>
      </g>
     </g>
    </g>
    <g id="ytick_8">
     <g id="line2d_20">
      <g>
       <use xlink:href="#m7b1c9eaa54" x="47.72" y="37.752" style="stroke: #000000; stroke-width: 0.8"/>
      </g>
     </g>
     <g id="text_8">
      <!-- 1.0 -->
      <g transform="translate(24.816875 41.551219) scale(0.1 -0.1)">
       <defs>
        <path id="DejaVuSans-31" d="M 794 531 
L 1825 531 
L 1825 4091 
L 703 3866 
L 703 4441 
L 1819 4666 
L 2450 4666 
L 2450 531 
L 3481 531 
L 3481 0 
L 794 0 
L 794 531 
z
" transform="scale(0.015625)"/>
       </defs>
       <use xlink:href="#DejaVuSans-31"/>
       <use xlink:href="#DejaVuSans-2e" transform="translate(63.623047 0)"/>
       <use xlink:href="#DejaVuSans-30" transform="translate(95.410156 0)"/>
      </g>
     </g>
    </g>
    <g id="text_9">
     <!-- Mean maximum reaction similarity -->
     <g transform="translate(18.737188 300.003281) rotate(-90) scale(0.1 -0.1)">
      <defs>
       <path id="DejaVuSans-4d" d="M 628 4666 
L 1569 4666 
L 2759 1491 
L 3956 4666 
L 4897 4666 
L 4897 0 
L 4281 0 
L 4281 4097 
L 3078 897 
L 2444 897 
L 1241 4097 
L 1241 0 
L 628 0 
L 628 4666 
z
" transform="scale(0.015625)"/>
       <path id="DejaVuSans-65" d="M 3597 1894 
L 3597 1613 
L 953 1613 
Q 991 1019 1311 708 
Q 1631 397 2203 397 
Q 2534 397 2845 478 
Q 3156 559 3463 722 
L 3463 178 
Q 3153 47 2828 -22 
Q 2503 -91 2169 -91 
Q 1331 -91 842 396 
Q 353 884 353 1716 
Q 353 2575 817 3079 
Q 1281 3584 2069 3584 
Q 2775 3584 3186 3129 
Q 3597 2675 3597 1894 
z
M 3022 2063 
Q 3016 2534 2758 2815 
Q 2500 3097 2075 3097 
Q 1594 3097 1305 2825 
Q 1016 2553 972 2059 
L 3022 2063 
z
" transform="scale(0.015625)"/>
       <path id="DejaVuSans-61" d="M 2194 1759 
Q 1497 1759 1228 1600 
Q 959 1441 959 1056 
Q 959 750 1161 570 
Q 1363 391 1709 391 
Q 2188 391 2477 730 
Q 2766 1069 2766 1631 
L 2766 1759 
L 2194 1759 
z
M 3341 1997 
L 3341 0 
L 2766 0 
L 2766 531 
Q 2569 213 2275 61 
Q 1981 -91 1556 -91 
Q 1019 -91 701 211 
Q 384 513 384 1019 
Q 384 1609 779 1909 
Q 1175 2209 1959 2209 
L 2766 2209 
L 2766 2266 
Q 2766 2663 2505 2880 
Q 2244 3097 1772 3097 
Q 1472 3097 1187 3025 
Q 903 2953 641 2809 
L 641 3341 
Q 956 3463 1253 3523 
Q 1550 3584 1831 3584 
Q 2591 3584 2966 3190 
Q 3341 2797 3341 1997 
z
" transform="scale(0.015625)"/>
       <path id="DejaVuSans-6e" d="M 3513 2113 
L 3513 0 
L 2938 0 
L 2938 2094 
Q 2938 2591 2744 2837 
Q 2550 3084 2163 3084 
Q 1697 3084 1428 2787 
Q 1159 2491 1159 1978 
L 1159 0 
L 581 0 
L 581 3500 
L 1159 3500 
L 1159 2956 
Q 1366 3272 1645 3428 
Q 1925 3584 2291 3584 
Q 2894 3584 3203 3211 
Q 3513 2838 3513 2113 
z
" transform="scale(0.015625)"/>
       <path id="DejaVuSans-20" transform="scale(0.015625)"/>
       <path id="DejaVuSans-6d" d="M 3328 2828 
Q 3544 3216 3844 3400 
Q 4144 3584 4550 3584 
Q 5097 3584 5394 3201 
Q 5691 2819 5691 2113 
L 5691 0 
L 5113 0 
L 5113 2094 
Q 5113 2597 4934 2840 
Q 4756 3084 4391 3084 
Q 3944 3084 3684 2787 
Q 3425 2491 3425 1978 
L 3425 0 
L 2847 0 
L 2847 2094 
Q 2847 2600 2669 2842 
Q 2491 3084 2119 3084 
Q 1678 3084 1418 2786 
Q 1159 2488 1159 1978 
L 1159 0 
L 581 0 
L 581 3500 
L 1159 3500 
L 1159 2956 
Q 1356 3278 1631 3431 
Q 1906 3584 2284 3584 
Q 2666 3584 2933 3390 
Q 3200 3197 3328 2828 
z
" transform="scale(0.015625)"/>
       <path id="DejaVuSans-78" d="M 3513 3500 
L 2247 1797 
L 3578 0 
L 2900 0 
L 1881 1375 
L 863 0 
L 184 0 
L 1544 1831 
L 300 3500 
L 978 3500 
L 1906 2253 
L 2834 3500 
L 3513 3500 
z
" transform="scale(0.015625)"/>
       <path id="DejaVuSans-69" d="M 603 3500 
L 1178 3500 
L 1178 0 
L 603 0 
L 603 3500 
z
M 603 4863 
L 1178 4863 
L 1178 4134 
L 603 4134 
L 603 4863 
z
" transform="scale(0.015625)"/>
       <path id="DejaVuSans-75" d="M 544 1381 
L 544 3500 
L 1119 3500 
L 1119 1403 
Q 1119 906 1312 657 
Q 1506 409 1894 409 
Q 2359 409 2629 706 
Q 2900 1003 2900 1516 
L 2900 3500 
L 3475 3500 
L 3475 0 
L 2900 0 
L 2900 538 
Q 2691 219 2414 64 
Q 2138 -91 1772 -91 
Q 1169 -91 856 284 
Q 544 659 544 1381 
z
M 1991 3584 
L 1991 3584 
z
" transform="scale(0.015625)"/>
       <path id="DejaVuSans-72" d="M 2631 2963 
Q 2534 3019 2420 3045 
Q 2306 3072 2169 3072 
Q 1681 3072 1420 2755 
Q 1159 2438 1159 1844 
L 1159 0 
L 581 0 
L 581 3500 
L 1159 3500 
L 1159 2956 
Q 1341 3275 1631 3429 
Q 1922 3584 2338 3584 
Q 2397 3584 2469 3576 
Q 2541 3569 2628 3553 
L 2631 2963 
z
" transform="scale(0.015625)"/>
       <path id="DejaVuSans-63" d="M 3122 3366 
L 3122 2828 
Q 2878 2963 2633 3030 
Q 2388 3097 2138 3097 
Q 1578 3097 1268 2742 
Q 959 2388 959 1747 
Q 959 1106 1268 751 
Q 1578 397 2138 397 
Q 2388 397 2633 464 
Q 2878 531 3122 666 
L 3122 134 
Q 2881 22 2623 -34 
Q 2366 -91 2075 -91 
Q 1284 -91 818 406 
Q 353 903 353 1747 
Q 353 2603 823 3093 
Q 1294 3584 2113 3584 
Q 2378 3584 2631 3529 
Q 2884 3475 3122 3366 
z
" transform="scale(0.015625)"/>
       <path id="DejaVuSans-74" d="M 1172 4494 
L 1172 3500 
L 2356 3500 
L 2356 3053 
L 1172 3053 
L 1172 1153 
Q 1172 725 1289 603 
Q 1406 481 1766 481 
L 2356 481 
L 2356 0 
L 1766 0 
Q 1100 0 847 248 
Q 594 497 594 1153 
L 594 3053 
L 172 3053 
L 172 3500 
L 594 3500 
L 594 4494 
L 1172 4494 
z
" transform="scale(0.015625)"/>
       <path id="DejaVuSans-6f" d="M 1959 3097 
Q 1497 3097 1228 2736 
Q 959 2375 959 1747 
Q 959 1119 1226 758 
Q 1494 397 1959 397 
Q 2419 397 2687 759 
Q 2956 1122 2956 1747 
Q 2956 2369 2687 2733 
Q 2419 3097 1959 3097 
z
M 1959 3584 
Q 2709 3584 3137 3096 
Q 3566 2609 3566 1747 
Q 3566 888 3137 398 
Q 2709 -91 1959 -91 
Q 1206 -91 779 398 
Q 353 888 353 1747 
Q 353 2609 779 3096 
Q 1206 3584 1959 3584 
z
" transform="scale(0.015625)"/>
       <path id="DejaVuSans-73" d="M 2834 3397 
L 2834 2853 
Q 2591 2978 2328 3040 
Q 2066 3103 1784 3103 
Q 1356 3103 1142 2972 
Q 928 2841 928 2578 
Q 928 2378 1081 2264 
Q 1234 2150 1697 2047 
L 1894 2003 
Q 2506 1872 2764 1633 
Q 3022 1394 3022 966 
Q 3022 478 2636 193 
Q 2250 -91 1575 -91 
Q 1294 -91 989 -36 
Q 684 19 347 128 
L 347 722 
Q 666 556 975 473 
Q 1284 391 1588 391 
Q 1994 391 2212 530 
Q 2431 669 2431 922 
Q 2431 1156 2273 1281 
Q 2116 1406 1581 1522 
L 1381 1569 
Q 847 1681 609 1914 
Q 372 2147 372 2553 
Q 372 3047 722 3315 
Q 1072 3584 1716 3584 
Q 2034 3584 2315 3537 
Q 2597 3491 2834 3397 
z
" transform="scale(0.015625)"/>
       <path id="DejaVuSans-6c" d="M 603 4863 
L 1178 4863 
L 1178 0 
L 603 0 
L 603 4863 
z
" transform="scale(0.015625)"/>
       <path id="DejaVuSans-79" d="M 2059 -325 
Q 1816 -950 1584 -1140 
Q 1353 -1331 966 -1331 
L 506 -1331 
L 506 -850 
L 844 -850 
Q 1081 -850 1212 -737 
Q 1344 -625 1503 -206 
L 1606 56 
L 191 3500 
L 800 3500 
L 1894 763 
L 2988 3500 
L 3597 3500 
L 2059 -325 
z
" transform="scale(0.015625)"/>
      </defs>
      <use xlink:href="#DejaVuSans-4d"/>
      <use xlink:href="#DejaVuSans-65" transform="translate(86.279297 0)"/>
      <use xlink:href="#DejaVuSans-61" transform="translate(147.802734 0)"/>
      <use xlink:href="#DejaVuSans-6e" transform="translate(209.082031 0)"/>
      <use xlink:href="#DejaVuSans-20" transform="translate(272.460938 0)"/>
      <use xlink:href="#DejaVuSans-6d" transform="translate(304.248047 0)"/>
      <use xlink:href="#DejaVuSans-61" transform="translate(401.660156 0)"/>
      <use xlink:href="#DejaVuSans-78" transform="translate(462.939453 0)"/>
      <use xlink:href="#DejaVuSans-69" transform="translate(522.119141 0)"/>
      <use xlink:href="#DejaVuSans-6d" transform="translate(549.902344 0)"/>
      <use xlink:href="#DejaVuSans-75" transform="translate(647.314453 0)"/>
      <use xlink:href="#DejaVuSans-6d" transform="translate(710.693359 0)"/>
      <use xlink:href="#DejaVuSans-20" transform="translate(808.105469 0)"/>
      <use xlink:href="#DejaVuSans-72" transform="translate(839.892578 0)"/>
      <use xlink:href="#DejaVuSans-65" transform="translate(878.755859 0)"/>
      <use xlink:href="#DejaVuSans-61" transform="translate(940.279297 0)"/>
      <use xlink:href="#DejaVuSans-63" transform="translate(1001.558594 0)"/>
      <use xlink:href="#DejaVuSans-74" transform="translate(1056.539062 0)"/>
      <use xlink:href="#DejaVuSans-69" transform="translate(1095.748047 0)"/>
      <use xlink:href="#DejaVuSans-6f" transform="translate(1123.53125 0)"/>
      <use xlink:href="#DejaVuSans-6e" transform="translate(1184.712891 0)"/>
      <use xlink:href="#DejaVuSans-20" transform="translate(1248.091797 0)"/>
      <use xlink:href="#DejaVuSans-73" transform="translate(1279.878906 0)"/>
      <use xlink:href="#DejaVuSans-69" transform="translate(1331.978516 0)"/>
      <use xlink:href="#DejaVuSans-6d" transform="translate(1359.761719 0)"/>
      <use xlink:href="#DejaVuSans-69" transform="translate(1457.173828 0)"/>
      <use xlink:href="#DejaVuSans-6c" transform="translate(1484.957031 0)"/>
      <use xlink:href="#DejaVuSans-61" transform="translate(1512.740234 0)"/>
      <use xlink:href="#DejaVuSans-72" transform="translate(1574.019531 0)"/>
      <use xlink:href="#DejaVuSans-69" transform="translate(1615.132812 0)"/>
      <use xlink:href="#DejaVuSans-74" transform="translate(1642.916016 0)"/>
      <use xlink:href="#DejaVuSans-79" transform="translate(1682.125 0)"/>
     </g>
    </g>
   </g>
   <g id="patch_15">
    <path d="M 47.72 415.08 
L 47.72 10.8 
" style="fill: none; stroke: #000000; stroke-width: 0.8; stroke-linejoin: miter; stroke-linecap: square"/>
   </g>
   <g id="patch_16">
    <path d="M 565.2 415.08 
L 565.2 10.8 
" style="fill: none; stroke: #000000; stroke-width: 0.8; stroke-linejoin: miter; stroke-linecap: square"/>
   </g>
   <g id="patch_17">
    <path d="M 47.72 415.08 
L 565.2 415.08 
" style="fill: none; stroke: #000000; stroke-width: 0.8; stroke-linejoin: miter; stroke-linecap: square"/>
   </g>
   <g id="patch_18">
    <path d="M 47.72 10.8 
L 565.2 10.8 
" style="fill: none; stroke: #000000; stroke-width: 0.8; stroke-linejoin: miter; stroke-linecap: square"/>
   </g>
   <g id="legend_1">
    <g id="patch_19">
     <path d="M 155.309375 27.398438 
L 175.309375 27.398438 
L 175.309375 20.398438 
L 155.309375 20.398438 
z
" style="fill: #008000; stroke: #ffffff; stroke-linejoin: miter"/>
    </g>
    <g id="text_10">
     <!-- Mechinformed -->
     <g transform="translate(183.309375 27.398438) scale(0.1 -0.1)">
      <defs>
       <path id="DejaVuSans-68" d="M 3513 2113 
L 3513 0 
L 2938 0 
L 2938 2094 
Q 2938 2591 2744 2837 
Q 2550 3084 2163 3084 
Q 1697 3084 1428 2787 
Q 1159 2491 1159 1978 
L 1159 0 
L 581 0 
L 581 4863 
L 1159 4863 
L 1159 2956 
Q 1366 3272 1645 3428 
Q 1925 3584 2291 3584 
Q 2894 3584 3203 3211 
Q 3513 2838 3513 2113 
z
" transform="scale(0.015625)"/>
       <path id="DejaVuSans-66" d="M 2375 4863 
L 2375 4384 
L 1825 4384 
Q 1516 4384 1395 4259 
Q 1275 4134 1275 3809 
L 1275 3500 
L 2222 3500 
L 2222 3053 
L 1275 3053 
L 1275 0 
L 697 0 
L 697 3053 
L 147 3053 
L 147 3500 
L 697 3500 
L 697 3744 
Q 697 4328 969 4595 
Q 1241 4863 1831 4863 
L 2375 4863 
z
" transform="scale(0.015625)"/>
       <path id="DejaVuSans-64" d="M 2906 2969 
L 2906 4863 
L 3481 4863 
L 3481 0 
L 2906 0 
L 2906 525 
Q 2725 213 2448 61 
Q 2172 -91 1784 -91 
Q 1150 -91 751 415 
Q 353 922 353 1747 
Q 353 2572 751 3078 
Q 1150 3584 1784 3584 
Q 2172 3584 2448 3432 
Q 2725 3281 2906 2969 
z
M 947 1747 
Q 947 1113 1208 752 
Q 1469 391 1925 391 
Q 2381 391 2643 752 
Q 2906 1113 2906 1747 
Q 2906 2381 2643 2742 
Q 2381 3103 1925 3103 
Q 1469 3103 1208 2742 
Q 947 2381 947 1747 
z
" transform="scale(0.015625)"/>
      </defs>
      <use xlink:href="#DejaVuSans-4d"/>
      <use xlink:href="#DejaVuSans-65" transform="translate(86.279297 0)"/>
      <use xlink:href="#DejaVuSans-63" transform="translate(147.802734 0)"/>
      <use xlink:href="#DejaVuSans-68" transform="translate(202.783203 0)"/>
      <use xlink:href="#DejaVuSans-69" transform="translate(266.162109 0)"/>
      <use xlink:href="#DejaVuSans-6e" transform="translate(293.945312 0)"/>
      <use xlink:href="#DejaVuSans-66" transform="translate(357.324219 0)"/>
      <use xlink:href="#DejaVuSans-6f" transform="translate(392.529297 0)"/>
      <use xlink:href="#DejaVuSans-72" transform="translate(453.710938 0)"/>
      <use xlink:href="#DejaVuSans-6d" transform="translate(493.074219 0)"/>
      <use xlink:href="#DejaVuSans-65" transform="translate(590.486328 0)"/>
      <use xlink:href="#DejaVuSans-64" transform="translate(652.009766 0)"/>
     </g>
    </g>
    <g id="patch_20">
     <path d="M 155.309375 42.076563 
L 175.309375 42.076563 
L 175.309375 35.076563 
L 155.309375 35.076563 
z
" style="fill: #0000ff; stroke: #ffffff; stroke-linejoin: miter"/>
    </g>
    <g id="text_11">
     <!-- Ni intermediate -->
     <g transform="translate(183.309375 42.076563) scale(0.1 -0.1)">
      <defs>
       <path id="DejaVuSans-4e" d="M 628 4666 
L 1478 4666 
L 3547 763 
L 3547 4666 
L 4159 4666 
L 4159 0 
L 3309 0 
L 1241 3903 
L 1241 0 
L 628 0 
L 628 4666 
z
" transform="scale(0.015625)"/>
      </defs>
      <use xlink:href="#DejaVuSans-4e"/>
      <use xlink:href="#DejaVuSans-69" transform="translate(74.804688 0)"/>
      <use xlink:href="#DejaVuSans-20" transform="translate(102.587891 0)"/>
      <use xlink:href="#DejaVuSans-69" transform="translate(134.375 0)"/>
      <use xlink:href="#DejaVuSans-6e" transform="translate(162.158203 0)"/>
      <use xlink:href="#DejaVuSans-74" transform="translate(225.537109 0)"/>
      <use xlink:href="#DejaVuSans-65" transform="translate(264.746094 0)"/>
      <use xlink:href="#DejaVuSans-72" transform="translate(326.269531 0)"/>
      <use xlink:href="#DejaVuSans-6d" transform="translate(365.632812 0)"/>
      <use xlink:href="#DejaVuSans-65" transform="translate(463.044922 0)"/>
      <use xlink:href="#DejaVuSans-64" transform="translate(524.568359 0)"/>
      <use xlink:href="#DejaVuSans-69" transform="translate(588.044922 0)"/>
      <use xlink:href="#DejaVuSans-61" transform="translate(615.828125 0)"/>
      <use xlink:href="#DejaVuSans-74" transform="translate(677.107422 0)"/>
      <use xlink:href="#DejaVuSans-65" transform="translate(716.316406 0)"/>
     </g>
    </g>
    <g id="patch_21">
     <path d="M 155.309375 56.754688 
L 175.309375 56.754688 
L 175.309375 49.754688 
L 155.309375 49.754688 
z
" style="fill-opacity: 0.3; stroke: #ffffff; stroke-linejoin: miter"/>
    </g>
    <g id="text_12">
     <!-- RC + 0 -->
     <g transform="translate(183.309375 56.754688) scale(0.1 -0.1)">
      <defs>
       <path id="DejaVuSans-52" d="M 2841 2188 
Q 3044 2119 3236 1894 
Q 3428 1669 3622 1275 
L 4263 0 
L 3584 0 
L 2988 1197 
Q 2756 1666 2539 1819 
Q 2322 1972 1947 1972 
L 1259 1972 
L 1259 0 
L 628 0 
L 628 4666 
L 2053 4666 
Q 2853 4666 3247 4331 
Q 3641 3997 3641 3322 
Q 3641 2881 3436 2590 
Q 3231 2300 2841 2188 
z
M 1259 4147 
L 1259 2491 
L 2053 2491 
Q 2509 2491 2742 2702 
Q 2975 2913 2975 3322 
Q 2975 3731 2742 3939 
Q 2509 4147 2053 4147 
L 1259 4147 
z
" transform="scale(0.015625)"/>
       <path id="DejaVuSans-43" d="M 4122 4306 
L 4122 3641 
Q 3803 3938 3442 4084 
Q 3081 4231 2675 4231 
Q 1875 4231 1450 3742 
Q 1025 3253 1025 2328 
Q 1025 1406 1450 917 
Q 1875 428 2675 428 
Q 3081 428 3442 575 
Q 3803 722 4122 1019 
L 4122 359 
Q 3791 134 3420 21 
Q 3050 -91 2638 -91 
Q 1578 -91 968 557 
Q 359 1206 359 2328 
Q 359 3453 968 4101 
Q 1578 4750 2638 4750 
Q 3056 4750 3426 4639 
Q 3797 4528 4122 4306 
z
" transform="scale(0.015625)"/>
       <path id="DejaVuSans-2b" d="M 2944 4013 
L 2944 2272 
L 4684 2272 
L 4684 1741 
L 2944 1741 
L 2944 0 
L 2419 0 
L 2419 1741 
L 678 1741 
L 678 2272 
L 2419 2272 
L 2419 4013 
L 2944 4013 
z
" transform="scale(0.015625)"/>
      </defs>
      <use xlink:href="#DejaVuSans-52"/>
      <use xlink:href="#DejaVuSans-43" transform="translate(64.482422 0)"/>
      <use xlink:href="#DejaVuSans-20" transform="translate(134.306641 0)"/>
      <use xlink:href="#DejaVuSans-2b" transform="translate(166.09375 0)"/>
      <use xlink:href="#DejaVuSans-20" transform="translate(249.882812 0)"/>
      <use xlink:href="#DejaVuSans-30" transform="translate(281.669922 0)"/>
     </g>
    </g>
    <g id="patch_22">
     <path d="M 155.309375 71.432813 
L 175.309375 71.432813 
L 175.309375 64.432813 
L 155.309375 64.432813 
z
" style="fill-opacity: 0.45; stroke: #ffffff; stroke-linejoin: miter"/>
    </g>
    <g id="text_13">
     <!-- RC + 1 -->
     <g transform="translate(183.309375 71.432813) scale(0.1 -0.1)">
      <use xlink:href="#DejaVuSans-52"/>
      <use xlink:href="#DejaVuSans-43" transform="translate(64.482422 0)"/>
      <use xlink:href="#DejaVuSans-20" transform="translate(134.306641 0)"/>
      <use xlink:href="#DejaVuSans-2b" transform="translate(166.09375 0)"/>
      <use xlink:href="#DejaVuSans-20" transform="translate(249.882812 0)"/>
      <use xlink:href="#DejaVuSans-31" transform="translate(281.669922 0)"/>
     </g>
    </g>
    <g id="patch_23">
     <path d="M 281.09375 27.398438 
L 301.09375 27.398438 
L 301.09375 20.398438 
L 281.09375 20.398438 
z
" style="fill-opacity: 0.6; stroke: #ffffff; stroke-linejoin: miter"/>
    </g>
    <g id="text_14">
     <!-- RC + 2 -->
     <g transform="translate(309.09375 27.398438) scale(0.1 -0.1)">
      <defs>
       <path id="DejaVuSans-32" d="M 1228 531 
L 3431 531 
L 3431 0 
L 469 0 
L 469 531 
Q 828 903 1448 1529 
Q 2069 2156 2228 2338 
Q 2531 2678 2651 2914 
Q 2772 3150 2772 3378 
Q 2772 3750 2511 3984 
Q 2250 4219 1831 4219 
Q 1534 4219 1204 4116 
Q 875 4013 500 3803 
L 500 4441 
Q 881 4594 1212 4672 
Q 1544 4750 1819 4750 
Q 2544 4750 2975 4387 
Q 3406 4025 3406 3419 
Q 3406 3131 3298 2873 
Q 3191 2616 2906 2266 
Q 2828 2175 2409 1742 
Q 1991 1309 1228 531 
z
" transform="scale(0.015625)"/>
      </defs>
      <use xlink:href="#DejaVuSans-52"/>
      <use xlink:href="#DejaVuSans-43" transform="translate(64.482422 0)"/>
      <use xlink:href="#DejaVuSans-20" transform="translate(134.306641 0)"/>
      <use xlink:href="#DejaVuSans-2b" transform="translate(166.09375 0)"/>
      <use xlink:href="#DejaVuSans-20" transform="translate(249.882812 0)"/>
      <use xlink:href="#DejaVuSans-32" transform="translate(281.669922 0)"/>
     </g>
    </g>
    <g id="patch_24">
     <path d="M 281.09375 42.076563 
L 301.09375 42.076563 
L 301.09375 35.076563 
L 281.09375 35.076563 
z
" style="fill-opacity: 0.85; stroke: #ffffff; stroke-linejoin: miter"/>
    </g>
    <g id="text_15">
     <!-- RC + 3 -->
     <g transform="translate(309.09375 42.076563) scale(0.1 -0.1)">
      <use xlink:href="#DejaVuSans-52"/>
      <use xlink:href="#DejaVuSans-43" transform="translate(64.482422 0)"/>
      <use xlink:href="#DejaVuSans-20" transform="translate(134.306641 0)"/>
      <use xlink:href="#DejaVuSans-2b" transform="translate(166.09375 0)"/>
      <use xlink:href="#DejaVuSans-20" transform="translate(249.882812 0)"/>
      <use xlink:href="#DejaVuSans-33" transform="translate(281.669922 0)"/>
     </g>
    </g>
    <g id="patch_25">
     <path d="M 281.09375 56.754688 
L 301.09375 56.754688 
L 301.09375 49.754688 
L 281.09375 49.754688 
z
" style="stroke: #ffffff; stroke-linejoin: miter"/>
    </g>
    <g id="text_16">
     <!-- RC + 4 -->
     <g transform="translate(309.09375 56.754688) scale(0.1 -0.1)">
      <use xlink:href="#DejaVuSans-52"/>
      <use xlink:href="#DejaVuSans-43" transform="translate(64.482422 0)"/>
      <use xlink:href="#DejaVuSans-20" transform="translate(134.306641 0)"/>
      <use xlink:href="#DejaVuSans-2b" transform="translate(166.09375 0)"/>
      <use xlink:href="#DejaVuSans-20" transform="translate(249.882812 0)"/>
      <use xlink:href="#DejaVuSans-34" transform="translate(281.669922 0)"/>
     </g>
    </g>
    <g id="patch_26">
     <path d="M 281.09375 71.432813 
L 301.09375 71.432813 
L 301.09375 64.432813 
L 281.09375 64.432813 
z
" style="fill: #800080; fill-opacity: 0.3; stroke: #ffffff; stroke-linejoin: miter"/>
    </g>
    <g id="text_17">
     <!-- Mechinferred &gt;0.98 -->
     <g transform="translate(309.09375 71.432813) scale(0.1 -0.1)">
      <defs>
       <path id="DejaVuSans-3e" d="M 678 3150 
L 678 3719 
L 4684 2266 
L 4684 1747 
L 678 294 
L 678 863 
L 3897 2003 
L 678 3150 
z
" transform="scale(0.015625)"/>
      </defs>
      <use xlink:href="#DejaVuSans-4d"/>
      <use xlink:href="#DejaVuSans-65" transform="translate(86.279297 0)"/>
      <use xlink:href="#DejaVuSans-63" transform="translate(147.802734 0)"/>
      <use xlink:href="#DejaVuSans-68" transform="translate(202.783203 0)"/>
      <use xlink:href="#DejaVuSans-69" transform="translate(266.162109 0)"/>
      <use xlink:href="#DejaVuSans-6e" transform="translate(293.945312 0)"/>
      <use xlink:href="#DejaVuSans-66" transform="translate(357.324219 0)"/>
      <use xlink:href="#DejaVuSans-65" transform="translate(392.529297 0)"/>
      <use xlink:href="#DejaVuSans-72" transform="translate(454.052734 0)"/>
      <use xlink:href="#DejaVuSans-72" transform="translate(493.416016 0)"/>
      <use xlink:href="#DejaVuSans-65" transform="translate(532.279297 0)"/>
      <use xlink:href="#DejaVuSans-64" transform="translate(593.802734 0)"/>
      <use xlink:href="#DejaVuSans-20" transform="translate(657.279297 0)"/>
      <use xlink:href="#DejaVuSans-3e" transform="translate(689.066406 0)"/>
      <use xlink:href="#DejaVuSans-30" transform="translate(772.855469 0)"/>
      <use xlink:href="#DejaVuSans-2e" transform="translate(836.478516 0)"/>
      <use xlink:href="#DejaVuSans-39" transform="translate(868.265625 0)"/>
      <use xlink:href="#DejaVuSans-38" transform="translate(931.888672 0)"/>
     </g>
    </g>
    <g id="patch_27">
     <path d="M 428.646875 27.398438 
L 448.646875 27.398438 
L 448.646875 20.398438 
L 428.646875 20.398438 
z
" style="fill: #800080; fill-opacity: 0.45; stroke: #ffffff; stroke-linejoin: miter"/>
    </g>
    <g id="text_18">
     <!-- Mechinferred &gt;0.15 -->
     <g transform="translate(456.646875 27.398438) scale(0.1 -0.1)">
      <use xlink:href="#DejaVuSans-4d"/>
      <use xlink:href="#DejaVuSans-65" transform="translate(86.279297 0)"/>
      <use xlink:href="#DejaVuSans-63" transform="translate(147.802734 0)"/>
      <use xlink:href="#DejaVuSans-68" transform="translate(202.783203 0)"/>
      <use xlink:href="#DejaVuSans-69" transform="translate(266.162109 0)"/>
      <use xlink:href="#DejaVuSans-6e" transform="translate(293.945312 0)"/>
      <use xlink:href="#DejaVuSans-66" transform="translate(357.324219 0)"/>
      <use xlink:href="#DejaVuSans-65" transform="translate(392.529297 0)"/>
      <use xlink:href="#DejaVuSans-72" transform="translate(454.052734 0)"/>
      <use xlink:href="#DejaVuSans-72" transform="translate(493.416016 0)"/>
      <use xlink:href="#DejaVuSans-65" transform="translate(532.279297 0)"/>
      <use xlink:href="#DejaVuSans-64" transform="translate(593.802734 0)"/>
      <use xlink:href="#DejaVuSans-20" transform="translate(657.279297 0)"/>
      <use xlink:href="#DejaVuSans-3e" transform="translate(689.066406 0)"/>
      <use xlink:href="#DejaVuSans-30" transform="translate(772.855469 0)"/>
      <use xlink:href="#DejaVuSans-2e" transform="translate(836.478516 0)"/>
      <use xlink:href="#DejaVuSans-31" transform="translate(868.265625 0)"/>
      <use xlink:href="#DejaVuSans-35" transform="translate(931.888672 0)"/>
     </g>
    </g>
    <g id="patch_28">
     <path d="M 428.646875 42.076563 
L 448.646875 42.076563 
L 448.646875 35.076563 
L 428.646875 35.076563 
z
" style="fill: #800080; fill-opacity: 0.6; stroke: #ffffff; stroke-linejoin: miter"/>
    </g>
    <g id="text_19">
     <!-- Mechinferred &gt;0.06 -->
     <g transform="translate(456.646875 42.076563) scale(0.1 -0.1)">
      <use xlink:href="#DejaVuSans-4d"/>
      <use xlink:href="#DejaVuSans-65" transform="translate(86.279297 0)"/>
      <use xlink:href="#DejaVuSans-63" transform="translate(147.802734 0)"/>
      <use xlink:href="#DejaVuSans-68" transform="translate(202.783203 0)"/>
      <use xlink:href="#DejaVuSans-69" transform="translate(266.162109 0)"/>
      <use xlink:href="#DejaVuSans-6e" transform="translate(293.945312 0)"/>
      <use xlink:href="#DejaVuSans-66" transform="translate(357.324219 0)"/>
      <use xlink:href="#DejaVuSans-65" transform="translate(392.529297 0)"/>
      <use xlink:href="#DejaVuSans-72" transform="translate(454.052734 0)"/>
      <use xlink:href="#DejaVuSans-72" transform="translate(493.416016 0)"/>
      <use xlink:href="#DejaVuSans-65" transform="translate(532.279297 0)"/>
      <use xlink:href="#DejaVuSans-64" transform="translate(593.802734 0)"/>
      <use xlink:href="#DejaVuSans-20" transform="translate(657.279297 0)"/>
      <use xlink:href="#DejaVuSans-3e" transform="translate(689.066406 0)"/>
      <use xlink:href="#DejaVuSans-30" transform="translate(772.855469 0)"/>
      <use xlink:href="#DejaVuSans-2e" transform="translate(836.478516 0)"/>
      <use xlink:href="#DejaVuSans-30" transform="translate(868.265625 0)"/>
      <use xlink:href="#DejaVuSans-36" transform="translate(931.888672 0)"/>
     </g>
    </g>
    <g id="patch_29">
     <path d="M 428.646875 56.754688 
L 448.646875 56.754688 
L 448.646875 49.754688 
L 428.646875 49.754688 
z
" style="fill: #800080; fill-opacity: 0.85; stroke: #ffffff; stroke-linejoin: miter"/>
    </g>
    <g id="text_20">
     <!-- Mechinferred &gt;0.03 -->
     <g transform="translate(456.646875 56.754688) scale(0.1 -0.1)">
      <use xlink:href="#DejaVuSans-4d"/>
      <use xlink:href="#DejaVuSans-65" transform="translate(86.279297 0)"/>
      <use xlink:href="#DejaVuSans-63" transform="translate(147.802734 0)"/>
      <use xlink:href="#DejaVuSans-68" transform="translate(202.783203 0)"/>
      <use xlink:href="#DejaVuSans-69" transform="translate(266.162109 0)"/>
      <use xlink:href="#DejaVuSans-6e" transform="translate(293.945312 0)"/>
      <use xlink:href="#DejaVuSans-66" transform="translate(357.324219 0)"/>
      <use xlink:href="#DejaVuSans-65" transform="translate(392.529297 0)"/>
      <use xlink:href="#DejaVuSans-72" transform="translate(454.052734 0)"/>
      <use xlink:href="#DejaVuSans-72" transform="translate(493.416016 0)"/>
      <use xlink:href="#DejaVuSans-65" transform="translate(532.279297 0)"/>
      <use xlink:href="#DejaVuSans-64" transform="translate(593.802734 0)"/>
      <use xlink:href="#DejaVuSans-20" transform="translate(657.279297 0)"/>
      <use xlink:href="#DejaVuSans-3e" transform="translate(689.066406 0)"/>
      <use xlink:href="#DejaVuSans-30" transform="translate(772.855469 0)"/>
      <use xlink:href="#DejaVuSans-2e" transform="translate(836.478516 0)"/>
      <use xlink:href="#DejaVuSans-30" transform="translate(868.265625 0)"/>
      <use xlink:href="#DejaVuSans-33" transform="translate(931.888672 0)"/>
     </g>
    </g>
    <g id="patch_30">
     <path d="M 428.646875 71.432813 
L 448.646875 71.432813 
L 448.646875 64.432813 
L 428.646875 64.432813 
z
" style="fill: #800080; stroke: #ffffff; stroke-linejoin: miter"/>
    </g>
    <g id="text_21">
     <!-- Mechinferred &gt;0.02 -->
     <g transform="translate(456.646875 71.432813) scale(0.1 -0.1)">
      <use xlink:href="#DejaVuSans-4d"/>
      <use xlink:href="#DejaVuSans-65" transform="translate(86.279297 0)"/>
      <use xlink:href="#DejaVuSans-63" transform="translate(147.802734 0)"/>
      <use xlink:href="#DejaVuSans-68" transform="translate(202.783203 0)"/>
      <use xlink:href="#DejaVuSans-69" transform="translate(266.162109 0)"/>
      <use xlink:href="#DejaVuSans-6e" transform="translate(293.945312 0)"/>
      <use xlink:href="#DejaVuSans-66" transform="translate(357.324219 0)"/>
      <use xlink:href="#DejaVuSans-65" transform="translate(392.529297 0)"/>
      <use xlink:href="#DejaVuSans-72" transform="translate(454.052734 0)"/>
      <use xlink:href="#DejaVuSans-72" transform="translate(493.416016 0)"/>
      <use xlink:href="#DejaVuSans-65" transform="translate(532.279297 0)"/>
      <use xlink:href="#DejaVuSans-64" transform="translate(593.802734 0)"/>
      <use xlink:href="#DejaVuSans-20" transform="translate(657.279297 0)"/>
      <use xlink:href="#DejaVuSans-3e" transform="translate(689.066406 0)"/>
      <use xlink:href="#DejaVuSans-30" transform="translate(772.855469 0)"/>
      <use xlink:href="#DejaVuSans-2e" transform="translate(836.478516 0)"/>
      <use xlink:href="#DejaVuSans-30" transform="translate(868.265625 0)"/>
      <use xlink:href="#DejaVuSans-32" transform="translate(931.888672 0)"/>
     </g>
    </g>
   </g>
  </g>
 </g>
 <defs>
  <clipPath id="p983a2700c0">
   <rect x="47.72" y="10.8" width="517.48" height="404.28"/>
  </clipPath>
 </defs>
</svg>
