<?xml version="1.0" encoding="utf-8" standalone="no"?>
<!DOCTYPE svg PUBLIC "-//W3C//DTD SVG 1.1//EN"
  "http://www.w3.org/Graphics/SVG/1.1/DTD/svg11.dtd">
<svg xmlns:xlink="http://www.w3.org/1999/xlink" width="504pt" height="432pt" viewBox="0 0 504 432" xmlns="http://www.w3.org/2000/svg" version="1.1">
 <metadata>
  <rdf:RDF xmlns:dc="http://purl.org/dc/elements/1.1/" xmlns:cc="http://creativecommons.org/ns#" xmlns:rdf="http://www.w3.org/1999/02/22-rdf-syntax-ns#">
   <cc:Work>
    <dc:type rdf:resource="http://purl.org/dc/dcmitype/StillImage"/>
    <dc:date>2025-07-31T12:06:05.448812</dc:date>
    <dc:format>image/svg+xml</dc:format>
    <dc:creator>
     <cc:Agent>
      <dc:title>Matplotlib v3.10.1, https://matplotlib.org/</dc:title>
     </cc:Agent>
    </dc:creator>
   </cc:Work>
  </rdf:RDF>
 </metadata>
 <defs>
  <style type="text/css">*{stroke-linejoin: round; stroke-linecap: butt}</style>
 </defs>
 <g id="figure_1">
  <g id="patch_1">
   <path d="M 0 432 
L 504 432 
L 504 0 
L 0 0 
z
" style="fill: #ffffff"/>
  </g>
  <g id="axes_1">
   <g id="patch_2">
    <path d="M 47.72 336.686955 
L 493.2 336.686955 
L 493.2 10.8 
L 47.72 10.8 
z
" style="fill: #ffffff"/>
   </g>
   <g id="FillBetweenPolyCollection_1">
    <path d="M 84.50771 290.514336 
L 84.490212 290.514336 
L 84.489474 287.838565 
L 84.490222 285.162794 
L 84.490767 282.487024 
L 84.487295 279.811253 
L 84.473932 277.135482 
L 84.445088 274.459712 
L 84.401612 271.783941 
L 84.355503 269.108171 
L 84.322564 266.4324 
L 84.304015 263.756629 
L 84.278814 261.080859 
L 84.223849 258.405088 
L 84.14318 255.729317 
L 84.067716 253.053547 
L 84.020785 250.377776 
L 83.993817 247.702005 
L 83.965828 245.026235 
L 83.937043 242.350464 
L 83.924782 239.674694 
L 83.926926 236.998923 
L 83.908701 234.323152 
L 83.834384 231.647382 
L 83.701742 228.971611 
L 83.539625 226.29584 
L 83.383463 223.62007 
L 83.262672 220.944299 
L 83.200788 218.268529 
L 83.206275 215.592758 
L 83.255272 212.916987 
L 83.294458 210.241217 
L 83.274205 207.565446 
L 83.183108 204.889675 
L 83.050541 202.213905 
L 82.918068 199.538134 
L 82.809563 196.862364 
L 82.721911 194.186593 
L 82.6287 191.510822 
L 82.484871 188.835052 
L 82.249504 186.159281 
L 81.940127 183.48351 
L 81.664036 180.80774 
L 81.550453 178.131969 
L 81.622991 175.456199 
L 81.7614 172.780428 
L 81.812322 170.104657 
L 81.723716 167.428887 
L 81.559339 164.753116 
L 81.408833 162.077345 
L 81.314783 159.401575 
L 81.276301 156.725804 
L 81.281134 154.050034 
L 81.307294 151.374263 
L 81.304231 148.698492 
L 81.200543 146.022722 
L 80.940167 143.346951 
L 80.50189 140.67118 
L 79.902496 137.99541 
L 79.233452 135.319639 
L 78.691491 132.643868 
L 78.491504 129.968098 
L 78.705809 127.292327 
L 79.212698 124.616557 
L 79.794349 121.940786 
L 80.258627 119.265015 
L 80.501205 116.589245 
L 80.507867 113.913474 
L 80.324681 111.237703 
L 80.031726 108.561933 
L 79.715884 105.886162 
L 79.41793 103.210392 
L 79.100329 100.534621 
L 78.689863 97.85885 
L 78.123606 95.18308 
L 77.301349 92.507309 
L 76.029226 89.831538 
L 74.148113 87.155768 
L 71.818557 84.479997 
L 69.619196 81.804227 
L 68.228321 79.128456 
L 67.969091 76.452685 
L 68.672689 73.776915 
L 69.881793 71.101144 
L 71.095068 68.425373 
L 71.936828 65.749603 
L 72.30335 63.073832 
L 72.414026 60.398062 
L 72.654845 57.722291 
L 73.306431 55.04652 
L 74.391362 52.37075 
L 75.738147 49.694979 
L 77.137208 47.019208 
L 78.441875 44.343438 
L 79.583205 41.667667 
L 80.515393 38.991897 
L 81.136835 36.316126 
L 81.305784 33.640355 
L 81.020417 30.964585 
L 80.594277 28.288814 
L 80.531943 25.613043 
L 88.465979 25.613043 
L 88.465979 25.613043 
L 88.403645 28.288814 
L 87.977506 30.964585 
L 87.692138 33.640355 
L 87.861088 36.316126 
L 88.482529 38.991897 
L 89.414717 41.667667 
L 90.556048 44.343438 
L 91.860714 47.019208 
L 93.259775 49.694979 
L 94.60656 52.37075 
L 95.691491 55.04652 
L 96.343078 57.722291 
L 96.583896 60.398062 
L 96.694572 63.073832 
L 97.061094 65.749603 
L 97.902854 68.425373 
L 99.116129 71.101144 
L 100.325233 73.776915 
L 101.028831 76.452685 
L 100.769601 79.128456 
L 99.378726 81.804227 
L 97.179365 84.479997 
L 94.849809 87.155768 
L 92.968696 89.831538 
L 91.696573 92.507309 
L 90.874316 95.18308 
L 90.308059 97.85885 
L 89.897593 100.534621 
L 89.579992 103.210392 
L 89.282038 105.886162 
L 88.966196 108.561933 
L 88.673241 111.237703 
L 88.490055 113.913474 
L 88.496717 116.589245 
L 88.739295 119.265015 
L 89.203573 121.940786 
L 89.785224 124.616557 
L 90.292113 127.292327 
L 90.506418 129.968098 
L 90.306431 132.643868 
L 89.76447 135.319639 
L 89.095426 137.99541 
L 88.496033 140.67118 
L 88.057755 143.346951 
L 87.797379 146.022722 
L 87.693692 148.698492 
L 87.690628 151.374263 
L 87.716788 154.050034 
L 87.721621 156.725804 
L 87.683139 159.401575 
L 87.589089 162.077345 
L 87.438583 164.753116 
L 87.274206 167.428887 
L 87.1856 170.104657 
L 87.236522 172.780428 
L 87.374931 175.456199 
L 87.447469 178.131969 
L 87.333886 180.80774 
L 87.057795 183.48351 
L 86.748418 186.159281 
L 86.513052 188.835052 
L 86.369222 191.510822 
L 86.276011 194.186593 
L 86.188359 196.862364 
L 86.079854 199.538134 
L 85.947381 202.213905 
L 85.814814 204.889675 
L 85.723717 207.565446 
L 85.703464 210.241217 
L 85.74265 212.916987 
L 85.791647 215.592758 
L 85.797134 218.268529 
L 85.73525 220.944299 
L 85.614459 223.62007 
L 85.458298 226.29584 
L 85.296181 228.971611 
L 85.163538 231.647382 
L 85.089221 234.323152 
L 85.070996 236.998923 
L 85.07314 239.674694 
L 85.060879 242.350464 
L 85.032095 245.026235 
L 85.004105 247.702005 
L 84.977138 250.377776 
L 84.930207 253.053547 
L 84.854742 255.729317 
L 84.774073 258.405088 
L 84.719108 261.080859 
L 84.693907 263.756629 
L 84.675358 266.4324 
L 84.642419 269.108171 
L 84.59631 271.783941 
L 84.552834 274.459712 
L 84.52399 277.135482 
L 84.510627 279.811253 
L 84.507155 282.487024 
L 84.5077 285.162794 
L 84.508448 287.838565 
L 84.50771 290.514336 
z
" clip-path="url(#p34b2cf4f62)" style="fill: #008000"/>
   </g>
   <g id="FillBetweenPolyCollection_2">
    <path d="M 125.868819 250.020096 
L 125.778454 250.020096 
L 125.748325 247.753359 
L 125.706701 245.486621 
L 125.654599 243.219883 
L 125.594676 240.953145 
L 125.528629 238.686407 
L 125.454269 236.419669 
L 125.365931 234.152931 
L 125.260271 231.886193 
L 125.144041 229.619455 
L 125.036122 227.352717 
L 124.958817 225.085979 
L 124.922859 222.819242 
L 124.91797 220.552504 
L 124.918038 218.285766 
L 124.898234 216.019028 
L 124.851271 213.75229 
L 124.790693 211.485552 
L 124.739837 209.218814 
L 124.716275 206.952076 
L 124.723626 204.685338 
L 124.754789 202.4186 
L 124.800596 200.151862 
L 124.854858 197.885125 
L 124.912256 195.618387 
L 124.962986 193.351649 
L 124.990415 191.084911 
L 124.974313 188.818173 
L 124.897684 186.551435 
L 124.754356 184.284697 
L 124.555915 182.017959 
L 124.336066 179.751221 
L 124.14721 177.484483 
L 124.044193 175.217745 
L 124.05891 172.951008 
L 124.18087 170.68427 
L 124.359268 168.417532 
L 124.527163 166.150794 
L 124.631611 163.884056 
L 124.651598 161.617318 
L 124.598299 159.35058 
L 124.504698 157.083842 
L 124.412873 154.817104 
L 124.361346 152.550366 
L 124.372353 150.283628 
L 124.442834 148.016891 
L 124.545831 145.750153 
L 124.643479 143.483415 
L 124.703085 141.216677 
L 124.705233 138.949939 
L 124.640856 136.683201 
L 124.503786 134.416463 
L 124.286445 132.149725 
L 123.980163 129.882987 
L 123.577519 127.616249 
L 123.077266 125.349511 
L 122.496289 123.082774 
L 121.886778 120.816036 
L 121.342098 118.549298 
L 120.971306 116.28256 
L 120.845203 114.015822 
L 120.949306 111.749084 
L 121.183177 109.482346 
L 121.410332 107.215608 
L 121.523361 104.94887 
L 121.483127 102.682132 
L 121.315308 100.415394 
L 121.072291 98.148657 
L 120.779851 95.881919 
L 120.393488 93.615181 
L 119.790386 91.348443 
L 118.811694 89.081705 
L 117.346039 86.814967 
L 115.420866 84.548229 
L 113.255354 82.281491 
L 111.235321 80.014753 
L 109.801901 77.748015 
L 109.293766 75.481277 
L 109.817437 73.21454 
L 111.21162 70.947802 
L 113.121556 68.681064 
L 115.141389 66.414326 
L 116.951468 64.147588 
L 118.389139 61.88085 
L 119.437113 59.614112 
L 120.161566 57.347374 
L 120.649236 55.080636 
L 120.9735 52.813898 
L 121.189649 50.54716 
L 121.344543 48.280422 
L 121.485966 46.013685 
L 121.660977 43.746947 
L 121.898747 41.480209 
L 122.186642 39.213471 
L 122.462066 36.946733 
L 122.640233 34.679995 
L 122.672754 32.413257 
L 122.599825 30.146519 
L 122.549739 27.879781 
L 122.671888 25.613043 
L 128.975384 25.613043 
L 128.975384 25.613043 
L 129.097533 27.879781 
L 129.047448 30.146519 
L 128.974518 32.413257 
L 129.00704 34.679995 
L 129.185206 36.946733 
L 129.460631 39.213471 
L 129.748525 41.480209 
L 129.986296 43.746947 
L 130.161307 46.013685 
L 130.30273 48.280422 
L 130.457623 50.54716 
L 130.673773 52.813898 
L 130.998037 55.080636 
L 131.485707 57.347374 
L 132.21016 59.614112 
L 133.258134 61.88085 
L 134.695805 64.147588 
L 136.505884 66.414326 
L 138.525717 68.681064 
L 140.435653 70.947802 
L 141.829835 73.21454 
L 142.353506 75.481277 
L 141.845371 77.748015 
L 140.411952 80.014753 
L 138.391919 82.281491 
L 136.226406 84.548229 
L 134.301234 86.814967 
L 132.835579 89.081705 
L 131.856886 91.348443 
L 131.253784 93.615181 
L 130.867421 95.881919 
L 130.574982 98.148657 
L 130.331964 100.415394 
L 130.164146 102.682132 
L 130.123911 104.94887 
L 130.236941 107.215608 
L 130.464095 109.482346 
L 130.697966 111.749084 
L 130.80207 114.015822 
L 130.675967 116.28256 
L 130.305174 118.549298 
L 129.760495 120.816036 
L 129.150984 123.082774 
L 128.570007 125.349511 
L 128.069754 127.616249 
L 127.66711 129.882987 
L 127.360828 132.149725 
L 127.143487 134.416463 
L 127.006416 136.683201 
L 126.942039 138.949939 
L 126.944187 141.216677 
L 127.003793 143.483415 
L 127.101441 145.750153 
L 127.204439 148.016891 
L 127.274919 150.283628 
L 127.285927 152.550366 
L 127.2344 154.817104 
L 127.142574 157.083842 
L 127.048974 159.35058 
L 126.995675 161.617318 
L 127.015661 163.884056 
L 127.12011 166.150794 
L 127.288005 168.417532 
L 127.466403 170.68427 
L 127.588363 172.951008 
L 127.603079 175.217745 
L 127.500062 177.484483 
L 127.311206 179.751221 
L 127.091358 182.017959 
L 126.892917 184.284697 
L 126.749589 186.551435 
L 126.67296 188.818173 
L 126.656858 191.084911 
L 126.684287 193.351649 
L 126.735016 195.618387 
L 126.792414 197.885125 
L 126.846677 200.151862 
L 126.892483 202.4186 
L 126.923647 204.685338 
L 126.930998 206.952076 
L 126.907435 209.218814 
L 126.85658 211.485552 
L 126.796001 213.75229 
L 126.749038 216.019028 
L 126.729235 218.285766 
L 126.729303 220.552504 
L 126.724414 222.819242 
L 126.688456 225.085979 
L 126.611151 227.352717 
L 126.503231 229.619455 
L 126.387002 231.886193 
L 126.281342 234.152931 
L 126.193004 236.419669 
L 126.118643 238.686407 
L 126.052596 240.953145 
L 125.992674 243.219883 
L 125.940571 245.486621 
L 125.898948 247.753359 
L 125.868819 250.020096 
z
" clip-path="url(#p34b2cf4f62)" style="fill: #800080"/>
   </g>
   <g id="FillBetweenPolyCollection_3">
    <path d="M 167.170606 274.434205 
L 167.126017 274.434205 
L 167.125088 271.92086 
L 167.125673 269.407515 
L 167.126173 266.89417 
L 167.125337 264.380825 
L 167.1224 261.86748 
L 167.116331 259.354135 
L 167.105524 256.84079 
L 167.088738 254.327445 
L 167.066343 251.8141 
L 167.040178 249.300755 
L 167.011672 246.78741 
L 166.979814 244.274065 
L 166.940508 241.76072 
L 166.886631 239.247374 
L 166.807671 236.734029 
L 166.691325 234.220684 
L 166.531417 231.707339 
L 166.339822 229.193994 
L 166.149976 226.680649 
L 166.001696 224.167304 
L 165.915407 221.653959 
L 165.879101 219.140614 
L 165.862196 216.627269 
L 165.843567 214.113924 
L 165.826385 211.600579 
L 165.827043 209.087234 
L 165.852646 206.573889 
L 165.891631 204.060543 
L 165.92552 201.547198 
L 165.946884 199.033853 
L 165.963737 196.520508 
L 165.98599 194.007163 
L 166.007798 191.493818 
L 166.00425 188.980473 
L 165.948395 186.467128 
L 165.835323 183.953783 
L 165.692227 181.440438 
L 165.565687 178.927093 
L 165.496779 176.413748 
L 165.501061 173.900403 
L 165.56294 171.387058 
L 165.645119 168.873712 
L 165.706646 166.360367 
L 165.716653 163.847022 
L 165.655578 161.333677 
L 165.513615 158.820332 
L 165.301172 156.306987 
L 165.061576 153.793642 
L 164.855791 151.280297 
L 164.716179 148.766952 
L 164.615545 146.253607 
L 164.493172 143.740262 
L 164.313766 141.226917 
L 164.09679 138.713572 
L 163.893645 136.200227 
L 163.745686 133.686881 
L 163.658696 131.173536 
L 163.599873 128.660191 
L 163.509545 126.146846 
L 163.325974 123.633501 
L 163.024474 121.120156 
L 162.652174 118.606811 
L 162.314254 116.093466 
L 162.098098 113.580121 
L 162.005482 111.066776 
L 161.973408 108.553431 
L 161.951108 106.040086 
L 161.927721 103.526741 
L 161.890559 101.013396 
L 161.791341 98.50005 
L 161.553556 95.986705 
L 161.07377 93.47336 
L 160.206646 90.960015 
L 158.803915 88.44667 
L 156.842516 85.933325 
L 154.553504 83.41998 
L 152.416912 80.906635 
L 150.982997 78.39329 
L 150.618442 75.879945 
L 151.333995 73.3666 
L 152.795674 70.853255 
L 154.510679 68.33991 
L 156.079414 65.826565 
L 157.356344 63.313219 
L 158.41448 60.799874 
L 159.368768 58.286529 
L 160.237882 55.773184 
L 160.954957 53.259839 
L 161.463526 50.746494 
L 161.778665 48.233149 
L 161.981474 45.719804 
L 162.182138 43.206459 
L 162.468237 40.693114 
L 162.844061 38.179769 
L 163.206572 35.666424 
L 163.414762 33.153079 
L 163.430301 30.639734 
L 163.403253 28.126388 
L 163.586337 25.613043 
L 170.710286 25.613043 
L 170.710286 25.613043 
L 170.89337 28.126388 
L 170.866322 30.639734 
L 170.881862 33.153079 
L 171.090051 35.666424 
L 171.452562 38.179769 
L 171.828387 40.693114 
L 172.114486 43.206459 
L 172.315149 45.719804 
L 172.517959 48.233149 
L 172.833097 50.746494 
L 173.341666 53.259839 
L 174.058741 55.773184 
L 174.927855 58.286529 
L 175.882144 60.799874 
L 176.940279 63.313219 
L 178.21721 65.826565 
L 179.785945 68.33991 
L 181.500949 70.853255 
L 182.962628 73.3666 
L 183.678182 75.879945 
L 183.313627 78.39329 
L 181.879712 80.906635 
L 179.743119 83.41998 
L 177.454108 85.933325 
L 175.492708 88.44667 
L 174.089977 90.960015 
L 173.222854 93.47336 
L 172.743067 95.986705 
L 172.505282 98.50005 
L 172.406064 101.013396 
L 172.368902 103.526741 
L 172.345515 106.040086 
L 172.323216 108.553431 
L 172.291141 111.066776 
L 172.198526 113.580121 
L 171.98237 116.093466 
L 171.64445 118.606811 
L 171.272149 121.120156 
L 170.970649 123.633501 
L 170.787078 126.146846 
L 170.69675 128.660191 
L 170.637927 131.173536 
L 170.550937 133.686881 
L 170.402978 136.200227 
L 170.199834 138.713572 
L 169.982857 141.226917 
L 169.803452 143.740262 
L 169.681079 146.253607 
L 169.580444 148.766952 
L 169.440832 151.280297 
L 169.235047 153.793642 
L 168.995451 156.306987 
L 168.783009 158.820332 
L 168.641046 161.333677 
L 168.57997 163.847022 
L 168.589977 166.360367 
L 168.651505 168.873712 
L 168.733683 171.387058 
L 168.795562 173.900403 
L 168.799844 176.413748 
L 168.730937 178.927093 
L 168.604396 181.440438 
L 168.4613 183.953783 
L 168.348228 186.467128 
L 168.292373 188.980473 
L 168.288826 191.493818 
L 168.310633 194.007163 
L 168.332886 196.520508 
L 168.349739 199.033853 
L 168.371103 201.547198 
L 168.404992 204.060543 
L 168.443977 206.573889 
L 168.469581 209.087234 
L 168.470238 211.600579 
L 168.453056 214.113924 
L 168.434427 216.627269 
L 168.417523 219.140614 
L 168.381216 221.653959 
L 168.294927 224.167304 
L 168.146647 226.680649 
L 167.956802 229.193994 
L 167.765207 231.707339 
L 167.605298 234.220684 
L 167.488952 236.734029 
L 167.409992 239.247374 
L 167.356115 241.76072 
L 167.316809 244.274065 
L 167.284952 246.78741 
L 167.256445 249.300755 
L 167.23028 251.8141 
L 167.207885 254.327445 
L 167.1911 256.84079 
L 167.180293 259.354135 
L 167.174223 261.86748 
L 167.171286 264.380825 
L 167.170451 266.89417 
L 167.17095 269.407515 
L 167.171535 271.92086 
L 167.170606 274.434205 
z
" clip-path="url(#p34b2cf4f62)" style="fill: #800080; fill-opacity: 0.85"/>
   </g>
   <g id="FillBetweenPolyCollection_4">
    <path d="M 208.513652 294.307305 
L 208.432323 294.307305 
L 208.373582 291.593222 
L 208.269488 288.879138 
L 208.127394 286.165055 
L 207.986551 283.450971 
L 207.902441 280.736888 
L 207.907299 278.022805 
L 207.983219 275.308721 
L 208.077075 272.594638 
L 208.141409 269.880554 
L 208.160606 267.166471 
L 208.14477 264.452387 
L 208.108275 261.738304 
L 208.056684 259.02422 
L 207.988432 256.310137 
L 207.902613 253.596053 
L 207.803297 250.88197 
L 207.697322 248.167887 
L 207.589746 245.453803 
L 207.484798 242.73972 
L 207.392475 240.025636 
L 207.327722 237.311553 
L 207.295329 234.597469 
L 207.276974 231.883386 
L 207.238329 229.169302 
L 207.147833 226.455219 
L 206.988145 223.741135 
L 206.760611 221.027052 
L 206.493017 218.312969 
L 206.242095 215.598885 
L 206.07234 212.884802 
L 206.019455 210.170718 
L 206.07261 207.456635 
L 206.190937 204.742551 
L 206.333106 202.028468 
L 206.474959 199.314384 
L 206.610794 196.600301 
L 206.743364 193.886218 
L 206.868197 191.172134 
L 206.963532 188.458051 
L 206.996205 185.743967 
L 206.938589 183.029884 
L 206.780806 180.3158 
L 206.529979 177.601717 
L 206.203516 174.887633 
L 205.829392 172.17355 
L 205.456744 169.459466 
L 205.159222 166.745383 
L 205.006031 164.0313 
L 205.009291 161.317216 
L 205.103089 158.603133 
L 205.19272 155.889049 
L 205.229112 153.174966 
L 205.225528 150.460882 
L 205.20674 147.746799 
L 205.16465 145.032715 
L 205.071146 142.318632 
L 204.917225 139.604548 
L 204.730098 136.890465 
L 204.562076 134.176382 
L 204.461912 131.462298 
L 204.435459 128.748215 
L 204.420594 126.034131 
L 204.311193 123.320048 
L 204.032932 120.605964 
L 203.619194 117.891881 
L 203.205876 115.177797 
L 202.92586 112.463714 
L 202.804849 109.74963 
L 202.764559 107.035547 
L 202.700973 104.321464 
L 202.54222 101.60738 
L 202.264626 98.893297 
L 201.876317 96.179213 
L 201.351795 93.46513 
L 200.564492 90.751046 
L 199.336287 88.036963 
L 197.616361 85.322879 
L 195.622081 82.608796 
L 193.77872 79.894712 
L 192.491244 77.180629 
L 191.943117 74.466546 
L 192.074552 71.752462 
L 192.701993 69.038379 
L 193.625947 66.324295 
L 194.660837 63.610212 
L 195.653251 60.896128 
L 196.536151 58.182045 
L 197.35933 55.467961 
L 198.231267 52.753878 
L 199.213956 50.039794 
L 200.274059 47.325711 
L 201.329115 44.611628 
L 202.316833 41.897544 
L 203.195532 39.183461 
L 203.890305 36.469377 
L 204.299745 33.755294 
L 204.416955 31.04121 
L 204.439654 28.327127 
L 204.685561 25.613043 
L 212.260413 25.613043 
L 212.260413 25.613043 
L 212.50632 28.327127 
L 212.529019 31.04121 
L 212.646229 33.755294 
L 213.055669 36.469377 
L 213.750442 39.183461 
L 214.629141 41.897544 
L 215.616859 44.611628 
L 216.671915 47.325711 
L 217.732018 50.039794 
L 218.714707 52.753878 
L 219.586645 55.467961 
L 220.409823 58.182045 
L 221.292723 60.896128 
L 222.285137 63.610212 
L 223.320027 66.324295 
L 224.243981 69.038379 
L 224.871422 71.752462 
L 225.002857 74.466546 
L 224.45473 77.180629 
L 223.167254 79.894712 
L 221.323893 82.608796 
L 219.329613 85.322879 
L 217.609687 88.036963 
L 216.381482 90.751046 
L 215.594179 93.46513 
L 215.069657 96.179213 
L 214.681348 98.893297 
L 214.403754 101.60738 
L 214.245001 104.321464 
L 214.181415 107.035547 
L 214.141125 109.74963 
L 214.020114 112.463714 
L 213.740098 115.177797 
L 213.32678 117.891881 
L 212.913042 120.605964 
L 212.634782 123.320048 
L 212.52538 126.034131 
L 212.510515 128.748215 
L 212.484062 131.462298 
L 212.383898 134.176382 
L 212.215876 136.890465 
L 212.028749 139.604548 
L 211.874828 142.318632 
L 211.781324 145.032715 
L 211.739234 147.746799 
L 211.720446 150.460882 
L 211.716862 153.174966 
L 211.753254 155.889049 
L 211.842885 158.603133 
L 211.936683 161.317216 
L 211.939943 164.0313 
L 211.786752 166.745383 
L 211.48923 169.459466 
L 211.116582 172.17355 
L 210.742458 174.887633 
L 210.415995 177.601717 
L 210.165168 180.3158 
L 210.007385 183.029884 
L 209.949769 185.743967 
L 209.982442 188.458051 
L 210.077777 191.172134 
L 210.20261 193.886218 
L 210.33518 196.600301 
L 210.471015 199.314384 
L 210.612868 202.028468 
L 210.755037 204.742551 
L 210.873365 207.456635 
L 210.926519 210.170718 
L 210.873634 212.884802 
L 210.703879 215.598885 
L 210.452957 218.312969 
L 210.185363 221.027052 
L 209.957829 223.741135 
L 209.798141 226.455219 
L 209.707645 229.169302 
L 209.669 231.883386 
L 209.650645 234.597469 
L 209.618252 237.311553 
L 209.553499 240.025636 
L 209.461176 242.73972 
L 209.356228 245.453803 
L 209.248652 248.167887 
L 209.142677 250.88197 
L 209.043361 253.596053 
L 208.957543 256.310137 
L 208.88929 259.02422 
L 208.837699 261.738304 
L 208.801204 264.452387 
L 208.785368 267.166471 
L 208.804565 269.880554 
L 208.868899 272.594638 
L 208.962755 275.308721 
L 209.038675 278.022805 
L 209.043534 280.736888 
L 208.959423 283.450971 
L 208.81858 286.165055 
L 208.676487 288.879138 
L 208.572392 291.593222 
L 208.513652 294.307305 
z
" clip-path="url(#p34b2cf4f62)" style="fill: #800080; fill-opacity: 0.6"/>
   </g>
   <g id="FillBetweenPolyCollection_5">
    <path d="M 249.880293 294.687149 
L 249.715031 294.687149 
L 249.659744 291.969229 
L 249.581575 289.251309 
L 249.4783 286.533389 
L 249.367318 283.815468 
L 249.289009 281.097548 
L 249.277589 278.379628 
L 249.324075 275.661708 
L 249.375077 272.943787 
L 249.370119 270.225867 
L 249.279875 267.507947 
L 249.117429 264.790027 
L 248.925281 262.072106 
L 248.751886 259.354186 
L 248.62655 256.636266 
L 248.543442 253.918346 
L 248.469412 251.200425 
L 248.371226 248.482505 
L 248.233694 245.764585 
L 248.056841 243.046664 
L 247.853468 240.328744 
L 247.655075 237.610824 
L 247.502869 234.892904 
L 247.41995 232.174983 
L 247.394594 229.457063 
L 247.387071 226.739143 
L 247.342985 224.021223 
L 247.210793 221.303302 
L 246.975896 218.585382 
L 246.690533 215.867462 
L 246.454776 213.149542 
L 246.350567 210.431621 
L 246.387402 207.713701 
L 246.501325 204.995781 
L 246.597996 202.277861 
L 246.615178 199.55994 
L 246.571682 196.84202 
L 246.554157 194.1241 
L 246.637099 191.406179 
L 246.813024 188.688259 
L 247.003255 185.970339 
L 247.123303 183.252419 
L 247.128483 180.534498 
L 247.013521 177.816578 
L 246.791352 175.098658 
L 246.4784 172.380738 
L 246.103208 169.662817 
L 245.734936 166.944897 
L 245.482513 164.226977 
L 245.42068 161.509057 
L 245.504881 158.791136 
L 245.599006 156.073216 
L 245.612772 153.355296 
L 245.580284 150.637376 
L 245.578378 147.919455 
L 245.60921 145.201535 
L 245.602212 142.483615 
L 245.48875 139.765694 
L 245.228002 137.047774 
L 244.806245 134.329854 
L 244.273935 131.611934 
L 243.756994 128.894013 
L 243.367496 126.176093 
L 243.09691 123.458173 
L 242.840725 120.740253 
L 242.543323 118.022332 
L 242.266125 115.304412 
L 242.073702 112.586492 
L 241.914918 109.868572 
L 241.683578 107.150651 
L 241.339907 104.432731 
L 240.89968 101.714811 
L 240.362858 98.996891 
L 239.736222 96.27897 
L 239.081316 93.56105 
L 238.448629 90.84313 
L 237.76916 88.125209 
L 236.890732 85.407289 
L 235.769557 82.689369 
L 234.599721 79.971449 
L 233.700262 77.253528 
L 233.267792 74.535608 
L 233.27815 71.817688 
L 233.611941 69.099768 
L 234.17933 66.381847 
L 234.900041 63.663927 
L 235.678728 60.946007 
L 236.486919 58.228087 
L 237.414196 55.510166 
L 238.563934 52.792246 
L 239.911218 50.074326 
L 241.300619 47.356406 
L 242.576729 44.638485 
L 243.687595 41.920565 
L 244.647692 39.202645 
L 245.421331 36.484724 
L 245.895725 33.766804 
L 246.025889 31.048884 
L 246.007961 28.330964 
L 246.215425 25.613043 
L 253.379899 25.613043 
L 253.379899 25.613043 
L 253.587363 28.330964 
L 253.569436 31.048884 
L 253.6996 33.766804 
L 254.173994 36.484724 
L 254.947632 39.202645 
L 255.90773 41.920565 
L 257.018596 44.638485 
L 258.294705 47.356406 
L 259.684106 50.074326 
L 261.031391 52.792246 
L 262.181129 55.510166 
L 263.108406 58.228087 
L 263.916596 60.946007 
L 264.695284 63.663927 
L 265.415995 66.381847 
L 265.983384 69.099768 
L 266.317175 71.817688 
L 266.327532 74.535608 
L 265.895063 77.253528 
L 264.995604 79.971449 
L 263.825767 82.689369 
L 262.704592 85.407289 
L 261.826165 88.125209 
L 261.146696 90.84313 
L 260.514008 93.56105 
L 259.859102 96.27897 
L 259.232467 98.996891 
L 258.695645 101.714811 
L 258.255418 104.432731 
L 257.911747 107.150651 
L 257.680407 109.868572 
L 257.521623 112.586492 
L 257.329199 115.304412 
L 257.052001 118.022332 
L 256.7546 120.740253 
L 256.498415 123.458173 
L 256.227829 126.176093 
L 255.838331 128.894013 
L 255.32139 131.611934 
L 254.78908 134.329854 
L 254.367323 137.047774 
L 254.106575 139.765694 
L 253.993112 142.483615 
L 253.986115 145.201535 
L 254.016947 147.919455 
L 254.015041 150.637376 
L 253.982553 153.355296 
L 253.996319 156.073216 
L 254.090444 158.791136 
L 254.174645 161.509057 
L 254.112812 164.226977 
L 253.860389 166.944897 
L 253.492116 169.662817 
L 253.116925 172.380738 
L 252.803972 175.098658 
L 252.581804 177.816578 
L 252.466841 180.534498 
L 252.472021 183.252419 
L 252.59207 185.970339 
L 252.782301 188.688259 
L 252.958225 191.406179 
L 253.041168 194.1241 
L 253.023642 196.84202 
L 252.980147 199.55994 
L 252.997329 202.277861 
L 253.093999 204.995781 
L 253.207923 207.713701 
L 253.244758 210.431621 
L 253.140549 213.149542 
L 252.904791 215.867462 
L 252.619428 218.585382 
L 252.384532 221.303302 
L 252.252339 224.021223 
L 252.208253 226.739143 
L 252.200731 229.457063 
L 252.175374 232.174983 
L 252.092455 234.892904 
L 251.94025 237.610824 
L 251.741856 240.328744 
L 251.538484 243.046664 
L 251.361631 245.764585 
L 251.224099 248.482505 
L 251.125913 251.200425 
L 251.051882 253.918346 
L 250.968775 256.636266 
L 250.843439 259.354186 
L 250.670043 262.072106 
L 250.477896 264.790027 
L 250.31545 267.507947 
L 250.225205 270.225867 
L 250.220248 272.943787 
L 250.27125 275.661708 
L 250.317736 278.379628 
L 250.306316 281.097548 
L 250.228006 283.815468 
L 250.117025 286.533389 
L 250.013749 289.251309 
L 249.93558 291.969229 
L 249.880293 294.687149 
z
" clip-path="url(#p34b2cf4f62)" style="fill: #800080; fill-opacity: 0.45"/>
   </g>
   <g id="FillBetweenPolyCollection_6">
    <path d="M 291.133214 307.417861 
L 291.111461 307.417861 
L 291.095809 304.571348 
L 291.066916 301.724835 
L 291.020617 298.878321 
L 290.952175 296.031808 
L 290.853547 293.185295 
L 290.711486 290.338781 
L 290.515471 287.492268 
L 290.282468 284.645755 
L 290.067534 281.799241 
L 289.912739 278.952728 
L 289.776641 276.106215 
L 289.560931 273.259701 
L 289.23278 270.413188 
L 288.876712 267.566675 
L 288.584607 264.720161 
L 288.325727 261.873648 
L 287.973854 259.027135 
L 287.455475 256.180622 
L 286.823689 253.334108 
L 286.155481 250.487595 
L 285.41816 247.641082 
L 284.523012 244.794568 
L 283.522726 241.948055 
L 282.684021 239.101542 
L 282.310526 236.255028 
L 282.48171 233.408515 
L 282.966152 230.562002 
L 283.389224 227.715488 
L 283.478204 224.868975 
L 283.175985 222.022462 
L 282.607617 219.175949 
L 281.994169 216.329435 
L 281.559036 213.482922 
L 281.429739 210.636409 
L 281.564901 207.789895 
L 281.77042 204.943382 
L 281.833642 202.096869 
L 281.701221 199.250355 
L 281.547427 196.403842 
L 281.622918 193.557329 
L 281.999185 190.710815 
L 282.508992 187.864302 
L 282.956272 185.017789 
L 283.290927 182.171275 
L 283.541473 179.324762 
L 283.68163 176.478249 
L 283.630647 173.631736 
L 283.35434 170.785222 
L 282.962508 167.938709 
L 282.69898 165.092196 
L 282.756573 162.245682 
L 283.085584 159.399169 
L 283.462671 156.552656 
L 283.750978 153.706142 
L 284.004406 150.859629 
L 284.294116 148.013116 
L 284.52549 145.166602 
L 284.500498 142.320089 
L 284.106548 139.473576 
L 283.391651 136.627062 
L 282.528722 133.780549 
L 281.745743 130.934036 
L 281.190217 128.087523 
L 280.787551 125.241009 
L 280.286729 122.394496 
L 279.538036 119.547983 
L 278.708788 116.701469 
L 278.11337 113.854956 
L 277.864391 111.008443 
L 277.826201 108.161929 
L 277.819373 105.315416 
L 277.689029 102.468903 
L 277.270491 99.622389 
L 276.51412 96.775876 
L 275.654301 93.929363 
L 275.094414 91.08285 
L 275.029993 88.236336 
L 275.243037 85.389823 
L 275.345672 82.54331 
L 275.170956 79.696796 
L 274.853154 76.850283 
L 274.612232 74.00377 
L 274.592468 71.157256 
L 274.856802 68.310743 
L 275.337748 65.46423 
L 275.787858 62.617716 
L 276.020236 59.771203 
L 276.259135 56.92469 
L 277.02145 54.078176 
L 278.553561 51.231663 
L 280.540406 48.38515 
L 282.436304 45.538637 
L 283.9581 42.692123 
L 285.167463 39.84561 
L 286.153502 36.999097 
L 286.804548 34.152583 
L 286.990683 31.30607 
L 286.917779 28.459557 
L 287.110548 25.613043 
L 295.134128 25.613043 
L 295.134128 25.613043 
L 295.326897 28.459557 
L 295.253993 31.30607 
L 295.440127 34.152583 
L 296.091174 36.999097 
L 297.077213 39.84561 
L 298.286575 42.692123 
L 299.808372 45.538637 
L 301.704269 48.38515 
L 303.691115 51.231663 
L 305.223226 54.078176 
L 305.98554 56.92469 
L 306.224439 59.771203 
L 306.456818 62.617716 
L 306.906927 65.46423 
L 307.387873 68.310743 
L 307.652208 71.157256 
L 307.632444 74.00377 
L 307.391522 76.850283 
L 307.073719 79.696796 
L 306.899004 82.54331 
L 307.001638 85.389823 
L 307.214682 88.236336 
L 307.150261 91.08285 
L 306.590374 93.929363 
L 305.730555 96.775876 
L 304.974185 99.622389 
L 304.555646 102.468903 
L 304.425302 105.315416 
L 304.418474 108.161929 
L 304.380285 111.008443 
L 304.131305 113.854956 
L 303.535887 116.701469 
L 302.706639 119.547983 
L 301.957946 122.394496 
L 301.457125 125.241009 
L 301.054458 128.087523 
L 300.498932 130.934036 
L 299.715953 133.780549 
L 298.853024 136.627062 
L 298.138127 139.473576 
L 297.744177 142.320089 
L 297.719185 145.166602 
L 297.950559 148.013116 
L 298.24027 150.859629 
L 298.493698 153.706142 
L 298.782004 156.552656 
L 299.159092 159.399169 
L 299.488102 162.245682 
L 299.545695 165.092196 
L 299.282167 167.938709 
L 298.890336 170.785222 
L 298.614028 173.631736 
L 298.563046 176.478249 
L 298.703202 179.324762 
L 298.953748 182.171275 
L 299.288404 185.017789 
L 299.735684 187.864302 
L 300.24549 190.710815 
L 300.621758 193.557329 
L 300.697248 196.403842 
L 300.543454 199.250355 
L 300.411033 202.096869 
L 300.474255 204.943382 
L 300.679775 207.789895 
L 300.814936 210.636409 
L 300.685639 213.482922 
L 300.250506 216.329435 
L 299.637058 219.175949 
L 299.06869 222.022462 
L 298.766471 224.868975 
L 298.855451 227.715488 
L 299.278524 230.562002 
L 299.762966 233.408515 
L 299.934149 236.255028 
L 299.560655 239.101542 
L 298.72195 241.948055 
L 297.721663 244.794568 
L 296.826516 247.641082 
L 296.089195 250.487595 
L 295.420986 253.334108 
L 294.789201 256.180622 
L 294.270821 259.027135 
L 293.918948 261.873648 
L 293.660068 264.720161 
L 293.367963 267.566675 
L 293.011896 270.413188 
L 292.683744 273.259701 
L 292.468034 276.106215 
L 292.331936 278.952728 
L 292.177141 281.799241 
L 291.962207 284.645755 
L 291.729205 287.492268 
L 291.533189 290.338781 
L 291.391129 293.185295 
L 291.2925 296.031808 
L 291.224059 298.878321 
L 291.177759 301.724835 
L 291.148866 304.571348 
L 291.133214 307.417861 
z
" clip-path="url(#p34b2cf4f62)" style="fill: #800080; fill-opacity: 0.3"/>
   </g>
   <g id="FillBetweenPolyCollection_7">
    <path d="M 332.45534 232.630646 
L 332.438686 232.630646 
L 332.426407 230.539559 
L 332.40071 228.448472 
L 332.360042 226.357386 
L 332.313967 224.266299 
L 332.280071 222.175212 
L 332.268442 220.084125 
L 332.270024 217.993038 
L 332.26434 215.901951 
L 332.237798 213.810864 
L 332.193784 211.719777 
L 332.149324 209.62869 
L 332.122666 207.537603 
L 332.117853 205.446517 
L 332.117244 203.35543 
L 332.092275 201.264343 
L 332.02963 199.173256 
L 331.951527 197.082169 
L 331.903391 194.991082 
L 331.913321 192.899995 
L 331.967226 190.808908 
L 332.026337 188.717821 
L 332.058791 186.626734 
L 332.048418 184.535648 
L 331.985915 182.444561 
L 331.869338 180.353474 
L 331.719161 178.262387 
L 331.58608 176.1713 
L 331.527309 174.080213 
L 331.55758 171.989126 
L 331.624576 169.898039 
L 331.647811 167.806952 
L 331.583279 165.715866 
L 331.444366 163.624779 
L 331.27288 161.533692 
L 331.106091 159.442605 
L 330.961815 157.351518 
L 330.836253 155.260431 
L 330.717567 153.169344 
L 330.608492 151.078257 
L 330.527167 148.98717 
L 330.478925 146.896083 
L 330.435771 144.804997 
L 330.352671 142.71391 
L 330.207031 140.622823 
L 330.026552 138.531736 
L 329.878043 136.440649 
L 329.813876 134.349562 
L 329.814227 132.258475 
L 329.791002 130.167388 
L 329.672477 128.076301 
L 329.480691 125.985214 
L 329.288994 123.894128 
L 329.102207 121.803041 
L 328.838492 119.711954 
L 328.451491 117.620867 
L 328.006488 115.52978 
L 327.593107 113.438693 
L 327.216305 111.347606 
L 326.846904 109.256519 
L 326.551314 107.165432 
L 326.459929 105.074345 
L 326.591099 102.983259 
L 326.816964 100.892172 
L 327.028599 98.801085 
L 327.228108 96.709998 
L 327.422342 94.618911 
L 327.508107 92.527824 
L 327.313351 90.436737 
L 326.715316 88.34565 
L 325.66674 86.254563 
L 324.126825 84.163477 
L 322.086921 82.07239 
L 319.759194 79.981303 
L 317.646608 77.890216 
L 316.280681 75.799129 
L 315.917143 73.708042 
L 316.498854 71.616955 
L 317.741747 69.525868 
L 319.186362 67.434781 
L 320.308329 65.343694 
L 320.706931 63.252608 
L 320.272159 61.161521 
L 319.26998 59.070434 
L 318.272076 56.979347 
L 317.876131 54.88826 
L 318.370708 52.797173 
L 319.611543 50.706086 
L 321.160453 48.614999 
L 322.540182 46.523912 
L 323.497502 44.432825 
L 324.143096 42.341739 
L 324.800572 40.250652 
L 325.666685 38.159565 
L 326.622274 36.068478 
L 327.320532 33.977391 
L 327.416281 31.886304 
L 326.858809 29.795217 
L 326.125566 27.70413 
L 326.023827 25.613043 
L 338.870199 25.613043 
L 338.870199 25.613043 
L 338.76846 27.70413 
L 338.035217 29.795217 
L 337.477745 31.886304 
L 337.573494 33.977391 
L 338.271752 36.068478 
L 339.227341 38.159565 
L 340.093454 40.250652 
L 340.75093 42.341739 
L 341.396524 44.432825 
L 342.353844 46.523912 
L 343.733573 48.614999 
L 345.282483 50.706086 
L 346.523318 52.797173 
L 347.017895 54.88826 
L 346.62195 56.979347 
L 345.624046 59.070434 
L 344.621867 61.161521 
L 344.187095 63.252608 
L 344.585697 65.343694 
L 345.707664 67.434781 
L 347.152279 69.525868 
L 348.395172 71.616955 
L 348.976883 73.708042 
L 348.613345 75.799129 
L 347.247418 77.890216 
L 345.134832 79.981303 
L 342.807105 82.07239 
L 340.767201 84.163477 
L 339.227286 86.254563 
L 338.17871 88.34565 
L 337.580675 90.436737 
L 337.385919 92.527824 
L 337.471684 94.618911 
L 337.665918 96.709998 
L 337.865427 98.801085 
L 338.077062 100.892172 
L 338.302927 102.983259 
L 338.434097 105.074345 
L 338.342712 107.165432 
L 338.047122 109.256519 
L 337.677721 111.347606 
L 337.300919 113.438693 
L 336.887538 115.52978 
L 336.442535 117.620867 
L 336.055534 119.711954 
L 335.791819 121.803041 
L 335.605032 123.894128 
L 335.413335 125.985214 
L 335.221549 128.076301 
L 335.103024 130.167388 
L 335.079799 132.258475 
L 335.08015 134.349562 
L 335.015983 136.440649 
L 334.867474 138.531736 
L 334.686995 140.622823 
L 334.541355 142.71391 
L 334.458255 144.804997 
L 334.415101 146.896083 
L 334.366859 148.98717 
L 334.285534 151.078257 
L 334.176459 153.169344 
L 334.057773 155.260431 
L 333.932211 157.351518 
L 333.787935 159.442605 
L 333.621146 161.533692 
L 333.44966 163.624779 
L 333.310747 165.715866 
L 333.246215 167.806952 
L 333.26945 169.898039 
L 333.336446 171.989126 
L 333.366717 174.080213 
L 333.307946 176.1713 
L 333.174865 178.262387 
L 333.024688 180.353474 
L 332.908111 182.444561 
L 332.845608 184.535648 
L 332.835235 186.626734 
L 332.867689 188.717821 
L 332.9268 190.808908 
L 332.980705 192.899995 
L 332.990635 194.991082 
L 332.942499 197.082169 
L 332.864396 199.173256 
L 332.801751 201.264343 
L 332.776782 203.35543 
L 332.776173 205.446517 
L 332.77136 207.537603 
L 332.744702 209.62869 
L 332.700242 211.719777 
L 332.656228 213.810864 
L 332.629686 215.901951 
L 332.624002 217.993038 
L 332.625584 220.084125 
L 332.613955 222.175212 
L 332.580059 224.266299 
L 332.533984 226.357386 
L 332.493316 228.448472 
L 332.467619 230.539559 
L 332.45534 232.630646 
z
" clip-path="url(#p34b2cf4f62)" style="fill-opacity: 0.45"/>
   </g>
   <g id="FillBetweenPolyCollection_8">
    <path d="M 373.857314 196.680845 
L 373.686062 196.680845 
L 373.688475 194.952887 
L 373.698833 193.22493 
L 373.708159 191.496972 
L 373.709909 189.769014 
L 373.703657 188.041057 
L 373.693609 186.313099 
L 373.684678 184.585142 
L 373.679866 182.857184 
L 373.679991 181.129226 
L 373.684266 179.401269 
L 373.690606 177.673311 
L 373.696303 175.945354 
L 373.699261 174.217396 
L 373.698387 172.489439 
L 373.692771 170.761481 
L 373.681739 169.033523 
L 373.666928 167.305566 
L 373.653638 165.577608 
L 373.647776 163.849651 
L 373.64938 162.121693 
L 373.648056 160.393735 
L 373.624626 158.665778 
L 373.560004 156.93782 
L 373.449809 155.209863 
L 373.31713 153.481905 
L 373.208675 151.753947 
L 373.168321 150.02599 
L 373.207748 148.298032 
L 373.302533 146.570075 
L 373.414693 144.842117 
L 373.515643 143.114159 
L 373.59225 141.386202 
L 373.641962 139.658244 
L 373.66713 137.930287 
L 373.670619 136.202329 
L 373.653288 134.474372 
L 373.615425 132.746414 
L 373.559907 131.018456 
L 373.49137 129.290499 
L 373.40999 127.562541 
L 373.303246 125.834584 
L 373.137363 124.106626 
L 372.853602 122.378668 
L 372.388486 120.650711 
L 371.733518 118.922753 
L 371.002309 117.194796 
L 370.420182 115.466838 
L 370.187854 113.73888 
L 370.31521 112.010923 
L 370.609015 110.282965 
L 370.857874 108.555008 
L 371.019337 106.82705 
L 371.203906 105.099093 
L 371.503014 103.371135 
L 371.881446 101.643177 
L 372.233984 99.91522 
L 372.495666 98.187262 
L 372.66997 96.459305 
L 372.769632 94.731347 
L 372.752262 93.003389 
L 372.511283 91.275432 
L 371.922428 89.547474 
L 370.900805 87.819517 
L 369.40979 86.091559 
L 367.42109 84.363601 
L 364.935486 82.635644 
L 362.142161 80.907686 
L 359.541996 79.179729 
L 357.772203 77.451771 
L 357.241818 75.723813 
L 357.984172 73.995856 
L 359.797721 72.267898 
L 362.343225 70.539941 
L 365.095595 68.811983 
L 367.412636 67.084026 
L 368.792869 65.356068 
L 369.059425 63.62811 
L 368.323092 61.900153 
L 366.869962 60.172195 
L 365.106619 58.444238 
L 363.502642 56.71628 
L 362.455321 54.988322 
L 362.145625 53.260365 
L 362.493348 51.532407 
L 363.220013 49.80445 
L 363.971955 48.076492 
L 364.473643 46.348534 
L 364.66059 44.620577 
L 364.700263 42.892619 
L 364.862409 41.164662 
L 365.32939 39.436704 
L 366.091266 37.708747 
L 366.970295 35.980789 
L 367.689794 34.252831 
L 367.930323 32.524874 
L 367.458271 30.796916 
L 366.382451 29.068959 
L 365.312303 27.341001 
L 365.081708 25.613043 
L 382.461668 25.613043 
L 382.461668 25.613043 
L 382.231073 27.341001 
L 381.160925 29.068959 
L 380.085105 30.796916 
L 379.613054 32.524874 
L 379.853582 34.252831 
L 380.573082 35.980789 
L 381.45211 37.708747 
L 382.213987 39.436704 
L 382.680968 41.164662 
L 382.843114 42.892619 
L 382.882787 44.620577 
L 383.069734 46.348534 
L 383.571422 48.076492 
L 384.323363 49.80445 
L 385.050029 51.532407 
L 385.397751 53.260365 
L 385.088056 54.988322 
L 384.040735 56.71628 
L 382.436757 58.444238 
L 380.673415 60.172195 
L 379.220284 61.900153 
L 378.483951 63.62811 
L 378.750508 65.356068 
L 380.130741 67.084026 
L 382.447781 68.811983 
L 385.200152 70.539941 
L 387.745655 72.267898 
L 389.559205 73.995856 
L 390.301558 75.723813 
L 389.771173 77.451771 
L 388.00138 79.179729 
L 385.401215 80.907686 
L 382.60789 82.635644 
L 380.122286 84.363601 
L 378.133587 86.091559 
L 376.642572 87.819517 
L 375.620949 89.547474 
L 375.032093 91.275432 
L 374.791115 93.003389 
L 374.773745 94.731347 
L 374.873406 96.459305 
L 375.047711 98.187262 
L 375.309393 99.91522 
L 375.661931 101.643177 
L 376.040363 103.371135 
L 376.339471 105.099093 
L 376.524039 106.82705 
L 376.685503 108.555008 
L 376.934361 110.282965 
L 377.228167 112.010923 
L 377.355522 113.73888 
L 377.123195 115.466838 
L 376.541067 117.194796 
L 375.809859 118.922753 
L 375.154891 120.650711 
L 374.689774 122.378668 
L 374.406014 124.106626 
L 374.240131 125.834584 
L 374.133387 127.562541 
L 374.052006 129.290499 
L 373.983469 131.018456 
L 373.927952 132.746414 
L 373.890088 134.474372 
L 373.872758 136.202329 
L 373.876247 137.930287 
L 373.901415 139.658244 
L 373.951126 141.386202 
L 374.027734 143.114159 
L 374.128684 144.842117 
L 374.240844 146.570075 
L 374.335628 148.298032 
L 374.375056 150.02599 
L 374.334701 151.753947 
L 374.226246 153.481905 
L 374.093568 155.209863 
L 373.983373 156.93782 
L 373.91875 158.665778 
L 373.895321 160.393735 
L 373.893997 162.121693 
L 373.895601 163.849651 
L 373.889739 165.577608 
L 373.876448 167.305566 
L 373.861637 169.033523 
L 373.850605 170.761481 
L 373.84499 172.489439 
L 373.844115 174.217396 
L 373.847073 175.945354 
L 373.85277 177.673311 
L 373.859111 179.401269 
L 373.863386 181.129226 
L 373.863511 182.857184 
L 373.858698 184.585142 
L 373.849768 186.313099 
L 373.83972 188.041057 
L 373.833468 189.769014 
L 373.835218 191.496972 
L 373.844544 193.22493 
L 373.854902 194.952887 
L 373.857314 196.680845 
z
" clip-path="url(#p34b2cf4f62)" style="fill-opacity: 0.6"/>
   </g>
   <g id="FillBetweenPolyCollection_9">
    <path d="M 415.117078 196.680845 
L 415.075649 196.680845 
L 415.071962 194.952887 
L 415.069376 193.22493 
L 415.068245 191.496972 
L 415.068789 189.769014 
L 415.070882 188.041057 
L 415.073861 186.313099 
L 415.076553 184.585142 
L 415.077558 182.857184 
L 415.075617 181.129226 
L 415.069943 179.401269 
L 415.060523 177.673311 
L 415.048392 175.945354 
L 415.035637 174.217396 
L 415.02487 172.489439 
L 415.018263 170.761481 
L 415.016655 169.033523 
L 415.019145 167.305566 
L 415.022989 165.577608 
L 415.023233 163.849651 
L 415.012056 162.121693 
L 414.978977 160.393735 
L 414.9139 158.665778 
L 414.813809 156.93782 
L 414.690348 155.209863 
L 414.571789 153.481905 
L 414.494022 151.753947 
L 414.483179 150.02599 
L 414.541266 148.298032 
L 414.645733 146.570075 
L 414.762988 144.842117 
L 414.864998 143.114159 
L 414.937891 141.386202 
L 414.980107 139.658244 
L 414.99536 137.930287 
L 414.986875 136.202329 
L 414.955767 134.474372 
L 414.902422 132.746414 
L 414.827519 131.018456 
L 414.729668 129.290499 
L 414.599148 127.562541 
L 414.410926 125.834584 
L 414.123679 124.106626 
L 413.69314 122.378668 
L 413.102993 120.650711 
L 412.401071 118.922753 
L 411.710826 117.194796 
L 411.191112 115.466838 
L 410.955308 113.73888 
L 411.007472 112.010923 
L 411.253549 110.282965 
L 411.582044 108.555008 
L 411.940619 106.82705 
L 412.340903 105.099093 
L 412.80049 103.371135 
L 413.291593 101.643177 
L 413.745798 99.91522 
L 414.097109 98.187262 
L 414.310607 96.459305 
L 414.370011 94.731347 
L 414.243159 93.003389 
L 413.860874 91.275432 
L 413.125233 89.547474 
L 411.93741 87.819517 
L 410.231474 86.091559 
L 408.016435 84.363601 
L 405.430481 82.635644 
L 402.777602 80.907686 
L 400.488783 79.179729 
L 398.992317 77.451771 
L 398.566494 75.723813 
L 399.269164 73.995856 
L 400.955671 72.267898 
L 403.324235 70.539941 
L 405.959078 68.811983 
L 408.40153 67.084026 
L 410.260586 65.356068 
L 411.312773 63.62811 
L 411.538377 61.900153 
L 411.095487 60.172195 
L 410.263964 58.444238 
L 409.374466 56.71628 
L 408.721886 54.988322 
L 408.477986 53.260365 
L 408.639497 51.532407 
L 409.043962 49.80445 
L 409.454607 48.076492 
L 409.676887 46.348534 
L 409.646697 44.620577 
L 409.442476 42.892619 
L 409.218699 41.164662 
L 409.105001 39.436704 
L 409.127519 37.708747 
L 409.185516 35.980789 
L 409.089603 34.252831 
L 408.657839 32.524874 
L 407.849578 30.796916 
L 406.870332 29.068959 
L 406.146239 27.341001 
L 406.126 25.613043 
L 424.066727 25.613043 
L 424.066727 25.613043 
L 424.046488 27.341001 
L 423.322396 29.068959 
L 422.343149 30.796916 
L 421.534888 32.524874 
L 421.103124 34.252831 
L 421.007212 35.980789 
L 421.065208 37.708747 
L 421.087726 39.436704 
L 420.974029 41.164662 
L 420.750252 42.892619 
L 420.546031 44.620577 
L 420.51584 46.348534 
L 420.73812 48.076492 
L 421.148765 49.80445 
L 421.55323 51.532407 
L 421.714741 53.260365 
L 421.470841 54.988322 
L 420.818261 56.71628 
L 419.928763 58.444238 
L 419.097241 60.172195 
L 418.65435 61.900153 
L 418.879954 63.62811 
L 419.932141 65.356068 
L 421.791197 67.084026 
L 424.233649 68.811983 
L 426.868492 70.539941 
L 429.237056 72.267898 
L 430.923563 73.995856 
L 431.626234 75.723813 
L 431.20041 77.451771 
L 429.703944 79.179729 
L 427.415125 80.907686 
L 424.762247 82.635644 
L 422.176292 84.363601 
L 419.961253 86.091559 
L 418.255318 87.819517 
L 417.067495 89.547474 
L 416.331854 91.275432 
L 415.949569 93.003389 
L 415.822717 94.731347 
L 415.88212 96.459305 
L 416.095618 98.187262 
L 416.446929 99.91522 
L 416.901134 101.643177 
L 417.392237 103.371135 
L 417.851824 105.099093 
L 418.252108 106.82705 
L 418.610683 108.555008 
L 418.939178 110.282965 
L 419.185255 112.010923 
L 419.237419 113.73888 
L 419.001616 115.466838 
L 418.481901 117.194796 
L 417.791656 118.922753 
L 417.089735 120.650711 
L 416.499588 122.378668 
L 416.069048 124.106626 
L 415.781801 125.834584 
L 415.593579 127.562541 
L 415.463059 129.290499 
L 415.365208 131.018456 
L 415.290305 132.746414 
L 415.23696 134.474372 
L 415.205852 136.202329 
L 415.197367 137.930287 
L 415.21262 139.658244 
L 415.254836 141.386202 
L 415.327729 143.114159 
L 415.429739 144.842117 
L 415.546995 146.570075 
L 415.651462 148.298032 
L 415.709548 150.02599 
L 415.698706 151.753947 
L 415.620938 153.481905 
L 415.502379 155.209863 
L 415.378918 156.93782 
L 415.278827 158.665778 
L 415.21375 160.393735 
L 415.180672 162.121693 
L 415.169494 163.849651 
L 415.169738 165.577608 
L 415.173582 167.305566 
L 415.176073 169.033523 
L 415.174464 170.761481 
L 415.167857 172.489439 
L 415.15709 174.217396 
L 415.144335 175.945354 
L 415.132204 177.673311 
L 415.122784 179.401269 
L 415.11711 181.129226 
L 415.115169 182.857184 
L 415.116174 184.585142 
L 415.118866 186.313099 
L 415.121845 188.041057 
L 415.123938 189.769014 
L 415.124482 191.496972 
L 415.123352 193.22493 
L 415.120765 194.952887 
L 415.117078 196.680845 
z
" clip-path="url(#p34b2cf4f62)" style="fill-opacity: 0.85"/>
   </g>
   <g id="FillBetweenPolyCollection_10">
    <path d="M 456.443297 196.680845 
L 456.398781 196.680845 
L 456.394952 194.952887 
L 456.392284 193.22493 
L 456.391137 191.496972 
L 456.391671 189.769014 
L 456.393684 188.041057 
L 456.39649 186.313099 
L 456.398981 184.585142 
L 456.399917 182.857184 
L 456.398332 181.129226 
L 456.393919 179.401269 
L 456.387299 177.673311 
L 456.380016 175.945354 
L 456.374122 174.217396 
L 456.371356 172.489439 
L 456.372291 170.761481 
L 456.37596 169.033523 
L 456.38009 167.305566 
L 456.381425 165.577608 
L 456.375463 163.849651 
L 456.355654 162.121693 
L 456.313429 160.393735 
L 456.240966 158.665778 
L 456.137165 156.93782 
L 456.013937 155.209863 
L 455.897261 153.481905 
L 455.819108 151.753947 
L 455.80292 150.02599 
L 455.85168 148.298032 
L 455.946953 146.570075 
L 456.059226 144.842117 
L 456.161705 143.114159 
L 456.238765 141.386202 
L 456.28604 139.658244 
L 456.305326 137.930287 
L 456.299415 136.202329 
L 456.269701 134.474372 
L 456.216172 132.746414 
L 456.137334 131.018456 
L 456.027887 129.290499 
L 455.874062 127.562541 
L 455.649746 125.834584 
L 455.319197 124.106626 
L 454.851842 122.378668 
L 454.248364 120.650711 
L 453.565171 118.922753 
L 452.915069 117.194796 
L 452.429843 115.466838 
L 452.199041 113.73888 
L 452.226947 112.010923 
L 452.443835 110.282965 
L 452.763553 108.555008 
L 453.137436 106.82705 
L 453.56028 105.099093 
L 454.033264 103.371135 
L 454.528146 101.643177 
L 454.98679 99.91522 
L 455.347986 98.187262 
L 455.568179 96.459305 
L 455.615954 94.731347 
L 455.449816 93.003389 
L 455.002867 91.275432 
L 454.18815 89.547474 
L 452.922051 87.819517 
L 451.158357 86.091559 
L 448.930434 84.363601 
L 446.394495 82.635644 
L 443.846911 80.907686 
L 441.680329 79.179729 
L 440.277038 77.451771 
L 439.891169 75.723813 
L 440.582191 73.995856 
L 442.2153 72.267898 
L 444.499818 70.539941 
L 447.043476 68.811983 
L 449.426803 67.084026 
L 451.295546 65.356068 
L 452.441394 63.62811 
L 452.838879 61.900153 
L 452.632972 60.172195 
L 452.091067 58.444238 
L 451.530633 56.71628 
L 451.231773 54.988322 
L 451.356685 53.260365 
L 451.909102 51.532407 
L 452.754912 49.80445 
L 453.693498 48.076492 
L 454.541847 46.348534 
L 455.190608 44.620577 
L 455.612385 42.892619 
L 455.829977 41.164662 
L 455.867919 39.436704 
L 455.711288 37.708747 
L 455.290591 35.980789 
L 454.507875 34.252831 
L 453.309391 32.524874 
L 451.781192 30.796916 
L 450.204853 29.068959 
L 449.003164 27.341001 
L 448.567185 25.613043 
L 464.274893 25.613043 
L 464.274893 25.613043 
L 463.838914 27.341001 
L 462.637225 29.068959 
L 461.060886 30.796916 
L 459.532687 32.524874 
L 458.334203 34.252831 
L 457.551487 35.980789 
L 457.13079 37.708747 
L 456.974159 39.436704 
L 457.012101 41.164662 
L 457.229693 42.892619 
L 457.65147 44.620577 
L 458.300231 46.348534 
L 459.14858 48.076492 
L 460.087166 49.80445 
L 460.932976 51.532407 
L 461.485393 53.260365 
L 461.610305 54.988322 
L 461.311445 56.71628 
L 460.751011 58.444238 
L 460.209106 60.172195 
L 460.003199 61.900153 
L 460.400684 63.62811 
L 461.546532 65.356068 
L 463.415275 67.084026 
L 465.798602 68.811983 
L 468.34226 70.539941 
L 470.626778 72.267898 
L 472.259887 73.995856 
L 472.950909 75.723813 
L 472.56504 77.451771 
L 471.161749 79.179729 
L 468.995167 80.907686 
L 466.447583 82.635644 
L 463.911644 84.363601 
L 461.683721 86.091559 
L 459.920027 87.819517 
L 458.653928 89.547474 
L 457.839211 91.275432 
L 457.392262 93.003389 
L 457.226124 94.731347 
L 457.273899 96.459305 
L 457.494092 98.187262 
L 457.855288 99.91522 
L 458.313932 101.643177 
L 458.808814 103.371135 
L 459.281798 105.099093 
L 459.704642 106.82705 
L 460.078525 108.555008 
L 460.398243 110.282965 
L 460.615131 112.010923 
L 460.643037 113.73888 
L 460.412234 115.466838 
L 459.927009 117.194796 
L 459.276907 118.922753 
L 458.593714 120.650711 
L 457.990236 122.378668 
L 457.522881 124.106626 
L 457.192332 125.834584 
L 456.968016 127.562541 
L 456.81419 129.290499 
L 456.704744 131.018456 
L 456.625906 132.746414 
L 456.572376 134.474372 
L 456.542663 136.202329 
L 456.536752 137.930287 
L 456.556038 139.658244 
L 456.603313 141.386202 
L 456.680373 143.114159 
L 456.782851 144.842117 
L 456.895124 146.570075 
L 456.990398 148.298032 
L 457.039158 150.02599 
L 457.02297 151.753947 
L 456.944817 153.481905 
L 456.828141 155.209863 
L 456.704913 156.93782 
L 456.601112 158.665778 
L 456.528649 160.393735 
L 456.486424 162.121693 
L 456.466615 163.849651 
L 456.460653 165.577608 
L 456.461988 167.305566 
L 456.466118 169.033523 
L 456.469787 170.761481 
L 456.470722 172.489439 
L 456.467956 174.217396 
L 456.462062 175.945354 
L 456.454779 177.673311 
L 456.448159 179.401269 
L 456.443746 181.129226 
L 456.442161 182.857184 
L 456.443097 184.585142 
L 456.445587 186.313099 
L 456.448393 188.041057 
L 456.450407 189.769014 
L 456.450941 191.496972 
L 456.449794 193.22493 
L 456.447126 194.952887 
L 456.443297 196.680845 
z
" clip-path="url(#p34b2cf4f62)"/>
   </g>
   <g id="matplotlib.axis_1">
    <g id="xtick_1">
     <g id="line2d_1">
      <defs>
       <path id="md2e9c1a8f8" d="M 0 0 
L 0 3.5 
" style="stroke: #000000; stroke-width: 0.8"/>
      </defs>
      <g>
       <use xlink:href="#md2e9c1a8f8" x="84.498961" y="336.686955" style="stroke: #000000; stroke-width: 0.8"/>
      </g>
     </g>
     <g id="text_1">
      <!-- Mechinformed -->
      <g transform="translate(85.969522 349.059861) rotate(-315) scale(0.1 -0.1)">
       <defs>
        <path id="DejaVuSans-4d" d="M 628 4666 
L 1569 4666 
L 2759 1491 
L 3956 4666 
L 4897 4666 
L 4897 0 
L 4281 0 
L 4281 4097 
L 3078 897 
L 2444 897 
L 1241 4097 
L 1241 0 
L 628 0 
L 628 4666 
z
" transform="scale(0.015625)"/>
        <path id="DejaVuSans-65" d="M 3597 1894 
L 3597 1613 
L 953 1613 
Q 991 1019 1311 708 
Q 1631 397 2203 397 
Q 2534 397 2845 478 
Q 3156 559 3463 722 
L 3463 178 
Q 3153 47 2828 -22 
Q 2503 -91 2169 -91 
Q 1331 -91 842 396 
Q 353 884 353 1716 
Q 353 2575 817 3079 
Q 1281 3584 2069 3584 
Q 2775 3584 3186 3129 
Q 3597 2675 3597 1894 
z
M 3022 2063 
Q 3016 2534 2758 2815 
Q 2500 3097 2075 3097 
Q 1594 3097 1305 2825 
Q 1016 2553 972 2059 
L 3022 2063 
z
" transform="scale(0.015625)"/>
        <path id="DejaVuSans-63" d="M 3122 3366 
L 3122 2828 
Q 2878 2963 2633 3030 
Q 2388 3097 2138 3097 
Q 1578 3097 1268 2742 
Q 959 2388 959 1747 
Q 959 1106 1268 751 
Q 1578 397 2138 397 
Q 2388 397 2633 464 
Q 2878 531 3122 666 
L 3122 134 
Q 2881 22 2623 -34 
Q 2366 -91 2075 -91 
Q 1284 -91 818 406 
Q 353 903 353 1747 
Q 353 2603 823 3093 
Q 1294 3584 2113 3584 
Q 2378 3584 2631 3529 
Q 2884 3475 3122 3366 
z
" transform="scale(0.015625)"/>
        <path id="DejaVuSans-68" d="M 3513 2113 
L 3513 0 
L 2938 0 
L 2938 2094 
Q 2938 2591 2744 2837 
Q 2550 3084 2163 3084 
Q 1697 3084 1428 2787 
Q 1159 2491 1159 1978 
L 1159 0 
L 581 0 
L 581 4863 
L 1159 4863 
L 1159 2956 
Q 1366 3272 1645 3428 
Q 1925 3584 2291 3584 
Q 2894 3584 3203 3211 
Q 3513 2838 3513 2113 
z
" transform="scale(0.015625)"/>
        <path id="DejaVuSans-69" d="M 603 3500 
L 1178 3500 
L 1178 0 
L 603 0 
L 603 3500 
z
M 603 4863 
L 1178 4863 
L 1178 4134 
L 603 4134 
L 603 4863 
z
" transform="scale(0.015625)"/>
        <path id="DejaVuSans-6e" d="M 3513 2113 
L 3513 0 
L 2938 0 
L 2938 2094 
Q 2938 2591 2744 2837 
Q 2550 3084 2163 3084 
Q 1697 3084 1428 2787 
Q 1159 2491 1159 1978 
L 1159 0 
L 581 0 
L 581 3500 
L 1159 3500 
L 1159 2956 
Q 1366 3272 1645 3428 
Q 1925 3584 2291 3584 
Q 2894 3584 3203 3211 
Q 3513 2838 3513 2113 
z
" transform="scale(0.015625)"/>
        <path id="DejaVuSans-66" d="M 2375 4863 
L 2375 4384 
L 1825 4384 
Q 1516 4384 1395 4259 
Q 1275 4134 1275 3809 
L 1275 3500 
L 2222 3500 
L 2222 3053 
L 1275 3053 
L 1275 0 
L 697 0 
L 697 3053 
L 147 3053 
L 147 3500 
L 697 3500 
L 697 3744 
Q 697 4328 969 4595 
Q 1241 4863 1831 4863 
L 2375 4863 
z
" transform="scale(0.015625)"/>
        <path id="DejaVuSans-6f" d="M 1959 3097 
Q 1497 3097 1228 2736 
Q 959 2375 959 1747 
Q 959 1119 1226 758 
Q 1494 397 1959 397 
Q 2419 397 2687 759 
Q 2956 1122 2956 1747 
Q 2956 2369 2687 2733 
Q 2419 3097 1959 3097 
z
M 1959 3584 
Q 2709 3584 3137 3096 
Q 3566 2609 3566 1747 
Q 3566 888 3137 398 
Q 2709 -91 1959 -91 
Q 1206 -91 779 398 
Q 353 888 353 1747 
Q 353 2609 779 3096 
Q 1206 3584 1959 3584 
z
" transform="scale(0.015625)"/>
        <path id="DejaVuSans-72" d="M 2631 2963 
Q 2534 3019 2420 3045 
Q 2306 3072 2169 3072 
Q 1681 3072 1420 2755 
Q 1159 2438 1159 1844 
L 1159 0 
L 581 0 
L 581 3500 
L 1159 3500 
L 1159 2956 
Q 1341 3275 1631 3429 
Q 1922 3584 2338 3584 
Q 2397 3584 2469 3576 
Q 2541 3569 2628 3553 
L 2631 2963 
z
" transform="scale(0.015625)"/>
        <path id="DejaVuSans-6d" d="M 3328 2828 
Q 3544 3216 3844 3400 
Q 4144 3584 4550 3584 
Q 5097 3584 5394 3201 
Q 5691 2819 5691 2113 
L 5691 0 
L 5113 0 
L 5113 2094 
Q 5113 2597 4934 2840 
Q 4756 3084 4391 3084 
Q 3944 3084 3684 2787 
Q 3425 2491 3425 1978 
L 3425 0 
L 2847 0 
L 2847 2094 
Q 2847 2600 2669 2842 
Q 2491 3084 2119 3084 
Q 1678 3084 1418 2786 
Q 1159 2488 1159 1978 
L 1159 0 
L 581 0 
L 581 3500 
L 1159 3500 
L 1159 2956 
Q 1356 3278 1631 3431 
Q 1906 3584 2284 3584 
Q 2666 3584 2933 3390 
Q 3200 3197 3328 2828 
z
" transform="scale(0.015625)"/>
        <path id="DejaVuSans-64" d="M 2906 2969 
L 2906 4863 
L 3481 4863 
L 3481 0 
L 2906 0 
L 2906 525 
Q 2725 213 2448 61 
Q 2172 -91 1784 -91 
Q 1150 -91 751 415 
Q 353 922 353 1747 
Q 353 2572 751 3078 
Q 1150 3584 1784 3584 
Q 2172 3584 2448 3432 
Q 2725 3281 2906 2969 
z
M 947 1747 
Q 947 1113 1208 752 
Q 1469 391 1925 391 
Q 2381 391 2643 752 
Q 2906 1113 2906 1747 
Q 2906 2381 2643 2742 
Q 2381 3103 1925 3103 
Q 1469 3103 1208 2742 
Q 947 2381 947 1747 
z
" transform="scale(0.015625)"/>
       </defs>
       <use xlink:href="#DejaVuSans-4d"/>
       <use xlink:href="#DejaVuSans-65" transform="translate(86.279297 0)"/>
       <use xlink:href="#DejaVuSans-63" transform="translate(147.802734 0)"/>
       <use xlink:href="#DejaVuSans-68" transform="translate(202.783203 0)"/>
       <use xlink:href="#DejaVuSans-69" transform="translate(266.162109 0)"/>
       <use xlink:href="#DejaVuSans-6e" transform="translate(293.945312 0)"/>
       <use xlink:href="#DejaVuSans-66" transform="translate(357.324219 0)"/>
       <use xlink:href="#DejaVuSans-6f" transform="translate(392.529297 0)"/>
       <use xlink:href="#DejaVuSans-72" transform="translate(453.710938 0)"/>
       <use xlink:href="#DejaVuSans-6d" transform="translate(493.074219 0)"/>
       <use xlink:href="#DejaVuSans-65" transform="translate(590.486328 0)"/>
       <use xlink:href="#DejaVuSans-64" transform="translate(652.009766 0)"/>
      </g>
     </g>
    </g>
    <g id="xtick_2">
     <g id="line2d_2">
      <g>
       <use xlink:href="#md2e9c1a8f8" x="125.823636" y="336.686955" style="stroke: #000000; stroke-width: 0.8"/>
      </g>
     </g>
     <g id="text_2">
      <!-- Mechinferred &gt;0.01 -->
      <g transform="translate(127.294197 349.059861) rotate(-315) scale(0.1 -0.1)">
       <defs>
        <path id="DejaVuSans-20" transform="scale(0.015625)"/>
        <path id="DejaVuSans-3e" d="M 678 3150 
L 678 3719 
L 4684 2266 
L 4684 1747 
L 678 294 
L 678 863 
L 3897 2003 
L 678 3150 
z
" transform="scale(0.015625)"/>
        <path id="DejaVuSans-30" d="M 2034 4250 
Q 1547 4250 1301 3770 
Q 1056 3291 1056 2328 
Q 1056 1369 1301 889 
Q 1547 409 2034 409 
Q 2525 409 2770 889 
Q 3016 1369 3016 2328 
Q 3016 3291 2770 3770 
Q 2525 4250 2034 4250 
z
M 2034 4750 
Q 2819 4750 3233 4129 
Q 3647 3509 3647 2328 
Q 3647 1150 3233 529 
Q 2819 -91 2034 -91 
Q 1250 -91 836 529 
Q 422 1150 422 2328 
Q 422 3509 836 4129 
Q 1250 4750 2034 4750 
z
" transform="scale(0.015625)"/>
        <path id="DejaVuSans-2e" d="M 684 794 
L 1344 794 
L 1344 0 
L 684 0 
L 684 794 
z
" transform="scale(0.015625)"/>
        <path id="DejaVuSans-31" d="M 794 531 
L 1825 531 
L 1825 4091 
L 703 3866 
L 703 4441 
L 1819 4666 
L 2450 4666 
L 2450 531 
L 3481 531 
L 3481 0 
L 794 0 
L 794 531 
z
" transform="scale(0.015625)"/>
       </defs>
       <use xlink:href="#DejaVuSans-4d"/>
       <use xlink:href="#DejaVuSans-65" transform="translate(86.279297 0)"/>
       <use xlink:href="#DejaVuSans-63" transform="translate(147.802734 0)"/>
       <use xlink:href="#DejaVuSans-68" transform="translate(202.783203 0)"/>
       <use xlink:href="#DejaVuSans-69" transform="translate(266.162109 0)"/>
       <use xlink:href="#DejaVuSans-6e" transform="translate(293.945312 0)"/>
       <use xlink:href="#DejaVuSans-66" transform="translate(357.324219 0)"/>
       <use xlink:href="#DejaVuSans-65" transform="translate(392.529297 0)"/>
       <use xlink:href="#DejaVuSans-72" transform="translate(454.052734 0)"/>
       <use xlink:href="#DejaVuSans-72" transform="translate(493.416016 0)"/>
       <use xlink:href="#DejaVuSans-65" transform="translate(532.279297 0)"/>
       <use xlink:href="#DejaVuSans-64" transform="translate(593.802734 0)"/>
       <use xlink:href="#DejaVuSans-20" transform="translate(657.279297 0)"/>
       <use xlink:href="#DejaVuSans-3e" transform="translate(689.066406 0)"/>
       <use xlink:href="#DejaVuSans-30" transform="translate(772.855469 0)"/>
       <use xlink:href="#DejaVuSans-2e" transform="translate(836.478516 0)"/>
       <use xlink:href="#DejaVuSans-30" transform="translate(868.265625 0)"/>
       <use xlink:href="#DejaVuSans-31" transform="translate(931.888672 0)"/>
      </g>
     </g>
    </g>
    <g id="xtick_3">
     <g id="line2d_3">
      <g>
       <use xlink:href="#md2e9c1a8f8" x="167.148312" y="336.686955" style="stroke: #000000; stroke-width: 0.8"/>
      </g>
     </g>
     <g id="text_3">
      <!-- Mechinferred &gt;0.02 -->
      <g transform="translate(168.618873 349.059861) rotate(-315) scale(0.1 -0.1)">
       <defs>
        <path id="DejaVuSans-32" d="M 1228 531 
L 3431 531 
L 3431 0 
L 469 0 
L 469 531 
Q 828 903 1448 1529 
Q 2069 2156 2228 2338 
Q 2531 2678 2651 2914 
Q 2772 3150 2772 3378 
Q 2772 3750 2511 3984 
Q 2250 4219 1831 4219 
Q 1534 4219 1204 4116 
Q 875 4013 500 3803 
L 500 4441 
Q 881 4594 1212 4672 
Q 1544 4750 1819 4750 
Q 2544 4750 2975 4387 
Q 3406 4025 3406 3419 
Q 3406 3131 3298 2873 
Q 3191 2616 2906 2266 
Q 2828 2175 2409 1742 
Q 1991 1309 1228 531 
z
" transform="scale(0.015625)"/>
       </defs>
       <use xlink:href="#DejaVuSans-4d"/>
       <use xlink:href="#DejaVuSans-65" transform="translate(86.279297 0)"/>
       <use xlink:href="#DejaVuSans-63" transform="translate(147.802734 0)"/>
       <use xlink:href="#DejaVuSans-68" transform="translate(202.783203 0)"/>
       <use xlink:href="#DejaVuSans-69" transform="translate(266.162109 0)"/>
       <use xlink:href="#DejaVuSans-6e" transform="translate(293.945312 0)"/>
       <use xlink:href="#DejaVuSans-66" transform="translate(357.324219 0)"/>
       <use xlink:href="#DejaVuSans-65" transform="translate(392.529297 0)"/>
       <use xlink:href="#DejaVuSans-72" transform="translate(454.052734 0)"/>
       <use xlink:href="#DejaVuSans-72" transform="translate(493.416016 0)"/>
       <use xlink:href="#DejaVuSans-65" transform="translate(532.279297 0)"/>
       <use xlink:href="#DejaVuSans-64" transform="translate(593.802734 0)"/>
       <use xlink:href="#DejaVuSans-20" transform="translate(657.279297 0)"/>
       <use xlink:href="#DejaVuSans-3e" transform="translate(689.066406 0)"/>
       <use xlink:href="#DejaVuSans-30" transform="translate(772.855469 0)"/>
       <use xlink:href="#DejaVuSans-2e" transform="translate(836.478516 0)"/>
       <use xlink:href="#DejaVuSans-30" transform="translate(868.265625 0)"/>
       <use xlink:href="#DejaVuSans-32" transform="translate(931.888672 0)"/>
      </g>
     </g>
    </g>
    <g id="xtick_4">
     <g id="line2d_4">
      <g>
       <use xlink:href="#md2e9c1a8f8" x="208.472987" y="336.686955" style="stroke: #000000; stroke-width: 0.8"/>
      </g>
     </g>
     <g id="text_4">
      <!-- Mechinferred &gt;0.04 -->
      <g transform="translate(209.943548 349.059861) rotate(-315) scale(0.1 -0.1)">
       <defs>
        <path id="DejaVuSans-34" d="M 2419 4116 
L 825 1625 
L 2419 1625 
L 2419 4116 
z
M 2253 4666 
L 3047 4666 
L 3047 1625 
L 3713 1625 
L 3713 1100 
L 3047 1100 
L 3047 0 
L 2419 0 
L 2419 1100 
L 313 1100 
L 313 1709 
L 2253 4666 
z
" transform="scale(0.015625)"/>
       </defs>
       <use xlink:href="#DejaVuSans-4d"/>
       <use xlink:href="#DejaVuSans-65" transform="translate(86.279297 0)"/>
       <use xlink:href="#DejaVuSans-63" transform="translate(147.802734 0)"/>
       <use xlink:href="#DejaVuSans-68" transform="translate(202.783203 0)"/>
       <use xlink:href="#DejaVuSans-69" transform="translate(266.162109 0)"/>
       <use xlink:href="#DejaVuSans-6e" transform="translate(293.945312 0)"/>
       <use xlink:href="#DejaVuSans-66" transform="translate(357.324219 0)"/>
       <use xlink:href="#DejaVuSans-65" transform="translate(392.529297 0)"/>
       <use xlink:href="#DejaVuSans-72" transform="translate(454.052734 0)"/>
       <use xlink:href="#DejaVuSans-72" transform="translate(493.416016 0)"/>
       <use xlink:href="#DejaVuSans-65" transform="translate(532.279297 0)"/>
       <use xlink:href="#DejaVuSans-64" transform="translate(593.802734 0)"/>
       <use xlink:href="#DejaVuSans-20" transform="translate(657.279297 0)"/>
       <use xlink:href="#DejaVuSans-3e" transform="translate(689.066406 0)"/>
       <use xlink:href="#DejaVuSans-30" transform="translate(772.855469 0)"/>
       <use xlink:href="#DejaVuSans-2e" transform="translate(836.478516 0)"/>
       <use xlink:href="#DejaVuSans-30" transform="translate(868.265625 0)"/>
       <use xlink:href="#DejaVuSans-34" transform="translate(931.888672 0)"/>
      </g>
     </g>
    </g>
    <g id="xtick_5">
     <g id="line2d_5">
      <g>
       <use xlink:href="#md2e9c1a8f8" x="249.797662" y="336.686955" style="stroke: #000000; stroke-width: 0.8"/>
      </g>
     </g>
     <g id="text_5">
      <!-- Mechinferred &gt;0.13 -->
      <g transform="translate(251.268223 349.059861) rotate(-315) scale(0.1 -0.1)">
       <defs>
        <path id="DejaVuSans-33" d="M 2597 2516 
Q 3050 2419 3304 2112 
Q 3559 1806 3559 1356 
Q 3559 666 3084 287 
Q 2609 -91 1734 -91 
Q 1441 -91 1130 -33 
Q 819 25 488 141 
L 488 750 
Q 750 597 1062 519 
Q 1375 441 1716 441 
Q 2309 441 2620 675 
Q 2931 909 2931 1356 
Q 2931 1769 2642 2001 
Q 2353 2234 1838 2234 
L 1294 2234 
L 1294 2753 
L 1863 2753 
Q 2328 2753 2575 2939 
Q 2822 3125 2822 3475 
Q 2822 3834 2567 4026 
Q 2313 4219 1838 4219 
Q 1578 4219 1281 4162 
Q 984 4106 628 3988 
L 628 4550 
Q 988 4650 1302 4700 
Q 1616 4750 1894 4750 
Q 2613 4750 3031 4423 
Q 3450 4097 3450 3541 
Q 3450 3153 3228 2886 
Q 3006 2619 2597 2516 
z
" transform="scale(0.015625)"/>
       </defs>
       <use xlink:href="#DejaVuSans-4d"/>
       <use xlink:href="#DejaVuSans-65" transform="translate(86.279297 0)"/>
       <use xlink:href="#DejaVuSans-63" transform="translate(147.802734 0)"/>
       <use xlink:href="#DejaVuSans-68" transform="translate(202.783203 0)"/>
       <use xlink:href="#DejaVuSans-69" transform="translate(266.162109 0)"/>
       <use xlink:href="#DejaVuSans-6e" transform="translate(293.945312 0)"/>
       <use xlink:href="#DejaVuSans-66" transform="translate(357.324219 0)"/>
       <use xlink:href="#DejaVuSans-65" transform="translate(392.529297 0)"/>
       <use xlink:href="#DejaVuSans-72" transform="translate(454.052734 0)"/>
       <use xlink:href="#DejaVuSans-72" transform="translate(493.416016 0)"/>
       <use xlink:href="#DejaVuSans-65" transform="translate(532.279297 0)"/>
       <use xlink:href="#DejaVuSans-64" transform="translate(593.802734 0)"/>
       <use xlink:href="#DejaVuSans-20" transform="translate(657.279297 0)"/>
       <use xlink:href="#DejaVuSans-3e" transform="translate(689.066406 0)"/>
       <use xlink:href="#DejaVuSans-30" transform="translate(772.855469 0)"/>
       <use xlink:href="#DejaVuSans-2e" transform="translate(836.478516 0)"/>
       <use xlink:href="#DejaVuSans-31" transform="translate(868.265625 0)"/>
       <use xlink:href="#DejaVuSans-33" transform="translate(931.888672 0)"/>
      </g>
     </g>
    </g>
    <g id="xtick_6">
     <g id="line2d_6">
      <g>
       <use xlink:href="#md2e9c1a8f8" x="291.122338" y="336.686955" style="stroke: #000000; stroke-width: 0.8"/>
      </g>
     </g>
     <g id="text_6">
      <!-- Mechinferred &gt;0.91 -->
      <g transform="translate(292.592899 349.059861) rotate(-315) scale(0.1 -0.1)">
       <defs>
        <path id="DejaVuSans-39" d="M 703 97 
L 703 672 
Q 941 559 1184 500 
Q 1428 441 1663 441 
Q 2288 441 2617 861 
Q 2947 1281 2994 2138 
Q 2813 1869 2534 1725 
Q 2256 1581 1919 1581 
Q 1219 1581 811 2004 
Q 403 2428 403 3163 
Q 403 3881 828 4315 
Q 1253 4750 1959 4750 
Q 2769 4750 3195 4129 
Q 3622 3509 3622 2328 
Q 3622 1225 3098 567 
Q 2575 -91 1691 -91 
Q 1453 -91 1209 -44 
Q 966 3 703 97 
z
M 1959 2075 
Q 2384 2075 2632 2365 
Q 2881 2656 2881 3163 
Q 2881 3666 2632 3958 
Q 2384 4250 1959 4250 
Q 1534 4250 1286 3958 
Q 1038 3666 1038 3163 
Q 1038 2656 1286 2365 
Q 1534 2075 1959 2075 
z
" transform="scale(0.015625)"/>
       </defs>
       <use xlink:href="#DejaVuSans-4d"/>
       <use xlink:href="#DejaVuSans-65" transform="translate(86.279297 0)"/>
       <use xlink:href="#DejaVuSans-63" transform="translate(147.802734 0)"/>
       <use xlink:href="#DejaVuSans-68" transform="translate(202.783203 0)"/>
       <use xlink:href="#DejaVuSans-69" transform="translate(266.162109 0)"/>
       <use xlink:href="#DejaVuSans-6e" transform="translate(293.945312 0)"/>
       <use xlink:href="#DejaVuSans-66" transform="translate(357.324219 0)"/>
       <use xlink:href="#DejaVuSans-65" transform="translate(392.529297 0)"/>
       <use xlink:href="#DejaVuSans-72" transform="translate(454.052734 0)"/>
       <use xlink:href="#DejaVuSans-72" transform="translate(493.416016 0)"/>
       <use xlink:href="#DejaVuSans-65" transform="translate(532.279297 0)"/>
       <use xlink:href="#DejaVuSans-64" transform="translate(593.802734 0)"/>
       <use xlink:href="#DejaVuSans-20" transform="translate(657.279297 0)"/>
       <use xlink:href="#DejaVuSans-3e" transform="translate(689.066406 0)"/>
       <use xlink:href="#DejaVuSans-30" transform="translate(772.855469 0)"/>
       <use xlink:href="#DejaVuSans-2e" transform="translate(836.478516 0)"/>
       <use xlink:href="#DejaVuSans-39" transform="translate(868.265625 0)"/>
       <use xlink:href="#DejaVuSans-31" transform="translate(931.888672 0)"/>
      </g>
     </g>
    </g>
    <g id="xtick_7">
     <g id="line2d_7">
      <g>
       <use xlink:href="#md2e9c1a8f8" x="332.447013" y="336.686955" style="stroke: #000000; stroke-width: 0.8"/>
      </g>
     </g>
     <g id="text_7">
      <!-- RC + 1 -->
      <g transform="translate(333.917574 349.059861) rotate(-315) scale(0.1 -0.1)">
       <defs>
        <path id="DejaVuSans-52" d="M 2841 2188 
Q 3044 2119 3236 1894 
Q 3428 1669 3622 1275 
L 4263 0 
L 3584 0 
L 2988 1197 
Q 2756 1666 2539 1819 
Q 2322 1972 1947 1972 
L 1259 1972 
L 1259 0 
L 628 0 
L 628 4666 
L 2053 4666 
Q 2853 4666 3247 4331 
Q 3641 3997 3641 3322 
Q 3641 2881 3436 2590 
Q 3231 2300 2841 2188 
z
M 1259 4147 
L 1259 2491 
L 2053 2491 
Q 2509 2491 2742 2702 
Q 2975 2913 2975 3322 
Q 2975 3731 2742 3939 
Q 2509 4147 2053 4147 
L 1259 4147 
z
" transform="scale(0.015625)"/>
        <path id="DejaVuSans-43" d="M 4122 4306 
L 4122 3641 
Q 3803 3938 3442 4084 
Q 3081 4231 2675 4231 
Q 1875 4231 1450 3742 
Q 1025 3253 1025 2328 
Q 1025 1406 1450 917 
Q 1875 428 2675 428 
Q 3081 428 3442 575 
Q 3803 722 4122 1019 
L 4122 359 
Q 3791 134 3420 21 
Q 3050 -91 2638 -91 
Q 1578 -91 968 557 
Q 359 1206 359 2328 
Q 359 3453 968 4101 
Q 1578 4750 2638 4750 
Q 3056 4750 3426 4639 
Q 3797 4528 4122 4306 
z
" transform="scale(0.015625)"/>
        <path id="DejaVuSans-2b" d="M 2944 4013 
L 2944 2272 
L 4684 2272 
L 4684 1741 
L 2944 1741 
L 2944 0 
L 2419 0 
L 2419 1741 
L 678 1741 
L 678 2272 
L 2419 2272 
L 2419 4013 
L 2944 4013 
z
" transform="scale(0.015625)"/>
       </defs>
       <use xlink:href="#DejaVuSans-52"/>
       <use xlink:href="#DejaVuSans-43" transform="translate(64.482422 0)"/>
       <use xlink:href="#DejaVuSans-20" transform="translate(134.306641 0)"/>
       <use xlink:href="#DejaVuSans-2b" transform="translate(166.09375 0)"/>
       <use xlink:href="#DejaVuSans-20" transform="translate(249.882812 0)"/>
       <use xlink:href="#DejaVuSans-31" transform="translate(281.669922 0)"/>
      </g>
     </g>
    </g>
    <g id="xtick_8">
     <g id="line2d_8">
      <g>
       <use xlink:href="#md2e9c1a8f8" x="373.771688" y="336.686955" style="stroke: #000000; stroke-width: 0.8"/>
      </g>
     </g>
     <g id="text_8">
      <!-- RC + 2 -->
      <g transform="translate(375.242249 349.059861) rotate(-315) scale(0.1 -0.1)">
       <use xlink:href="#DejaVuSans-52"/>
       <use xlink:href="#DejaVuSans-43" transform="translate(64.482422 0)"/>
       <use xlink:href="#DejaVuSans-20" transform="translate(134.306641 0)"/>
       <use xlink:href="#DejaVuSans-2b" transform="translate(166.09375 0)"/>
       <use xlink:href="#DejaVuSans-20" transform="translate(249.882812 0)"/>
       <use xlink:href="#DejaVuSans-32" transform="translate(281.669922 0)"/>
      </g>
     </g>
    </g>
    <g id="xtick_9">
     <g id="line2d_9">
      <g>
       <use xlink:href="#md2e9c1a8f8" x="415.096364" y="336.686955" style="stroke: #000000; stroke-width: 0.8"/>
      </g>
     </g>
     <g id="text_9">
      <!-- RC + 3 -->
      <g transform="translate(416.566925 349.059861) rotate(-315) scale(0.1 -0.1)">
       <use xlink:href="#DejaVuSans-52"/>
       <use xlink:href="#DejaVuSans-43" transform="translate(64.482422 0)"/>
       <use xlink:href="#DejaVuSans-20" transform="translate(134.306641 0)"/>
       <use xlink:href="#DejaVuSans-2b" transform="translate(166.09375 0)"/>
       <use xlink:href="#DejaVuSans-20" transform="translate(249.882812 0)"/>
       <use xlink:href="#DejaVuSans-33" transform="translate(281.669922 0)"/>
      </g>
     </g>
    </g>
    <g id="xtick_10">
     <g id="line2d_10">
      <g>
       <use xlink:href="#md2e9c1a8f8" x="456.421039" y="336.686955" style="stroke: #000000; stroke-width: 0.8"/>
      </g>
     </g>
     <g id="text_10">
      <!-- RC + 4 -->
      <g transform="translate(457.8916 349.059861) rotate(-315) scale(0.1 -0.1)">
       <use xlink:href="#DejaVuSans-52"/>
       <use xlink:href="#DejaVuSans-43" transform="translate(64.482422 0)"/>
       <use xlink:href="#DejaVuSans-20" transform="translate(134.306641 0)"/>
       <use xlink:href="#DejaVuSans-2b" transform="translate(166.09375 0)"/>
       <use xlink:href="#DejaVuSans-20" transform="translate(249.882812 0)"/>
       <use xlink:href="#DejaVuSans-34" transform="translate(281.669922 0)"/>
      </g>
     </g>
    </g>
   </g>
   <g id="matplotlib.axis_2">
    <g id="ytick_1">
     <g id="line2d_11">
      <defs>
       <path id="m439d1e0cb4" d="M 0 0 
L -3.5 0 
" style="stroke: #000000; stroke-width: 0.8"/>
      </defs>
      <g>
       <use xlink:href="#m439d1e0cb4" x="47.72" y="321.873911" style="stroke: #000000; stroke-width: 0.8"/>
      </g>
     </g>
     <g id="text_11">
      <!-- 0.0 -->
      <g transform="translate(24.816875 325.67313) scale(0.1 -0.1)">
       <use xlink:href="#DejaVuSans-30"/>
       <use xlink:href="#DejaVuSans-2e" transform="translate(63.623047 0)"/>
       <use xlink:href="#DejaVuSans-30" transform="translate(95.410156 0)"/>
      </g>
     </g>
    </g>
    <g id="ytick_2">
     <g id="line2d_12">
      <g>
       <use xlink:href="#m439d1e0cb4" x="47.72" y="262.621738" style="stroke: #000000; stroke-width: 0.8"/>
      </g>
     </g>
     <g id="text_12">
      <!-- 0.2 -->
      <g transform="translate(24.816875 266.420956) scale(0.1 -0.1)">
       <use xlink:href="#DejaVuSans-30"/>
       <use xlink:href="#DejaVuSans-2e" transform="translate(63.623047 0)"/>
       <use xlink:href="#DejaVuSans-32" transform="translate(95.410156 0)"/>
      </g>
     </g>
    </g>
    <g id="ytick_3">
     <g id="line2d_13">
      <g>
       <use xlink:href="#m439d1e0cb4" x="47.72" y="203.369564" style="stroke: #000000; stroke-width: 0.8"/>
      </g>
     </g>
     <g id="text_13">
      <!-- 0.4 -->
      <g transform="translate(24.816875 207.168783) scale(0.1 -0.1)">
       <use xlink:href="#DejaVuSans-30"/>
       <use xlink:href="#DejaVuSans-2e" transform="translate(63.623047 0)"/>
       <use xlink:href="#DejaVuSans-34" transform="translate(95.410156 0)"/>
      </g>
     </g>
    </g>
    <g id="ytick_4">
     <g id="line2d_14">
      <g>
       <use xlink:href="#m439d1e0cb4" x="47.72" y="144.117391" style="stroke: #000000; stroke-width: 0.8"/>
      </g>
     </g>
     <g id="text_14">
      <!-- 0.6 -->
      <g transform="translate(24.816875 147.916609) scale(0.1 -0.1)">
       <defs>
        <path id="DejaVuSans-36" d="M 2113 2584 
Q 1688 2584 1439 2293 
Q 1191 2003 1191 1497 
Q 1191 994 1439 701 
Q 1688 409 2113 409 
Q 2538 409 2786 701 
Q 3034 994 3034 1497 
Q 3034 2003 2786 2293 
Q 2538 2584 2113 2584 
z
M 3366 4563 
L 3366 3988 
Q 3128 4100 2886 4159 
Q 2644 4219 2406 4219 
Q 1781 4219 1451 3797 
Q 1122 3375 1075 2522 
Q 1259 2794 1537 2939 
Q 1816 3084 2150 3084 
Q 2853 3084 3261 2657 
Q 3669 2231 3669 1497 
Q 3669 778 3244 343 
Q 2819 -91 2113 -91 
Q 1303 -91 875 529 
Q 447 1150 447 2328 
Q 447 3434 972 4092 
Q 1497 4750 2381 4750 
Q 2619 4750 2861 4703 
Q 3103 4656 3366 4563 
z
" transform="scale(0.015625)"/>
       </defs>
       <use xlink:href="#DejaVuSans-30"/>
       <use xlink:href="#DejaVuSans-2e" transform="translate(63.623047 0)"/>
       <use xlink:href="#DejaVuSans-36" transform="translate(95.410156 0)"/>
      </g>
     </g>
    </g>
    <g id="ytick_5">
     <g id="line2d_15">
      <g>
       <use xlink:href="#m439d1e0cb4" x="47.72" y="84.865217" style="stroke: #000000; stroke-width: 0.8"/>
      </g>
     </g>
     <g id="text_15">
      <!-- 0.8 -->
      <g transform="translate(24.816875 88.664436) scale(0.1 -0.1)">
       <defs>
        <path id="DejaVuSans-38" d="M 2034 2216 
Q 1584 2216 1326 1975 
Q 1069 1734 1069 1313 
Q 1069 891 1326 650 
Q 1584 409 2034 409 
Q 2484 409 2743 651 
Q 3003 894 3003 1313 
Q 3003 1734 2745 1975 
Q 2488 2216 2034 2216 
z
M 1403 2484 
Q 997 2584 770 2862 
Q 544 3141 544 3541 
Q 544 4100 942 4425 
Q 1341 4750 2034 4750 
Q 2731 4750 3128 4425 
Q 3525 4100 3525 3541 
Q 3525 3141 3298 2862 
Q 3072 2584 2669 2484 
Q 3125 2378 3379 2068 
Q 3634 1759 3634 1313 
Q 3634 634 3220 271 
Q 2806 -91 2034 -91 
Q 1263 -91 848 271 
Q 434 634 434 1313 
Q 434 1759 690 2068 
Q 947 2378 1403 2484 
z
M 1172 3481 
Q 1172 3119 1398 2916 
Q 1625 2713 2034 2713 
Q 2441 2713 2670 2916 
Q 2900 3119 2900 3481 
Q 2900 3844 2670 4047 
Q 2441 4250 2034 4250 
Q 1625 4250 1398 4047 
Q 1172 3844 1172 3481 
z
" transform="scale(0.015625)"/>
       </defs>
       <use xlink:href="#DejaVuSans-30"/>
       <use xlink:href="#DejaVuSans-2e" transform="translate(63.623047 0)"/>
       <use xlink:href="#DejaVuSans-38" transform="translate(95.410156 0)"/>
      </g>
     </g>
    </g>
    <g id="ytick_6">
     <g id="line2d_16">
      <g>
       <use xlink:href="#m439d1e0cb4" x="47.72" y="25.613043" style="stroke: #000000; stroke-width: 0.8"/>
      </g>
     </g>
     <g id="text_16">
      <!-- 1.0 -->
      <g transform="translate(24.816875 29.412262) scale(0.1 -0.1)">
       <use xlink:href="#DejaVuSans-31"/>
       <use xlink:href="#DejaVuSans-2e" transform="translate(63.623047 0)"/>
       <use xlink:href="#DejaVuSans-30" transform="translate(95.410156 0)"/>
      </g>
     </g>
    </g>
    <g id="text_17">
     <!-- Maximum similarity to known reaction -->
     <g transform="translate(18.737188 269.616915) rotate(-90) scale(0.1 -0.1)">
      <defs>
       <path id="DejaVuSans-61" d="M 2194 1759 
Q 1497 1759 1228 1600 
Q 959 1441 959 1056 
Q 959 750 1161 570 
Q 1363 391 1709 391 
Q 2188 391 2477 730 
Q 2766 1069 2766 1631 
L 2766 1759 
L 2194 1759 
z
M 3341 1997 
L 3341 0 
L 2766 0 
L 2766 531 
Q 2569 213 2275 61 
Q 1981 -91 1556 -91 
Q 1019 -91 701 211 
Q 384 513 384 1019 
Q 384 1609 779 1909 
Q 1175 2209 1959 2209 
L 2766 2209 
L 2766 2266 
Q 2766 2663 2505 2880 
Q 2244 3097 1772 3097 
Q 1472 3097 1187 3025 
Q 903 2953 641 2809 
L 641 3341 
Q 956 3463 1253 3523 
Q 1550 3584 1831 3584 
Q 2591 3584 2966 3190 
Q 3341 2797 3341 1997 
z
" transform="scale(0.015625)"/>
       <path id="DejaVuSans-78" d="M 3513 3500 
L 2247 1797 
L 3578 0 
L 2900 0 
L 1881 1375 
L 863 0 
L 184 0 
L 1544 1831 
L 300 3500 
L 978 3500 
L 1906 2253 
L 2834 3500 
L 3513 3500 
z
" transform="scale(0.015625)"/>
       <path id="DejaVuSans-75" d="M 544 1381 
L 544 3500 
L 1119 3500 
L 1119 1403 
Q 1119 906 1312 657 
Q 1506 409 1894 409 
Q 2359 409 2629 706 
Q 2900 1003 2900 1516 
L 2900 3500 
L 3475 3500 
L 3475 0 
L 2900 0 
L 2900 538 
Q 2691 219 2414 64 
Q 2138 -91 1772 -91 
Q 1169 -91 856 284 
Q 544 659 544 1381 
z
M 1991 3584 
L 1991 3584 
z
" transform="scale(0.015625)"/>
       <path id="DejaVuSans-73" d="M 2834 3397 
L 2834 2853 
Q 2591 2978 2328 3040 
Q 2066 3103 1784 3103 
Q 1356 3103 1142 2972 
Q 928 2841 928 2578 
Q 928 2378 1081 2264 
Q 1234 2150 1697 2047 
L 1894 2003 
Q 2506 1872 2764 1633 
Q 3022 1394 3022 966 
Q 3022 478 2636 193 
Q 2250 -91 1575 -91 
Q 1294 -91 989 -36 
Q 684 19 347 128 
L 347 722 
Q 666 556 975 473 
Q 1284 391 1588 391 
Q 1994 391 2212 530 
Q 2431 669 2431 922 
Q 2431 1156 2273 1281 
Q 2116 1406 1581 1522 
L 1381 1569 
Q 847 1681 609 1914 
Q 372 2147 372 2553 
Q 372 3047 722 3315 
Q 1072 3584 1716 3584 
Q 2034 3584 2315 3537 
Q 2597 3491 2834 3397 
z
" transform="scale(0.015625)"/>
       <path id="DejaVuSans-6c" d="M 603 4863 
L 1178 4863 
L 1178 0 
L 603 0 
L 603 4863 
z
" transform="scale(0.015625)"/>
       <path id="DejaVuSans-74" d="M 1172 4494 
L 1172 3500 
L 2356 3500 
L 2356 3053 
L 1172 3053 
L 1172 1153 
Q 1172 725 1289 603 
Q 1406 481 1766 481 
L 2356 481 
L 2356 0 
L 1766 0 
Q 1100 0 847 248 
Q 594 497 594 1153 
L 594 3053 
L 172 3053 
L 172 3500 
L 594 3500 
L 594 4494 
L 1172 4494 
z
" transform="scale(0.015625)"/>
       <path id="DejaVuSans-79" d="M 2059 -325 
Q 1816 -950 1584 -1140 
Q 1353 -1331 966 -1331 
L 506 -1331 
L 506 -850 
L 844 -850 
Q 1081 -850 1212 -737 
Q 1344 -625 1503 -206 
L 1606 56 
L 191 3500 
L 800 3500 
L 1894 763 
L 2988 3500 
L 3597 3500 
L 2059 -325 
z
" transform="scale(0.015625)"/>
       <path id="DejaVuSans-6b" d="M 581 4863 
L 1159 4863 
L 1159 1991 
L 2875 3500 
L 3609 3500 
L 1753 1863 
L 3688 0 
L 2938 0 
L 1159 1709 
L 1159 0 
L 581 0 
L 581 4863 
z
" transform="scale(0.015625)"/>
       <path id="DejaVuSans-77" d="M 269 3500 
L 844 3500 
L 1563 769 
L 2278 3500 
L 2956 3500 
L 3675 769 
L 4391 3500 
L 4966 3500 
L 4050 0 
L 3372 0 
L 2619 2869 
L 1863 0 
L 1184 0 
L 269 3500 
z
" transform="scale(0.015625)"/>
      </defs>
      <use xlink:href="#DejaVuSans-4d"/>
      <use xlink:href="#DejaVuSans-61" transform="translate(86.279297 0)"/>
      <use xlink:href="#DejaVuSans-78" transform="translate(147.558594 0)"/>
      <use xlink:href="#DejaVuSans-69" transform="translate(206.738281 0)"/>
      <use xlink:href="#DejaVuSans-6d" transform="translate(234.521484 0)"/>
      <use xlink:href="#DejaVuSans-75" transform="translate(331.933594 0)"/>
      <use xlink:href="#DejaVuSans-6d" transform="translate(395.3125 0)"/>
      <use xlink:href="#DejaVuSans-20" transform="translate(492.724609 0)"/>
      <use xlink:href="#DejaVuSans-73" transform="translate(524.511719 0)"/>
      <use xlink:href="#DejaVuSans-69" transform="translate(576.611328 0)"/>
      <use xlink:href="#DejaVuSans-6d" transform="translate(604.394531 0)"/>
      <use xlink:href="#DejaVuSans-69" transform="translate(701.806641 0)"/>
      <use xlink:href="#DejaVuSans-6c" transform="translate(729.589844 0)"/>
      <use xlink:href="#DejaVuSans-61" transform="translate(757.373047 0)"/>
      <use xlink:href="#DejaVuSans-72" transform="translate(818.652344 0)"/>
      <use xlink:href="#DejaVuSans-69" transform="translate(859.765625 0)"/>
      <use xlink:href="#DejaVuSans-74" transform="translate(887.548828 0)"/>
      <use xlink:href="#DejaVuSans-79" transform="translate(926.757812 0)"/>
      <use xlink:href="#DejaVuSans-20" transform="translate(985.9375 0)"/>
      <use xlink:href="#DejaVuSans-74" transform="translate(1017.724609 0)"/>
      <use xlink:href="#DejaVuSans-6f" transform="translate(1056.933594 0)"/>
      <use xlink:href="#DejaVuSans-20" transform="translate(1118.115234 0)"/>
      <use xlink:href="#DejaVuSans-6b" transform="translate(1149.902344 0)"/>
      <use xlink:href="#DejaVuSans-6e" transform="translate(1207.8125 0)"/>
      <use xlink:href="#DejaVuSans-6f" transform="translate(1271.191406 0)"/>
      <use xlink:href="#DejaVuSans-77" transform="translate(1332.373047 0)"/>
      <use xlink:href="#DejaVuSans-6e" transform="translate(1414.160156 0)"/>
      <use xlink:href="#DejaVuSans-20" transform="translate(1477.539062 0)"/>
      <use xlink:href="#DejaVuSans-72" transform="translate(1509.326172 0)"/>
      <use xlink:href="#DejaVuSans-65" transform="translate(1548.189453 0)"/>
      <use xlink:href="#DejaVuSans-61" transform="translate(1609.712891 0)"/>
      <use xlink:href="#DejaVuSans-63" transform="translate(1670.992188 0)"/>
      <use xlink:href="#DejaVuSans-74" transform="translate(1725.972656 0)"/>
      <use xlink:href="#DejaVuSans-69" transform="translate(1765.181641 0)"/>
      <use xlink:href="#DejaVuSans-6f" transform="translate(1792.964844 0)"/>
      <use xlink:href="#DejaVuSans-6e" transform="translate(1854.146484 0)"/>
     </g>
    </g>
   </g>
   <g id="LineCollection_1">
    <path d="M 76.234026 79.977926 
L 92.763896 79.977926 
" clip-path="url(#p34b2cf4f62)" style="fill: none; stroke: #ff0000; stroke-width: 1.5"/>
    <path d="M 117.558701 78.065675 
L 134.088571 78.065675 
" clip-path="url(#p34b2cf4f62)" style="fill: none; stroke: #ff0000; stroke-width: 1.5"/>
    <path d="M 158.883377 78.065675 
L 175.413247 78.065675 
" clip-path="url(#p34b2cf4f62)" style="fill: none; stroke: #ff0000; stroke-width: 1.5"/>
    <path d="M 200.208052 80.813493 
L 216.737922 80.813493 
" clip-path="url(#p34b2cf4f62)" style="fill: none; stroke: #ff0000; stroke-width: 1.5"/>
    <path d="M 241.532727 90.577109 
L 258.062597 90.577109 
" clip-path="url(#p34b2cf4f62)" style="fill: none; stroke: #ff0000; stroke-width: 1.5"/>
    <path d="M 282.857403 117.217808 
L 299.387273 117.217808 
" clip-path="url(#p34b2cf4f62)" style="fill: none; stroke: #ff0000; stroke-width: 1.5"/>
    <path d="M 324.182078 72.044812 
L 340.711948 72.044812 
" clip-path="url(#p34b2cf4f62)" style="fill: none; stroke: #ff0000; stroke-width: 1.5"/>
    <path d="M 365.506753 59.79699 
L 382.036623 59.79699 
" clip-path="url(#p34b2cf4f62)" style="fill: none; stroke: #ff0000; stroke-width: 1.5"/>
    <path d="M 406.831429 72.044812 
L 423.361299 72.044812 
" clip-path="url(#p34b2cf4f62)" style="fill: none; stroke: #ff0000; stroke-width: 1.5"/>
    <path d="M 448.156104 72.044812 
L 464.685974 72.044812 
" clip-path="url(#p34b2cf4f62)" style="fill: none; stroke: #ff0000; stroke-width: 1.5"/>
   </g>
   <g id="patch_3">
    <path d="M 47.72 336.686955 
L 47.72 10.8 
" style="fill: none; stroke: #000000; stroke-width: 0.8; stroke-linejoin: miter; stroke-linecap: square"/>
   </g>
   <g id="patch_4">
    <path d="M 493.2 336.686955 
L 493.2 10.8 
" style="fill: none; stroke: #000000; stroke-width: 0.8; stroke-linejoin: miter; stroke-linecap: square"/>
   </g>
   <g id="patch_5">
    <path d="M 47.72 336.686955 
L 493.2 336.686955 
" style="fill: none; stroke: #000000; stroke-width: 0.8; stroke-linejoin: miter; stroke-linecap: square"/>
   </g>
   <g id="patch_6">
    <path d="M 47.72 10.8 
L 493.2 10.8 
" style="fill: none; stroke: #000000; stroke-width: 0.8; stroke-linejoin: miter; stroke-linecap: square"/>
   </g>
  </g>
 </g>
 <defs>
  <clipPath id="p34b2cf4f62">
   <rect x="47.72" y="10.8" width="445.48" height="325.886955"/>
  </clipPath>
 </defs>
</svg>
