<?xml version="1.0" encoding="utf-8" standalone="no"?>
<!DOCTYPE svg PUBLIC "-//W3C//DTD SVG 1.1//EN"
  "http://www.w3.org/Graphics/SVG/1.1/DTD/svg11.dtd">
<svg xmlns:xlink="http://www.w3.org/1999/xlink" width="504pt" height="432pt" viewBox="0 0 504 432" xmlns="http://www.w3.org/2000/svg" version="1.1">
 <metadata>
  <rdf:RDF xmlns:dc="http://purl.org/dc/elements/1.1/" xmlns:cc="http://creativecommons.org/ns#" xmlns:rdf="http://www.w3.org/1999/02/22-rdf-syntax-ns#">
   <cc:Work>
    <dc:type rdf:resource="http://purl.org/dc/dcmitype/StillImage"/>
    <dc:date>2025-08-08T14:10:53.606487</dc:date>
    <dc:format>image/svg+xml</dc:format>
    <dc:creator>
     <cc:Agent>
      <dc:title>Matplotlib v3.10.1, https://matplotlib.org/</dc:title>
     </cc:Agent>
    </dc:creator>
   </cc:Work>
  </rdf:RDF>
 </metadata>
 <defs>
  <style type="text/css">*{stroke-linejoin: round; stroke-linecap: butt}</style>
 </defs>
 <g id="figure_1">
  <g id="patch_1">
   <path d="M 0 432 
L 504 432 
L 504 0 
L 0 0 
z
" style="fill: #ffffff"/>
  </g>
  <g id="axes_1">
   <g id="patch_2">
    <path d="M 47.72 336.686955 
L 492.668093 336.686955 
L 492.668093 10.8 
L 47.72 10.8 
z
" style="fill: #ffffff"/>
   </g>
   <g id="FillBetweenPolyCollection_1">
    <path d="M 82.93426 290.514336 
L 82.918401 290.514336 
L 82.917732 287.838565 
L 82.918411 285.162794 
L 82.918904 282.487024 
L 82.915757 279.811253 
L 82.903646 277.135482 
L 82.877504 274.459712 
L 82.838101 271.783941 
L 82.796311 269.108171 
L 82.766458 266.4324 
L 82.749647 263.756629 
L 82.726806 261.080859 
L 82.67699 258.405088 
L 82.603878 255.729317 
L 82.535482 253.053547 
L 82.492948 250.377776 
L 82.468506 247.702005 
L 82.443139 245.026235 
L 82.417051 242.350464 
L 82.405939 239.674694 
L 82.407881 236.998923 
L 82.391364 234.323152 
L 82.324009 231.647382 
L 82.203791 228.971611 
L 82.056861 226.29584 
L 81.915328 223.62007 
L 81.805852 220.944299 
L 81.749765 218.268529 
L 81.754738 215.592758 
L 81.799145 212.916987 
L 81.834661 210.241217 
L 81.816305 207.565446 
L 81.733742 204.889675 
L 81.613593 202.213905 
L 81.49353 199.538134 
L 81.395188 196.862364 
L 81.315748 194.186593 
L 81.231268 191.510822 
L 81.100912 188.835052 
L 80.887594 186.159281 
L 80.607198 183.48351 
L 80.356971 180.80774 
L 80.254027 178.131969 
L 80.31977 175.456199 
L 80.445213 172.780428 
L 80.491365 170.104657 
L 80.411059 167.428887 
L 80.262081 164.753116 
L 80.125673 162.077345 
L 80.040434 159.401575 
L 80.005557 156.725804 
L 80.009937 154.050034 
L 80.033646 151.374263 
L 80.03087 148.698492 
L 79.936895 146.022722 
L 79.700911 143.346951 
L 79.303689 140.67118 
L 78.760444 137.99541 
L 78.154074 135.319639 
L 77.662881 132.643868 
L 77.481629 129.968098 
L 77.675858 127.292327 
L 78.135264 124.616557 
L 78.662428 121.940786 
L 79.083215 119.265015 
L 79.303069 116.589245 
L 79.309106 113.913474 
L 79.143081 111.237703 
L 78.877568 108.561933 
L 78.591314 105.886162 
L 78.321271 103.210392 
L 78.033421 100.534621 
L 77.661406 97.85885 
L 77.148194 95.18308 
L 76.402962 92.507309 
L 75.250007 89.831538 
L 73.545109 87.155768 
L 71.433777 84.479997 
L 69.440443 81.804227 
L 68.17986 79.128456 
L 67.944913 76.452685 
L 68.582601 73.776915 
L 69.678441 71.101144 
L 70.778062 68.425373 
L 71.540968 65.749603 
L 71.873156 63.073832 
L 71.973465 60.398062 
L 72.191724 57.722291 
L 72.782273 55.04652 
L 73.765572 52.37075 
L 74.986195 49.694979 
L 76.254198 47.019208 
L 77.436648 44.343438 
L 78.471063 41.667667 
L 79.315928 38.991897 
L 79.879155 36.316126 
L 80.032278 33.640355 
L 79.773642 30.964585 
L 79.387422 28.288814 
L 79.330927 25.613043 
L 86.521734 25.613043 
L 86.521734 25.613043 
L 86.465239 28.288814 
L 86.079019 30.964585 
L 85.820384 33.640355 
L 85.973506 36.316126 
L 86.536733 38.991897 
L 87.381598 41.667667 
L 88.416013 44.343438 
L 89.598463 47.019208 
L 90.866466 49.694979 
L 92.08709 52.37075 
L 93.070389 55.04652 
L 93.660937 57.722291 
L 93.879197 60.398062 
L 93.979505 63.073832 
L 94.311693 65.749603 
L 95.0746 68.425373 
L 96.17422 71.101144 
L 97.27006 73.776915 
L 97.907748 76.452685 
L 97.672801 79.128456 
L 96.412218 81.804227 
L 94.418885 84.479997 
L 92.307552 87.155768 
L 90.602654 89.831538 
L 89.449699 92.507309 
L 88.704468 95.18308 
L 88.191256 97.85885 
L 87.81924 100.534621 
L 87.53139 103.210392 
L 87.261348 105.886162 
L 86.975093 108.561933 
L 86.709581 111.237703 
L 86.543555 113.913474 
L 86.549593 116.589245 
L 86.769447 119.265015 
L 87.190233 121.940786 
L 87.717398 124.616557 
L 88.176803 127.292327 
L 88.371032 129.968098 
L 88.18978 132.643868 
L 87.698588 135.319639 
L 87.092217 137.99541 
L 86.548972 140.67118 
L 86.151751 143.346951 
L 85.915766 146.022722 
L 85.821791 148.698492 
L 85.819015 151.374263 
L 85.842724 154.050034 
L 85.847105 156.725804 
L 85.812227 159.401575 
L 85.726988 162.077345 
L 85.590581 164.753116 
L 85.441602 167.428887 
L 85.361296 170.104657 
L 85.407448 172.780428 
L 85.532891 175.456199 
L 85.598634 178.131969 
L 85.495691 180.80774 
L 85.245463 183.48351 
L 84.965067 186.159281 
L 84.751749 188.835052 
L 84.621393 191.510822 
L 84.536913 194.186593 
L 84.457473 196.862364 
L 84.359132 199.538134 
L 84.239068 202.213905 
L 84.11892 204.889675 
L 84.036357 207.565446 
L 84.018 210.241217 
L 84.053516 212.916987 
L 84.097923 215.592758 
L 84.102896 218.268529 
L 84.046809 220.944299 
L 83.937333 223.62007 
L 83.7958 226.29584 
L 83.64887 228.971611 
L 83.528652 231.647382 
L 83.461297 234.323152 
L 83.44478 236.998923 
L 83.446722 239.674694 
L 83.43561 242.350464 
L 83.409522 245.026235 
L 83.384155 247.702005 
L 83.359713 250.377776 
L 83.317179 253.053547 
L 83.248783 255.729317 
L 83.175671 258.405088 
L 83.125855 261.080859 
L 83.103015 263.756629 
L 83.086204 266.4324 
L 83.05635 269.108171 
L 83.01456 271.783941 
L 82.975157 274.459712 
L 82.949015 277.135482 
L 82.936904 279.811253 
L 82.933757 282.487024 
L 82.934251 285.162794 
L 82.934929 287.838565 
L 82.93426 290.514336 
z
" clip-path="url(#pce67350f1d)" style="fill: #008000"/>
   </g>
   <g id="FillBetweenPolyCollection_2">
    <path d="M 120.389731 307.417861 
L 120.370016 307.417861 
L 120.355831 304.571348 
L 120.329644 301.724835 
L 120.287682 298.878321 
L 120.225652 296.031808 
L 120.136262 293.185295 
L 120.007509 290.338781 
L 119.829856 287.492268 
L 119.61868 284.645755 
L 119.42388 281.799241 
L 119.283585 278.952728 
L 119.160237 276.106215 
L 118.964734 273.259701 
L 118.667322 270.413188 
L 118.34461 267.566675 
L 118.079868 264.720161 
L 117.845239 261.873648 
L 117.526328 259.027135 
L 117.056508 256.180622 
L 116.483905 253.334108 
L 115.878292 250.487595 
L 115.210041 247.641082 
L 114.398747 244.794568 
L 113.492163 241.948055 
L 112.732025 239.101542 
L 112.393518 236.255028 
L 112.548666 233.408515 
L 112.987727 230.562002 
L 113.371168 227.715488 
L 113.451812 224.868975 
L 113.177904 222.022462 
L 112.662778 219.175949 
L 112.106796 216.329435 
L 111.712424 213.482922 
L 111.59524 210.636409 
L 111.71774 207.789895 
L 111.904007 204.943382 
L 111.961306 202.096869 
L 111.84129 199.250355 
L 111.701903 196.403842 
L 111.770322 193.557329 
L 112.111342 190.710815 
L 112.573392 187.864302 
L 112.978773 185.017789 
L 113.282079 182.171275 
L 113.509155 179.324762 
L 113.636182 176.478249 
L 113.589975 173.631736 
L 113.339551 170.785222 
L 112.984425 167.938709 
L 112.745583 165.092196 
L 112.797781 162.245682 
L 113.095971 159.399169 
L 113.437734 156.552656 
L 113.699034 153.706142 
L 113.928721 150.859629 
L 114.191293 148.013116 
L 114.400993 145.166602 
L 114.378342 142.320089 
L 114.021296 139.473576 
L 113.373367 136.627062 
L 112.591274 133.780549 
L 111.881641 130.934036 
L 111.378155 128.087523 
L 111.013209 125.241009 
L 110.559302 122.394496 
L 109.880744 119.547983 
L 109.129177 116.701469 
L 108.589535 113.854956 
L 108.363879 111.008443 
L 108.329267 108.161929 
L 108.323079 105.315416 
L 108.204944 102.468903 
L 107.825613 99.622389 
L 107.140097 96.775876 
L 106.360822 93.929363 
L 105.853383 91.08285 
L 105.794997 88.236336 
L 105.988083 85.389823 
L 106.081104 82.54331 
L 105.922755 79.696796 
L 105.634723 76.850283 
L 105.416369 74.00377 
L 105.398457 71.157256 
L 105.638029 68.310743 
L 106.073922 65.46423 
L 106.481867 62.617716 
L 106.692477 59.771203 
L 106.908998 56.92469 
L 107.599901 54.078176 
L 108.98849 51.231663 
L 110.789215 48.38515 
L 112.507513 45.538637 
L 113.886754 42.692123 
L 114.982828 39.84561 
L 115.876499 36.999097 
L 116.466558 34.152583 
L 116.635256 31.30607 
L 116.569181 28.459557 
L 116.743892 25.613043 
L 124.015855 25.613043 
L 124.015855 25.613043 
L 124.190566 28.459557 
L 124.124492 31.30607 
L 124.29319 34.152583 
L 124.883249 36.999097 
L 125.77692 39.84561 
L 126.872994 42.692123 
L 128.252234 45.538637 
L 129.970532 48.38515 
L 131.771258 51.231663 
L 133.159846 54.078176 
L 133.85075 56.92469 
L 134.06727 59.771203 
L 134.27788 62.617716 
L 134.685825 65.46423 
L 135.121718 68.310743 
L 135.361291 71.157256 
L 135.343378 74.00377 
L 135.125025 76.850283 
L 134.836993 79.696796 
L 134.678644 82.54331 
L 134.771664 85.389823 
L 134.964751 88.236336 
L 134.906365 91.08285 
L 134.398926 93.929363 
L 133.619651 96.775876 
L 132.934134 99.622389 
L 132.554803 102.468903 
L 132.436669 105.315416 
L 132.430481 108.161929 
L 132.395869 111.008443 
L 132.170213 113.854956 
L 131.630571 116.701469 
L 130.879004 119.547983 
L 130.200445 122.394496 
L 129.746539 125.241009 
L 129.381592 128.087523 
L 128.878106 130.934036 
L 128.168473 133.780549 
L 127.38638 136.627062 
L 126.738452 139.473576 
L 126.381405 142.320089 
L 126.358754 145.166602 
L 126.568455 148.013116 
L 126.831026 150.859629 
L 127.060714 153.706142 
L 127.322013 156.552656 
L 127.663777 159.399169 
L 127.961967 162.245682 
L 128.014165 165.092196 
L 127.775323 167.938709 
L 127.420197 170.785222 
L 127.169772 173.631736 
L 127.123566 176.478249 
L 127.250593 179.324762 
L 127.477669 182.171275 
L 127.780975 185.017789 
L 128.186356 187.864302 
L 128.648405 190.710815 
L 128.989426 193.557329 
L 129.057844 196.403842 
L 128.918457 199.250355 
L 128.798441 202.096869 
L 128.855741 204.943382 
L 129.042008 207.789895 
L 129.164508 210.636409 
L 129.047323 213.482922 
L 128.652951 216.329435 
L 128.096969 219.175949 
L 127.581843 222.022462 
L 127.307935 224.868975 
L 127.38858 227.715488 
L 127.772021 230.562002 
L 128.211082 233.408515 
L 128.36623 236.255028 
L 128.027723 239.101542 
L 127.267584 241.948055 
L 126.361 244.794568 
L 125.549707 247.641082 
L 124.881455 250.487595 
L 124.275842 253.334108 
L 123.70324 256.180622 
L 123.23342 259.027135 
L 122.914509 261.873648 
L 122.67988 264.720161 
L 122.415138 267.566675 
L 122.092426 270.413188 
L 121.795014 273.259701 
L 121.599511 276.106215 
L 121.476162 278.952728 
L 121.335867 281.799241 
L 121.141067 284.645755 
L 120.929892 287.492268 
L 120.752239 290.338781 
L 120.623485 293.185295 
L 120.534096 296.031808 
L 120.472066 298.878321 
L 120.430104 301.724835 
L 120.403917 304.571348 
L 120.389731 307.417861 
z
" clip-path="url(#pce67350f1d)" style="fill: #800080; fill-opacity: 0.3"/>
   </g>
   <g id="FillBetweenPolyCollection_3">
    <path d="M 157.908307 294.687149 
L 157.758526 294.687149 
L 157.708418 291.969229 
L 157.637572 289.251309 
L 157.543971 286.533389 
L 157.443386 283.815468 
L 157.372412 281.097548 
L 157.362062 278.379628 
L 157.404193 275.661708 
L 157.450417 272.943787 
L 157.445925 270.225867 
L 157.364134 267.507947 
L 157.216905 264.790027 
L 157.042757 262.072106 
L 156.885605 259.354186 
L 156.77201 256.636266 
L 156.696687 253.918346 
L 156.629592 251.200425 
L 156.540603 248.482505 
L 156.415955 245.764585 
L 156.255668 243.046664 
L 156.071347 240.328744 
L 155.891538 237.610824 
L 155.753591 234.892904 
L 155.67844 232.174983 
L 155.655458 229.457063 
L 155.648641 226.739143 
L 155.608684 224.021223 
L 155.488875 221.303302 
L 155.275983 218.585382 
L 155.017352 215.867462 
L 154.803679 213.149542 
L 154.709232 210.431621 
L 154.742616 207.713701 
L 154.845868 204.995781 
L 154.933483 202.277861 
L 154.949055 199.55994 
L 154.909634 196.84202 
L 154.89375 194.1241 
L 154.968923 191.406179 
L 155.128367 188.688259 
L 155.300779 185.970339 
L 155.409581 183.252419 
L 155.414276 180.534498 
L 155.310083 177.816578 
L 155.108726 175.098658 
L 154.82509 172.380738 
L 154.485045 169.662817 
L 154.15127 166.944897 
L 153.922493 164.226977 
L 153.866453 161.509057 
L 153.942766 158.791136 
L 154.028074 156.073216 
L 154.04055 153.355296 
L 154.011106 150.637376 
L 154.009378 147.919455 
L 154.037322 145.201535 
L 154.03098 142.483615 
L 153.928146 139.765694 
L 153.691824 137.047774 
L 153.309576 134.329854 
L 152.82713 131.611934 
L 152.358615 128.894013 
L 152.005603 126.176093 
L 151.760364 123.458173 
L 151.528178 120.740253 
L 151.258636 118.022332 
L 151.007405 115.304412 
L 150.833007 112.586492 
L 150.689097 109.868572 
L 150.479428 107.150651 
L 150.167951 104.432731 
L 149.768962 101.714811 
L 149.282428 98.996891 
L 148.714493 96.27897 
L 148.120936 93.56105 
L 147.547516 90.84313 
L 146.931697 88.125209 
L 146.135557 85.407289 
L 145.119409 82.689369 
L 144.059159 79.971449 
L 143.243957 77.253528 
L 142.852 74.535608 
L 142.861387 71.817688 
L 143.16391 69.099768 
L 143.678148 66.381847 
L 144.331346 63.663927 
L 145.037089 60.946007 
L 145.769571 58.228087 
L 146.609985 55.510166 
L 147.65202 52.792246 
L 148.873096 50.074326 
L 150.132343 47.356406 
L 151.288912 44.638485 
L 152.295716 41.920565 
L 153.165876 39.202645 
L 153.867043 36.484724 
L 154.296997 33.766804 
L 154.414968 31.048884 
L 154.39872 28.330964 
L 154.58675 25.613043 
L 161.080084 25.613043 
L 161.080084 25.613043 
L 161.268114 28.330964 
L 161.251865 31.048884 
L 161.369837 33.766804 
L 161.799791 36.484724 
L 162.500958 39.202645 
L 163.371118 41.920565 
L 164.377922 44.638485 
L 165.534491 47.356406 
L 166.793738 50.074326 
L 168.014814 52.792246 
L 169.056849 55.510166 
L 169.897263 58.228087 
L 170.629745 60.946007 
L 171.335488 63.663927 
L 171.988686 66.381847 
L 172.502924 69.099768 
L 172.805447 71.817688 
L 172.814834 74.535608 
L 172.422876 77.253528 
L 171.607675 79.971449 
L 170.547425 82.689369 
L 169.531277 85.407289 
L 168.735137 88.125209 
L 168.119318 90.84313 
L 167.545898 93.56105 
L 166.952341 96.27897 
L 166.384406 98.996891 
L 165.897872 101.714811 
L 165.498883 104.432731 
L 165.187406 107.150651 
L 164.977737 109.868572 
L 164.833827 112.586492 
L 164.659429 115.304412 
L 164.408198 118.022332 
L 164.138656 120.740253 
L 163.90647 123.458173 
L 163.661231 126.176093 
L 163.308219 128.894013 
L 162.839704 131.611934 
L 162.357258 134.329854 
L 161.97501 137.047774 
L 161.738688 139.765694 
L 161.635854 142.483615 
L 161.629512 145.201535 
L 161.657456 147.919455 
L 161.655728 150.637376 
L 161.626284 153.355296 
L 161.63876 156.073216 
L 161.724068 158.791136 
L 161.800381 161.509057 
L 161.744341 164.226977 
L 161.515564 166.944897 
L 161.181789 169.662817 
L 160.841744 172.380738 
L 160.558108 175.098658 
L 160.356751 177.816578 
L 160.252558 180.534498 
L 160.257253 183.252419 
L 160.366055 185.970339 
L 160.538467 188.688259 
L 160.697911 191.406179 
L 160.773084 194.1241 
L 160.7572 196.84202 
L 160.717779 199.55994 
L 160.733351 202.277861 
L 160.820966 204.995781 
L 160.924218 207.713701 
L 160.957602 210.431621 
L 160.863155 213.149542 
L 160.649482 215.867462 
L 160.390851 218.585382 
L 160.177959 221.303302 
L 160.05815 224.021223 
L 160.018193 226.739143 
L 160.011375 229.457063 
L 159.988394 232.174983 
L 159.913243 234.892904 
L 159.775296 237.610824 
L 159.595487 240.328744 
L 159.411165 243.046664 
L 159.250879 245.764585 
L 159.126231 248.482505 
L 159.037242 251.200425 
L 158.970147 253.918346 
L 158.894824 256.636266 
L 158.781229 259.354186 
L 158.624077 262.072106 
L 158.449929 264.790027 
L 158.3027 267.507947 
L 158.220909 270.225867 
L 158.216417 272.943787 
L 158.262641 275.661708 
L 158.304772 278.379628 
L 158.294422 281.097548 
L 158.223448 283.815468 
L 158.122863 286.533389 
L 158.029262 289.251309 
L 157.958415 291.969229 
L 157.908307 294.687149 
z
" clip-path="url(#pce67350f1d)" style="fill: #800080; fill-opacity: 0.45"/>
   </g>
   <g id="FillBetweenPolyCollection_4">
    <path d="M 195.323815 294.307305 
L 195.250105 294.307305 
L 195.196867 291.593222 
L 195.102524 288.879138 
L 194.973741 286.165055 
L 194.846091 283.450971 
L 194.76986 280.736888 
L 194.774263 278.022805 
L 194.843071 275.308721 
L 194.928136 272.594638 
L 194.986443 269.880554 
L 195.003842 267.166471 
L 194.989489 264.452387 
L 194.956413 261.738304 
L 194.909654 259.02422 
L 194.847796 256.310137 
L 194.770017 253.596053 
L 194.680004 250.88197 
L 194.583957 248.167887 
L 194.486458 245.453803 
L 194.391341 242.73972 
L 194.307666 240.025636 
L 194.248979 237.311553 
L 194.219621 234.597469 
L 194.202985 231.883386 
L 194.16796 229.169302 
L 194.085942 226.455219 
L 193.941212 223.741135 
L 193.734993 221.027052 
L 193.492466 218.312969 
L 193.265049 215.598885 
L 193.111196 212.884802 
L 193.063265 210.170718 
L 193.111441 207.456635 
L 193.218683 204.742551 
L 193.347534 202.028468 
L 193.4761 199.314384 
L 193.59921 196.600301 
L 193.719361 193.886218 
L 193.832501 191.172134 
L 193.918905 188.458051 
L 193.948517 185.743967 
L 193.896299 183.029884 
L 193.753296 180.3158 
L 193.525966 177.601717 
L 193.230085 174.887633 
L 192.891007 172.17355 
L 192.553267 169.459466 
L 192.283616 166.745383 
L 192.144775 164.0313 
L 192.147729 161.317216 
L 192.232741 158.603133 
L 192.313976 155.889049 
L 192.346958 153.174966 
L 192.343711 150.460882 
L 192.326682 147.746799 
L 192.288535 145.032715 
L 192.20379 142.318632 
L 192.064288 139.604548 
L 191.89469 136.890465 
L 191.742408 134.176382 
L 191.651627 131.462298 
L 191.627652 128.748215 
L 191.614179 126.034131 
L 191.515026 123.320048 
L 191.262832 120.605964 
L 190.887852 117.891881 
L 190.513252 115.177797 
L 190.259466 112.463714 
L 190.149791 109.74963 
L 190.113275 107.035547 
L 190.055646 104.321464 
L 189.911764 101.60738 
L 189.660174 98.893297 
L 189.30824 96.179213 
L 188.832853 93.46513 
L 188.119302 90.751046 
L 187.00615 88.036963 
L 185.44734 85.322879 
L 183.639877 82.608796 
L 181.969194 79.894712 
L 180.802324 77.180629 
L 180.305543 74.466546 
L 180.424666 71.752462 
L 180.993331 69.038379 
L 181.830732 66.324295 
L 182.768678 63.610212 
L 183.668126 60.896128 
L 184.46832 58.182045 
L 185.214386 55.467961 
L 186.004644 52.753878 
L 186.895278 50.039794 
L 187.856075 47.325711 
L 188.812298 44.611628 
L 189.707491 41.897544 
L 190.503876 39.183461 
L 191.133566 36.469377 
L 191.504651 33.755294 
L 191.610881 31.04121 
L 191.631454 28.327127 
L 191.854325 25.613043 
L 198.719595 25.613043 
L 198.719595 25.613043 
L 198.942467 28.327127 
L 198.963039 31.04121 
L 199.069269 33.755294 
L 199.440355 36.469377 
L 200.070044 39.183461 
L 200.86643 41.897544 
L 201.761623 44.611628 
L 202.717845 47.325711 
L 203.678642 50.039794 
L 204.569276 52.753878 
L 205.359534 55.467961 
L 206.105601 58.182045 
L 206.905794 60.896128 
L 207.805243 63.610212 
L 208.743188 66.324295 
L 209.580589 69.038379 
L 210.149254 71.752462 
L 210.268377 74.466546 
L 209.771596 77.180629 
L 208.604726 79.894712 
L 206.934044 82.608796 
L 205.126581 85.322879 
L 203.567771 88.036963 
L 202.454619 90.751046 
L 201.741067 93.46513 
L 201.26568 96.179213 
L 200.913747 98.893297 
L 200.662156 101.60738 
L 200.518275 104.321464 
L 200.460645 107.035547 
L 200.424129 109.74963 
L 200.314455 112.463714 
L 200.060669 115.177797 
L 199.686069 117.891881 
L 199.311088 120.605964 
L 199.058894 123.320048 
L 198.959741 126.034131 
L 198.946268 128.748215 
L 198.922293 131.462298 
L 198.831512 134.176382 
L 198.67923 136.890465 
L 198.509633 139.604548 
L 198.37013 142.318632 
L 198.285385 145.032715 
L 198.247238 147.746799 
L 198.23021 150.460882 
L 198.226962 153.174966 
L 198.259944 155.889049 
L 198.34118 158.603133 
L 198.426191 161.317216 
L 198.429145 164.0313 
L 198.290304 166.745383 
L 198.020653 169.459466 
L 197.682914 172.17355 
L 197.343836 174.887633 
L 197.047955 177.601717 
L 196.820625 180.3158 
L 196.677621 183.029884 
L 196.625403 185.743967 
L 196.655015 188.458051 
L 196.74142 191.172134 
L 196.854559 193.886218 
L 196.97471 196.600301 
L 197.097821 199.314384 
L 197.226386 202.028468 
L 197.355237 204.742551 
L 197.46248 207.456635 
L 197.510655 210.170718 
L 197.462724 212.884802 
L 197.308871 215.598885 
L 197.081454 218.312969 
L 196.838928 221.027052 
L 196.632708 223.741135 
L 196.487979 226.455219 
L 196.405961 229.169302 
L 196.370936 231.883386 
L 196.3543 234.597469 
L 196.324941 237.311553 
L 196.266254 240.025636 
L 196.182579 242.73972 
L 196.087462 245.453803 
L 195.989964 248.167887 
L 195.893916 250.88197 
L 195.803904 253.596053 
L 195.726124 256.310137 
L 195.664266 259.02422 
L 195.617508 261.738304 
L 195.584431 264.452387 
L 195.570079 267.166471 
L 195.587477 269.880554 
L 195.645784 272.594638 
L 195.730849 275.308721 
L 195.799657 278.022805 
L 195.80406 280.736888 
L 195.727829 283.450971 
L 195.60018 286.165055 
L 195.471397 288.879138 
L 195.377053 291.593222 
L 195.323815 294.307305 
z
" clip-path="url(#pce67350f1d)" style="fill: #800080; fill-opacity: 0.6"/>
   </g>
   <g id="FillBetweenPolyCollection_5">
    <path d="M 232.76071 274.434205 
L 232.720297 274.434205 
L 232.719456 271.92086 
L 232.719985 269.407515 
L 232.720438 266.89417 
L 232.719681 264.380825 
L 232.717019 261.86748 
L 232.711518 259.354135 
L 232.701724 256.84079 
L 232.686511 254.327445 
L 232.666213 251.8141 
L 232.642499 249.300755 
L 232.616663 246.78741 
L 232.58779 244.274065 
L 232.552166 241.76072 
L 232.503336 239.247374 
L 232.431773 236.734029 
L 232.326325 234.220684 
L 232.181397 231.707339 
L 232.00775 229.193994 
L 231.835688 226.680649 
L 231.701298 224.167304 
L 231.623093 221.653959 
L 231.590187 219.140614 
L 231.574866 216.627269 
L 231.557982 214.113924 
L 231.54241 211.600579 
L 231.543006 209.087234 
L 231.566211 206.573889 
L 231.601544 204.060543 
L 231.632258 201.547198 
L 231.651621 199.033853 
L 231.666895 196.520508 
L 231.687063 194.007163 
L 231.706828 191.493818 
L 231.703613 188.980473 
L 231.65299 186.467128 
L 231.550511 183.953783 
L 231.420819 181.440438 
L 231.306132 178.927093 
L 231.24368 176.413748 
L 231.247561 173.900403 
L 231.303643 171.387058 
L 231.378124 168.873712 
L 231.433887 166.360367 
L 231.442957 163.847022 
L 231.387603 161.333677 
L 231.258938 158.820332 
L 231.066397 156.306987 
L 230.849245 153.793642 
L 230.662737 151.280297 
L 230.536203 148.766952 
L 230.444996 146.253607 
L 230.334086 143.740262 
L 230.171487 141.226917 
L 229.974836 138.713572 
L 229.790721 136.200227 
L 229.656622 133.686881 
L 229.577781 131.173536 
L 229.524468 128.660191 
L 229.442602 126.146846 
L 229.276227 123.633501 
L 229.002971 121.120156 
L 228.665546 118.606811 
L 228.359281 116.093466 
L 228.163373 113.580121 
L 228.079434 111.066776 
L 228.050364 108.553431 
L 228.030153 106.040086 
L 228.008957 103.526741 
L 227.975276 101.013396 
L 227.885352 98.50005 
L 227.669843 95.986705 
L 227.235001 93.47336 
L 226.449106 90.960015 
L 225.177777 88.44667 
L 223.400114 85.933325 
L 221.325528 83.41998 
L 219.389083 80.906635 
L 218.089491 78.39329 
L 217.759086 75.879945 
L 218.407609 73.3666 
L 219.732364 70.853255 
L 221.286714 68.33991 
L 222.708496 65.826565 
L 223.865809 63.313219 
L 224.824822 60.799874 
L 225.689717 58.286529 
L 226.477415 55.773184 
L 227.127318 53.259839 
L 227.588246 50.746494 
L 227.873864 48.233149 
L 228.057675 45.719804 
L 228.239541 43.206459 
L 228.498839 40.693114 
L 228.839458 38.179769 
L 229.16801 35.666424 
L 229.356698 33.153079 
L 229.370781 30.639734 
L 229.346267 28.126388 
L 229.512201 25.613043 
L 235.968806 25.613043 
L 235.968806 25.613043 
L 236.134739 28.126388 
L 236.110225 30.639734 
L 236.124309 33.153079 
L 236.312997 35.666424 
L 236.641548 38.179769 
L 236.982168 40.693114 
L 237.241466 43.206459 
L 237.423332 45.719804 
L 237.607143 48.233149 
L 237.892761 50.746494 
L 238.353689 53.259839 
L 239.003591 55.773184 
L 239.79129 58.286529 
L 240.656184 60.799874 
L 241.615198 63.313219 
L 242.772511 65.826565 
L 244.194293 68.33991 
L 245.748643 70.853255 
L 247.073397 73.3666 
L 247.721921 75.879945 
L 247.391516 78.39329 
L 246.091924 80.906635 
L 244.155479 83.41998 
L 242.080893 85.933325 
L 240.30323 88.44667 
L 239.031901 90.960015 
L 238.246006 93.47336 
L 237.811164 95.986705 
L 237.595654 98.50005 
L 237.505731 101.013396 
L 237.472049 103.526741 
L 237.450854 106.040086 
L 237.430643 108.553431 
L 237.401573 111.066776 
L 237.317633 113.580121 
L 237.121726 116.093466 
L 236.815461 118.606811 
L 236.478036 121.120156 
L 236.204779 123.633501 
L 236.038405 126.146846 
L 235.956538 128.660191 
L 235.903225 131.173536 
L 235.824384 133.686881 
L 235.690286 136.200227 
L 235.506171 138.713572 
L 235.30952 141.226917 
L 235.14692 143.740262 
L 235.036011 146.253607 
L 234.944804 148.766952 
L 234.81827 151.280297 
L 234.631762 153.793642 
L 234.41461 156.306987 
L 234.222069 158.820332 
L 234.093404 161.333677 
L 234.03805 163.847022 
L 234.047119 166.360367 
L 234.102883 168.873712 
L 234.177363 171.387058 
L 234.233446 173.900403 
L 234.237327 176.413748 
L 234.174874 178.927093 
L 234.060188 181.440438 
L 233.930496 183.953783 
L 233.828016 186.467128 
L 233.777394 188.980473 
L 233.774179 191.493818 
L 233.793943 194.007163 
L 233.814112 196.520508 
L 233.829386 199.033853 
L 233.848749 201.547198 
L 233.879463 204.060543 
L 233.914796 206.573889 
L 233.938001 209.087234 
L 233.938597 211.600579 
L 233.923025 214.113924 
L 233.906141 216.627269 
L 233.89082 219.140614 
L 233.857914 221.653959 
L 233.779708 224.167304 
L 233.645319 226.680649 
L 233.473257 229.193994 
L 233.29961 231.707339 
L 233.154681 234.220684 
L 233.049234 236.734029 
L 232.977671 239.247374 
L 232.928841 241.76072 
L 232.893217 244.274065 
L 232.864343 246.78741 
L 232.838507 249.300755 
L 232.814793 251.8141 
L 232.794496 254.327445 
L 232.779283 256.84079 
L 232.769488 259.354135 
L 232.763988 261.86748 
L 232.761326 264.380825 
L 232.760569 266.89417 
L 232.761021 269.407515 
L 232.761551 271.92086 
L 232.76071 274.434205 
z
" clip-path="url(#pce67350f1d)" style="fill: #800080; fill-opacity: 0.85"/>
   </g>
   <g id="FillBetweenPolyCollection_6">
    <path d="M 270.234997 250.020096 
L 270.153096 250.020096 
L 270.12579 247.753359 
L 270.088066 245.486621 
L 270.040844 243.219883 
L 269.986535 240.953145 
L 269.926675 238.686407 
L 269.85928 236.419669 
L 269.779217 234.152931 
L 269.683455 231.886193 
L 269.578113 229.619455 
L 269.480303 227.352717 
L 269.41024 225.085979 
L 269.37765 222.819242 
L 269.373219 220.552504 
L 269.373281 218.285766 
L 269.355332 216.019028 
L 269.312769 213.75229 
L 269.257865 211.485552 
L 269.211774 209.218814 
L 269.190418 206.952076 
L 269.197081 204.685338 
L 269.225325 202.4186 
L 269.26684 200.151862 
L 269.31602 197.885125 
L 269.368041 195.618387 
L 269.414018 193.351649 
L 269.438878 191.084911 
L 269.424284 188.818173 
L 269.354834 186.551435 
L 269.224932 184.284697 
L 269.04508 182.017959 
L 268.845826 179.751221 
L 268.674662 177.484483 
L 268.581295 175.217745 
L 268.594633 172.951008 
L 268.705168 170.68427 
L 268.866854 168.417532 
L 269.019021 166.150794 
L 269.113686 163.884056 
L 269.1318 161.617318 
L 269.083494 159.35058 
L 268.998662 157.083842 
L 268.915438 154.817104 
L 268.868738 152.550366 
L 268.878714 150.283628 
L 268.942592 148.016891 
L 269.035941 145.750153 
L 269.124442 143.483415 
L 269.178464 141.216677 
L 269.180411 138.949939 
L 269.122065 136.683201 
L 268.997834 134.416463 
L 268.800853 132.149725 
L 268.523262 129.882987 
L 268.158336 127.616249 
L 267.704945 125.349511 
L 267.178392 123.082774 
L 266.625977 120.816036 
L 266.132321 118.549298 
L 265.796263 116.28256 
L 265.681973 114.015822 
L 265.776325 111.749084 
L 265.988287 109.482346 
L 266.194163 107.215608 
L 266.296604 104.94887 
L 266.260139 102.682132 
L 266.108041 100.415394 
L 265.887789 98.148657 
L 265.622743 95.881919 
L 265.272573 93.615181 
L 264.725967 91.348443 
L 263.838955 89.081705 
L 262.510597 86.814967 
L 260.765767 84.548229 
L 258.803111 82.281491 
L 256.972307 80.014753 
L 255.673164 77.748015 
L 255.212629 75.481277 
L 255.687245 73.21454 
L 256.950826 70.947802 
L 258.681847 68.681064 
L 260.51247 66.414326 
L 262.152987 64.147588 
L 263.455983 61.88085 
L 264.405787 59.614112 
L 265.062376 57.347374 
L 265.504363 55.080636 
L 265.798252 52.813898 
L 265.994153 50.54716 
L 266.134537 48.280422 
L 266.262712 46.013685 
L 266.421329 43.746947 
L 266.636826 41.480209 
L 266.897751 39.213471 
L 267.147375 36.946733 
L 267.308852 34.679995 
L 267.338327 32.413257 
L 267.272229 30.146519 
L 267.226835 27.879781 
L 267.337542 25.613043 
L 273.050551 25.613043 
L 273.050551 25.613043 
L 273.161258 27.879781 
L 273.115864 30.146519 
L 273.049766 32.413257 
L 273.079241 34.679995 
L 273.240718 36.946733 
L 273.490342 39.213471 
L 273.751268 41.480209 
L 273.966764 43.746947 
L 274.125381 46.013685 
L 274.253556 48.280422 
L 274.39394 50.54716 
L 274.589842 52.813898 
L 274.88373 55.080636 
L 275.325717 57.347374 
L 275.982306 59.614112 
L 276.93211 61.88085 
L 278.235106 64.147588 
L 279.875623 66.414326 
L 281.706247 68.681064 
L 283.437267 70.947802 
L 284.700848 73.21454 
L 285.175464 75.481277 
L 284.714929 77.748015 
L 283.415786 80.014753 
L 281.584982 82.281491 
L 279.622326 84.548229 
L 277.877496 86.814967 
L 276.549138 89.081705 
L 275.662126 91.348443 
L 275.11552 93.615181 
L 274.76535 95.881919 
L 274.500304 98.148657 
L 274.280052 100.415394 
L 274.127954 102.682132 
L 274.091489 104.94887 
L 274.19393 107.215608 
L 274.399806 109.482346 
L 274.611769 111.749084 
L 274.70612 114.015822 
L 274.59183 116.28256 
L 274.255772 118.549298 
L 273.762116 120.816036 
L 273.209701 123.082774 
L 272.683148 125.349511 
L 272.229757 127.616249 
L 271.864831 129.882987 
L 271.58724 132.149725 
L 271.390259 134.416463 
L 271.266029 136.683201 
L 271.207682 138.949939 
L 271.209629 141.216677 
L 271.263651 143.483415 
L 271.352152 145.750153 
L 271.445501 148.016891 
L 271.509379 150.283628 
L 271.519355 152.550366 
L 271.472655 154.817104 
L 271.389432 157.083842 
L 271.304599 159.35058 
L 271.256293 161.617318 
L 271.274407 163.884056 
L 271.369072 166.150794 
L 271.521239 168.417532 
L 271.682925 170.68427 
L 271.79346 172.951008 
L 271.806798 175.217745 
L 271.713431 177.484483 
L 271.542267 179.751221 
L 271.343013 182.017959 
L 271.163161 184.284697 
L 271.033259 186.551435 
L 270.963809 188.818173 
L 270.949215 191.084911 
L 270.974075 193.351649 
L 271.020052 195.618387 
L 271.072073 197.885125 
L 271.121253 200.151862 
L 271.162768 202.4186 
L 271.191013 204.685338 
L 271.197675 206.952076 
L 271.17632 209.218814 
L 271.130228 211.485552 
L 271.075324 213.75229 
L 271.032761 216.019028 
L 271.014812 218.285766 
L 271.014874 220.552504 
L 271.010443 222.819242 
L 270.977853 225.085979 
L 270.90779 227.352717 
L 270.80998 229.619455 
L 270.704639 231.886193 
L 270.608876 234.152931 
L 270.528813 236.419669 
L 270.461418 238.686407 
L 270.401558 240.953145 
L 270.347249 243.219883 
L 270.300028 245.486621 
L 270.262303 247.753359 
L 270.234997 250.020096 
z
" clip-path="url(#pce67350f1d)" style="fill: #800080"/>
   </g>
   <g id="FillBetweenPolyCollection_7">
    <path d="M 307.756998 321.873911 
L 307.538182 321.873911 
L 307.451958 318.881377 
L 307.138211 315.888843 
L 306.412383 312.896309 
L 305.402326 309.903775 
L 304.582451 306.911241 
L 304.211163 303.918707 
L 303.816644 300.926173 
L 302.763402 297.933639 
L 301.182863 294.941105 
L 299.546968 291.948571 
L 297.82761 288.956037 
L 296.056329 285.963503 
L 294.724351 282.970969 
L 293.879756 279.978435 
L 293.149779 276.985901 
L 292.666172 273.993367 
L 292.684735 271.000833 
L 293.018845 268.008299 
L 293.63738 265.015765 
L 294.711145 262.023231 
L 295.979861 259.030697 
L 297.069949 256.038163 
L 298.059398 253.045629 
L 299.052212 250.053095 
L 299.800033 247.060561 
L 300.176542 244.068027 
L 300.475132 241.075493 
L 301.014943 238.082959 
L 301.825617 235.090425 
L 302.698318 232.097891 
L 303.41056 229.105357 
L 303.906156 226.112823 
L 304.248548 223.120289 
L 304.490801 220.127755 
L 304.649986 217.135221 
L 304.679155 214.142687 
L 304.594505 211.150153 
L 304.594244 208.157619 
L 304.738248 205.165085 
L 304.855389 202.172551 
L 304.878708 199.180016 
L 304.918531 196.187482 
L 305.055089 193.194948 
L 305.262954 190.202414 
L 305.4607 187.20988 
L 305.544562 184.217346 
L 305.493533 181.224812 
L 305.41791 178.232278 
L 305.423052 175.239744 
L 305.495975 172.24721 
L 305.543116 169.254676 
L 305.520295 166.262142 
L 305.535339 163.269608 
L 305.701413 160.277074 
L 305.923963 157.28454 
L 306.022062 154.292006 
L 305.930165 151.299472 
L 305.709576 148.306938 
L 305.457504 145.314404 
L 305.250256 142.32187 
L 305.141025 139.329336 
L 305.094348 136.336802 
L 305.004082 133.344268 
L 304.856944 130.351734 
L 304.76225 127.3592 
L 304.808112 124.366666 
L 304.924411 121.374132 
L 304.933161 118.381598 
L 304.783348 115.389064 
L 304.578636 112.39653 
L 304.459442 109.403996 
L 304.540308 106.411462 
L 304.802637 103.418928 
L 305.104905 100.426394 
L 305.318211 97.43386 
L 305.403013 94.441326 
L 305.419674 91.448792 
L 305.449156 88.456258 
L 305.505593 85.463724 
L 305.563833 82.47119 
L 305.603515 79.478656 
L 305.619693 76.486122 
L 305.683211 73.493588 
L 305.900075 70.501054 
L 306.226013 67.50852 
L 306.489266 64.515986 
L 306.621352 61.523452 
L 306.709938 58.530918 
L 306.836537 55.538384 
L 306.971255 52.54585 
L 307.052762 49.553316 
L 307.116724 46.560782 
L 307.224234 43.568248 
L 307.359327 40.575713 
L 307.473745 37.583179 
L 307.536515 34.590645 
L 307.526105 31.598111 
L 307.450719 28.605577 
L 307.404718 25.613043 
L 307.890462 25.613043 
L 307.890462 25.613043 
L 307.844461 28.605577 
L 307.769074 31.598111 
L 307.758664 34.590645 
L 307.821434 37.583179 
L 307.935852 40.575713 
L 308.070945 43.568248 
L 308.178456 46.560782 
L 308.242417 49.553316 
L 308.323925 52.54585 
L 308.458643 55.538384 
L 308.585242 58.530918 
L 308.673827 61.523452 
L 308.805913 64.515986 
L 309.069166 67.50852 
L 309.395105 70.501054 
L 309.611969 73.493588 
L 309.675487 76.486122 
L 309.691665 79.478656 
L 309.731346 82.47119 
L 309.789586 85.463724 
L 309.846024 88.456258 
L 309.875505 91.448792 
L 309.892167 94.441326 
L 309.976968 97.43386 
L 310.190275 100.426394 
L 310.492542 103.418928 
L 310.754871 106.411462 
L 310.835738 109.403996 
L 310.716544 112.39653 
L 310.511831 115.389064 
L 310.362019 118.381598 
L 310.370769 121.374132 
L 310.487067 124.366666 
L 310.53293 127.3592 
L 310.438236 130.351734 
L 310.291098 133.344268 
L 310.200832 136.336802 
L 310.154154 139.329336 
L 310.044924 142.32187 
L 309.837675 145.314404 
L 309.585603 148.306938 
L 309.365015 151.299472 
L 309.273118 154.292006 
L 309.371216 157.28454 
L 309.593766 160.277074 
L 309.75984 163.269608 
L 309.774885 166.262142 
L 309.752063 169.254676 
L 309.799204 172.24721 
L 309.872128 175.239744 
L 309.877269 178.232278 
L 309.801647 181.224812 
L 309.750618 184.217346 
L 309.834479 187.20988 
L 310.032226 190.202414 
L 310.240091 193.194948 
L 310.376649 196.187482 
L 310.416472 199.180016 
L 310.43979 202.172551 
L 310.556932 205.165085 
L 310.700936 208.157619 
L 310.700674 211.150153 
L 310.616024 214.142687 
L 310.645193 217.135221 
L 310.804378 220.127755 
L 311.046631 223.120289 
L 311.389024 226.112823 
L 311.88462 229.105357 
L 312.596861 232.097891 
L 313.469563 235.090425 
L 314.280237 238.082959 
L 314.820048 241.075493 
L 315.118637 244.068027 
L 315.495146 247.060561 
L 316.242967 250.053095 
L 317.235782 253.045629 
L 318.22523 256.038163 
L 319.315318 259.030697 
L 320.584034 262.023231 
L 321.6578 265.015765 
L 322.276334 268.008299 
L 322.610445 271.000833 
L 322.629007 273.993367 
L 322.1454 276.985901 
L 321.415424 279.978435 
L 320.570829 282.970969 
L 319.23885 285.963503 
L 317.46757 288.956037 
L 315.748211 291.948571 
L 314.112317 294.941105 
L 312.531777 297.933639 
L 311.478535 300.926173 
L 311.084016 303.918707 
L 310.712729 306.911241 
L 309.892854 309.903775 
L 308.882796 312.896309 
L 308.156969 315.888843 
L 307.843222 318.881377 
L 307.756998 321.873911 
z
" clip-path="url(#pce67350f1d)" style="fill-opacity: 0.3"/>
   </g>
   <g id="FillBetweenPolyCollection_8">
    <path d="M 345.10868 232.630646 
L 345.093586 232.630646 
L 345.082457 230.539559 
L 345.059168 228.448472 
L 345.022309 226.357386 
L 344.98055 224.266299 
L 344.94983 222.175212 
L 344.939289 220.084125 
L 344.940724 217.993038 
L 344.935572 215.901951 
L 344.911516 213.810864 
L 344.871626 211.719777 
L 344.83133 209.62869 
L 344.80717 207.537603 
L 344.802807 205.446517 
L 344.802255 203.35543 
L 344.779625 201.264343 
L 344.722849 199.173256 
L 344.652063 197.082169 
L 344.608435 194.991082 
L 344.617436 192.899995 
L 344.666291 190.808908 
L 344.719864 188.717821 
L 344.749278 186.626734 
L 344.739877 184.535648 
L 344.683229 182.444561 
L 344.577572 180.353474 
L 344.441463 178.262387 
L 344.320849 176.1713 
L 344.267583 174.080213 
L 344.295019 171.989126 
L 344.355739 169.898039 
L 344.376797 167.806952 
L 344.31831 165.715866 
L 344.19241 163.624779 
L 344.036988 161.533692 
L 343.885824 159.442605 
L 343.755063 157.351518 
L 343.641263 155.260431 
L 343.533695 153.169344 
L 343.434837 151.078257 
L 343.36113 148.98717 
L 343.317407 146.896083 
L 343.278296 144.804997 
L 343.20298 142.71391 
L 343.070984 140.622823 
L 342.907411 138.531736 
L 342.772814 136.440649 
L 342.714657 134.349562 
L 342.714976 132.258475 
L 342.693926 130.167388 
L 342.586505 128.076301 
L 342.412684 125.985214 
L 342.238945 123.894128 
L 342.069655 121.803041 
L 341.830644 119.711954 
L 341.479896 117.620867 
L 341.076579 115.52978 
L 340.701921 113.438693 
L 340.360417 111.347606 
L 340.02562 109.256519 
L 339.75772 107.165432 
L 339.674895 105.074345 
L 339.793778 102.983259 
L 339.998485 100.892172 
L 340.190295 98.801085 
L 340.371115 96.709998 
L 340.547153 94.618911 
L 340.624884 92.527824 
L 340.448372 90.436737 
L 339.906358 88.34565 
L 338.956009 86.254563 
L 337.560347 84.163477 
L 335.711534 82.07239 
L 333.601859 79.981303 
L 331.687171 77.890216 
L 330.449199 75.799129 
L 330.119716 73.708042 
L 330.646935 71.616955 
L 331.773398 69.525868 
L 333.082687 67.434781 
L 334.099552 65.343694 
L 334.460815 63.252608 
L 334.066771 61.161521 
L 333.158473 59.070434 
L 332.254048 56.979347 
L 331.895193 54.88826 
L 332.34344 52.797173 
L 333.468039 50.706086 
L 334.871853 48.614999 
L 336.122334 46.523912 
L 336.989977 44.432825 
L 337.575094 42.341739 
L 338.17098 40.250652 
L 338.955959 38.159565 
L 339.822032 36.068478 
L 340.45488 33.977391 
L 340.54166 31.886304 
L 340.03641 29.795217 
L 339.371854 27.70413 
L 339.279645 25.613043 
L 350.92262 25.613043 
L 350.92262 25.613043 
L 350.830411 27.70413 
L 350.165856 29.795217 
L 349.660606 31.886304 
L 349.747386 33.977391 
L 350.380234 36.068478 
L 351.246307 38.159565 
L 352.031286 40.250652 
L 352.627172 42.341739 
L 353.212289 44.432825 
L 354.079931 46.523912 
L 355.330412 48.614999 
L 356.734227 50.706086 
L 357.858826 52.797173 
L 358.307073 54.88826 
L 357.948218 56.979347 
L 357.043793 59.070434 
L 356.135495 61.161521 
L 355.74145 63.252608 
L 356.102713 65.343694 
L 357.119579 67.434781 
L 358.428868 69.525868 
L 359.555331 71.616955 
L 360.08255 73.708042 
L 359.753067 75.799129 
L 358.515095 77.890216 
L 356.600407 79.981303 
L 354.490732 82.07239 
L 352.641919 84.163477 
L 351.246257 86.254563 
L 350.295907 88.34565 
L 349.753894 90.436737 
L 349.577381 92.527824 
L 349.655113 94.618911 
L 349.831151 96.709998 
L 350.011971 98.801085 
L 350.203781 100.892172 
L 350.408488 102.983259 
L 350.527371 105.074345 
L 350.444546 107.165432 
L 350.176646 109.256519 
L 349.841849 111.347606 
L 349.500345 113.438693 
L 349.125687 115.52978 
L 348.72237 117.620867 
L 348.371622 119.711954 
L 348.132611 121.803041 
L 347.963321 123.894128 
L 347.789582 125.985214 
L 347.615761 128.076301 
L 347.508339 130.167388 
L 347.48729 132.258475 
L 347.487608 134.349562 
L 347.429452 136.440649 
L 347.294855 138.531736 
L 347.131282 140.622823 
L 346.999286 142.71391 
L 346.92397 144.804997 
L 346.884859 146.896083 
L 346.841135 148.98717 
L 346.767429 151.078257 
L 346.668571 153.169344 
L 346.561003 155.260431 
L 346.447203 157.351518 
L 346.316442 159.442605 
L 346.165277 161.533692 
L 346.009856 163.624779 
L 345.883955 165.715866 
L 345.825469 167.806952 
L 345.846527 169.898039 
L 345.907247 171.989126 
L 345.934683 174.080213 
L 345.881417 176.1713 
L 345.760803 178.262387 
L 345.624694 180.353474 
L 345.519037 182.444561 
L 345.462389 184.535648 
L 345.452988 186.626734 
L 345.482402 188.717821 
L 345.535975 190.808908 
L 345.58483 192.899995 
L 345.59383 194.991082 
L 345.550203 197.082169 
L 345.479417 199.173256 
L 345.422641 201.264343 
L 345.40001 203.35543 
L 345.399459 205.446517 
L 345.395096 207.537603 
L 345.370936 209.62869 
L 345.33064 211.719777 
L 345.29075 213.810864 
L 345.266694 215.901951 
L 345.261542 217.993038 
L 345.262976 220.084125 
L 345.252436 222.175212 
L 345.221716 224.266299 
L 345.179957 226.357386 
L 345.143098 228.448472 
L 345.119809 230.539559 
L 345.10868 232.630646 
z
" clip-path="url(#pce67350f1d)" style="fill-opacity: 0.45"/>
   </g>
   <g id="FillBetweenPolyCollection_9">
    <path d="M 382.632281 196.680845 
L 382.477071 196.680845 
L 382.479257 194.952887 
L 382.488645 193.22493 
L 382.497098 191.496972 
L 382.498684 189.769014 
L 382.493018 188.041057 
L 382.483911 186.313099 
L 382.475817 184.585142 
L 382.471455 182.857184 
L 382.471568 181.129226 
L 382.475443 179.401269 
L 382.481189 177.673311 
L 382.486353 175.945354 
L 382.489034 174.217396 
L 382.488241 172.489439 
L 382.483152 170.761481 
L 382.473153 169.033523 
L 382.45973 167.305566 
L 382.447684 165.577608 
L 382.442371 163.849651 
L 382.443825 162.121693 
L 382.442625 160.393735 
L 382.42139 158.665778 
L 382.362822 156.93782 
L 382.262949 155.209863 
L 382.142699 153.481905 
L 382.044404 151.753947 
L 382.007829 150.02599 
L 382.043564 148.298032 
L 382.129469 146.570075 
L 382.231123 144.842117 
L 382.322616 143.114159 
L 382.392047 141.386202 
L 382.437102 139.658244 
L 382.459912 137.930287 
L 382.463074 136.202329 
L 382.447367 134.474372 
L 382.413051 132.746414 
L 382.362734 131.018456 
L 382.300617 129.290499 
L 382.22686 127.562541 
L 382.130116 125.834584 
L 381.979772 124.106626 
L 381.722593 122.378668 
L 381.301047 120.650711 
L 380.707433 118.922753 
L 380.044722 117.194796 
L 379.517125 115.466838 
L 379.306562 113.73888 
L 379.421987 112.010923 
L 379.68827 110.282965 
L 379.913816 108.555008 
L 380.060155 106.82705 
L 380.227433 105.099093 
L 380.498522 103.371135 
L 380.841504 101.643177 
L 381.161018 99.91522 
L 381.398186 98.187262 
L 381.556163 96.459305 
L 381.646489 94.731347 
L 381.630745 93.003389 
L 381.412341 91.275432 
L 380.878647 89.547474 
L 379.952725 87.819517 
L 378.601383 86.091559 
L 376.798977 84.363601 
L 374.546214 82.635644 
L 372.014557 80.907686 
L 369.657966 79.179729 
L 368.05396 77.451771 
L 367.573259 75.723813 
L 368.246072 73.995856 
L 369.889735 72.267898 
L 372.196786 70.539941 
L 374.691325 68.811983 
L 376.791314 67.084026 
L 378.042253 65.356068 
L 378.283839 63.62811 
L 377.616483 61.900153 
L 376.299476 60.172195 
L 374.701316 58.444238 
L 373.247593 56.71628 
L 372.298381 54.988322 
L 372.017697 53.260365 
L 372.332846 51.532407 
L 372.99144 49.80445 
L 373.672943 48.076492 
L 374.127635 46.348534 
L 374.297069 44.620577 
L 374.333026 42.892619 
L 374.479983 41.164662 
L 374.903219 39.436704 
L 375.593726 37.708747 
L 376.39041 35.980789 
L 377.04251 34.252831 
L 377.260506 32.524874 
L 376.832675 30.796916 
L 375.857634 29.068959 
L 374.887733 27.341001 
L 374.678739 25.613043 
L 390.430613 25.613043 
L 390.430613 25.613043 
L 390.221619 27.341001 
L 389.251719 29.068959 
L 388.276677 30.796916 
L 387.848846 32.524874 
L 388.066842 34.252831 
L 388.718942 35.980789 
L 389.515626 37.708747 
L 390.206134 39.436704 
L 390.62937 41.164662 
L 390.776326 42.892619 
L 390.812283 44.620577 
L 390.981717 46.348534 
L 391.436409 48.076492 
L 392.117912 49.80445 
L 392.776506 51.532407 
L 393.091656 53.260365 
L 392.810971 54.988322 
L 391.861759 56.71628 
L 390.408036 58.444238 
L 388.809876 60.172195 
L 387.492869 61.900153 
L 386.825513 63.62811 
L 387.067099 65.356068 
L 388.318038 67.084026 
L 390.418027 68.811983 
L 392.912566 70.539941 
L 395.219617 72.267898 
L 396.86328 73.995856 
L 397.536093 75.723813 
L 397.055393 77.451771 
L 395.451387 79.179729 
L 393.094795 80.907686 
L 390.563138 82.635644 
L 388.310375 84.363601 
L 386.507969 86.091559 
L 385.156627 87.819517 
L 384.230705 89.547474 
L 383.697011 91.275432 
L 383.478607 93.003389 
L 383.462864 94.731347 
L 383.55319 96.459305 
L 383.711166 98.187262 
L 383.948334 99.91522 
L 384.267848 101.643177 
L 384.61083 103.371135 
L 384.881919 105.099093 
L 385.049198 106.82705 
L 385.195536 108.555008 
L 385.421082 110.282965 
L 385.687365 112.010923 
L 385.802791 113.73888 
L 385.592227 115.466838 
L 385.064631 117.194796 
L 384.401919 118.922753 
L 383.808305 120.650711 
L 383.386759 122.378668 
L 383.12958 124.106626 
L 382.979237 125.834584 
L 382.882492 127.562541 
L 382.808735 129.290499 
L 382.746618 131.018456 
L 382.696302 132.746414 
L 382.661985 134.474372 
L 382.646278 136.202329 
L 382.64944 137.930287 
L 382.672251 139.658244 
L 382.717305 141.386202 
L 382.786737 143.114159 
L 382.87823 144.842117 
L 382.979883 146.570075 
L 383.065788 148.298032 
L 383.101523 150.02599 
L 383.064948 151.753947 
L 382.966653 153.481905 
L 382.846403 155.209863 
L 382.746531 156.93782 
L 382.687962 158.665778 
L 382.666727 160.393735 
L 382.665527 162.121693 
L 382.666981 163.849651 
L 382.661668 165.577608 
L 382.649623 167.305566 
L 382.636199 169.033523 
L 382.626201 170.761481 
L 382.621111 172.489439 
L 382.620318 174.217396 
L 382.622999 175.945354 
L 382.628163 177.673311 
L 382.633909 179.401269 
L 382.637784 181.129226 
L 382.637897 182.857184 
L 382.633535 184.585142 
L 382.625442 186.313099 
L 382.616334 188.041057 
L 382.610668 189.769014 
L 382.612254 191.496972 
L 382.620707 193.22493 
L 382.630095 194.952887 
L 382.632281 196.680845 
z
" clip-path="url(#pce67350f1d)" style="fill-opacity: 0.6"/>
   </g>
   <g id="FillBetweenPolyCollection_10">
    <path d="M 420.026994 196.680845 
L 419.989445 196.680845 
L 419.986103 194.952887 
L 419.983759 193.22493 
L 419.982735 191.496972 
L 419.983228 189.769014 
L 419.985125 188.041057 
L 419.987825 186.313099 
L 419.990265 184.585142 
L 419.991175 182.857184 
L 419.989416 181.129226 
L 419.984274 179.401269 
L 419.975736 177.673311 
L 419.964741 175.945354 
L 419.953182 174.217396 
L 419.943423 172.489439 
L 419.937435 170.761481 
L 419.935977 169.033523 
L 419.938234 167.305566 
L 419.941718 165.577608 
L 419.941939 163.849651 
L 419.931809 162.121693 
L 419.901829 160.393735 
L 419.842848 158.665778 
L 419.752134 156.93782 
L 419.640238 155.209863 
L 419.532785 153.481905 
L 419.462302 151.753947 
L 419.452476 150.02599 
L 419.505121 148.298032 
L 419.599802 146.570075 
L 419.706073 144.842117 
L 419.798527 143.114159 
L 419.864592 141.386202 
L 419.902853 139.658244 
L 419.916677 137.930287 
L 419.908987 136.202329 
L 419.880793 134.474372 
L 419.832445 132.746414 
L 419.764559 131.018456 
L 419.675874 129.290499 
L 419.557581 127.562541 
L 419.386991 125.834584 
L 419.126652 124.106626 
L 418.736444 122.378668 
L 418.201579 120.650711 
L 417.565411 118.922753 
L 416.939826 117.194796 
L 416.468796 115.466838 
L 416.255081 113.73888 
L 416.302359 112.010923 
L 416.525384 110.282965 
L 416.823107 108.555008 
L 417.148093 106.82705 
L 417.51088 105.099093 
L 417.927414 103.371135 
L 418.372512 101.643177 
L 418.78417 99.91522 
L 419.102571 98.187262 
L 419.296069 96.459305 
L 419.349908 94.731347 
L 419.234939 93.003389 
L 418.888465 91.275432 
L 418.221736 89.547474 
L 417.145184 87.819517 
L 415.599053 86.091559 
L 413.591511 84.363601 
L 411.247798 82.635644 
L 408.843431 80.907686 
L 406.769019 79.179729 
L 405.412737 77.451771 
L 405.026802 75.723813 
L 405.663649 73.995856 
L 407.192171 72.267898 
L 409.338857 70.539941 
L 411.726879 68.811983 
L 413.940531 67.084026 
L 415.625438 65.356068 
L 416.579061 63.62811 
L 416.783531 61.900153 
L 416.382129 60.172195 
L 415.6285 58.444238 
L 414.822326 56.71628 
L 414.230878 54.988322 
L 414.009826 53.260365 
L 414.156206 51.532407 
L 414.522783 49.80445 
L 414.89496 48.076492 
L 415.096418 46.348534 
L 415.069056 44.620577 
L 414.883965 42.892619 
L 414.681151 41.164662 
L 414.578104 39.436704 
L 414.598513 37.708747 
L 414.651076 35.980789 
L 414.564148 34.252831 
L 414.172831 32.524874 
L 413.440284 30.796916 
L 412.552769 29.068959 
L 411.896507 27.341001 
L 411.878164 25.613043 
L 428.138275 25.613043 
L 428.138275 25.613043 
L 428.119931 27.341001 
L 427.463669 29.068959 
L 426.576155 30.796916 
L 425.843608 32.524874 
L 425.45229 34.252831 
L 425.365363 35.980789 
L 425.417926 37.708747 
L 425.438335 39.436704 
L 425.335288 41.164662 
L 425.132473 42.892619 
L 424.947383 44.620577 
L 424.920021 46.348534 
L 425.121478 48.076492 
L 425.493656 49.80445 
L 425.860232 51.532407 
L 426.006613 53.260365 
L 425.785561 54.988322 
L 425.194112 56.71628 
L 424.387939 58.444238 
L 423.63431 60.172195 
L 423.232907 61.900153 
L 423.437378 63.62811 
L 424.391 65.356068 
L 426.075907 67.084026 
L 428.28956 68.811983 
L 430.677581 70.539941 
L 432.824268 72.267898 
L 434.35279 73.995856 
L 434.989637 75.723813 
L 434.603702 77.451771 
L 433.247419 79.179729 
L 431.173008 80.907686 
L 428.768641 82.635644 
L 426.424928 84.363601 
L 424.417385 86.091559 
L 422.871255 87.819517 
L 421.794703 89.547474 
L 421.127973 91.275432 
L 420.781499 93.003389 
L 420.666531 94.731347 
L 420.720369 96.459305 
L 420.913867 98.187262 
L 421.232269 99.91522 
L 421.643926 101.643177 
L 422.089025 103.371135 
L 422.505559 105.099093 
L 422.868346 106.82705 
L 423.193331 108.555008 
L 423.491054 110.282965 
L 423.71408 112.010923 
L 423.761357 113.73888 
L 423.547643 115.466838 
L 423.076613 117.194796 
L 422.451028 118.922753 
L 421.814859 120.650711 
L 421.279995 122.378668 
L 420.889787 124.106626 
L 420.629448 125.834584 
L 420.458858 127.562541 
L 420.340564 129.290499 
L 420.251879 131.018456 
L 420.183993 132.746414 
L 420.135645 134.474372 
L 420.107452 136.202329 
L 420.099761 137.930287 
L 420.113586 139.658244 
L 420.151847 141.386202 
L 420.217912 143.114159 
L 420.310365 144.842117 
L 420.416637 146.570075 
L 420.511318 148.298032 
L 420.563963 150.02599 
L 420.554136 151.753947 
L 420.483654 153.481905 
L 420.376201 155.209863 
L 420.264305 156.93782 
L 420.173591 158.665778 
L 420.11461 160.393735 
L 420.08463 162.121693 
L 420.074499 163.849651 
L 420.07472 165.577608 
L 420.078204 167.305566 
L 420.080462 169.033523 
L 420.079004 170.761481 
L 420.073015 172.489439 
L 420.063257 174.217396 
L 420.051697 175.945354 
L 420.040703 177.673311 
L 420.032165 179.401269 
L 420.027022 181.129226 
L 420.025263 182.857184 
L 420.026174 184.585142 
L 420.028614 186.313099 
L 420.031314 188.041057 
L 420.033211 189.769014 
L 420.033704 191.496972 
L 420.032679 193.22493 
L 420.030335 194.952887 
L 420.026994 196.680845 
z
" clip-path="url(#pce67350f1d)" style="fill-opacity: 0.85"/>
   </g>
   <g id="FillBetweenPolyCollection_11">
    <path d="M 457.481935 196.680845 
L 457.44159 196.680845 
L 457.438119 194.952887 
L 457.435701 193.22493 
L 457.434662 191.496972 
L 457.435145 189.769014 
L 457.43697 188.041057 
L 457.439514 186.313099 
L 457.441771 184.585142 
L 457.442619 182.857184 
L 457.441182 181.129226 
L 457.437183 179.401269 
L 457.431183 177.673311 
L 457.424582 175.945354 
L 457.41924 174.217396 
L 457.416733 172.489439 
L 457.417581 170.761481 
L 457.420907 169.033523 
L 457.424649 167.305566 
L 457.42586 165.577608 
L 457.420456 163.849651 
L 457.402503 162.121693 
L 457.364233 160.393735 
L 457.298558 158.665778 
L 457.204481 156.93782 
L 457.092796 155.209863 
L 456.98705 153.481905 
L 456.916218 151.753947 
L 456.901546 150.02599 
L 456.945739 148.298032 
L 457.032087 146.570075 
L 457.133843 144.842117 
L 457.226722 143.114159 
L 457.296564 141.386202 
L 457.33941 139.658244 
L 457.356889 137.930287 
L 457.351531 136.202329 
L 457.324602 134.474372 
L 457.276086 132.746414 
L 457.204634 131.018456 
L 457.10544 129.290499 
L 456.966024 127.562541 
L 456.762721 125.834584 
L 456.463137 124.106626 
L 456.039562 122.378668 
L 455.492615 120.650711 
L 454.873421 118.922753 
L 454.284218 117.194796 
L 453.844446 115.466838 
L 453.635265 113.73888 
L 453.660556 112.010923 
L 453.857127 110.282965 
L 454.146895 108.555008 
L 454.485754 106.82705 
L 454.868988 105.099093 
L 455.297665 103.371135 
L 455.746188 101.643177 
L 456.161869 99.91522 
L 456.489229 98.187262 
L 456.688795 96.459305 
L 456.732095 94.731347 
L 456.58152 93.003389 
L 456.176439 91.275432 
L 455.438042 89.547474 
L 454.290546 87.819517 
L 452.692068 86.091559 
L 450.672848 84.363601 
L 448.374466 82.635644 
L 446.065529 80.907686 
L 444.101904 79.179729 
L 442.830067 77.451771 
L 442.480345 75.723813 
L 443.106635 73.995856 
L 444.586761 72.267898 
L 446.657274 70.539941 
L 448.962653 68.811983 
L 451.122719 67.084026 
L 452.816406 65.356068 
L 453.854915 63.62811 
L 454.215165 61.900153 
L 454.028547 60.172195 
L 453.537405 58.444238 
L 453.02947 56.71628 
L 452.758606 54.988322 
L 452.871818 53.260365 
L 453.372486 51.532407 
L 454.139064 49.80445 
L 454.989726 48.076492 
L 455.758606 46.348534 
L 456.346593 44.620577 
L 456.72886 42.892619 
L 456.926069 41.164662 
L 456.960456 39.436704 
L 456.818498 37.708747 
L 456.43721 35.980789 
L 455.727816 34.252831 
L 454.641602 32.524874 
L 453.256558 30.796916 
L 451.827884 29.068959 
L 450.738765 27.341001 
L 450.343627 25.613043 
L 464.579898 25.613043 
L 464.579898 25.613043 
L 464.18476 27.341001 
L 463.095641 29.068959 
L 461.666967 30.796916 
L 460.281924 32.524874 
L 459.195709 34.252831 
L 458.486315 35.980789 
L 458.105027 37.708747 
L 457.963069 39.436704 
L 457.997456 41.164662 
L 458.194665 42.892619 
L 458.576932 44.620577 
L 459.164919 46.348534 
L 459.933799 48.076492 
L 460.784461 49.80445 
L 461.551039 51.532407 
L 462.051707 53.260365 
L 462.164919 54.988322 
L 461.894055 56.71628 
L 461.38612 58.444238 
L 460.894978 60.172195 
L 460.70836 61.900153 
L 461.06861 63.62811 
L 462.107119 65.356068 
L 463.800806 67.084026 
L 465.960872 68.811983 
L 468.266251 70.539941 
L 470.336764 72.267898 
L 471.81689 73.995856 
L 472.44318 75.723813 
L 472.093458 77.451771 
L 470.821621 79.179729 
L 468.857996 80.907686 
L 466.549059 82.635644 
L 464.250677 84.363601 
L 462.231457 86.091559 
L 460.632979 87.819517 
L 459.485483 89.547474 
L 458.747086 91.275432 
L 458.342005 93.003389 
L 458.19143 94.731347 
L 458.23473 96.459305 
L 458.434296 98.187262 
L 458.761656 99.91522 
L 459.177337 101.643177 
L 459.62586 103.371135 
L 460.054537 105.099093 
L 460.437771 106.82705 
L 460.77663 108.555008 
L 461.066398 110.282965 
L 461.262969 112.010923 
L 461.28826 113.73888 
L 461.079079 115.466838 
L 460.639307 117.194796 
L 460.050104 118.922753 
L 459.43091 120.650711 
L 458.883963 122.378668 
L 458.460388 124.106626 
L 458.160804 125.834584 
L 457.957501 127.562541 
L 457.818085 129.290499 
L 457.718891 131.018456 
L 457.647439 132.746414 
L 457.598923 134.474372 
L 457.571994 136.202329 
L 457.566636 137.930287 
L 457.584115 139.658244 
L 457.626961 141.386202 
L 457.696804 143.114159 
L 457.789682 144.842117 
L 457.891438 146.570075 
L 457.977786 148.298032 
L 458.021979 150.02599 
L 458.007307 151.753947 
L 457.936475 153.481905 
L 457.830729 155.209863 
L 457.719044 156.93782 
L 457.624967 158.665778 
L 457.559292 160.393735 
L 457.521022 162.121693 
L 457.503069 163.849651 
L 457.497665 165.577608 
L 457.498876 167.305566 
L 457.502618 169.033523 
L 457.505944 170.761481 
L 457.506792 172.489439 
L 457.504285 174.217396 
L 457.498943 175.945354 
L 457.492342 177.673311 
L 457.486342 179.401269 
L 457.482343 181.129226 
L 457.480906 182.857184 
L 457.481754 184.585142 
L 457.484011 186.313099 
L 457.486555 188.041057 
L 457.48838 189.769014 
L 457.488864 191.496972 
L 457.487824 193.22493 
L 457.485406 194.952887 
L 457.481935 196.680845 
z
" clip-path="url(#pce67350f1d)"/>
   </g>
   <g id="matplotlib.axis_1">
    <g id="xtick_1">
     <g id="line2d_1">
      <defs>
       <path id="md42b7354a3" d="M 0 0 
L 0 3.5 
" style="stroke: #000000; stroke-width: 0.8"/>
      </defs>
      <g>
       <use xlink:href="#md42b7354a3" x="82.926331" y="336.686955" style="stroke: #000000; stroke-width: 0.8"/>
      </g>
     </g>
     <g id="text_1">
      <!-- Mechinformed -->
      <g transform="translate(84.396892 349.059861) rotate(-315) scale(0.1 -0.1)">
       <defs>
        <path id="DejaVuSans-4d" d="M 628 4666 
L 1569 4666 
L 2759 1491 
L 3956 4666 
L 4897 4666 
L 4897 0 
L 4281 0 
L 4281 4097 
L 3078 897 
L 2444 897 
L 1241 4097 
L 1241 0 
L 628 0 
L 628 4666 
z
" transform="scale(0.015625)"/>
        <path id="DejaVuSans-65" d="M 3597 1894 
L 3597 1613 
L 953 1613 
Q 991 1019 1311 708 
Q 1631 397 2203 397 
Q 2534 397 2845 478 
Q 3156 559 3463 722 
L 3463 178 
Q 3153 47 2828 -22 
Q 2503 -91 2169 -91 
Q 1331 -91 842 396 
Q 353 884 353 1716 
Q 353 2575 817 3079 
Q 1281 3584 2069 3584 
Q 2775 3584 3186 3129 
Q 3597 2675 3597 1894 
z
M 3022 2063 
Q 3016 2534 2758 2815 
Q 2500 3097 2075 3097 
Q 1594 3097 1305 2825 
Q 1016 2553 972 2059 
L 3022 2063 
z
" transform="scale(0.015625)"/>
        <path id="DejaVuSans-63" d="M 3122 3366 
L 3122 2828 
Q 2878 2963 2633 3030 
Q 2388 3097 2138 3097 
Q 1578 3097 1268 2742 
Q 959 2388 959 1747 
Q 959 1106 1268 751 
Q 1578 397 2138 397 
Q 2388 397 2633 464 
Q 2878 531 3122 666 
L 3122 134 
Q 2881 22 2623 -34 
Q 2366 -91 2075 -91 
Q 1284 -91 818 406 
Q 353 903 353 1747 
Q 353 2603 823 3093 
Q 1294 3584 2113 3584 
Q 2378 3584 2631 3529 
Q 2884 3475 3122 3366 
z
" transform="scale(0.015625)"/>
        <path id="DejaVuSans-68" d="M 3513 2113 
L 3513 0 
L 2938 0 
L 2938 2094 
Q 2938 2591 2744 2837 
Q 2550 3084 2163 3084 
Q 1697 3084 1428 2787 
Q 1159 2491 1159 1978 
L 1159 0 
L 581 0 
L 581 4863 
L 1159 4863 
L 1159 2956 
Q 1366 3272 1645 3428 
Q 1925 3584 2291 3584 
Q 2894 3584 3203 3211 
Q 3513 2838 3513 2113 
z
" transform="scale(0.015625)"/>
        <path id="DejaVuSans-69" d="M 603 3500 
L 1178 3500 
L 1178 0 
L 603 0 
L 603 3500 
z
M 603 4863 
L 1178 4863 
L 1178 4134 
L 603 4134 
L 603 4863 
z
" transform="scale(0.015625)"/>
        <path id="DejaVuSans-6e" d="M 3513 2113 
L 3513 0 
L 2938 0 
L 2938 2094 
Q 2938 2591 2744 2837 
Q 2550 3084 2163 3084 
Q 1697 3084 1428 2787 
Q 1159 2491 1159 1978 
L 1159 0 
L 581 0 
L 581 3500 
L 1159 3500 
L 1159 2956 
Q 1366 3272 1645 3428 
Q 1925 3584 2291 3584 
Q 2894 3584 3203 3211 
Q 3513 2838 3513 2113 
z
" transform="scale(0.015625)"/>
        <path id="DejaVuSans-66" d="M 2375 4863 
L 2375 4384 
L 1825 4384 
Q 1516 4384 1395 4259 
Q 1275 4134 1275 3809 
L 1275 3500 
L 2222 3500 
L 2222 3053 
L 1275 3053 
L 1275 0 
L 697 0 
L 697 3053 
L 147 3053 
L 147 3500 
L 697 3500 
L 697 3744 
Q 697 4328 969 4595 
Q 1241 4863 1831 4863 
L 2375 4863 
z
" transform="scale(0.015625)"/>
        <path id="DejaVuSans-6f" d="M 1959 3097 
Q 1497 3097 1228 2736 
Q 959 2375 959 1747 
Q 959 1119 1226 758 
Q 1494 397 1959 397 
Q 2419 397 2687 759 
Q 2956 1122 2956 1747 
Q 2956 2369 2687 2733 
Q 2419 3097 1959 3097 
z
M 1959 3584 
Q 2709 3584 3137 3096 
Q 3566 2609 3566 1747 
Q 3566 888 3137 398 
Q 2709 -91 1959 -91 
Q 1206 -91 779 398 
Q 353 888 353 1747 
Q 353 2609 779 3096 
Q 1206 3584 1959 3584 
z
" transform="scale(0.015625)"/>
        <path id="DejaVuSans-72" d="M 2631 2963 
Q 2534 3019 2420 3045 
Q 2306 3072 2169 3072 
Q 1681 3072 1420 2755 
Q 1159 2438 1159 1844 
L 1159 0 
L 581 0 
L 581 3500 
L 1159 3500 
L 1159 2956 
Q 1341 3275 1631 3429 
Q 1922 3584 2338 3584 
Q 2397 3584 2469 3576 
Q 2541 3569 2628 3553 
L 2631 2963 
z
" transform="scale(0.015625)"/>
        <path id="DejaVuSans-6d" d="M 3328 2828 
Q 3544 3216 3844 3400 
Q 4144 3584 4550 3584 
Q 5097 3584 5394 3201 
Q 5691 2819 5691 2113 
L 5691 0 
L 5113 0 
L 5113 2094 
Q 5113 2597 4934 2840 
Q 4756 3084 4391 3084 
Q 3944 3084 3684 2787 
Q 3425 2491 3425 1978 
L 3425 0 
L 2847 0 
L 2847 2094 
Q 2847 2600 2669 2842 
Q 2491 3084 2119 3084 
Q 1678 3084 1418 2786 
Q 1159 2488 1159 1978 
L 1159 0 
L 581 0 
L 581 3500 
L 1159 3500 
L 1159 2956 
Q 1356 3278 1631 3431 
Q 1906 3584 2284 3584 
Q 2666 3584 2933 3390 
Q 3200 3197 3328 2828 
z
" transform="scale(0.015625)"/>
        <path id="DejaVuSans-64" d="M 2906 2969 
L 2906 4863 
L 3481 4863 
L 3481 0 
L 2906 0 
L 2906 525 
Q 2725 213 2448 61 
Q 2172 -91 1784 -91 
Q 1150 -91 751 415 
Q 353 922 353 1747 
Q 353 2572 751 3078 
Q 1150 3584 1784 3584 
Q 2172 3584 2448 3432 
Q 2725 3281 2906 2969 
z
M 947 1747 
Q 947 1113 1208 752 
Q 1469 391 1925 391 
Q 2381 391 2643 752 
Q 2906 1113 2906 1747 
Q 2906 2381 2643 2742 
Q 2381 3103 1925 3103 
Q 1469 3103 1208 2742 
Q 947 2381 947 1747 
z
" transform="scale(0.015625)"/>
       </defs>
       <use xlink:href="#DejaVuSans-4d"/>
       <use xlink:href="#DejaVuSans-65" transform="translate(86.279297 0)"/>
       <use xlink:href="#DejaVuSans-63" transform="translate(147.802734 0)"/>
       <use xlink:href="#DejaVuSans-68" transform="translate(202.783203 0)"/>
       <use xlink:href="#DejaVuSans-69" transform="translate(266.162109 0)"/>
       <use xlink:href="#DejaVuSans-6e" transform="translate(293.945312 0)"/>
       <use xlink:href="#DejaVuSans-66" transform="translate(357.324219 0)"/>
       <use xlink:href="#DejaVuSans-6f" transform="translate(392.529297 0)"/>
       <use xlink:href="#DejaVuSans-72" transform="translate(453.710938 0)"/>
       <use xlink:href="#DejaVuSans-6d" transform="translate(493.074219 0)"/>
       <use xlink:href="#DejaVuSans-65" transform="translate(590.486328 0)"/>
       <use xlink:href="#DejaVuSans-64" transform="translate(652.009766 0)"/>
      </g>
     </g>
    </g>
    <g id="xtick_2">
     <g id="line2d_2">
      <g>
       <use xlink:href="#md42b7354a3" x="120.379874" y="336.686955" style="stroke: #000000; stroke-width: 0.8"/>
      </g>
     </g>
     <g id="text_2">
      <!-- Mechinferred &gt;0.91 -->
      <g transform="translate(121.850435 349.059861) rotate(-315) scale(0.1 -0.1)">
       <defs>
        <path id="DejaVuSans-20" transform="scale(0.015625)"/>
        <path id="DejaVuSans-3e" d="M 678 3150 
L 678 3719 
L 4684 2266 
L 4684 1747 
L 678 294 
L 678 863 
L 3897 2003 
L 678 3150 
z
" transform="scale(0.015625)"/>
        <path id="DejaVuSans-30" d="M 2034 4250 
Q 1547 4250 1301 3770 
Q 1056 3291 1056 2328 
Q 1056 1369 1301 889 
Q 1547 409 2034 409 
Q 2525 409 2770 889 
Q 3016 1369 3016 2328 
Q 3016 3291 2770 3770 
Q 2525 4250 2034 4250 
z
M 2034 4750 
Q 2819 4750 3233 4129 
Q 3647 3509 3647 2328 
Q 3647 1150 3233 529 
Q 2819 -91 2034 -91 
Q 1250 -91 836 529 
Q 422 1150 422 2328 
Q 422 3509 836 4129 
Q 1250 4750 2034 4750 
z
" transform="scale(0.015625)"/>
        <path id="DejaVuSans-2e" d="M 684 794 
L 1344 794 
L 1344 0 
L 684 0 
L 684 794 
z
" transform="scale(0.015625)"/>
        <path id="DejaVuSans-39" d="M 703 97 
L 703 672 
Q 941 559 1184 500 
Q 1428 441 1663 441 
Q 2288 441 2617 861 
Q 2947 1281 2994 2138 
Q 2813 1869 2534 1725 
Q 2256 1581 1919 1581 
Q 1219 1581 811 2004 
Q 403 2428 403 3163 
Q 403 3881 828 4315 
Q 1253 4750 1959 4750 
Q 2769 4750 3195 4129 
Q 3622 3509 3622 2328 
Q 3622 1225 3098 567 
Q 2575 -91 1691 -91 
Q 1453 -91 1209 -44 
Q 966 3 703 97 
z
M 1959 2075 
Q 2384 2075 2632 2365 
Q 2881 2656 2881 3163 
Q 2881 3666 2632 3958 
Q 2384 4250 1959 4250 
Q 1534 4250 1286 3958 
Q 1038 3666 1038 3163 
Q 1038 2656 1286 2365 
Q 1534 2075 1959 2075 
z
" transform="scale(0.015625)"/>
        <path id="DejaVuSans-31" d="M 794 531 
L 1825 531 
L 1825 4091 
L 703 3866 
L 703 4441 
L 1819 4666 
L 2450 4666 
L 2450 531 
L 3481 531 
L 3481 0 
L 794 0 
L 794 531 
z
" transform="scale(0.015625)"/>
       </defs>
       <use xlink:href="#DejaVuSans-4d"/>
       <use xlink:href="#DejaVuSans-65" transform="translate(86.279297 0)"/>
       <use xlink:href="#DejaVuSans-63" transform="translate(147.802734 0)"/>
       <use xlink:href="#DejaVuSans-68" transform="translate(202.783203 0)"/>
       <use xlink:href="#DejaVuSans-69" transform="translate(266.162109 0)"/>
       <use xlink:href="#DejaVuSans-6e" transform="translate(293.945312 0)"/>
       <use xlink:href="#DejaVuSans-66" transform="translate(357.324219 0)"/>
       <use xlink:href="#DejaVuSans-65" transform="translate(392.529297 0)"/>
       <use xlink:href="#DejaVuSans-72" transform="translate(454.052734 0)"/>
       <use xlink:href="#DejaVuSans-72" transform="translate(493.416016 0)"/>
       <use xlink:href="#DejaVuSans-65" transform="translate(532.279297 0)"/>
       <use xlink:href="#DejaVuSans-64" transform="translate(593.802734 0)"/>
       <use xlink:href="#DejaVuSans-20" transform="translate(657.279297 0)"/>
       <use xlink:href="#DejaVuSans-3e" transform="translate(689.066406 0)"/>
       <use xlink:href="#DejaVuSans-30" transform="translate(772.855469 0)"/>
       <use xlink:href="#DejaVuSans-2e" transform="translate(836.478516 0)"/>
       <use xlink:href="#DejaVuSans-39" transform="translate(868.265625 0)"/>
       <use xlink:href="#DejaVuSans-31" transform="translate(931.888672 0)"/>
      </g>
     </g>
    </g>
    <g id="xtick_3">
     <g id="line2d_3">
      <g>
       <use xlink:href="#md42b7354a3" x="157.833417" y="336.686955" style="stroke: #000000; stroke-width: 0.8"/>
      </g>
     </g>
     <g id="text_3">
      <!-- Mechinferred &gt;0.13 -->
      <g transform="translate(159.303978 349.059861) rotate(-315) scale(0.1 -0.1)">
       <defs>
        <path id="DejaVuSans-33" d="M 2597 2516 
Q 3050 2419 3304 2112 
Q 3559 1806 3559 1356 
Q 3559 666 3084 287 
Q 2609 -91 1734 -91 
Q 1441 -91 1130 -33 
Q 819 25 488 141 
L 488 750 
Q 750 597 1062 519 
Q 1375 441 1716 441 
Q 2309 441 2620 675 
Q 2931 909 2931 1356 
Q 2931 1769 2642 2001 
Q 2353 2234 1838 2234 
L 1294 2234 
L 1294 2753 
L 1863 2753 
Q 2328 2753 2575 2939 
Q 2822 3125 2822 3475 
Q 2822 3834 2567 4026 
Q 2313 4219 1838 4219 
Q 1578 4219 1281 4162 
Q 984 4106 628 3988 
L 628 4550 
Q 988 4650 1302 4700 
Q 1616 4750 1894 4750 
Q 2613 4750 3031 4423 
Q 3450 4097 3450 3541 
Q 3450 3153 3228 2886 
Q 3006 2619 2597 2516 
z
" transform="scale(0.015625)"/>
       </defs>
       <use xlink:href="#DejaVuSans-4d"/>
       <use xlink:href="#DejaVuSans-65" transform="translate(86.279297 0)"/>
       <use xlink:href="#DejaVuSans-63" transform="translate(147.802734 0)"/>
       <use xlink:href="#DejaVuSans-68" transform="translate(202.783203 0)"/>
       <use xlink:href="#DejaVuSans-69" transform="translate(266.162109 0)"/>
       <use xlink:href="#DejaVuSans-6e" transform="translate(293.945312 0)"/>
       <use xlink:href="#DejaVuSans-66" transform="translate(357.324219 0)"/>
       <use xlink:href="#DejaVuSans-65" transform="translate(392.529297 0)"/>
       <use xlink:href="#DejaVuSans-72" transform="translate(454.052734 0)"/>
       <use xlink:href="#DejaVuSans-72" transform="translate(493.416016 0)"/>
       <use xlink:href="#DejaVuSans-65" transform="translate(532.279297 0)"/>
       <use xlink:href="#DejaVuSans-64" transform="translate(593.802734 0)"/>
       <use xlink:href="#DejaVuSans-20" transform="translate(657.279297 0)"/>
       <use xlink:href="#DejaVuSans-3e" transform="translate(689.066406 0)"/>
       <use xlink:href="#DejaVuSans-30" transform="translate(772.855469 0)"/>
       <use xlink:href="#DejaVuSans-2e" transform="translate(836.478516 0)"/>
       <use xlink:href="#DejaVuSans-31" transform="translate(868.265625 0)"/>
       <use xlink:href="#DejaVuSans-33" transform="translate(931.888672 0)"/>
      </g>
     </g>
    </g>
    <g id="xtick_4">
     <g id="line2d_4">
      <g>
       <use xlink:href="#md42b7354a3" x="195.28696" y="336.686955" style="stroke: #000000; stroke-width: 0.8"/>
      </g>
     </g>
     <g id="text_4">
      <!-- Mechinferred &gt;0.04 -->
      <g transform="translate(196.757521 349.059861) rotate(-315) scale(0.1 -0.1)">
       <defs>
        <path id="DejaVuSans-34" d="M 2419 4116 
L 825 1625 
L 2419 1625 
L 2419 4116 
z
M 2253 4666 
L 3047 4666 
L 3047 1625 
L 3713 1625 
L 3713 1100 
L 3047 1100 
L 3047 0 
L 2419 0 
L 2419 1100 
L 313 1100 
L 313 1709 
L 2253 4666 
z
" transform="scale(0.015625)"/>
       </defs>
       <use xlink:href="#DejaVuSans-4d"/>
       <use xlink:href="#DejaVuSans-65" transform="translate(86.279297 0)"/>
       <use xlink:href="#DejaVuSans-63" transform="translate(147.802734 0)"/>
       <use xlink:href="#DejaVuSans-68" transform="translate(202.783203 0)"/>
       <use xlink:href="#DejaVuSans-69" transform="translate(266.162109 0)"/>
       <use xlink:href="#DejaVuSans-6e" transform="translate(293.945312 0)"/>
       <use xlink:href="#DejaVuSans-66" transform="translate(357.324219 0)"/>
       <use xlink:href="#DejaVuSans-65" transform="translate(392.529297 0)"/>
       <use xlink:href="#DejaVuSans-72" transform="translate(454.052734 0)"/>
       <use xlink:href="#DejaVuSans-72" transform="translate(493.416016 0)"/>
       <use xlink:href="#DejaVuSans-65" transform="translate(532.279297 0)"/>
       <use xlink:href="#DejaVuSans-64" transform="translate(593.802734 0)"/>
       <use xlink:href="#DejaVuSans-20" transform="translate(657.279297 0)"/>
       <use xlink:href="#DejaVuSans-3e" transform="translate(689.066406 0)"/>
       <use xlink:href="#DejaVuSans-30" transform="translate(772.855469 0)"/>
       <use xlink:href="#DejaVuSans-2e" transform="translate(836.478516 0)"/>
       <use xlink:href="#DejaVuSans-30" transform="translate(868.265625 0)"/>
       <use xlink:href="#DejaVuSans-34" transform="translate(931.888672 0)"/>
      </g>
     </g>
    </g>
    <g id="xtick_5">
     <g id="line2d_5">
      <g>
       <use xlink:href="#md42b7354a3" x="232.740503" y="336.686955" style="stroke: #000000; stroke-width: 0.8"/>
      </g>
     </g>
     <g id="text_5">
      <!-- Mechinferred &gt;0.02 -->
      <g transform="translate(234.211064 349.059861) rotate(-315) scale(0.1 -0.1)">
       <defs>
        <path id="DejaVuSans-32" d="M 1228 531 
L 3431 531 
L 3431 0 
L 469 0 
L 469 531 
Q 828 903 1448 1529 
Q 2069 2156 2228 2338 
Q 2531 2678 2651 2914 
Q 2772 3150 2772 3378 
Q 2772 3750 2511 3984 
Q 2250 4219 1831 4219 
Q 1534 4219 1204 4116 
Q 875 4013 500 3803 
L 500 4441 
Q 881 4594 1212 4672 
Q 1544 4750 1819 4750 
Q 2544 4750 2975 4387 
Q 3406 4025 3406 3419 
Q 3406 3131 3298 2873 
Q 3191 2616 2906 2266 
Q 2828 2175 2409 1742 
Q 1991 1309 1228 531 
z
" transform="scale(0.015625)"/>
       </defs>
       <use xlink:href="#DejaVuSans-4d"/>
       <use xlink:href="#DejaVuSans-65" transform="translate(86.279297 0)"/>
       <use xlink:href="#DejaVuSans-63" transform="translate(147.802734 0)"/>
       <use xlink:href="#DejaVuSans-68" transform="translate(202.783203 0)"/>
       <use xlink:href="#DejaVuSans-69" transform="translate(266.162109 0)"/>
       <use xlink:href="#DejaVuSans-6e" transform="translate(293.945312 0)"/>
       <use xlink:href="#DejaVuSans-66" transform="translate(357.324219 0)"/>
       <use xlink:href="#DejaVuSans-65" transform="translate(392.529297 0)"/>
       <use xlink:href="#DejaVuSans-72" transform="translate(454.052734 0)"/>
       <use xlink:href="#DejaVuSans-72" transform="translate(493.416016 0)"/>
       <use xlink:href="#DejaVuSans-65" transform="translate(532.279297 0)"/>
       <use xlink:href="#DejaVuSans-64" transform="translate(593.802734 0)"/>
       <use xlink:href="#DejaVuSans-20" transform="translate(657.279297 0)"/>
       <use xlink:href="#DejaVuSans-3e" transform="translate(689.066406 0)"/>
       <use xlink:href="#DejaVuSans-30" transform="translate(772.855469 0)"/>
       <use xlink:href="#DejaVuSans-2e" transform="translate(836.478516 0)"/>
       <use xlink:href="#DejaVuSans-30" transform="translate(868.265625 0)"/>
       <use xlink:href="#DejaVuSans-32" transform="translate(931.888672 0)"/>
      </g>
     </g>
    </g>
    <g id="xtick_6">
     <g id="line2d_6">
      <g>
       <use xlink:href="#md42b7354a3" x="270.194047" y="336.686955" style="stroke: #000000; stroke-width: 0.8"/>
      </g>
     </g>
     <g id="text_6">
      <!-- Mechinferred &gt;0.01 -->
      <g transform="translate(271.664608 349.059861) rotate(-315) scale(0.1 -0.1)">
       <use xlink:href="#DejaVuSans-4d"/>
       <use xlink:href="#DejaVuSans-65" transform="translate(86.279297 0)"/>
       <use xlink:href="#DejaVuSans-63" transform="translate(147.802734 0)"/>
       <use xlink:href="#DejaVuSans-68" transform="translate(202.783203 0)"/>
       <use xlink:href="#DejaVuSans-69" transform="translate(266.162109 0)"/>
       <use xlink:href="#DejaVuSans-6e" transform="translate(293.945312 0)"/>
       <use xlink:href="#DejaVuSans-66" transform="translate(357.324219 0)"/>
       <use xlink:href="#DejaVuSans-65" transform="translate(392.529297 0)"/>
       <use xlink:href="#DejaVuSans-72" transform="translate(454.052734 0)"/>
       <use xlink:href="#DejaVuSans-72" transform="translate(493.416016 0)"/>
       <use xlink:href="#DejaVuSans-65" transform="translate(532.279297 0)"/>
       <use xlink:href="#DejaVuSans-64" transform="translate(593.802734 0)"/>
       <use xlink:href="#DejaVuSans-20" transform="translate(657.279297 0)"/>
       <use xlink:href="#DejaVuSans-3e" transform="translate(689.066406 0)"/>
       <use xlink:href="#DejaVuSans-30" transform="translate(772.855469 0)"/>
       <use xlink:href="#DejaVuSans-2e" transform="translate(836.478516 0)"/>
       <use xlink:href="#DejaVuSans-30" transform="translate(868.265625 0)"/>
       <use xlink:href="#DejaVuSans-31" transform="translate(931.888672 0)"/>
      </g>
     </g>
    </g>
    <g id="xtick_7">
     <g id="line2d_7">
      <g>
       <use xlink:href="#md42b7354a3" x="307.64759" y="336.686955" style="stroke: #000000; stroke-width: 0.8"/>
      </g>
     </g>
     <g id="text_7">
      <!-- RC + 0 -->
      <g transform="translate(309.118151 349.059861) rotate(-315) scale(0.1 -0.1)">
       <defs>
        <path id="DejaVuSans-52" d="M 2841 2188 
Q 3044 2119 3236 1894 
Q 3428 1669 3622 1275 
L 4263 0 
L 3584 0 
L 2988 1197 
Q 2756 1666 2539 1819 
Q 2322 1972 1947 1972 
L 1259 1972 
L 1259 0 
L 628 0 
L 628 4666 
L 2053 4666 
Q 2853 4666 3247 4331 
Q 3641 3997 3641 3322 
Q 3641 2881 3436 2590 
Q 3231 2300 2841 2188 
z
M 1259 4147 
L 1259 2491 
L 2053 2491 
Q 2509 2491 2742 2702 
Q 2975 2913 2975 3322 
Q 2975 3731 2742 3939 
Q 2509 4147 2053 4147 
L 1259 4147 
z
" transform="scale(0.015625)"/>
        <path id="DejaVuSans-43" d="M 4122 4306 
L 4122 3641 
Q 3803 3938 3442 4084 
Q 3081 4231 2675 4231 
Q 1875 4231 1450 3742 
Q 1025 3253 1025 2328 
Q 1025 1406 1450 917 
Q 1875 428 2675 428 
Q 3081 428 3442 575 
Q 3803 722 4122 1019 
L 4122 359 
Q 3791 134 3420 21 
Q 3050 -91 2638 -91 
Q 1578 -91 968 557 
Q 359 1206 359 2328 
Q 359 3453 968 4101 
Q 1578 4750 2638 4750 
Q 3056 4750 3426 4639 
Q 3797 4528 4122 4306 
z
" transform="scale(0.015625)"/>
        <path id="DejaVuSans-2b" d="M 2944 4013 
L 2944 2272 
L 4684 2272 
L 4684 1741 
L 2944 1741 
L 2944 0 
L 2419 0 
L 2419 1741 
L 678 1741 
L 678 2272 
L 2419 2272 
L 2419 4013 
L 2944 4013 
z
" transform="scale(0.015625)"/>
       </defs>
       <use xlink:href="#DejaVuSans-52"/>
       <use xlink:href="#DejaVuSans-43" transform="translate(64.482422 0)"/>
       <use xlink:href="#DejaVuSans-20" transform="translate(134.306641 0)"/>
       <use xlink:href="#DejaVuSans-2b" transform="translate(166.09375 0)"/>
       <use xlink:href="#DejaVuSans-20" transform="translate(249.882812 0)"/>
       <use xlink:href="#DejaVuSans-30" transform="translate(281.669922 0)"/>
      </g>
     </g>
    </g>
    <g id="xtick_8">
     <g id="line2d_8">
      <g>
       <use xlink:href="#md42b7354a3" x="345.101133" y="336.686955" style="stroke: #000000; stroke-width: 0.8"/>
      </g>
     </g>
     <g id="text_8">
      <!-- RC + 1 -->
      <g transform="translate(346.571694 349.059861) rotate(-315) scale(0.1 -0.1)">
       <use xlink:href="#DejaVuSans-52"/>
       <use xlink:href="#DejaVuSans-43" transform="translate(64.482422 0)"/>
       <use xlink:href="#DejaVuSans-20" transform="translate(134.306641 0)"/>
       <use xlink:href="#DejaVuSans-2b" transform="translate(166.09375 0)"/>
       <use xlink:href="#DejaVuSans-20" transform="translate(249.882812 0)"/>
       <use xlink:href="#DejaVuSans-31" transform="translate(281.669922 0)"/>
      </g>
     </g>
    </g>
    <g id="xtick_9">
     <g id="line2d_9">
      <g>
       <use xlink:href="#md42b7354a3" x="382.554676" y="336.686955" style="stroke: #000000; stroke-width: 0.8"/>
      </g>
     </g>
     <g id="text_9">
      <!-- RC + 2 -->
      <g transform="translate(384.025237 349.059861) rotate(-315) scale(0.1 -0.1)">
       <use xlink:href="#DejaVuSans-52"/>
       <use xlink:href="#DejaVuSans-43" transform="translate(64.482422 0)"/>
       <use xlink:href="#DejaVuSans-20" transform="translate(134.306641 0)"/>
       <use xlink:href="#DejaVuSans-2b" transform="translate(166.09375 0)"/>
       <use xlink:href="#DejaVuSans-20" transform="translate(249.882812 0)"/>
       <use xlink:href="#DejaVuSans-32" transform="translate(281.669922 0)"/>
      </g>
     </g>
    </g>
    <g id="xtick_10">
     <g id="line2d_10">
      <g>
       <use xlink:href="#md42b7354a3" x="420.008219" y="336.686955" style="stroke: #000000; stroke-width: 0.8"/>
      </g>
     </g>
     <g id="text_10">
      <!-- RC + 3 -->
      <g transform="translate(421.47878 349.059861) rotate(-315) scale(0.1 -0.1)">
       <use xlink:href="#DejaVuSans-52"/>
       <use xlink:href="#DejaVuSans-43" transform="translate(64.482422 0)"/>
       <use xlink:href="#DejaVuSans-20" transform="translate(134.306641 0)"/>
       <use xlink:href="#DejaVuSans-2b" transform="translate(166.09375 0)"/>
       <use xlink:href="#DejaVuSans-20" transform="translate(249.882812 0)"/>
       <use xlink:href="#DejaVuSans-33" transform="translate(281.669922 0)"/>
      </g>
     </g>
    </g>
    <g id="xtick_11">
     <g id="line2d_11">
      <g>
       <use xlink:href="#md42b7354a3" x="457.461763" y="336.686955" style="stroke: #000000; stroke-width: 0.8"/>
      </g>
     </g>
     <g id="text_11">
      <!-- RC + 4 -->
      <g transform="translate(458.932324 349.059861) rotate(-315) scale(0.1 -0.1)">
       <use xlink:href="#DejaVuSans-52"/>
       <use xlink:href="#DejaVuSans-43" transform="translate(64.482422 0)"/>
       <use xlink:href="#DejaVuSans-20" transform="translate(134.306641 0)"/>
       <use xlink:href="#DejaVuSans-2b" transform="translate(166.09375 0)"/>
       <use xlink:href="#DejaVuSans-20" transform="translate(249.882812 0)"/>
       <use xlink:href="#DejaVuSans-34" transform="translate(281.669922 0)"/>
      </g>
     </g>
    </g>
   </g>
   <g id="matplotlib.axis_2">
    <g id="ytick_1">
     <g id="line2d_12">
      <defs>
       <path id="m5dd2185b6a" d="M 0 0 
L -3.5 0 
" style="stroke: #000000; stroke-width: 0.8"/>
      </defs>
      <g>
       <use xlink:href="#m5dd2185b6a" x="47.72" y="321.873911" style="stroke: #000000; stroke-width: 0.8"/>
      </g>
     </g>
     <g id="text_12">
      <!-- 0.0 -->
      <g transform="translate(24.816875 325.67313) scale(0.1 -0.1)">
       <use xlink:href="#DejaVuSans-30"/>
       <use xlink:href="#DejaVuSans-2e" transform="translate(63.623047 0)"/>
       <use xlink:href="#DejaVuSans-30" transform="translate(95.410156 0)"/>
      </g>
     </g>
    </g>
    <g id="ytick_2">
     <g id="line2d_13">
      <g>
       <use xlink:href="#m5dd2185b6a" x="47.72" y="262.621738" style="stroke: #000000; stroke-width: 0.8"/>
      </g>
     </g>
     <g id="text_13">
      <!-- 0.2 -->
      <g transform="translate(24.816875 266.420956) scale(0.1 -0.1)">
       <use xlink:href="#DejaVuSans-30"/>
       <use xlink:href="#DejaVuSans-2e" transform="translate(63.623047 0)"/>
       <use xlink:href="#DejaVuSans-32" transform="translate(95.410156 0)"/>
      </g>
     </g>
    </g>
    <g id="ytick_3">
     <g id="line2d_14">
      <g>
       <use xlink:href="#m5dd2185b6a" x="47.72" y="203.369564" style="stroke: #000000; stroke-width: 0.8"/>
      </g>
     </g>
     <g id="text_14">
      <!-- 0.4 -->
      <g transform="translate(24.816875 207.168783) scale(0.1 -0.1)">
       <use xlink:href="#DejaVuSans-30"/>
       <use xlink:href="#DejaVuSans-2e" transform="translate(63.623047 0)"/>
       <use xlink:href="#DejaVuSans-34" transform="translate(95.410156 0)"/>
      </g>
     </g>
    </g>
    <g id="ytick_4">
     <g id="line2d_15">
      <g>
       <use xlink:href="#m5dd2185b6a" x="47.72" y="144.117391" style="stroke: #000000; stroke-width: 0.8"/>
      </g>
     </g>
     <g id="text_15">
      <!-- 0.6 -->
      <g transform="translate(24.816875 147.916609) scale(0.1 -0.1)">
       <defs>
        <path id="DejaVuSans-36" d="M 2113 2584 
Q 1688 2584 1439 2293 
Q 1191 2003 1191 1497 
Q 1191 994 1439 701 
Q 1688 409 2113 409 
Q 2538 409 2786 701 
Q 3034 994 3034 1497 
Q 3034 2003 2786 2293 
Q 2538 2584 2113 2584 
z
M 3366 4563 
L 3366 3988 
Q 3128 4100 2886 4159 
Q 2644 4219 2406 4219 
Q 1781 4219 1451 3797 
Q 1122 3375 1075 2522 
Q 1259 2794 1537 2939 
Q 1816 3084 2150 3084 
Q 2853 3084 3261 2657 
Q 3669 2231 3669 1497 
Q 3669 778 3244 343 
Q 2819 -91 2113 -91 
Q 1303 -91 875 529 
Q 447 1150 447 2328 
Q 447 3434 972 4092 
Q 1497 4750 2381 4750 
Q 2619 4750 2861 4703 
Q 3103 4656 3366 4563 
z
" transform="scale(0.015625)"/>
       </defs>
       <use xlink:href="#DejaVuSans-30"/>
       <use xlink:href="#DejaVuSans-2e" transform="translate(63.623047 0)"/>
       <use xlink:href="#DejaVuSans-36" transform="translate(95.410156 0)"/>
      </g>
     </g>
    </g>
    <g id="ytick_5">
     <g id="line2d_16">
      <g>
       <use xlink:href="#m5dd2185b6a" x="47.72" y="84.865217" style="stroke: #000000; stroke-width: 0.8"/>
      </g>
     </g>
     <g id="text_16">
      <!-- 0.8 -->
      <g transform="translate(24.816875 88.664436) scale(0.1 -0.1)">
       <defs>
        <path id="DejaVuSans-38" d="M 2034 2216 
Q 1584 2216 1326 1975 
Q 1069 1734 1069 1313 
Q 1069 891 1326 650 
Q 1584 409 2034 409 
Q 2484 409 2743 651 
Q 3003 894 3003 1313 
Q 3003 1734 2745 1975 
Q 2488 2216 2034 2216 
z
M 1403 2484 
Q 997 2584 770 2862 
Q 544 3141 544 3541 
Q 544 4100 942 4425 
Q 1341 4750 2034 4750 
Q 2731 4750 3128 4425 
Q 3525 4100 3525 3541 
Q 3525 3141 3298 2862 
Q 3072 2584 2669 2484 
Q 3125 2378 3379 2068 
Q 3634 1759 3634 1313 
Q 3634 634 3220 271 
Q 2806 -91 2034 -91 
Q 1263 -91 848 271 
Q 434 634 434 1313 
Q 434 1759 690 2068 
Q 947 2378 1403 2484 
z
M 1172 3481 
Q 1172 3119 1398 2916 
Q 1625 2713 2034 2713 
Q 2441 2713 2670 2916 
Q 2900 3119 2900 3481 
Q 2900 3844 2670 4047 
Q 2441 4250 2034 4250 
Q 1625 4250 1398 4047 
Q 1172 3844 1172 3481 
z
" transform="scale(0.015625)"/>
       </defs>
       <use xlink:href="#DejaVuSans-30"/>
       <use xlink:href="#DejaVuSans-2e" transform="translate(63.623047 0)"/>
       <use xlink:href="#DejaVuSans-38" transform="translate(95.410156 0)"/>
      </g>
     </g>
    </g>
    <g id="ytick_6">
     <g id="line2d_17">
      <g>
       <use xlink:href="#m5dd2185b6a" x="47.72" y="25.613043" style="stroke: #000000; stroke-width: 0.8"/>
      </g>
     </g>
     <g id="text_17">
      <!-- 1.0 -->
      <g transform="translate(24.816875 29.412262) scale(0.1 -0.1)">
       <use xlink:href="#DejaVuSans-31"/>
       <use xlink:href="#DejaVuSans-2e" transform="translate(63.623047 0)"/>
       <use xlink:href="#DejaVuSans-30" transform="translate(95.410156 0)"/>
      </g>
     </g>
    </g>
    <g id="text_18">
     <!-- Maximum similarity to known reaction -->
     <g transform="translate(18.737188 269.616915) rotate(-90) scale(0.1 -0.1)">
      <defs>
       <path id="DejaVuSans-61" d="M 2194 1759 
Q 1497 1759 1228 1600 
Q 959 1441 959 1056 
Q 959 750 1161 570 
Q 1363 391 1709 391 
Q 2188 391 2477 730 
Q 2766 1069 2766 1631 
L 2766 1759 
L 2194 1759 
z
M 3341 1997 
L 3341 0 
L 2766 0 
L 2766 531 
Q 2569 213 2275 61 
Q 1981 -91 1556 -91 
Q 1019 -91 701 211 
Q 384 513 384 1019 
Q 384 1609 779 1909 
Q 1175 2209 1959 2209 
L 2766 2209 
L 2766 2266 
Q 2766 2663 2505 2880 
Q 2244 3097 1772 3097 
Q 1472 3097 1187 3025 
Q 903 2953 641 2809 
L 641 3341 
Q 956 3463 1253 3523 
Q 1550 3584 1831 3584 
Q 2591 3584 2966 3190 
Q 3341 2797 3341 1997 
z
" transform="scale(0.015625)"/>
       <path id="DejaVuSans-78" d="M 3513 3500 
L 2247 1797 
L 3578 0 
L 2900 0 
L 1881 1375 
L 863 0 
L 184 0 
L 1544 1831 
L 300 3500 
L 978 3500 
L 1906 2253 
L 2834 3500 
L 3513 3500 
z
" transform="scale(0.015625)"/>
       <path id="DejaVuSans-75" d="M 544 1381 
L 544 3500 
L 1119 3500 
L 1119 1403 
Q 1119 906 1312 657 
Q 1506 409 1894 409 
Q 2359 409 2629 706 
Q 2900 1003 2900 1516 
L 2900 3500 
L 3475 3500 
L 3475 0 
L 2900 0 
L 2900 538 
Q 2691 219 2414 64 
Q 2138 -91 1772 -91 
Q 1169 -91 856 284 
Q 544 659 544 1381 
z
M 1991 3584 
L 1991 3584 
z
" transform="scale(0.015625)"/>
       <path id="DejaVuSans-73" d="M 2834 3397 
L 2834 2853 
Q 2591 2978 2328 3040 
Q 2066 3103 1784 3103 
Q 1356 3103 1142 2972 
Q 928 2841 928 2578 
Q 928 2378 1081 2264 
Q 1234 2150 1697 2047 
L 1894 2003 
Q 2506 1872 2764 1633 
Q 3022 1394 3022 966 
Q 3022 478 2636 193 
Q 2250 -91 1575 -91 
Q 1294 -91 989 -36 
Q 684 19 347 128 
L 347 722 
Q 666 556 975 473 
Q 1284 391 1588 391 
Q 1994 391 2212 530 
Q 2431 669 2431 922 
Q 2431 1156 2273 1281 
Q 2116 1406 1581 1522 
L 1381 1569 
Q 847 1681 609 1914 
Q 372 2147 372 2553 
Q 372 3047 722 3315 
Q 1072 3584 1716 3584 
Q 2034 3584 2315 3537 
Q 2597 3491 2834 3397 
z
" transform="scale(0.015625)"/>
       <path id="DejaVuSans-6c" d="M 603 4863 
L 1178 4863 
L 1178 0 
L 603 0 
L 603 4863 
z
" transform="scale(0.015625)"/>
       <path id="DejaVuSans-74" d="M 1172 4494 
L 1172 3500 
L 2356 3500 
L 2356 3053 
L 1172 3053 
L 1172 1153 
Q 1172 725 1289 603 
Q 1406 481 1766 481 
L 2356 481 
L 2356 0 
L 1766 0 
Q 1100 0 847 248 
Q 594 497 594 1153 
L 594 3053 
L 172 3053 
L 172 3500 
L 594 3500 
L 594 4494 
L 1172 4494 
z
" transform="scale(0.015625)"/>
       <path id="DejaVuSans-79" d="M 2059 -325 
Q 1816 -950 1584 -1140 
Q 1353 -1331 966 -1331 
L 506 -1331 
L 506 -850 
L 844 -850 
Q 1081 -850 1212 -737 
Q 1344 -625 1503 -206 
L 1606 56 
L 191 3500 
L 800 3500 
L 1894 763 
L 2988 3500 
L 3597 3500 
L 2059 -325 
z
" transform="scale(0.015625)"/>
       <path id="DejaVuSans-6b" d="M 581 4863 
L 1159 4863 
L 1159 1991 
L 2875 3500 
L 3609 3500 
L 1753 1863 
L 3688 0 
L 2938 0 
L 1159 1709 
L 1159 0 
L 581 0 
L 581 4863 
z
" transform="scale(0.015625)"/>
       <path id="DejaVuSans-77" d="M 269 3500 
L 844 3500 
L 1563 769 
L 2278 3500 
L 2956 3500 
L 3675 769 
L 4391 3500 
L 4966 3500 
L 4050 0 
L 3372 0 
L 2619 2869 
L 1863 0 
L 1184 0 
L 269 3500 
z
" transform="scale(0.015625)"/>
      </defs>
      <use xlink:href="#DejaVuSans-4d"/>
      <use xlink:href="#DejaVuSans-61" transform="translate(86.279297 0)"/>
      <use xlink:href="#DejaVuSans-78" transform="translate(147.558594 0)"/>
      <use xlink:href="#DejaVuSans-69" transform="translate(206.738281 0)"/>
      <use xlink:href="#DejaVuSans-6d" transform="translate(234.521484 0)"/>
      <use xlink:href="#DejaVuSans-75" transform="translate(331.933594 0)"/>
      <use xlink:href="#DejaVuSans-6d" transform="translate(395.3125 0)"/>
      <use xlink:href="#DejaVuSans-20" transform="translate(492.724609 0)"/>
      <use xlink:href="#DejaVuSans-73" transform="translate(524.511719 0)"/>
      <use xlink:href="#DejaVuSans-69" transform="translate(576.611328 0)"/>
      <use xlink:href="#DejaVuSans-6d" transform="translate(604.394531 0)"/>
      <use xlink:href="#DejaVuSans-69" transform="translate(701.806641 0)"/>
      <use xlink:href="#DejaVuSans-6c" transform="translate(729.589844 0)"/>
      <use xlink:href="#DejaVuSans-61" transform="translate(757.373047 0)"/>
      <use xlink:href="#DejaVuSans-72" transform="translate(818.652344 0)"/>
      <use xlink:href="#DejaVuSans-69" transform="translate(859.765625 0)"/>
      <use xlink:href="#DejaVuSans-74" transform="translate(887.548828 0)"/>
      <use xlink:href="#DejaVuSans-79" transform="translate(926.757812 0)"/>
      <use xlink:href="#DejaVuSans-20" transform="translate(985.9375 0)"/>
      <use xlink:href="#DejaVuSans-74" transform="translate(1017.724609 0)"/>
      <use xlink:href="#DejaVuSans-6f" transform="translate(1056.933594 0)"/>
      <use xlink:href="#DejaVuSans-20" transform="translate(1118.115234 0)"/>
      <use xlink:href="#DejaVuSans-6b" transform="translate(1149.902344 0)"/>
      <use xlink:href="#DejaVuSans-6e" transform="translate(1207.8125 0)"/>
      <use xlink:href="#DejaVuSans-6f" transform="translate(1271.191406 0)"/>
      <use xlink:href="#DejaVuSans-77" transform="translate(1332.373047 0)"/>
      <use xlink:href="#DejaVuSans-6e" transform="translate(1414.160156 0)"/>
      <use xlink:href="#DejaVuSans-20" transform="translate(1477.539062 0)"/>
      <use xlink:href="#DejaVuSans-72" transform="translate(1509.326172 0)"/>
      <use xlink:href="#DejaVuSans-65" transform="translate(1548.189453 0)"/>
      <use xlink:href="#DejaVuSans-61" transform="translate(1609.712891 0)"/>
      <use xlink:href="#DejaVuSans-63" transform="translate(1670.992188 0)"/>
      <use xlink:href="#DejaVuSans-74" transform="translate(1725.972656 0)"/>
      <use xlink:href="#DejaVuSans-69" transform="translate(1765.181641 0)"/>
      <use xlink:href="#DejaVuSans-6f" transform="translate(1792.964844 0)"/>
      <use xlink:href="#DejaVuSans-6e" transform="translate(1854.146484 0)"/>
     </g>
    </g>
   </g>
   <g id="LineCollection_1">
    <path d="M 75.435622 79.977926 
L 90.417039 79.977926 
" clip-path="url(#pce67350f1d)" style="fill: none; stroke: #ff0000; stroke-width: 1.5"/>
    <path d="M 112.889165 117.217808 
L 127.870582 117.217808 
" clip-path="url(#pce67350f1d)" style="fill: none; stroke: #ff0000; stroke-width: 1.5"/>
    <path d="M 150.342708 90.577109 
L 165.324126 90.577109 
" clip-path="url(#pce67350f1d)" style="fill: none; stroke: #ff0000; stroke-width: 1.5"/>
    <path d="M 187.796252 80.813493 
L 202.777669 80.813493 
" clip-path="url(#pce67350f1d)" style="fill: none; stroke: #ff0000; stroke-width: 1.5"/>
    <path d="M 225.249795 78.065675 
L 240.231212 78.065675 
" clip-path="url(#pce67350f1d)" style="fill: none; stroke: #ff0000; stroke-width: 1.5"/>
    <path d="M 262.703338 78.065675 
L 277.684755 78.065675 
" clip-path="url(#pce67350f1d)" style="fill: none; stroke: #ff0000; stroke-width: 1.5"/>
    <path d="M 300.156881 252.957396 
L 315.138298 252.957396 
" clip-path="url(#pce67350f1d)" style="fill: none; stroke: #ff0000; stroke-width: 1.5"/>
    <path d="M 337.610424 72.044812 
L 352.591842 72.044812 
" clip-path="url(#pce67350f1d)" style="fill: none; stroke: #ff0000; stroke-width: 1.5"/>
    <path d="M 375.063967 59.79699 
L 390.045385 59.79699 
" clip-path="url(#pce67350f1d)" style="fill: none; stroke: #ff0000; stroke-width: 1.5"/>
    <path d="M 412.517511 72.044812 
L 427.498928 72.044812 
" clip-path="url(#pce67350f1d)" style="fill: none; stroke: #ff0000; stroke-width: 1.5"/>
    <path d="M 449.971054 72.044812 
L 464.952471 72.044812 
" clip-path="url(#pce67350f1d)" style="fill: none; stroke: #ff0000; stroke-width: 1.5"/>
   </g>
   <g id="patch_3">
    <path d="M 47.72 336.686955 
L 47.72 10.8 
" style="fill: none; stroke: #000000; stroke-width: 0.8; stroke-linejoin: miter; stroke-linecap: square"/>
   </g>
   <g id="patch_4">
    <path d="M 492.668093 336.686955 
L 492.668093 10.8 
" style="fill: none; stroke: #000000; stroke-width: 0.8; stroke-linejoin: miter; stroke-linecap: square"/>
   </g>
   <g id="patch_5">
    <path d="M 47.72 336.686955 
L 492.668093 336.686955 
" style="fill: none; stroke: #000000; stroke-width: 0.8; stroke-linejoin: miter; stroke-linecap: square"/>
   </g>
   <g id="patch_6">
    <path d="M 47.72 10.8 
L 492.668093 10.8 
" style="fill: none; stroke: #000000; stroke-width: 0.8; stroke-linejoin: miter; stroke-linecap: square"/>
   </g>
  </g>
 </g>
 <defs>
  <clipPath id="pce67350f1d">
   <rect x="47.72" y="10.8" width="444.948093" height="325.886955"/>
  </clipPath>
 </defs>
</svg>
