<?xml version="1.0" encoding="utf-8" standalone="no"?>
<!DOCTYPE svg PUBLIC "-//W3C//DTD SVG 1.1//EN"
  "http://www.w3.org/Graphics/SVG/1.1/DTD/svg11.dtd">
<svg xmlns:xlink="http://www.w3.org/1999/xlink" width="460.8pt" height="345.6pt" viewBox="0 0 460.8 345.6" xmlns="http://www.w3.org/2000/svg" version="1.1">
 <metadata>
  <rdf:RDF xmlns:dc="http://purl.org/dc/elements/1.1/" xmlns:cc="http://creativecommons.org/ns#" xmlns:rdf="http://www.w3.org/1999/02/22-rdf-syntax-ns#">
   <cc:Work>
    <dc:type rdf:resource="http://purl.org/dc/dcmitype/StillImage"/>
    <dc:date>2025-11-03T11:42:49.372675</dc:date>
    <dc:format>image/svg+xml</dc:format>
    <dc:creator>
     <cc:Agent>
      <dc:title>Matplotlib v3.10.1, https://matplotlib.org/</dc:title>
     </cc:Agent>
    </dc:creator>
   </cc:Work>
  </rdf:RDF>
 </metadata>
 <defs>
  <style type="text/css">*{stroke-linejoin: round; stroke-linecap: butt}</style>
 </defs>
 <g id="figure_1">
  <g id="patch_1">
   <path d="M 0 345.6 
L 460.8 345.6 
L 460.8 0 
L 0 0 
z
" style="fill: #ffffff"/>
  </g>
  <g id="axes_1">
   <g id="patch_2">
    <path d="M 47.72 303.64 
L 450 303.64 
L 450 10.8 
L 47.72 10.8 
z
" style="fill: #ffffff"/>
   </g>
   <g id="matplotlib.axis_1">
    <g id="xtick_1">
     <g id="line2d_1">
      <path d="M 47.72 303.64 
L 47.72 10.8 
" clip-path="url(#p029c865a83)" style="fill: none; stroke: #b0b0b0; stroke-width: 0.8; stroke-linecap: square"/>
     </g>
     <g id="line2d_2">
      <defs>
       <path id="mb788dcfc12" d="M 0 0 
L 0 3.5 
" style="stroke: #000000; stroke-width: 0.8"/>
      </defs>
      <g>
       <use xlink:href="#mb788dcfc12" x="47.72" y="303.64" style="stroke: #000000; stroke-width: 0.8"/>
      </g>
     </g>
     <g id="text_1">
      <!-- 0.5 -->
      <g transform="translate(39.768438 318.238437) scale(0.1 -0.1)">
       <defs>
        <path id="DejaVuSans-30" d="M 2034 4250 
Q 1547 4250 1301 3770 
Q 1056 3291 1056 2328 
Q 1056 1369 1301 889 
Q 1547 409 2034 409 
Q 2525 409 2770 889 
Q 3016 1369 3016 2328 
Q 3016 3291 2770 3770 
Q 2525 4250 2034 4250 
z
M 2034 4750 
Q 2819 4750 3233 4129 
Q 3647 3509 3647 2328 
Q 3647 1150 3233 529 
Q 2819 -91 2034 -91 
Q 1250 -91 836 529 
Q 422 1150 422 2328 
Q 422 3509 836 4129 
Q 1250 4750 2034 4750 
z
" transform="scale(0.015625)"/>
        <path id="DejaVuSans-2e" d="M 684 794 
L 1344 794 
L 1344 0 
L 684 0 
L 684 794 
z
" transform="scale(0.015625)"/>
        <path id="DejaVuSans-35" d="M 691 4666 
L 3169 4666 
L 3169 4134 
L 1269 4134 
L 1269 2991 
Q 1406 3038 1543 3061 
Q 1681 3084 1819 3084 
Q 2600 3084 3056 2656 
Q 3513 2228 3513 1497 
Q 3513 744 3044 326 
Q 2575 -91 1722 -91 
Q 1428 -91 1123 -41 
Q 819 9 494 109 
L 494 744 
Q 775 591 1075 516 
Q 1375 441 1709 441 
Q 2250 441 2565 725 
Q 2881 1009 2881 1497 
Q 2881 1984 2565 2268 
Q 2250 2553 1709 2553 
Q 1456 2553 1204 2497 
Q 953 2441 691 2322 
L 691 4666 
z
" transform="scale(0.015625)"/>
       </defs>
       <use xlink:href="#DejaVuSans-30"/>
       <use xlink:href="#DejaVuSans-2e" transform="translate(63.623047 0)"/>
       <use xlink:href="#DejaVuSans-35" transform="translate(95.410156 0)"/>
      </g>
     </g>
    </g>
    <g id="xtick_2">
     <g id="line2d_3">
      <path d="M 120.861818 303.64 
L 120.861818 10.8 
" clip-path="url(#p029c865a83)" style="fill: none; stroke: #b0b0b0; stroke-width: 0.8; stroke-linecap: square"/>
     </g>
     <g id="line2d_4">
      <g>
       <use xlink:href="#mb788dcfc12" x="120.861818" y="303.64" style="stroke: #000000; stroke-width: 0.8"/>
      </g>
     </g>
     <g id="text_2">
      <!-- 0.6 -->
      <g transform="translate(112.910256 318.238437) scale(0.1 -0.1)">
       <defs>
        <path id="DejaVuSans-36" d="M 2113 2584 
Q 1688 2584 1439 2293 
Q 1191 2003 1191 1497 
Q 1191 994 1439 701 
Q 1688 409 2113 409 
Q 2538 409 2786 701 
Q 3034 994 3034 1497 
Q 3034 2003 2786 2293 
Q 2538 2584 2113 2584 
z
M 3366 4563 
L 3366 3988 
Q 3128 4100 2886 4159 
Q 2644 4219 2406 4219 
Q 1781 4219 1451 3797 
Q 1122 3375 1075 2522 
Q 1259 2794 1537 2939 
Q 1816 3084 2150 3084 
Q 2853 3084 3261 2657 
Q 3669 2231 3669 1497 
Q 3669 778 3244 343 
Q 2819 -91 2113 -91 
Q 1303 -91 875 529 
Q 447 1150 447 2328 
Q 447 3434 972 4092 
Q 1497 4750 2381 4750 
Q 2619 4750 2861 4703 
Q 3103 4656 3366 4563 
z
" transform="scale(0.015625)"/>
       </defs>
       <use xlink:href="#DejaVuSans-30"/>
       <use xlink:href="#DejaVuSans-2e" transform="translate(63.623047 0)"/>
       <use xlink:href="#DejaVuSans-36" transform="translate(95.410156 0)"/>
      </g>
     </g>
    </g>
    <g id="xtick_3">
     <g id="line2d_5">
      <path d="M 194.003636 303.64 
L 194.003636 10.8 
" clip-path="url(#p029c865a83)" style="fill: none; stroke: #b0b0b0; stroke-width: 0.8; stroke-linecap: square"/>
     </g>
     <g id="line2d_6">
      <g>
       <use xlink:href="#mb788dcfc12" x="194.003636" y="303.64" style="stroke: #000000; stroke-width: 0.8"/>
      </g>
     </g>
     <g id="text_3">
      <!-- 0.7 -->
      <g transform="translate(186.052074 318.238437) scale(0.1 -0.1)">
       <defs>
        <path id="DejaVuSans-37" d="M 525 4666 
L 3525 4666 
L 3525 4397 
L 1831 0 
L 1172 0 
L 2766 4134 
L 525 4134 
L 525 4666 
z
" transform="scale(0.015625)"/>
       </defs>
       <use xlink:href="#DejaVuSans-30"/>
       <use xlink:href="#DejaVuSans-2e" transform="translate(63.623047 0)"/>
       <use xlink:href="#DejaVuSans-37" transform="translate(95.410156 0)"/>
      </g>
     </g>
    </g>
    <g id="xtick_4">
     <g id="line2d_7">
      <path d="M 267.145455 303.64 
L 267.145455 10.8 
" clip-path="url(#p029c865a83)" style="fill: none; stroke: #b0b0b0; stroke-width: 0.8; stroke-linecap: square"/>
     </g>
     <g id="line2d_8">
      <g>
       <use xlink:href="#mb788dcfc12" x="267.145455" y="303.64" style="stroke: #000000; stroke-width: 0.8"/>
      </g>
     </g>
     <g id="text_4">
      <!-- 0.8 -->
      <g transform="translate(259.193892 318.238437) scale(0.1 -0.1)">
       <defs>
        <path id="DejaVuSans-38" d="M 2034 2216 
Q 1584 2216 1326 1975 
Q 1069 1734 1069 1313 
Q 1069 891 1326 650 
Q 1584 409 2034 409 
Q 2484 409 2743 651 
Q 3003 894 3003 1313 
Q 3003 1734 2745 1975 
Q 2488 2216 2034 2216 
z
M 1403 2484 
Q 997 2584 770 2862 
Q 544 3141 544 3541 
Q 544 4100 942 4425 
Q 1341 4750 2034 4750 
Q 2731 4750 3128 4425 
Q 3525 4100 3525 3541 
Q 3525 3141 3298 2862 
Q 3072 2584 2669 2484 
Q 3125 2378 3379 2068 
Q 3634 1759 3634 1313 
Q 3634 634 3220 271 
Q 2806 -91 2034 -91 
Q 1263 -91 848 271 
Q 434 634 434 1313 
Q 434 1759 690 2068 
Q 947 2378 1403 2484 
z
M 1172 3481 
Q 1172 3119 1398 2916 
Q 1625 2713 2034 2713 
Q 2441 2713 2670 2916 
Q 2900 3119 2900 3481 
Q 2900 3844 2670 4047 
Q 2441 4250 2034 4250 
Q 1625 4250 1398 4047 
Q 1172 3844 1172 3481 
z
" transform="scale(0.015625)"/>
       </defs>
       <use xlink:href="#DejaVuSans-30"/>
       <use xlink:href="#DejaVuSans-2e" transform="translate(63.623047 0)"/>
       <use xlink:href="#DejaVuSans-38" transform="translate(95.410156 0)"/>
      </g>
     </g>
    </g>
    <g id="xtick_5">
     <g id="line2d_9">
      <path d="M 340.287273 303.64 
L 340.287273 10.8 
" clip-path="url(#p029c865a83)" style="fill: none; stroke: #b0b0b0; stroke-width: 0.8; stroke-linecap: square"/>
     </g>
     <g id="line2d_10">
      <g>
       <use xlink:href="#mb788dcfc12" x="340.287273" y="303.64" style="stroke: #000000; stroke-width: 0.8"/>
      </g>
     </g>
     <g id="text_5">
      <!-- 0.9 -->
      <g transform="translate(332.33571 318.238437) scale(0.1 -0.1)">
       <defs>
        <path id="DejaVuSans-39" d="M 703 97 
L 703 672 
Q 941 559 1184 500 
Q 1428 441 1663 441 
Q 2288 441 2617 861 
Q 2947 1281 2994 2138 
Q 2813 1869 2534 1725 
Q 2256 1581 1919 1581 
Q 1219 1581 811 2004 
Q 403 2428 403 3163 
Q 403 3881 828 4315 
Q 1253 4750 1959 4750 
Q 2769 4750 3195 4129 
Q 3622 3509 3622 2328 
Q 3622 1225 3098 567 
Q 2575 -91 1691 -91 
Q 1453 -91 1209 -44 
Q 966 3 703 97 
z
M 1959 2075 
Q 2384 2075 2632 2365 
Q 2881 2656 2881 3163 
Q 2881 3666 2632 3958 
Q 2384 4250 1959 4250 
Q 1534 4250 1286 3958 
Q 1038 3666 1038 3163 
Q 1038 2656 1286 2365 
Q 1534 2075 1959 2075 
z
" transform="scale(0.015625)"/>
       </defs>
       <use xlink:href="#DejaVuSans-30"/>
       <use xlink:href="#DejaVuSans-2e" transform="translate(63.623047 0)"/>
       <use xlink:href="#DejaVuSans-39" transform="translate(95.410156 0)"/>
      </g>
     </g>
    </g>
    <g id="xtick_6">
     <g id="line2d_11">
      <path d="M 413.429091 303.64 
L 413.429091 10.8 
" clip-path="url(#p029c865a83)" style="fill: none; stroke: #b0b0b0; stroke-width: 0.8; stroke-linecap: square"/>
     </g>
     <g id="line2d_12">
      <g>
       <use xlink:href="#mb788dcfc12" x="413.429091" y="303.64" style="stroke: #000000; stroke-width: 0.8"/>
      </g>
     </g>
     <g id="text_6">
      <!-- 1.0 -->
      <g transform="translate(405.477528 318.238437) scale(0.1 -0.1)">
       <defs>
        <path id="DejaVuSans-31" d="M 794 531 
L 1825 531 
L 1825 4091 
L 703 3866 
L 703 4441 
L 1819 4666 
L 2450 4666 
L 2450 531 
L 3481 531 
L 3481 0 
L 794 0 
L 794 531 
z
" transform="scale(0.015625)"/>
       </defs>
       <use xlink:href="#DejaVuSans-31"/>
       <use xlink:href="#DejaVuSans-2e" transform="translate(63.623047 0)"/>
       <use xlink:href="#DejaVuSans-30" transform="translate(95.410156 0)"/>
      </g>
     </g>
    </g>
    <g id="text_7">
     <!-- Atom Recall -->
     <g transform="translate(219.131094 331.916562) scale(0.1 -0.1)">
      <defs>
       <path id="DejaVuSans-41" d="M 2188 4044 
L 1331 1722 
L 3047 1722 
L 2188 4044 
z
M 1831 4666 
L 2547 4666 
L 4325 0 
L 3669 0 
L 3244 1197 
L 1141 1197 
L 716 0 
L 50 0 
L 1831 4666 
z
" transform="scale(0.015625)"/>
       <path id="DejaVuSans-74" d="M 1172 4494 
L 1172 3500 
L 2356 3500 
L 2356 3053 
L 1172 3053 
L 1172 1153 
Q 1172 725 1289 603 
Q 1406 481 1766 481 
L 2356 481 
L 2356 0 
L 1766 0 
Q 1100 0 847 248 
Q 594 497 594 1153 
L 594 3053 
L 172 3053 
L 172 3500 
L 594 3500 
L 594 4494 
L 1172 4494 
z
" transform="scale(0.015625)"/>
       <path id="DejaVuSans-6f" d="M 1959 3097 
Q 1497 3097 1228 2736 
Q 959 2375 959 1747 
Q 959 1119 1226 758 
Q 1494 397 1959 397 
Q 2419 397 2687 759 
Q 2956 1122 2956 1747 
Q 2956 2369 2687 2733 
Q 2419 3097 1959 3097 
z
M 1959 3584 
Q 2709 3584 3137 3096 
Q 3566 2609 3566 1747 
Q 3566 888 3137 398 
Q 2709 -91 1959 -91 
Q 1206 -91 779 398 
Q 353 888 353 1747 
Q 353 2609 779 3096 
Q 1206 3584 1959 3584 
z
" transform="scale(0.015625)"/>
       <path id="DejaVuSans-6d" d="M 3328 2828 
Q 3544 3216 3844 3400 
Q 4144 3584 4550 3584 
Q 5097 3584 5394 3201 
Q 5691 2819 5691 2113 
L 5691 0 
L 5113 0 
L 5113 2094 
Q 5113 2597 4934 2840 
Q 4756 3084 4391 3084 
Q 3944 3084 3684 2787 
Q 3425 2491 3425 1978 
L 3425 0 
L 2847 0 
L 2847 2094 
Q 2847 2600 2669 2842 
Q 2491 3084 2119 3084 
Q 1678 3084 1418 2786 
Q 1159 2488 1159 1978 
L 1159 0 
L 581 0 
L 581 3500 
L 1159 3500 
L 1159 2956 
Q 1356 3278 1631 3431 
Q 1906 3584 2284 3584 
Q 2666 3584 2933 3390 
Q 3200 3197 3328 2828 
z
" transform="scale(0.015625)"/>
       <path id="DejaVuSans-20" transform="scale(0.015625)"/>
       <path id="DejaVuSans-52" d="M 2841 2188 
Q 3044 2119 3236 1894 
Q 3428 1669 3622 1275 
L 4263 0 
L 3584 0 
L 2988 1197 
Q 2756 1666 2539 1819 
Q 2322 1972 1947 1972 
L 1259 1972 
L 1259 0 
L 628 0 
L 628 4666 
L 2053 4666 
Q 2853 4666 3247 4331 
Q 3641 3997 3641 3322 
Q 3641 2881 3436 2590 
Q 3231 2300 2841 2188 
z
M 1259 4147 
L 1259 2491 
L 2053 2491 
Q 2509 2491 2742 2702 
Q 2975 2913 2975 3322 
Q 2975 3731 2742 3939 
Q 2509 4147 2053 4147 
L 1259 4147 
z
" transform="scale(0.015625)"/>
       <path id="DejaVuSans-65" d="M 3597 1894 
L 3597 1613 
L 953 1613 
Q 991 1019 1311 708 
Q 1631 397 2203 397 
Q 2534 397 2845 478 
Q 3156 559 3463 722 
L 3463 178 
Q 3153 47 2828 -22 
Q 2503 -91 2169 -91 
Q 1331 -91 842 396 
Q 353 884 353 1716 
Q 353 2575 817 3079 
Q 1281 3584 2069 3584 
Q 2775 3584 3186 3129 
Q 3597 2675 3597 1894 
z
M 3022 2063 
Q 3016 2534 2758 2815 
Q 2500 3097 2075 3097 
Q 1594 3097 1305 2825 
Q 1016 2553 972 2059 
L 3022 2063 
z
" transform="scale(0.015625)"/>
       <path id="DejaVuSans-63" d="M 3122 3366 
L 3122 2828 
Q 2878 2963 2633 3030 
Q 2388 3097 2138 3097 
Q 1578 3097 1268 2742 
Q 959 2388 959 1747 
Q 959 1106 1268 751 
Q 1578 397 2138 397 
Q 2388 397 2633 464 
Q 2878 531 3122 666 
L 3122 134 
Q 2881 22 2623 -34 
Q 2366 -91 2075 -91 
Q 1284 -91 818 406 
Q 353 903 353 1747 
Q 353 2603 823 3093 
Q 1294 3584 2113 3584 
Q 2378 3584 2631 3529 
Q 2884 3475 3122 3366 
z
" transform="scale(0.015625)"/>
       <path id="DejaVuSans-61" d="M 2194 1759 
Q 1497 1759 1228 1600 
Q 959 1441 959 1056 
Q 959 750 1161 570 
Q 1363 391 1709 391 
Q 2188 391 2477 730 
Q 2766 1069 2766 1631 
L 2766 1759 
L 2194 1759 
z
M 3341 1997 
L 3341 0 
L 2766 0 
L 2766 531 
Q 2569 213 2275 61 
Q 1981 -91 1556 -91 
Q 1019 -91 701 211 
Q 384 513 384 1019 
Q 384 1609 779 1909 
Q 1175 2209 1959 2209 
L 2766 2209 
L 2766 2266 
Q 2766 2663 2505 2880 
Q 2244 3097 1772 3097 
Q 1472 3097 1187 3025 
Q 903 2953 641 2809 
L 641 3341 
Q 956 3463 1253 3523 
Q 1550 3584 1831 3584 
Q 2591 3584 2966 3190 
Q 3341 2797 3341 1997 
z
" transform="scale(0.015625)"/>
       <path id="DejaVuSans-6c" d="M 603 4863 
L 1178 4863 
L 1178 0 
L 603 0 
L 603 4863 
z
" transform="scale(0.015625)"/>
      </defs>
      <use xlink:href="#DejaVuSans-41"/>
      <use xlink:href="#DejaVuSans-74" transform="translate(66.658203 0)"/>
      <use xlink:href="#DejaVuSans-6f" transform="translate(105.867188 0)"/>
      <use xlink:href="#DejaVuSans-6d" transform="translate(167.048828 0)"/>
      <use xlink:href="#DejaVuSans-20" transform="translate(264.460938 0)"/>
      <use xlink:href="#DejaVuSans-52" transform="translate(296.248047 0)"/>
      <use xlink:href="#DejaVuSans-65" transform="translate(361.230469 0)"/>
      <use xlink:href="#DejaVuSans-63" transform="translate(422.753906 0)"/>
      <use xlink:href="#DejaVuSans-61" transform="translate(477.734375 0)"/>
      <use xlink:href="#DejaVuSans-6c" transform="translate(539.013672 0)"/>
      <use xlink:href="#DejaVuSans-6c" transform="translate(566.796875 0)"/>
     </g>
    </g>
   </g>
   <g id="matplotlib.axis_2">
    <g id="ytick_1">
     <g id="line2d_13">
      <path d="M 47.72 237.538566 
L 450 237.538566 
" clip-path="url(#p029c865a83)" style="fill: none; stroke: #b0b0b0; stroke-width: 0.8; stroke-linecap: square"/>
     </g>
     <g id="line2d_14">
      <defs>
       <path id="m239ca85dea" d="M 0 0 
L -3.5 0 
" style="stroke: #000000; stroke-width: 0.8"/>
      </defs>
      <g>
       <use xlink:href="#m239ca85dea" x="47.72" y="237.538566" style="stroke: #000000; stroke-width: 0.8"/>
      </g>
     </g>
     <g id="text_8">
      <!-- 0.3 -->
      <g transform="translate(24.816875 241.337785) scale(0.1 -0.1)">
       <defs>
        <path id="DejaVuSans-33" d="M 2597 2516 
Q 3050 2419 3304 2112 
Q 3559 1806 3559 1356 
Q 3559 666 3084 287 
Q 2609 -91 1734 -91 
Q 1441 -91 1130 -33 
Q 819 25 488 141 
L 488 750 
Q 750 597 1062 519 
Q 1375 441 1716 441 
Q 2309 441 2620 675 
Q 2931 909 2931 1356 
Q 2931 1769 2642 2001 
Q 2353 2234 1838 2234 
L 1294 2234 
L 1294 2753 
L 1863 2753 
Q 2328 2753 2575 2939 
Q 2822 3125 2822 3475 
Q 2822 3834 2567 4026 
Q 2313 4219 1838 4219 
Q 1578 4219 1281 4162 
Q 984 4106 628 3988 
L 628 4550 
Q 988 4650 1302 4700 
Q 1616 4750 1894 4750 
Q 2613 4750 3031 4423 
Q 3450 4097 3450 3541 
Q 3450 3153 3228 2886 
Q 3006 2619 2597 2516 
z
" transform="scale(0.015625)"/>
       </defs>
       <use xlink:href="#DejaVuSans-30"/>
       <use xlink:href="#DejaVuSans-2e" transform="translate(63.623047 0)"/>
       <use xlink:href="#DejaVuSans-33" transform="translate(95.410156 0)"/>
      </g>
     </g>
    </g>
    <g id="ytick_2">
     <g id="line2d_15">
      <path d="M 47.72 207.048901 
L 450 207.048901 
" clip-path="url(#p029c865a83)" style="fill: none; stroke: #b0b0b0; stroke-width: 0.8; stroke-linecap: square"/>
     </g>
     <g id="line2d_16">
      <g>
       <use xlink:href="#m239ca85dea" x="47.72" y="207.048901" style="stroke: #000000; stroke-width: 0.8"/>
      </g>
     </g>
     <g id="text_9">
      <!-- 0.4 -->
      <g transform="translate(24.816875 210.84812) scale(0.1 -0.1)">
       <defs>
        <path id="DejaVuSans-34" d="M 2419 4116 
L 825 1625 
L 2419 1625 
L 2419 4116 
z
M 2253 4666 
L 3047 4666 
L 3047 1625 
L 3713 1625 
L 3713 1100 
L 3047 1100 
L 3047 0 
L 2419 0 
L 2419 1100 
L 313 1100 
L 313 1709 
L 2253 4666 
z
" transform="scale(0.015625)"/>
       </defs>
       <use xlink:href="#DejaVuSans-30"/>
       <use xlink:href="#DejaVuSans-2e" transform="translate(63.623047 0)"/>
       <use xlink:href="#DejaVuSans-34" transform="translate(95.410156 0)"/>
      </g>
     </g>
    </g>
    <g id="ytick_3">
     <g id="line2d_17">
      <path d="M 47.72 176.559236 
L 450 176.559236 
" clip-path="url(#p029c865a83)" style="fill: none; stroke: #b0b0b0; stroke-width: 0.8; stroke-linecap: square"/>
     </g>
     <g id="line2d_18">
      <g>
       <use xlink:href="#m239ca85dea" x="47.72" y="176.559236" style="stroke: #000000; stroke-width: 0.8"/>
      </g>
     </g>
     <g id="text_10">
      <!-- 0.5 -->
      <g transform="translate(24.816875 180.358454) scale(0.1 -0.1)">
       <use xlink:href="#DejaVuSans-30"/>
       <use xlink:href="#DejaVuSans-2e" transform="translate(63.623047 0)"/>
       <use xlink:href="#DejaVuSans-35" transform="translate(95.410156 0)"/>
      </g>
     </g>
    </g>
    <g id="ytick_4">
     <g id="line2d_19">
      <path d="M 47.72 146.06957 
L 450 146.06957 
" clip-path="url(#p029c865a83)" style="fill: none; stroke: #b0b0b0; stroke-width: 0.8; stroke-linecap: square"/>
     </g>
     <g id="line2d_20">
      <g>
       <use xlink:href="#m239ca85dea" x="47.72" y="146.06957" style="stroke: #000000; stroke-width: 0.8"/>
      </g>
     </g>
     <g id="text_11">
      <!-- 0.6 -->
      <g transform="translate(24.816875 149.868789) scale(0.1 -0.1)">
       <use xlink:href="#DejaVuSans-30"/>
       <use xlink:href="#DejaVuSans-2e" transform="translate(63.623047 0)"/>
       <use xlink:href="#DejaVuSans-36" transform="translate(95.410156 0)"/>
      </g>
     </g>
    </g>
    <g id="ytick_5">
     <g id="line2d_21">
      <path d="M 47.72 115.579905 
L 450 115.579905 
" clip-path="url(#p029c865a83)" style="fill: none; stroke: #b0b0b0; stroke-width: 0.8; stroke-linecap: square"/>
     </g>
     <g id="line2d_22">
      <g>
       <use xlink:href="#m239ca85dea" x="47.72" y="115.579905" style="stroke: #000000; stroke-width: 0.8"/>
      </g>
     </g>
     <g id="text_12">
      <!-- 0.7 -->
      <g transform="translate(24.816875 119.379124) scale(0.1 -0.1)">
       <use xlink:href="#DejaVuSans-30"/>
       <use xlink:href="#DejaVuSans-2e" transform="translate(63.623047 0)"/>
       <use xlink:href="#DejaVuSans-37" transform="translate(95.410156 0)"/>
      </g>
     </g>
    </g>
    <g id="ytick_6">
     <g id="line2d_23">
      <path d="M 47.72 85.09024 
L 450 85.09024 
" clip-path="url(#p029c865a83)" style="fill: none; stroke: #b0b0b0; stroke-width: 0.8; stroke-linecap: square"/>
     </g>
     <g id="line2d_24">
      <g>
       <use xlink:href="#m239ca85dea" x="47.72" y="85.09024" style="stroke: #000000; stroke-width: 0.8"/>
      </g>
     </g>
     <g id="text_13">
      <!-- 0.8 -->
      <g transform="translate(24.816875 88.889458) scale(0.1 -0.1)">
       <use xlink:href="#DejaVuSans-30"/>
       <use xlink:href="#DejaVuSans-2e" transform="translate(63.623047 0)"/>
       <use xlink:href="#DejaVuSans-38" transform="translate(95.410156 0)"/>
      </g>
     </g>
    </g>
    <g id="ytick_7">
     <g id="line2d_25">
      <path d="M 47.72 54.600574 
L 450 54.600574 
" clip-path="url(#p029c865a83)" style="fill: none; stroke: #b0b0b0; stroke-width: 0.8; stroke-linecap: square"/>
     </g>
     <g id="line2d_26">
      <g>
       <use xlink:href="#m239ca85dea" x="47.72" y="54.600574" style="stroke: #000000; stroke-width: 0.8"/>
      </g>
     </g>
     <g id="text_14">
      <!-- 0.9 -->
      <g transform="translate(24.816875 58.399793) scale(0.1 -0.1)">
       <use xlink:href="#DejaVuSans-30"/>
       <use xlink:href="#DejaVuSans-2e" transform="translate(63.623047 0)"/>
       <use xlink:href="#DejaVuSans-39" transform="translate(95.410156 0)"/>
      </g>
     </g>
    </g>
    <g id="ytick_8">
     <g id="line2d_27">
      <path d="M 47.72 24.110909 
L 450 24.110909 
" clip-path="url(#p029c865a83)" style="fill: none; stroke: #b0b0b0; stroke-width: 0.8; stroke-linecap: square"/>
     </g>
     <g id="line2d_28">
      <g>
       <use xlink:href="#m239ca85dea" x="47.72" y="24.110909" style="stroke: #000000; stroke-width: 0.8"/>
      </g>
     </g>
     <g id="text_15">
      <!-- 1.0 -->
      <g transform="translate(24.816875 27.910128) scale(0.1 -0.1)">
       <use xlink:href="#DejaVuSans-31"/>
       <use xlink:href="#DejaVuSans-2e" transform="translate(63.623047 0)"/>
       <use xlink:href="#DejaVuSans-30" transform="translate(95.410156 0)"/>
      </g>
     </g>
    </g>
    <g id="text_16">
     <!-- Atom Precision -->
     <g transform="translate(18.737188 194.33875) rotate(-90) scale(0.1 -0.1)">
      <defs>
       <path id="DejaVuSans-50" d="M 1259 4147 
L 1259 2394 
L 2053 2394 
Q 2494 2394 2734 2622 
Q 2975 2850 2975 3272 
Q 2975 3691 2734 3919 
Q 2494 4147 2053 4147 
L 1259 4147 
z
M 628 4666 
L 2053 4666 
Q 2838 4666 3239 4311 
Q 3641 3956 3641 3272 
Q 3641 2581 3239 2228 
Q 2838 1875 2053 1875 
L 1259 1875 
L 1259 0 
L 628 0 
L 628 4666 
z
" transform="scale(0.015625)"/>
       <path id="DejaVuSans-72" d="M 2631 2963 
Q 2534 3019 2420 3045 
Q 2306 3072 2169 3072 
Q 1681 3072 1420 2755 
Q 1159 2438 1159 1844 
L 1159 0 
L 581 0 
L 581 3500 
L 1159 3500 
L 1159 2956 
Q 1341 3275 1631 3429 
Q 1922 3584 2338 3584 
Q 2397 3584 2469 3576 
Q 2541 3569 2628 3553 
L 2631 2963 
z
" transform="scale(0.015625)"/>
       <path id="DejaVuSans-69" d="M 603 3500 
L 1178 3500 
L 1178 0 
L 603 0 
L 603 3500 
z
M 603 4863 
L 1178 4863 
L 1178 4134 
L 603 4134 
L 603 4863 
z
" transform="scale(0.015625)"/>
       <path id="DejaVuSans-73" d="M 2834 3397 
L 2834 2853 
Q 2591 2978 2328 3040 
Q 2066 3103 1784 3103 
Q 1356 3103 1142 2972 
Q 928 2841 928 2578 
Q 928 2378 1081 2264 
Q 1234 2150 1697 2047 
L 1894 2003 
Q 2506 1872 2764 1633 
Q 3022 1394 3022 966 
Q 3022 478 2636 193 
Q 2250 -91 1575 -91 
Q 1294 -91 989 -36 
Q 684 19 347 128 
L 347 722 
Q 666 556 975 473 
Q 1284 391 1588 391 
Q 1994 391 2212 530 
Q 2431 669 2431 922 
Q 2431 1156 2273 1281 
Q 2116 1406 1581 1522 
L 1381 1569 
Q 847 1681 609 1914 
Q 372 2147 372 2553 
Q 372 3047 722 3315 
Q 1072 3584 1716 3584 
Q 2034 3584 2315 3537 
Q 2597 3491 2834 3397 
z
" transform="scale(0.015625)"/>
       <path id="DejaVuSans-6e" d="M 3513 2113 
L 3513 0 
L 2938 0 
L 2938 2094 
Q 2938 2591 2744 2837 
Q 2550 3084 2163 3084 
Q 1697 3084 1428 2787 
Q 1159 2491 1159 1978 
L 1159 0 
L 581 0 
L 581 3500 
L 1159 3500 
L 1159 2956 
Q 1366 3272 1645 3428 
Q 1925 3584 2291 3584 
Q 2894 3584 3203 3211 
Q 3513 2838 3513 2113 
z
" transform="scale(0.015625)"/>
      </defs>
      <use xlink:href="#DejaVuSans-41"/>
      <use xlink:href="#DejaVuSans-74" transform="translate(66.658203 0)"/>
      <use xlink:href="#DejaVuSans-6f" transform="translate(105.867188 0)"/>
      <use xlink:href="#DejaVuSans-6d" transform="translate(167.048828 0)"/>
      <use xlink:href="#DejaVuSans-20" transform="translate(264.460938 0)"/>
      <use xlink:href="#DejaVuSans-50" transform="translate(296.248047 0)"/>
      <use xlink:href="#DejaVuSans-72" transform="translate(354.800781 0)"/>
      <use xlink:href="#DejaVuSans-65" transform="translate(393.664062 0)"/>
      <use xlink:href="#DejaVuSans-63" transform="translate(455.1875 0)"/>
      <use xlink:href="#DejaVuSans-69" transform="translate(510.167969 0)"/>
      <use xlink:href="#DejaVuSans-73" transform="translate(537.951172 0)"/>
      <use xlink:href="#DejaVuSans-69" transform="translate(590.050781 0)"/>
      <use xlink:href="#DejaVuSans-6f" transform="translate(617.833984 0)"/>
      <use xlink:href="#DejaVuSans-6e" transform="translate(679.015625 0)"/>
     </g>
    </g>
   </g>
   <g id="line2d_29">
    <path d="M 413.429091 290.329091 
L 413.321301 289.218545 
L 413.31301 289.218937 
L 413.31301 289.202859 
L 413.20522 288.016593 
L 413.180346 287.905322 
L 413.080848 287.212436 
L 412.989641 287.106842 
L 412.989641 287.106516 
L 412.898435 285.738543 
L 412.890143 285.738615 
L 412.856977 285.736817 
L 412.856977 285.628629 
L 412.749188 283.890682 
L 412.740896 283.891118 
L 412.740896 283.799424 
L 412.633107 282.075762 
L 412.624815 282.076212 
L 412.624815 281.995321 
L 412.525317 281.691735 
L 412.508734 281.692642 
L 412.508734 281.585725 
L 412.400945 281.013092 
L 412.37607 280.978079 
L 412.37607 280.965019 
L 412.268281 279.916574 
L 412.235115 279.884319 
L 412.235115 279.870027 
L 412.135617 279.149283 
L 412.094159 279.145725 
L 412.094159 279.119596 
L 412.011244 278.820957 
L 411.745916 278.829347 
L 411.745916 278.722623 
L 411.638127 277.749238 
L 411.464005 277.669176 
L 411.464005 277.64814 
L 411.356216 275.870985 
L 411.306467 275.776845 
L 411.306467 275.766489 
L 411.198677 275.397912 
L 411.182094 275.331522 
L 411.182094 275.288938 
L 411.090888 274.397195 
L 411.041139 274.374324 
L 411.041139 274.313353 
L 410.933349 272.89347 
L 410.925058 272.893873 
L 410.925058 272.785353 
L 410.817268 271.983301 
L 410.742645 271.962072 
L 410.742645 271.882541 
L 410.634855 271.493624 
L 410.618272 271.474926 
L 410.618272 271.383483 
L 410.510483 270.714232 
L 410.4939 270.670875 
L 410.4939 270.624595 
L 410.410985 269.753859 
L 410.38611 269.75431 
L 410.344653 269.708094 
L 410.344653 269.646978 
L 410.245155 269.563124 
L 410.245155 269.539759 
L 410.137365 269.146837 
L 410.095907 269.039502 
L 410.095907 269.039234 
L 409.988118 267.845158 
L 409.706207 267.278172 
L 409.706207 267.220588 
L 409.606709 267.221903 
L 409.565251 267.19102 
L 409.565251 267.132976 
L 409.457462 266.105035 
L 409.407713 266.000734 
L 409.407713 265.99732 
L 409.299923 265.510199 
L 409.275049 265.434788 
L 409.208717 264.653038 
L 408.95168 264.631321 
L 408.95168 264.551067 
L 408.843891 263.478419 
L 408.769267 263.391839 
L 408.769267 263.369922 
L 408.678061 262.756248 
L 408.528814 262.686157 
L 408.528814 262.676113 
L 408.429316 261.909022 
L 408.354692 261.803318 
L 408.354692 261.798752 
L 408.329818 261.623865 
L 408.06449 261.529139 
L 407.9567 260.623477 
L 407.923534 260.561375 
L 407.923534 260.520457 
L 407.832328 260.17657 
L 407.782579 260.126398 
L 407.782579 260.068927 
L 407.691372 260.053901 
L 407.616749 259.987334 
L 407.616749 259.948748 
L 407.508959 259.349811 
L 407.202174 259.233521 
L 407.102676 259.180244 
L 406.978303 259.101783 
L 406.978303 259.083814 
L 406.887097 258.738735 
L 406.804182 258.732508 
L 406.804182 258.703404 
L 406.505688 257.244853 
L 406.40619 256.504763 
L 406.339858 256.493046 
L 406.339858 256.446227 
L 406.314983 256.24872 
L 405.925282 256.163895 
L 405.925282 256.146549 
L 405.85895 255.664407 
L 405.850659 255.664843 
L 405.701412 255.340775 
L 405.659954 254.920874 
L 405.477541 254.827818 
L 405.477541 254.81913 
L 405.369752 254.628988 
L 405.087841 254.47687 
L 404.988343 254.146557 
L 404.872262 254.093393 
L 404.872262 254.093182 
L 404.764472 253.218779 
L 404.383063 252.037526 
L 404.30844 251.940297 
L 403.844116 251.402124 
L 403.752909 251.187591 
L 403.744618 251.188029 
L 403.661703 251.066474 
L 403.553913 250.44797 
L 403.412958 250.362956 
L 403.412958 250.349898 
L 403.305168 249.943888 
L 403.247128 249.852566 
L 403.247128 249.837917 
L 403.230545 249.808766 
L 403.03984 249.697313 
L 402.932051 249.029015 
L 402.890593 248.929246 
L 402.890593 248.928279 
L 402.774512 248.784375 
L 402.683306 248.6615 
L 402.658431 248.663542 
L 402.658431 248.653554 
L 402.600391 247.636309 
L 401.812698 246.287483 
L 401.77124 246.237408 
L 401.77124 246.220321 
L 401.746366 245.925105 
L 401.563953 245.654672 
L 401.472746 244.95883 
L 401.348374 244.836985 
L 401.282042 244.559906 
L 401.199127 244.554001 
L 401.199127 244.553192 
L 401.116212 244.311931 
L 400.917216 243.540686 
L 400.436309 242.577101 
L 400.345102 242.534887 
L 400.345102 242.468879 
L 400.237313 241.86434 
L 400.096357 241.76457 
L 400.096357 241.762264 
L 399.996859 241.246614 
L 399.930527 241.251513 
L 399.930527 241.143153 
L 399.831029 241.001261 
L 399.72324 240.900792 
L 399.72324 240.894909 
L 399.61545 240.211169 
L 399.590576 240.21096 
L 399.590576 240.209764 
L 399.491078 238.670442 
L 399.416454 238.627848 
L 399.416454 238.622584 
L 399.358414 238.489406 
L 399.250624 237.505775 
L 399.192584 237.462363 
L 399.192584 237.405128 
L 399.176001 237.296389 
L 398.877507 237.191194 
L 398.769717 235.296859 
L 398.711677 235.216745 
L 398.711677 235.198383 
L 398.711677 235.172999 
L 398.703385 235.173082 
L 398.512681 235.061912 
L 398.404891 234.737895 
L 398.3966 234.737974 
L 398.3966 234.727177 
L 398.321976 233.528007 
L 398.189312 233.531501 
L 398.189312 233.511767 
L 398.089814 232.775489 
L 398.064939 232.694708 
L 398.064939 232.692594 
L 397.95715 231.914388 
L 397.874235 231.823126 
L 397.650364 231.701199 
L 397.642073 231.701607 
L 397.542575 230.727755 
L 397.509409 230.676483 
L 397.509409 230.658472 
L 397.434785 230.244543 
L 397.426494 230.245317 
L 397.35187 230.199978 
L 397.35187 230.194039 
L 397.244081 228.917787 
L 396.987044 228.877928 
L 396.987044 228.831764 
L 396.945587 228.785256 
L 396.912421 228.785321 
L 396.738299 228.743985 
L 396.738299 228.74169 
L 396.696842 228.069383 
L 396.431514 228.004054 
L 396.431514 227.979584 
L 396.332016 227.475912 
L 396.282267 227.440584 
L 396.282267 227.27457 
L 396.207643 227.28047 
L 395.983773 227.214179 
L 395.875983 226.638554 
L 395.8594 226.640134 
L 395.8594 226.533035 
L 395.8594 226.501422 
L 395.851109 226.502212 
L 395.220955 225.944732 
L 395.13804 225.571372 
L 395.046833 225.484966 
L 395.046833 225.464934 
L 394.939044 225.40326 
L 394.665424 225.404536 
L 394.665424 225.322964 
L 394.607384 225.236977 
L 394.590801 225.237337 
L 394.449845 225.131161 
L 394.342055 224.067951 
L 394.284015 224.036129 
L 394.284015 223.974249 
L 394.176225 223.689013 
L 394.159642 223.690619 
L 394.151351 223.57991 
L 394.09331 223.492923 
L 394.010395 222.874818 
L 393.894314 222.807743 
L 393.894314 222.777145 
L 393.786525 222.371744 
L 393.745067 222.373176 
L 393.745067 222.331016 
L 393.653861 221.521035 
L 393.53778 221.247324 
L 393.438282 221.130435 
L 393.421699 221.126277 
L 393.413407 220.897038 
L 393.230994 220.865318 
L 393.230994 220.79865 
L 393.123205 220.364639 
L 393.081747 220.359688 
L 392.990541 219.205173 
L 392.625715 219.028721 
L 392.517925 218.464304 
L 392.37697 218.467994 
L 392.37697 218.441325 
L 392.302346 218.104628 
L 391.945812 217.940059 
L 391.912646 217.659588 
L 391.804856 217.587147 
L 391.804856 217.559553 
L 391.804856 217.49432 
L 391.788273 217.495496 
L 391.539528 217.359034 
L 391.473196 215.977442 
L 391.340532 215.894192 
L 391.232743 215.118195 
L 391.191285 215.052694 
L 391.191285 215.027293 
L 391.083496 214.506128 
L 390.751836 214.362332 
L 390.677212 213.585892 
L 390.494799 213.458483 
L 390.38701 213.29901 
L 390.370426 213.299663 
L 390.370426 213.282699 
L 390.262637 212.905194 
L 390.154847 212.83223 
L 390.154847 212.804754 
L 390.105098 212.634794 
L 389.914394 212.572466 
L 389.914394 212.536519 
L 389.906102 212.474272 
L 389.881228 212.476802 
L 389.748564 212.393186 
L 389.640774 211.139694 
L 389.566151 211.026 
L 389.474944 210.428766 
L 389.392029 210.329065 
L 389.392029 210.325816 
L 389.300823 210.222427 
L 389.28424 210.223042 
L 389.267657 210.222572 
L 389.267657 210.11451 
L 389.17645 209.160087 
L 388.919414 209.095329 
L 388.919414 209.080945 
L 388.811624 208.776958 
L 388.737001 208.706733 
L 388.737001 208.699493 
L 388.629211 208.045868 
L 388.579462 208.009322 
L 388.579462 207.954639 
L 388.479964 206.625467 
L 388.463381 206.626034 
L 388.463381 206.582201 
L 388.372175 206.13592 
L 388.355592 206.13648 
L 387.949308 206.033214 
L 387.841519 205.865901 
L 387.68398 205.796932 
L 387.68398 205.7706 
L 387.634231 205.53535 
L 387.62594 205.535626 
L 387.443527 205.361021 
L 387.344029 205.266395 
L 387.319154 205.254227 
L 387.319154 205.250094 
L 387.244531 204.4184 
L 387.086992 204.324632 
L 387.086992 204.321634 
L 386.979203 203.95581 
L 386.954328 203.860612 
L 386.954328 203.859404 
L 386.846539 203.194605 
L 386.647543 203.121354 
L 386.647543 203.117685 
L 386.490004 202.916097 
L 386.407089 202.905773 
L 386.349048 202.653498 
L 386.24955 202.54302 
L 385.685728 200.915287 
L 385.453566 200.845252 
L 385.19653 200.758007 
L 385.19653 200.616638 
L 384.732206 200.496588 
L 384.624416 200.1356 
L 384.607833 200.137356 
L 384.599542 200.026933 
L 384.491752 199.564639 
L 384.342505 199.474005 
L 384.334214 199.376708 
L 384.077177 199.187613 
L 383.969388 198.791748 
L 383.944513 198.761539 
L 383.944513 198.287274 
L 383.554813 198.224731 
L 383.554813 198.223405 
L 383.521647 198.104824 
L 383.123655 197.948979 
L 383.007574 197.688303 
L 382.899784 196.711018 
L 382.825161 196.61229 
L 382.825161 196.608209 
L 382.717371 196.416036 
L 382.692497 196.418696 
L 382.692497 196.418014 
L 382.584707 194.737982 
L 382.369128 194.642739 
L 382.261338 194.292314 
L 382.203298 194.202628 
L 382.203298 194.20051 
L 382.112091 193.006137 
L 381.913095 192.948478 
L 381.913095 192.916103 
L 381.805306 192.756946 
L 381.573144 192.685939 
L 381.573144 192.672212 
L 381.473646 192.56578 
L 381.249775 192.436301 
L 381.208318 190.405922 
L 381.075654 190.369441 
L 381.075654 190.311096 
L 380.967864 190.068609 
L 380.893241 190.006048 
L 380.893241 189.975216 
L 380.785451 189.39317 
L 380.66937 189.297184 
L 380.66937 189.294145 
L 380.578164 189.143529 
L 380.561581 189.144565 
L 380.304544 189.074122 
L 380.304544 189.044375 
L 380.196755 188.704249 
L 380.188463 188.705148 
L 380.188463 188.675239 
L 380.080674 188.354783 
L 379.931427 188.259147 
L 379.931427 188.2522 
L 379.823637 187.168513 
L 379.608058 187.132341 
L 379.608058 187.081319 
L 379.500269 186.761688 
L 379.442228 186.698546 
L 379.442228 186.68354 
L 379.359313 186.554209 
L 379.309564 186.467767 
L 379.268107 186.472279 
L 379.168609 186.40621 
L 379.168609 186.37368 
L 379.060819 186.079233 
L 378.95303 185.92501 
L 378.84524 185.368941 
L 378.472122 183.737395 
L 378.281418 183.692272 
L 378.281418 183.6601 
L 378.18192 183.42384 
L 378.148754 183.371144 
L 378.040964 183.029101 
L 377.941466 183.004169 
L 377.941466 182.984174 
L 377.833677 182.488441 
L 377.676138 182.432644 
L 377.676138 182.430965 
L 377.584932 182.282038 
L 377.319604 182.035335 
L 377.303021 181.638152 
L 376.979652 181.396139 
L 376.598243 180.311646 
L 376.531911 179.499841 
L 375.802259 179.576432 
L 375.793968 179.472238 
L 375.080899 177.809153 
L 374.973109 176.566532 
L 374.915069 174.797878 
L 374.782405 174.803137 
L 374.774113 174.703173 
L 374.682907 174.430423 
L 374.641449 174.424665 
L 374.641449 174.346754 
L 374.541951 174.284413 
L 374.459036 174.213592 
L 374.459036 174.18818 
L 374.392704 173.684537 
L 374.069335 173.465768 
L 374.052752 173.25149 
L 373.828882 173.192203 
L 373.828882 173.190294 
L 373.804007 173.099449 
L 373.497222 173.106482 
L 373.497222 173.101702 
L 373.339683 172.394946 
L 373.207019 172.297563 
L 373.148979 172.122099 
L 372.916817 171.936276 
L 372.908525 171.846828 
L 372.734404 171.787234 
L 372.734404 171.756086 
L 372.709529 171.565825 
L 372.49395 171.48021 
L 372.49395 171.478255 
L 372.394452 171.397303 
L 371.888671 171.322852 
L 371.780881 171.071631 
L 371.77259 171.072546 
L 371.77259 171.030248 
L 371.739424 170.705573 
L 371.573594 170.47152 
L 371.465804 170.083947 
L 371.44093 170.049824 
L 371.44093 169.979028 
L 371.349723 169.889274 
L 371.283391 169.882611 
L 371.283391 169.80065 
L 371.175602 169.291831 
L 371.092687 169.230488 
L 371.092687 169.204289 
L 371.00148 168.949869 
L 370.918565 168.945874 
L 370.918565 168.848727 
L 370.810776 168.696419 
L 370.769318 168.61064 
L 370.769318 168.589306 
L 370.752735 168.48743 
L 370.404492 168.403691 
L 370.404492 168.383309 
L 370.313285 168.166794 
L 370.304994 168.167709 
L 370.122581 168.111156 
L 370.122581 168.096832 
L 370.039666 167.256296 
L 369.915293 167.117865 
L 369.848961 167.019438 
L 369.73288 167.00735 
L 369.73288 167.002161 
L 369.625091 166.388954 
L 369.600216 166.318456 
L 369.591925 166.103441 
L 369.500718 166.113506 
L 369.392929 166.040338 
L 369.392929 166.020372 
L 369.301722 165.674433 
L 369.01152 165.648382 
L 369.01152 165.582861 
L 368.90373 165.190965 
L 368.887147 165.150286 
L 368.887147 165.104565 
L 368.779358 164.792484 
L 368.671568 164.706078 
L 368.671568 164.693248 
L 368.563779 164.508157 
L 368.555487 164.509072 
L 368.555487 164.500497 
L 368.447698 163.772629 
L 368.389657 163.702196 
L 368.389657 163.700031 
L 368.281868 162.143502 
L 368.223827 162.058262 
L 368.223827 162.039483 
L 368.140912 161.618834 
L 367.999957 161.601022 
L 367.999957 161.596578 
L 367.950208 161.250222 
L 367.792669 161.207282 
L 367.792669 161.158139 
L 367.693171 161.028198 
L 367.668297 160.981679 
L 367.668297 160.966001 
L 367.618548 160.104641 
L 367.560507 160.111019 
L 367.112766 160.104771 
L 367.112766 160.066261 
L 367.004977 159.644222 
L 366.996685 159.645133 
L 366.996685 159.538022 
L 366.888896 159.294073 
L 366.814272 159.213018 
L 366.814272 159.188972 
L 366.74794 159.067898 
L 366.341656 158.970193 
L 366.267033 158.704499 
L 366.233867 158.706991 
L 366.200701 158.619523 
L 366.200701 158.605674 
L 366.109494 158.435459 
L 365.305219 158.315396 
L 365.288636 158.252258 
L 365.280344 158.253169 
L 365.155972 158.093757 
L 365.081348 157.758228 
L 364.98185 157.728289 
L 364.98185 157.660511 
L 364.874061 157.377244 
L 364.807729 157.29298 
L 364.807729 157.274188 
L 364.716522 157.126661 
L 364.558984 156.987305 
L 364.492652 156.267629 
L 364.476069 156.269449 
L 364.359988 156.177489 
L 364.359988 156.171536 
L 364.26049 156.1765 
L 364.252198 156.123814 
L 364.078077 156.032048 
L 363.970287 153.890316 
L 363.812749 153.799855 
L 363.663502 153.810048 
L 363.663502 153.713256 
L 363.564004 153.339578 
L 363.439631 153.27186 
L 363.331842 152.868535 
L 363.058222 152.786887 
L 363.025056 152.711113 
L 362.701688 152.737742 
L 362.701688 152.62968 
L 362.651939 152.474639 
L 362.55244 152.18616 
L 362.519274 152.094775 
L 362.428068 151.975806 
L 362.419776 151.976711 
L 362.021784 151.939943 
L 362.021784 151.908591 
L 361.955452 151.10056 
L 361.714999 151.021633 
L 361.714999 151.016563 
L 361.623792 150.681061 
L 361.424796 150.542256 
L 361.317007 150.100269 
L 361.151177 150.024726 
L 361.151177 150.015747 
L 360.919015 149.19024 
L 360.852683 149.154695 
L 360.8361 149.156497 
L 360.736602 149.060986 
L 360.736602 149.059688 
L 360.637104 148.883473 
L 360.595646 148.873673 
L 360.595646 148.778696 
L 360.554189 148.742835 
L 360.272278 148.729163 
L 360.255695 148.189868 
L 360.06499 148.102996 
L 360.06499 148.099059 
L 360.040116 147.708432 
L 360.031824 147.709331 
L 359.575792 147.711304 
L 359.575792 147.709985 
L 359.476294 147.475066 
L 359.409962 147.426682 
L 359.409962 147.371071 
L 359.302172 147.315181 
L 359.219257 147.267154 
L 359.219257 147.265828 
L 359.144634 146.704437 
L 358.978804 146.634252 
L 358.978804 146.615544 
L 358.978804 146.600843 
L 358.696893 146.597944 
L 358.696893 146.519016 
L 358.605686 146.268878 
L 358.456439 146.185651 
L 358.456439 146.173556 
L 358.373524 145.89987 
L 358.356941 145.901664 
L 358.2989 145.847256 
L 358.2989 145.845907 
L 358.199402 145.614866 
L 358.166236 145.603571 
L 358.166236 145.512885 
L 358.166236 145.394994 
L 357.992115 145.317479 
L 357.992115 145.305261 
L 357.884325 144.945517 
L 357.594123 144.935939 
L 357.478042 144.725885 
L 357.386835 144.624914 
L 357.287337 144.583617 
L 357.179548 144.53359 
L 357.179548 144.526736 
L 357.038592 144.329222 
L 356.955677 144.247435 
L 356.955677 144.230929 
L 356.922511 144.142291 
L 356.905928 144.144079 
L 356.781556 144.102392 
L 356.781556 144.05691 
L 356.673766 143.831103 
L 356.648892 143.788161 
L 356.648892 143.749432 
L 356.58256 143.390619 
L 356.275774 143.327756 
L 356.275774 143.312459 
L 356.167985 143.201595 
L 355.612454 143.15272 
L 355.612454 143.149931 
L 355.504665 142.992642 
L 355.488082 142.98325 
L 355.488082 142.969276 
L 355.388584 142.492359 
L 355.355418 142.42987 
L 355.355418 142.394716 
L 355.247628 142.168303 
L 355.015466 142.083195 
L 355.015466 142.067663 
L 354.998883 142.068033 
L 354.625765 142.02054 
L 354.625765 141.996505 
L 354.526267 141.086389 
L 354.119984 141.019925 
L 354.020486 140.800096 
L 353.904405 140.717881 
L 353.904405 140.70353 
L 353.829781 140.235278 
L 353.82149 140.236165 
L 353.232793 140.190932 
L 353.232793 140.188043 
L 353.141587 139.977989 
L 352.776761 139.909834 
L 352.776761 139.905485 
L 352.760178 139.783948 
L 352.727012 139.786046 
L 352.536307 139.738201 
L 352.536307 139.696059 
L 352.445101 139.468594 
L 352.395352 139.457885 
L 352.38706 139.363988 
L 352.279271 138.715215 
L 352.246105 138.657028 
L 352.246105 138.634974 
L 352.138315 138.35486 
L 352.071983 138.263049 
L 352.071983 138.251235 
L 351.99736 138.164624 
L 351.972485 138.167274 
L 351.947611 138.169925 
L 351.947611 138.166968 
L 351.856404 137.930951 
L 351.848113 137.931834 
L 351.814947 137.896819 
L 351.814947 137.827099 
L 351.707157 137.272982 
L 351.474995 137.222981 
L 351.474995 137.194588 
L 351.367206 137.093883 
L 351.193084 137.028547 
L 351.193084 137.021058 
L 351.126752 136.833179 
L 351.101878 136.83582 
L 351.035546 136.842864 
L 351.035546 136.739238 
L 350.927756 135.840263 
L 350.795092 135.854304 
L 350.795092 135.757164 
L 350.687302 135.578554 
L 350.645845 135.582939 
L 350.645845 135.491597 
L 350.554638 135.133465 
L 350.538055 135.135216 
L 350.504889 135.121898 
L 350.504889 135.027039 
L 350.45514 134.902089 
L 349.40212 134.994909 
L 349.40212 134.967298 
L 349.29433 133.748122 
L 349.261164 133.68322 
L 349.153375 133.4548 
L 349.020711 133.359564 
L 349.020711 133.358004 
L 349.004128 133.358186 
L 348.912921 133.253772 
L 348.813423 133.243911 
L 348.813423 133.154782 
L 348.705634 132.945269 
L 348.672468 132.865611 
L 348.672468 132.837359 
L 348.606136 132.20173 
L 348.514929 132.10851 
L 348.514929 132.103765 
L 348.40714 131.989988 
L 348.274476 131.905603 
L 348.274476 131.892917 
L 348.191561 131.402342 
L 348.125229 131.313577 
L 348.125229 131.284853 
L 348.116937 131.285718 
L 348.000856 131.285061 
L 348.000856 131.189234 
L 347.90965 130.928327 
L 347.835026 130.825478 
L 347.727237 130.325242 
L 347.677488 130.149642 
L 347.586281 128.859838 
L 347.569698 128.859915 
L 347.544824 128.756035 
L 347.544824 128.754396 
L 347.437034 128.655678 
L 347.420451 128.65739 
L 347.420451 128.61801 
L 347.312662 128.127316 
L 347.279496 128.043273 
L 347.30437 128.045664 
L 347.279496 128.039971 
L 347.171706 127.793178 
L 347.146832 127.795737 
L 347.13854 127.710477 
L 347.030751 126.893075 
L 347.005876 126.848838 
L 347.005876 126.820423 
L 346.947836 126.638954 
L 346.64105 126.559741 
L 346.549843 126.36595 
L 346.53326 126.365965 
L 346.442054 126.323184 
L 346.442054 126.319821 
L 346.334264 126.103582 
L 346.301098 126.098543 
L 346.301098 125.997364 
L 346.193309 125.820914 
L 346.151851 125.806549 
L 346.151851 125.713516 
L 346.060645 125.507665 
L 345.994313 125.446564 
L 345.994313 125.431288 
L 345.886523 125.292785 
L 345.836774 125.267247 
L 345.836774 125.187291 
L 345.770442 124.972555 
L 345.712402 124.971634 
L 345.463657 123.92854 
L 345.322701 123.851392 
L 345.322701 123.832409 
L 345.223203 123.475916 
L 345.190037 123.479265 
L 345.190037 123.427287 
L 345.082248 123.195244 
L 344.999333 123.158428 
L 344.999333 123.094098 
L 344.916418 122.848215 
L 344.891543 122.85072 
L 344.81692 122.771017 
L 344.81692 122.748328 
L 344.792045 122.680988 
L 344.526717 122.658771 
L 344.418928 122.30893 
L 344.385762 122.312263 
L 344.37747 122.225357 
L 344.311138 121.873259 
L 344.302847 121.87409 
L 344.219932 121.8595 
L 344.219932 121.773118 
L 344.112142 120.384712 
L 344.037519 120.322393 
L 344.037519 120.288398 
L 343.929729 120.123591 
L 343.921438 120.124415 
L 343.921438 120.038334 
L 343.846814 119.796059 
L 343.71415 119.809221 
L 343.705859 119.698471 
L 343.614652 119.622854 
L 343.598069 119.624498 
L 343.38249 119.561133 
L 343.38249 119.555722 
L 343.274701 118.749645 
L 343.200077 118.673342 
L 343.200077 118.667883 
L 343.183494 118.472807 
L 343.009373 118.327572 
L 342.984498 118.110657 
L 342.752336 118.09506 
L 342.752336 118.087736 
L 342.661129 117.068146 
L 342.536757 116.884125 
L 342.44555 116.583195 
L 342.304595 116.511435 
L 342.304595 116.500276 
L 342.205097 116.308909 
L 342.196805 116.309716 
L 342.097307 116.203801 
L 342.072433 116.049388 
L 341.923186 115.974178 
L 341.923186 115.951733 
L 341.757356 115.803107 
L 341.649566 115.490801 
L 341.566651 115.43304 
L 341.566651 115.414231 
L 341.550068 115.20118 
L 341.525194 115.203589 
L 341.417404 115.12917 
L 341.417404 115.11219 
L 341.334489 114.872747 
L 341.326198 114.873548 
L 341.293032 114.876755 
L 341.293032 114.782147 
L 341.243283 114.608859 
L 341.044287 114.554085 
L 341.044287 114.546494 
L 340.447299 114.109382 
L 336.757581 114.324693 
L 336.757581 114.315121 
L 336.707832 114.143669 
L 336.69954 114.144473 
L 336.459087 114.148601 
L 336.459087 114.056484 
L 336.376172 113.910806 
L 336.185467 113.85425 
L 336.185467 113.850401 
L 336.085969 113.51692 
L 335.994763 113.42142 
L 335.994763 113.417554 
L 335.903556 113.329677 
L 335.862099 113.23884 
L 335.862099 113.223348 
L 335.754309 113.057359 
L 335.721143 113.045034 
L 335.721143 112.949922 
L 335.613354 112.763976 
L 335.513856 112.680114 
L 335.513856 112.676219 
L 335.406066 112.522862 
L 335.198779 112.43348 
L 335.198779 112.431528 
L 335.099281 111.737699 
L 334.974908 111.749592 
L 334.974908 111.706336 
L 334.883701 111.269668 
L 334.742746 111.172454 
L 334.651539 111.036723 
L 334.634956 111.038302 
L 334.60179 110.938463 
L 334.60179 110.932518 
L 334.510584 110.782532 
L 334.427669 110.744753 
L 334.427669 110.679205 
L 334.319879 110.506487 
L 334.079426 110.429736 
L 334.079426 110.417781 
L 333.971636 109.990699 
L 333.838972 109.907163 
L 333.838972 109.901154 
L 333.739474 109.764247 
L 333.731183 109.765031 
L 333.689725 109.742871 
L 333.689725 109.660584 
L 333.581936 109.351044 
L 333.573644 109.351825 
L 333.573644 109.279306 
L 333.465855 109.061502 
L 333.349774 108.999694 
L 333.349774 108.983525 
L 333.291733 108.756288 
L 333.092737 108.750662 
L 333.092737 108.72229 
L 333.05128 108.181636 
L 332.935199 108.123212 
L 332.935199 108.082437 
L 332.827409 108.000709 
L 332.653288 107.976149 
L 332.653288 107.906701 
L 332.545498 107.531943 
L 332.528915 107.463748 
L 332.429417 107.292292 
L 332.421126 107.293063 
L 332.28017 107.242434 
L 332.28017 107.19512 
L 332.28017 107.193062 
L 332.097757 107.100899 
L 332.097757 107.098839 
L 331.998259 105.491576 
L 331.989968 105.492337 
L 331.89047 105.392718 
L 331.89047 105.390626 
L 331.832429 105.108903 
L 331.790972 105.112698 
L 331.732931 105.118011 
L 331.732931 105.078141 
L 331.658308 104.451405 
L 328.034922 104.668445 
L 328.034922 104.613348 
L 327.952007 104.402408 
L 327.769594 104.336242 
L 327.769594 104.300099 
L 327.678387 103.937818 
L 327.670096 103.938575 
L 327.421351 103.922866 
L 327.421351 103.905787 
L 327.346727 103.491189 
L 327.338436 103.491943 
L 327.056525 103.476865 
L 327.056525 103.406078 
L 326.973609 103.338491 
L 326.86582 103.255914 
L 326.86582 103.240868 
L 326.75803 103.100086 
L 326.69999 102.995517 
L 326.5922 102.698883 
L 326.53416 102.619831 
L 326.53416 102.593879 
L 326.451245 102.384861 
L 326.277123 102.348552 
L 326.277123 102.289987 
L 326.169334 102.12817 
L 325.978629 102.067091 
L 325.978629 102.036638 
L 325.904006 101.788529 
L 325.76305 101.698662 
L 325.76305 101.689931 
L 325.655261 101.376066 
L 325.447973 101.298264 
L 325.447973 101.289497 
L 325.340184 101.198287 
L 325.232394 101.109168 
L 325.232394 101.100384 
L 325.232394 101.058652 
L 325.016815 100.976822 
L 325.016815 100.968025 
L 324.909026 100.563407 
L 324.842694 100.509697 
L 324.842694 100.474352 
L 324.734904 99.979043 
L 324.60224 99.910874 
L 324.60224 99.886438 
L 324.527617 99.565984 
L 324.511034 99.567449 
L 324.353495 99.494433 
L 324.27058 99.175676 
L 324.146208 99.186635 
L 324.137916 99.077708 
L 324.030127 98.970704 
L 323.963795 98.933942 
L 323.963795 98.866651 
L 323.93892 98.783543 
L 323.922337 98.785 
L 323.831131 98.732365 
L 323.831131 98.685173 
L 323.723341 98.30058 
L 323.690175 98.224506 
L 323.690175 98.192901 
L 323.582386 97.919726 
L 323.292183 97.834045 
L 323.200977 97.735425 
L 323.142936 97.740481 
L 323.142936 97.704177 
L 323.060021 97.379579 
L 322.985397 97.347358 
L 322.985397 97.276753 
L 322.885899 96.345137 
L 322.827859 96.25591 
L 322.786401 95.992479 
L 322.77811 95.99319 
L 322.686903 95.890341 
L 322.587405 95.427308 
L 322.50449 95.374139 
L 322.50449 95.323141 
L 322.396701 95.09557 
L 322.346952 95.018446 
L 322.346952 95.00682 
L 322.239162 94.813472 
L 322.214288 94.801603 
L 322.214288 94.706034 
L 322.106498 94.376522 
L 321.998709 94.285005 
L 321.998709 94.27564 
L 321.899211 94.134089 
L 321.890919 94.134788 
L 321.857753 94.027338 
L 321.758255 93.770213 
L 321.741672 93.66806 
L 321.633883 93.391859 
L 321.584134 93.346444 
L 321.584134 93.294483 
L 321.484636 92.679792 
L 321.426595 92.64423 
L 321.426595 92.575304 
L 321.318806 92.479591 
L 321.053478 92.320568 
L 320.978854 91.959027 
L 320.920814 91.887262 
L 320.920814 91.863327 
L 320.829607 91.621627 
L 320.282368 91.568241 
L 320.282368 91.55623 
L 320.18287 91.340777 
L 320.050206 91.269797 
L 320.050206 91.240885 
L 319.950708 90.85561 
L 319.635631 90.77007 
L 319.544425 90.573995 
L 319.536133 90.574671 
L 309.287838 91.129248 
L 309.287838 91.124341 
L 309.204923 90.831553 
L 309.196631 90.832242 
L 308.724016 90.800158 
L 308.724016 90.760756 
L 308.616226 90.717976 
L 308.500145 90.688181 
L 308.500145 90.656126 
L 308.41723 90.450727 
L 308.392356 90.452788 
L 308.342607 90.358038 
L 308.342607 90.345673 
L 308.276275 90.078796 
L 308.267983 90.079481 
L 308.135319 90.078037 
L 308.135319 90.020995 
L 308.052404 89.714842 
L 308.02753 89.716887 
L 307.803659 89.665624 
L 307.803659 89.625788 
L 307.69587 89.275488 
L 307.654412 89.226414 
L 307.654412 89.168921 
L 307.546623 89.037626 
L 307.488582 88.932159 
L 307.380793 88.850701 
L 307.25642 88.750427 
L 307.181796 88.469934 
L 307.173505 88.470607 
L 306.966217 88.437091 
L 306.966217 88.391752 
L 306.916468 88.259665 
L 306.908177 88.260337 
L 306.700889 88.16609 
L 306.601391 87.860601 
L 302.878507 88.058343 
L 302.878507 88.050714 
L 302.770718 87.820177 
L 298.964919 88.018077 
L 298.857129 87.929577 
L 297.688028 87.997139 
L 297.688028 87.930414 
L 297.580238 87.864774 
L 297.472449 87.78622 
L 297.472449 87.763078 
L 297.364659 87.766756 
L 297.364659 87.753896 
L 297.008125 87.559023 
L 296.98325 87.424349 
L 296.767671 87.336057 
L 296.767671 87.333474 
L 296.709631 86.86444 
L 296.560384 86.718186 
L 296.452594 86.542315 
L 296.444303 86.542985 
L 296.444303 86.509155 
L 296.336513 85.786835 
L 296.26189 85.719461 
L 296.26189 85.690633 
L 296.26189 85.667041 
L 295.623444 85.613173 
L 295.623444 85.607922 
L 295.515655 85.324727 
L 295.499072 85.302358 
L 295.499072 85.215447 
L 295.407865 85.082986 
L 295.391282 85.084305 
L 295.308367 84.98797 
L 295.308367 84.980048 
L 295.233743 84.980695 
L 295.200577 84.946352 
L 295.101079 84.92519 
L 295.101079 84.843242 
L 295.034747 84.758557 
L 294.82746 84.663765 
L 294.727962 84.233662 
L 294.4958 84.142855 
L 294.429468 84.057524 
L 294.305095 83.976674 
L 294.305095 83.958006 
L 294.238763 83.768357 
L 293.99831 83.685627 
L 293.99831 83.680278 
L 293.915395 83.528868 
L 293.89052 83.530812 
L 289.952057 83.700453 
L 289.844268 83.571582 
L 289.645272 83.506361 
L 289.645272 83.476686 
L 289.537482 83.250187 
L 288.525919 83.2322 
L 288.525919 83.226783 
L 288.434713 82.778029 
L 288.41813 82.779325 
L 287.862599 82.760176 
L 287.862599 82.713896 
L 287.837725 82.631401 
L 287.232445 82.624144 
L 287.232445 82.583222 
L 287.199279 82.37826 
L 286.867619 82.308368 
L 286.759829 82.144234 
L 286.734955 82.137945 
L 286.734955 82.044727 
L 286.635457 81.868529 
L 286.502793 81.851325 
L 286.502793 81.768854 
L 286.502793 81.724848 
L 286.453044 81.728693 
L 286.146258 81.606483 
L 286.055052 81.522564 
L 283.219358 81.733873 
L 283.219358 81.686847 
L 283.111569 80.987592 
L 277.970838 81.386046 
L 277.970838 81.383248 
L 277.863049 80.066595 
L 277.506514 79.994876 
L 277.506514 79.983548 
L 277.407016 79.857988 
L 276.395453 79.827588 
L 276.395453 79.824747 
L 276.329121 79.522616 
L 276.287664 79.522931 
L 276.080376 79.510259 
L 276.080376 79.430446 
L 276.055502 79.378153 
L 275.790174 79.329868 
L 275.790174 79.298459 
L 275.690676 78.859688 
L 275.317558 78.787532 
L 275.317558 78.781792 
L 275.300975 78.567615 
L 274.140165 78.309376 
L 274.123582 78.215333 
L 273.957752 78.126635 
L 273.957752 78.11796 
L 273.883128 77.860115 
L 273.849962 77.862596 
L 273.767047 77.761511 
L 273.684132 77.27936 
L 273.675841 77.279975 
L 273.584634 77.181838 
L 273.584634 77.178923 
L 273.510011 77.026916 
L 273.493428 77.028142 
L 273.45197 77.031207 
L 273.45197 76.969885 
L 273.344181 76.869722 
L 273.319306 76.769185 
L 273.211517 76.57211 
L 273.170059 76.493052 
L 273.170059 76.46665 
L 273.070561 76.385893 
L 273.06227 76.386501 
L 273.037395 76.332521 
L 273.037395 76.288449 
L 272.929606 76.058053 
L 272.888148 76.02868 
L 272.888148 76.025735 
L 271.561508 75.486808 
L 271.453718 75.334403 
L 271.362512 75.24595 
L 271.362512 75.234064 
L 271.271305 75.160381 
L 271.196682 75.079486 
L 271.196682 75.055675 
L 271.196682 75.034837 
L 270.724066 74.958624 
L 270.699192 74.859005 
L 270.674317 74.860793 
L 270.46703 74.801057 
L 270.35924 74.500796 
L 270.160244 74.440138 
L 270.160244 74.419162 
L 270.052455 74.111761 
L 269.952957 74.010608 
L 269.952957 74.0076 
L 269.845167 73.909928 
L 269.496924 73.832185 
L 269.496924 73.826156 
L 269.414009 73.638952 
L 269.156973 73.657111 
L 269.156973 73.569501 
L 269.049183 73.283594 
L 268.949685 73.187532 
L 268.949685 73.181468 
L 268.850187 73.015468 
L 268.841896 73.016049 
L 268.817021 73.011715 
L 268.817021 72.990454 
L 268.775564 72.649633 
L 268.758981 72.650787 
L 264.961473 72.849049 
L 264.961473 72.830682 
L 264.870267 71.998483 
L 264.72102 71.900892 
L 264.704437 71.868099 
L 264.621522 71.873831 
L 263.692874 71.938122 
L 263.651416 71.647139 
L 262.780808 71.601833 
L 262.780808 71.545975 
L 262.673019 71.407428 
L 262.523772 71.318196 
L 262.440857 71.099707 
L 262.415982 71.10141 
L 262.316484 71.005326 
L 262.316484 70.999087 
L 262.250152 70.963059 
L 262.134071 70.896062 
L 262.084322 70.743204 
L 262.076031 70.743769 
L 261.968241 70.657253 
L 261.968241 70.650994 
L 261.860452 70.385705 
L 261.835577 70.368566 
L 261.835577 70.34974 
L 261.785828 70.218099 
L 261.553666 70.13004 
L 261.445877 70.027182 
L 261.387836 69.939764 
L 261.387836 69.936614 
L 261.280047 68.915803 
L 261.180549 68.820691 
L 261.180549 68.817513 
L 261.180549 68.798439 
L 260.981553 68.741568 
L 260.981553 68.700199 
L 260.873763 68.611759 
L 259.729536 68.687011 
L 259.729536 68.645536 
L 259.729536 68.396404 
L 259.397876 68.174843 
L 259.323252 68.07392 
L 259.290086 68.076081 
L 259.273503 68.070747 
L 258.013195 67.579944 
L 257.913697 67.272979 
L 257.905406 67.273513 
L 257.863948 67.18233 
L 257.863948 67.175855 
L 257.76445 67.104513 
L 257.59862 67.030872 
L 257.59862 67.004928 
L 257.532288 66.970249 
L 257.366458 66.909452 
L 257.366458 66.870483 
L 257.283543 66.661223 
L 257.092839 66.490995 
L 257.034798 66.409914 
L 256.686555 66.389568 
L 255.409664 65.920307 
L 254.854133 65.853416 
L 254.854133 65.850128 
L 254.845842 65.824346 
L 254.704886 65.829919 
L 254.704886 65.724631 
L 254.704886 65.721339 
L 253.817696 65.671584 
L 253.709906 65.311712 
L 253.436287 65.252649 
L 253.436287 65.242717 
L 253.328497 64.93115 
L 253.187542 64.86017 
L 253.187542 64.833591 
L 253.112918 64.512144 
L 253.096335 64.513162 
L 252.971963 64.414135 
L 252.880756 64.079125 
L 252.698343 63.986512 
L 252.698343 63.983165 
L 252.640303 63.956562 
L 252.632011 63.957065 
L 252.491056 63.87853 
L 252.491056 63.868477 
L 252.491056 63.848369 
L 251.0815 63.65159 
L 251.0815 63.52703 
L 251.064917 63.52803 
L 247.126454 63.611186 
L 247.126454 63.604406 
L 247.026956 63.484967 
L 247.018665 63.48547 
L 246.803086 63.393293 
L 246.803086 63.389896 
L 246.695296 63.338657 
L 246.670422 63.302766 
L 246.637256 62.954084 
L 245.235992 62.716935 
L 245.128203 62.040204 
L 245.095037 62.007735 
L 245.095037 61.993962 
L 245.020413 61.377063 
L 245.012122 61.377545 
L 244.299053 61.335883 
L 244.299053 61.308159 
L 244.207846 61.153911 
L 244.191263 61.154871 
L 244.083474 61.081254 
L 244.083474 61.049992 
L 244.000559 60.891389 
L 243.975684 60.892821 
L 243.917644 60.802198 
L 243.917644 60.795235 
L 243.834729 60.287172 
L 243.577692 60.095313 
L 243.519651 60.046051 
L 243.51136 60.046519 
L 243.287489 59.964504 
L 243.196283 59.924041 
L 243.096785 59.511402 
L 243.088493 59.511865 
L 242.715376 59.451656 
L 242.615878 59.316145 
L 242.474922 59.214536 
L 242.383716 59.049938 
L 242.226177 58.984331 
L 242.226177 58.956012 
L 242.118388 58.280431 
L 242.093513 58.267543 
L 242.093513 58.171414 
L 241.985724 57.959775 
L 241.662355 57.887896 
L 239.904557 57.584474 
L 239.805059 57.492782 
L 239.299277 57.220906 
L 239.199779 56.988032 
L 239.191488 56.988468 
L 239.15003 56.965367 
L 239.067115 56.647813 
L 239.042241 56.649111 
L 238.801787 56.563815 
L 238.801787 56.556564 
L 238.718872 56.186902 
L 237.607811 56.134994 
L 237.508313 55.954104 
L 237.400524 55.930431 
L 237.400524 55.861037 
L 237.392232 55.799343 
L 237.383941 55.799767 
L 236.372378 55.752709 
L 236.281171 55.669426 
L 236.264588 55.670272 
L 236.073884 55.613992 
L 236.073884 55.606654 
L 235.990969 55.383201 
L 235.899762 55.328996 
L 235.899762 55.284861 
L 235.791972 55.190935 
L 234.382417 55.184646 
L 234.382417 55.151419 
L 234.274628 54.924013 
L 234.258045 54.861944 
L 234.258045 54.821228 
L 234.249753 54.769804 
L 233.926385 54.697006 
L 233.926385 54.685883 
L 233.884927 54.650863 
L 232.583162 54.608013 
L 232.276376 54.604709 
L 232.210044 54.559629 
L 232.210044 54.500049 
L 232.201753 54.466937 
L 232.110546 54.471469 
L 232.035923 54.426726 
L 231.928133 53.695639 
L 231.870092 53.600961 
L 231.845218 53.485823 
L 231.828635 53.486624 
L 231.521849 53.430054 
L 231.521849 53.392466 
L 231.521849 53.384947 
L 231.430643 53.38934 
L 231.273104 53.351793 
L 231.181898 53.18676 
L 230.991193 53.173285 
L 230.991193 53.14313 
L 230.891695 52.94792 
L 230.568327 52.868838 
L 230.568327 52.857497 
L 230.460537 52.730212 
L 229.797217 52.666867 
L 229.797217 52.651702 
L 229.15048 52.488591 
L 228.661282 52.408896 
L 228.661282 52.401284 
L 228.661282 52.397478 
L 228.528618 52.403707 
L 228.528618 52.3999 
L 227.765799 52.088483 
L 227.409265 52.10127 
L 227.409265 51.902318 
L 227.392682 51.903086 
L 226.55524 51.515736 
L 225.477345 51.472724 
L 225.477345 51.445741 
L 225.369556 51.292505 
L 225.278349 51.288941 
L 225.278349 51.188524 
L 225.270058 51.157988 
L 224.913523 51.104557 
L 224.913523 50.899374 
L 224.532114 50.823485 
L 224.532114 50.815727 
L 224.424325 49.999487 
L 223.346429 50.003642 
L 223.346429 49.987999 
L 223.246931 49.64771 
L 217.791124 49.786872 
L 217.791124 49.778957 
L 217.699917 49.477861 
L 217.683334 49.478581 
L 217.227302 49.391176 
L 217.227302 49.387203 
L 217.152678 49.366595 
L 217.127804 49.367671 
L 216.854184 49.32385 
L 216.854184 49.319873 
L 216.821018 48.431476 
L 216.447901 48.374986 
L 216.447901 48.286796 
L 216.423026 48.287832 
L 215.411463 48.273799 
L 215.411463 48.249688 
L 215.378297 48.162625 
L 215.353422 48.163659 
L 214.938847 48.180893 
L 214.938847 48.072195 
L 214.864224 47.978584 
L 214.855932 47.978927 
L 213.288839 47.975094 
L 213.288839 47.962966 
L 213.181049 47.854157 
L 210.511186 47.928135 
L 210.511186 47.692149 
L 210.237566 47.642297 
L 210.237566 47.638221 
L 210.154651 47.417252 
L 210.129777 47.418266 
L 210.113194 47.390357 
L 210.104902 47.157713 
L 210.046862 47.160055 
L 209.864449 47.065072 
L 209.864449 47.056881 
L 209.756659 46.76187 
L 208.537809 46.707536 
L 208.496351 46.659779 
L 208.463185 46.661095 
L 207.841322 46.628067 
L 207.841322 46.61157 
L 207.733533 46.363992 
L 207.534537 46.272558 
L 207.534537 46.264285 
L 207.468205 46.117856 
L 207.426747 46.119467 
L 206.788302 46.098691 
L 206.788302 46.073804 
L 206.788302 46.019865 
L 206.755136 46.02115 
L 206.547848 45.8464 
L 206.481516 45.495134 
L 206.473225 45.495449 
L 205.826488 45.432353 
L 205.826488 45.424003 
L 205.818196 45.273933 
L 205.760156 45.276115 
L 205.693824 45.27443 
L 205.693824 45.245163 
L 204.615929 44.592881 
L 204.12673 44.522287 
L 204.12673 44.501209 
L 204.043815 44.428313 
L 203.662406 44.370394 
L 198.654339 44.447095 
L 198.654339 44.442833 
L 198.654339 44.434308 
L 198.1071 44.45442 
L 198.1071 44.450153 
L 198.057351 44.238471 
L 198.04906 44.238774 
L 197.161869 44.194087 
L 197.161869 44.176957 
L 197.11212 43.870052 
L 197.095537 43.870647 
L 196.772169 43.843596 
L 196.772169 43.787737 
L 196.739003 43.698638 
L 196.730711 43.698933 
L 196.39076 43.633569 
L 196.39076 43.624957 
L 196.034225 43.452245 
L 191.167114 43.551331 
L 191.167114 43.538273 
L 191.067616 43.454735 
L 190.711081 43.362786 
L 190.711081 43.358424 
L 190.653041 43.351757 
L 190.619875 43.352932 
L 190.031178 43.286447 
L 190.031178 43.264595 
L 189.981429 43.100156 
L 189.956555 43.101028 
L 189.865348 43.073584 
L 189.865348 43.003519 
L 189.790725 42.909716 
L 188.422627 42.913416 
L 188.348003 42.629995 
L 188.323129 42.630849 
L 186.855533 42.588639 
L 185.819096 42.588923 
L 185.819096 42.584495 
L 185.711306 42.384326 
L 185.67814 42.385457 
L 185.67814 42.381021 
L 185.570351 42.002641 
L 185.421104 41.918614 
L 185.421104 41.900803 
L 185.321606 41.676796 
L 185.114318 41.594341 
L 185.114318 41.58541 
L 185.072861 41.524234 
L 185.006529 41.526399 
L 184.111046 41.470626 
L 184.036423 40.57005 
L 184.011548 40.570822 
L 183.862301 40.480751 
L 183.795969 39.863385 
L 183.762803 39.864373 
L 182.734657 39.817851 
L 182.734657 39.786054 
L 182.718074 39.58651 
L 182.303499 39.521264 
L 182.303499 39.512153 
L 182.220584 39.29115 
L 182.204001 39.291628 
L 181.665054 38.991664 
L 181.665054 38.790102 
L 181.150981 38.69892 
L 181.150981 38.616245 
L 181.059774 38.618769 
L 180.835904 38.514601 
L 180.728114 38.176665 
L 180.711531 38.172499 
L 180.711531 38.163273 
L 180.711531 37.881622 
L 179.683385 37.352074 
L 178.754737 37.273282 
L 178.66353 37.215001 
L 178.389911 37.221914 
L 178.389911 37.212584 
L 178.340162 36.8308 
L 178.157749 36.727625 
L 178.074834 36.528134 
L 178.066542 36.528333 
L 176.739902 36.475626 
L 176.739902 36.470922 
L 176.723319 36.108646 
L 176.001958 36.04045 
L 174.534363 35.865985 
L 174.451448 35.421137 
L 174.443156 35.42132 
L 173.929083 35.184733 
L 173.871043 34.827569 
L 173.821294 34.828615 
L 173.663755 34.750532 
L 173.663755 34.726583 
L 173.564257 34.675947 
L 173.555966 34.676119 
L 173.448176 34.582448 
L 173.431593 34.53961 
L 173.340387 34.541479 
L 173.091642 34.445714 
L 173.091642 34.436104 
L 173.017018 34.384747 
L 173.008727 34.384914 
L 172.718524 34.280107 
L 172.627318 34.272304 
L 172.08837 34.181851 
L 172.08837 34.177028 
L 172.063495 34.153401 
L 171.599171 34.061173 
L 171.499673 33.782548 
L 171.491382 33.782706 
L 171.466507 33.783182 
L 170.297406 33.202556 
L 169.816499 33.118545 
L 169.816499 33.103902 
L 169.733584 32.939302 
L 169.717001 32.939593 
L 167.652417 32.872946 
L 167.652417 32.868036 
L 167.610959 32.854027 
L 167.569502 32.854752 
L 166.251153 32.789201 
L 166.251153 32.769489 
L 166.143364 32.672742 
L 166.060449 32.614954 
L 165.960951 32.448721 
L 165.952659 32.44886 
L 165.695623 32.413608 
L 165.695623 32.408662 
L 165.612708 31.944313 
L 165.596125 31.944575 
L 165.223007 31.841172 
L 165.164967 31.817223 
L 165.140092 31.817609 
L 161.027508 31.771784 
L 160.919718 31.708233 
L 160.438811 31.610142 
L 160.438811 31.605115 
L 160.397353 31.545401 
L 160.372479 31.545778 
L 160.040819 31.465216 
L 160.040819 31.268665 
L 160.024236 31.268908 
L 159.029256 31.21778 
L 158.938049 31.102764 
L 158.929758 31.102882 
L 158.457142 31.089397 
L 158.357644 30.969164 
L 157.785531 30.870572 
L 157.686033 30.46997 
L 157.677741 30.470078 
L 157.66945 30.465091 
L 157.321207 30.398244 
L 157.180251 30.323504 
L 157.00613 30.218439 
L 157.00613 30.213328 
L 155.5717 30.103231 
L 151.799067 30.06248 
L 151.70786 29.965271 
L 151.04454 29.963022 
L 150.953334 29.585083 
L 150.397803 29.482112 
L 150.397803 29.471694 
L 150.207099 29.47384 
L 150.198807 29.312293 
L 147.918644 29.242933 
L 147.611859 29.114993 
L 147.147535 29.01471 
L 147.147535 29.009449 
L 147.089494 28.967944 
L 147.048037 28.968371 
L 144.90883 28.879371 
L 144.809332 28.774484 
L 144.80104 28.774566 
L 144.461088 28.772641 
L 144.461088 28.756738 
L 144.320133 27.99257 
L 142.379922 27.907001 
L 142.379922 27.901645 
L 142.338464 27.853769 
L 142.288715 27.854169 
L 140.729913 27.764551 
L 140.729913 27.759171 
L 140.638706 27.722215 
L 140.630415 27.72228 
L 139.345232 27.624324 
L 139.245734 27.608872 
L 139.237443 27.608935 
L 138.632163 27.516108 
L 138.632163 27.499866 
L 135.083401 27.231229 
L 135.075109 26.985103 
L 132.471578 26.891392 
L 132.454995 26.863939 
L 132.438412 26.864039 
L 128.632613 26.620277 
L 128.599447 26.553631 
L 126.941147 26.456398 
L 126.841649 26.428936 
L 126.833357 26.428979 
L 125.473551 26.368648 
L 125.415511 26.093443 
L 125.382345 26.09359 
L 123.724044 26.010577 
L 123.632838 25.943111 
L 121.10393 25.885328 
L 120.573274 25.653688 
L 117.712706 25.554603 
L 117.6215 25.526158 
L 117.604917 25.526212 
L 116.651394 25.419777 
L 116.626519 25.339093 
L 116.543604 25.339326 
L 112.994842 25.238814 
L 112.903635 25.215755 
L 112.895344 25.215777 
L 111.610161 25.113878 
L 111.568704 25.084739 
L 111.518955 25.084851 
L 109.769448 25.012465 
L 109.628493 24.9481 
L 106.74305 24.847188 
L 106.74305 24.829417 
L 106.643552 24.829585 
L 101.511113 24.754367 
L 101.511113 24.724359 
L 101.419907 24.724492 
L 99.595776 24.690986 
L 99.595776 24.636697 
L 99.454821 24.570473 
L 90.093716 24.469793 
L 90.093716 24.463613 
L 89.994218 24.463698 
L 63.627245 24.382275 
L 63.627245 24.355822 
L 63.618953 24.355827 
L 38.35475 24.266906 
L 38.172337 24.259895 
L -1 24.238462 
L -1 24.238462 
" clip-path="url(#p029c865a83)" style="fill: none; stroke: #800080; stroke-width: 1.5; stroke-linecap: square"/>
   </g>
   <g id="line2d_30">
    <path d="M 96.403548 24.263348 
L 217.981828 124.656686 
L 305.050881 178.595963 
L 355.47979 207.514983 
L 391.199577 227.370591 
" clip-path="url(#p029c865a83)" style="fill: none; stroke-dasharray: 5.55,2.4; stroke-dashoffset: 0; stroke: #000000; stroke-width: 1.5"/>
    <defs>
     <path id="mbbcd699a7c" d="M -3 3 
L 3 -3 
M -3 -3 
L 3 3 
" style="stroke: #000000"/>
    </defs>
    <g clip-path="url(#p029c865a83)">
     <use xlink:href="#mbbcd699a7c" x="96.403548" y="24.263348" style="stroke: #000000"/>
     <use xlink:href="#mbbcd699a7c" x="217.981828" y="124.656686" style="stroke: #000000"/>
     <use xlink:href="#mbbcd699a7c" x="305.050881" y="178.595963" style="stroke: #000000"/>
     <use xlink:href="#mbbcd699a7c" x="355.47979" y="207.514983" style="stroke: #000000"/>
     <use xlink:href="#mbbcd699a7c" x="391.199577" y="227.370591" style="stroke: #000000"/>
    </g>
   </g>
   <g id="patch_3">
    <path d="M 47.72 303.64 
L 47.72 10.8 
" style="fill: none; stroke: #000000; stroke-width: 0.8; stroke-linejoin: miter; stroke-linecap: square"/>
   </g>
   <g id="patch_4">
    <path d="M 450 303.64 
L 450 10.8 
" style="fill: none; stroke: #000000; stroke-width: 0.8; stroke-linejoin: miter; stroke-linecap: square"/>
   </g>
   <g id="patch_5">
    <path d="M 47.72 303.64 
L 450 303.64 
" style="fill: none; stroke: #000000; stroke-width: 0.8; stroke-linejoin: miter; stroke-linecap: square"/>
   </g>
   <g id="patch_6">
    <path d="M 47.72 10.8 
L 450 10.8 
" style="fill: none; stroke: #000000; stroke-width: 0.8; stroke-linejoin: miter; stroke-linecap: square"/>
   </g>
   <g id="text_17">
    <!-- R=0 -->
    <g transform="translate(72.543861 32.62163) scale(0.11 -0.11)">
     <defs>
      <path id="DejaVuSans-3d" d="M 678 2906 
L 4684 2906 
L 4684 2381 
L 678 2381 
L 678 2906 
z
M 678 1631 
L 4684 1631 
L 4684 1100 
L 678 1100 
L 678 1631 
z
" transform="scale(0.015625)"/>
     </defs>
     <use xlink:href="#DejaVuSans-52"/>
     <use xlink:href="#DejaVuSans-3d" transform="translate(69.482422 0)"/>
     <use xlink:href="#DejaVuSans-30" transform="translate(153.271484 0)"/>
    </g>
   </g>
   <g id="text_18">
    <!-- R=1 -->
    <g transform="translate(194.122141 133.014968) scale(0.11 -0.11)">
     <use xlink:href="#DejaVuSans-52"/>
     <use xlink:href="#DejaVuSans-3d" transform="translate(69.482422 0)"/>
     <use xlink:href="#DejaVuSans-31" transform="translate(153.271484 0)"/>
    </g>
   </g>
   <g id="text_19">
    <!-- R=2 -->
    <g transform="translate(281.191193 186.954245) scale(0.11 -0.11)">
     <defs>
      <path id="DejaVuSans-32" d="M 1228 531 
L 3431 531 
L 3431 0 
L 469 0 
L 469 531 
Q 828 903 1448 1529 
Q 2069 2156 2228 2338 
Q 2531 2678 2651 2914 
Q 2772 3150 2772 3378 
Q 2772 3750 2511 3984 
Q 2250 4219 1831 4219 
Q 1534 4219 1204 4116 
Q 875 4013 500 3803 
L 500 4441 
Q 881 4594 1212 4672 
Q 1544 4750 1819 4750 
Q 2544 4750 2975 4387 
Q 3406 4025 3406 3419 
Q 3406 3131 3298 2873 
Q 3191 2616 2906 2266 
Q 2828 2175 2409 1742 
Q 1991 1309 1228 531 
z
" transform="scale(0.015625)"/>
     </defs>
     <use xlink:href="#DejaVuSans-52"/>
     <use xlink:href="#DejaVuSans-3d" transform="translate(69.482422 0)"/>
     <use xlink:href="#DejaVuSans-32" transform="translate(153.271484 0)"/>
    </g>
   </g>
   <g id="text_20">
    <!-- R=3 -->
    <g transform="translate(331.620103 215.873265) scale(0.11 -0.11)">
     <use xlink:href="#DejaVuSans-52"/>
     <use xlink:href="#DejaVuSans-3d" transform="translate(69.482422 0)"/>
     <use xlink:href="#DejaVuSans-33" transform="translate(153.271484 0)"/>
    </g>
   </g>
   <g id="text_21">
    <!-- R=4 -->
    <g transform="translate(367.339889 235.728872) scale(0.11 -0.11)">
     <use xlink:href="#DejaVuSans-52"/>
     <use xlink:href="#DejaVuSans-3d" transform="translate(69.482422 0)"/>
     <use xlink:href="#DejaVuSans-34" transform="translate(153.271484 0)"/>
    </g>
   </g>
   <g id="legend_1">
    <g id="patch_7">
     <path d="M 54.72 298.64 
L 121.835625 298.64 
Q 123.835625 298.64 123.835625 296.64 
L 123.835625 268.28375 
Q 123.835625 266.28375 121.835625 266.28375 
L 54.72 266.28375 
Q 52.72 266.28375 52.72 268.28375 
L 52.72 296.64 
Q 52.72 298.64 54.72 298.64 
z
" style="fill: #ffffff; opacity: 0.8; stroke: #cccccc; stroke-linejoin: miter"/>
    </g>
    <g id="line2d_31">
     <path d="M 56.72 274.382187 
L 66.72 274.382187 
L 76.72 274.382187 
" style="fill: none; stroke: #800080; stroke-width: 1.5; stroke-linecap: square"/>
    </g>
    <g id="text_22">
     <!-- GNN -->
     <g transform="translate(84.72 277.882187) scale(0.1 -0.1)">
      <defs>
       <path id="DejaVuSans-47" d="M 3809 666 
L 3809 1919 
L 2778 1919 
L 2778 2438 
L 4434 2438 
L 4434 434 
Q 4069 175 3628 42 
Q 3188 -91 2688 -91 
Q 1594 -91 976 548 
Q 359 1188 359 2328 
Q 359 3472 976 4111 
Q 1594 4750 2688 4750 
Q 3144 4750 3555 4637 
Q 3966 4525 4313 4306 
L 4313 3634 
Q 3963 3931 3569 4081 
Q 3175 4231 2741 4231 
Q 1884 4231 1454 3753 
Q 1025 3275 1025 2328 
Q 1025 1384 1454 906 
Q 1884 428 2741 428 
Q 3075 428 3337 486 
Q 3600 544 3809 666 
z
" transform="scale(0.015625)"/>
       <path id="DejaVuSans-4e" d="M 628 4666 
L 1478 4666 
L 3547 763 
L 3547 4666 
L 4159 4666 
L 4159 0 
L 3309 0 
L 1241 3903 
L 1241 0 
L 628 0 
L 628 4666 
z
" transform="scale(0.015625)"/>
      </defs>
      <use xlink:href="#DejaVuSans-47"/>
      <use xlink:href="#DejaVuSans-4e" transform="translate(77.490234 0)"/>
      <use xlink:href="#DejaVuSans-4e" transform="translate(152.294922 0)"/>
     </g>
    </g>
    <g id="line2d_32">
     <path d="M 56.72 289.060312 
L 66.72 289.060312 
L 76.72 289.060312 
" style="fill: none; stroke-dasharray: 5.55,2.4; stroke-dashoffset: 0; stroke: #000000; stroke-width: 1.5"/>
     <g>
      <use xlink:href="#mbbcd699a7c" x="66.72" y="289.060312" style="stroke: #000000"/>
     </g>
    </g>
    <g id="text_23">
     <!-- RC + R -->
     <g transform="translate(84.72 292.560312) scale(0.1 -0.1)">
      <defs>
       <path id="DejaVuSans-43" d="M 4122 4306 
L 4122 3641 
Q 3803 3938 3442 4084 
Q 3081 4231 2675 4231 
Q 1875 4231 1450 3742 
Q 1025 3253 1025 2328 
Q 1025 1406 1450 917 
Q 1875 428 2675 428 
Q 3081 428 3442 575 
Q 3803 722 4122 1019 
L 4122 359 
Q 3791 134 3420 21 
Q 3050 -91 2638 -91 
Q 1578 -91 968 557 
Q 359 1206 359 2328 
Q 359 3453 968 4101 
Q 1578 4750 2638 4750 
Q 3056 4750 3426 4639 
Q 3797 4528 4122 4306 
z
" transform="scale(0.015625)"/>
       <path id="DejaVuSans-2b" d="M 2944 4013 
L 2944 2272 
L 4684 2272 
L 4684 1741 
L 2944 1741 
L 2944 0 
L 2419 0 
L 2419 1741 
L 678 1741 
L 678 2272 
L 2419 2272 
L 2419 4013 
L 2944 4013 
z
" transform="scale(0.015625)"/>
      </defs>
      <use xlink:href="#DejaVuSans-52"/>
      <use xlink:href="#DejaVuSans-43" transform="translate(64.482422 0)"/>
      <use xlink:href="#DejaVuSans-20" transform="translate(134.306641 0)"/>
      <use xlink:href="#DejaVuSans-2b" transform="translate(166.09375 0)"/>
      <use xlink:href="#DejaVuSans-20" transform="translate(249.882812 0)"/>
      <use xlink:href="#DejaVuSans-52" transform="translate(281.669922 0)"/>
     </g>
    </g>
   </g>
  </g>
 </g>
 <defs>
  <clipPath id="p029c865a83">
   <rect x="47.72" y="10.8" width="402.28" height="292.84"/>
  </clipPath>
 </defs>
</svg>
