<?xml version="1.0" encoding="utf-8" standalone="no"?>
<!DOCTYPE svg PUBLIC "-//W3C//DTD SVG 1.1//EN"
  "http://www.w3.org/Graphics/SVG/1.1/DTD/svg11.dtd">
<svg xmlns:xlink="http://www.w3.org/1999/xlink" width="460.8pt" height="345.6pt" viewBox="0 0 460.8 345.6" xmlns="http://www.w3.org/2000/svg" version="1.1">
 <metadata>
  <rdf:RDF xmlns:dc="http://purl.org/dc/elements/1.1/" xmlns:cc="http://creativecommons.org/ns#" xmlns:rdf="http://www.w3.org/1999/02/22-rdf-syntax-ns#">
   <cc:Work>
    <dc:type rdf:resource="http://purl.org/dc/dcmitype/StillImage"/>
    <dc:date>2026-01-12T13:22:31.131714</dc:date>
    <dc:format>image/svg+xml</dc:format>
    <dc:creator>
     <cc:Agent>
      <dc:title>Matplotlib v3.10.1, https://matplotlib.org/</dc:title>
     </cc:Agent>
    </dc:creator>
   </cc:Work>
  </rdf:RDF>
 </metadata>
 <defs>
  <style type="text/css">*{stroke-linejoin: round; stroke-linecap: butt}</style>
 </defs>
 <g id="figure_1">
  <g id="patch_1">
   <path d="M 0 345.6 
L 460.8 345.6 
L 460.8 0 
L 0 0 
z
" style="fill: #ffffff"/>
  </g>
  <g id="axes_1">
   <g id="patch_2">
    <path d="M 62.12 292.12 
L 445.68 292.12 
L 445.68 15.12 
L 62.12 15.12 
z
" style="fill: #ffffff"/>
   </g>
   <g id="matplotlib.axis_1">
    <g id="xtick_1">
     <g id="line2d_1">
      <path d="M 62.12 292.12 
L 62.12 15.12 
" clip-path="url(#p33548fb5a0)" style="fill: none; stroke: #b0b0b0; stroke-width: 0.8; stroke-linecap: square"/>
     </g>
     <g id="line2d_2">
      <defs>
       <path id="me0b455281e" d="M 0 0 
L 0 3.5 
" style="stroke: #000000; stroke-width: 0.8"/>
      </defs>
      <g>
       <use xlink:href="#me0b455281e" x="62.12" y="292.12" style="stroke: #000000; stroke-width: 0.8"/>
      </g>
     </g>
     <g id="text_1">
      <!-- 0.5 -->
      <g transform="translate(50.987813 309.757812) scale(0.14 -0.14)">
       <defs>
        <path id="DejaVuSans-30" d="M 2034 4250 
Q 1547 4250 1301 3770 
Q 1056 3291 1056 2328 
Q 1056 1369 1301 889 
Q 1547 409 2034 409 
Q 2525 409 2770 889 
Q 3016 1369 3016 2328 
Q 3016 3291 2770 3770 
Q 2525 4250 2034 4250 
z
M 2034 4750 
Q 2819 4750 3233 4129 
Q 3647 3509 3647 2328 
Q 3647 1150 3233 529 
Q 2819 -91 2034 -91 
Q 1250 -91 836 529 
Q 422 1150 422 2328 
Q 422 3509 836 4129 
Q 1250 4750 2034 4750 
z
" transform="scale(0.015625)"/>
        <path id="DejaVuSans-2e" d="M 684 794 
L 1344 794 
L 1344 0 
L 684 0 
L 684 794 
z
" transform="scale(0.015625)"/>
        <path id="DejaVuSans-35" d="M 691 4666 
L 3169 4666 
L 3169 4134 
L 1269 4134 
L 1269 2991 
Q 1406 3038 1543 3061 
Q 1681 3084 1819 3084 
Q 2600 3084 3056 2656 
Q 3513 2228 3513 1497 
Q 3513 744 3044 326 
Q 2575 -91 1722 -91 
Q 1428 -91 1123 -41 
Q 819 9 494 109 
L 494 744 
Q 775 591 1075 516 
Q 1375 441 1709 441 
Q 2250 441 2565 725 
Q 2881 1009 2881 1497 
Q 2881 1984 2565 2268 
Q 2250 2553 1709 2553 
Q 1456 2553 1204 2497 
Q 953 2441 691 2322 
L 691 4666 
z
" transform="scale(0.015625)"/>
       </defs>
       <use xlink:href="#DejaVuSans-30"/>
       <use xlink:href="#DejaVuSans-2e" transform="translate(63.623047 0)"/>
       <use xlink:href="#DejaVuSans-35" transform="translate(95.410156 0)"/>
      </g>
     </g>
    </g>
    <g id="xtick_2">
     <g id="line2d_3">
      <path d="M 131.858182 292.12 
L 131.858182 15.12 
" clip-path="url(#p33548fb5a0)" style="fill: none; stroke: #b0b0b0; stroke-width: 0.8; stroke-linecap: square"/>
     </g>
     <g id="line2d_4">
      <g>
       <use xlink:href="#me0b455281e" x="131.858182" y="292.12" style="stroke: #000000; stroke-width: 0.8"/>
      </g>
     </g>
     <g id="text_2">
      <!-- 0.6 -->
      <g transform="translate(120.725994 309.757812) scale(0.14 -0.14)">
       <defs>
        <path id="DejaVuSans-36" d="M 2113 2584 
Q 1688 2584 1439 2293 
Q 1191 2003 1191 1497 
Q 1191 994 1439 701 
Q 1688 409 2113 409 
Q 2538 409 2786 701 
Q 3034 994 3034 1497 
Q 3034 2003 2786 2293 
Q 2538 2584 2113 2584 
z
M 3366 4563 
L 3366 3988 
Q 3128 4100 2886 4159 
Q 2644 4219 2406 4219 
Q 1781 4219 1451 3797 
Q 1122 3375 1075 2522 
Q 1259 2794 1537 2939 
Q 1816 3084 2150 3084 
Q 2853 3084 3261 2657 
Q 3669 2231 3669 1497 
Q 3669 778 3244 343 
Q 2819 -91 2113 -91 
Q 1303 -91 875 529 
Q 447 1150 447 2328 
Q 447 3434 972 4092 
Q 1497 4750 2381 4750 
Q 2619 4750 2861 4703 
Q 3103 4656 3366 4563 
z
" transform="scale(0.015625)"/>
       </defs>
       <use xlink:href="#DejaVuSans-30"/>
       <use xlink:href="#DejaVuSans-2e" transform="translate(63.623047 0)"/>
       <use xlink:href="#DejaVuSans-36" transform="translate(95.410156 0)"/>
      </g>
     </g>
    </g>
    <g id="xtick_3">
     <g id="line2d_5">
      <path d="M 201.596364 292.12 
L 201.596364 15.12 
" clip-path="url(#p33548fb5a0)" style="fill: none; stroke: #b0b0b0; stroke-width: 0.8; stroke-linecap: square"/>
     </g>
     <g id="line2d_6">
      <g>
       <use xlink:href="#me0b455281e" x="201.596364" y="292.12" style="stroke: #000000; stroke-width: 0.8"/>
      </g>
     </g>
     <g id="text_3">
      <!-- 0.7 -->
      <g transform="translate(190.464176 309.757812) scale(0.14 -0.14)">
       <defs>
        <path id="DejaVuSans-37" d="M 525 4666 
L 3525 4666 
L 3525 4397 
L 1831 0 
L 1172 0 
L 2766 4134 
L 525 4134 
L 525 4666 
z
" transform="scale(0.015625)"/>
       </defs>
       <use xlink:href="#DejaVuSans-30"/>
       <use xlink:href="#DejaVuSans-2e" transform="translate(63.623047 0)"/>
       <use xlink:href="#DejaVuSans-37" transform="translate(95.410156 0)"/>
      </g>
     </g>
    </g>
    <g id="xtick_4">
     <g id="line2d_7">
      <path d="M 271.334545 292.12 
L 271.334545 15.12 
" clip-path="url(#p33548fb5a0)" style="fill: none; stroke: #b0b0b0; stroke-width: 0.8; stroke-linecap: square"/>
     </g>
     <g id="line2d_8">
      <g>
       <use xlink:href="#me0b455281e" x="271.334545" y="292.12" style="stroke: #000000; stroke-width: 0.8"/>
      </g>
     </g>
     <g id="text_4">
      <!-- 0.8 -->
      <g transform="translate(260.202358 309.757812) scale(0.14 -0.14)">
       <defs>
        <path id="DejaVuSans-38" d="M 2034 2216 
Q 1584 2216 1326 1975 
Q 1069 1734 1069 1313 
Q 1069 891 1326 650 
Q 1584 409 2034 409 
Q 2484 409 2743 651 
Q 3003 894 3003 1313 
Q 3003 1734 2745 1975 
Q 2488 2216 2034 2216 
z
M 1403 2484 
Q 997 2584 770 2862 
Q 544 3141 544 3541 
Q 544 4100 942 4425 
Q 1341 4750 2034 4750 
Q 2731 4750 3128 4425 
Q 3525 4100 3525 3541 
Q 3525 3141 3298 2862 
Q 3072 2584 2669 2484 
Q 3125 2378 3379 2068 
Q 3634 1759 3634 1313 
Q 3634 634 3220 271 
Q 2806 -91 2034 -91 
Q 1263 -91 848 271 
Q 434 634 434 1313 
Q 434 1759 690 2068 
Q 947 2378 1403 2484 
z
M 1172 3481 
Q 1172 3119 1398 2916 
Q 1625 2713 2034 2713 
Q 2441 2713 2670 2916 
Q 2900 3119 2900 3481 
Q 2900 3844 2670 4047 
Q 2441 4250 2034 4250 
Q 1625 4250 1398 4047 
Q 1172 3844 1172 3481 
z
" transform="scale(0.015625)"/>
       </defs>
       <use xlink:href="#DejaVuSans-30"/>
       <use xlink:href="#DejaVuSans-2e" transform="translate(63.623047 0)"/>
       <use xlink:href="#DejaVuSans-38" transform="translate(95.410156 0)"/>
      </g>
     </g>
    </g>
    <g id="xtick_5">
     <g id="line2d_9">
      <path d="M 341.072727 292.12 
L 341.072727 15.12 
" clip-path="url(#p33548fb5a0)" style="fill: none; stroke: #b0b0b0; stroke-width: 0.8; stroke-linecap: square"/>
     </g>
     <g id="line2d_10">
      <g>
       <use xlink:href="#me0b455281e" x="341.072727" y="292.12" style="stroke: #000000; stroke-width: 0.8"/>
      </g>
     </g>
     <g id="text_5">
      <!-- 0.9 -->
      <g transform="translate(329.94054 309.757812) scale(0.14 -0.14)">
       <defs>
        <path id="DejaVuSans-39" d="M 703 97 
L 703 672 
Q 941 559 1184 500 
Q 1428 441 1663 441 
Q 2288 441 2617 861 
Q 2947 1281 2994 2138 
Q 2813 1869 2534 1725 
Q 2256 1581 1919 1581 
Q 1219 1581 811 2004 
Q 403 2428 403 3163 
Q 403 3881 828 4315 
Q 1253 4750 1959 4750 
Q 2769 4750 3195 4129 
Q 3622 3509 3622 2328 
Q 3622 1225 3098 567 
Q 2575 -91 1691 -91 
Q 1453 -91 1209 -44 
Q 966 3 703 97 
z
M 1959 2075 
Q 2384 2075 2632 2365 
Q 2881 2656 2881 3163 
Q 2881 3666 2632 3958 
Q 2384 4250 1959 4250 
Q 1534 4250 1286 3958 
Q 1038 3666 1038 3163 
Q 1038 2656 1286 2365 
Q 1534 2075 1959 2075 
z
" transform="scale(0.015625)"/>
       </defs>
       <use xlink:href="#DejaVuSans-30"/>
       <use xlink:href="#DejaVuSans-2e" transform="translate(63.623047 0)"/>
       <use xlink:href="#DejaVuSans-39" transform="translate(95.410156 0)"/>
      </g>
     </g>
    </g>
    <g id="xtick_6">
     <g id="line2d_11">
      <path d="M 410.810909 292.12 
L 410.810909 15.12 
" clip-path="url(#p33548fb5a0)" style="fill: none; stroke: #b0b0b0; stroke-width: 0.8; stroke-linecap: square"/>
     </g>
     <g id="line2d_12">
      <g>
       <use xlink:href="#me0b455281e" x="410.810909" y="292.12" style="stroke: #000000; stroke-width: 0.8"/>
      </g>
     </g>
     <g id="text_6">
      <!-- 1.0 -->
      <g transform="translate(399.678722 309.757812) scale(0.14 -0.14)">
       <defs>
        <path id="DejaVuSans-31" d="M 794 531 
L 1825 531 
L 1825 4091 
L 703 3866 
L 703 4441 
L 1819 4666 
L 2450 4666 
L 2450 531 
L 3481 531 
L 3481 0 
L 794 0 
L 794 531 
z
" transform="scale(0.015625)"/>
       </defs>
       <use xlink:href="#DejaVuSans-31"/>
       <use xlink:href="#DejaVuSans-2e" transform="translate(63.623047 0)"/>
       <use xlink:href="#DejaVuSans-30" transform="translate(95.410156 0)"/>
      </g>
     </g>
    </g>
    <g id="text_7">
     <!-- Atom Recall -->
     <g transform="translate(212.279531 327.307187) scale(0.14 -0.14)">
      <defs>
       <path id="DejaVuSans-41" d="M 2188 4044 
L 1331 1722 
L 3047 1722 
L 2188 4044 
z
M 1831 4666 
L 2547 4666 
L 4325 0 
L 3669 0 
L 3244 1197 
L 1141 1197 
L 716 0 
L 50 0 
L 1831 4666 
z
" transform="scale(0.015625)"/>
       <path id="DejaVuSans-74" d="M 1172 4494 
L 1172 3500 
L 2356 3500 
L 2356 3053 
L 1172 3053 
L 1172 1153 
Q 1172 725 1289 603 
Q 1406 481 1766 481 
L 2356 481 
L 2356 0 
L 1766 0 
Q 1100 0 847 248 
Q 594 497 594 1153 
L 594 3053 
L 172 3053 
L 172 3500 
L 594 3500 
L 594 4494 
L 1172 4494 
z
" transform="scale(0.015625)"/>
       <path id="DejaVuSans-6f" d="M 1959 3097 
Q 1497 3097 1228 2736 
Q 959 2375 959 1747 
Q 959 1119 1226 758 
Q 1494 397 1959 397 
Q 2419 397 2687 759 
Q 2956 1122 2956 1747 
Q 2956 2369 2687 2733 
Q 2419 3097 1959 3097 
z
M 1959 3584 
Q 2709 3584 3137 3096 
Q 3566 2609 3566 1747 
Q 3566 888 3137 398 
Q 2709 -91 1959 -91 
Q 1206 -91 779 398 
Q 353 888 353 1747 
Q 353 2609 779 3096 
Q 1206 3584 1959 3584 
z
" transform="scale(0.015625)"/>
       <path id="DejaVuSans-6d" d="M 3328 2828 
Q 3544 3216 3844 3400 
Q 4144 3584 4550 3584 
Q 5097 3584 5394 3201 
Q 5691 2819 5691 2113 
L 5691 0 
L 5113 0 
L 5113 2094 
Q 5113 2597 4934 2840 
Q 4756 3084 4391 3084 
Q 3944 3084 3684 2787 
Q 3425 2491 3425 1978 
L 3425 0 
L 2847 0 
L 2847 2094 
Q 2847 2600 2669 2842 
Q 2491 3084 2119 3084 
Q 1678 3084 1418 2786 
Q 1159 2488 1159 1978 
L 1159 0 
L 581 0 
L 581 3500 
L 1159 3500 
L 1159 2956 
Q 1356 3278 1631 3431 
Q 1906 3584 2284 3584 
Q 2666 3584 2933 3390 
Q 3200 3197 3328 2828 
z
" transform="scale(0.015625)"/>
       <path id="DejaVuSans-20" transform="scale(0.015625)"/>
       <path id="DejaVuSans-52" d="M 2841 2188 
Q 3044 2119 3236 1894 
Q 3428 1669 3622 1275 
L 4263 0 
L 3584 0 
L 2988 1197 
Q 2756 1666 2539 1819 
Q 2322 1972 1947 1972 
L 1259 1972 
L 1259 0 
L 628 0 
L 628 4666 
L 2053 4666 
Q 2853 4666 3247 4331 
Q 3641 3997 3641 3322 
Q 3641 2881 3436 2590 
Q 3231 2300 2841 2188 
z
M 1259 4147 
L 1259 2491 
L 2053 2491 
Q 2509 2491 2742 2702 
Q 2975 2913 2975 3322 
Q 2975 3731 2742 3939 
Q 2509 4147 2053 4147 
L 1259 4147 
z
" transform="scale(0.015625)"/>
       <path id="DejaVuSans-65" d="M 3597 1894 
L 3597 1613 
L 953 1613 
Q 991 1019 1311 708 
Q 1631 397 2203 397 
Q 2534 397 2845 478 
Q 3156 559 3463 722 
L 3463 178 
Q 3153 47 2828 -22 
Q 2503 -91 2169 -91 
Q 1331 -91 842 396 
Q 353 884 353 1716 
Q 353 2575 817 3079 
Q 1281 3584 2069 3584 
Q 2775 3584 3186 3129 
Q 3597 2675 3597 1894 
z
M 3022 2063 
Q 3016 2534 2758 2815 
Q 2500 3097 2075 3097 
Q 1594 3097 1305 2825 
Q 1016 2553 972 2059 
L 3022 2063 
z
" transform="scale(0.015625)"/>
       <path id="DejaVuSans-63" d="M 3122 3366 
L 3122 2828 
Q 2878 2963 2633 3030 
Q 2388 3097 2138 3097 
Q 1578 3097 1268 2742 
Q 959 2388 959 1747 
Q 959 1106 1268 751 
Q 1578 397 2138 397 
Q 2388 397 2633 464 
Q 2878 531 3122 666 
L 3122 134 
Q 2881 22 2623 -34 
Q 2366 -91 2075 -91 
Q 1284 -91 818 406 
Q 353 903 353 1747 
Q 353 2603 823 3093 
Q 1294 3584 2113 3584 
Q 2378 3584 2631 3529 
Q 2884 3475 3122 3366 
z
" transform="scale(0.015625)"/>
       <path id="DejaVuSans-61" d="M 2194 1759 
Q 1497 1759 1228 1600 
Q 959 1441 959 1056 
Q 959 750 1161 570 
Q 1363 391 1709 391 
Q 2188 391 2477 730 
Q 2766 1069 2766 1631 
L 2766 1759 
L 2194 1759 
z
M 3341 1997 
L 3341 0 
L 2766 0 
L 2766 531 
Q 2569 213 2275 61 
Q 1981 -91 1556 -91 
Q 1019 -91 701 211 
Q 384 513 384 1019 
Q 384 1609 779 1909 
Q 1175 2209 1959 2209 
L 2766 2209 
L 2766 2266 
Q 2766 2663 2505 2880 
Q 2244 3097 1772 3097 
Q 1472 3097 1187 3025 
Q 903 2953 641 2809 
L 641 3341 
Q 956 3463 1253 3523 
Q 1550 3584 1831 3584 
Q 2591 3584 2966 3190 
Q 3341 2797 3341 1997 
z
" transform="scale(0.015625)"/>
       <path id="DejaVuSans-6c" d="M 603 4863 
L 1178 4863 
L 1178 0 
L 603 0 
L 603 4863 
z
" transform="scale(0.015625)"/>
      </defs>
      <use xlink:href="#DejaVuSans-41"/>
      <use xlink:href="#DejaVuSans-74" transform="translate(66.658203 0)"/>
      <use xlink:href="#DejaVuSans-6f" transform="translate(105.867188 0)"/>
      <use xlink:href="#DejaVuSans-6d" transform="translate(167.048828 0)"/>
      <use xlink:href="#DejaVuSans-20" transform="translate(264.460938 0)"/>
      <use xlink:href="#DejaVuSans-52" transform="translate(296.248047 0)"/>
      <use xlink:href="#DejaVuSans-65" transform="translate(361.230469 0)"/>
      <use xlink:href="#DejaVuSans-63" transform="translate(422.753906 0)"/>
      <use xlink:href="#DejaVuSans-61" transform="translate(477.734375 0)"/>
      <use xlink:href="#DejaVuSans-6c" transform="translate(539.013672 0)"/>
      <use xlink:href="#DejaVuSans-6c" transform="translate(566.796875 0)"/>
     </g>
    </g>
   </g>
   <g id="matplotlib.axis_2">
    <g id="ytick_1">
     <g id="line2d_13">
      <path d="M 62.12 223.538204 
L 445.68 223.538204 
" clip-path="url(#p33548fb5a0)" style="fill: none; stroke: #b0b0b0; stroke-width: 0.8; stroke-linecap: square"/>
     </g>
     <g id="line2d_14">
      <defs>
       <path id="m55e2b62f99" d="M 0 0 
L -3.5 0 
" style="stroke: #000000; stroke-width: 0.8"/>
      </defs>
      <g>
       <use xlink:href="#m55e2b62f99" x="62.12" y="223.538204" style="stroke: #000000; stroke-width: 0.8"/>
      </g>
     </g>
     <g id="text_8">
      <!-- 0.3 -->
      <g transform="translate(32.855625 228.857111) scale(0.14 -0.14)">
       <defs>
        <path id="DejaVuSans-33" d="M 2597 2516 
Q 3050 2419 3304 2112 
Q 3559 1806 3559 1356 
Q 3559 666 3084 287 
Q 2609 -91 1734 -91 
Q 1441 -91 1130 -33 
Q 819 25 488 141 
L 488 750 
Q 750 597 1062 519 
Q 1375 441 1716 441 
Q 2309 441 2620 675 
Q 2931 909 2931 1356 
Q 2931 1769 2642 2001 
Q 2353 2234 1838 2234 
L 1294 2234 
L 1294 2753 
L 1863 2753 
Q 2328 2753 2575 2939 
Q 2822 3125 2822 3475 
Q 2822 3834 2567 4026 
Q 2313 4219 1838 4219 
Q 1578 4219 1281 4162 
Q 984 4106 628 3988 
L 628 4550 
Q 988 4650 1302 4700 
Q 1616 4750 1894 4750 
Q 2613 4750 3031 4423 
Q 3450 4097 3450 3541 
Q 3450 3153 3228 2886 
Q 3006 2619 2597 2516 
z
" transform="scale(0.015625)"/>
       </defs>
       <use xlink:href="#DejaVuSans-30"/>
       <use xlink:href="#DejaVuSans-2e" transform="translate(63.623047 0)"/>
       <use xlink:href="#DejaVuSans-33" transform="translate(95.410156 0)"/>
      </g>
     </g>
    </g>
    <g id="ytick_2">
     <g id="line2d_15">
      <path d="M 62.12 195.562876 
L 445.68 195.562876 
" clip-path="url(#p33548fb5a0)" style="fill: none; stroke: #b0b0b0; stroke-width: 0.8; stroke-linecap: square"/>
     </g>
     <g id="line2d_16">
      <g>
       <use xlink:href="#m55e2b62f99" x="62.12" y="195.562876" style="stroke: #000000; stroke-width: 0.8"/>
      </g>
     </g>
     <g id="text_9">
      <!-- 0.4 -->
      <g transform="translate(32.855625 200.881783) scale(0.14 -0.14)">
       <defs>
        <path id="DejaVuSans-34" d="M 2419 4116 
L 825 1625 
L 2419 1625 
L 2419 4116 
z
M 2253 4666 
L 3047 4666 
L 3047 1625 
L 3713 1625 
L 3713 1100 
L 3047 1100 
L 3047 0 
L 2419 0 
L 2419 1100 
L 313 1100 
L 313 1709 
L 2253 4666 
z
" transform="scale(0.015625)"/>
       </defs>
       <use xlink:href="#DejaVuSans-30"/>
       <use xlink:href="#DejaVuSans-2e" transform="translate(63.623047 0)"/>
       <use xlink:href="#DejaVuSans-34" transform="translate(95.410156 0)"/>
      </g>
     </g>
    </g>
    <g id="ytick_3">
     <g id="line2d_17">
      <path d="M 62.12 167.587549 
L 445.68 167.587549 
" clip-path="url(#p33548fb5a0)" style="fill: none; stroke: #b0b0b0; stroke-width: 0.8; stroke-linecap: square"/>
     </g>
     <g id="line2d_18">
      <g>
       <use xlink:href="#m55e2b62f99" x="62.12" y="167.587549" style="stroke: #000000; stroke-width: 0.8"/>
      </g>
     </g>
     <g id="text_10">
      <!-- 0.5 -->
      <g transform="translate(32.855625 172.906455) scale(0.14 -0.14)">
       <use xlink:href="#DejaVuSans-30"/>
       <use xlink:href="#DejaVuSans-2e" transform="translate(63.623047 0)"/>
       <use xlink:href="#DejaVuSans-35" transform="translate(95.410156 0)"/>
      </g>
     </g>
    </g>
    <g id="ytick_4">
     <g id="line2d_19">
      <path d="M 62.12 139.612221 
L 445.68 139.612221 
" clip-path="url(#p33548fb5a0)" style="fill: none; stroke: #b0b0b0; stroke-width: 0.8; stroke-linecap: square"/>
     </g>
     <g id="line2d_20">
      <g>
       <use xlink:href="#m55e2b62f99" x="62.12" y="139.612221" style="stroke: #000000; stroke-width: 0.8"/>
      </g>
     </g>
     <g id="text_11">
      <!-- 0.6 -->
      <g transform="translate(32.855625 144.931127) scale(0.14 -0.14)">
       <use xlink:href="#DejaVuSans-30"/>
       <use xlink:href="#DejaVuSans-2e" transform="translate(63.623047 0)"/>
       <use xlink:href="#DejaVuSans-36" transform="translate(95.410156 0)"/>
      </g>
     </g>
    </g>
    <g id="ytick_5">
     <g id="line2d_21">
      <path d="M 62.12 111.636893 
L 445.68 111.636893 
" clip-path="url(#p33548fb5a0)" style="fill: none; stroke: #b0b0b0; stroke-width: 0.8; stroke-linecap: square"/>
     </g>
     <g id="line2d_22">
      <g>
       <use xlink:href="#m55e2b62f99" x="62.12" y="111.636893" style="stroke: #000000; stroke-width: 0.8"/>
      </g>
     </g>
     <g id="text_12">
      <!-- 0.7 -->
      <g transform="translate(32.855625 116.955799) scale(0.14 -0.14)">
       <use xlink:href="#DejaVuSans-30"/>
       <use xlink:href="#DejaVuSans-2e" transform="translate(63.623047 0)"/>
       <use xlink:href="#DejaVuSans-37" transform="translate(95.410156 0)"/>
      </g>
     </g>
    </g>
    <g id="ytick_6">
     <g id="line2d_23">
      <path d="M 62.12 83.661565 
L 445.68 83.661565 
" clip-path="url(#p33548fb5a0)" style="fill: none; stroke: #b0b0b0; stroke-width: 0.8; stroke-linecap: square"/>
     </g>
     <g id="line2d_24">
      <g>
       <use xlink:href="#m55e2b62f99" x="62.12" y="83.661565" style="stroke: #000000; stroke-width: 0.8"/>
      </g>
     </g>
     <g id="text_13">
      <!-- 0.8 -->
      <g transform="translate(32.855625 88.980471) scale(0.14 -0.14)">
       <use xlink:href="#DejaVuSans-30"/>
       <use xlink:href="#DejaVuSans-2e" transform="translate(63.623047 0)"/>
       <use xlink:href="#DejaVuSans-38" transform="translate(95.410156 0)"/>
      </g>
     </g>
    </g>
    <g id="ytick_7">
     <g id="line2d_25">
      <path d="M 62.12 55.686237 
L 445.68 55.686237 
" clip-path="url(#p33548fb5a0)" style="fill: none; stroke: #b0b0b0; stroke-width: 0.8; stroke-linecap: square"/>
     </g>
     <g id="line2d_26">
      <g>
       <use xlink:href="#m55e2b62f99" x="62.12" y="55.686237" style="stroke: #000000; stroke-width: 0.8"/>
      </g>
     </g>
     <g id="text_14">
      <!-- 0.9 -->
      <g transform="translate(32.855625 61.005143) scale(0.14 -0.14)">
       <use xlink:href="#DejaVuSans-30"/>
       <use xlink:href="#DejaVuSans-2e" transform="translate(63.623047 0)"/>
       <use xlink:href="#DejaVuSans-39" transform="translate(95.410156 0)"/>
      </g>
     </g>
    </g>
    <g id="ytick_8">
     <g id="line2d_27">
      <path d="M 62.12 27.710909 
L 445.68 27.710909 
" clip-path="url(#p33548fb5a0)" style="fill: none; stroke: #b0b0b0; stroke-width: 0.8; stroke-linecap: square"/>
     </g>
     <g id="line2d_28">
      <g>
       <use xlink:href="#m55e2b62f99" x="62.12" y="27.710909" style="stroke: #000000; stroke-width: 0.8"/>
      </g>
     </g>
     <g id="text_15">
      <!-- 1.0 -->
      <g transform="translate(32.855625 33.029815) scale(0.14 -0.14)">
       <use xlink:href="#DejaVuSans-31"/>
       <use xlink:href="#DejaVuSans-2e" transform="translate(63.623047 0)"/>
       <use xlink:href="#DejaVuSans-30" transform="translate(95.410156 0)"/>
      </g>
     </g>
    </g>
    <g id="text_16">
     <!-- Atom Precision -->
     <g transform="translate(25.944063 205.58625) rotate(-90) scale(0.14 -0.14)">
      <defs>
       <path id="DejaVuSans-50" d="M 1259 4147 
L 1259 2394 
L 2053 2394 
Q 2494 2394 2734 2622 
Q 2975 2850 2975 3272 
Q 2975 3691 2734 3919 
Q 2494 4147 2053 4147 
L 1259 4147 
z
M 628 4666 
L 2053 4666 
Q 2838 4666 3239 4311 
Q 3641 3956 3641 3272 
Q 3641 2581 3239 2228 
Q 2838 1875 2053 1875 
L 1259 1875 
L 1259 0 
L 628 0 
L 628 4666 
z
" transform="scale(0.015625)"/>
       <path id="DejaVuSans-72" d="M 2631 2963 
Q 2534 3019 2420 3045 
Q 2306 3072 2169 3072 
Q 1681 3072 1420 2755 
Q 1159 2438 1159 1844 
L 1159 0 
L 581 0 
L 581 3500 
L 1159 3500 
L 1159 2956 
Q 1341 3275 1631 3429 
Q 1922 3584 2338 3584 
Q 2397 3584 2469 3576 
Q 2541 3569 2628 3553 
L 2631 2963 
z
" transform="scale(0.015625)"/>
       <path id="DejaVuSans-69" d="M 603 3500 
L 1178 3500 
L 1178 0 
L 603 0 
L 603 3500 
z
M 603 4863 
L 1178 4863 
L 1178 4134 
L 603 4134 
L 603 4863 
z
" transform="scale(0.015625)"/>
       <path id="DejaVuSans-73" d="M 2834 3397 
L 2834 2853 
Q 2591 2978 2328 3040 
Q 2066 3103 1784 3103 
Q 1356 3103 1142 2972 
Q 928 2841 928 2578 
Q 928 2378 1081 2264 
Q 1234 2150 1697 2047 
L 1894 2003 
Q 2506 1872 2764 1633 
Q 3022 1394 3022 966 
Q 3022 478 2636 193 
Q 2250 -91 1575 -91 
Q 1294 -91 989 -36 
Q 684 19 347 128 
L 347 722 
Q 666 556 975 473 
Q 1284 391 1588 391 
Q 1994 391 2212 530 
Q 2431 669 2431 922 
Q 2431 1156 2273 1281 
Q 2116 1406 1581 1522 
L 1381 1569 
Q 847 1681 609 1914 
Q 372 2147 372 2553 
Q 372 3047 722 3315 
Q 1072 3584 1716 3584 
Q 2034 3584 2315 3537 
Q 2597 3491 2834 3397 
z
" transform="scale(0.015625)"/>
       <path id="DejaVuSans-6e" d="M 3513 2113 
L 3513 0 
L 2938 0 
L 2938 2094 
Q 2938 2591 2744 2837 
Q 2550 3084 2163 3084 
Q 1697 3084 1428 2787 
Q 1159 2491 1159 1978 
L 1159 0 
L 581 0 
L 581 3500 
L 1159 3500 
L 1159 2956 
Q 1366 3272 1645 3428 
Q 1925 3584 2291 3584 
Q 2894 3584 3203 3211 
Q 3513 2838 3513 2113 
z
" transform="scale(0.015625)"/>
      </defs>
      <use xlink:href="#DejaVuSans-41"/>
      <use xlink:href="#DejaVuSans-74" transform="translate(66.658203 0)"/>
      <use xlink:href="#DejaVuSans-6f" transform="translate(105.867188 0)"/>
      <use xlink:href="#DejaVuSans-6d" transform="translate(167.048828 0)"/>
      <use xlink:href="#DejaVuSans-20" transform="translate(264.460938 0)"/>
      <use xlink:href="#DejaVuSans-50" transform="translate(296.248047 0)"/>
      <use xlink:href="#DejaVuSans-72" transform="translate(354.800781 0)"/>
      <use xlink:href="#DejaVuSans-65" transform="translate(393.664062 0)"/>
      <use xlink:href="#DejaVuSans-63" transform="translate(455.1875 0)"/>
      <use xlink:href="#DejaVuSans-69" transform="translate(510.167969 0)"/>
      <use xlink:href="#DejaVuSans-73" transform="translate(537.951172 0)"/>
      <use xlink:href="#DejaVuSans-69" transform="translate(590.050781 0)"/>
      <use xlink:href="#DejaVuSans-6f" transform="translate(617.833984 0)"/>
      <use xlink:href="#DejaVuSans-6e" transform="translate(679.015625 0)"/>
     </g>
    </g>
   </g>
   <g id="line2d_29">
    <path d="M 410.810909 279.529091 
L 410.700432 270.608682 
L 410.690389 270.496975 
L 410.579911 268.261149 
L 410.559825 268.157771 
L 410.559825 268.15236 
L 410.449348 265.242363 
L 410.439304 265.132871 
L 410.328827 262.303768 
L 410.24848 262.098526 
L 410.138003 260.426146 
L 410.12796 260.42671 
L 410.12796 260.32044 
L 410.017482 254.497066 
L 410.007439 254.497685 
L 410.007439 254.389311 
L 409.927092 248.028229 
L 409.043275 247.970779 
L 409.043275 247.970597 
L 408.972971 245.476008 
L 408.792191 245.488551 
L 408.792191 245.391427 
L 408.681714 242.232492 
L 408.651584 242.23466 
L 408.651584 242.1385 
L 408.58128 240.196787 
L 408.430629 240.20786 
L 408.430629 240.102314 
L 408.330196 237.868616 
L 408.290022 237.81454 
L 408.179545 236.97356 
L 408.139371 236.976609 
L 408.139371 236.86706 
L 408.038938 233.739484 
L 408.028894 233.740269 
L 407.988721 233.728236 
L 407.988721 233.646647 
L 407.888287 232.059385 
L 407.8682 232.060979 
L 407.8682 231.955308 
L 407.817983 230.913384 
L 407.536769 230.668103 
L 407.456422 230.088433 
L 407.396162 230.093293 
L 407.396162 229.99003 
L 407.315815 227.623662 
L 407.285685 227.62614 
L 407.275641 227.626966 
L 407.275641 227.611462 
L 407.245511 227.142684 
L 406.94421 227.152865 
L 406.94421 227.092051 
L 406.863863 225.491937 
L 406.652952 225.509565 
L 406.652952 225.41589 
L 406.542475 223.802964 
L 406.532431 223.693095 
L 406.431998 221.700146 
L 406.411911 221.70187 
L 406.411911 221.663367 
L 406.301434 219.030372 
L 406.29139 219.031248 
L 406.29139 218.988275 
L 406.241174 218.81017 
L 406.070436 218.772123 
L 406.070436 218.722761 
L 405.980046 216.969052 
L 405.939872 216.96114 
L 405.939872 216.907181 
L 405.829395 216.045682 
L 405.769135 215.982957 
L 405.769135 215.939541 
L 405.668701 215.469499 
L 405.618484 215.39403 
L 405.618484 215.389193 
L 405.578311 214.811812 
L 405.377443 214.829797 
L 405.377443 214.744682 
L 405.266966 212.830603 
L 405.256923 212.831513 
L 405.256923 212.721712 
L 405.146446 211.21598 
L 405.096229 211.165722 
L 405.096229 211.112747 
L 404.985752 208.513786 
L 404.915448 208.427186 
L 404.915448 208.418019 
L 404.804971 206.589237 
L 404.794928 206.590174 
L 404.794928 206.511383 
L 404.734667 206.305412 
L 404.704537 206.122954 
L 404.202368 206.169916 
L 404.202368 206.161917 
L 404.101935 204.255799 
L 403.85085 204.22963 
L 403.740373 203.29272 
L 403.338638 203.275449 
L 403.338638 203.221758 
L 403.228161 199.903997 
L 403.187988 199.843991 
L 403.087554 197.528237 
L 403.07751 197.529209 
L 402.916816 196.526958 
L 402.816383 195.837061 
L 402.464865 194.705592 
L 402.354387 194.44213 
L 402.334301 193.717875 
L 402.203737 192.902807 
L 402.022956 192.258021 
L 401.912479 190.804312 
L 401.651351 190.692994 
L 401.540874 190.307104 
L 401.500701 190.311079 
L 401.500701 190.242292 
L 401.420354 189.721642 
L 401.309877 188.42109 
L 401.25966 188.366145 
L 401.25966 188.336524 
L 401.25966 188.206016 
L 401.249616 188.207015 
L 401.119052 188.17842 
L 401.119052 188.127886 
L 401.018619 187.589686 
L 401.008575 187.589937 
L 400.938272 187.498574 
L 400.938272 187.491058 
L 400.857925 185.880366 
L 400.837838 185.881603 
L 400.707274 185.839051 
L 400.707274 185.784163 
L 400.596797 185.650419 
L 400.586754 185.651424 
L 400.586754 185.542018 
L 400.476276 182.329409 
L 400.466233 182.33042 
L 400.466233 182.259194 
L 400.466233 182.063108 
L 400.275409 182.038763 
L 400.275409 182.007509 
L 400.164932 180.884715 
L 400.114715 180.826093 
L 400.064498 180.051674 
L 399.74311 179.913328 
L 399.74311 179.823906 
L 399.532199 179.170145 
L 399.481982 178.766564 
L 399.050117 175.974889 
L 398.829163 175.99735 
L 398.829163 175.933042 
L 398.718686 173.83212 
L 398.688556 173.712524 
L 398.578079 172.280983 
L 398.547948 172.27831 
L 398.547948 172.19782 
L 398.487688 171.715147 
L 398.367168 171.630802 
L 398.367168 171.62113 
L 398.286821 170.874592 
L 398.186387 170.883866 
L 398.186387 170.86039 
L 398.095997 168.564538 
L 398.065866 168.567616 
L 398.055823 168.458285 
L 397.965433 168.109938 
L 397.955389 168.110964 
L 397.915216 168.115069 
L 397.915216 168.007027 
L 397.915216 167.18412 
L 397.804739 167.195409 
L 397.754522 167.17783 
L 397.754522 167.093117 
L 397.644045 165.422288 
L 397.613915 165.401015 
L 397.322657 164.0676 
L 397.27244 163.984164 
L 397.27244 163.964708 
L 397.172006 162.797849 
L 397.141876 162.738265 
L 397.141876 162.689856 
L 397.031399 162.41664 
L 397.001269 162.381037 
L 397.001269 162.31689 
L 396.890792 160.176751 
L 396.720054 160.17936 
L 396.649751 159.62822 
L 396.52923 159.488769 
L 396.418753 155.862518 
L 396.368536 155.850709 
L 396.338406 155.149664 
L 396.147582 155.038441 
L 395.906541 154.834123 
L 395.484719 152.919566 
L 395.414415 152.827315 
L 395.354155 152.689789 
L 395.243678 152.164402 
L 395.113114 152.089957 
L 395.113114 152.077242 
L 395.002637 151.759665 
L 394.741509 151.484151 
L 394.600902 151.438115 
L 394.550685 151.058623 
L 394.470338 148.564588 
L 394.400035 148.571675 
L 394.400035 148.558363 
L 394.400035 148.171364 
L 394.199167 148.116649 
L 394.14895 147.626059 
L 394.11882 147.627744 
L 393.897866 147.647293 
L 393.897866 147.640555 
L 393.044179 145.347678 
L 392.873442 144.800549 
L 392.652487 144.810109 
L 392.652487 144.801718 
L 392.54201 143.938217 
L 392.501837 143.935168 
L 392.501837 143.867279 
L 392.491793 142.827378 
L 392.140275 142.434272 
L 392.049885 141.708181 
L 392.009711 141.712179 
L 391.999668 141.602638 
L 391.949451 141.374431 
L 391.798801 141.377738 
L 391.798801 141.284255 
L 391.728497 140.938274 
L 391.658193 140.686532 
L 391.638107 140.641399 
L 391.376979 140.574466 
L 391.376979 140.559715 
L 391.125894 140.44882 
L 391.015417 140.016779 
L 391.005374 140.017775 
L 391.005374 139.976169 
L 390.673943 139.340458 
L 390.643812 139.284986 
L 390.643812 139.236991 
L 390.613682 139.103338 
L 390.493162 138.697968 
L 390.382685 137.820724 
L 390.372641 137.821715 
L 390.372641 137.812557 
L 390.262164 137.338185 
L 390.252121 137.339175 
L 390.252121 137.306929 
L 390.141644 136.70125 
L 390.121557 136.690848 
L 390.121557 136.625839 
L 390.07134 136.027865 
L 389.719822 135.73266 
L 389.599301 132.95212 
L 389.539041 132.957971 
L 389.539041 132.924007 
L 389.458694 131.728103 
L 389.137306 131.346503 
L 389.046916 130.693541 
L 388.765701 130.492835 
L 388.655224 130.388514 
L 388.4644 130.378537 
L 388.4644 130.296776 
L 388.353923 129.702694 
L 387.821624 129.654586 
L 387.821624 129.65122 
L 387.731234 128.441395 
L 387.640843 128.357843 
L 387.530366 127.826965 
L 387.520323 127.827923 
L 387.520323 127.717866 
L 387.419889 127.373987 
L 387.329499 127.311732 
L 387.329499 127.273687 
L 387.239108 126.942614 
L 387.229065 126.943569 
L 387.168805 126.949296 
L 387.168805 126.839839 
L 387.158761 126.785145 
L 386.927764 126.807089 
L 386.927764 126.770548 
L 386.817287 126.026006 
L 386.807243 126.026957 
L 386.807243 125.998871 
L 386.696766 125.047395 
L 386.656593 124.955314 
L 386.656593 124.949985 
L 386.566202 124.704117 
L 386.556159 124.705062 
L 386.284988 124.655736 
L 386.284988 124.63612 
L 386.194597 124.373127 
L 386.174511 124.375016 
L 386.094164 124.339628 
L 386.094164 124.275173 
L 386.043947 123.947944 
L 378.682153 124.497693 
L 378.682153 124.495887 
L 378.581719 124.474725 
L 378.531502 124.313075 
L 378.511416 124.313174 
L 378.501372 124.194544 
L 378.109681 124.119284 
L 378.109681 124.117468 
L 378.009247 123.806885 
L 377.999204 123.807838 
L 377.818423 123.715601 
L 377.818423 123.713777 
L 377.717989 123.408948 
L 377.697902 123.410852 
L 377.697902 123.40719 
L 377.637642 122.461405 
L 376.563001 122.483268 
L 376.563001 122.449917 
L 376.472611 121.995847 
L 376.452524 121.99774 
L 376.402307 121.93167 
L 376.402307 121.924213 
L 376.29183 121.51609 
L 376.251656 121.47866 
L 376.251656 121.409313 
L 376.151223 121.067461 
L 376.141179 121.068404 
L 376.101006 121.019459 
L 376.101006 121.017575 
L 376.040745 120.768633 
L 376.030702 120.769574 
L 375.829835 120.746844 
L 375.829835 120.726057 
L 375.729401 120.225662 
L 375.669141 120.181872 
L 375.669141 120.124812 
L 375.558663 120.028524 
L 375.51849 120.032277 
L 375.51849 119.942704 
L 375.408013 119.271719 
L 375.397969 119.272653 
L 375.397969 119.161185 
L 375.327666 119.10424 
L 375.036408 118.81515 
L 374.925931 117.352034 
L 374.77528 117.330593 
L 374.77528 117.324705 
L 374.68489 114.964414 
L 374.594499 114.972622 
L 374.484022 114.581417 
L 374.473979 114.582327 
L 374.473979 114.549994 
L 374.473979 114.382091 
L 374.192764 114.087063 
L 373.188427 114.108767 
L 373.188427 114.102664 
L 373.188427 113.762303 
L 373.098037 113.770467 
L 372.625998 113.706865 
L 372.625998 113.70482 
L 372.545651 113.480751 
L 372.485391 113.363129 
L 372.374914 113.005013 
L 372.284523 112.916263 
L 372.24435 112.82083 
L 371.752224 112.772111 
L 371.752224 112.757641 
L 371.671877 112.636596 
L 371.59153 112.153989 
L 371.460967 112.119894 
L 371.460967 112.057417 
L 371.360533 111.851589 
L 371.330403 111.814604 
L 371.330403 111.797892 
L 371.240012 111.33475 
L 371.009015 111.25871 
L 371.009015 111.243997 
L 370.938711 111.062992 
L 370.898538 111.064461 
L 370.848321 110.959342 
L 370.838277 110.922271 
L 369.874113 110.703679 
L 369.763636 110.473942 
L 369.703376 110.370977 
L 369.612986 109.903951 
L 368.468041 109.900589 
L 368.367607 109.716762 
L 368.267173 109.642014 
L 368.267173 109.633432 
L 368.227 108.710011 
L 368.076349 103.286801 
L 367.955829 103.255794 
L 367.955829 103.052021 
L 367.945785 103.052866 
L 367.664571 103.014614 
L 367.664571 102.996262 
L 367.664571 102.849332 
L 367.313053 102.773108 
L 367.313053 102.768507 
L 367.202576 102.418252 
L 367.001708 102.340363 
L 367.001708 102.298752 
L 366.991665 102.299593 
L 366.77071 102.218603 
L 366.77071 102.213973 
L 366.730537 102.089932 
L 366.71045 102.091611 
L 366.358932 102.049107 
L 366.358932 102.011979 
L 366.258498 101.699564 
L 366.218325 101.660993 
L 366.218325 101.612065 
L 366.168108 101.008517 
L 366.137978 101.011014 
L 366.027501 100.970924 
L 366.027501 100.914612 
L 366.027501 100.846527 
L 364.551125 100.8772 
L 364.551125 100.860727 
L 364.551125 100.853666 
L 364.30004 100.8015 
L 364.30004 100.796788 
L 364.189563 100.676288 
L 364.129303 100.619927 
L 364.129303 100.570344 
L 364.018826 100.380907 
L 363.988696 100.371566 
L 363.988696 100.369199 
L 363.878219 99.594278 
L 363.094835 99.364732 
L 363.064705 99.180372 
L 363.054662 99.181195 
L 362.813621 99.136181 
L 362.813621 99.104985 
L 362.713187 95.915721 
L 362.522363 95.906131 
L 362.522363 95.881374 
L 362.411886 93.920694 
L 362.321495 93.912597 
L 362.060368 92.30293 
L 361.91976 92.300887 
L 361.91976 92.208582 
L 361.809283 91.985906 
L 361.79924 91.986673 
L 361.79924 91.878641 
L 361.688763 91.119954 
L 361.678719 91.089604 
L 361.568242 90.638009 
L 361.538112 90.554305 
L 361.538112 90.543879 
L 361.437678 90.198952 
L 361.377418 90.164228 
L 361.377418 90.096183 
L 361.347288 89.94911 
L 361.327201 89.95061 
L 361.236811 89.925896 
L 361.236811 89.84719 
L 361.226768 88.003151 
L 360.724599 87.938317 
L 360.724599 87.930298 
L 360.614122 86.933977 
L 360.553861 86.922136 
L 360.553861 86.916739 
L 360.443384 86.150154 
L 360.433341 86.150872 
L 360.433341 86.042107 
L 360.433341 85.916896 
L 360.272647 85.922899 
L 360.272647 85.819337 
L 360.272647 85.805703 
L 360.121996 85.816426 
L 360.121996 85.778237 
L 360.011519 83.670603 
L 360.001476 83.671298 
L 360.001476 83.657393 
L 359.890999 83.19398 
L 359.519394 83.110533 
L 359.32857 83.050902 
L 359.29844 82.848438 
L 358.997138 82.773681 
L 358.997138 82.759642 
L 358.967008 82.742048 
L 358.685794 82.595445 
L 358.575317 82.405869 
L 358.474883 82.345046 
L 358.474883 82.147432 
L 357.882324 82.117038 
L 357.832107 81.902407 
L 357.771847 81.906493 
L 357.75176 81.907855 
L 357.75176 81.797247 
L 357.641283 81.398191 
L 357.611153 81.311894 
L 357.611153 81.300492 
L 357.581022 81.139911 
L 357.570979 81.140585 
L 357.259634 80.795365 
L 351.042785 81.21396 
L 351.042785 81.138998 
L 351.042785 81.092842 
L 349.71706 81.026692 
L 349.71706 81.006439 
L 349.606583 80.666139 
L 349.586496 80.667495 
L 349.586496 80.574568 
L 349.496106 79.21273 
L 349.174718 79.145692 
L 349.174718 79.130972 
L 349.064241 78.013858 
L 349.024067 77.951026 
L 349.024067 77.9421 
L 348.94372 77.610548 
L 348.91359 77.612492 
L 348.893503 77.533172 
L 348.893503 77.512263 
L 348.833243 77.228983 
L 348.79307 77.231559 
L 348.752896 77.159231 
L 348.642419 76.691723 
L 348.602245 76.688259 
L 348.602245 76.679228 
L 348.582159 76.448465 
L 348.572115 76.449101 
L 347.035479 76.437849 
L 346.955132 76.352184 
L 346.623701 76.270223 
L 346.543354 76.15402 
L 346.483093 76.088026 
L 346.38266 75.7873 
L 346.302313 75.688791 
L 346.302313 75.682696 
L 346.211922 75.517571 
L 346.191835 75.51883 
L 346.181792 75.519459 
L 346.181792 75.421741 
L 346.071315 75.202338 
L 345.990968 75.201223 
L 345.990968 75.103208 
L 345.970881 75.024758 
L 345.950794 75.026006 
L 344.80585 75.017422 
L 344.80585 75.011277 
L 344.785763 73.808035 
L 344.735546 73.543795 
L 344.705416 73.545624 
L 344.484462 73.478088 
L 344.484462 73.453168 
L 344.384028 73.25032 
L 343.389734 73.207324 
L 343.389734 73.201069 
L 343.309387 72.986779 
L 343.249127 72.990409 
L 343.249127 72.927716 
L 343.158736 72.26332 
L 341.893271 72.322927 
L 341.893271 72.300816 
L 341.833011 71.997558 
L 341.290669 71.906079 
L 341.290669 71.896561 
L 341.240452 71.823355 
L 341.180191 71.826922 
L 341.150061 71.828706 
L 341.150061 71.74929 
L 341.119931 71.483834 
L 341.109888 71.484425 
L 336.610456 71.600186 
L 336.610456 71.590571 
L 336.499979 70.667076 
L 335.987767 70.645253 
L 331.779593 70.827336 
L 331.779593 70.801325 
L 331.669115 70.684188 
L 331.538552 70.600664 
L 331.538552 70.587629 
L 331.528508 70.496931 
L 331.136817 70.497067 
L 331.136817 70.418715 
L 331.096643 70.319782 
L 330.735082 70.259156 
L 330.735082 70.255884 
L 330.624604 68.448544 
L 330.383563 68.428897 
L 330.383563 68.355727 
L 330.273086 67.788275 
L 330.192739 67.702435 
L 330.192739 67.699089 
L 330.172653 67.606472 
L 330.082262 67.611486 
L 329.680527 67.603623 
L 329.680527 67.523156 
L 329.580093 66.936903 
L 329.549963 66.877858 
L 329.549963 66.860994 
L 329.44953 66.64024 
L 329.389269 66.586042 
L 329.389269 66.498083 
L 329.379226 66.498628 
L 329.007621 66.444285 
L 328.917231 66.04531 
L 328.907187 66.04585 
L 328.867014 66.048009 
L 328.867014 65.94257 
L 328.79671 65.663557 
L 328.063544 65.634381 
L 328.063544 65.624133 
L 328.043457 65.307072 
L 327.501115 65.232942 
L 327.390638 64.729954 
L 327.340421 64.629173 
L 327.340421 64.625724 
L 327.320334 64.592282 
L 326.808122 64.549963 
L 326.808122 64.508512 
L 326.788035 64.412782 
L 326.777992 64.413304 
L 326.607255 64.380674 
L 326.607255 64.328769 
L 326.516864 63.917372 
L 325.994609 63.721606 
L 325.924305 63.215745 
L 325.904218 63.216762 
L 325.843958 63.219812 
L 325.843958 63.209321 
L 325.833915 62.898159 
L 325.823871 62.898664 
L 325.693307 62.905224 
L 325.693307 62.887687 
L 325.592874 62.435853 
L 325.58283 62.436352 
L 325.181095 62.396421 
L 325.181095 62.354119 
L 325.181095 62.25183 
L 325.171052 62.252327 
L 323.955804 62.241877 
L 323.955804 62.206511 
L 323.955804 62.167597 
L 323.895543 62.170579 
L 323.313028 62.100246 
L 323.313028 62.093158 
L 323.292941 61.867115 
L 322.820902 61.844145 
L 322.820902 61.783709 
L 322.730512 61.642254 
L 322.670252 61.513383 
L 322.579861 61.392954 
L 322.569818 61.393442 
L 319.114897 61.479862 
L 319.044593 61.41514 
L 318.873856 61.294207 
L 318.793509 61.103915 
L 318.693075 61.054785 
L 318.592641 60.539894 
L 318.522338 60.445552 
L 318.522338 60.434691 
L 318.522338 60.362258 
L 317.025875 60.332069 
L 317.025875 60.324804 
L 316.925441 60.071367 
L 316.915398 60.071844 
L 316.774791 59.983796 
L 316.774791 59.969217 
L 316.694444 59.936562 
L 312.365749 60.025083 
L 312.365749 60.003061 
L 312.245228 59.545376 
L 312.064448 59.465405 
L 312.004187 59.139508 
L 311.813363 59.070692 
L 311.813363 59.059586 
L 311.71293 58.908655 
L 311.351368 58.866058 
L 311.351368 58.81781 
L 311.311195 58.414364 
L 310.989807 58.417885 
L 310.989807 58.402979 
L 310.718636 58.198966 
L 310.678462 58.118601 
L 310.668419 58.119056 
L 310.19638 58.091868 
L 310.19638 58.031997 
L 310.126076 57.95655 
L 308.006924 57.13659 
L 307.986838 56.84579 
L 307.966751 56.846672 
L 306.610895 56.906318 
L 306.610895 56.811293 
L 306.530548 56.395813 
L 306.259377 56.392319 
L 306.259377 56.296848 
L 306.158943 56.262982 
L 305.927946 56.185013 
L 305.927946 56.181187 
L 305.817469 55.948486 
L 305.797382 55.949347 
L 305.797382 55.841952 
L 305.767252 55.716543 
L 305.767252 55.705019 
L 305.676861 55.708864 
L 305.606558 55.638829 
L 305.606558 55.627295 
L 305.496081 55.447263 
L 305.144562 55.438986 
L 305.144562 55.419716 
L 305.034085 54.709201 
L 305.003955 54.691057 
L 305.003955 54.539742 
L 303.919271 54.463707 
L 303.82888 54.268756 
L 303.818837 54.269165 
L 303.6481 54.248821 
L 303.6481 54.170795 
L 303.537623 54.030785 
L 303.517536 54.023781 
L 303.517536 53.929958 
L 303.487406 53.747225 
L 303.176061 53.732259 
L 303.176061 53.700902 
L 303.155974 53.485911 
L 302.985237 53.425897 
L 302.231984 53.396744 
L 302.231984 53.373127 
L 302.151637 53.305423 
L 301.32808 52.899489 
L 301.217603 52.618509 
L 301.066952 52.521126 
L 301.066952 52.513184 
L 300.956475 51.580658 
L 300.926345 51.577776 
L 300.926345 51.557769 
L 300.926345 51.349503 
L 300.122875 51.379137 
L 300.122875 51.270742 
L 300.012398 51.077823 
L 299.932051 50.984154 
L 299.841661 50.725411 
L 298.91767 50.738534 
L 298.91767 50.730451 
L 298.82728 50.454505 
L 298.756976 50.432704 
L 298.756976 50.38407 
L 298.646499 50.051059 
L 298.626412 50.047699 
L 298.626412 49.982641 
L 298.556109 49.332639 
L 298.515935 49.334008 
L 296.919039 49.302516 
L 296.919039 49.282011 
L 296.808561 48.94898 
L 296.075395 48.874826 
L 296.075395 48.866585 
L 296.075395 48.862464 
L 296.065352 48.862801 
L 295.502923 48.73727 
L 295.422576 48.396781 
L 295.412532 48.397111 
L 295.281968 48.330994 
L 295.281968 48.2937 
L 295.201621 48.221704 
L 294.689409 48.238452 
L 294.689409 48.234302 
L 294.599019 47.829814 
L 294.558845 47.831104 
L 294.558845 47.731121 
L 294.448368 47.630406 
L 294.287674 47.526991 
L 294.237457 47.419951 
L 294.227414 47.420268 
L 292.158479 47.389277 
L 292.158479 47.385081 
L 292.068088 47.081225 
L 291.987741 47.058484 
L 291.987741 47.054276 
L 291.957611 46.869924 
L 291.505659 46.778409 
L 291.405226 46.671703 
L 290.350671 46.076273 
L 290.310498 45.868958 
L 290.280368 45.869845 
L 290.149804 45.826824 
L 290.149804 45.796991 
L 288.924512 45.126529 
L 288.482604 45.096111 
L 286.112367 44.939103 
L 284.947336 44.629682 
L 284.856945 43.857382 
L 284.535557 43.835365 
L 284.184039 43.77039 
L 283.159615 43.723113 
L 282.72775 43.141103 
L 282.285841 43.055395 
L 282.285841 43.042158 
L 282.275798 42.980622 
L 280.498121 42.999304 
L 280.467991 42.72524 
L 280.236993 42.73103 
L 280.236993 42.682192 
L 280.166689 42.461707 
L 279.925648 42.36971 
L 279.925648 42.360803 
L 279.895518 42.276887 
L 279.855345 42.277866 
L 279.614304 42.207921 
L 279.102092 41.885063 
L 278.991614 41.811557 
L 278.820877 41.74837 
L 278.7104 41.549042 
L 278.690313 41.531544 
L 278.549706 41.179425 
L 278.198188 41.079189 
L 278.087711 40.973357 
L 277.203894 40.889122 
L 277.203894 40.884597 
L 277.093417 40.724016 
L 276.169426 40.712614 
L 276.169426 40.708075 
L 276.068992 40.050298 
L 276.058949 40.050509 
L 273.447672 40.000061 
L 273.447672 39.995475 
L 273.367325 39.974224 
L 272.664288 39.897077 
L 272.664288 39.887885 
L 272.664288 39.874095 
L 271.941165 39.67729 
L 269.239497 39.621791 
L 267.732991 39.383082 
L 267.632557 38.159808 
L 267.622514 38.15999 
L 267.481907 38.139044 
L 267.481907 38.063822 
L 267.391516 37.764092 
L 267.37143 37.764443 
L 266.357049 37.739717 
L 266.357049 37.720821 
L 266.336962 37.461076 
L 266.316875 37.461418 
L 264.709935 37.37013 
L 264.699892 37.360798 
L 264.629588 37.361986 
L 264.488981 37.354858 
L 264.398591 37.09943 
L 264.378504 37.099761 
L 264.358417 37.100092 
L 264.358417 37.095328 
L 264.298157 36.771984 
L 264.27807 36.772304 
L 264.09729 36.765628 
L 264.09729 36.76085 
L 263.986812 36.561765 
L 263.775902 36.5459 
L 263.775902 36.541112 
L 263.765858 36.268068 
L 263.524817 36.199687 
L 263.524817 36.17087 
L 263.464557 35.507214 
L 263.394253 35.508183 
L 263.394253 35.503355 
L 263.374167 35.116816 
L 263.364123 35.116948 
L 262.49035 34.80798 
L 262.399959 34.29281 
L 261.8074 34.226459 
L 261.8074 34.197129 
L 261.696923 34.139717 
L 261.666793 34.140062 
L 261.666793 34.032394 
L 261.556316 34.014051 
L 261.224884 33.93935 
L 261.224884 33.905023 
L 261.174667 33.905579 
L 259.899159 33.84596 
L 259.899159 33.826284 
L 259.858985 33.752912 
L 259.848942 33.75302 
L 259.537597 33.746541 
L 257.097057 33.22289 
L 256.996624 33.025055 
L 256.695322 32.918407 
L 256.614975 32.904217 
L 256.022416 32.805004 
L 255.952113 32.720763 
L 255.942069 32.720854 
L 255.480074 32.620023 
L 255.389684 31.702055 
L 255.038165 31.634023 
L 255.038165 31.593671 
L 254.927688 30.987645 
L 254.345173 30.889632 
L 254.244739 30.844507 
L 254.063958 30.815053 
L 254.033828 30.484463 
L 253.7727 30.38891 
L 253.642136 30.221086 
L 251.774069 30.137428 
L 251.774069 30.12204 
L 251.774069 30.10152 
L 251.663592 30.102007 
L 249.72522 30.043615 
L 249.72522 29.997239 
L 249.675003 29.997452 
L 244.372101 29.910756 
L 244.372101 29.900337 
L 244.321885 29.900543 
L 239.430761 29.810291 
L 239.430761 29.805029 
L 239.420718 29.805069 
L 236.016014 29.712655 
L 236.016014 29.696754 
L 232.530962 29.613919 
L 232.470702 29.587437 
L 232.430529 29.587582 
L 228.74461 29.514825 
L 228.74461 29.444839 
L 228.734567 29.444872 
L 227.057323 29.342409 
L 227.037236 29.331658 
L 227.027193 29.33169 
L 223.903703 29.287138 
L 223.903703 29.216372 
L 223.80327 29.216666 
L 221.312513 29.114519 
L 221.222122 29.092855 
L 221.212079 29.092883 
L 185.969877 29.077695 
L 185.969877 29.065919 
L 185.8594 29.066234 
L 42.470137 29.416774 
L 42.379747 29.197693 
L 42.369703 29.197738 
L 34.32496 29.148177 
L 34.32496 29.087502 
L 34.254657 29.087802 
L 33.953355 29.08909 
L 33.822791 28.881096 
L 31.231601 28.846757 
L 31.121124 28.776955 
L -1 28.83781 
L -1 28.83781 
" clip-path="url(#p33548fb5a0)" style="fill: none; stroke: #800080; stroke-width: 1.5; stroke-linecap: square"/>
   </g>
   <g id="line2d_30">
    <path d="M 213.348117 28.980913 
L 298.485805 138.494321 
L 347.678255 191.479319 
L 367.51392 218.083785 
L 401.922522 232.722011 
" clip-path="url(#p33548fb5a0)" style="fill: none; stroke-dasharray: 5.55,2.4; stroke-dashoffset: 0; stroke: #000000; stroke-width: 1.5"/>
    <defs>
     <path id="m1475d56121" d="M -3 3 
L 3 -3 
M -3 -3 
L 3 3 
" style="stroke: #000000"/>
    </defs>
    <g clip-path="url(#p33548fb5a0)">
     <use xlink:href="#m1475d56121" x="213.348117" y="28.980913" style="stroke: #000000"/>
     <use xlink:href="#m1475d56121" x="298.485805" y="138.494321" style="stroke: #000000"/>
     <use xlink:href="#m1475d56121" x="347.678255" y="191.479319" style="stroke: #000000"/>
     <use xlink:href="#m1475d56121" x="367.51392" y="218.083785" style="stroke: #000000"/>
     <use xlink:href="#m1475d56121" x="401.922522" y="232.722011" style="stroke: #000000"/>
    </g>
   </g>
   <g id="line2d_31">
    <path d="M 308.67983 158.743554 
" clip-path="url(#p33548fb5a0)" style="fill: none; stroke: #0000ff; stroke-width: 1.5; stroke-linecap: square"/>
    <defs>
     <path id="m05dd44a9cd" d="M 0 3 
C 0.795609 3 1.55874 2.683901 2.12132 2.12132 
C 2.683901 1.55874 3 0.795609 3 0 
C 3 -0.795609 2.683901 -1.55874 2.12132 -2.12132 
C 1.55874 -2.683901 0.795609 -3 0 -3 
C -0.795609 -3 -1.55874 -2.683901 -2.12132 -2.12132 
C -2.683901 -1.55874 -3 -0.795609 -3 0 
C -3 0.795609 -2.683901 1.55874 -2.12132 2.12132 
C -1.55874 2.683901 -0.795609 3 0 3 
z
" style="stroke: #0000ff"/>
    </defs>
    <g clip-path="url(#p33548fb5a0)">
     <use xlink:href="#m05dd44a9cd" x="308.67983" y="158.743554" style="fill: #0000ff; stroke: #0000ff"/>
    </g>
   </g>
   <g id="patch_3">
    <path d="M 62.12 292.12 
L 62.12 15.12 
" style="fill: none; stroke: #000000; stroke-width: 0.8; stroke-linejoin: miter; stroke-linecap: square"/>
   </g>
   <g id="patch_4">
    <path d="M 445.68 292.12 
L 445.68 15.12 
" style="fill: none; stroke: #000000; stroke-width: 0.8; stroke-linejoin: miter; stroke-linecap: square"/>
   </g>
   <g id="patch_5">
    <path d="M 62.12 292.12 
L 445.68 292.12 
" style="fill: none; stroke: #000000; stroke-width: 0.8; stroke-linejoin: miter; stroke-linecap: square"/>
   </g>
   <g id="patch_6">
    <path d="M 62.12 15.12 
L 445.68 15.12 
" style="fill: none; stroke: #000000; stroke-width: 0.8; stroke-linejoin: miter; stroke-linecap: square"/>
   </g>
   <g id="text_17">
    <!-- R=0 -->
    <g transform="translate(189.488429 37.339194) scale(0.11 -0.11)">
     <defs>
      <path id="DejaVuSans-3d" d="M 678 2906 
L 4684 2906 
L 4684 2381 
L 678 2381 
L 678 2906 
z
M 678 1631 
L 4684 1631 
L 4684 1100 
L 678 1100 
L 678 1631 
z
" transform="scale(0.015625)"/>
     </defs>
     <use xlink:href="#DejaVuSans-52"/>
     <use xlink:href="#DejaVuSans-3d" transform="translate(69.482422 0)"/>
     <use xlink:href="#DejaVuSans-30" transform="translate(153.271484 0)"/>
    </g>
   </g>
   <g id="text_18">
    <!-- R=1 -->
    <g transform="translate(274.626117 146.852603) scale(0.11 -0.11)">
     <use xlink:href="#DejaVuSans-52"/>
     <use xlink:href="#DejaVuSans-3d" transform="translate(69.482422 0)"/>
     <use xlink:href="#DejaVuSans-31" transform="translate(153.271484 0)"/>
    </g>
   </g>
   <g id="text_19">
    <!-- R=2 -->
    <g transform="translate(323.818567 199.8376) scale(0.11 -0.11)">
     <defs>
      <path id="DejaVuSans-32" d="M 1228 531 
L 3431 531 
L 3431 0 
L 469 0 
L 469 531 
Q 828 903 1448 1529 
Q 2069 2156 2228 2338 
Q 2531 2678 2651 2914 
Q 2772 3150 2772 3378 
Q 2772 3750 2511 3984 
Q 2250 4219 1831 4219 
Q 1534 4219 1204 4116 
Q 875 4013 500 3803 
L 500 4441 
Q 881 4594 1212 4672 
Q 1544 4750 1819 4750 
Q 2544 4750 2975 4387 
Q 3406 4025 3406 3419 
Q 3406 3131 3298 2873 
Q 3191 2616 2906 2266 
Q 2828 2175 2409 1742 
Q 1991 1309 1228 531 
z
" transform="scale(0.015625)"/>
     </defs>
     <use xlink:href="#DejaVuSans-52"/>
     <use xlink:href="#DejaVuSans-3d" transform="translate(69.482422 0)"/>
     <use xlink:href="#DejaVuSans-32" transform="translate(153.271484 0)"/>
    </g>
   </g>
   <g id="text_20">
    <!-- R=3 -->
    <g transform="translate(343.654233 226.442066) scale(0.11 -0.11)">
     <use xlink:href="#DejaVuSans-52"/>
     <use xlink:href="#DejaVuSans-3d" transform="translate(69.482422 0)"/>
     <use xlink:href="#DejaVuSans-33" transform="translate(153.271484 0)"/>
    </g>
   </g>
   <g id="text_21">
    <!-- R=4 -->
    <g transform="translate(378.062835 241.080292) scale(0.11 -0.11)">
     <use xlink:href="#DejaVuSans-52"/>
     <use xlink:href="#DejaVuSans-3d" transform="translate(69.482422 0)"/>
     <use xlink:href="#DejaVuSans-34" transform="translate(153.271484 0)"/>
    </g>
   </g>
   <g id="legend_1">
    <g id="patch_7">
     <path d="M 70.52 286.12 
L 161.436875 286.12 
Q 163.836875 286.12 163.836875 283.72 
L 163.836875 232.07875 
Q 163.836875 229.67875 161.436875 229.67875 
L 70.52 229.67875 
Q 68.12 229.67875 68.12 232.07875 
L 68.12 283.72 
Q 68.12 286.12 70.52 286.12 
z
" style="fill: #ffffff; opacity: 0.8; stroke: #cccccc; stroke-linejoin: miter"/>
    </g>
    <g id="line2d_32">
     <path d="M 72.92 239.396875 
L 84.92 239.396875 
L 96.92 239.396875 
" style="fill: none; stroke: #800080; stroke-width: 1.5; stroke-linecap: square"/>
    </g>
    <g id="text_22">
     <!-- GNN -->
     <g transform="translate(106.52 243.596875) scale(0.12 -0.12)">
      <defs>
       <path id="DejaVuSans-47" d="M 3809 666 
L 3809 1919 
L 2778 1919 
L 2778 2438 
L 4434 2438 
L 4434 434 
Q 4069 175 3628 42 
Q 3188 -91 2688 -91 
Q 1594 -91 976 548 
Q 359 1188 359 2328 
Q 359 3472 976 4111 
Q 1594 4750 2688 4750 
Q 3144 4750 3555 4637 
Q 3966 4525 4313 4306 
L 4313 3634 
Q 3963 3931 3569 4081 
Q 3175 4231 2741 4231 
Q 1884 4231 1454 3753 
Q 1025 3275 1025 2328 
Q 1025 1384 1454 906 
Q 1884 428 2741 428 
Q 3075 428 3337 486 
Q 3600 544 3809 666 
z
" transform="scale(0.015625)"/>
       <path id="DejaVuSans-4e" d="M 628 4666 
L 1478 4666 
L 3547 763 
L 3547 4666 
L 4159 4666 
L 4159 0 
L 3309 0 
L 1241 3903 
L 1241 0 
L 628 0 
L 628 4666 
z
" transform="scale(0.015625)"/>
      </defs>
      <use xlink:href="#DejaVuSans-47"/>
      <use xlink:href="#DejaVuSans-4e" transform="translate(77.490234 0)"/>
      <use xlink:href="#DejaVuSans-4e" transform="translate(152.294922 0)"/>
     </g>
    </g>
    <g id="line2d_33">
     <path d="M 72.92 257.010625 
L 84.92 257.010625 
L 96.92 257.010625 
" style="fill: none; stroke-dasharray: 5.55,2.4; stroke-dashoffset: 0; stroke: #000000; stroke-width: 1.5"/>
     <g>
      <use xlink:href="#m1475d56121" x="84.92" y="257.010625" style="stroke: #000000"/>
     </g>
    </g>
    <g id="text_23">
     <!-- RC + R -->
     <g transform="translate(106.52 261.210625) scale(0.12 -0.12)">
      <defs>
       <path id="DejaVuSans-43" d="M 4122 4306 
L 4122 3641 
Q 3803 3938 3442 4084 
Q 3081 4231 2675 4231 
Q 1875 4231 1450 3742 
Q 1025 3253 1025 2328 
Q 1025 1406 1450 917 
Q 1875 428 2675 428 
Q 3081 428 3442 575 
Q 3803 722 4122 1019 
L 4122 359 
Q 3791 134 3420 21 
Q 3050 -91 2638 -91 
Q 1578 -91 968 557 
Q 359 1206 359 2328 
Q 359 3453 968 4101 
Q 1578 4750 2638 4750 
Q 3056 4750 3426 4639 
Q 3797 4528 4122 4306 
z
" transform="scale(0.015625)"/>
       <path id="DejaVuSans-2b" d="M 2944 4013 
L 2944 2272 
L 4684 2272 
L 4684 1741 
L 2944 1741 
L 2944 0 
L 2419 0 
L 2419 1741 
L 678 1741 
L 678 2272 
L 2419 2272 
L 2419 4013 
L 2944 4013 
z
" transform="scale(0.015625)"/>
      </defs>
      <use xlink:href="#DejaVuSans-52"/>
      <use xlink:href="#DejaVuSans-43" transform="translate(64.482422 0)"/>
      <use xlink:href="#DejaVuSans-20" transform="translate(134.306641 0)"/>
      <use xlink:href="#DejaVuSans-2b" transform="translate(166.09375 0)"/>
      <use xlink:href="#DejaVuSans-20" transform="translate(249.882812 0)"/>
      <use xlink:href="#DejaVuSans-52" transform="translate(281.669922 0)"/>
     </g>
    </g>
    <g id="line2d_34">
     <path d="M 72.92 274.624375 
L 84.92 274.624375 
L 96.92 274.624375 
" style="fill: none; stroke: #0000ff; stroke-width: 1.5; stroke-linecap: square"/>
     <g>
      <use xlink:href="#m05dd44a9cd" x="84.92" y="274.624375" style="fill: #0000ff; stroke: #0000ff"/>
     </g>
    </g>
    <g id="text_24">
     <!-- RDChiral -->
     <g transform="translate(106.52 278.824375) scale(0.12 -0.12)">
      <defs>
       <path id="DejaVuSans-44" d="M 1259 4147 
L 1259 519 
L 2022 519 
Q 2988 519 3436 956 
Q 3884 1394 3884 2338 
Q 3884 3275 3436 3711 
Q 2988 4147 2022 4147 
L 1259 4147 
z
M 628 4666 
L 1925 4666 
Q 3281 4666 3915 4102 
Q 4550 3538 4550 2338 
Q 4550 1131 3912 565 
Q 3275 0 1925 0 
L 628 0 
L 628 4666 
z
" transform="scale(0.015625)"/>
       <path id="DejaVuSans-68" d="M 3513 2113 
L 3513 0 
L 2938 0 
L 2938 2094 
Q 2938 2591 2744 2837 
Q 2550 3084 2163 3084 
Q 1697 3084 1428 2787 
Q 1159 2491 1159 1978 
L 1159 0 
L 581 0 
L 581 4863 
L 1159 4863 
L 1159 2956 
Q 1366 3272 1645 3428 
Q 1925 3584 2291 3584 
Q 2894 3584 3203 3211 
Q 3513 2838 3513 2113 
z
" transform="scale(0.015625)"/>
      </defs>
      <use xlink:href="#DejaVuSans-52"/>
      <use xlink:href="#DejaVuSans-44" transform="translate(69.482422 0)"/>
      <use xlink:href="#DejaVuSans-43" transform="translate(146.484375 0)"/>
      <use xlink:href="#DejaVuSans-68" transform="translate(216.308594 0)"/>
      <use xlink:href="#DejaVuSans-69" transform="translate(279.6875 0)"/>
      <use xlink:href="#DejaVuSans-72" transform="translate(307.470703 0)"/>
      <use xlink:href="#DejaVuSans-61" transform="translate(348.583984 0)"/>
      <use xlink:href="#DejaVuSans-6c" transform="translate(409.863281 0)"/>
     </g>
    </g>
   </g>
  </g>
 </g>
 <defs>
  <clipPath id="p33548fb5a0">
   <rect x="62.12" y="15.12" width="383.56" height="277"/>
  </clipPath>
 </defs>
</svg>
