<?xml version="1.0" encoding="utf-8" standalone="no"?>
<!DOCTYPE svg PUBLIC "-//W3C//DTD SVG 1.1//EN"
  "http://www.w3.org/Graphics/SVG/1.1/DTD/svg11.dtd">
<svg xmlns:xlink="http://www.w3.org/1999/xlink" width="460.8pt" height="345.6pt" viewBox="0 0 460.8 345.6" xmlns="http://www.w3.org/2000/svg" version="1.1">
 <metadata>
  <rdf:RDF xmlns:dc="http://purl.org/dc/elements/1.1/" xmlns:cc="http://creativecommons.org/ns#" xmlns:rdf="http://www.w3.org/1999/02/22-rdf-syntax-ns#">
   <cc:Work>
    <dc:type rdf:resource="http://purl.org/dc/dcmitype/StillImage"/>
    <dc:date>2025-11-04T14:49:52.146953</dc:date>
    <dc:format>image/svg+xml</dc:format>
    <dc:creator>
     <cc:Agent>
      <dc:title>Matplotlib v3.10.1, https://matplotlib.org/</dc:title>
     </cc:Agent>
    </dc:creator>
   </cc:Work>
  </rdf:RDF>
 </metadata>
 <defs>
  <style type="text/css">*{stroke-linejoin: round; stroke-linecap: butt}</style>
 </defs>
 <g id="figure_1">
  <g id="patch_1">
   <path d="M 0 345.6 
L 460.8 345.6 
L 460.8 0 
L 0 0 
z
" style="fill: #ffffff"/>
  </g>
  <g id="axes_1">
   <g id="patch_2">
    <path d="M 47.72 303.64 
L 450 303.64 
L 450 10.8 
L 47.72 10.8 
z
" style="fill: #ffffff"/>
   </g>
   <g id="matplotlib.axis_1">
    <g id="xtick_1">
     <g id="line2d_1">
      <path d="M 47.72 303.64 
L 47.72 10.8 
" clip-path="url(#p685e758c33)" style="fill: none; stroke: #b0b0b0; stroke-width: 0.8; stroke-linecap: square"/>
     </g>
     <g id="line2d_2">
      <defs>
       <path id="m90ef4797fa" d="M 0 0 
L 0 3.5 
" style="stroke: #000000; stroke-width: 0.8"/>
      </defs>
      <g>
       <use xlink:href="#m90ef4797fa" x="47.72" y="303.64" style="stroke: #000000; stroke-width: 0.8"/>
      </g>
     </g>
     <g id="text_1">
      <!-- 0.5 -->
      <g transform="translate(39.768438 318.238437) scale(0.1 -0.1)">
       <defs>
        <path id="DejaVuSans-30" d="M 2034 4250 
Q 1547 4250 1301 3770 
Q 1056 3291 1056 2328 
Q 1056 1369 1301 889 
Q 1547 409 2034 409 
Q 2525 409 2770 889 
Q 3016 1369 3016 2328 
Q 3016 3291 2770 3770 
Q 2525 4250 2034 4250 
z
M 2034 4750 
Q 2819 4750 3233 4129 
Q 3647 3509 3647 2328 
Q 3647 1150 3233 529 
Q 2819 -91 2034 -91 
Q 1250 -91 836 529 
Q 422 1150 422 2328 
Q 422 3509 836 4129 
Q 1250 4750 2034 4750 
z
" transform="scale(0.015625)"/>
        <path id="DejaVuSans-2e" d="M 684 794 
L 1344 794 
L 1344 0 
L 684 0 
L 684 794 
z
" transform="scale(0.015625)"/>
        <path id="DejaVuSans-35" d="M 691 4666 
L 3169 4666 
L 3169 4134 
L 1269 4134 
L 1269 2991 
Q 1406 3038 1543 3061 
Q 1681 3084 1819 3084 
Q 2600 3084 3056 2656 
Q 3513 2228 3513 1497 
Q 3513 744 3044 326 
Q 2575 -91 1722 -91 
Q 1428 -91 1123 -41 
Q 819 9 494 109 
L 494 744 
Q 775 591 1075 516 
Q 1375 441 1709 441 
Q 2250 441 2565 725 
Q 2881 1009 2881 1497 
Q 2881 1984 2565 2268 
Q 2250 2553 1709 2553 
Q 1456 2553 1204 2497 
Q 953 2441 691 2322 
L 691 4666 
z
" transform="scale(0.015625)"/>
       </defs>
       <use xlink:href="#DejaVuSans-30"/>
       <use xlink:href="#DejaVuSans-2e" transform="translate(63.623047 0)"/>
       <use xlink:href="#DejaVuSans-35" transform="translate(95.410156 0)"/>
      </g>
     </g>
    </g>
    <g id="xtick_2">
     <g id="line2d_3">
      <path d="M 120.861818 303.64 
L 120.861818 10.8 
" clip-path="url(#p685e758c33)" style="fill: none; stroke: #b0b0b0; stroke-width: 0.8; stroke-linecap: square"/>
     </g>
     <g id="line2d_4">
      <g>
       <use xlink:href="#m90ef4797fa" x="120.861818" y="303.64" style="stroke: #000000; stroke-width: 0.8"/>
      </g>
     </g>
     <g id="text_2">
      <!-- 0.6 -->
      <g transform="translate(112.910256 318.238437) scale(0.1 -0.1)">
       <defs>
        <path id="DejaVuSans-36" d="M 2113 2584 
Q 1688 2584 1439 2293 
Q 1191 2003 1191 1497 
Q 1191 994 1439 701 
Q 1688 409 2113 409 
Q 2538 409 2786 701 
Q 3034 994 3034 1497 
Q 3034 2003 2786 2293 
Q 2538 2584 2113 2584 
z
M 3366 4563 
L 3366 3988 
Q 3128 4100 2886 4159 
Q 2644 4219 2406 4219 
Q 1781 4219 1451 3797 
Q 1122 3375 1075 2522 
Q 1259 2794 1537 2939 
Q 1816 3084 2150 3084 
Q 2853 3084 3261 2657 
Q 3669 2231 3669 1497 
Q 3669 778 3244 343 
Q 2819 -91 2113 -91 
Q 1303 -91 875 529 
Q 447 1150 447 2328 
Q 447 3434 972 4092 
Q 1497 4750 2381 4750 
Q 2619 4750 2861 4703 
Q 3103 4656 3366 4563 
z
" transform="scale(0.015625)"/>
       </defs>
       <use xlink:href="#DejaVuSans-30"/>
       <use xlink:href="#DejaVuSans-2e" transform="translate(63.623047 0)"/>
       <use xlink:href="#DejaVuSans-36" transform="translate(95.410156 0)"/>
      </g>
     </g>
    </g>
    <g id="xtick_3">
     <g id="line2d_5">
      <path d="M 194.003636 303.64 
L 194.003636 10.8 
" clip-path="url(#p685e758c33)" style="fill: none; stroke: #b0b0b0; stroke-width: 0.8; stroke-linecap: square"/>
     </g>
     <g id="line2d_6">
      <g>
       <use xlink:href="#m90ef4797fa" x="194.003636" y="303.64" style="stroke: #000000; stroke-width: 0.8"/>
      </g>
     </g>
     <g id="text_3">
      <!-- 0.7 -->
      <g transform="translate(186.052074 318.238437) scale(0.1 -0.1)">
       <defs>
        <path id="DejaVuSans-37" d="M 525 4666 
L 3525 4666 
L 3525 4397 
L 1831 0 
L 1172 0 
L 2766 4134 
L 525 4134 
L 525 4666 
z
" transform="scale(0.015625)"/>
       </defs>
       <use xlink:href="#DejaVuSans-30"/>
       <use xlink:href="#DejaVuSans-2e" transform="translate(63.623047 0)"/>
       <use xlink:href="#DejaVuSans-37" transform="translate(95.410156 0)"/>
      </g>
     </g>
    </g>
    <g id="xtick_4">
     <g id="line2d_7">
      <path d="M 267.145455 303.64 
L 267.145455 10.8 
" clip-path="url(#p685e758c33)" style="fill: none; stroke: #b0b0b0; stroke-width: 0.8; stroke-linecap: square"/>
     </g>
     <g id="line2d_8">
      <g>
       <use xlink:href="#m90ef4797fa" x="267.145455" y="303.64" style="stroke: #000000; stroke-width: 0.8"/>
      </g>
     </g>
     <g id="text_4">
      <!-- 0.8 -->
      <g transform="translate(259.193892 318.238437) scale(0.1 -0.1)">
       <defs>
        <path id="DejaVuSans-38" d="M 2034 2216 
Q 1584 2216 1326 1975 
Q 1069 1734 1069 1313 
Q 1069 891 1326 650 
Q 1584 409 2034 409 
Q 2484 409 2743 651 
Q 3003 894 3003 1313 
Q 3003 1734 2745 1975 
Q 2488 2216 2034 2216 
z
M 1403 2484 
Q 997 2584 770 2862 
Q 544 3141 544 3541 
Q 544 4100 942 4425 
Q 1341 4750 2034 4750 
Q 2731 4750 3128 4425 
Q 3525 4100 3525 3541 
Q 3525 3141 3298 2862 
Q 3072 2584 2669 2484 
Q 3125 2378 3379 2068 
Q 3634 1759 3634 1313 
Q 3634 634 3220 271 
Q 2806 -91 2034 -91 
Q 1263 -91 848 271 
Q 434 634 434 1313 
Q 434 1759 690 2068 
Q 947 2378 1403 2484 
z
M 1172 3481 
Q 1172 3119 1398 2916 
Q 1625 2713 2034 2713 
Q 2441 2713 2670 2916 
Q 2900 3119 2900 3481 
Q 2900 3844 2670 4047 
Q 2441 4250 2034 4250 
Q 1625 4250 1398 4047 
Q 1172 3844 1172 3481 
z
" transform="scale(0.015625)"/>
       </defs>
       <use xlink:href="#DejaVuSans-30"/>
       <use xlink:href="#DejaVuSans-2e" transform="translate(63.623047 0)"/>
       <use xlink:href="#DejaVuSans-38" transform="translate(95.410156 0)"/>
      </g>
     </g>
    </g>
    <g id="xtick_5">
     <g id="line2d_9">
      <path d="M 340.287273 303.64 
L 340.287273 10.8 
" clip-path="url(#p685e758c33)" style="fill: none; stroke: #b0b0b0; stroke-width: 0.8; stroke-linecap: square"/>
     </g>
     <g id="line2d_10">
      <g>
       <use xlink:href="#m90ef4797fa" x="340.287273" y="303.64" style="stroke: #000000; stroke-width: 0.8"/>
      </g>
     </g>
     <g id="text_5">
      <!-- 0.9 -->
      <g transform="translate(332.33571 318.238437) scale(0.1 -0.1)">
       <defs>
        <path id="DejaVuSans-39" d="M 703 97 
L 703 672 
Q 941 559 1184 500 
Q 1428 441 1663 441 
Q 2288 441 2617 861 
Q 2947 1281 2994 2138 
Q 2813 1869 2534 1725 
Q 2256 1581 1919 1581 
Q 1219 1581 811 2004 
Q 403 2428 403 3163 
Q 403 3881 828 4315 
Q 1253 4750 1959 4750 
Q 2769 4750 3195 4129 
Q 3622 3509 3622 2328 
Q 3622 1225 3098 567 
Q 2575 -91 1691 -91 
Q 1453 -91 1209 -44 
Q 966 3 703 97 
z
M 1959 2075 
Q 2384 2075 2632 2365 
Q 2881 2656 2881 3163 
Q 2881 3666 2632 3958 
Q 2384 4250 1959 4250 
Q 1534 4250 1286 3958 
Q 1038 3666 1038 3163 
Q 1038 2656 1286 2365 
Q 1534 2075 1959 2075 
z
" transform="scale(0.015625)"/>
       </defs>
       <use xlink:href="#DejaVuSans-30"/>
       <use xlink:href="#DejaVuSans-2e" transform="translate(63.623047 0)"/>
       <use xlink:href="#DejaVuSans-39" transform="translate(95.410156 0)"/>
      </g>
     </g>
    </g>
    <g id="xtick_6">
     <g id="line2d_11">
      <path d="M 413.429091 303.64 
L 413.429091 10.8 
" clip-path="url(#p685e758c33)" style="fill: none; stroke: #b0b0b0; stroke-width: 0.8; stroke-linecap: square"/>
     </g>
     <g id="line2d_12">
      <g>
       <use xlink:href="#m90ef4797fa" x="413.429091" y="303.64" style="stroke: #000000; stroke-width: 0.8"/>
      </g>
     </g>
     <g id="text_6">
      <!-- 1.0 -->
      <g transform="translate(405.477528 318.238437) scale(0.1 -0.1)">
       <defs>
        <path id="DejaVuSans-31" d="M 794 531 
L 1825 531 
L 1825 4091 
L 703 3866 
L 703 4441 
L 1819 4666 
L 2450 4666 
L 2450 531 
L 3481 531 
L 3481 0 
L 794 0 
L 794 531 
z
" transform="scale(0.015625)"/>
       </defs>
       <use xlink:href="#DejaVuSans-31"/>
       <use xlink:href="#DejaVuSans-2e" transform="translate(63.623047 0)"/>
       <use xlink:href="#DejaVuSans-30" transform="translate(95.410156 0)"/>
      </g>
     </g>
    </g>
    <g id="text_7">
     <!-- Atom Recall -->
     <g transform="translate(219.131094 331.916562) scale(0.1 -0.1)">
      <defs>
       <path id="DejaVuSans-41" d="M 2188 4044 
L 1331 1722 
L 3047 1722 
L 2188 4044 
z
M 1831 4666 
L 2547 4666 
L 4325 0 
L 3669 0 
L 3244 1197 
L 1141 1197 
L 716 0 
L 50 0 
L 1831 4666 
z
" transform="scale(0.015625)"/>
       <path id="DejaVuSans-74" d="M 1172 4494 
L 1172 3500 
L 2356 3500 
L 2356 3053 
L 1172 3053 
L 1172 1153 
Q 1172 725 1289 603 
Q 1406 481 1766 481 
L 2356 481 
L 2356 0 
L 1766 0 
Q 1100 0 847 248 
Q 594 497 594 1153 
L 594 3053 
L 172 3053 
L 172 3500 
L 594 3500 
L 594 4494 
L 1172 4494 
z
" transform="scale(0.015625)"/>
       <path id="DejaVuSans-6f" d="M 1959 3097 
Q 1497 3097 1228 2736 
Q 959 2375 959 1747 
Q 959 1119 1226 758 
Q 1494 397 1959 397 
Q 2419 397 2687 759 
Q 2956 1122 2956 1747 
Q 2956 2369 2687 2733 
Q 2419 3097 1959 3097 
z
M 1959 3584 
Q 2709 3584 3137 3096 
Q 3566 2609 3566 1747 
Q 3566 888 3137 398 
Q 2709 -91 1959 -91 
Q 1206 -91 779 398 
Q 353 888 353 1747 
Q 353 2609 779 3096 
Q 1206 3584 1959 3584 
z
" transform="scale(0.015625)"/>
       <path id="DejaVuSans-6d" d="M 3328 2828 
Q 3544 3216 3844 3400 
Q 4144 3584 4550 3584 
Q 5097 3584 5394 3201 
Q 5691 2819 5691 2113 
L 5691 0 
L 5113 0 
L 5113 2094 
Q 5113 2597 4934 2840 
Q 4756 3084 4391 3084 
Q 3944 3084 3684 2787 
Q 3425 2491 3425 1978 
L 3425 0 
L 2847 0 
L 2847 2094 
Q 2847 2600 2669 2842 
Q 2491 3084 2119 3084 
Q 1678 3084 1418 2786 
Q 1159 2488 1159 1978 
L 1159 0 
L 581 0 
L 581 3500 
L 1159 3500 
L 1159 2956 
Q 1356 3278 1631 3431 
Q 1906 3584 2284 3584 
Q 2666 3584 2933 3390 
Q 3200 3197 3328 2828 
z
" transform="scale(0.015625)"/>
       <path id="DejaVuSans-20" transform="scale(0.015625)"/>
       <path id="DejaVuSans-52" d="M 2841 2188 
Q 3044 2119 3236 1894 
Q 3428 1669 3622 1275 
L 4263 0 
L 3584 0 
L 2988 1197 
Q 2756 1666 2539 1819 
Q 2322 1972 1947 1972 
L 1259 1972 
L 1259 0 
L 628 0 
L 628 4666 
L 2053 4666 
Q 2853 4666 3247 4331 
Q 3641 3997 3641 3322 
Q 3641 2881 3436 2590 
Q 3231 2300 2841 2188 
z
M 1259 4147 
L 1259 2491 
L 2053 2491 
Q 2509 2491 2742 2702 
Q 2975 2913 2975 3322 
Q 2975 3731 2742 3939 
Q 2509 4147 2053 4147 
L 1259 4147 
z
" transform="scale(0.015625)"/>
       <path id="DejaVuSans-65" d="M 3597 1894 
L 3597 1613 
L 953 1613 
Q 991 1019 1311 708 
Q 1631 397 2203 397 
Q 2534 397 2845 478 
Q 3156 559 3463 722 
L 3463 178 
Q 3153 47 2828 -22 
Q 2503 -91 2169 -91 
Q 1331 -91 842 396 
Q 353 884 353 1716 
Q 353 2575 817 3079 
Q 1281 3584 2069 3584 
Q 2775 3584 3186 3129 
Q 3597 2675 3597 1894 
z
M 3022 2063 
Q 3016 2534 2758 2815 
Q 2500 3097 2075 3097 
Q 1594 3097 1305 2825 
Q 1016 2553 972 2059 
L 3022 2063 
z
" transform="scale(0.015625)"/>
       <path id="DejaVuSans-63" d="M 3122 3366 
L 3122 2828 
Q 2878 2963 2633 3030 
Q 2388 3097 2138 3097 
Q 1578 3097 1268 2742 
Q 959 2388 959 1747 
Q 959 1106 1268 751 
Q 1578 397 2138 397 
Q 2388 397 2633 464 
Q 2878 531 3122 666 
L 3122 134 
Q 2881 22 2623 -34 
Q 2366 -91 2075 -91 
Q 1284 -91 818 406 
Q 353 903 353 1747 
Q 353 2603 823 3093 
Q 1294 3584 2113 3584 
Q 2378 3584 2631 3529 
Q 2884 3475 3122 3366 
z
" transform="scale(0.015625)"/>
       <path id="DejaVuSans-61" d="M 2194 1759 
Q 1497 1759 1228 1600 
Q 959 1441 959 1056 
Q 959 750 1161 570 
Q 1363 391 1709 391 
Q 2188 391 2477 730 
Q 2766 1069 2766 1631 
L 2766 1759 
L 2194 1759 
z
M 3341 1997 
L 3341 0 
L 2766 0 
L 2766 531 
Q 2569 213 2275 61 
Q 1981 -91 1556 -91 
Q 1019 -91 701 211 
Q 384 513 384 1019 
Q 384 1609 779 1909 
Q 1175 2209 1959 2209 
L 2766 2209 
L 2766 2266 
Q 2766 2663 2505 2880 
Q 2244 3097 1772 3097 
Q 1472 3097 1187 3025 
Q 903 2953 641 2809 
L 641 3341 
Q 956 3463 1253 3523 
Q 1550 3584 1831 3584 
Q 2591 3584 2966 3190 
Q 3341 2797 3341 1997 
z
" transform="scale(0.015625)"/>
       <path id="DejaVuSans-6c" d="M 603 4863 
L 1178 4863 
L 1178 0 
L 603 0 
L 603 4863 
z
" transform="scale(0.015625)"/>
      </defs>
      <use xlink:href="#DejaVuSans-41"/>
      <use xlink:href="#DejaVuSans-74" transform="translate(66.658203 0)"/>
      <use xlink:href="#DejaVuSans-6f" transform="translate(105.867188 0)"/>
      <use xlink:href="#DejaVuSans-6d" transform="translate(167.048828 0)"/>
      <use xlink:href="#DejaVuSans-20" transform="translate(264.460938 0)"/>
      <use xlink:href="#DejaVuSans-52" transform="translate(296.248047 0)"/>
      <use xlink:href="#DejaVuSans-65" transform="translate(361.230469 0)"/>
      <use xlink:href="#DejaVuSans-63" transform="translate(422.753906 0)"/>
      <use xlink:href="#DejaVuSans-61" transform="translate(477.734375 0)"/>
      <use xlink:href="#DejaVuSans-6c" transform="translate(539.013672 0)"/>
      <use xlink:href="#DejaVuSans-6c" transform="translate(566.796875 0)"/>
     </g>
    </g>
   </g>
   <g id="matplotlib.axis_2">
    <g id="ytick_1">
     <g id="line2d_13">
      <path d="M 47.72 231.136415 
L 450 231.136415 
" clip-path="url(#p685e758c33)" style="fill: none; stroke: #b0b0b0; stroke-width: 0.8; stroke-linecap: square"/>
     </g>
     <g id="line2d_14">
      <defs>
       <path id="m7edfc134e5" d="M 0 0 
L -3.5 0 
" style="stroke: #000000; stroke-width: 0.8"/>
      </defs>
      <g>
       <use xlink:href="#m7edfc134e5" x="47.72" y="231.136415" style="stroke: #000000; stroke-width: 0.8"/>
      </g>
     </g>
     <g id="text_8">
      <!-- 0.3 -->
      <g transform="translate(24.816875 234.935634) scale(0.1 -0.1)">
       <defs>
        <path id="DejaVuSans-33" d="M 2597 2516 
Q 3050 2419 3304 2112 
Q 3559 1806 3559 1356 
Q 3559 666 3084 287 
Q 2609 -91 1734 -91 
Q 1441 -91 1130 -33 
Q 819 25 488 141 
L 488 750 
Q 750 597 1062 519 
Q 1375 441 1716 441 
Q 2309 441 2620 675 
Q 2931 909 2931 1356 
Q 2931 1769 2642 2001 
Q 2353 2234 1838 2234 
L 1294 2234 
L 1294 2753 
L 1863 2753 
Q 2328 2753 2575 2939 
Q 2822 3125 2822 3475 
Q 2822 3834 2567 4026 
Q 2313 4219 1838 4219 
Q 1578 4219 1281 4162 
Q 984 4106 628 3988 
L 628 4550 
Q 988 4650 1302 4700 
Q 1616 4750 1894 4750 
Q 2613 4750 3031 4423 
Q 3450 4097 3450 3541 
Q 3450 3153 3228 2886 
Q 3006 2619 2597 2516 
z
" transform="scale(0.015625)"/>
       </defs>
       <use xlink:href="#DejaVuSans-30"/>
       <use xlink:href="#DejaVuSans-2e" transform="translate(63.623047 0)"/>
       <use xlink:href="#DejaVuSans-33" transform="translate(95.410156 0)"/>
      </g>
     </g>
    </g>
    <g id="ytick_2">
     <g id="line2d_15">
      <path d="M 47.72 201.561343 
L 450 201.561343 
" clip-path="url(#p685e758c33)" style="fill: none; stroke: #b0b0b0; stroke-width: 0.8; stroke-linecap: square"/>
     </g>
     <g id="line2d_16">
      <g>
       <use xlink:href="#m7edfc134e5" x="47.72" y="201.561343" style="stroke: #000000; stroke-width: 0.8"/>
      </g>
     </g>
     <g id="text_9">
      <!-- 0.4 -->
      <g transform="translate(24.816875 205.360561) scale(0.1 -0.1)">
       <defs>
        <path id="DejaVuSans-34" d="M 2419 4116 
L 825 1625 
L 2419 1625 
L 2419 4116 
z
M 2253 4666 
L 3047 4666 
L 3047 1625 
L 3713 1625 
L 3713 1100 
L 3047 1100 
L 3047 0 
L 2419 0 
L 2419 1100 
L 313 1100 
L 313 1709 
L 2253 4666 
z
" transform="scale(0.015625)"/>
       </defs>
       <use xlink:href="#DejaVuSans-30"/>
       <use xlink:href="#DejaVuSans-2e" transform="translate(63.623047 0)"/>
       <use xlink:href="#DejaVuSans-34" transform="translate(95.410156 0)"/>
      </g>
     </g>
    </g>
    <g id="ytick_3">
     <g id="line2d_17">
      <path d="M 47.72 171.98627 
L 450 171.98627 
" clip-path="url(#p685e758c33)" style="fill: none; stroke: #b0b0b0; stroke-width: 0.8; stroke-linecap: square"/>
     </g>
     <g id="line2d_18">
      <g>
       <use xlink:href="#m7edfc134e5" x="47.72" y="171.98627" style="stroke: #000000; stroke-width: 0.8"/>
      </g>
     </g>
     <g id="text_10">
      <!-- 0.5 -->
      <g transform="translate(24.816875 175.785489) scale(0.1 -0.1)">
       <use xlink:href="#DejaVuSans-30"/>
       <use xlink:href="#DejaVuSans-2e" transform="translate(63.623047 0)"/>
       <use xlink:href="#DejaVuSans-35" transform="translate(95.410156 0)"/>
      </g>
     </g>
    </g>
    <g id="ytick_4">
     <g id="line2d_19">
      <path d="M 47.72 142.411198 
L 450 142.411198 
" clip-path="url(#p685e758c33)" style="fill: none; stroke: #b0b0b0; stroke-width: 0.8; stroke-linecap: square"/>
     </g>
     <g id="line2d_20">
      <g>
       <use xlink:href="#m7edfc134e5" x="47.72" y="142.411198" style="stroke: #000000; stroke-width: 0.8"/>
      </g>
     </g>
     <g id="text_11">
      <!-- 0.6 -->
      <g transform="translate(24.816875 146.210417) scale(0.1 -0.1)">
       <use xlink:href="#DejaVuSans-30"/>
       <use xlink:href="#DejaVuSans-2e" transform="translate(63.623047 0)"/>
       <use xlink:href="#DejaVuSans-36" transform="translate(95.410156 0)"/>
      </g>
     </g>
    </g>
    <g id="ytick_5">
     <g id="line2d_21">
      <path d="M 47.72 112.836126 
L 450 112.836126 
" clip-path="url(#p685e758c33)" style="fill: none; stroke: #b0b0b0; stroke-width: 0.8; stroke-linecap: square"/>
     </g>
     <g id="line2d_22">
      <g>
       <use xlink:href="#m7edfc134e5" x="47.72" y="112.836126" style="stroke: #000000; stroke-width: 0.8"/>
      </g>
     </g>
     <g id="text_12">
      <!-- 0.7 -->
      <g transform="translate(24.816875 116.635345) scale(0.1 -0.1)">
       <use xlink:href="#DejaVuSans-30"/>
       <use xlink:href="#DejaVuSans-2e" transform="translate(63.623047 0)"/>
       <use xlink:href="#DejaVuSans-37" transform="translate(95.410156 0)"/>
      </g>
     </g>
    </g>
    <g id="ytick_6">
     <g id="line2d_23">
      <path d="M 47.72 83.261054 
L 450 83.261054 
" clip-path="url(#p685e758c33)" style="fill: none; stroke: #b0b0b0; stroke-width: 0.8; stroke-linecap: square"/>
     </g>
     <g id="line2d_24">
      <g>
       <use xlink:href="#m7edfc134e5" x="47.72" y="83.261054" style="stroke: #000000; stroke-width: 0.8"/>
      </g>
     </g>
     <g id="text_13">
      <!-- 0.8 -->
      <g transform="translate(24.816875 87.060272) scale(0.1 -0.1)">
       <use xlink:href="#DejaVuSans-30"/>
       <use xlink:href="#DejaVuSans-2e" transform="translate(63.623047 0)"/>
       <use xlink:href="#DejaVuSans-38" transform="translate(95.410156 0)"/>
      </g>
     </g>
    </g>
    <g id="ytick_7">
     <g id="line2d_25">
      <path d="M 47.72 53.685981 
L 450 53.685981 
" clip-path="url(#p685e758c33)" style="fill: none; stroke: #b0b0b0; stroke-width: 0.8; stroke-linecap: square"/>
     </g>
     <g id="line2d_26">
      <g>
       <use xlink:href="#m7edfc134e5" x="47.72" y="53.685981" style="stroke: #000000; stroke-width: 0.8"/>
      </g>
     </g>
     <g id="text_14">
      <!-- 0.9 -->
      <g transform="translate(24.816875 57.4852) scale(0.1 -0.1)">
       <use xlink:href="#DejaVuSans-30"/>
       <use xlink:href="#DejaVuSans-2e" transform="translate(63.623047 0)"/>
       <use xlink:href="#DejaVuSans-39" transform="translate(95.410156 0)"/>
      </g>
     </g>
    </g>
    <g id="ytick_8">
     <g id="line2d_27">
      <path d="M 47.72 24.110909 
L 450 24.110909 
" clip-path="url(#p685e758c33)" style="fill: none; stroke: #b0b0b0; stroke-width: 0.8; stroke-linecap: square"/>
     </g>
     <g id="line2d_28">
      <g>
       <use xlink:href="#m7edfc134e5" x="47.72" y="24.110909" style="stroke: #000000; stroke-width: 0.8"/>
      </g>
     </g>
     <g id="text_15">
      <!-- 1.0 -->
      <g transform="translate(24.816875 27.910128) scale(0.1 -0.1)">
       <use xlink:href="#DejaVuSans-31"/>
       <use xlink:href="#DejaVuSans-2e" transform="translate(63.623047 0)"/>
       <use xlink:href="#DejaVuSans-30" transform="translate(95.410156 0)"/>
      </g>
     </g>
    </g>
    <g id="text_16">
     <!-- Atom Precision -->
     <g transform="translate(18.737188 194.33875) rotate(-90) scale(0.1 -0.1)">
      <defs>
       <path id="DejaVuSans-50" d="M 1259 4147 
L 1259 2394 
L 2053 2394 
Q 2494 2394 2734 2622 
Q 2975 2850 2975 3272 
Q 2975 3691 2734 3919 
Q 2494 4147 2053 4147 
L 1259 4147 
z
M 628 4666 
L 2053 4666 
Q 2838 4666 3239 4311 
Q 3641 3956 3641 3272 
Q 3641 2581 3239 2228 
Q 2838 1875 2053 1875 
L 1259 1875 
L 1259 0 
L 628 0 
L 628 4666 
z
" transform="scale(0.015625)"/>
       <path id="DejaVuSans-72" d="M 2631 2963 
Q 2534 3019 2420 3045 
Q 2306 3072 2169 3072 
Q 1681 3072 1420 2755 
Q 1159 2438 1159 1844 
L 1159 0 
L 581 0 
L 581 3500 
L 1159 3500 
L 1159 2956 
Q 1341 3275 1631 3429 
Q 1922 3584 2338 3584 
Q 2397 3584 2469 3576 
Q 2541 3569 2628 3553 
L 2631 2963 
z
" transform="scale(0.015625)"/>
       <path id="DejaVuSans-69" d="M 603 3500 
L 1178 3500 
L 1178 0 
L 603 0 
L 603 3500 
z
M 603 4863 
L 1178 4863 
L 1178 4134 
L 603 4134 
L 603 4863 
z
" transform="scale(0.015625)"/>
       <path id="DejaVuSans-73" d="M 2834 3397 
L 2834 2853 
Q 2591 2978 2328 3040 
Q 2066 3103 1784 3103 
Q 1356 3103 1142 2972 
Q 928 2841 928 2578 
Q 928 2378 1081 2264 
Q 1234 2150 1697 2047 
L 1894 2003 
Q 2506 1872 2764 1633 
Q 3022 1394 3022 966 
Q 3022 478 2636 193 
Q 2250 -91 1575 -91 
Q 1294 -91 989 -36 
Q 684 19 347 128 
L 347 722 
Q 666 556 975 473 
Q 1284 391 1588 391 
Q 1994 391 2212 530 
Q 2431 669 2431 922 
Q 2431 1156 2273 1281 
Q 2116 1406 1581 1522 
L 1381 1569 
Q 847 1681 609 1914 
Q 372 2147 372 2553 
Q 372 3047 722 3315 
Q 1072 3584 1716 3584 
Q 2034 3584 2315 3537 
Q 2597 3491 2834 3397 
z
" transform="scale(0.015625)"/>
       <path id="DejaVuSans-6e" d="M 3513 2113 
L 3513 0 
L 2938 0 
L 2938 2094 
Q 2938 2591 2744 2837 
Q 2550 3084 2163 3084 
Q 1697 3084 1428 2787 
Q 1159 2491 1159 1978 
L 1159 0 
L 581 0 
L 581 3500 
L 1159 3500 
L 1159 2956 
Q 1366 3272 1645 3428 
Q 1925 3584 2291 3584 
Q 2894 3584 3203 3211 
Q 3513 2838 3513 2113 
z
" transform="scale(0.015625)"/>
      </defs>
      <use xlink:href="#DejaVuSans-41"/>
      <use xlink:href="#DejaVuSans-74" transform="translate(66.658203 0)"/>
      <use xlink:href="#DejaVuSans-6f" transform="translate(105.867188 0)"/>
      <use xlink:href="#DejaVuSans-6d" transform="translate(167.048828 0)"/>
      <use xlink:href="#DejaVuSans-20" transform="translate(264.460938 0)"/>
      <use xlink:href="#DejaVuSans-50" transform="translate(296.248047 0)"/>
      <use xlink:href="#DejaVuSans-72" transform="translate(354.800781 0)"/>
      <use xlink:href="#DejaVuSans-65" transform="translate(393.664062 0)"/>
      <use xlink:href="#DejaVuSans-63" transform="translate(455.1875 0)"/>
      <use xlink:href="#DejaVuSans-69" transform="translate(510.167969 0)"/>
      <use xlink:href="#DejaVuSans-73" transform="translate(537.951172 0)"/>
      <use xlink:href="#DejaVuSans-69" transform="translate(590.050781 0)"/>
      <use xlink:href="#DejaVuSans-6f" transform="translate(617.833984 0)"/>
      <use xlink:href="#DejaVuSans-6e" transform="translate(679.015625 0)"/>
     </g>
    </g>
   </g>
   <g id="line2d_29">
    <path d="M 413.429091 290.329091 
L 413.323755 281.210027 
L 413.313222 281.210511 
L 413.313222 281.127974 
L 413.207886 278.717622 
L 413.186819 278.718478 
L 413.186819 278.610839 
L 413.081484 276.885902 
L 413.049883 276.811506 
L 413.049883 276.799494 
L 412.955081 273.409613 
L 412.934014 273.410742 
L 412.934014 273.382021 
L 412.839212 271.850717 
L 412.818145 271.851876 
L 412.818145 271.764661 
L 412.712809 267.858317 
L 412.702276 267.858934 
L 412.702276 267.750488 
L 412.59694 263.865632 
L 412.586407 263.866286 
L 412.586407 263.755859 
L 412.502138 257.02688 
L 411.585719 257.082821 
L 411.585719 256.971609 
L 411.501451 254.328713 
L 411.311847 254.341972 
L 411.311847 254.239295 
L 411.248646 250.926317 
L 411.238112 250.927081 
L 411.164377 250.90201 
L 411.164377 250.834117 
L 411.090643 248.747604 
L 410.932639 248.75931 
L 410.932639 248.647976 
L 410.827304 246.286298 
L 410.78517 246.22913 
L 410.743035 245.552578 
L 410.679834 245.554974 
L 410.669301 245.555779 
L 410.669301 245.452812 
L 410.563965 243.204401 
L 410.332227 239.611522 
L 410.290093 238.933338 
L 409.995153 238.682736 
L 409.910885 238.061212 
L 409.847684 238.06635 
L 409.847684 237.957183 
L 409.763415 235.455496 
L 409.721281 235.458988 
L 409.721281 235.442598 
L 409.68968 234.947014 
L 409.373674 234.957777 
L 409.373674 234.893486 
L 409.289405 233.20187 
L 409.068201 233.220507 
L 409.068201 233.121474 
L 408.962865 231.538275 
L 408.952332 231.539172 
L 408.952332 231.428195 
L 408.846996 229.194755 
L 408.815396 229.195071 
L 408.815396 229.154367 
L 408.741661 226.43987 
L 408.688993 226.371733 
L 408.688993 226.331018 
L 408.636325 226.138012 
L 408.457255 226.09779 
L 408.457255 226.045605 
L 408.362453 224.191612 
L 408.320319 224.183247 
L 408.320319 224.126202 
L 408.23605 223.385465 
L 408.151782 223.150478 
L 408.088581 222.615028 
L 408.046446 222.61696 
L 407.983245 222.526523 
L 407.983245 222.52141 
L 407.941111 221.911012 
L 407.73044 221.930025 
L 407.73044 221.840043 
L 407.656705 220.465253 
L 407.614571 220.469085 
L 407.614571 220.434159 
L 407.509235 218.730508 
L 407.488168 218.667127 
L 407.382833 216.885123 
L 407.372299 216.886098 
L 407.372299 216.787597 
L 407.266964 215.165243 
L 407.235363 215.080915 
L 407.235363 215.056646 
L 407.130027 213.218236 
L 407.119494 213.219227 
L 407.119494 213.135929 
L 407.056293 212.91818 
L 407.024692 212.725289 
L 406.498014 212.774937 
L 406.498014 212.76648 
L 406.392679 210.751363 
L 406.12934 210.723697 
L 406.034538 209.740744 
L 405.592129 209.714952 
L 405.592129 209.699423 
L 405.486793 206.294002 
L 405.47626 206.291211 
L 405.370924 204.229213 
L 405.349857 204.161438 
L 405.349857 204.119897 
L 405.244522 203.335874 
L 405.18132 203.227592 
L 405.118119 202.106139 
L 405.054918 201.978319 
L 405.044384 201.851207 
L 404.67571 200.655035 
L 404.623042 200.446938 
L 404.538774 199.610837 
L 404.401838 198.74916 
L 404.212234 198.087251 
L 404.106898 196.546869 
L 403.822492 196.482122 
L 403.822492 196.477615 
L 403.738224 196.035173 
L 403.664489 195.936506 
L 403.580221 195.402905 
L 403.495952 194.792019 
L 403.253681 193.606284 
L 403.211546 193.601852 
L 403.211546 193.579017 
L 403.127278 193.073488 
L 403.07461 193.03589 
L 403.07461 192.967527 
L 402.990342 191.325147 
L 402.969275 191.326454 
L 402.832339 191.281468 
L 402.832339 191.238158 
L 402.727003 191.135056 
L 402.705936 191.083113 
L 402.705936 191.075736 
L 402.6006 187.605518 
L 402.579533 187.5722 
L 402.579533 187.496901 
L 402.579533 187.289602 
L 402.379396 187.263865 
L 402.379396 187.230823 
L 402.284594 186.079747 
L 402.210859 185.98185 
L 402.158191 185.163146 
L 401.821118 185.019587 
L 401.821118 184.922353 
L 401.599913 184.231208 
L 401.547245 183.804548 
L 401.094303 180.853233 
L 400.862565 180.876979 
L 400.862565 180.808994 
L 400.757229 179.265011 
L 400.746695 179.266092 
L 400.746695 179.236699 
L 400.64136 177.809086 
L 400.620293 177.732199 
L 400.525491 176.355903 
L 400.378021 176.260733 
L 400.378021 176.250509 
L 400.293753 175.461281 
L 400.188417 175.471085 
L 400.188417 175.446266 
L 400.093615 173.019129 
L 400.062015 173.022382 
L 400.062015 172.911071 
L 399.956679 172.538532 
L 399.904011 172.543956 
L 399.904011 172.437285 
L 399.904011 171.559772 
L 399.735475 171.553123 
L 399.735475 171.465751 
L 399.630139 169.919607 
L 399.619606 169.920692 
L 399.619606 169.848128 
L 399.588005 169.674702 
L 399.282532 168.265036 
L 399.229864 168.17683 
L 399.229864 168.160832 
L 399.124529 166.922677 
L 399.092928 166.859685 
L 399.092928 166.814325 
L 398.987592 166.532599 
L 398.945458 166.414214 
L 398.840123 164.174699 
L 398.650519 164.154451 
L 398.576784 163.571795 
L 398.450381 163.431669 
L 398.345046 159.633087 
L 398.281845 159.57827 
L 398.250244 158.837137 
L 398.06064 158.719766 
L 398.06064 158.718474 
L 398.050106 158.719553 
L 397.797301 158.592894 
L 397.691966 158.116929 
L 397.628764 158.055672 
L 397.628764 158.037428 
L 397.544496 156.64731 
L 397.386493 156.648876 
L 397.386493 156.561297 
L 397.281157 156.381986 
L 397.217956 156.241928 
L 397.11262 155.698882 
L 396.965151 155.602463 
L 396.859815 155.257608 
L 396.828215 155.205468 
L 396.42794 154.913346 
L 396.375272 154.512153 
L 396.291003 151.875499 
L 396.217269 151.882991 
L 396.217269 151.868918 
L 396.217269 151.459789 
L 396.006598 151.401945 
L 395.95393 150.883301 
L 395.922329 150.885082 
L 395.690591 150.905749 
L 395.690591 150.898626 
L 394.85844 148.481451 
L 394.763639 148.404409 
L 394.763639 148.388249 
L 394.732038 148.295886 
L 394.637236 148.302528 
L 394.637236 148.192131 
L 394.616169 147.896216 
L 394.384431 147.906323 
L 394.384431 147.897453 
L 394.279095 147.005925 
L 394.226427 146.98135 
L 394.226427 146.909578 
L 394.215894 145.810212 
L 393.84722 145.394626 
L 393.752418 144.627014 
L 393.710283 144.631241 
L 393.710283 144.522072 
L 393.647082 144.274178 
L 393.489079 144.277675 
L 393.489079 144.178846 
L 393.415344 143.81308 
L 393.341609 143.592071 
L 393.320542 143.499229 
L 393.04667 143.428469 
L 393.04667 143.415994 
L 392.972935 143.384379 
L 392.783331 143.300324 
L 392.783331 143.295637 
L 392.709596 142.886489 
L 392.656928 142.795958 
L 392.309321 142.123895 
L 392.27772 142.065251 
L 392.27772 142.017683 
L 392.24612 141.873215 
L 392.119717 141.444665 
L 392.014382 140.522663 
L 391.993315 140.518304 
L 391.993315 140.508623 
L 391.887979 140.01257 
L 391.866912 140.00817 
L 391.866912 139.974081 
L 391.761576 139.335993 
L 391.729976 139.322769 
L 391.729976 139.254043 
L 391.677308 138.621874 
L 391.308634 138.309788 
L 391.182231 135.370245 
L 391.11903 135.376431 
L 391.11903 135.340525 
L 391.034761 134.076234 
L 390.697688 133.672813 
L 390.602886 132.982512 
L 390.307946 132.770328 
L 390.297413 132.67978 
L 389.99194 132.649494 
L 389.99194 132.608932 
L 389.886604 131.96774 
L 389.876071 131.935004 
L 389.317793 131.884145 
L 389.317793 131.880587 
L 389.222991 130.601578 
L 389.128189 130.513249 
L 389.022853 130.001859 
L 389.001786 129.953026 
L 389.001786 129.896686 
L 388.896451 129.473132 
L 388.801649 129.407317 
L 388.801649 129.370753 
L 388.706847 129.017092 
L 388.696313 129.018101 
L 388.633112 129.024155 
L 388.633112 128.961723 
L 388.622578 128.850618 
L 388.380307 128.873816 
L 388.380307 128.835185 
L 388.296038 128.145192 
L 388.253904 128.049073 
L 388.253904 128.03794 
L 388.148568 127.091248 
L 388.116968 126.987356 
L 388.116968 126.985479 
L 388.011632 126.756875 
L 387.748294 126.67458 
L 387.664025 126.382631 
L 387.653492 126.383629 
L 387.537623 126.30766 
L 387.537623 126.284963 
L 387.453354 125.851174 
L 379.753328 126.542957 
L 379.753328 126.468529 
L 379.711194 126.411459 
L 379.66906 126.413589 
L 379.595325 126.395822 
L 379.595325 126.311702 
L 379.542657 126.111876 
L 379.163449 126.044638 
L 379.163449 126.035042 
L 379.110782 125.928701 
L 379.026513 125.702048 
L 379.01598 125.703056 
L 378.889577 125.609142 
L 378.889577 125.605285 
L 378.826376 125.605545 
L 378.794775 125.285924 
L 378.699973 125.283369 
L 378.699973 125.279497 
L 378.636772 124.279628 
L 377.509682 124.302742 
L 377.509682 124.267484 
L 377.41488 123.787447 
L 377.341145 123.7196 
L 377.341145 123.711718 
L 377.23581 123.285196 
L 377.183142 123.240686 
L 377.183142 123.224839 
L 377.077806 122.805973 
L 377.025139 122.755226 
L 377.025139 122.753235 
L 376.961937 122.490057 
L 376.951404 122.491052 
L 376.740733 122.467022 
L 376.740733 122.445046 
L 376.635397 121.916037 
L 376.572196 121.869742 
L 376.572196 121.81143 
L 376.551129 121.785251 
L 376.46686 121.793189 
L 376.414193 121.711593 
L 376.414193 121.687424 
L 376.308857 120.924828 
L 376.28779 120.908531 
L 376.28779 120.896347 
L 376.214055 120.730487 
L 375.950716 120.445417 
L 375.845381 119.101037 
L 375.834847 119.102016 
L 375.834847 119.006798 
L 375.78218 118.841726 
L 375.63471 118.855415 
L 375.63471 118.849191 
L 375.539908 116.353928 
L 375.445106 116.362606 
L 375.350304 115.951378 
L 375.318703 115.949993 
L 375.318703 115.91581 
L 375.318703 115.738306 
L 375.023764 115.426407 
L 373.970409 115.449352 
L 373.970409 115.4429 
L 373.970409 115.083076 
L 373.875607 115.091706 
L 373.517466 115.050895 
L 373.517466 115.014159 
L 373.517466 115.011998 
L 373.506933 115.012957 
L 373.359463 115.000445 
L 373.359463 114.920417 
L 373.296262 114.785423 
L 373.23306 114.674093 
L 373.190926 114.297571 
L 373.022389 114.188656 
L 372.980255 114.087765 
L 372.464111 114.036261 
L 372.464111 114.023148 
L 372.358776 113.76131 
L 372.337708 113.734723 
L 372.337708 113.655777 
L 372.295574 113.382791 
L 372.158638 113.346747 
L 372.158638 113.285102 
L 372.053303 113.0631 
L 372.021702 113.023999 
L 372.021702 113.006332 
L 371.9269 112.516705 
L 371.684628 112.436317 
L 371.684628 112.429651 
L 371.610893 112.229407 
L 371.547692 112.137057 
L 371.547692 112.123684 
L 371.505558 112.080639 
L 370.494337 111.849548 
L 370.389001 111.610218 
L 370.3258 111.508109 
L 370.3258 111.505863 
L 370.220465 111.004087 
L 369.01964 111.000533 
L 368.914304 110.806194 
L 368.808969 110.727172 
L 368.808969 110.718099 
L 368.766835 109.741873 
L 368.608831 104.008542 
L 368.482429 103.975762 
L 368.482429 103.760336 
L 368.471895 103.761229 
L 368.176956 103.72079 
L 368.176956 103.701389 
L 368.176956 103.546056 
L 367.860949 103.526655 
L 367.860949 103.478036 
L 367.755614 103.360436 
L 367.71348 103.327477 
L 367.71348 103.317735 
L 367.59761 103.088565 
L 367.481741 103.007982 
L 367.481741 102.963992 
L 367.471208 102.964881 
L 367.23947 102.879259 
L 367.23947 102.874365 
L 367.197336 102.743231 
L 367.176268 102.745006 
L 366.807594 102.700071 
L 366.702259 102.33054 
L 366.660124 102.289763 
L 366.660124 102.238037 
L 366.607457 101.599976 
L 366.575856 101.602616 
L 366.459987 101.560233 
L 366.459987 101.503182 
L 366.459987 101.428723 
L 364.911555 101.46115 
L 364.911555 101.448711 
L 364.911555 101.43627 
L 364.648216 101.38112 
L 364.648216 101.376139 
L 364.606082 101.272511 
L 364.469146 101.189165 
L 364.469146 101.171695 
L 364.374344 100.939724 
L 364.36381 100.940602 
L 364.321676 100.926601 
L 364.321676 100.924099 
L 364.216341 100.134244 
L 364.142606 100.036951 
L 364.142606 100.031905 
L 364.142606 99.99405 
L 363.394724 99.957416 
L 363.394724 99.944776 
L 363.352589 99.66729 
L 363.342056 99.66816 
L 363.089251 99.620572 
L 363.089251 99.587592 
L 362.983915 96.215953 
L 362.783778 96.205814 
L 362.783778 96.179641 
L 362.678442 94.119349 
L 362.573107 94.098281 
L 362.299234 92.396567 
L 362.151765 92.394407 
L 362.151765 92.296824 
L 362.046429 92.06604 
L 362.025362 92.062226 
L 362.025362 92.013293 
L 361.93056 91.152558 
L 361.898959 91.144007 
L 361.898959 91.113859 
L 361.793624 90.674177 
L 361.762023 90.613258 
L 361.762023 90.591226 
L 361.677755 90.214116 
L 361.582953 90.091303 
L 361.551352 89.908147 
L 361.530285 89.909733 
L 361.435483 89.883605 
L 361.435483 89.805947 
L 361.42495 87.850909 
L 360.898272 87.782368 
L 360.898272 87.779542 
L 360.792936 86.751199 
L 360.719202 86.708077 
L 360.719202 86.702372 
L 360.613866 86.269831 
L 360.603333 86.270593 
L 360.603333 86.164582 
L 360.592799 85.645354 
L 360.424262 85.6517 
L 360.424262 85.547981 
L 360.424262 85.527803 
L 360.266259 85.539138 
L 360.266259 85.498766 
L 360.160923 83.296329 
L 360.139856 83.271344 
L 360.139856 83.256643 
L 360.045054 82.91872 
L 360.023987 82.822823 
L 359.918652 82.679495 
L 359.434108 82.615471 
L 359.402508 82.401429 
L 359.086501 82.322397 
L 359.086501 82.313492 
L 359.054901 82.288955 
L 358.759961 82.133968 
L 358.654626 82.037074 
L 358.633559 81.931296 
L 358.538757 81.660336 
L 357.917277 81.628204 
L 357.864609 81.401299 
L 357.822475 81.404179 
L 357.780341 81.407059 
L 357.780341 81.296125 
L 357.738207 80.881309 
L 357.727673 80.882024 
L 357.653938 80.868966 
L 357.653938 80.781617 
L 357.601271 80.595201 
L 357.590737 80.595913 
L 357.264197 80.230953 
L 350.743929 80.673484 
L 350.743929 80.594236 
L 350.743929 80.545441 
L 350.522724 80.441506 
L 350.522724 80.438452 
L 350.522724 80.435398 
L 350.501657 80.436835 
L 349.3535 80.475508 
L 349.3535 80.399023 
L 349.248165 80.136574 
L 349.216564 80.09577 
L 349.216564 80.031309 
L 349.121762 78.557816 
L 348.784688 78.486944 
L 348.784688 78.471383 
L 348.679353 77.481303 
L 348.668819 77.481995 
L 348.668819 77.4663 
L 348.595084 76.888982 
L 348.574017 76.890353 
L 348.500282 76.866755 
L 348.500282 76.816258 
L 348.426548 76.46063 
L 348.342279 76.386889 
L 348.236944 75.914245 
L 348.184276 75.888985 
L 348.184276 75.879438 
L 348.163209 75.635479 
L 348.152675 75.636152 
L 346.551576 75.719457 
L 346.551576 75.636369 
L 346.456774 75.533692 
L 346.109166 75.447044 
L 346.024898 75.324197 
L 345.961697 75.254429 
L 345.856361 74.936506 
L 345.772093 74.832364 
L 345.677291 74.651353 
L 345.64569 74.653348 
L 345.64569 74.550043 
L 345.550888 74.320007 
L 345.540355 74.320668 
L 345.445553 74.316915 
L 345.445553 74.216534 
L 345.424486 74.130358 
L 345.403418 74.131678 
L 344.202594 74.122603 
L 344.202594 74.116107 
L 344.181527 72.844058 
L 344.128859 72.564708 
L 344.097258 72.566642 
L 343.86552 72.495244 
L 343.86552 72.472192 
L 343.760184 72.254451 
L 342.717363 72.208996 
L 342.633095 71.975839 
L 342.569893 71.979677 
L 342.569893 71.913399 
L 342.475091 71.21101 
L 341.147864 71.274026 
L 341.147864 71.25065 
L 341.084663 70.93005 
L 340.515851 70.833341 
L 340.515851 70.826632 
L 340.463183 70.745887 
L 340.368381 70.751543 
L 340.368381 70.667586 
L 340.33678 70.38695 
L 340.326247 70.387574 
L 335.607216 70.509956 
L 335.512414 69.546154 
L 330.561645 69.760379 
L 330.561645 69.736331 
L 330.45631 69.550028 
L 330.287773 69.42916 
L 330.277239 69.343612 
L 329.866431 69.343756 
L 329.866431 69.260923 
L 329.824297 69.156333 
L 329.445089 69.09224 
L 329.445089 69.088781 
L 329.392421 67.188547 
L 329.350287 67.190943 
L 329.076414 67.157319 
L 329.076414 67.09755 
L 328.971079 66.758387 
L 328.960545 66.758982 
L 328.960545 66.688428 
L 328.85521 66.287864 
L 328.339066 66.284853 
L 328.339066 66.206875 
L 328.23373 65.580007 
L 328.20213 65.517586 
L 328.20213 65.499757 
L 328.096794 65.266379 
L 328.033593 65.209082 
L 328.033593 65.116093 
L 328.023059 65.116669 
L 327.633318 65.059218 
L 327.538516 64.637429 
L 327.527982 64.638 
L 327.485848 64.640283 
L 327.485848 64.532411 
L 327.412113 64.233845 
L 326.643164 64.203002 
L 326.643164 64.192167 
L 326.622097 63.856975 
L 326.053285 63.778606 
L 325.94795 63.253585 
L 325.895282 63.212648 
L 325.895282 63.147048 
L 325.863681 63.101311 
L 325.32647 63.056572 
L 325.32647 63.023707 
L 325.305403 62.911546 
L 325.29487 62.912098 
L 325.115799 62.877602 
L 325.115799 62.822729 
L 325.020997 62.387807 
L 324.473253 62.180846 
L 324.399518 61.646058 
L 324.378451 61.647133 
L 324.315249 61.650358 
L 324.315249 61.639266 
L 324.304716 61.310311 
L 324.294182 61.310844 
L 324.157246 61.317779 
L 324.157246 61.29924 
L 324.051911 60.821568 
L 323.620035 60.779881 
L 323.620035 60.735161 
L 323.620035 60.627022 
L 323.609501 60.627547 
L 322.334942 60.616499 
L 322.334942 60.582851 
L 322.334942 60.537972 
L 322.27174 60.541125 
L 321.660794 60.46677 
L 321.639727 60.220307 
L 321.14465 60.196024 
L 321.14465 60.139651 
L 321.049849 59.982588 
L 320.986647 59.850116 
L 320.891845 59.719032 
L 320.881312 59.719548 
L 317.25777 59.81091 
L 317.184035 59.742487 
L 317.004965 59.614638 
L 316.920697 59.413464 
L 316.815361 59.361525 
L 316.710025 58.817191 
L 316.636291 58.717454 
L 316.636291 58.629396 
L 315.066792 58.597481 
L 315.066792 58.593641 
L 314.961456 58.321871 
L 314.803453 58.229292 
L 314.803453 58.221586 
L 314.719184 58.179357 
L 310.179224 58.27294 
L 310.179224 58.249659 
L 310.052821 57.765802 
L 309.863217 57.681257 
L 309.800016 57.336725 
L 309.599879 57.263974 
L 309.599879 57.252233 
L 309.494543 57.09267 
L 309.115335 57.047638 
L 309.115335 57.004479 
L 309.073201 56.570114 
L 308.736127 56.573837 
L 308.736127 56.558078 
L 308.451721 56.362138 
L 308.409587 56.257438 
L 308.399054 56.25792 
L 307.903977 56.229177 
L 307.903977 56.169838 
L 307.830242 56.08612 
L 305.607663 55.219272 
L 305.586596 54.911842 
L 305.565529 54.912775 
L 304.143499 54.975832 
L 304.143499 54.875373 
L 304.059231 54.436134 
L 303.774825 54.432441 
L 303.774825 54.339587 
L 303.669489 54.295707 
L 303.427218 54.213279 
L 303.427218 54.209235 
L 303.332416 54.002839 
L 303.290281 53.964137 
L 303.290281 53.895216 
L 303.258681 53.705838 
L 303.090144 53.635863 
L 303.090144 53.623669 
L 302.984809 53.436965 
L 302.605601 53.424591 
L 302.605601 53.404219 
L 302.510799 52.721853 
L 302.500265 52.722292 
L 302.458131 52.633893 
L 302.458131 52.473925 
L 301.341575 52.474928 
L 301.341575 52.466705 
L 301.257306 52.190267 
L 301.036102 52.166368 
L 301.036102 52.096257 
L 300.930766 51.943696 
L 300.899165 51.928459 
L 300.899165 51.841673 
L 300.867565 51.636088 
L 300.541025 51.620267 
L 300.541025 51.587117 
L 300.519958 51.359832 
L 300.340887 51.296386 
L 299.550871 51.265565 
L 299.550871 51.240598 
L 299.466602 51.169022 
L 298.602851 50.79007 
L 298.497516 50.522072 
L 298.444848 50.415107 
L 298.39218 50.362608 
L 298.328979 50.247491 
L 298.234177 49.353298 
L 298.181509 49.342582 
L 298.181509 49.32143 
L 298.181509 49.101255 
L 297.338825 49.132583 
L 297.338825 49.022236 
L 297.286157 48.815967 
L 297.254557 48.81713 
L 297.138688 48.715014 
L 297.043886 48.441475 
L 296.074799 48.455349 
L 296.074799 48.446804 
L 295.979997 48.155077 
L 295.906262 48.13203 
L 295.906262 48.080614 
L 295.81146 47.783667 
L 295.800927 47.784041 
L 295.769326 47.65623 
L 295.695591 46.969058 
L 295.663991 46.970144 
L 293.978622 46.937213 
L 293.978622 46.919871 
L 293.957555 46.664541 
L 293.841686 46.503289 
L 293.083271 46.472354 
L 292.493392 46.339644 
L 292.409123 45.979684 
L 292.39859 45.980034 
L 292.261654 45.910136 
L 292.261654 45.87509 
L 292.177385 45.794596 
L 291.640174 45.812301 
L 291.640174 45.807914 
L 291.545372 45.380295 
L 291.503238 45.38166 
L 291.503238 45.275959 
L 291.503238 45.170176 
L 291.429503 45.172542 
L 291.282033 45.164044 
L 291.187231 44.968417 
L 289.006786 44.936073 
L 289.006786 44.931638 
L 288.901451 44.619694 
L 288.806649 44.564858 
L 288.806649 44.56041 
L 288.775048 44.365515 
L 288.322106 44.277037 
L 288.322106 44.272575 
L 288.237837 44.159126 
L 288.195703 44.160425 
L 288.195703 44.155959 
L 287.08968 43.526481 
L 287.047546 43.30731 
L 287.015945 43.308248 
L 286.879009 43.262766 
L 286.879009 43.231228 
L 285.593916 42.522426 
L 285.13044 42.490268 
L 282.644522 42.324282 
L 281.42263 41.997167 
L 281.327828 41.180704 
L 280.990754 41.157427 
L 280.62208 41.088737 
L 279.547658 41.038756 
L 279.094715 40.423465 
L 278.631239 40.332856 
L 278.631239 40.328192 
L 278.620705 40.253807 
L 276.756266 40.273558 
L 276.724666 39.983821 
L 276.482394 39.989943 
L 276.482394 39.938312 
L 276.408659 39.705219 
L 276.155854 39.607961 
L 276.124253 39.509829 
L 276.082119 39.510864 
L 275.829314 39.43692 
L 275.292103 39.095599 
L 275.271036 39.025099 
L 275.186767 39.027111 
L 274.997163 38.951089 
L 274.923429 38.744122 
L 274.891828 38.744864 
L 274.860227 38.721865 
L 274.723291 38.354131 
L 274.354617 38.25294 
L 274.280882 38.135344 
L 273.343396 38.051328 
L 273.280195 37.971399 
L 273.23806 37.972341 
L 273.153792 37.864069 
L 273.153792 37.849694 
L 273.090591 37.851095 
L 272.216306 37.856105 
L 272.216306 37.851306 
L 272.11097 37.155915 
L 269.382781 37.145985 
L 269.382781 37.107207 
L 269.277445 37.075491 
L 268.540097 36.993932 
L 268.540097 36.984214 
L 268.540097 36.969636 
L 268.034486 36.756353 
L 266.012044 36.768944 
L 265.822441 36.684849 
L 264.01067 36.61926 
L 263.926401 36.581707 
L 263.915868 36.581924 
L 263.368123 36.494826 
L 263.368123 36.484987 
L 263.262788 35.157319 
L 263.104784 35.135368 
L 263.104784 35.055844 
L 263.009982 34.738974 
L 262.999449 34.73916 
L 261.925027 34.713206 
L 261.925027 34.693229 
L 261.90396 34.418631 
L 261.882892 34.418992 
L 260.208058 34.437771 
L 260.113256 34.313875 
L 259.965786 34.306338 
L 259.870984 34.036304 
L 259.860451 34.036479 
L 259.82885 34.037004 
L 259.82885 34.031968 
L 259.765649 33.690133 
L 259.744582 33.690471 
L 259.554978 33.683414 
L 259.554978 33.678363 
L 259.512843 33.497085 
L 259.449642 33.49808 
L 259.217904 33.451121 
L 259.217904 33.446059 
L 259.207371 33.157402 
L 258.954565 33.08511 
L 258.954565 33.054646 
L 258.891364 32.353039 
L 258.817629 32.354063 
L 258.817629 32.348959 
L 258.796562 31.940316 
L 258.786028 31.940455 
L 257.86961 31.61382 
L 257.774808 31.06919 
L 257.153328 30.999045 
L 257.153328 30.968038 
L 257.153328 30.911175 
L 257.090127 30.911905 
L 257.005858 30.907708 
L 256.92159 30.77931 
L 256.900523 30.779549 
L 256.542382 30.695518 
L 256.542382 30.659228 
L 256.489714 30.659815 
L 255.151953 30.596787 
L 255.151953 30.575987 
L 255.109819 30.498418 
L 255.099286 30.498533 
L 254.772746 30.491683 
L 252.213093 29.938087 
L 252.107757 29.72894 
L 251.897086 29.620459 
L 251.791751 29.610927 
L 251.380942 29.530481 
L 251.380942 29.504115 
L 251.380942 29.493567 
L 250.801597 29.409173 
L 250.801597 29.388041 
L 250.769996 29.330198 
L 250.738395 29.330483 
L 250.422389 29.243395 
L 250.369721 28.309365 
L 250.317053 28.309749 
L 250.053715 28.258362 
L 250.053715 28.210371 
L 250.001047 27.596068 
L 249.948379 27.596388 
L 249.347967 27.492747 
L 249.253165 27.444994 
L 249.03196 27.392561 
L 249.00036 27.043066 
L 248.726487 26.942049 
L 248.589551 26.764628 
L 246.630311 26.676186 
L 246.630311 26.638225 
L 246.524975 26.638693 
L 244.481466 26.577009 
L 244.481466 26.527981 
L 244.428798 26.528206 
L 240.246979 26.436342 
L 240.246979 26.430848 
L 240.225912 26.430935 
L 235.685951 26.339007 
L 235.685951 26.327923 
L 235.675418 26.327964 
L 231.272393 26.239422 
L 231.272393 26.233832 
L 231.167058 26.234236 
L 227.016839 26.143209 
L 226.985238 26.120772 
L 222.550613 26.0291 
L 222.476878 25.943992 
L 222.466345 25.944027 
L 221.075916 25.845955 
L 221.075916 25.840244 
L 221.075916 25.834532 
L 221.002181 25.834766 
L 217.399707 25.777273 
L 217.399707 25.70246 
L 217.294371 25.702772 
L 215.324597 25.598788 
L 215.324597 25.593005 
L 215.261396 25.593179 
L 186.125594 25.574413 
L 186.125594 25.562175 
L 186.020258 25.562477 
L 27.111107 25.914322 
L 27.016305 25.682714 
L 27.005772 25.682761 
L 18.568398 25.630366 
L 18.568398 25.566221 
L 18.494663 25.566538 
L 18.178656 25.5679 
L 18.052254 25.347974 
L 15.324064 25.31171 
L 15.208195 25.237916 
L -1 25.236804 
L -1 25.236804 
" clip-path="url(#p685e758c33)" style="fill: none; stroke: #800080; stroke-width: 1.5; stroke-linecap: square"/>
   </g>
   <g id="line2d_30">
    <path d="M 206.328944 25.453537 
L 295.621856 141.229373 
L 347.215189 197.24427 
L 368.018952 225.370089 
L 404.106898 240.845389 
" clip-path="url(#p685e758c33)" style="fill: none; stroke-dasharray: 5.55,2.4; stroke-dashoffset: 0; stroke: #000000; stroke-width: 1.5"/>
    <defs>
     <path id="m07fa7c87ec" d="M -3 3 
L 3 -3 
M -3 -3 
L 3 3 
" style="stroke: #000000"/>
    </defs>
    <g clip-path="url(#p685e758c33)">
     <use xlink:href="#m07fa7c87ec" x="206.328944" y="25.453537" style="stroke: #000000"/>
     <use xlink:href="#m07fa7c87ec" x="295.621856" y="141.229373" style="stroke: #000000"/>
     <use xlink:href="#m07fa7c87ec" x="347.215189" y="197.24427" style="stroke: #000000"/>
     <use xlink:href="#m07fa7c87ec" x="368.018952" y="225.370089" style="stroke: #000000"/>
     <use xlink:href="#m07fa7c87ec" x="404.106898" y="240.845389" style="stroke: #000000"/>
    </g>
   </g>
   <g id="line2d_31">
    <path d="M 306.313411 162.63654 
" clip-path="url(#p685e758c33)" style="fill: none; stroke: #0000ff; stroke-width: 1.5; stroke-linecap: square"/>
    <defs>
     <path id="me9ae28277c" d="M 0 3 
C 0.795609 3 1.55874 2.683901 2.12132 2.12132 
C 2.683901 1.55874 3 0.795609 3 0 
C 3 -0.795609 2.683901 -1.55874 2.12132 -2.12132 
C 1.55874 -2.683901 0.795609 -3 0 -3 
C -0.795609 -3 -1.55874 -2.683901 -2.12132 -2.12132 
C -2.683901 -1.55874 -3 -0.795609 -3 0 
C -3 0.795609 -2.683901 1.55874 -2.12132 2.12132 
C -1.55874 2.683901 -0.795609 3 0 3 
z
" style="stroke: #0000ff"/>
    </defs>
    <g clip-path="url(#p685e758c33)">
     <use xlink:href="#me9ae28277c" x="306.313411" y="162.63654" style="fill: #0000ff; stroke: #0000ff"/>
    </g>
   </g>
   <g id="patch_3">
    <path d="M 47.72 303.64 
L 47.72 10.8 
" style="fill: none; stroke: #000000; stroke-width: 0.8; stroke-linejoin: miter; stroke-linecap: square"/>
   </g>
   <g id="patch_4">
    <path d="M 450 303.64 
L 450 10.8 
" style="fill: none; stroke: #000000; stroke-width: 0.8; stroke-linejoin: miter; stroke-linecap: square"/>
   </g>
   <g id="patch_5">
    <path d="M 47.72 303.64 
L 450 303.64 
" style="fill: none; stroke: #000000; stroke-width: 0.8; stroke-linejoin: miter; stroke-linecap: square"/>
   </g>
   <g id="patch_6">
    <path d="M 47.72 10.8 
L 450 10.8 
" style="fill: none; stroke: #000000; stroke-width: 0.8; stroke-linejoin: miter; stroke-linecap: square"/>
   </g>
   <g id="text_17">
    <!-- R=0 -->
    <g transform="translate(182.469257 33.811818) scale(0.11 -0.11)">
     <defs>
      <path id="DejaVuSans-3d" d="M 678 2906 
L 4684 2906 
L 4684 2381 
L 678 2381 
L 678 2906 
z
M 678 1631 
L 4684 1631 
L 4684 1100 
L 678 1100 
L 678 1631 
z
" transform="scale(0.015625)"/>
     </defs>
     <use xlink:href="#DejaVuSans-52"/>
     <use xlink:href="#DejaVuSans-3d" transform="translate(69.482422 0)"/>
     <use xlink:href="#DejaVuSans-30" transform="translate(153.271484 0)"/>
    </g>
   </g>
   <g id="text_18">
    <!-- R=1 -->
    <g transform="translate(271.762169 149.587654) scale(0.11 -0.11)">
     <use xlink:href="#DejaVuSans-52"/>
     <use xlink:href="#DejaVuSans-3d" transform="translate(69.482422 0)"/>
     <use xlink:href="#DejaVuSans-31" transform="translate(153.271484 0)"/>
    </g>
   </g>
   <g id="text_19">
    <!-- R=2 -->
    <g transform="translate(323.355502 205.602552) scale(0.11 -0.11)">
     <defs>
      <path id="DejaVuSans-32" d="M 1228 531 
L 3431 531 
L 3431 0 
L 469 0 
L 469 531 
Q 828 903 1448 1529 
Q 2069 2156 2228 2338 
Q 2531 2678 2651 2914 
Q 2772 3150 2772 3378 
Q 2772 3750 2511 3984 
Q 2250 4219 1831 4219 
Q 1534 4219 1204 4116 
Q 875 4013 500 3803 
L 500 4441 
Q 881 4594 1212 4672 
Q 1544 4750 1819 4750 
Q 2544 4750 2975 4387 
Q 3406 4025 3406 3419 
Q 3406 3131 3298 2873 
Q 3191 2616 2906 2266 
Q 2828 2175 2409 1742 
Q 1991 1309 1228 531 
z
" transform="scale(0.015625)"/>
     </defs>
     <use xlink:href="#DejaVuSans-52"/>
     <use xlink:href="#DejaVuSans-3d" transform="translate(69.482422 0)"/>
     <use xlink:href="#DejaVuSans-32" transform="translate(153.271484 0)"/>
    </g>
   </g>
   <g id="text_20">
    <!-- R=3 -->
    <g transform="translate(344.159265 233.72837) scale(0.11 -0.11)">
     <use xlink:href="#DejaVuSans-52"/>
     <use xlink:href="#DejaVuSans-3d" transform="translate(69.482422 0)"/>
     <use xlink:href="#DejaVuSans-33" transform="translate(153.271484 0)"/>
    </g>
   </g>
   <g id="text_21">
    <!-- R=4 -->
    <g transform="translate(380.247211 249.203671) scale(0.11 -0.11)">
     <use xlink:href="#DejaVuSans-52"/>
     <use xlink:href="#DejaVuSans-3d" transform="translate(69.482422 0)"/>
     <use xlink:href="#DejaVuSans-34" transform="translate(153.271484 0)"/>
    </g>
   </g>
   <g id="legend_1">
    <g id="patch_7">
     <path d="M 54.72 298.64 
L 130.484062 298.64 
Q 132.484062 298.64 132.484062 296.64 
L 132.484062 253.605625 
Q 132.484062 251.605625 130.484062 251.605625 
L 54.72 251.605625 
Q 52.72 251.605625 52.72 253.605625 
L 52.72 296.64 
Q 52.72 298.64 54.72 298.64 
z
" style="fill: #ffffff; opacity: 0.8; stroke: #cccccc; stroke-linejoin: miter"/>
    </g>
    <g id="line2d_32">
     <path d="M 56.72 259.704062 
L 66.72 259.704062 
L 76.72 259.704062 
" style="fill: none; stroke: #800080; stroke-width: 1.5; stroke-linecap: square"/>
    </g>
    <g id="text_22">
     <!-- GNN -->
     <g transform="translate(84.72 263.204062) scale(0.1 -0.1)">
      <defs>
       <path id="DejaVuSans-47" d="M 3809 666 
L 3809 1919 
L 2778 1919 
L 2778 2438 
L 4434 2438 
L 4434 434 
Q 4069 175 3628 42 
Q 3188 -91 2688 -91 
Q 1594 -91 976 548 
Q 359 1188 359 2328 
Q 359 3472 976 4111 
Q 1594 4750 2688 4750 
Q 3144 4750 3555 4637 
Q 3966 4525 4313 4306 
L 4313 3634 
Q 3963 3931 3569 4081 
Q 3175 4231 2741 4231 
Q 1884 4231 1454 3753 
Q 1025 3275 1025 2328 
Q 1025 1384 1454 906 
Q 1884 428 2741 428 
Q 3075 428 3337 486 
Q 3600 544 3809 666 
z
" transform="scale(0.015625)"/>
       <path id="DejaVuSans-4e" d="M 628 4666 
L 1478 4666 
L 3547 763 
L 3547 4666 
L 4159 4666 
L 4159 0 
L 3309 0 
L 1241 3903 
L 1241 0 
L 628 0 
L 628 4666 
z
" transform="scale(0.015625)"/>
      </defs>
      <use xlink:href="#DejaVuSans-47"/>
      <use xlink:href="#DejaVuSans-4e" transform="translate(77.490234 0)"/>
      <use xlink:href="#DejaVuSans-4e" transform="translate(152.294922 0)"/>
     </g>
    </g>
    <g id="line2d_33">
     <path d="M 56.72 274.382187 
L 66.72 274.382187 
L 76.72 274.382187 
" style="fill: none; stroke-dasharray: 5.55,2.4; stroke-dashoffset: 0; stroke: #000000; stroke-width: 1.5"/>
     <g>
      <use xlink:href="#m07fa7c87ec" x="66.72" y="274.382187" style="stroke: #000000"/>
     </g>
    </g>
    <g id="text_23">
     <!-- RC + R -->
     <g transform="translate(84.72 277.882187) scale(0.1 -0.1)">
      <defs>
       <path id="DejaVuSans-43" d="M 4122 4306 
L 4122 3641 
Q 3803 3938 3442 4084 
Q 3081 4231 2675 4231 
Q 1875 4231 1450 3742 
Q 1025 3253 1025 2328 
Q 1025 1406 1450 917 
Q 1875 428 2675 428 
Q 3081 428 3442 575 
Q 3803 722 4122 1019 
L 4122 359 
Q 3791 134 3420 21 
Q 3050 -91 2638 -91 
Q 1578 -91 968 557 
Q 359 1206 359 2328 
Q 359 3453 968 4101 
Q 1578 4750 2638 4750 
Q 3056 4750 3426 4639 
Q 3797 4528 4122 4306 
z
" transform="scale(0.015625)"/>
       <path id="DejaVuSans-2b" d="M 2944 4013 
L 2944 2272 
L 4684 2272 
L 4684 1741 
L 2944 1741 
L 2944 0 
L 2419 0 
L 2419 1741 
L 678 1741 
L 678 2272 
L 2419 2272 
L 2419 4013 
L 2944 4013 
z
" transform="scale(0.015625)"/>
      </defs>
      <use xlink:href="#DejaVuSans-52"/>
      <use xlink:href="#DejaVuSans-43" transform="translate(64.482422 0)"/>
      <use xlink:href="#DejaVuSans-20" transform="translate(134.306641 0)"/>
      <use xlink:href="#DejaVuSans-2b" transform="translate(166.09375 0)"/>
      <use xlink:href="#DejaVuSans-20" transform="translate(249.882812 0)"/>
      <use xlink:href="#DejaVuSans-52" transform="translate(281.669922 0)"/>
     </g>
    </g>
    <g id="line2d_34">
     <path d="M 56.72 289.060312 
L 66.72 289.060312 
L 76.72 289.060312 
" style="fill: none; stroke: #0000ff; stroke-width: 1.5; stroke-linecap: square"/>
     <g>
      <use xlink:href="#me9ae28277c" x="66.72" y="289.060312" style="fill: #0000ff; stroke: #0000ff"/>
     </g>
    </g>
    <g id="text_24">
     <!-- RDChiral -->
     <g transform="translate(84.72 292.560312) scale(0.1 -0.1)">
      <defs>
       <path id="DejaVuSans-44" d="M 1259 4147 
L 1259 519 
L 2022 519 
Q 2988 519 3436 956 
Q 3884 1394 3884 2338 
Q 3884 3275 3436 3711 
Q 2988 4147 2022 4147 
L 1259 4147 
z
M 628 4666 
L 1925 4666 
Q 3281 4666 3915 4102 
Q 4550 3538 4550 2338 
Q 4550 1131 3912 565 
Q 3275 0 1925 0 
L 628 0 
L 628 4666 
z
" transform="scale(0.015625)"/>
       <path id="DejaVuSans-68" d="M 3513 2113 
L 3513 0 
L 2938 0 
L 2938 2094 
Q 2938 2591 2744 2837 
Q 2550 3084 2163 3084 
Q 1697 3084 1428 2787 
Q 1159 2491 1159 1978 
L 1159 0 
L 581 0 
L 581 4863 
L 1159 4863 
L 1159 2956 
Q 1366 3272 1645 3428 
Q 1925 3584 2291 3584 
Q 2894 3584 3203 3211 
Q 3513 2838 3513 2113 
z
" transform="scale(0.015625)"/>
      </defs>
      <use xlink:href="#DejaVuSans-52"/>
      <use xlink:href="#DejaVuSans-44" transform="translate(69.482422 0)"/>
      <use xlink:href="#DejaVuSans-43" transform="translate(146.484375 0)"/>
      <use xlink:href="#DejaVuSans-68" transform="translate(216.308594 0)"/>
      <use xlink:href="#DejaVuSans-69" transform="translate(279.6875 0)"/>
      <use xlink:href="#DejaVuSans-72" transform="translate(307.470703 0)"/>
      <use xlink:href="#DejaVuSans-61" transform="translate(348.583984 0)"/>
      <use xlink:href="#DejaVuSans-6c" transform="translate(409.863281 0)"/>
     </g>
    </g>
   </g>
  </g>
 </g>
 <defs>
  <clipPath id="p685e758c33">
   <rect x="47.72" y="10.8" width="402.28" height="292.84"/>
  </clipPath>
 </defs>
</svg>
