<?xml version="1.0" encoding="utf-8" standalone="no"?>
<!DOCTYPE svg PUBLIC "-//W3C//DTD SVG 1.1//EN"
  "http://www.w3.org/Graphics/SVG/1.1/DTD/svg11.dtd">
<svg xmlns:xlink="http://www.w3.org/1999/xlink" width="460.8pt" height="345.6pt" viewBox="0 0 460.8 345.6" xmlns="http://www.w3.org/2000/svg" version="1.1">
 <metadata>
  <rdf:RDF xmlns:dc="http://purl.org/dc/elements/1.1/" xmlns:cc="http://creativecommons.org/ns#" xmlns:rdf="http://www.w3.org/1999/02/22-rdf-syntax-ns#">
   <cc:Work>
    <dc:type rdf:resource="http://purl.org/dc/dcmitype/StillImage"/>
    <dc:date>2025-07-21T08:22:52.234508</dc:date>
    <dc:format>image/svg+xml</dc:format>
    <dc:creator>
     <cc:Agent>
      <dc:title>Matplotlib v3.10.1, https://matplotlib.org/</dc:title>
     </cc:Agent>
    </dc:creator>
   </cc:Work>
  </rdf:RDF>
 </metadata>
 <defs>
  <style type="text/css">*{stroke-linejoin: round; stroke-linecap: butt}</style>
 </defs>
 <g id="figure_1">
  <g id="patch_1">
   <path d="M 0 345.6 
L 460.8 345.6 
L 460.8 0 
L 0 0 
z
" style="fill: #ffffff"/>
  </g>
  <g id="axes_1">
   <g id="patch_2">
    <path d="M 47.72 303.64 
L 450 303.64 
L 450 10.8 
L 47.72 10.8 
z
" style="fill: #ffffff"/>
   </g>
   <g id="matplotlib.axis_1">
    <g id="xtick_1">
     <g id="line2d_1">
      <path d="M 47.72 303.64 
L 47.72 10.8 
" clip-path="url(#p99d38e837f)" style="fill: none; stroke: #b0b0b0; stroke-width: 0.8; stroke-linecap: square"/>
     </g>
     <g id="line2d_2">
      <defs>
       <path id="mac41c027ea" d="M 0 0 
L 0 3.5 
" style="stroke: #000000; stroke-width: 0.8"/>
      </defs>
      <g>
       <use xlink:href="#mac41c027ea" x="47.72" y="303.64" style="stroke: #000000; stroke-width: 0.8"/>
      </g>
     </g>
     <g id="text_1">
      <!-- 0.5 -->
      <g transform="translate(39.768438 318.238437) scale(0.1 -0.1)">
       <defs>
        <path id="DejaVuSans-30" d="M 2034 4250 
Q 1547 4250 1301 3770 
Q 1056 3291 1056 2328 
Q 1056 1369 1301 889 
Q 1547 409 2034 409 
Q 2525 409 2770 889 
Q 3016 1369 3016 2328 
Q 3016 3291 2770 3770 
Q 2525 4250 2034 4250 
z
M 2034 4750 
Q 2819 4750 3233 4129 
Q 3647 3509 3647 2328 
Q 3647 1150 3233 529 
Q 2819 -91 2034 -91 
Q 1250 -91 836 529 
Q 422 1150 422 2328 
Q 422 3509 836 4129 
Q 1250 4750 2034 4750 
z
" transform="scale(0.015625)"/>
        <path id="DejaVuSans-2e" d="M 684 794 
L 1344 794 
L 1344 0 
L 684 0 
L 684 794 
z
" transform="scale(0.015625)"/>
        <path id="DejaVuSans-35" d="M 691 4666 
L 3169 4666 
L 3169 4134 
L 1269 4134 
L 1269 2991 
Q 1406 3038 1543 3061 
Q 1681 3084 1819 3084 
Q 2600 3084 3056 2656 
Q 3513 2228 3513 1497 
Q 3513 744 3044 326 
Q 2575 -91 1722 -91 
Q 1428 -91 1123 -41 
Q 819 9 494 109 
L 494 744 
Q 775 591 1075 516 
Q 1375 441 1709 441 
Q 2250 441 2565 725 
Q 2881 1009 2881 1497 
Q 2881 1984 2565 2268 
Q 2250 2553 1709 2553 
Q 1456 2553 1204 2497 
Q 953 2441 691 2322 
L 691 4666 
z
" transform="scale(0.015625)"/>
       </defs>
       <use xlink:href="#DejaVuSans-30"/>
       <use xlink:href="#DejaVuSans-2e" transform="translate(63.623047 0)"/>
       <use xlink:href="#DejaVuSans-35" transform="translate(95.410156 0)"/>
      </g>
     </g>
    </g>
    <g id="xtick_2">
     <g id="line2d_3">
      <path d="M 120.861818 303.64 
L 120.861818 10.8 
" clip-path="url(#p99d38e837f)" style="fill: none; stroke: #b0b0b0; stroke-width: 0.8; stroke-linecap: square"/>
     </g>
     <g id="line2d_4">
      <g>
       <use xlink:href="#mac41c027ea" x="120.861818" y="303.64" style="stroke: #000000; stroke-width: 0.8"/>
      </g>
     </g>
     <g id="text_2">
      <!-- 0.6 -->
      <g transform="translate(112.910256 318.238437) scale(0.1 -0.1)">
       <defs>
        <path id="DejaVuSans-36" d="M 2113 2584 
Q 1688 2584 1439 2293 
Q 1191 2003 1191 1497 
Q 1191 994 1439 701 
Q 1688 409 2113 409 
Q 2538 409 2786 701 
Q 3034 994 3034 1497 
Q 3034 2003 2786 2293 
Q 2538 2584 2113 2584 
z
M 3366 4563 
L 3366 3988 
Q 3128 4100 2886 4159 
Q 2644 4219 2406 4219 
Q 1781 4219 1451 3797 
Q 1122 3375 1075 2522 
Q 1259 2794 1537 2939 
Q 1816 3084 2150 3084 
Q 2853 3084 3261 2657 
Q 3669 2231 3669 1497 
Q 3669 778 3244 343 
Q 2819 -91 2113 -91 
Q 1303 -91 875 529 
Q 447 1150 447 2328 
Q 447 3434 972 4092 
Q 1497 4750 2381 4750 
Q 2619 4750 2861 4703 
Q 3103 4656 3366 4563 
z
" transform="scale(0.015625)"/>
       </defs>
       <use xlink:href="#DejaVuSans-30"/>
       <use xlink:href="#DejaVuSans-2e" transform="translate(63.623047 0)"/>
       <use xlink:href="#DejaVuSans-36" transform="translate(95.410156 0)"/>
      </g>
     </g>
    </g>
    <g id="xtick_3">
     <g id="line2d_5">
      <path d="M 194.003636 303.64 
L 194.003636 10.8 
" clip-path="url(#p99d38e837f)" style="fill: none; stroke: #b0b0b0; stroke-width: 0.8; stroke-linecap: square"/>
     </g>
     <g id="line2d_6">
      <g>
       <use xlink:href="#mac41c027ea" x="194.003636" y="303.64" style="stroke: #000000; stroke-width: 0.8"/>
      </g>
     </g>
     <g id="text_3">
      <!-- 0.7 -->
      <g transform="translate(186.052074 318.238437) scale(0.1 -0.1)">
       <defs>
        <path id="DejaVuSans-37" d="M 525 4666 
L 3525 4666 
L 3525 4397 
L 1831 0 
L 1172 0 
L 2766 4134 
L 525 4134 
L 525 4666 
z
" transform="scale(0.015625)"/>
       </defs>
       <use xlink:href="#DejaVuSans-30"/>
       <use xlink:href="#DejaVuSans-2e" transform="translate(63.623047 0)"/>
       <use xlink:href="#DejaVuSans-37" transform="translate(95.410156 0)"/>
      </g>
     </g>
    </g>
    <g id="xtick_4">
     <g id="line2d_7">
      <path d="M 267.145455 303.64 
L 267.145455 10.8 
" clip-path="url(#p99d38e837f)" style="fill: none; stroke: #b0b0b0; stroke-width: 0.8; stroke-linecap: square"/>
     </g>
     <g id="line2d_8">
      <g>
       <use xlink:href="#mac41c027ea" x="267.145455" y="303.64" style="stroke: #000000; stroke-width: 0.8"/>
      </g>
     </g>
     <g id="text_4">
      <!-- 0.8 -->
      <g transform="translate(259.193892 318.238437) scale(0.1 -0.1)">
       <defs>
        <path id="DejaVuSans-38" d="M 2034 2216 
Q 1584 2216 1326 1975 
Q 1069 1734 1069 1313 
Q 1069 891 1326 650 
Q 1584 409 2034 409 
Q 2484 409 2743 651 
Q 3003 894 3003 1313 
Q 3003 1734 2745 1975 
Q 2488 2216 2034 2216 
z
M 1403 2484 
Q 997 2584 770 2862 
Q 544 3141 544 3541 
Q 544 4100 942 4425 
Q 1341 4750 2034 4750 
Q 2731 4750 3128 4425 
Q 3525 4100 3525 3541 
Q 3525 3141 3298 2862 
Q 3072 2584 2669 2484 
Q 3125 2378 3379 2068 
Q 3634 1759 3634 1313 
Q 3634 634 3220 271 
Q 2806 -91 2034 -91 
Q 1263 -91 848 271 
Q 434 634 434 1313 
Q 434 1759 690 2068 
Q 947 2378 1403 2484 
z
M 1172 3481 
Q 1172 3119 1398 2916 
Q 1625 2713 2034 2713 
Q 2441 2713 2670 2916 
Q 2900 3119 2900 3481 
Q 2900 3844 2670 4047 
Q 2441 4250 2034 4250 
Q 1625 4250 1398 4047 
Q 1172 3844 1172 3481 
z
" transform="scale(0.015625)"/>
       </defs>
       <use xlink:href="#DejaVuSans-30"/>
       <use xlink:href="#DejaVuSans-2e" transform="translate(63.623047 0)"/>
       <use xlink:href="#DejaVuSans-38" transform="translate(95.410156 0)"/>
      </g>
     </g>
    </g>
    <g id="xtick_5">
     <g id="line2d_9">
      <path d="M 340.287273 303.64 
L 340.287273 10.8 
" clip-path="url(#p99d38e837f)" style="fill: none; stroke: #b0b0b0; stroke-width: 0.8; stroke-linecap: square"/>
     </g>
     <g id="line2d_10">
      <g>
       <use xlink:href="#mac41c027ea" x="340.287273" y="303.64" style="stroke: #000000; stroke-width: 0.8"/>
      </g>
     </g>
     <g id="text_5">
      <!-- 0.9 -->
      <g transform="translate(332.33571 318.238437) scale(0.1 -0.1)">
       <defs>
        <path id="DejaVuSans-39" d="M 703 97 
L 703 672 
Q 941 559 1184 500 
Q 1428 441 1663 441 
Q 2288 441 2617 861 
Q 2947 1281 2994 2138 
Q 2813 1869 2534 1725 
Q 2256 1581 1919 1581 
Q 1219 1581 811 2004 
Q 403 2428 403 3163 
Q 403 3881 828 4315 
Q 1253 4750 1959 4750 
Q 2769 4750 3195 4129 
Q 3622 3509 3622 2328 
Q 3622 1225 3098 567 
Q 2575 -91 1691 -91 
Q 1453 -91 1209 -44 
Q 966 3 703 97 
z
M 1959 2075 
Q 2384 2075 2632 2365 
Q 2881 2656 2881 3163 
Q 2881 3666 2632 3958 
Q 2384 4250 1959 4250 
Q 1534 4250 1286 3958 
Q 1038 3666 1038 3163 
Q 1038 2656 1286 2365 
Q 1534 2075 1959 2075 
z
" transform="scale(0.015625)"/>
       </defs>
       <use xlink:href="#DejaVuSans-30"/>
       <use xlink:href="#DejaVuSans-2e" transform="translate(63.623047 0)"/>
       <use xlink:href="#DejaVuSans-39" transform="translate(95.410156 0)"/>
      </g>
     </g>
    </g>
    <g id="xtick_6">
     <g id="line2d_11">
      <path d="M 413.429091 303.64 
L 413.429091 10.8 
" clip-path="url(#p99d38e837f)" style="fill: none; stroke: #b0b0b0; stroke-width: 0.8; stroke-linecap: square"/>
     </g>
     <g id="line2d_12">
      <g>
       <use xlink:href="#mac41c027ea" x="413.429091" y="303.64" style="stroke: #000000; stroke-width: 0.8"/>
      </g>
     </g>
     <g id="text_6">
      <!-- 1.0 -->
      <g transform="translate(405.477528 318.238437) scale(0.1 -0.1)">
       <defs>
        <path id="DejaVuSans-31" d="M 794 531 
L 1825 531 
L 1825 4091 
L 703 3866 
L 703 4441 
L 1819 4666 
L 2450 4666 
L 2450 531 
L 3481 531 
L 3481 0 
L 794 0 
L 794 531 
z
" transform="scale(0.015625)"/>
       </defs>
       <use xlink:href="#DejaVuSans-31"/>
       <use xlink:href="#DejaVuSans-2e" transform="translate(63.623047 0)"/>
       <use xlink:href="#DejaVuSans-30" transform="translate(95.410156 0)"/>
      </g>
     </g>
    </g>
    <g id="text_7">
     <!-- Atom Recall -->
     <g transform="translate(219.131094 331.916562) scale(0.1 -0.1)">
      <defs>
       <path id="DejaVuSans-41" d="M 2188 4044 
L 1331 1722 
L 3047 1722 
L 2188 4044 
z
M 1831 4666 
L 2547 4666 
L 4325 0 
L 3669 0 
L 3244 1197 
L 1141 1197 
L 716 0 
L 50 0 
L 1831 4666 
z
" transform="scale(0.015625)"/>
       <path id="DejaVuSans-74" d="M 1172 4494 
L 1172 3500 
L 2356 3500 
L 2356 3053 
L 1172 3053 
L 1172 1153 
Q 1172 725 1289 603 
Q 1406 481 1766 481 
L 2356 481 
L 2356 0 
L 1766 0 
Q 1100 0 847 248 
Q 594 497 594 1153 
L 594 3053 
L 172 3053 
L 172 3500 
L 594 3500 
L 594 4494 
L 1172 4494 
z
" transform="scale(0.015625)"/>
       <path id="DejaVuSans-6f" d="M 1959 3097 
Q 1497 3097 1228 2736 
Q 959 2375 959 1747 
Q 959 1119 1226 758 
Q 1494 397 1959 397 
Q 2419 397 2687 759 
Q 2956 1122 2956 1747 
Q 2956 2369 2687 2733 
Q 2419 3097 1959 3097 
z
M 1959 3584 
Q 2709 3584 3137 3096 
Q 3566 2609 3566 1747 
Q 3566 888 3137 398 
Q 2709 -91 1959 -91 
Q 1206 -91 779 398 
Q 353 888 353 1747 
Q 353 2609 779 3096 
Q 1206 3584 1959 3584 
z
" transform="scale(0.015625)"/>
       <path id="DejaVuSans-6d" d="M 3328 2828 
Q 3544 3216 3844 3400 
Q 4144 3584 4550 3584 
Q 5097 3584 5394 3201 
Q 5691 2819 5691 2113 
L 5691 0 
L 5113 0 
L 5113 2094 
Q 5113 2597 4934 2840 
Q 4756 3084 4391 3084 
Q 3944 3084 3684 2787 
Q 3425 2491 3425 1978 
L 3425 0 
L 2847 0 
L 2847 2094 
Q 2847 2600 2669 2842 
Q 2491 3084 2119 3084 
Q 1678 3084 1418 2786 
Q 1159 2488 1159 1978 
L 1159 0 
L 581 0 
L 581 3500 
L 1159 3500 
L 1159 2956 
Q 1356 3278 1631 3431 
Q 1906 3584 2284 3584 
Q 2666 3584 2933 3390 
Q 3200 3197 3328 2828 
z
" transform="scale(0.015625)"/>
       <path id="DejaVuSans-20" transform="scale(0.015625)"/>
       <path id="DejaVuSans-52" d="M 2841 2188 
Q 3044 2119 3236 1894 
Q 3428 1669 3622 1275 
L 4263 0 
L 3584 0 
L 2988 1197 
Q 2756 1666 2539 1819 
Q 2322 1972 1947 1972 
L 1259 1972 
L 1259 0 
L 628 0 
L 628 4666 
L 2053 4666 
Q 2853 4666 3247 4331 
Q 3641 3997 3641 3322 
Q 3641 2881 3436 2590 
Q 3231 2300 2841 2188 
z
M 1259 4147 
L 1259 2491 
L 2053 2491 
Q 2509 2491 2742 2702 
Q 2975 2913 2975 3322 
Q 2975 3731 2742 3939 
Q 2509 4147 2053 4147 
L 1259 4147 
z
" transform="scale(0.015625)"/>
       <path id="DejaVuSans-65" d="M 3597 1894 
L 3597 1613 
L 953 1613 
Q 991 1019 1311 708 
Q 1631 397 2203 397 
Q 2534 397 2845 478 
Q 3156 559 3463 722 
L 3463 178 
Q 3153 47 2828 -22 
Q 2503 -91 2169 -91 
Q 1331 -91 842 396 
Q 353 884 353 1716 
Q 353 2575 817 3079 
Q 1281 3584 2069 3584 
Q 2775 3584 3186 3129 
Q 3597 2675 3597 1894 
z
M 3022 2063 
Q 3016 2534 2758 2815 
Q 2500 3097 2075 3097 
Q 1594 3097 1305 2825 
Q 1016 2553 972 2059 
L 3022 2063 
z
" transform="scale(0.015625)"/>
       <path id="DejaVuSans-63" d="M 3122 3366 
L 3122 2828 
Q 2878 2963 2633 3030 
Q 2388 3097 2138 3097 
Q 1578 3097 1268 2742 
Q 959 2388 959 1747 
Q 959 1106 1268 751 
Q 1578 397 2138 397 
Q 2388 397 2633 464 
Q 2878 531 3122 666 
L 3122 134 
Q 2881 22 2623 -34 
Q 2366 -91 2075 -91 
Q 1284 -91 818 406 
Q 353 903 353 1747 
Q 353 2603 823 3093 
Q 1294 3584 2113 3584 
Q 2378 3584 2631 3529 
Q 2884 3475 3122 3366 
z
" transform="scale(0.015625)"/>
       <path id="DejaVuSans-61" d="M 2194 1759 
Q 1497 1759 1228 1600 
Q 959 1441 959 1056 
Q 959 750 1161 570 
Q 1363 391 1709 391 
Q 2188 391 2477 730 
Q 2766 1069 2766 1631 
L 2766 1759 
L 2194 1759 
z
M 3341 1997 
L 3341 0 
L 2766 0 
L 2766 531 
Q 2569 213 2275 61 
Q 1981 -91 1556 -91 
Q 1019 -91 701 211 
Q 384 513 384 1019 
Q 384 1609 779 1909 
Q 1175 2209 1959 2209 
L 2766 2209 
L 2766 2266 
Q 2766 2663 2505 2880 
Q 2244 3097 1772 3097 
Q 1472 3097 1187 3025 
Q 903 2953 641 2809 
L 641 3341 
Q 956 3463 1253 3523 
Q 1550 3584 1831 3584 
Q 2591 3584 2966 3190 
Q 3341 2797 3341 1997 
z
" transform="scale(0.015625)"/>
       <path id="DejaVuSans-6c" d="M 603 4863 
L 1178 4863 
L 1178 0 
L 603 0 
L 603 4863 
z
" transform="scale(0.015625)"/>
      </defs>
      <use xlink:href="#DejaVuSans-41"/>
      <use xlink:href="#DejaVuSans-74" transform="translate(66.658203 0)"/>
      <use xlink:href="#DejaVuSans-6f" transform="translate(105.867188 0)"/>
      <use xlink:href="#DejaVuSans-6d" transform="translate(167.048828 0)"/>
      <use xlink:href="#DejaVuSans-20" transform="translate(264.460938 0)"/>
      <use xlink:href="#DejaVuSans-52" transform="translate(296.248047 0)"/>
      <use xlink:href="#DejaVuSans-65" transform="translate(361.230469 0)"/>
      <use xlink:href="#DejaVuSans-63" transform="translate(422.753906 0)"/>
      <use xlink:href="#DejaVuSans-61" transform="translate(477.734375 0)"/>
      <use xlink:href="#DejaVuSans-6c" transform="translate(539.013672 0)"/>
      <use xlink:href="#DejaVuSans-6c" transform="translate(566.796875 0)"/>
     </g>
    </g>
   </g>
   <g id="matplotlib.axis_2">
    <g id="ytick_1">
     <g id="line2d_13">
      <path d="M 47.72 237.538566 
L 450 237.538566 
" clip-path="url(#p99d38e837f)" style="fill: none; stroke: #b0b0b0; stroke-width: 0.8; stroke-linecap: square"/>
     </g>
     <g id="line2d_14">
      <defs>
       <path id="m3a622691f0" d="M 0 0 
L -3.5 0 
" style="stroke: #000000; stroke-width: 0.8"/>
      </defs>
      <g>
       <use xlink:href="#m3a622691f0" x="47.72" y="237.538566" style="stroke: #000000; stroke-width: 0.8"/>
      </g>
     </g>
     <g id="text_8">
      <!-- 0.3 -->
      <g transform="translate(24.816875 241.337785) scale(0.1 -0.1)">
       <defs>
        <path id="DejaVuSans-33" d="M 2597 2516 
Q 3050 2419 3304 2112 
Q 3559 1806 3559 1356 
Q 3559 666 3084 287 
Q 2609 -91 1734 -91 
Q 1441 -91 1130 -33 
Q 819 25 488 141 
L 488 750 
Q 750 597 1062 519 
Q 1375 441 1716 441 
Q 2309 441 2620 675 
Q 2931 909 2931 1356 
Q 2931 1769 2642 2001 
Q 2353 2234 1838 2234 
L 1294 2234 
L 1294 2753 
L 1863 2753 
Q 2328 2753 2575 2939 
Q 2822 3125 2822 3475 
Q 2822 3834 2567 4026 
Q 2313 4219 1838 4219 
Q 1578 4219 1281 4162 
Q 984 4106 628 3988 
L 628 4550 
Q 988 4650 1302 4700 
Q 1616 4750 1894 4750 
Q 2613 4750 3031 4423 
Q 3450 4097 3450 3541 
Q 3450 3153 3228 2886 
Q 3006 2619 2597 2516 
z
" transform="scale(0.015625)"/>
       </defs>
       <use xlink:href="#DejaVuSans-30"/>
       <use xlink:href="#DejaVuSans-2e" transform="translate(63.623047 0)"/>
       <use xlink:href="#DejaVuSans-33" transform="translate(95.410156 0)"/>
      </g>
     </g>
    </g>
    <g id="ytick_2">
     <g id="line2d_15">
      <path d="M 47.72 207.048901 
L 450 207.048901 
" clip-path="url(#p99d38e837f)" style="fill: none; stroke: #b0b0b0; stroke-width: 0.8; stroke-linecap: square"/>
     </g>
     <g id="line2d_16">
      <g>
       <use xlink:href="#m3a622691f0" x="47.72" y="207.048901" style="stroke: #000000; stroke-width: 0.8"/>
      </g>
     </g>
     <g id="text_9">
      <!-- 0.4 -->
      <g transform="translate(24.816875 210.84812) scale(0.1 -0.1)">
       <defs>
        <path id="DejaVuSans-34" d="M 2419 4116 
L 825 1625 
L 2419 1625 
L 2419 4116 
z
M 2253 4666 
L 3047 4666 
L 3047 1625 
L 3713 1625 
L 3713 1100 
L 3047 1100 
L 3047 0 
L 2419 0 
L 2419 1100 
L 313 1100 
L 313 1709 
L 2253 4666 
z
" transform="scale(0.015625)"/>
       </defs>
       <use xlink:href="#DejaVuSans-30"/>
       <use xlink:href="#DejaVuSans-2e" transform="translate(63.623047 0)"/>
       <use xlink:href="#DejaVuSans-34" transform="translate(95.410156 0)"/>
      </g>
     </g>
    </g>
    <g id="ytick_3">
     <g id="line2d_17">
      <path d="M 47.72 176.559236 
L 450 176.559236 
" clip-path="url(#p99d38e837f)" style="fill: none; stroke: #b0b0b0; stroke-width: 0.8; stroke-linecap: square"/>
     </g>
     <g id="line2d_18">
      <g>
       <use xlink:href="#m3a622691f0" x="47.72" y="176.559236" style="stroke: #000000; stroke-width: 0.8"/>
      </g>
     </g>
     <g id="text_10">
      <!-- 0.5 -->
      <g transform="translate(24.816875 180.358454) scale(0.1 -0.1)">
       <use xlink:href="#DejaVuSans-30"/>
       <use xlink:href="#DejaVuSans-2e" transform="translate(63.623047 0)"/>
       <use xlink:href="#DejaVuSans-35" transform="translate(95.410156 0)"/>
      </g>
     </g>
    </g>
    <g id="ytick_4">
     <g id="line2d_19">
      <path d="M 47.72 146.06957 
L 450 146.06957 
" clip-path="url(#p99d38e837f)" style="fill: none; stroke: #b0b0b0; stroke-width: 0.8; stroke-linecap: square"/>
     </g>
     <g id="line2d_20">
      <g>
       <use xlink:href="#m3a622691f0" x="47.72" y="146.06957" style="stroke: #000000; stroke-width: 0.8"/>
      </g>
     </g>
     <g id="text_11">
      <!-- 0.6 -->
      <g transform="translate(24.816875 149.868789) scale(0.1 -0.1)">
       <use xlink:href="#DejaVuSans-30"/>
       <use xlink:href="#DejaVuSans-2e" transform="translate(63.623047 0)"/>
       <use xlink:href="#DejaVuSans-36" transform="translate(95.410156 0)"/>
      </g>
     </g>
    </g>
    <g id="ytick_5">
     <g id="line2d_21">
      <path d="M 47.72 115.579905 
L 450 115.579905 
" clip-path="url(#p99d38e837f)" style="fill: none; stroke: #b0b0b0; stroke-width: 0.8; stroke-linecap: square"/>
     </g>
     <g id="line2d_22">
      <g>
       <use xlink:href="#m3a622691f0" x="47.72" y="115.579905" style="stroke: #000000; stroke-width: 0.8"/>
      </g>
     </g>
     <g id="text_12">
      <!-- 0.7 -->
      <g transform="translate(24.816875 119.379124) scale(0.1 -0.1)">
       <use xlink:href="#DejaVuSans-30"/>
       <use xlink:href="#DejaVuSans-2e" transform="translate(63.623047 0)"/>
       <use xlink:href="#DejaVuSans-37" transform="translate(95.410156 0)"/>
      </g>
     </g>
    </g>
    <g id="ytick_6">
     <g id="line2d_23">
      <path d="M 47.72 85.09024 
L 450 85.09024 
" clip-path="url(#p99d38e837f)" style="fill: none; stroke: #b0b0b0; stroke-width: 0.8; stroke-linecap: square"/>
     </g>
     <g id="line2d_24">
      <g>
       <use xlink:href="#m3a622691f0" x="47.72" y="85.09024" style="stroke: #000000; stroke-width: 0.8"/>
      </g>
     </g>
     <g id="text_13">
      <!-- 0.8 -->
      <g transform="translate(24.816875 88.889458) scale(0.1 -0.1)">
       <use xlink:href="#DejaVuSans-30"/>
       <use xlink:href="#DejaVuSans-2e" transform="translate(63.623047 0)"/>
       <use xlink:href="#DejaVuSans-38" transform="translate(95.410156 0)"/>
      </g>
     </g>
    </g>
    <g id="ytick_7">
     <g id="line2d_25">
      <path d="M 47.72 54.600574 
L 450 54.600574 
" clip-path="url(#p99d38e837f)" style="fill: none; stroke: #b0b0b0; stroke-width: 0.8; stroke-linecap: square"/>
     </g>
     <g id="line2d_26">
      <g>
       <use xlink:href="#m3a622691f0" x="47.72" y="54.600574" style="stroke: #000000; stroke-width: 0.8"/>
      </g>
     </g>
     <g id="text_14">
      <!-- 0.9 -->
      <g transform="translate(24.816875 58.399793) scale(0.1 -0.1)">
       <use xlink:href="#DejaVuSans-30"/>
       <use xlink:href="#DejaVuSans-2e" transform="translate(63.623047 0)"/>
       <use xlink:href="#DejaVuSans-39" transform="translate(95.410156 0)"/>
      </g>
     </g>
    </g>
    <g id="ytick_8">
     <g id="line2d_27">
      <path d="M 47.72 24.110909 
L 450 24.110909 
" clip-path="url(#p99d38e837f)" style="fill: none; stroke: #b0b0b0; stroke-width: 0.8; stroke-linecap: square"/>
     </g>
     <g id="line2d_28">
      <g>
       <use xlink:href="#m3a622691f0" x="47.72" y="24.110909" style="stroke: #000000; stroke-width: 0.8"/>
      </g>
     </g>
     <g id="text_15">
      <!-- 1.0 -->
      <g transform="translate(24.816875 27.910128) scale(0.1 -0.1)">
       <use xlink:href="#DejaVuSans-31"/>
       <use xlink:href="#DejaVuSans-2e" transform="translate(63.623047 0)"/>
       <use xlink:href="#DejaVuSans-30" transform="translate(95.410156 0)"/>
      </g>
     </g>
    </g>
    <g id="text_16">
     <!-- Atom Precision -->
     <g transform="translate(18.737188 194.33875) rotate(-90) scale(0.1 -0.1)">
      <defs>
       <path id="DejaVuSans-50" d="M 1259 4147 
L 1259 2394 
L 2053 2394 
Q 2494 2394 2734 2622 
Q 2975 2850 2975 3272 
Q 2975 3691 2734 3919 
Q 2494 4147 2053 4147 
L 1259 4147 
z
M 628 4666 
L 2053 4666 
Q 2838 4666 3239 4311 
Q 3641 3956 3641 3272 
Q 3641 2581 3239 2228 
Q 2838 1875 2053 1875 
L 1259 1875 
L 1259 0 
L 628 0 
L 628 4666 
z
" transform="scale(0.015625)"/>
       <path id="DejaVuSans-72" d="M 2631 2963 
Q 2534 3019 2420 3045 
Q 2306 3072 2169 3072 
Q 1681 3072 1420 2755 
Q 1159 2438 1159 1844 
L 1159 0 
L 581 0 
L 581 3500 
L 1159 3500 
L 1159 2956 
Q 1341 3275 1631 3429 
Q 1922 3584 2338 3584 
Q 2397 3584 2469 3576 
Q 2541 3569 2628 3553 
L 2631 2963 
z
" transform="scale(0.015625)"/>
       <path id="DejaVuSans-69" d="M 603 3500 
L 1178 3500 
L 1178 0 
L 603 0 
L 603 3500 
z
M 603 4863 
L 1178 4863 
L 1178 4134 
L 603 4134 
L 603 4863 
z
" transform="scale(0.015625)"/>
       <path id="DejaVuSans-73" d="M 2834 3397 
L 2834 2853 
Q 2591 2978 2328 3040 
Q 2066 3103 1784 3103 
Q 1356 3103 1142 2972 
Q 928 2841 928 2578 
Q 928 2378 1081 2264 
Q 1234 2150 1697 2047 
L 1894 2003 
Q 2506 1872 2764 1633 
Q 3022 1394 3022 966 
Q 3022 478 2636 193 
Q 2250 -91 1575 -91 
Q 1294 -91 989 -36 
Q 684 19 347 128 
L 347 722 
Q 666 556 975 473 
Q 1284 391 1588 391 
Q 1994 391 2212 530 
Q 2431 669 2431 922 
Q 2431 1156 2273 1281 
Q 2116 1406 1581 1522 
L 1381 1569 
Q 847 1681 609 1914 
Q 372 2147 372 2553 
Q 372 3047 722 3315 
Q 1072 3584 1716 3584 
Q 2034 3584 2315 3537 
Q 2597 3491 2834 3397 
z
" transform="scale(0.015625)"/>
       <path id="DejaVuSans-6e" d="M 3513 2113 
L 3513 0 
L 2938 0 
L 2938 2094 
Q 2938 2591 2744 2837 
Q 2550 3084 2163 3084 
Q 1697 3084 1428 2787 
Q 1159 2491 1159 1978 
L 1159 0 
L 581 0 
L 581 3500 
L 1159 3500 
L 1159 2956 
Q 1366 3272 1645 3428 
Q 1925 3584 2291 3584 
Q 2894 3584 3203 3211 
Q 3513 2838 3513 2113 
z
" transform="scale(0.015625)"/>
      </defs>
      <use xlink:href="#DejaVuSans-41"/>
      <use xlink:href="#DejaVuSans-74" transform="translate(66.658203 0)"/>
      <use xlink:href="#DejaVuSans-6f" transform="translate(105.867188 0)"/>
      <use xlink:href="#DejaVuSans-6d" transform="translate(167.048828 0)"/>
      <use xlink:href="#DejaVuSans-20" transform="translate(264.460938 0)"/>
      <use xlink:href="#DejaVuSans-50" transform="translate(296.248047 0)"/>
      <use xlink:href="#DejaVuSans-72" transform="translate(354.800781 0)"/>
      <use xlink:href="#DejaVuSans-65" transform="translate(393.664062 0)"/>
      <use xlink:href="#DejaVuSans-63" transform="translate(455.1875 0)"/>
      <use xlink:href="#DejaVuSans-69" transform="translate(510.167969 0)"/>
      <use xlink:href="#DejaVuSans-73" transform="translate(537.951172 0)"/>
      <use xlink:href="#DejaVuSans-69" transform="translate(590.050781 0)"/>
      <use xlink:href="#DejaVuSans-6f" transform="translate(617.833984 0)"/>
      <use xlink:href="#DejaVuSans-6e" transform="translate(679.015625 0)"/>
     </g>
    </g>
   </g>
   <g id="line2d_29">
    <path d="M 413.429091 290.329091 
L 413.321301 287.450663 
L 413.304718 287.444155 
L 413.304718 287.351829 
L 413.213512 287.052938 
L 413.080848 286.95096 
L 413.080848 286.948657 
L 412.973058 286.694163 
L 412.948184 286.645053 
L 412.948184 286.640112 
L 412.848686 286.20981 
L 412.682856 286.124186 
L 412.682856 286.107205 
L 412.583358 285.978732 
L 412.143908 285.894266 
L 412.119034 285.855545 
L 411.38109 285.590576 
L 411.38109 285.544351 
L 410.850434 285.251786 
L 410.82556 284.257774 
L 410.543649 284.225508 
L 410.543649 284.158409 
L 410.518774 284.15964 
L 410.435859 279.639494 
L 410.427568 279.527613 
L 410.394402 279.063304 
L 410.195406 278.892294 
L 410.095907 277.927164 
L 410.012992 277.821162 
L 410.012992 277.820771 
L 409.921786 277.711545 
L 409.789122 277.509597 
L 409.681332 277.228774 
L 409.648166 277.198752 
L 409.648166 277.121493 
L 409.540377 276.251001 
L 409.523794 276.144205 
L 409.523794 276.140966 
L 409.424296 275.908848 
L 409.39113 275.799731 
L 409.39113 275.799625 
L 409.299923 275.755449 
L 409.192134 275.650724 
L 409.092636 275.443085 
L 409.009721 275.339415 
L 409.009721 275.339199 
L 408.702935 274.848548 
L 408.62002 274.577946 
L 408.578563 274.527781 
L 408.578563 274.46884 
L 408.470773 273.839529 
L 408.387858 273.748596 
L 408.387858 273.733387 
L 408.280069 273.685034 
L 408.222028 273.638989 
L 408.222028 273.578193 
L 408.114239 273.214679 
L 408.072781 273.139297 
L 408.072781 273.107597 
L 407.973283 272.988939 
L 407.865494 272.7843 
L 407.807453 272.723351 
L 407.807453 272.712785 
L 407.699664 272.59287 
L 407.583583 272.497121 
L 407.583583 272.48934 
L 407.500668 272.256327 
L 406.829056 272.112187 
L 406.787599 271.956023 
L 406.530562 271.55751 
L 406.46423 271.29433 
L 406.198902 271.095657 
L 406.165736 271.072355 
L 406.091112 271.076435 
L 405.892116 270.992132 
L 405.784327 270.81102 
L 405.759452 270.728403 
L 405.759452 270.715255 
L 405.676537 270.633712 
L 405.651663 270.634438 
L 405.585331 270.527668 
L 405.477541 270.483513 
L 405.436084 270.412491 
L 405.436084 270.373875 
L 405.336586 270.332018 
L 404.814221 270.25892 
L 404.814221 270.256712 
L 404.80593 270.21489 
L 404.797638 270.215304 
L 404.540602 270.11532 
L 404.524019 270.046621 
L 404.515727 270.046644 
L 404.333314 269.961942 
L 404.333314 269.953015 
L 404.275274 269.869799 
L 404.233816 269.870955 
L 404.067986 269.800421 
L 404.067986 269.79712 
L 404.043112 269.233851 
L 403.935322 263.610868 
L 403.927031 263.611458 
L 403.927031 263.556153 
L 403.819241 262.487407 
L 403.81095 262.488004 
L 403.81095 262.383814 
L 403.70316 261.760605 
L 403.694869 261.761207 
L 403.694869 261.725574 
L 403.603662 261.202367 
L 403.587079 261.203579 
L 403.578788 261.204185 
L 403.578788 261.201759 
L 403.470998 259.374244 
L 403.446124 259.361838 
L 403.446124 259.264981 
L 403.346626 258.897675 
L 403.338334 258.89774 
L 402.990091 258.85909 
L 402.990091 258.856677 
L 402.890593 257.968235 
L 402.87401 257.969489 
L 402.87401 257.859472 
L 402.766221 257.012519 
L 402.70818 256.906286 
L 402.70818 256.905698 
L 402.608682 256.794825 
L 402.600391 256.795459 
L 402.525767 256.724931 
L 402.525767 256.689812 
L 402.417978 256.551712 
L 402.368229 256.503569 
L 402.368229 256.466837 
L 402.277022 256.14379 
L 402.260439 256.144666 
L 402.202398 256.058421 
L 402.094609 255.347006 
L 402.069734 255.336229 
L 402.069734 255.322288 
L 401.970236 254.889628 
L 401.696617 254.814148 
L 401.696617 254.806035 
L 401.60541 254.654707 
L 401.373248 254.562808 
L 401.373248 254.562389 
L 401.27375 254.384095 
L 401.240584 254.386484 
L 401.240584 254.383536 
L 401.132795 254.050827 
L 400.966965 254.033046 
L 400.966965 253.964094 
L 400.867467 253.786585 
L 400.842592 253.788546 
L 400.842592 253.703902 
L 400.734803 253.311721 
L 400.651888 253.27729 
L 400.560681 252.993475 
L 400.544098 252.994354 
L 400.229021 252.90837 
L 400.229021 252.907931 
L 400.121232 252.842979 
L 400.038317 252.745751 
L 400.038317 252.742227 
L 399.930527 252.443621 
L 399.806155 252.372204 
L 399.806155 252.371982 
L 399.706657 252.151873 
L 399.524244 252.058691 
L 399.524244 252.0551 
L 399.433037 245.565583 
L 399.416454 245.565928 
L 399.408163 245.566101 
L 399.408163 245.563726 
L 399.308665 235.223395 
L 399.292082 235.224896 
L 399.292082 235.122748 
L 399.28379 234.371637 
L 398.927256 234.378953 
L 398.927256 234.340555 
L 398.819466 230.6255 
L 398.811175 230.62627 
L 398.811175 230.514882 
L 398.703385 229.715669 
L 398.670219 229.608291 
L 398.695094 229.60709 
L 398.670219 229.607541 
L 398.628762 227.858689 
L 398.554138 227.865728 
L 398.554138 227.760794 
L 398.45464 223.372796 
L 398.3966 223.308457 
L 398.3966 223.299974 
L 398.28881 222.423282 
L 398.272227 222.329916 
L 398.164437 221.354015 
L 398.147854 221.349466 
L 398.147854 221.244173 
L 398.114688 220.221256 
L 397.923984 220.239892 
L 397.923984 220.163893 
L 397.816194 219.461499 
L 397.799611 219.439869 
L 397.799611 219.354511 
L 397.691822 217.893922 
L 397.559158 217.816401 
L 397.559158 217.795723 
L 397.45966 217.419254 
L 397.434785 217.351147 
L 397.376745 216.28326 
L 397.29383 216.282317 
L 397.29383 216.275553 
L 397.210915 215.338615 
L 397.119708 215.255273 
L 397.119708 215.237555 
L 397.02021 214.368548 
L 396.812923 214.30626 
L 396.705133 213.313323 
L 396.597344 213.246177 
L 396.597344 213.21404 
L 396.497846 212.218878 
L 396.199352 212.016488 
L 396.099854 210.363169 
L 395.975481 210.236793 
L 395.842817 210.139482 
L 395.759902 207.661818 
L 395.643821 207.577129 
L 395.610655 207.356477 
L 395.403368 207.271605 
L 395.403368 207.26652 
L 395.386785 206.957828 
L 395.254121 206.971441 
L 395.245829 206.879097 
L 395.13804 206.642854 
L 395.088291 206.59484 
L 395.088291 206.536522 
L 394.980501 206.145309 
L 394.798088 206.032092 
L 394.690299 204.537577 
L 394.632258 204.492714 
L 394.632258 204.432929 
L 394.53276 204.154145 
L 394.424971 204.067653 
L 394.424971 204.054542 
L 394.333764 202.592059 
L 394.308889 202.477395 
L 394.267432 202.410761 
L 394.134768 202.406192 
L 394.134768 202.398235 
L 393.968938 201.934979 
L 393.794816 201.468345 
L 393.70361 199.401872 
L 393.604112 199.327512 
L 393.604112 199.310157 
L 393.554363 199.176364 
L 393.512905 199.178775 
L 393.214411 199.118514 
L 393.214411 199.098512 
L 393.114913 198.239766 
L 393.065164 198.140275 
L 393.065164 198.135035 
L 393.065164 198.093098 
L 392.899334 198.037726 
L 392.899334 198.00097 
L 392.791545 197.65285 
L 392.774962 197.611671 
L 392.774962 197.545581 
L 392.667172 196.849598 
L 392.650589 196.84934 
L 392.650589 196.819256 
L 392.609132 196.403705 
L 392.451593 196.311893 
L 392.451593 196.309197 
L 392.418427 196.164242 
L 392.277472 196.146008 
L 392.277472 196.068239 
L 392.169682 195.94483 
L 392.144808 195.916261 
L 392.078476 195.379757 
L 392.061893 195.380142 
L 392.003852 194.048345 
L 391.920937 193.639355 
L 391.871188 193.571587 
L 391.871188 193.538552 
L 391.796565 192.989483 
L 391.71365 192.962125 
L 391.71365 192.932332 
L 391.639026 192.717815 
L 391.448322 192.638346 
L 391.448322 192.630504 
L 391.398573 192.447317 
L 391.083496 192.39211 
L 391.083496 192.363472 
L 390.992289 192.105548 
L 390.983998 192.10643 
L 390.94254 192.100776 
L 390.94254 192.001483 
L 390.851334 191.54664 
L 390.834751 191.547682 
L 390.760127 191.523725 
L 390.760127 191.515022 
L 390.652338 190.647615 
L 390.619172 190.615145 
L 390.619172 190.543812 
L 390.511382 190.481694 
L 390.494799 190.481254 
L 390.494799 190.372155 
L 390.403593 190.302168 
L 390.353843 190.271278 
L 390.270928 188.768203 
L 390.11339 188.66337 
L 390.071932 187.108295 
L 389.823187 187.109425 
L 389.823187 187.023504 
L 389.715398 186.741681 
L 389.425195 186.363331 
L 389.408612 186.217906 
L 389.251074 186.220705 
L 389.251074 186.216785 
L 389.134993 185.9496 
L 389.052078 183.720265 
L 389.002329 183.719934 
L 389.002329 183.614305 
L 388.911122 183.276086 
L 388.737001 183.205719 
L 388.737001 183.187721 
L 388.670669 183.047437 
L 388.554588 182.979547 
L 388.554588 182.95492 
L 388.463381 182.806935 
L 388.330717 182.820403 
L 388.330717 182.723248 
L 388.231219 182.427663 
L 388.140013 182.335659 
L 388.140013 182.328202 
L 388.040515 182.112378 
L 388.032223 182.113272 
L 388.023932 182.114166 
L 388.023932 182.06927 
L 387.932725 181.672977 
L 387.708855 181.626849 
L 387.708855 181.586661 
L 387.484984 181.43054 
L 387.393778 180.615582 
L 387.344029 180.520712 
L 387.29428 180.265503 
L 387.111867 180.198145 
L 387.111867 180.175936 
L 387.004077 179.995969 
L 386.970911 179.90785 
L 386.970911 179.888123 
L 386.863122 179.638547 
L 386.829956 179.543075 
L 386.829956 179.531006 
L 386.722166 179.249842 
L 386.697292 179.180664 
L 386.614377 178.821421 
L 386.423672 178.79067 
L 386.423672 178.730537 
L 386.332465 178.194399 
L 386.315882 178.195315 
L 386.266133 178.165562 
L 386.266133 178.094362 
L 386.224676 177.793949 
L 386.108595 177.806513 
L 386.108595 177.704901 
L 386.009097 177.512038 
L 385.926182 177.507716 
L 385.926182 177.505942 
L 385.91789 177.284831 
L 385.727186 177.223621 
L 385.727186 177.195126 
L 385.710603 177.009659 
L 385.677437 177.011466 
L 385.503315 176.951719 
L 385.503315 176.917748 
L 385.4204 176.2396 
L 385.279445 175.768814 
L 385.179947 175.48301 
L 385.155072 175.466562 
L 385.146781 175.377143 
L 385.080449 175.239054 
L 384.980951 174.793952 
L 384.524918 174.539207 
L 384.417129 174.241786 
L 384.234716 174.193853 
L 384.234716 174.153004 
L 384.126926 174.008531 
L 384.002554 174.00714 
L 384.002554 173.910286 
L 383.894764 173.429329 
L 383.845015 173.309901 
L 383.737226 173.19187 
L 383.554813 173.1034 
L 383.554813 173.100573 
L 383.447023 172.763819 
L 383.388983 172.670681 
L 383.388983 172.658361 
L 383.281193 172.388061 
L 383.272902 172.388962 
L 383.26461 172.283252 
L 383.165112 172.040275 
L 383.082197 171.968011 
L 383.082197 171.952704 
L 382.974408 171.653796 
L 382.891493 171.558991 
L 382.891493 171.555143 
L 382.850035 171.39306 
L 382.808578 171.397564 
L 382.750537 171.346976 
L 382.750537 171.292937 
L 382.651039 171.107545 
L 382.60129 171.014181 
L 382.60129 171.008367 
L 382.493501 170.558455 
L 382.136966 170.510406 
L 382.136966 170.480152 
L 382.029176 170.218076 
L 381.846763 170.098691 
L 381.821889 169.968816 
L 381.573144 169.890623 
L 381.465354 169.793023 
L 381.258067 169.511433 
L 381.150277 169.301235 
L 381.075654 169.258738 
L 381.075654 169.209086 
L 380.984447 168.932404 
L 380.818617 168.839707 
L 380.710828 168.615481 
L 380.4455 168.536141 
L 380.4455 168.533133 
L 380.33771 168.356136 
L 380.329419 168.357038 
L 380.329419 168.313809 
L 380.329419 168.208152 
L 380.130423 168.128046 
L 379.923135 167.849598 
L 379.807054 167.765024 
L 379.807054 167.751851 
L 379.699265 167.402003 
L 379.599767 167.294664 
L 379.533435 167.217226 
L 379.409062 167.230767 
L 379.409062 167.119451 
L 379.400771 167.060037 
L 379.268107 167.074482 
L 379.268107 166.967025 
L 379.160317 166.604104 
L 379.01107 166.491647 
L 378.936447 166.33989 
L 378.903281 166.343501 
L 378.812074 166.252182 
L 378.812074 166.244945 
L 378.720868 166.130713 
L 378.571621 166.004979 
L 378.463831 165.864089 
L 378.198503 165.827489 
L 378.198503 165.78171 
L 378.190211 165.765961 
L 377.651264 165.725744 
L 377.651264 165.713236 
L 377.651264 165.635018 
L 377.642972 165.635922 
L 377.443976 165.643009 
L 377.435685 165.546799 
L 377.344478 165.280433 
L 377.336187 165.281337 
L 377.128899 165.130767 
L 377.070859 164.726314 
L 377.037693 164.726761 
L 376.954778 164.616388 
L 376.846988 163.944255 
L 376.772365 163.865966 
L 376.772365 163.854223 
L 376.697741 163.470672 
L 376.299749 163.403465 
L 376.299749 163.402391 
L 376.19196 163.022195 
L 376.034421 162.945404 
L 376.034421 162.938921 
L 375.926632 162.534654 
L 375.8603 162.475601 
L 375.8603 162.466905 
L 375.8603 162.389688 
L 375.512057 162.347064 
L 375.512057 162.340529 
L 375.36281 161.958253 
L 375.263312 161.873814 
L 375.263312 161.858472 
L 375.188688 161.784362 
L 375.180397 161.785266 
L 375.039441 161.691941 
L 375.039441 161.689743 
L 374.931652 161.58936 
L 374.890194 161.559769 
L 374.890194 161.4827 
L 374.848737 161.287607 
L 374.102501 161.259539 
L 374.102501 161.257327 
L 373.920088 160.730309 
L 373.804007 160.695088 
L 373.804007 160.651646 
L 373.754258 160.550036 
L 373.629886 160.497742 
L 373.629886 160.451953 
L 373.605011 160.426731 
L 372.850485 160.047287 
L 372.742695 159.850887 
L 372.717821 159.831065 
L 372.717821 159.773576 
L 372.651489 159.547066 
L 372.444201 159.37041 
L 372.344703 158.96653 
L 371.979877 158.700465 
L 371.449221 158.09261 
L 371.341432 157.918636 
L 371.308266 157.810162 
L 371.308266 157.809006 
L 371.233642 157.612219 
L 371.217059 157.614025 
L 371.10927 157.530662 
L 371.067812 157.369076 
L 370.686403 157.166088 
L 370.644946 156.584408 
L 370.346451 156.528785 
L 370.346451 156.522909 
L 370.246953 156.363134 
L 370.188913 156.27282 
L 370.188913 156.269283 
L 370.081123 156.161836 
L 369.940168 156.070836 
L 369.890419 155.923602 
L 369.716297 155.851299 
L 369.716297 155.838256 
L 369.608508 155.20008 
L 368.978354 155.067622 
L 368.887147 154.871292 
L 368.787649 154.788415 
L 368.67986 154.631708 
L 368.580362 154.536487 
L 368.580362 154.534075 
L 368.580362 154.503927 
L 368.472572 154.505994 
L 368.124329 154.261107 
L 368.01654 154.042557 
L 367.966791 154.007908 
L 367.966791 153.937461 
L 367.90875 153.734521 
L 367.593673 153.526024 
L 367.485884 153.132485 
L 367.262013 153.086817 
L 367.262013 153.045048 
L 367.154224 152.777373 
L 367.0796 152.688035 
L 367.0796 152.675693 
L 366.971811 152.21711 
L 366.91377 152.122834 
L 366.91377 152.114137 
L 366.706483 151.952536 
L 366.598693 151.517347 
L 366.407988 151.475416 
L 366.407988 151.432826 
L 366.341656 151.259401 
L 366.233867 151.247219 
L 366.233867 151.16052 
L 366.126077 150.824544 
L 365.91879 150.751012 
L 365.91879 150.744694 
L 365.835875 150.563927 
L 365.75296 150.462663 
L 365.553964 150.129738 
L 365.512506 150.134222 
L 365.512506 150.12913 
L 365.288636 149.593964 
L 365.288636 149.526038 
L 365.155972 149.482659 
L 365.155972 149.477527 
L 364.716522 149.121202 
L 364.534109 149.090626 
L 363.961996 148.740038 
L 363.895664 148.621416 
L 363.804457 148.406482 
L 363.787874 148.406971 
L 363.605461 148.31862 
L 363.605461 148.316015 
L 363.514255 148.075403 
L 363.447923 147.960993 
L 363.423048 147.941437 
L 363.340133 147.945152 
L 363.124554 147.824365 
L 363.09968 147.718197 
L 362.93385 147.583737 
L 362.809477 147.424784 
L 362.253946 145.698219 
L 362.104699 145.566367 
L 362.005201 145.432965 
L 361.88912 145.201165 
L 361.847663 145.171826 
L 361.748165 145.060757 
L 361.690124 144.793128 
L 361.358464 144.760798 
L 361.358464 144.754003 
L 361.358464 144.658824 
L 360.827808 144.106939 
L 360.744893 143.721896 
L 360.487857 143.327529 
L 360.454691 143.159563 
L 360.39665 143.164386 
L 360.17278 142.854047 
L 359.982075 142.768761 
L 359.982075 142.763196 
L 359.874286 142.483463 
L 359.783079 142.403834 
L 359.774788 142.299876 
L 359.244132 142.003366 
L 358.953929 141.827685 
L 358.829557 141.840964 
L 358.821265 141.730587 
L 358.788099 141.619908 
L 358.779808 141.499371 
L 358.166236 141.477206 
L 358.166236 141.455987 
L 358.166236 141.441839 
L 357.992115 141.354242 
L 357.992115 141.341491 
L 357.975532 141.313503 
L 357.585831 140.906119 
L 357.486333 140.797013 
L 357.428293 140.719022 
L 357.428293 140.691897 
L 357.41171 140.637962 
L 357.204422 140.382465 
L 357.096633 140.171562 
L 357.030301 140.109649 
L 357.030301 140.106774 
L 356.97226 139.979161 
L 356.615726 139.717159 
L 356.524519 139.615576 
L 356.41673 139.187826 
L 356.284066 139.107429 
L 356.284066 139.094339 
L 356.176276 138.839206 
L 356.159693 138.840966 
L 356.159693 138.817623 
L 355.935823 138.515414 
L 355.828033 137.164122 
L 355.81145 137.161416 
L 355.81145 137.054405 
L 355.711952 136.734188 
L 355.430041 136.654905 
L 355.430041 136.653411 
L 355.31396 136.493661 
L 355.231045 136.080835 
L 355.164713 135.953907 
L 355.065215 135.756364 
L 354.998883 135.69843 
L 354.998883 135.669736 
L 354.833053 135.507247 
L 354.725263 135.418636 
L 354.617474 135.352662 
L 354.617474 135.320815 
L 354.509684 135.210715 
L 354.194607 134.163942 
L 353.854656 133.802395 
L 353.7137 133.70292 
L 353.605911 133.248226 
L 353.348874 133.166357 
L 353.315708 133.001879 
L 353.249376 132.703274 
L 353.116712 132.531123 
L 353.042089 131.744146 
L 352.901133 131.610418 
L 352.793344 131.552077 
L 352.743595 131.536686 
L 352.743595 131.446527 
L 352.693846 131.248918 
L 352.677263 131.249051 
L 352.32902 130.881472 
L 352.22123 130.785869 
L 352.080275 130.709534 
L 352.080275 130.688785 
L 351.989068 130.631156 
L 351.989068 130.59441 
L 351.964194 130.448261 
L 351.823238 130.265782 
L 351.715449 130.013561 
L 351.690574 129.995222 
L 351.690574 129.909944 
L 351.624242 129.752458 
L 351.591076 129.752652 
L 351.309165 129.61225 
L 350.911173 129.292332 
L 350.173229 129.155668 
L 350.173229 128.743542 
L 350.090314 128.752071 
L 350.007399 128.649533 
L 350.007399 128.621747 
L 349.990816 128.623452 
L 349.858152 128.628921 
L 349.858152 128.597852 
L 349.758654 128.147442 
L 349.684031 128.046597 
L 349.684031 128.044952 
L 349.576241 127.739673 
L 349.29433 127.659583 
L 349.29433 127.657931 
L 349.219707 127.483662 
L 349.203124 127.48536 
L 348.805132 127.352144 
L 348.780257 127.304924 
L 348.771966 127.305773 
L 348.490055 127.228378 
L 348.490055 127.225056 
L 348.398848 126.973214 
L 348.382265 126.974911 
L 348.349099 126.86997 
L 348.349099 126.866635 
L 348.24131 126.799244 
L 347.843318 126.689593 
L 347.660905 126.569378 
L 347.553115 126.463123 
L 347.279496 126.422324 
L 347.279496 126.393801 
L 347.171706 126.324229 
L 346.97271 126.250454 
L 347.163415 126.237702 
L 346.97271 126.235321 
L 346.864921 125.713548 
L 346.267932 125.716905 
L 346.267932 125.664442 
L 346.160143 125.337991 
L 346.052353 125.264001 
L 346.052353 125.258901 
L 345.97773 125.016266 
L 345.770442 124.904308 
L 345.662653 124.609283 
L 345.430491 124.535217 
L 345.430491 124.530076 
L 345.405616 124.436577 
L 345.14858 124.315003 
L 345.04079 124.040299 
L 344.941292 124.000396 
L 344.941292 123.974532 
L 344.933001 123.899466 
L 344.841794 123.903525 
L 344.767171 123.829929 
L 344.767171 123.800559 
L 344.659381 123.609101 
L 344.5433 123.535967 
L 344.5433 123.50997 
L 344.460385 123.351811 
L 344.402345 123.350731 
L 344.203349 122.551394 
L 344.04581 122.481439 
L 344.04581 122.460412 
L 343.938021 122.007557 
L 343.830231 121.916222 
L 343.830231 121.90741 
L 343.722442 121.490827 
L 343.664401 121.463009 
L 343.664401 121.397483 
L 343.598069 121.3421 
L 343.349324 121.258803 
L 343.349324 121.253479 
L 343.266409 120.957825 
L 343.067413 120.797751 
L 343.059122 120.696876 
L 342.860126 120.613144 
L 342.860126 120.611357 
L 342.768919 120.192437 
L 342.603089 120.110197 
L 342.412384 119.071028 
L 342.130473 119.008149 
L 342.130473 118.988163 
L 342.022684 118.492435 
L 341.898311 118.400577 
L 341.898311 118.393265 
L 341.815396 118.212983 
L 341.740773 117.954442 
L 341.674441 117.922407 
L 341.632983 117.926488 
L 341.574943 117.878919 
L 341.574943 117.8348 
L 341.574943 117.777787 
L 341.566651 117.778602 
L 341.309615 117.781817 
L 341.309615 117.702654 
L 341.201825 117.431086 
L 341.185242 117.429022 
L 341.185242 117.364363 
L 341.094036 117.229075 
L 341.085744 117.229889 
L 340.911623 117.169219 
L 340.911623 117.135876 
L 340.878457 117.026052 
L 340.770667 116.713388 
L 340.72921 116.620653 
L 340.72921 116.611341 
L 340.646295 116.447965 
L 340.380967 116.285291 
L 340.28976 116.24746 
L 340.223428 116.246459 
L 340.223428 116.145417 
L 340.115639 115.994814 
L 340.016141 115.871306 
L 339.941517 115.504298 
L 339.924934 115.505911 
L 339.875185 115.491907 
L 339.875185 115.46175 
L 339.866894 115.373921 
L 339.850311 115.375533 
L 339.535234 115.15301 
L 339.452319 114.749798 
L 339.104076 114.675235 
L 338.996286 114.518232 
L 338.880205 114.426582 
L 338.880205 114.420863 
L 338.788998 114.32669 
L 338.772415 114.328294 
L 338.6895 114.261859 
L 338.6895 114.229389 
L 338.656334 113.609926 
L 338.565128 113.595647 
L 338.507087 113.131233 
L 338.283217 113.069678 
L 338.283217 113.042624 
L 338.175427 112.907912 
L 338.051055 112.888869 
L 338.051055 112.813334 
L 337.943265 112.412112 
L 337.711103 112.340905 
L 337.711103 112.282481 
L 337.686229 112.284858 
L 337.553565 112.256621 
L 337.445775 111.817706 
L 337.371152 111.80916 
L 337.36286 111.721825 
L 337.255071 110.963302 
L 336.740998 110.90542 
L 336.740998 110.901468 
L 336.649791 110.848845 
L 336.558585 110.770462 
L 336.558585 110.758588 
L 336.459087 110.476698 
L 336.318131 110.370892 
L 336.318131 110.368906 
L 336.226925 110.238356 
L 335.994763 110.160759 
L 335.994763 110.154785 
L 335.911848 110.080922 
L 335.687977 110.102061 
L 335.687977 109.996351 
L 335.580188 109.754786 
L 335.547022 109.685878 
L 335.547022 109.671866 
L 335.48069 109.519847 
L 335.406066 109.526869 
L 335.397775 109.41933 
L 335.289985 109.363214 
L 335.265111 109.321361 
L 335.265111 109.28921 
L 335.157321 108.87646 
L 335.074406 108.791376 
L 335.074406 108.7732 
L 334.966617 108.573026 
L 334.891993 108.486869 
L 334.891993 108.468637 
L 334.792495 108.378617 
L 334.792495 108.372533 
L 334.684705 108.220234 
L 334.626665 108.168763 
L 334.626665 108.144373 
L 334.54375 107.875301 
L 334.286713 107.310657 
L 334.178924 107.127855 
L 334.145758 107.065216 
L 334.145758 107.046727 
L 333.988219 106.738261 
L 333.971636 106.739793 
L 333.971636 106.62846 
L 333.888721 106.307634 
L 333.863847 106.309925 
L 333.830681 106.226046 
L 333.830681 106.207408 
L 333.366357 106.063556 
L 333.283442 105.954908 
L 332.968365 105.87786 
L 332.968365 105.8737 
L 332.860575 105.648306 
L 332.827409 105.595052 
L 332.827409 105.549159 
L 332.761077 105.455041 
L 332.727911 105.458081 
L 332.678162 105.366525 
L 332.570373 105.2195 
L 332.520624 105.173796 
L 332.520624 105.171702 
L 332.429417 105.003956 
L 332.321628 104.608135 
L 332.296753 104.589341 
L 332.188964 104.441075 
L 332.0563 104.35607 
L 332.0563 104.343401 
L 331.94851 103.997874 
L 331.882178 103.931839 
L 331.882178 103.895795 
L 331.774389 103.614652 
L 331.426146 103.548291 
L 331.426146 103.546162 
L 331.326648 103.288749 
L 331.301773 103.290994 
L 331.301773 103.179978 
L 331.218858 102.902998 
L 331.102777 102.829891 
L 331.086194 102.702713 
L 330.887198 102.681966 
L 330.887198 102.611101 
L 330.7877 102.510424 
L 330.729659 102.39084 
L 330.62187 102.007985 
L 330.605287 101.944635 
L 330.605287 101.916529 
L 330.51408 101.58901 
L 330.505789 101.589749 
L 330.414582 101.491549 
L 330.414582 101.489378 
L 330.373125 101.436607 
L 329.693222 101.277461 
L 329.585432 100.776333 
L 329.535683 100.655984 
L 329.427894 100.441917 
L 329.35327 100.404614 
L 329.35327 100.398028 
L 329.245481 99.594461 
L 329.220606 99.532496 
L 329.220606 99.492662 
L 329.212315 99.444684 
L 328.607035 99.395814 
L 328.607035 99.386945 
L 328.499246 99.161078 
L 328.46608 99.106185 
L 328.109545 98.544259 
L 327.976881 98.437256 
L 327.976881 98.435017 
L 327.885675 98.212179 
L 327.852509 98.210574 
L 327.852509 98.105108 
L 327.786177 97.820883 
L 327.645221 97.727239 
L 327.645221 97.722733 
L 327.545723 97.571243 
L 327.413059 97.533047 
L 327.413059 97.530789 
L 327.313561 97.288488 
L 327.19748 97.203409 
L 327.19748 97.196614 
L 327.089691 96.908781 
L 327.073108 96.910206 
L 327.073108 96.905664 
L 326.990192 96.510078 
L 326.86582 96.463727 
L 326.86582 96.411264 
L 326.832654 96.247426 
L 326.766322 96.250807 
L 326.360038 96.212358 
L 326.360038 96.180332 
L 326.285415 95.987481 
L 326.078127 95.844588 
L 325.995212 95.601161 
L 325.688427 95.429177 
L 325.580637 95.131328 
L 325.439682 95.034567 
L 325.340184 94.358382 
L 325.331892 94.359079 
L 325.298726 94.315305 
L 325.298726 94.25242 
L 325.190937 94.039917 
L 325.141188 93.962352 
L 325.141188 93.945998 
L 325.04169 93.408641 
L 324.991941 93.325893 
L 324.991941 93.314146 
L 324.925609 93.183307 
L 324.10475 93.228043 
L 324.10475 93.192721 
L 324.030127 92.882893 
L 323.905754 92.791607 
L 323.905754 92.784515 
L 323.831131 92.504283 
L 323.814548 92.505654 
L 323.499471 92.089946 
L 323.391681 91.874918 
L 323.375098 91.85482 
L 323.267309 91.555623 
L 323.043438 91.495017 
L 323.043438 91.468689 
L 322.94394 91.182019 
L 322.819567 91.043273 
L 322.728361 90.754734 
L 322.67032 90.65339 
L 322.67032 90.648566 
L 322.562531 90.265952 
L 322.545948 90.240671 
L 322.545948 90.23341 
L 322.537656 90.008756 
L 322.529365 90.009425 
L 322.239162 89.974604 
L 322.239162 89.923627 
L 322.131373 89.496874 
L 322.065041 89.451004 
L 322.065041 89.394911 
L 321.957251 89.169118 
L 321.899211 89.093063 
L 321.899211 89.063705 
L 321.857753 88.880911 
L 321.194433 88.924027 
L 321.194433 88.852888 
L 321.086644 88.692042 
L 321.078352 88.692702 
L 321.078352 88.687787 
L 320.970563 86.56887 
L 320.904231 86.518976 
L 320.904231 86.4639 
L 320.796441 86.311893 
L 317.106723 86.528727 
L 317.106723 86.493475 
L 316.998934 86.012304 
L 316.658982 85.932438 
L 316.559484 84.026189 
L 316.236116 83.978671 
L 316.236116 83.947774 
L 316.136618 83.764602 
L 316.128326 83.765229 
L 312.455191 83.948662 
L 312.455191 83.94089 
L 312.347402 83.562463 
L 312.330819 83.553325 
L 312.330819 83.511729 
L 312.247904 83.255098 
L 312.164989 83.198806 
L 312.164989 83.15447 
L 312.065491 82.9505 
L 312.057199 82.951125 
L 312.032325 82.913794 
L 312.032325 82.843193 
L 311.990867 82.610672 
L 311.924535 82.61565 
L 311.899661 82.523126 
L 311.899661 82.507387 
L 311.791871 81.984359 
L 311.45192 81.920031 
L 311.45192 81.898927 
L 311.352422 81.650139 
L 311.34413 81.650754 
L 311.302673 81.534791 
L 311.228049 81.211684 
L 311.111968 81.127318 
L 311.111968 81.114037 
L 311.103676 80.872679 
L 307.331044 81.028108 
L 307.331044 81.022759 
L 307.223254 80.636934 
L 307.14863 80.578012 
L 307.14863 80.569957 
L 307.040841 80.163671 
L 306.957926 80.083488 
L 306.957926 80.080792 
L 306.875011 79.954651 
L 306.858428 79.955862 
L 306.767221 79.900411 
L 306.767221 79.865292 
L 306.659432 79.412936 
L 306.5931 79.32549 
L 306.5931 79.306488 
L 306.48531 78.835524 
L 306.327772 78.754138 
L 306.228274 78.597486 
L 305.98782 78.52726 
L 305.98782 78.505383 
L 305.880031 78.321496 
L 305.548371 78.235542 
L 305.448873 78.091693 
L 305.241585 77.996544 
L 305.166962 77.723851 
L 305.150379 77.725027 
L 303.890071 77.709649 
L 303.890071 77.704126 
L 303.881779 77.610782 
L 303.856905 77.612547 
L 303.682783 77.53088 
L 303.682783 77.51428 
L 303.574994 77.380719 
L 303.541828 77.366442 
L 303.541828 77.33319 
L 303.44233 76.734546 
L 303.301374 76.649683 
L 303.293083 76.549872 
L 302.961422 76.464175 
L 302.861924 76.18867 
L 302.853633 76.189247 
L 302.662928 76.118478 
L 302.23177 75.893091 
L 302.190313 75.862249 
L 302.123981 75.866845 
L 301.651365 75.882745 
L 301.651365 75.79273 
L 301.585033 75.704423 
L 301.170458 75.654206 
L 301.170458 75.63729 
L 301.062669 75.345479 
L 301.054377 75.34605 
L 301.054377 75.235763 
L 301.054377 75.181999 
L 300.996337 75.185986 
L 300.830507 75.089757 
L 300.830507 75.086924 
L 300.731009 75.059741 
L 300.648094 74.969011 
L 300.648094 74.963337 
L 300.548596 74.768542 
L 300.40764 74.692874 
L 300.40764 74.667274 
L 300.391057 74.637108 
L 300.3496 74.639934 
L 300.117438 74.65292 
L 300.117438 74.544711 
L 300.117438 74.524768 
L 300.084272 74.527025 
L 299.802361 74.546226 
L 299.802361 74.457838 
L 299.736029 74.279664 
L 296.1541 74.354582 
L 296.1541 74.33448 
L 296.145809 74.197117 
L 296.137517 74.197682 
L 295.043039 74.168723 
L 295.043039 74.165842 
L 294.835751 73.998321 
L 294.727962 73.867054 
L 294.611881 73.791118 
L 294.611881 73.788227 
L 291.029952 73.84373 
L 290.930454 73.638099 
L 290.922163 73.638663 
L 290.897288 73.614142 
L 290.897288 73.532548 
L 290.806082 73.381228 
L 290.350049 73.309936 
L 290.350049 73.301167 
L 290.258843 73.149402 
L 290.175928 73.058381 
L 290.175928 73.043733 
L 290.084721 72.856372 
L 290.07643 72.85693 
L 289.993515 72.771508 
L 289.993515 72.753886 
L 289.9106 72.459492 
L 289.695021 72.36491 
L 289.63698 72.348154 
L 289.529191 72.249166 
L 289.512608 72.16171 
L 288.161093 72.166132 
L 288.161093 72.142453 
L 288.069887 71.899625 
L 287.249028 71.909727 
L 287.249028 71.900817 
L 283.625642 72.012007 
L 283.625642 71.949297 
L 283.551019 71.727074 
L 282.597496 71.688954 
L 282.597496 71.676961 
L 282.556038 71.574741 
L 281.494726 71.61562 
L 281.494726 71.585563 
L 281.420103 71.120715 
L 281.395228 71.122365 
L 281.370354 71.057614 
L 281.370354 71.018361 
L 281.262564 70.847179 
L 281.163066 70.778108 
L 281.163066 70.747838 
L 281.113317 70.636023 
L 280.947487 70.537785 
L 280.839698 70.031153 
L 280.566078 69.957548 
L 280.566078 69.939253 
L 280.491455 69.84038 
L 280.483163 69.840919 
L 280.30075 69.76421 
L 280.30075 69.74588 
L 280.192961 69.47145 
L 280.043714 69.395299 
L 280.043714 69.370778 
L 280.027131 69.353452 
L 279.073608 69.304426 
L 278.965818 69.194575 
L 278.841446 69.119514 
L 278.841446 69.113359 
L 278.824863 68.978934 
L 278.816571 68.979466 
L 278.567826 68.88751 
L 278.567826 68.884425 
L 278.518077 68.631329 
L 278.418579 68.637672 
L 278.418579 68.606756 
L 278.343956 68.168582 
L 278.078628 68.16984 
L 277.282644 67.587985 
L 277.282644 67.569252 
L 277.274352 67.569771 
L 277.017316 67.520258 
L 277.017316 67.476499 
L 276.909526 67.380023 
L 276.851486 67.305392 
L 276.851486 67.289736 
L 276.760279 67.113649 
L 276.511534 67.041235 
L 276.412036 66.811729 
L 276.403745 66.812241 
L 276.022336 66.725636 
L 275.914546 66.54632 
L 275.815048 66.476708 
L 275.815048 66.451454 
L 275.781882 66.169037 
L 275.483388 66.098617 
L 275.483388 66.079611 
L 269.422301 66.38229 
L 269.422301 66.356743 
L 269.314511 66.155639 
L 269.165264 66.004765 
L 269.098932 65.835722 
L 268.982851 65.736917 
L 268.875062 65.463809 
L 268.427321 65.429899 
L 268.427321 65.407345 
L 268.385863 65.27123 
L 268.36928 65.272237 
L 267.556713 65.227957 
L 267.556713 65.218262 
L 267.523547 63.614018 
L 267.482089 63.616453 
L 267.299676 63.564982 
L 267.299676 63.164977 
L 263.593375 63.381804 
L 263.593375 63.309202 
L 263.51046 62.821257 
L 263.485586 62.822703 
L 262.424274 62.871214 
L 262.424274 62.857939 
L 261.785828 62.639168 
L 261.68633 62.51174 
L 261.503917 62.418956 
L 261.412711 62.254007 
L 261.404419 62.254484 
L 261.29663 62.227287 
L 261.280047 62.134654 
L 259.96999 62.106206 
L 259.96999 62.099502 
L 259.961698 62.063101 
L 258.543851 61.835391 
L 258.444353 61.760254 
L 258.286815 61.728828 
L 258.286815 61.708599 
L 258.237066 61.583252 
L 257.250377 61.036711 
L 251.645322 61.276984 
L 251.537533 61.142765 
L 251.446326 61.134269 
L 249.854358 60.912561 
L 249.796318 60.481422 
L 249.788026 60.481889 
L 249.4232 60.083739 
L 249.307119 60.06943 
L 249.307119 60.048625 
L 249.215913 59.549901 
L 249.108123 59.454848 
L 249.108123 59.451364 
L 249.041791 59.420168 
L 248.278973 59.441281 
L 248.278973 59.434302 
L 248.220933 59.203459 
L 247.963896 59.217562 
L 247.963896 59.203571 
L 247.7649 58.628932 
L 247.640527 58.530184 
L 247.640527 58.526667 
L 247.640527 58.523149 
L 247.217661 58.440361 
L 247.15962 58.087243 
L 247.109871 58.0899 
L 246.919167 58.050621 
L 246.886001 57.825998 
L 246.869418 57.826878 
L 246.562632 57.843173 
L 246.562632 57.736873 
L 246.562632 57.712057 
L 246.247555 57.64005 
L 246.247555 57.629402 
L 244.746794 57.352786 
L 244.738502 57.331823 
L 243.386987 56.690065 
L 243.287489 55.884426 
L 243.270906 55.885267 
L 243.23774 55.554008 
L 241.795019 55.00075 
L 241.770145 54.395154 
L 241.761853 54.395558 
L 241.222906 54.330149 
L 239.680686 53.523755 
L 239.630937 53.492813 
L 237.740475 53.479123 
L 237.740475 53.475408 
L 237.690726 53.26957 
L 237.665852 53.270751 
L 237.59952 53.173385 
L 237.59952 53.165936 
L 237.59952 53.065343 
L 236.463584 53.119019 
L 236.463584 53.04807 
L 236.463584 52.790105 
L 236.43871 52.79127 
L 233.337688 52.850844 
L 233.337688 52.828272 
L 233.23819 52.829204 
L 233.229899 52.795724 
L 232.798741 52.770862 
L 232.798741 52.733181 
L 232.690951 52.08086 
L 232.649494 52.082773 
L 232.649494 52.063835 
L 232.51683 51.644976 
L 232.467081 51.582615 
L 232.467081 51.578812 
L 232.359291 51.206695 
L 232.234919 51.10544 
L 232.234919 51.101623 
L 232.143712 51.075157 
L 231.513558 51.023054 
L 231.513558 51.003932 
L 231.405768 50.153043 
L 231.065817 50.121569 
L 231.065817 50.117717 
L 230.999485 49.784996 
L 230.966319 49.786417 
L 229.946464 49.803094 
L 229.846966 49.415994 
L 229.706011 49.336552 
L 229.706011 49.317133 
L 229.672845 49.221391 
L 228.992942 49.179973 
L 228.992942 49.17608 
L 228.885152 48.989688 
L 228.76078 48.897355 
L 228.661282 48.717932 
L 228.65299 48.718275 
L 228.636407 48.68769 
L 228.545201 48.284247 
L 228.42912 48.194817 
L 228.42912 48.179118 
L 228.32133 48.046028 
L 228.130626 48.022281 
L 228.039419 47.249203 
L 228.022836 47.249852 
L 226.480617 47.199387 
L 226.472325 47.179877 
L 224.615029 47.145382 
L 224.606738 47.137744 
L 224.556989 47.139696 
L 224.291661 47.138159 
L 224.291661 47.13019 
L 224.266786 46.416099 
L 223.877085 46.418944 
L 223.819045 45.439788 
L 223.769296 45.44161 
L 223.429344 45.344985 
L 223.421053 45.268475 
L 223.246931 45.27481 
L 223.246931 45.262674 
L 223.139142 44.300371 
L 223.064518 44.2826 
L 223.064518 44.254074 
L 223.064518 43.457132 
L 223.056227 43.45741 
L 222.649943 43.438213 
L 222.583611 43.037828 
L 222.57532 43.0381 
L 222.46753 42.930498 
L 222.376324 42.574711 
L 221.198931 42.504984 
L 221.165765 42.340343 
L 221.14089 42.341134 
L 220.41953 42.32259 
L 220.41953 42.318439 
L 220.31174 41.810248 
L 220.112744 41.733023 
L 220.112744 41.707996 
L 220.062995 41.651113 
L 220.046412 41.651622 
L 219.018266 41.578715 
L 218.910476 41.502495 
L 218.728063 41.428474 
L 218.661731 40.133906 
L 218.620274 40.135079 
L 218.454444 40.093233 
L 218.454444 40.050912 
L 218.454444 40.021279 
L 218.354946 40.024077 
L 217.766249 39.930406 
L 217.691626 39.085816 
L 216.986848 39.066119 
L 216.986848 39.010555 
L 216.879059 38.872243 
L 216.870767 38.872461 
L 216.762978 38.188751 
L 215.552418 38.111427 
L 215.444629 38.058035 
L 214.764726 37.971289 
L 214.764726 37.966965 
L 214.764726 37.962642 
L 214.590604 37.897745 
L 214.590604 37.880435 
L 214.482815 37.709852 
L 214.267236 37.615369 
L 214.184321 37.443721 
L 214.159446 37.444317 
L 213.719997 37.346126 
L 213.678539 37.26442 
L 209.847866 37.355732 
L 209.847866 37.346967 
L 209.847866 37.224201 
L 209.740076 37.226765 
L 209.342084 37.139622 
L 209.342084 37.126442 
L 209.342084 37.117654 
L 209.333793 37.11785 
L 207.973986 37.039893 
L 207.965695 36.819543 
L 207.957403 36.819735 
L 207.435039 36.593057 
L 207.169711 36.585822 
L 207.169711 36.581394 
L 207.070213 36.157865 
L 207.061921 36.158047 
L 206.979006 36.066552 
L 206.979006 36.048769 
L 206.920966 35.867623 
L 206.11669 35.791316 
L 206.11669 35.782393 
L 206.11669 35.755623 
L 204.881257 35.701568 
L 204.79005 35.631895 
L 204.773467 35.632247 
L 204.649095 35.527365 
L 204.549597 35.448751 
L 204.275977 35.445496 
L 204.275977 35.184999 
L 203.936025 34.962371 
L 200.188267 34.988146 
L 200.188267 34.929155 
L 200.188267 34.915538 
L 200.146809 34.916372 
L 199.135246 34.936758 
L 199.093789 34.600657 
L 198.737254 34.603084 
L 198.737254 34.507261 
L 198.695797 34.466978 
L 198.687505 34.467138 
L 198.529967 34.438214 
L 198.529967 34.365101 
L 198.140266 34.162031 
L 197.170161 34.12067 
L 197.170161 34.11608 
L 197.020914 34.02702 
L 196.913124 33.697777 
L 195.412362 33.618655 
L 195.412362 33.614033 
L 195.412362 33.609411 
L 195.362613 33.610302 
L 194.948038 33.497415 
L 187.054529 33.545553 
L 187.046238 33.508093 
L 185.669849 33.476402 
L 185.603517 33.222696 
L 185.586934 33.222987 
L 184.053006 33.140975 
L 184.053006 33.122007 
L 183.970091 33.123451 
L 183.837427 33.016607 
L 183.729637 32.642843 
L 183.008277 32.597566 
L 182.999985 32.335169 
L 178.33187 32.299514 
L 178.33187 32.29469 
L 175.960501 32.226275 
L 175.861003 32.193912 
L 175.695173 32.094612 
L 175.670298 32.061005 
L 175.653715 32.061265 
L 174.327075 31.97495 
L 174.318784 31.955583 
L 174.260743 31.956484 
L 172.378572 31.887937 
L 172.378572 31.878145 
L 172.320532 31.41313 
L 172.270783 31.413853 
L 170.753438 31.337408 
L 170.753438 31.327547 
L 170.662232 31.195653 
L 170.645649 31.195888 
L 169.120013 31.113558 
L 169.095138 31.079222 
L 167.428546 31.008102 
L 167.428546 30.998152 
L 167.39538 30.958801 
L 167.370506 30.959144 
L 166.367234 30.878225 
L 166.284319 30.834431 
L 164.965971 30.747223 
L 164.965971 30.742214 
L 164.883056 30.733307 
L 164.858181 30.733641 
L 163.340836 30.708824 
L 163.299379 30.548405 
L 163.241338 30.549165 
L 160.745597 30.475741 
L 160.737305 30.455597 
L 158.647847 30.376016 
L 158.647847 30.36075 
L 158.631264 30.360963 
L 157.478745 30.273753 
L 157.354373 30.244696 
L 155.521951 30.16028 
L 155.455619 30.099539 
L 155.414161 30.100053 
L 154.336266 30.020837 
L 154.311392 29.97996 
L 154.228477 29.98097 
L 152.487261 29.893714 
L 152.396055 29.874122 
L 152.379472 29.874322 
L 146.492506 29.846446 
L 146.152555 29.640677 
L 107.580492 29.99492 
L 107.580492 29.954922 
L 107.480994 29.956262 
L 54.025687 30.576136 
L 54.025687 30.569626 
L 54.025687 30.556604 
L 52.748795 30.467235 
L 52.649297 30.161242 
L 52.641006 30.161374 
L 50.0126 30.098122 
L 50.0126 30.078314 
L 49.904811 30.080028 
L 49.233199 30.017927 
L 49.233199 29.852333 
L 49.191741 29.85297 
L 46.696 29.784734 
L 46.696 29.778057 
L 46.596502 29.779575 
L 45.717602 29.685874 
L 45.717602 29.679175 
L 45.684436 29.679673 
L 43.885181 29.599104 
L 43.885181 29.538461 
L 43.860306 29.538827 
L 42.135674 29.544042 
L 40.303252 29.476025 
L 40.253503 29.135839 
L 37.359769 29.072846 
L 37.351478 29.017871 
L 37.260271 29.019111 
L 33.147687 28.964146 
L 33.147687 28.957174 
L 33.097938 28.95785 
L -1 29.354558 
L -1 29.354558 
" clip-path="url(#p99d38e837f)" style="fill: none; stroke: #800080; stroke-width: 1.5; stroke-linecap: square"/>
   </g>
   <g id="line2d_30">
    <path d="M 96.403548 24.263348 
L 217.981828 124.656686 
L 305.050881 178.595963 
L 355.47979 207.514983 
L 391.199577 227.370591 
" clip-path="url(#p99d38e837f)" style="fill: none; stroke-dasharray: 5.55,2.4; stroke-dashoffset: 0; stroke: #000000; stroke-width: 1.5"/>
    <defs>
     <path id="mfe4bfc0204" d="M -3 3 
L 3 -3 
M -3 -3 
L 3 3 
" style="stroke: #000000"/>
    </defs>
    <g clip-path="url(#p99d38e837f)">
     <use xlink:href="#mfe4bfc0204" x="96.403548" y="24.263348" style="stroke: #000000"/>
     <use xlink:href="#mfe4bfc0204" x="217.981828" y="124.656686" style="stroke: #000000"/>
     <use xlink:href="#mfe4bfc0204" x="305.050881" y="178.595963" style="stroke: #000000"/>
     <use xlink:href="#mfe4bfc0204" x="355.47979" y="207.514983" style="stroke: #000000"/>
     <use xlink:href="#mfe4bfc0204" x="391.199577" y="227.370591" style="stroke: #000000"/>
    </g>
   </g>
   <g id="patch_3">
    <path d="M 47.72 303.64 
L 47.72 10.8 
" style="fill: none; stroke: #000000; stroke-width: 0.8; stroke-linejoin: miter; stroke-linecap: square"/>
   </g>
   <g id="patch_4">
    <path d="M 450 303.64 
L 450 10.8 
" style="fill: none; stroke: #000000; stroke-width: 0.8; stroke-linejoin: miter; stroke-linecap: square"/>
   </g>
   <g id="patch_5">
    <path d="M 47.72 303.64 
L 450 303.64 
" style="fill: none; stroke: #000000; stroke-width: 0.8; stroke-linejoin: miter; stroke-linecap: square"/>
   </g>
   <g id="patch_6">
    <path d="M 47.72 10.8 
L 450 10.8 
" style="fill: none; stroke: #000000; stroke-width: 0.8; stroke-linejoin: miter; stroke-linecap: square"/>
   </g>
   <g id="text_17">
    <!-- R=0 -->
    <g transform="translate(72.543861 32.62163) scale(0.11 -0.11)">
     <defs>
      <path id="DejaVuSans-3d" d="M 678 2906 
L 4684 2906 
L 4684 2381 
L 678 2381 
L 678 2906 
z
M 678 1631 
L 4684 1631 
L 4684 1100 
L 678 1100 
L 678 1631 
z
" transform="scale(0.015625)"/>
     </defs>
     <use xlink:href="#DejaVuSans-52"/>
     <use xlink:href="#DejaVuSans-3d" transform="translate(69.482422 0)"/>
     <use xlink:href="#DejaVuSans-30" transform="translate(153.271484 0)"/>
    </g>
   </g>
   <g id="text_18">
    <!-- R=1 -->
    <g transform="translate(194.122141 133.014968) scale(0.11 -0.11)">
     <use xlink:href="#DejaVuSans-52"/>
     <use xlink:href="#DejaVuSans-3d" transform="translate(69.482422 0)"/>
     <use xlink:href="#DejaVuSans-31" transform="translate(153.271484 0)"/>
    </g>
   </g>
   <g id="text_19">
    <!-- R=2 -->
    <g transform="translate(281.191193 186.954245) scale(0.11 -0.11)">
     <defs>
      <path id="DejaVuSans-32" d="M 1228 531 
L 3431 531 
L 3431 0 
L 469 0 
L 469 531 
Q 828 903 1448 1529 
Q 2069 2156 2228 2338 
Q 2531 2678 2651 2914 
Q 2772 3150 2772 3378 
Q 2772 3750 2511 3984 
Q 2250 4219 1831 4219 
Q 1534 4219 1204 4116 
Q 875 4013 500 3803 
L 500 4441 
Q 881 4594 1212 4672 
Q 1544 4750 1819 4750 
Q 2544 4750 2975 4387 
Q 3406 4025 3406 3419 
Q 3406 3131 3298 2873 
Q 3191 2616 2906 2266 
Q 2828 2175 2409 1742 
Q 1991 1309 1228 531 
z
" transform="scale(0.015625)"/>
     </defs>
     <use xlink:href="#DejaVuSans-52"/>
     <use xlink:href="#DejaVuSans-3d" transform="translate(69.482422 0)"/>
     <use xlink:href="#DejaVuSans-32" transform="translate(153.271484 0)"/>
    </g>
   </g>
   <g id="text_20">
    <!-- R=3 -->
    <g transform="translate(331.620103 215.873265) scale(0.11 -0.11)">
     <use xlink:href="#DejaVuSans-52"/>
     <use xlink:href="#DejaVuSans-3d" transform="translate(69.482422 0)"/>
     <use xlink:href="#DejaVuSans-33" transform="translate(153.271484 0)"/>
    </g>
   </g>
   <g id="text_21">
    <!-- R=4 -->
    <g transform="translate(367.339889 235.728872) scale(0.11 -0.11)">
     <use xlink:href="#DejaVuSans-52"/>
     <use xlink:href="#DejaVuSans-3d" transform="translate(69.482422 0)"/>
     <use xlink:href="#DejaVuSans-34" transform="translate(153.271484 0)"/>
    </g>
   </g>
   <g id="legend_1">
    <g id="patch_7">
     <path d="M 54.72 298.64 
L 121.835625 298.64 
Q 123.835625 298.64 123.835625 296.64 
L 123.835625 268.28375 
Q 123.835625 266.28375 121.835625 266.28375 
L 54.72 266.28375 
Q 52.72 266.28375 52.72 268.28375 
L 52.72 296.64 
Q 52.72 298.64 54.72 298.64 
z
" style="fill: #ffffff; opacity: 0.8; stroke: #cccccc; stroke-linejoin: miter"/>
    </g>
    <g id="line2d_31">
     <path d="M 56.72 274.382187 
L 66.72 274.382187 
L 76.72 274.382187 
" style="fill: none; stroke: #800080; stroke-width: 1.5; stroke-linecap: square"/>
    </g>
    <g id="text_22">
     <!-- GNN -->
     <g transform="translate(84.72 277.882187) scale(0.1 -0.1)">
      <defs>
       <path id="DejaVuSans-47" d="M 3809 666 
L 3809 1919 
L 2778 1919 
L 2778 2438 
L 4434 2438 
L 4434 434 
Q 4069 175 3628 42 
Q 3188 -91 2688 -91 
Q 1594 -91 976 548 
Q 359 1188 359 2328 
Q 359 3472 976 4111 
Q 1594 4750 2688 4750 
Q 3144 4750 3555 4637 
Q 3966 4525 4313 4306 
L 4313 3634 
Q 3963 3931 3569 4081 
Q 3175 4231 2741 4231 
Q 1884 4231 1454 3753 
Q 1025 3275 1025 2328 
Q 1025 1384 1454 906 
Q 1884 428 2741 428 
Q 3075 428 3337 486 
Q 3600 544 3809 666 
z
" transform="scale(0.015625)"/>
       <path id="DejaVuSans-4e" d="M 628 4666 
L 1478 4666 
L 3547 763 
L 3547 4666 
L 4159 4666 
L 4159 0 
L 3309 0 
L 1241 3903 
L 1241 0 
L 628 0 
L 628 4666 
z
" transform="scale(0.015625)"/>
      </defs>
      <use xlink:href="#DejaVuSans-47"/>
      <use xlink:href="#DejaVuSans-4e" transform="translate(77.490234 0)"/>
      <use xlink:href="#DejaVuSans-4e" transform="translate(152.294922 0)"/>
     </g>
    </g>
    <g id="line2d_32">
     <path d="M 56.72 289.060312 
L 66.72 289.060312 
L 76.72 289.060312 
" style="fill: none; stroke-dasharray: 5.55,2.4; stroke-dashoffset: 0; stroke: #000000; stroke-width: 1.5"/>
     <g>
      <use xlink:href="#mfe4bfc0204" x="66.72" y="289.060312" style="stroke: #000000"/>
     </g>
    </g>
    <g id="text_23">
     <!-- RC + R -->
     <g transform="translate(84.72 292.560312) scale(0.1 -0.1)">
      <defs>
       <path id="DejaVuSans-43" d="M 4122 4306 
L 4122 3641 
Q 3803 3938 3442 4084 
Q 3081 4231 2675 4231 
Q 1875 4231 1450 3742 
Q 1025 3253 1025 2328 
Q 1025 1406 1450 917 
Q 1875 428 2675 428 
Q 3081 428 3442 575 
Q 3803 722 4122 1019 
L 4122 359 
Q 3791 134 3420 21 
Q 3050 -91 2638 -91 
Q 1578 -91 968 557 
Q 359 1206 359 2328 
Q 359 3453 968 4101 
Q 1578 4750 2638 4750 
Q 3056 4750 3426 4639 
Q 3797 4528 4122 4306 
z
" transform="scale(0.015625)"/>
       <path id="DejaVuSans-2b" d="M 2944 4013 
L 2944 2272 
L 4684 2272 
L 4684 1741 
L 2944 1741 
L 2944 0 
L 2419 0 
L 2419 1741 
L 678 1741 
L 678 2272 
L 2419 2272 
L 2419 4013 
L 2944 4013 
z
" transform="scale(0.015625)"/>
      </defs>
      <use xlink:href="#DejaVuSans-52"/>
      <use xlink:href="#DejaVuSans-43" transform="translate(64.482422 0)"/>
      <use xlink:href="#DejaVuSans-20" transform="translate(134.306641 0)"/>
      <use xlink:href="#DejaVuSans-2b" transform="translate(166.09375 0)"/>
      <use xlink:href="#DejaVuSans-20" transform="translate(249.882812 0)"/>
      <use xlink:href="#DejaVuSans-52" transform="translate(281.669922 0)"/>
     </g>
    </g>
   </g>
  </g>
 </g>
 <defs>
  <clipPath id="p99d38e837f">
   <rect x="47.72" y="10.8" width="402.28" height="292.84"/>
  </clipPath>
 </defs>
</svg>
