<?xml version="1.0" encoding="utf-8" standalone="no"?>
<!DOCTYPE svg PUBLIC "-//W3C//DTD SVG 1.1//EN"
  "http://www.w3.org/Graphics/SVG/1.1/DTD/svg11.dtd">
<svg xmlns:xlink="http://www.w3.org/1999/xlink" width="576pt" height="576pt" viewBox="0 0 576 576" xmlns="http://www.w3.org/2000/svg" version="1.1">
 <metadata>
  <rdf:RDF xmlns:dc="http://purl.org/dc/elements/1.1/" xmlns:cc="http://creativecommons.org/ns#" xmlns:rdf="http://www.w3.org/1999/02/22-rdf-syntax-ns#">
   <cc:Work>
    <dc:type rdf:resource="http://purl.org/dc/dcmitype/StillImage"/>
    <dc:date>2026-01-12T14:37:20.714547</dc:date>
    <dc:format>image/svg+xml</dc:format>
    <dc:creator>
     <cc:Agent>
      <dc:title>Matplotlib v3.10.1, https://matplotlib.org/</dc:title>
     </cc:Agent>
    </dc:creator>
   </cc:Work>
  </rdf:RDF>
 </metadata>
 <defs>
  <style type="text/css">*{stroke-linejoin: round; stroke-linecap: butt}</style>
 </defs>
 <g id="figure_1">
  <g id="patch_1">
   <path d="M 0 576 
L 576 576 
L 576 0 
L 0 0 
z
" style="fill: #ffffff"/>
  </g>
  <g id="axes_1">
   <g id="patch_2">
    <path d="M 72 512.64 
L 518.4 512.64 
L 518.4 69.12 
L 72 69.12 
z
" style="fill: #ffffff"/>
   </g>
   <g id="matplotlib.axis_1">
    <g id="xtick_1">
     <g id="line2d_1">
      <defs>
       <path id="m15a9161c6a" d="M 0 0 
L 0 3.5 
" style="stroke: #000000; stroke-width: 0.8"/>
      </defs>
      <g>
       <use xlink:href="#m15a9161c6a" x="91.730387" y="512.64" style="stroke: #000000; stroke-width: 0.8"/>
      </g>
     </g>
     <g id="text_1">
      <!-- 0 -->
      <g transform="translate(87.276637 530.277812) scale(0.14 -0.14)">
       <defs>
        <path id="DejaVuSans-30" d="M 2034 4250 
Q 1547 4250 1301 3770 
Q 1056 3291 1056 2328 
Q 1056 1369 1301 889 
Q 1547 409 2034 409 
Q 2525 409 2770 889 
Q 3016 1369 3016 2328 
Q 3016 3291 2770 3770 
Q 2525 4250 2034 4250 
z
M 2034 4750 
Q 2819 4750 3233 4129 
Q 3647 3509 3647 2328 
Q 3647 1150 3233 529 
Q 2819 -91 2034 -91 
Q 1250 -91 836 529 
Q 422 1150 422 2328 
Q 422 3509 836 4129 
Q 1250 4750 2034 4750 
z
" transform="scale(0.015625)"/>
       </defs>
       <use xlink:href="#DejaVuSans-30"/>
      </g>
     </g>
    </g>
    <g id="xtick_2">
     <g id="line2d_2">
      <g>
       <use xlink:href="#m15a9161c6a" x="147.782622" y="512.64" style="stroke: #000000; stroke-width: 0.8"/>
      </g>
     </g>
     <g id="text_2">
      <!-- 100 -->
      <g transform="translate(134.421372 530.277812) scale(0.14 -0.14)">
       <defs>
        <path id="DejaVuSans-31" d="M 794 531 
L 1825 531 
L 1825 4091 
L 703 3866 
L 703 4441 
L 1819 4666 
L 2450 4666 
L 2450 531 
L 3481 531 
L 3481 0 
L 794 0 
L 794 531 
z
" transform="scale(0.015625)"/>
       </defs>
       <use xlink:href="#DejaVuSans-31"/>
       <use xlink:href="#DejaVuSans-30" transform="translate(63.623047 0)"/>
       <use xlink:href="#DejaVuSans-30" transform="translate(127.246094 0)"/>
      </g>
     </g>
    </g>
    <g id="xtick_3">
     <g id="line2d_3">
      <g>
       <use xlink:href="#m15a9161c6a" x="203.834857" y="512.64" style="stroke: #000000; stroke-width: 0.8"/>
      </g>
     </g>
     <g id="text_3">
      <!-- 200 -->
      <g transform="translate(190.473607 530.277812) scale(0.14 -0.14)">
       <defs>
        <path id="DejaVuSans-32" d="M 1228 531 
L 3431 531 
L 3431 0 
L 469 0 
L 469 531 
Q 828 903 1448 1529 
Q 2069 2156 2228 2338 
Q 2531 2678 2651 2914 
Q 2772 3150 2772 3378 
Q 2772 3750 2511 3984 
Q 2250 4219 1831 4219 
Q 1534 4219 1204 4116 
Q 875 4013 500 3803 
L 500 4441 
Q 881 4594 1212 4672 
Q 1544 4750 1819 4750 
Q 2544 4750 2975 4387 
Q 3406 4025 3406 3419 
Q 3406 3131 3298 2873 
Q 3191 2616 2906 2266 
Q 2828 2175 2409 1742 
Q 1991 1309 1228 531 
z
" transform="scale(0.015625)"/>
       </defs>
       <use xlink:href="#DejaVuSans-32"/>
       <use xlink:href="#DejaVuSans-30" transform="translate(63.623047 0)"/>
       <use xlink:href="#DejaVuSans-30" transform="translate(127.246094 0)"/>
      </g>
     </g>
    </g>
    <g id="xtick_4">
     <g id="line2d_4">
      <g>
       <use xlink:href="#m15a9161c6a" x="259.887092" y="512.64" style="stroke: #000000; stroke-width: 0.8"/>
      </g>
     </g>
     <g id="text_4">
      <!-- 300 -->
      <g transform="translate(246.525842 530.277812) scale(0.14 -0.14)">
       <defs>
        <path id="DejaVuSans-33" d="M 2597 2516 
Q 3050 2419 3304 2112 
Q 3559 1806 3559 1356 
Q 3559 666 3084 287 
Q 2609 -91 1734 -91 
Q 1441 -91 1130 -33 
Q 819 25 488 141 
L 488 750 
Q 750 597 1062 519 
Q 1375 441 1716 441 
Q 2309 441 2620 675 
Q 2931 909 2931 1356 
Q 2931 1769 2642 2001 
Q 2353 2234 1838 2234 
L 1294 2234 
L 1294 2753 
L 1863 2753 
Q 2328 2753 2575 2939 
Q 2822 3125 2822 3475 
Q 2822 3834 2567 4026 
Q 2313 4219 1838 4219 
Q 1578 4219 1281 4162 
Q 984 4106 628 3988 
L 628 4550 
Q 988 4650 1302 4700 
Q 1616 4750 1894 4750 
Q 2613 4750 3031 4423 
Q 3450 4097 3450 3541 
Q 3450 3153 3228 2886 
Q 3006 2619 2597 2516 
z
" transform="scale(0.015625)"/>
       </defs>
       <use xlink:href="#DejaVuSans-33"/>
       <use xlink:href="#DejaVuSans-30" transform="translate(63.623047 0)"/>
       <use xlink:href="#DejaVuSans-30" transform="translate(127.246094 0)"/>
      </g>
     </g>
    </g>
    <g id="xtick_5">
     <g id="line2d_5">
      <g>
       <use xlink:href="#m15a9161c6a" x="315.939327" y="512.64" style="stroke: #000000; stroke-width: 0.8"/>
      </g>
     </g>
     <g id="text_5">
      <!-- 400 -->
      <g transform="translate(302.578077 530.277812) scale(0.14 -0.14)">
       <defs>
        <path id="DejaVuSans-34" d="M 2419 4116 
L 825 1625 
L 2419 1625 
L 2419 4116 
z
M 2253 4666 
L 3047 4666 
L 3047 1625 
L 3713 1625 
L 3713 1100 
L 3047 1100 
L 3047 0 
L 2419 0 
L 2419 1100 
L 313 1100 
L 313 1709 
L 2253 4666 
z
" transform="scale(0.015625)"/>
       </defs>
       <use xlink:href="#DejaVuSans-34"/>
       <use xlink:href="#DejaVuSans-30" transform="translate(63.623047 0)"/>
       <use xlink:href="#DejaVuSans-30" transform="translate(127.246094 0)"/>
      </g>
     </g>
    </g>
    <g id="xtick_6">
     <g id="line2d_6">
      <g>
       <use xlink:href="#m15a9161c6a" x="371.991562" y="512.64" style="stroke: #000000; stroke-width: 0.8"/>
      </g>
     </g>
     <g id="text_6">
      <!-- 500 -->
      <g transform="translate(358.630312 530.277812) scale(0.14 -0.14)">
       <defs>
        <path id="DejaVuSans-35" d="M 691 4666 
L 3169 4666 
L 3169 4134 
L 1269 4134 
L 1269 2991 
Q 1406 3038 1543 3061 
Q 1681 3084 1819 3084 
Q 2600 3084 3056 2656 
Q 3513 2228 3513 1497 
Q 3513 744 3044 326 
Q 2575 -91 1722 -91 
Q 1428 -91 1123 -41 
Q 819 9 494 109 
L 494 744 
Q 775 591 1075 516 
Q 1375 441 1709 441 
Q 2250 441 2565 725 
Q 2881 1009 2881 1497 
Q 2881 1984 2565 2268 
Q 2250 2553 1709 2553 
Q 1456 2553 1204 2497 
Q 953 2441 691 2322 
L 691 4666 
z
" transform="scale(0.015625)"/>
       </defs>
       <use xlink:href="#DejaVuSans-35"/>
       <use xlink:href="#DejaVuSans-30" transform="translate(63.623047 0)"/>
       <use xlink:href="#DejaVuSans-30" transform="translate(127.246094 0)"/>
      </g>
     </g>
    </g>
    <g id="xtick_7">
     <g id="line2d_7">
      <g>
       <use xlink:href="#m15a9161c6a" x="428.043797" y="512.64" style="stroke: #000000; stroke-width: 0.8"/>
      </g>
     </g>
     <g id="text_7">
      <!-- 600 -->
      <g transform="translate(414.682547 530.277812) scale(0.14 -0.14)">
       <defs>
        <path id="DejaVuSans-36" d="M 2113 2584 
Q 1688 2584 1439 2293 
Q 1191 2003 1191 1497 
Q 1191 994 1439 701 
Q 1688 409 2113 409 
Q 2538 409 2786 701 
Q 3034 994 3034 1497 
Q 3034 2003 2786 2293 
Q 2538 2584 2113 2584 
z
M 3366 4563 
L 3366 3988 
Q 3128 4100 2886 4159 
Q 2644 4219 2406 4219 
Q 1781 4219 1451 3797 
Q 1122 3375 1075 2522 
Q 1259 2794 1537 2939 
Q 1816 3084 2150 3084 
Q 2853 3084 3261 2657 
Q 3669 2231 3669 1497 
Q 3669 778 3244 343 
Q 2819 -91 2113 -91 
Q 1303 -91 875 529 
Q 447 1150 447 2328 
Q 447 3434 972 4092 
Q 1497 4750 2381 4750 
Q 2619 4750 2861 4703 
Q 3103 4656 3366 4563 
z
" transform="scale(0.015625)"/>
       </defs>
       <use xlink:href="#DejaVuSans-36"/>
       <use xlink:href="#DejaVuSans-30" transform="translate(63.623047 0)"/>
       <use xlink:href="#DejaVuSans-30" transform="translate(127.246094 0)"/>
      </g>
     </g>
    </g>
    <g id="xtick_8">
     <g id="line2d_8">
      <g>
       <use xlink:href="#m15a9161c6a" x="484.096032" y="512.64" style="stroke: #000000; stroke-width: 0.8"/>
      </g>
     </g>
     <g id="text_8">
      <!-- 700 -->
      <g transform="translate(470.734782 530.277812) scale(0.14 -0.14)">
       <defs>
        <path id="DejaVuSans-37" d="M 525 4666 
L 3525 4666 
L 3525 4397 
L 1831 0 
L 1172 0 
L 2766 4134 
L 525 4134 
L 525 4666 
z
" transform="scale(0.015625)"/>
       </defs>
       <use xlink:href="#DejaVuSans-37"/>
       <use xlink:href="#DejaVuSans-30" transform="translate(63.623047 0)"/>
       <use xlink:href="#DejaVuSans-30" transform="translate(127.246094 0)"/>
      </g>
     </g>
    </g>
    <g id="text_9">
     <!-- # reactions recapitulated by template -->
     <g transform="translate(161.563437 547.827188) scale(0.14 -0.14)">
      <defs>
       <path id="DejaVuSans-23" d="M 3272 2816 
L 2363 2816 
L 2100 1772 
L 3016 1772 
L 3272 2816 
z
M 2803 4594 
L 2478 3297 
L 3391 3297 
L 3719 4594 
L 4219 4594 
L 3897 3297 
L 4872 3297 
L 4872 2816 
L 3775 2816 
L 3519 1772 
L 4513 1772 
L 4513 1294 
L 3397 1294 
L 3072 0 
L 2572 0 
L 2894 1294 
L 1978 1294 
L 1656 0 
L 1153 0 
L 1478 1294 
L 494 1294 
L 494 1772 
L 1594 1772 
L 1856 2816 
L 850 2816 
L 850 3297 
L 1978 3297 
L 2297 4594 
L 2803 4594 
z
" transform="scale(0.015625)"/>
       <path id="DejaVuSans-20" transform="scale(0.015625)"/>
       <path id="DejaVuSans-72" d="M 2631 2963 
Q 2534 3019 2420 3045 
Q 2306 3072 2169 3072 
Q 1681 3072 1420 2755 
Q 1159 2438 1159 1844 
L 1159 0 
L 581 0 
L 581 3500 
L 1159 3500 
L 1159 2956 
Q 1341 3275 1631 3429 
Q 1922 3584 2338 3584 
Q 2397 3584 2469 3576 
Q 2541 3569 2628 3553 
L 2631 2963 
z
" transform="scale(0.015625)"/>
       <path id="DejaVuSans-65" d="M 3597 1894 
L 3597 1613 
L 953 1613 
Q 991 1019 1311 708 
Q 1631 397 2203 397 
Q 2534 397 2845 478 
Q 3156 559 3463 722 
L 3463 178 
Q 3153 47 2828 -22 
Q 2503 -91 2169 -91 
Q 1331 -91 842 396 
Q 353 884 353 1716 
Q 353 2575 817 3079 
Q 1281 3584 2069 3584 
Q 2775 3584 3186 3129 
Q 3597 2675 3597 1894 
z
M 3022 2063 
Q 3016 2534 2758 2815 
Q 2500 3097 2075 3097 
Q 1594 3097 1305 2825 
Q 1016 2553 972 2059 
L 3022 2063 
z
" transform="scale(0.015625)"/>
       <path id="DejaVuSans-61" d="M 2194 1759 
Q 1497 1759 1228 1600 
Q 959 1441 959 1056 
Q 959 750 1161 570 
Q 1363 391 1709 391 
Q 2188 391 2477 730 
Q 2766 1069 2766 1631 
L 2766 1759 
L 2194 1759 
z
M 3341 1997 
L 3341 0 
L 2766 0 
L 2766 531 
Q 2569 213 2275 61 
Q 1981 -91 1556 -91 
Q 1019 -91 701 211 
Q 384 513 384 1019 
Q 384 1609 779 1909 
Q 1175 2209 1959 2209 
L 2766 2209 
L 2766 2266 
Q 2766 2663 2505 2880 
Q 2244 3097 1772 3097 
Q 1472 3097 1187 3025 
Q 903 2953 641 2809 
L 641 3341 
Q 956 3463 1253 3523 
Q 1550 3584 1831 3584 
Q 2591 3584 2966 3190 
Q 3341 2797 3341 1997 
z
" transform="scale(0.015625)"/>
       <path id="DejaVuSans-63" d="M 3122 3366 
L 3122 2828 
Q 2878 2963 2633 3030 
Q 2388 3097 2138 3097 
Q 1578 3097 1268 2742 
Q 959 2388 959 1747 
Q 959 1106 1268 751 
Q 1578 397 2138 397 
Q 2388 397 2633 464 
Q 2878 531 3122 666 
L 3122 134 
Q 2881 22 2623 -34 
Q 2366 -91 2075 -91 
Q 1284 -91 818 406 
Q 353 903 353 1747 
Q 353 2603 823 3093 
Q 1294 3584 2113 3584 
Q 2378 3584 2631 3529 
Q 2884 3475 3122 3366 
z
" transform="scale(0.015625)"/>
       <path id="DejaVuSans-74" d="M 1172 4494 
L 1172 3500 
L 2356 3500 
L 2356 3053 
L 1172 3053 
L 1172 1153 
Q 1172 725 1289 603 
Q 1406 481 1766 481 
L 2356 481 
L 2356 0 
L 1766 0 
Q 1100 0 847 248 
Q 594 497 594 1153 
L 594 3053 
L 172 3053 
L 172 3500 
L 594 3500 
L 594 4494 
L 1172 4494 
z
" transform="scale(0.015625)"/>
       <path id="DejaVuSans-69" d="M 603 3500 
L 1178 3500 
L 1178 0 
L 603 0 
L 603 3500 
z
M 603 4863 
L 1178 4863 
L 1178 4134 
L 603 4134 
L 603 4863 
z
" transform="scale(0.015625)"/>
       <path id="DejaVuSans-6f" d="M 1959 3097 
Q 1497 3097 1228 2736 
Q 959 2375 959 1747 
Q 959 1119 1226 758 
Q 1494 397 1959 397 
Q 2419 397 2687 759 
Q 2956 1122 2956 1747 
Q 2956 2369 2687 2733 
Q 2419 3097 1959 3097 
z
M 1959 3584 
Q 2709 3584 3137 3096 
Q 3566 2609 3566 1747 
Q 3566 888 3137 398 
Q 2709 -91 1959 -91 
Q 1206 -91 779 398 
Q 353 888 353 1747 
Q 353 2609 779 3096 
Q 1206 3584 1959 3584 
z
" transform="scale(0.015625)"/>
       <path id="DejaVuSans-6e" d="M 3513 2113 
L 3513 0 
L 2938 0 
L 2938 2094 
Q 2938 2591 2744 2837 
Q 2550 3084 2163 3084 
Q 1697 3084 1428 2787 
Q 1159 2491 1159 1978 
L 1159 0 
L 581 0 
L 581 3500 
L 1159 3500 
L 1159 2956 
Q 1366 3272 1645 3428 
Q 1925 3584 2291 3584 
Q 2894 3584 3203 3211 
Q 3513 2838 3513 2113 
z
" transform="scale(0.015625)"/>
       <path id="DejaVuSans-73" d="M 2834 3397 
L 2834 2853 
Q 2591 2978 2328 3040 
Q 2066 3103 1784 3103 
Q 1356 3103 1142 2972 
Q 928 2841 928 2578 
Q 928 2378 1081 2264 
Q 1234 2150 1697 2047 
L 1894 2003 
Q 2506 1872 2764 1633 
Q 3022 1394 3022 966 
Q 3022 478 2636 193 
Q 2250 -91 1575 -91 
Q 1294 -91 989 -36 
Q 684 19 347 128 
L 347 722 
Q 666 556 975 473 
Q 1284 391 1588 391 
Q 1994 391 2212 530 
Q 2431 669 2431 922 
Q 2431 1156 2273 1281 
Q 2116 1406 1581 1522 
L 1381 1569 
Q 847 1681 609 1914 
Q 372 2147 372 2553 
Q 372 3047 722 3315 
Q 1072 3584 1716 3584 
Q 2034 3584 2315 3537 
Q 2597 3491 2834 3397 
z
" transform="scale(0.015625)"/>
       <path id="DejaVuSans-70" d="M 1159 525 
L 1159 -1331 
L 581 -1331 
L 581 3500 
L 1159 3500 
L 1159 2969 
Q 1341 3281 1617 3432 
Q 1894 3584 2278 3584 
Q 2916 3584 3314 3078 
Q 3713 2572 3713 1747 
Q 3713 922 3314 415 
Q 2916 -91 2278 -91 
Q 1894 -91 1617 61 
Q 1341 213 1159 525 
z
M 3116 1747 
Q 3116 2381 2855 2742 
Q 2594 3103 2138 3103 
Q 1681 3103 1420 2742 
Q 1159 2381 1159 1747 
Q 1159 1113 1420 752 
Q 1681 391 2138 391 
Q 2594 391 2855 752 
Q 3116 1113 3116 1747 
z
" transform="scale(0.015625)"/>
       <path id="DejaVuSans-75" d="M 544 1381 
L 544 3500 
L 1119 3500 
L 1119 1403 
Q 1119 906 1312 657 
Q 1506 409 1894 409 
Q 2359 409 2629 706 
Q 2900 1003 2900 1516 
L 2900 3500 
L 3475 3500 
L 3475 0 
L 2900 0 
L 2900 538 
Q 2691 219 2414 64 
Q 2138 -91 1772 -91 
Q 1169 -91 856 284 
Q 544 659 544 1381 
z
M 1991 3584 
L 1991 3584 
z
" transform="scale(0.015625)"/>
       <path id="DejaVuSans-6c" d="M 603 4863 
L 1178 4863 
L 1178 0 
L 603 0 
L 603 4863 
z
" transform="scale(0.015625)"/>
       <path id="DejaVuSans-64" d="M 2906 2969 
L 2906 4863 
L 3481 4863 
L 3481 0 
L 2906 0 
L 2906 525 
Q 2725 213 2448 61 
Q 2172 -91 1784 -91 
Q 1150 -91 751 415 
Q 353 922 353 1747 
Q 353 2572 751 3078 
Q 1150 3584 1784 3584 
Q 2172 3584 2448 3432 
Q 2725 3281 2906 2969 
z
M 947 1747 
Q 947 1113 1208 752 
Q 1469 391 1925 391 
Q 2381 391 2643 752 
Q 2906 1113 2906 1747 
Q 2906 2381 2643 2742 
Q 2381 3103 1925 3103 
Q 1469 3103 1208 2742 
Q 947 2381 947 1747 
z
" transform="scale(0.015625)"/>
       <path id="DejaVuSans-62" d="M 3116 1747 
Q 3116 2381 2855 2742 
Q 2594 3103 2138 3103 
Q 1681 3103 1420 2742 
Q 1159 2381 1159 1747 
Q 1159 1113 1420 752 
Q 1681 391 2138 391 
Q 2594 391 2855 752 
Q 3116 1113 3116 1747 
z
M 1159 2969 
Q 1341 3281 1617 3432 
Q 1894 3584 2278 3584 
Q 2916 3584 3314 3078 
Q 3713 2572 3713 1747 
Q 3713 922 3314 415 
Q 2916 -91 2278 -91 
Q 1894 -91 1617 61 
Q 1341 213 1159 525 
L 1159 0 
L 581 0 
L 581 4863 
L 1159 4863 
L 1159 2969 
z
" transform="scale(0.015625)"/>
       <path id="DejaVuSans-79" d="M 2059 -325 
Q 1816 -950 1584 -1140 
Q 1353 -1331 966 -1331 
L 506 -1331 
L 506 -850 
L 844 -850 
Q 1081 -850 1212 -737 
Q 1344 -625 1503 -206 
L 1606 56 
L 191 3500 
L 800 3500 
L 1894 763 
L 2988 3500 
L 3597 3500 
L 2059 -325 
z
" transform="scale(0.015625)"/>
       <path id="DejaVuSans-6d" d="M 3328 2828 
Q 3544 3216 3844 3400 
Q 4144 3584 4550 3584 
Q 5097 3584 5394 3201 
Q 5691 2819 5691 2113 
L 5691 0 
L 5113 0 
L 5113 2094 
Q 5113 2597 4934 2840 
Q 4756 3084 4391 3084 
Q 3944 3084 3684 2787 
Q 3425 2491 3425 1978 
L 3425 0 
L 2847 0 
L 2847 2094 
Q 2847 2600 2669 2842 
Q 2491 3084 2119 3084 
Q 1678 3084 1418 2786 
Q 1159 2488 1159 1978 
L 1159 0 
L 581 0 
L 581 3500 
L 1159 3500 
L 1159 2956 
Q 1356 3278 1631 3431 
Q 1906 3584 2284 3584 
Q 2666 3584 2933 3390 
Q 3200 3197 3328 2828 
z
" transform="scale(0.015625)"/>
      </defs>
      <use xlink:href="#DejaVuSans-23"/>
      <use xlink:href="#DejaVuSans-20" transform="translate(83.789062 0)"/>
      <use xlink:href="#DejaVuSans-72" transform="translate(115.576172 0)"/>
      <use xlink:href="#DejaVuSans-65" transform="translate(154.439453 0)"/>
      <use xlink:href="#DejaVuSans-61" transform="translate(215.962891 0)"/>
      <use xlink:href="#DejaVuSans-63" transform="translate(277.242188 0)"/>
      <use xlink:href="#DejaVuSans-74" transform="translate(332.222656 0)"/>
      <use xlink:href="#DejaVuSans-69" transform="translate(371.431641 0)"/>
      <use xlink:href="#DejaVuSans-6f" transform="translate(399.214844 0)"/>
      <use xlink:href="#DejaVuSans-6e" transform="translate(460.396484 0)"/>
      <use xlink:href="#DejaVuSans-73" transform="translate(523.775391 0)"/>
      <use xlink:href="#DejaVuSans-20" transform="translate(575.875 0)"/>
      <use xlink:href="#DejaVuSans-72" transform="translate(607.662109 0)"/>
      <use xlink:href="#DejaVuSans-65" transform="translate(646.525391 0)"/>
      <use xlink:href="#DejaVuSans-63" transform="translate(708.048828 0)"/>
      <use xlink:href="#DejaVuSans-61" transform="translate(763.029297 0)"/>
      <use xlink:href="#DejaVuSans-70" transform="translate(824.308594 0)"/>
      <use xlink:href="#DejaVuSans-69" transform="translate(887.785156 0)"/>
      <use xlink:href="#DejaVuSans-74" transform="translate(915.568359 0)"/>
      <use xlink:href="#DejaVuSans-75" transform="translate(954.777344 0)"/>
      <use xlink:href="#DejaVuSans-6c" transform="translate(1018.15625 0)"/>
      <use xlink:href="#DejaVuSans-61" transform="translate(1045.939453 0)"/>
      <use xlink:href="#DejaVuSans-74" transform="translate(1107.21875 0)"/>
      <use xlink:href="#DejaVuSans-65" transform="translate(1146.427734 0)"/>
      <use xlink:href="#DejaVuSans-64" transform="translate(1207.951172 0)"/>
      <use xlink:href="#DejaVuSans-20" transform="translate(1271.427734 0)"/>
      <use xlink:href="#DejaVuSans-62" transform="translate(1303.214844 0)"/>
      <use xlink:href="#DejaVuSans-79" transform="translate(1366.691406 0)"/>
      <use xlink:href="#DejaVuSans-20" transform="translate(1425.871094 0)"/>
      <use xlink:href="#DejaVuSans-74" transform="translate(1457.658203 0)"/>
      <use xlink:href="#DejaVuSans-65" transform="translate(1496.867188 0)"/>
      <use xlink:href="#DejaVuSans-6d" transform="translate(1558.390625 0)"/>
      <use xlink:href="#DejaVuSans-70" transform="translate(1655.802734 0)"/>
      <use xlink:href="#DejaVuSans-6c" transform="translate(1719.279297 0)"/>
      <use xlink:href="#DejaVuSans-61" transform="translate(1747.0625 0)"/>
      <use xlink:href="#DejaVuSans-74" transform="translate(1808.341797 0)"/>
      <use xlink:href="#DejaVuSans-65" transform="translate(1847.550781 0)"/>
     </g>
    </g>
   </g>
   <g id="matplotlib.axis_2">
    <g id="ytick_1">
     <g id="line2d_9">
      <defs>
       <path id="m6e33eaba5b" d="M 0 0 
L -3.5 0 
" style="stroke: #000000; stroke-width: 0.8"/>
      </defs>
      <g>
       <use xlink:href="#m6e33eaba5b" x="72" y="492.519028" style="stroke: #000000; stroke-width: 0.8"/>
      </g>
     </g>
     <g id="text_10">
      <!-- 0.0 -->
      <g transform="translate(42.735625 497.837934) scale(0.14 -0.14)">
       <defs>
        <path id="DejaVuSans-2e" d="M 684 794 
L 1344 794 
L 1344 0 
L 684 0 
L 684 794 
z
" transform="scale(0.015625)"/>
       </defs>
       <use xlink:href="#DejaVuSans-30"/>
       <use xlink:href="#DejaVuSans-2e" transform="translate(63.623047 0)"/>
       <use xlink:href="#DejaVuSans-30" transform="translate(95.410156 0)"/>
      </g>
     </g>
    </g>
    <g id="ytick_2">
     <g id="line2d_10">
      <g>
       <use xlink:href="#m6e33eaba5b" x="72" y="411.871223" style="stroke: #000000; stroke-width: 0.8"/>
      </g>
     </g>
     <g id="text_11">
      <!-- 0.2 -->
      <g transform="translate(42.735625 417.190129) scale(0.14 -0.14)">
       <use xlink:href="#DejaVuSans-30"/>
       <use xlink:href="#DejaVuSans-2e" transform="translate(63.623047 0)"/>
       <use xlink:href="#DejaVuSans-32" transform="translate(95.410156 0)"/>
      </g>
     </g>
    </g>
    <g id="ytick_3">
     <g id="line2d_11">
      <g>
       <use xlink:href="#m6e33eaba5b" x="72" y="331.223417" style="stroke: #000000; stroke-width: 0.8"/>
      </g>
     </g>
     <g id="text_12">
      <!-- 0.4 -->
      <g transform="translate(42.735625 336.542323) scale(0.14 -0.14)">
       <use xlink:href="#DejaVuSans-30"/>
       <use xlink:href="#DejaVuSans-2e" transform="translate(63.623047 0)"/>
       <use xlink:href="#DejaVuSans-34" transform="translate(95.410156 0)"/>
      </g>
     </g>
    </g>
    <g id="ytick_4">
     <g id="line2d_12">
      <g>
       <use xlink:href="#m6e33eaba5b" x="72" y="250.575611" style="stroke: #000000; stroke-width: 0.8"/>
      </g>
     </g>
     <g id="text_13">
      <!-- 0.6 -->
      <g transform="translate(42.735625 255.894518) scale(0.14 -0.14)">
       <use xlink:href="#DejaVuSans-30"/>
       <use xlink:href="#DejaVuSans-2e" transform="translate(63.623047 0)"/>
       <use xlink:href="#DejaVuSans-36" transform="translate(95.410156 0)"/>
      </g>
     </g>
    </g>
    <g id="ytick_5">
     <g id="line2d_13">
      <g>
       <use xlink:href="#m6e33eaba5b" x="72" y="169.927806" style="stroke: #000000; stroke-width: 0.8"/>
      </g>
     </g>
     <g id="text_14">
      <!-- 0.8 -->
      <g transform="translate(42.735625 175.246712) scale(0.14 -0.14)">
       <defs>
        <path id="DejaVuSans-38" d="M 2034 2216 
Q 1584 2216 1326 1975 
Q 1069 1734 1069 1313 
Q 1069 891 1326 650 
Q 1584 409 2034 409 
Q 2484 409 2743 651 
Q 3003 894 3003 1313 
Q 3003 1734 2745 1975 
Q 2488 2216 2034 2216 
z
M 1403 2484 
Q 997 2584 770 2862 
Q 544 3141 544 3541 
Q 544 4100 942 4425 
Q 1341 4750 2034 4750 
Q 2731 4750 3128 4425 
Q 3525 4100 3525 3541 
Q 3525 3141 3298 2862 
Q 3072 2584 2669 2484 
Q 3125 2378 3379 2068 
Q 3634 1759 3634 1313 
Q 3634 634 3220 271 
Q 2806 -91 2034 -91 
Q 1263 -91 848 271 
Q 434 634 434 1313 
Q 434 1759 690 2068 
Q 947 2378 1403 2484 
z
M 1172 3481 
Q 1172 3119 1398 2916 
Q 1625 2713 2034 2713 
Q 2441 2713 2670 2916 
Q 2900 3119 2900 3481 
Q 2900 3844 2670 4047 
Q 2441 4250 2034 4250 
Q 1625 4250 1398 4047 
Q 1172 3844 1172 3481 
z
" transform="scale(0.015625)"/>
       </defs>
       <use xlink:href="#DejaVuSans-30"/>
       <use xlink:href="#DejaVuSans-2e" transform="translate(63.623047 0)"/>
       <use xlink:href="#DejaVuSans-38" transform="translate(95.410156 0)"/>
      </g>
     </g>
    </g>
    <g id="ytick_6">
     <g id="line2d_14">
      <g>
       <use xlink:href="#m6e33eaba5b" x="72" y="89.28" style="stroke: #000000; stroke-width: 0.8"/>
      </g>
     </g>
     <g id="text_15">
      <!-- 1.0 -->
      <g transform="translate(42.735625 94.598906) scale(0.14 -0.14)">
       <use xlink:href="#DejaVuSans-31"/>
       <use xlink:href="#DejaVuSans-2e" transform="translate(63.623047 0)"/>
       <use xlink:href="#DejaVuSans-30" transform="translate(95.410156 0)"/>
      </g>
     </g>
    </g>
    <g id="text_16">
     <!-- Cumulative fraction of templates -->
     <g transform="translate(35.824062 406.38875) rotate(-90) scale(0.14 -0.14)">
      <defs>
       <path id="DejaVuSans-43" d="M 4122 4306 
L 4122 3641 
Q 3803 3938 3442 4084 
Q 3081 4231 2675 4231 
Q 1875 4231 1450 3742 
Q 1025 3253 1025 2328 
Q 1025 1406 1450 917 
Q 1875 428 2675 428 
Q 3081 428 3442 575 
Q 3803 722 4122 1019 
L 4122 359 
Q 3791 134 3420 21 
Q 3050 -91 2638 -91 
Q 1578 -91 968 557 
Q 359 1206 359 2328 
Q 359 3453 968 4101 
Q 1578 4750 2638 4750 
Q 3056 4750 3426 4639 
Q 3797 4528 4122 4306 
z
" transform="scale(0.015625)"/>
       <path id="DejaVuSans-76" d="M 191 3500 
L 800 3500 
L 1894 563 
L 2988 3500 
L 3597 3500 
L 2284 0 
L 1503 0 
L 191 3500 
z
" transform="scale(0.015625)"/>
       <path id="DejaVuSans-66" d="M 2375 4863 
L 2375 4384 
L 1825 4384 
Q 1516 4384 1395 4259 
Q 1275 4134 1275 3809 
L 1275 3500 
L 2222 3500 
L 2222 3053 
L 1275 3053 
L 1275 0 
L 697 0 
L 697 3053 
L 147 3053 
L 147 3500 
L 697 3500 
L 697 3744 
Q 697 4328 969 4595 
Q 1241 4863 1831 4863 
L 2375 4863 
z
" transform="scale(0.015625)"/>
      </defs>
      <use xlink:href="#DejaVuSans-43"/>
      <use xlink:href="#DejaVuSans-75" transform="translate(69.824219 0)"/>
      <use xlink:href="#DejaVuSans-6d" transform="translate(133.203125 0)"/>
      <use xlink:href="#DejaVuSans-75" transform="translate(230.615234 0)"/>
      <use xlink:href="#DejaVuSans-6c" transform="translate(293.994141 0)"/>
      <use xlink:href="#DejaVuSans-61" transform="translate(321.777344 0)"/>
      <use xlink:href="#DejaVuSans-74" transform="translate(383.056641 0)"/>
      <use xlink:href="#DejaVuSans-69" transform="translate(422.265625 0)"/>
      <use xlink:href="#DejaVuSans-76" transform="translate(450.048828 0)"/>
      <use xlink:href="#DejaVuSans-65" transform="translate(509.228516 0)"/>
      <use xlink:href="#DejaVuSans-20" transform="translate(570.751953 0)"/>
      <use xlink:href="#DejaVuSans-66" transform="translate(602.539062 0)"/>
      <use xlink:href="#DejaVuSans-72" transform="translate(637.744141 0)"/>
      <use xlink:href="#DejaVuSans-61" transform="translate(678.857422 0)"/>
      <use xlink:href="#DejaVuSans-63" transform="translate(740.136719 0)"/>
      <use xlink:href="#DejaVuSans-74" transform="translate(795.117188 0)"/>
      <use xlink:href="#DejaVuSans-69" transform="translate(834.326172 0)"/>
      <use xlink:href="#DejaVuSans-6f" transform="translate(862.109375 0)"/>
      <use xlink:href="#DejaVuSans-6e" transform="translate(923.291016 0)"/>
      <use xlink:href="#DejaVuSans-20" transform="translate(986.669922 0)"/>
      <use xlink:href="#DejaVuSans-6f" transform="translate(1018.457031 0)"/>
      <use xlink:href="#DejaVuSans-66" transform="translate(1079.638672 0)"/>
      <use xlink:href="#DejaVuSans-20" transform="translate(1114.84375 0)"/>
      <use xlink:href="#DejaVuSans-74" transform="translate(1146.630859 0)"/>
      <use xlink:href="#DejaVuSans-65" transform="translate(1185.839844 0)"/>
      <use xlink:href="#DejaVuSans-6d" transform="translate(1247.363281 0)"/>
      <use xlink:href="#DejaVuSans-70" transform="translate(1344.775391 0)"/>
      <use xlink:href="#DejaVuSans-6c" transform="translate(1408.251953 0)"/>
      <use xlink:href="#DejaVuSans-61" transform="translate(1436.035156 0)"/>
      <use xlink:href="#DejaVuSans-74" transform="translate(1497.314453 0)"/>
      <use xlink:href="#DejaVuSans-65" transform="translate(1536.523438 0)"/>
      <use xlink:href="#DejaVuSans-73" transform="translate(1598.046875 0)"/>
     </g>
    </g>
   </g>
   <g id="line2d_15">
    <path d="M 92.290909 491.743568 
L 92.290909 376.200078 
L 92.851431 375.424618 
L 92.851431 322.693361 
L 93.411954 321.917901 
L 93.411954 294.001353 
L 93.972476 293.225893 
L 93.972476 275.390321 
L 94.532998 274.614861 
L 94.532998 263.758426 
L 95.093521 262.982966 
L 95.093521 245.147394 
L 95.654043 244.371934 
L 95.654043 238.943716 
L 96.214566 238.168257 
L 96.214566 230.41366 
L 96.775088 229.6382 
L 96.775088 217.230845 
L 97.33561 216.455386 
L 97.33561 211.802628 
L 97.896133 211.027168 
L 97.896133 206.37441 
L 98.456655 205.59895 
L 98.456655 197.844354 
L 99.017177 197.068894 
L 99.017177 189.314297 
L 99.5777 188.538838 
L 99.5777 183.11062 
L 100.138222 182.33516 
L 100.138222 179.233322 
L 100.698744 178.457862 
L 100.698744 172.254185 
L 101.259267 171.478725 
L 101.259267 170.703265 
L 101.819789 169.927806 
L 101.819789 169.152346 
L 102.380311 168.376886 
L 102.380311 166.050507 
L 103.501356 165.275048 
L 103.501356 162.173209 
L 105.182923 161.397749 
L 105.182923 159.07137 
L 105.743446 158.295911 
L 105.743446 155.194072 
L 106.303968 154.418612 
L 106.303968 153.643153 
L 107.425013 152.867693 
L 107.985535 152.092233 
L 107.985535 149.765854 
L 109.10658 148.990395 
L 109.10658 148.214935 
L 110.788147 147.439475 
L 110.788147 146.664016 
L 111.909191 145.888556 
L 111.909191 145.113096 
L 112.469714 144.337637 
L 112.469714 142.011258 
L 114.151281 141.235798 
L 115.272325 139.684879 
L 115.272325 137.3585 
L 116.953893 136.58304 
L 116.953893 135.80758 
L 117.514415 135.032121 
L 117.514415 134.256661 
L 118.074937 133.481201 
L 118.074937 132.705741 
L 118.63546 131.930282 
L 118.63546 129.603903 
L 119.195982 128.828443 
L 119.195982 128.052983 
L 120.317027 127.277524 
L 120.317027 126.502064 
L 123.680161 125.726604 
L 124.801205 124.175685 
L 124.801205 123.400225 
L 128.16434 122.624766 
L 128.724862 121.849306 
L 128.724862 121.073846 
L 137.132697 120.298387 
L 137.132697 119.522927 
L 138.253742 118.747467 
L 138.253742 117.972008 
L 141.616876 117.196548 
L 141.616876 114.870169 
L 147.782622 114.094709 
L 147.782622 113.31925 
L 149.464189 112.54379 
L 149.464189 111.76833 
L 156.750979 110.992871 
L 156.750979 110.217411 
L 157.872024 109.441951 
L 157.872024 108.666492 
L 174.687695 107.891032 
L 174.687695 107.115572 
L 177.490306 106.340113 
L 177.490306 105.564653 
L 178.050829 104.789193 
L 178.050829 104.013734 
L 179.171873 103.238274 
L 186.458664 102.462814 
L 186.458664 101.687355 
L 222.892617 100.911895 
L 222.892617 100.136435 
L 225.134706 98.585516 
L 225.134706 97.810056 
L 230.73993 97.034597 
L 234.663586 96.259137 
L 234.663586 95.483677 
L 243.631944 94.708218 
L 243.631944 93.932758 
L 257.08448 93.157298 
L 257.08448 92.381839 
L 351.812757 91.606379 
L 351.812757 90.830919 
L 385.444098 90.05546 
L 385.444098 89.28 
L 385.444098 89.28 
" clip-path="url(#p3e6d76242e)" style="fill: none; stroke: #008000; stroke-width: 1.5; stroke-linecap: square"/>
   </g>
   <g id="line2d_16">
    <path d="M 92.290909 492.331736 
L 92.290909 308.785871 
L 92.851431 308.59858 
L 92.851431 229.186899 
L 93.411954 228.999608 
L 93.411954 199.594811 
L 93.972476 199.407519 
L 93.972476 180.491057 
L 94.532998 180.303766 
L 94.532998 167.193347 
L 95.093521 167.006055 
L 95.093521 159.139804 
L 95.654043 158.952512 
L 95.654043 155.019386 
L 96.214566 154.832095 
L 96.214566 147.902302 
L 96.775088 147.71501 
L 96.775088 141.347092 
L 97.33561 141.159801 
L 97.33561 138.9123 
L 97.896133 138.725009 
L 97.896133 134.791883 
L 98.456655 134.604591 
L 98.456655 131.982507 
L 99.017177 131.795216 
L 99.017177 129.173132 
L 99.5777 128.98584 
L 99.5777 125.801881 
L 100.138222 125.61459 
L 100.138222 124.303548 
L 100.698744 124.116256 
L 100.698744 121.681464 
L 101.259267 121.494172 
L 101.259267 120.932297 
L 101.819789 120.745005 
L 101.819789 119.433964 
L 102.380311 119.246672 
L 102.380311 117.93563 
L 102.940834 117.748338 
L 102.940834 117.373755 
L 103.501356 117.186463 
L 103.501356 116.062713 
L 104.061878 115.875421 
L 104.061878 114.751671 
L 104.622401 114.564379 
L 104.622401 113.815213 
L 105.182923 113.627921 
L 105.182923 112.316879 
L 105.743446 112.129587 
L 105.743446 111.567712 
L 106.303968 111.38042 
L 106.303968 110.069379 
L 106.86449 109.882087 
L 106.86449 109.320212 
L 107.425013 109.13292 
L 107.425013 108.758337 
L 107.985535 108.571045 
L 107.985535 108.196462 
L 108.546057 108.00917 
L 108.546057 107.072711 
L 109.10658 106.88542 
L 109.10658 106.698128 
L 109.667102 106.510836 
L 109.667102 105.948961 
L 110.227624 105.76167 
L 110.227624 105.574378 
L 110.788147 105.387086 
L 111.909191 105.199794 
L 111.909191 104.825211 
L 115.272325 104.263336 
L 115.272325 104.076044 
L 115.832848 103.888753 
L 115.832848 103.701461 
L 116.39337 103.514169 
L 116.39337 103.326877 
L 117.514415 103.139586 
L 117.514415 102.952294 
L 118.074937 102.765002 
L 118.074937 102.577711 
L 119.195982 102.390419 
L 119.195982 101.828544 
L 119.756504 101.641252 
L 119.756504 101.45396 
L 120.317027 101.266669 
L 120.317027 100.892085 
L 121.438071 100.704794 
L 121.438071 100.517502 
L 129.845907 99.019168 
L 132.648518 98.831877 
L 133.209041 98.644585 
L 133.209041 98.457293 
L 137.132697 98.270002 
L 137.693219 98.08271 
L 137.693219 97.895418 
L 139.374787 97.520835 
L 139.374787 97.146251 
L 141.616876 96.95896 
L 141.616876 96.771668 
L 147.222099 96.584376 
L 147.782622 96.397085 
L 147.782622 96.209793 
L 149.464189 95.835209 
L 149.464189 95.647918 
L 150.585234 95.460626 
L 150.585234 95.273334 
L 162.916725 94.898751 
L 174.687695 94.149584 
L 174.687695 93.962292 
L 177.490306 93.775001 
L 177.490306 93.587709 
L 185.337619 93.400417 
L 185.337619 93.025834 
L 208.319036 92.838542 
L 222.892617 92.463959 
L 222.892617 92.276667 
L 223.453139 92.089375 
L 228.49784 91.902084 
L 241.389854 91.714792 
L 241.389854 91.5275 
L 241.950377 91.340209 
L 243.631944 91.152917 
L 243.631944 90.778334 
L 284.550075 90.216458 
L 286.231642 90.029167 
L 385.444098 89.841875 
L 385.444098 89.654583 
L 498.109091 89.28 
L 498.109091 89.28 
" clip-path="url(#p3e6d76242e)" style="fill: none; stroke: #800080; stroke-opacity: 0.3; stroke-width: 1.5; stroke-linecap: square"/>
   </g>
   <g id="line2d_17">
    <path d="M 92.290909 492.41028 
L 92.290909 280.894662 
L 92.851431 280.677165 
L 92.851431 211.078196 
L 93.411954 210.860699 
L 93.411954 180.084905 
L 93.972476 179.867408 
L 93.972476 163.55515 
L 94.532998 163.337653 
L 94.532998 151.37533 
L 95.093521 151.157834 
L 95.093521 144.959175 
L 95.654043 144.741679 
L 95.654043 139.195511 
L 96.214566 138.978014 
L 96.214566 133.649343 
L 96.775088 133.431846 
L 96.775088 128.103175 
L 97.33561 127.885678 
L 97.33561 123.970736 
L 97.896133 123.753239 
L 97.896133 121.143278 
L 98.456655 120.925781 
L 98.456655 118.424568 
L 99.017177 118.207072 
L 99.017177 115.814607 
L 99.5777 115.59711 
L 99.5777 113.204646 
L 100.138222 112.987149 
L 100.138222 112.334659 
L 100.698744 112.117162 
L 100.698744 110.92093 
L 101.259267 110.703433 
L 101.259267 109.398452 
L 101.819789 109.180955 
L 101.819789 108.745962 
L 102.380311 108.528465 
L 102.380311 107.875975 
L 102.940834 107.658478 
L 102.940834 106.788491 
L 103.501356 106.570994 
L 103.501356 105.374762 
L 104.061878 105.157265 
L 104.061878 104.287278 
L 104.622401 104.069781 
L 104.622401 103.199794 
L 105.182923 102.982297 
L 105.182923 102.003562 
L 105.743446 101.786065 
L 105.743446 101.677316 
L 106.303968 101.45982 
L 106.303968 101.133574 
L 106.86449 100.916078 
L 106.86449 100.589833 
L 107.985535 100.263587 
L 107.985535 99.611097 
L 108.546057 99.3936 
L 108.546057 98.958607 
L 109.10658 98.74111 
L 109.10658 98.414865 
L 109.667102 98.197368 
L 109.667102 98.08862 
L 110.788147 97.762374 
L 110.788147 97.436129 
L 111.909191 97.109884 
L 111.909191 96.783639 
L 112.469714 96.67489 
L 114.151281 96.457394 
L 114.711803 96.239897 
L 114.711803 96.131149 
L 119.195982 95.152413 
L 119.195982 95.043665 
L 119.756504 94.826168 
L 119.756504 94.717419 
L 121.998594 94.173678 
L 121.998594 93.847432 
L 127.603817 93.521187 
L 127.603817 93.412439 
L 128.16434 93.30369 
L 135.45113 92.759948 
L 135.45113 92.6512 
L 136.572175 92.542452 
L 139.374787 92.324955 
L 141.616876 92.107458 
L 141.616876 91.99871 
L 162.356203 91.346219 
L 162.356203 91.237471 
L 164.598292 91.128723 
L 177.490306 90.911226 
L 178.050829 90.802477 
L 193.745455 90.584981 
L 209.44008 90.367484 
L 217.847916 90.149987 
L 222.892617 89.93249 
L 222.892617 89.823742 
L 243.631944 89.606245 
L 254.281868 89.497497 
L 332.754997 89.28 
L 332.754997 89.28 
" clip-path="url(#p3e6d76242e)" style="fill: none; stroke: #800080; stroke-opacity: 0.45; stroke-width: 1.5; stroke-linecap: square"/>
   </g>
   <g id="line2d_18">
    <path d="M 92.290909 492.442074 
L 92.290909 258.886645 
L 92.851431 258.732737 
L 92.851431 186.549872 
L 93.411954 186.395964 
L 93.411954 159.539014 
L 93.972476 159.385106 
L 93.972476 144.379073 
L 94.532998 144.225165 
L 94.532998 134.990684 
L 95.093521 134.836776 
L 95.093521 127.44919 
L 95.654043 127.295282 
L 95.654043 123.293674 
L 96.214566 123.139766 
L 96.214566 118.060801 
L 96.775088 117.906893 
L 96.775088 114.443962 
L 97.33561 114.290054 
L 97.33561 111.90448 
L 97.896133 111.750572 
L 97.896133 109.211089 
L 98.456655 109.057181 
L 98.456655 107.441147 
L 99.017177 107.287239 
L 99.017177 106.132929 
L 99.5777 105.979021 
L 99.5777 104.362987 
L 100.138222 104.209079 
L 100.138222 103.516492 
L 100.698744 103.362584 
L 100.698744 102.362182 
L 101.259267 102.208274 
L 101.259267 101.438734 
L 101.819789 101.284826 
L 101.819789 100.59224 
L 102.380311 100.438332 
L 102.380311 100.20747 
L 102.940834 100.053562 
L 102.940834 99.668792 
L 103.501356 99.514884 
L 103.501356 98.976206 
L 104.061878 98.822298 
L 104.061878 98.206666 
L 104.622401 98.052757 
L 104.622401 97.591033 
L 105.182923 97.437125 
L 105.182923 97.129309 
L 105.743446 96.975401 
L 105.743446 96.513677 
L 106.303968 96.359769 
L 106.303968 96.128907 
L 106.86449 95.974999 
L 106.86449 95.744137 
L 107.425013 95.590229 
L 107.425013 95.513275 
L 108.546057 95.282413 
L 108.546057 95.205459 
L 109.10658 95.051551 
L 109.10658 94.897643 
L 109.667102 94.743735 
L 109.667102 94.666781 
L 110.227624 94.512873 
L 110.227624 94.358965 
L 115.272325 93.589425 
L 115.272325 93.512471 
L 116.39337 93.358563 
L 116.39337 93.281609 
L 124.240683 92.973793 
L 124.240683 92.896839 
L 125.361728 92.819885 
L 128.724862 92.665977 
L 128.724862 92.589023 
L 129.845907 92.358161 
L 129.845907 92.281207 
L 132.648518 92.127298 
L 132.648518 91.896436 
L 133.209041 91.819482 
L 137.693219 91.665574 
L 137.693219 91.511666 
L 139.374787 91.357758 
L 139.374787 91.280804 
L 143.298443 91.126896 
L 158.993069 90.357356 
L 158.993069 90.203448 
L 185.337619 89.587816 
L 185.898142 89.510862 
L 191.503365 89.356954 
L 211.68217 89.28 
L 211.68217 89.28 
" clip-path="url(#p3e6d76242e)" style="fill: none; stroke: #800080; stroke-opacity: 0.6; stroke-width: 1.5; stroke-linecap: square"/>
   </g>
   <g id="line2d_19">
    <path d="M 92.290909 492.467151 
L 92.290909 223.01861 
L 92.851431 222.862979 
L 92.851431 155.889921 
L 93.411954 155.73429 
L 93.411954 134.568521 
L 93.972476 134.41289 
L 93.972476 123.466867 
L 94.532998 123.311237 
L 94.532998 116.463488 
L 95.093521 116.307857 
L 95.093521 111.794568 
L 95.654043 111.638937 
L 95.654043 107.800048 
L 96.214566 107.644417 
L 96.214566 104.998696 
L 96.775088 104.843066 
L 96.775088 103.131128 
L 97.33561 102.975498 
L 97.33561 101.626699 
L 97.896133 101.471068 
L 97.896133 100.226023 
L 98.456655 100.070392 
L 98.456655 98.929101 
L 99.017177 98.77347 
L 99.017177 97.94344 
L 99.5777 97.787809 
L 99.5777 97.217163 
L 100.138222 97.061533 
L 100.138222 96.698395 
L 100.698744 96.542764 
L 100.698744 95.816488 
L 101.259267 95.660857 
L 101.259267 95.038334 
L 101.819789 94.882704 
L 101.819789 94.830827 
L 102.940834 94.623319 
L 102.940834 94.312058 
L 103.501356 94.156427 
L 103.501356 94.10455 
L 104.061878 93.94892 
L 104.061878 93.533905 
L 105.182923 93.326397 
L 105.182923 93.170766 
L 106.86449 92.911382 
L 106.86449 92.807628 
L 108.546057 92.548244 
L 108.546057 92.496367 
L 115.272325 91.77009 
L 115.272325 91.718214 
L 118.074937 91.562583 
L 120.877549 91.406952 
L 120.877549 91.355075 
L 123.119638 91.043814 
L 123.119638 90.94006 
L 124.240683 90.836307 
L 129.845907 90.628799 
L 129.845907 90.576922 
L 131.527474 90.421291 
L 131.527474 90.369415 
L 132.648518 90.213784 
L 132.648518 90.11003 
L 133.209041 90.058153 
L 138.814264 89.902523 
L 142.737921 89.591261 
L 151.706278 89.435631 
L 151.706278 89.383754 
L 161.795681 89.28 
L 161.795681 89.28 
" clip-path="url(#p3e6d76242e)" style="fill: none; stroke: #800080; stroke-opacity: 0.85; stroke-width: 1.5; stroke-linecap: square"/>
   </g>
   <g id="line2d_20">
    <path d="M 92.290909 492.48 
L 92.290909 184.430673 
L 92.851431 184.313588 
L 92.851431 135.684491 
L 93.411954 135.567407 
L 93.411954 120.58059 
L 93.972476 120.463506 
L 93.972476 113.516492 
L 94.532998 113.399408 
L 94.532998 107.467126 
L 95.093521 107.350042 
L 95.093521 104.305845 
L 95.654043 104.18876 
L 95.654043 101.456788 
L 96.214566 101.339704 
L 96.214566 99.349267 
L 96.775088 99.232183 
L 96.775088 98.02231 
L 97.33561 97.905225 
L 97.33561 96.773408 
L 97.896133 96.656324 
L 97.896133 96.148958 
L 98.456655 96.031873 
L 98.456655 95.290338 
L 99.017177 95.173253 
L 99.017177 94.353662 
L 99.5777 94.236577 
L 99.5777 94.002408 
L 100.138222 93.885324 
L 100.138222 93.456014 
L 100.698744 93.338929 
L 100.698744 92.870591 
L 101.259267 92.753507 
L 101.259267 92.714479 
L 101.819789 92.597394 
L 101.819789 92.48031 
L 102.380311 92.363225 
L 102.380311 92.168084 
L 102.940834 92.051 
L 102.940834 92.011972 
L 104.061878 91.855859 
L 104.061878 91.699746 
L 104.622401 91.582662 
L 104.622401 91.543634 
L 105.743446 91.387521 
L 105.743446 91.19238 
L 106.86449 91.036268 
L 106.86449 90.802099 
L 109.10658 90.645986 
L 111.348669 90.411817 
L 111.348669 90.372789 
L 118.63546 90.021535 
L 118.63546 89.943479 
L 126.482772 89.475141 
L 128.724862 89.319028 
L 141.056354 89.28 
L 141.056354 89.28 
" clip-path="url(#p3e6d76242e)" style="fill: none; stroke: #800080; stroke-width: 1.5; stroke-linecap: square"/>
   </g>
   <g id="patch_3">
    <path d="M 72 512.64 
L 72 69.12 
" style="fill: none; stroke: #000000; stroke-width: 0.8; stroke-linejoin: miter; stroke-linecap: square"/>
   </g>
   <g id="patch_4">
    <path d="M 518.4 512.64 
L 518.4 69.12 
" style="fill: none; stroke: #000000; stroke-width: 0.8; stroke-linejoin: miter; stroke-linecap: square"/>
   </g>
   <g id="patch_5">
    <path d="M 72 512.64 
L 518.4 512.64 
" style="fill: none; stroke: #000000; stroke-width: 0.8; stroke-linejoin: miter; stroke-linecap: square"/>
   </g>
   <g id="patch_6">
    <path d="M 72 69.12 
L 518.4 69.12 
" style="fill: none; stroke: #000000; stroke-width: 0.8; stroke-linejoin: miter; stroke-linecap: square"/>
   </g>
   <g id="legend_1">
    <g id="patch_7">
     <path d="M 344.50125 506.64 
L 510 506.64 
Q 512.4 506.64 512.4 504.24 
L 512.4 399.7575 
Q 512.4 397.3575 510 397.3575 
L 344.50125 397.3575 
Q 342.10125 397.3575 342.10125 399.7575 
L 342.10125 504.24 
Q 342.10125 506.64 344.50125 506.64 
z
" style="fill: #ffffff; opacity: 0.8; stroke: #cccccc; stroke-linejoin: miter"/>
    </g>
    <g id="line2d_21">
     <path d="M 346.90125 407.075625 
L 358.90125 407.075625 
L 370.90125 407.075625 
" style="fill: none; stroke: #008000; stroke-width: 1.5; stroke-linecap: square"/>
    </g>
    <g id="text_17">
     <!-- Mechinformed -->
     <g transform="translate(380.50125 411.275625) scale(0.12 -0.12)">
      <defs>
       <path id="DejaVuSans-4d" d="M 628 4666 
L 1569 4666 
L 2759 1491 
L 3956 4666 
L 4897 4666 
L 4897 0 
L 4281 0 
L 4281 4097 
L 3078 897 
L 2444 897 
L 1241 4097 
L 1241 0 
L 628 0 
L 628 4666 
z
" transform="scale(0.015625)"/>
       <path id="DejaVuSans-68" d="M 3513 2113 
L 3513 0 
L 2938 0 
L 2938 2094 
Q 2938 2591 2744 2837 
Q 2550 3084 2163 3084 
Q 1697 3084 1428 2787 
Q 1159 2491 1159 1978 
L 1159 0 
L 581 0 
L 581 4863 
L 1159 4863 
L 1159 2956 
Q 1366 3272 1645 3428 
Q 1925 3584 2291 3584 
Q 2894 3584 3203 3211 
Q 3513 2838 3513 2113 
z
" transform="scale(0.015625)"/>
      </defs>
      <use xlink:href="#DejaVuSans-4d"/>
      <use xlink:href="#DejaVuSans-65" transform="translate(86.279297 0)"/>
      <use xlink:href="#DejaVuSans-63" transform="translate(147.802734 0)"/>
      <use xlink:href="#DejaVuSans-68" transform="translate(202.783203 0)"/>
      <use xlink:href="#DejaVuSans-69" transform="translate(266.162109 0)"/>
      <use xlink:href="#DejaVuSans-6e" transform="translate(293.945312 0)"/>
      <use xlink:href="#DejaVuSans-66" transform="translate(357.324219 0)"/>
      <use xlink:href="#DejaVuSans-6f" transform="translate(392.529297 0)"/>
      <use xlink:href="#DejaVuSans-72" transform="translate(453.710938 0)"/>
      <use xlink:href="#DejaVuSans-6d" transform="translate(493.074219 0)"/>
      <use xlink:href="#DejaVuSans-65" transform="translate(590.486328 0)"/>
      <use xlink:href="#DejaVuSans-64" transform="translate(652.009766 0)"/>
     </g>
    </g>
    <g id="line2d_22">
     <path d="M 346.90125 424.689375 
L 358.90125 424.689375 
L 370.90125 424.689375 
" style="fill: none; stroke: #800080; stroke-opacity: 0.3; stroke-width: 1.5; stroke-linecap: square"/>
    </g>
    <g id="text_18">
     <!-- Mechinferred &gt;0.956 -->
     <g transform="translate(380.50125 428.889375) scale(0.12 -0.12)">
      <defs>
       <path id="DejaVuSans-3e" d="M 678 3150 
L 678 3719 
L 4684 2266 
L 4684 1747 
L 678 294 
L 678 863 
L 3897 2003 
L 678 3150 
z
" transform="scale(0.015625)"/>
       <path id="DejaVuSans-39" d="M 703 97 
L 703 672 
Q 941 559 1184 500 
Q 1428 441 1663 441 
Q 2288 441 2617 861 
Q 2947 1281 2994 2138 
Q 2813 1869 2534 1725 
Q 2256 1581 1919 1581 
Q 1219 1581 811 2004 
Q 403 2428 403 3163 
Q 403 3881 828 4315 
Q 1253 4750 1959 4750 
Q 2769 4750 3195 4129 
Q 3622 3509 3622 2328 
Q 3622 1225 3098 567 
Q 2575 -91 1691 -91 
Q 1453 -91 1209 -44 
Q 966 3 703 97 
z
M 1959 2075 
Q 2384 2075 2632 2365 
Q 2881 2656 2881 3163 
Q 2881 3666 2632 3958 
Q 2384 4250 1959 4250 
Q 1534 4250 1286 3958 
Q 1038 3666 1038 3163 
Q 1038 2656 1286 2365 
Q 1534 2075 1959 2075 
z
" transform="scale(0.015625)"/>
      </defs>
      <use xlink:href="#DejaVuSans-4d"/>
      <use xlink:href="#DejaVuSans-65" transform="translate(86.279297 0)"/>
      <use xlink:href="#DejaVuSans-63" transform="translate(147.802734 0)"/>
      <use xlink:href="#DejaVuSans-68" transform="translate(202.783203 0)"/>
      <use xlink:href="#DejaVuSans-69" transform="translate(266.162109 0)"/>
      <use xlink:href="#DejaVuSans-6e" transform="translate(293.945312 0)"/>
      <use xlink:href="#DejaVuSans-66" transform="translate(357.324219 0)"/>
      <use xlink:href="#DejaVuSans-65" transform="translate(392.529297 0)"/>
      <use xlink:href="#DejaVuSans-72" transform="translate(454.052734 0)"/>
      <use xlink:href="#DejaVuSans-72" transform="translate(493.416016 0)"/>
      <use xlink:href="#DejaVuSans-65" transform="translate(532.279297 0)"/>
      <use xlink:href="#DejaVuSans-64" transform="translate(593.802734 0)"/>
      <use xlink:href="#DejaVuSans-20" transform="translate(657.279297 0)"/>
      <use xlink:href="#DejaVuSans-3e" transform="translate(689.066406 0)"/>
      <use xlink:href="#DejaVuSans-30" transform="translate(772.855469 0)"/>
      <use xlink:href="#DejaVuSans-2e" transform="translate(836.478516 0)"/>
      <use xlink:href="#DejaVuSans-39" transform="translate(868.265625 0)"/>
      <use xlink:href="#DejaVuSans-35" transform="translate(931.888672 0)"/>
      <use xlink:href="#DejaVuSans-36" transform="translate(995.511719 0)"/>
     </g>
    </g>
    <g id="line2d_23">
     <path d="M 346.90125 442.303125 
L 358.90125 442.303125 
L 370.90125 442.303125 
" style="fill: none; stroke: #800080; stroke-opacity: 0.45; stroke-width: 1.5; stroke-linecap: square"/>
    </g>
    <g id="text_19">
     <!-- Mechinferred &gt;0.224 -->
     <g transform="translate(380.50125 446.503125) scale(0.12 -0.12)">
      <use xlink:href="#DejaVuSans-4d"/>
      <use xlink:href="#DejaVuSans-65" transform="translate(86.279297 0)"/>
      <use xlink:href="#DejaVuSans-63" transform="translate(147.802734 0)"/>
      <use xlink:href="#DejaVuSans-68" transform="translate(202.783203 0)"/>
      <use xlink:href="#DejaVuSans-69" transform="translate(266.162109 0)"/>
      <use xlink:href="#DejaVuSans-6e" transform="translate(293.945312 0)"/>
      <use xlink:href="#DejaVuSans-66" transform="translate(357.324219 0)"/>
      <use xlink:href="#DejaVuSans-65" transform="translate(392.529297 0)"/>
      <use xlink:href="#DejaVuSans-72" transform="translate(454.052734 0)"/>
      <use xlink:href="#DejaVuSans-72" transform="translate(493.416016 0)"/>
      <use xlink:href="#DejaVuSans-65" transform="translate(532.279297 0)"/>
      <use xlink:href="#DejaVuSans-64" transform="translate(593.802734 0)"/>
      <use xlink:href="#DejaVuSans-20" transform="translate(657.279297 0)"/>
      <use xlink:href="#DejaVuSans-3e" transform="translate(689.066406 0)"/>
      <use xlink:href="#DejaVuSans-30" transform="translate(772.855469 0)"/>
      <use xlink:href="#DejaVuSans-2e" transform="translate(836.478516 0)"/>
      <use xlink:href="#DejaVuSans-32" transform="translate(868.265625 0)"/>
      <use xlink:href="#DejaVuSans-32" transform="translate(931.888672 0)"/>
      <use xlink:href="#DejaVuSans-34" transform="translate(995.511719 0)"/>
     </g>
    </g>
    <g id="line2d_24">
     <path d="M 346.90125 459.916875 
L 358.90125 459.916875 
L 370.90125 459.916875 
" style="fill: none; stroke: #800080; stroke-opacity: 0.6; stroke-width: 1.5; stroke-linecap: square"/>
    </g>
    <g id="text_20">
     <!-- Mechinferred &gt;0.112 -->
     <g transform="translate(380.50125 464.116875) scale(0.12 -0.12)">
      <use xlink:href="#DejaVuSans-4d"/>
      <use xlink:href="#DejaVuSans-65" transform="translate(86.279297 0)"/>
      <use xlink:href="#DejaVuSans-63" transform="translate(147.802734 0)"/>
      <use xlink:href="#DejaVuSans-68" transform="translate(202.783203 0)"/>
      <use xlink:href="#DejaVuSans-69" transform="translate(266.162109 0)"/>
      <use xlink:href="#DejaVuSans-6e" transform="translate(293.945312 0)"/>
      <use xlink:href="#DejaVuSans-66" transform="translate(357.324219 0)"/>
      <use xlink:href="#DejaVuSans-65" transform="translate(392.529297 0)"/>
      <use xlink:href="#DejaVuSans-72" transform="translate(454.052734 0)"/>
      <use xlink:href="#DejaVuSans-72" transform="translate(493.416016 0)"/>
      <use xlink:href="#DejaVuSans-65" transform="translate(532.279297 0)"/>
      <use xlink:href="#DejaVuSans-64" transform="translate(593.802734 0)"/>
      <use xlink:href="#DejaVuSans-20" transform="translate(657.279297 0)"/>
      <use xlink:href="#DejaVuSans-3e" transform="translate(689.066406 0)"/>
      <use xlink:href="#DejaVuSans-30" transform="translate(772.855469 0)"/>
      <use xlink:href="#DejaVuSans-2e" transform="translate(836.478516 0)"/>
      <use xlink:href="#DejaVuSans-31" transform="translate(868.265625 0)"/>
      <use xlink:href="#DejaVuSans-31" transform="translate(931.888672 0)"/>
      <use xlink:href="#DejaVuSans-32" transform="translate(995.511719 0)"/>
     </g>
    </g>
    <g id="line2d_25">
     <path d="M 346.90125 477.530625 
L 358.90125 477.530625 
L 370.90125 477.530625 
" style="fill: none; stroke: #800080; stroke-opacity: 0.85; stroke-width: 1.5; stroke-linecap: square"/>
    </g>
    <g id="text_21">
     <!-- Mechinferred &gt;0.039 -->
     <g transform="translate(380.50125 481.730625) scale(0.12 -0.12)">
      <use xlink:href="#DejaVuSans-4d"/>
      <use xlink:href="#DejaVuSans-65" transform="translate(86.279297 0)"/>
      <use xlink:href="#DejaVuSans-63" transform="translate(147.802734 0)"/>
      <use xlink:href="#DejaVuSans-68" transform="translate(202.783203 0)"/>
      <use xlink:href="#DejaVuSans-69" transform="translate(266.162109 0)"/>
      <use xlink:href="#DejaVuSans-6e" transform="translate(293.945312 0)"/>
      <use xlink:href="#DejaVuSans-66" transform="translate(357.324219 0)"/>
      <use xlink:href="#DejaVuSans-65" transform="translate(392.529297 0)"/>
      <use xlink:href="#DejaVuSans-72" transform="translate(454.052734 0)"/>
      <use xlink:href="#DejaVuSans-72" transform="translate(493.416016 0)"/>
      <use xlink:href="#DejaVuSans-65" transform="translate(532.279297 0)"/>
      <use xlink:href="#DejaVuSans-64" transform="translate(593.802734 0)"/>
      <use xlink:href="#DejaVuSans-20" transform="translate(657.279297 0)"/>
      <use xlink:href="#DejaVuSans-3e" transform="translate(689.066406 0)"/>
      <use xlink:href="#DejaVuSans-30" transform="translate(772.855469 0)"/>
      <use xlink:href="#DejaVuSans-2e" transform="translate(836.478516 0)"/>
      <use xlink:href="#DejaVuSans-30" transform="translate(868.265625 0)"/>
      <use xlink:href="#DejaVuSans-33" transform="translate(931.888672 0)"/>
      <use xlink:href="#DejaVuSans-39" transform="translate(995.511719 0)"/>
     </g>
    </g>
    <g id="line2d_26">
     <path d="M 346.90125 495.144375 
L 358.90125 495.144375 
L 370.90125 495.144375 
" style="fill: none; stroke: #800080; stroke-width: 1.5; stroke-linecap: square"/>
    </g>
    <g id="text_22">
     <!-- Mechinferred &gt;0.019 -->
     <g transform="translate(380.50125 499.344375) scale(0.12 -0.12)">
      <use xlink:href="#DejaVuSans-4d"/>
      <use xlink:href="#DejaVuSans-65" transform="translate(86.279297 0)"/>
      <use xlink:href="#DejaVuSans-63" transform="translate(147.802734 0)"/>
      <use xlink:href="#DejaVuSans-68" transform="translate(202.783203 0)"/>
      <use xlink:href="#DejaVuSans-69" transform="translate(266.162109 0)"/>
      <use xlink:href="#DejaVuSans-6e" transform="translate(293.945312 0)"/>
      <use xlink:href="#DejaVuSans-66" transform="translate(357.324219 0)"/>
      <use xlink:href="#DejaVuSans-65" transform="translate(392.529297 0)"/>
      <use xlink:href="#DejaVuSans-72" transform="translate(454.052734 0)"/>
      <use xlink:href="#DejaVuSans-72" transform="translate(493.416016 0)"/>
      <use xlink:href="#DejaVuSans-65" transform="translate(532.279297 0)"/>
      <use xlink:href="#DejaVuSans-64" transform="translate(593.802734 0)"/>
      <use xlink:href="#DejaVuSans-20" transform="translate(657.279297 0)"/>
      <use xlink:href="#DejaVuSans-3e" transform="translate(689.066406 0)"/>
      <use xlink:href="#DejaVuSans-30" transform="translate(772.855469 0)"/>
      <use xlink:href="#DejaVuSans-2e" transform="translate(836.478516 0)"/>
      <use xlink:href="#DejaVuSans-30" transform="translate(868.265625 0)"/>
      <use xlink:href="#DejaVuSans-31" transform="translate(931.888672 0)"/>
      <use xlink:href="#DejaVuSans-39" transform="translate(995.511719 0)"/>
     </g>
    </g>
   </g>
  </g>
 </g>
 <defs>
  <clipPath id="p3e6d76242e">
   <rect x="72" y="69.12" width="446.4" height="443.52"/>
  </clipPath>
 </defs>
</svg>
