<?xml version="1.0" encoding="utf-8" standalone="no"?>
<!DOCTYPE svg PUBLIC "-//W3C//DTD SVG 1.1//EN"
  "http://www.w3.org/Graphics/SVG/1.1/DTD/svg11.dtd">
<svg xmlns:xlink="http://www.w3.org/1999/xlink" width="1296pt" height="360pt" viewBox="0 0 1296 360" xmlns="http://www.w3.org/2000/svg" version="1.1">
 <metadata>
  <rdf:RDF xmlns:dc="http://purl.org/dc/elements/1.1/" xmlns:cc="http://creativecommons.org/ns#" xmlns:rdf="http://www.w3.org/1999/02/22-rdf-syntax-ns#">
   <cc:Work>
    <dc:type rdf:resource="http://purl.org/dc/dcmitype/StillImage"/>
    <dc:date>2025-11-12T16:49:48.614308</dc:date>
    <dc:format>image/svg+xml</dc:format>
    <dc:creator>
     <cc:Agent>
      <dc:title>Matplotlib v3.10.1, https://matplotlib.org/</dc:title>
     </cc:Agent>
    </dc:creator>
   </cc:Work>
  </rdf:RDF>
 </metadata>
 <defs>
  <style type="text/css">*{stroke-linejoin: round; stroke-linecap: butt}</style>
 </defs>
 <g id="figure_1">
  <g id="patch_1">
   <path d="M 0 360 
L 1296 360 
L 1296 0 
L 0 0 
z
" style="fill: #ffffff"/>
  </g>
  <g id="axes_1">
   <g id="patch_2">
    <path d="M 66.53 288.88 
L 1280.88 288.88 
L 1280.88 15.12 
L 66.53 15.12 
z
" style="fill: #ffffff"/>
   </g>
   <g id="patch_3">
    <path d="M 121.727727 288.88 
L 126.555517 288.88 
L 126.555517 288.157773 
L 121.727727 288.157773 
z
" clip-path="url(#p4877d646ce)" style="fill: #008000"/>
   </g>
   <g id="patch_4">
    <path d="M 137.820359 288.88 
L 142.648149 288.88 
L 142.648149 75.100921 
L 137.820359 75.100921 
z
" clip-path="url(#p4877d646ce)" style="fill: #008000"/>
   </g>
   <g id="patch_5">
    <path d="M 153.912991 288.88 
L 158.740781 288.88 
L 158.740781 288.157773 
L 153.912991 288.157773 
z
" clip-path="url(#p4877d646ce)" style="fill: #008000"/>
   </g>
   <g id="patch_6">
    <path d="M 170.005623 288.88 
L 174.833412 288.88 
L 174.833412 285.991094 
L 170.005623 285.991094 
z
" clip-path="url(#p4877d646ce)" style="fill: #008000"/>
   </g>
   <g id="patch_7">
    <path d="M 186.098255 288.88 
L 190.926044 288.88 
L 190.926044 287.435547 
L 186.098255 287.435547 
z
" clip-path="url(#p4877d646ce)" style="fill: #008000"/>
   </g>
   <g id="patch_8">
    <path d="M 202.190887 288.88 
L 207.018676 288.88 
L 207.018676 272.991014 
L 202.190887 272.991014 
z
" clip-path="url(#p4877d646ce)" style="fill: #008000"/>
   </g>
   <g id="patch_9">
    <path d="M 218.283518 288.88 
L 223.111308 288.88 
L 223.111308 288.88 
L 218.283518 288.88 
z
" clip-path="url(#p4877d646ce)" style="fill: #008000"/>
   </g>
   <g id="patch_10">
    <path d="M 234.37615 288.88 
L 239.20394 288.88 
L 239.20394 288.157773 
L 234.37615 288.157773 
z
" clip-path="url(#p4877d646ce)" style="fill: #008000"/>
   </g>
   <g id="patch_11">
    <path d="M 250.468782 288.88 
L 255.296572 288.88 
L 255.296572 241.213043 
L 250.468782 241.213043 
z
" clip-path="url(#p4877d646ce)" style="fill: #008000"/>
   </g>
   <g id="patch_12">
    <path d="M 266.561414 288.88 
L 271.389204 288.88 
L 271.389204 287.435547 
L 266.561414 287.435547 
z
" clip-path="url(#p4877d646ce)" style="fill: #008000"/>
   </g>
   <g id="patch_13">
    <path d="M 282.654046 288.88 
L 287.481835 288.88 
L 287.481835 288.157773 
L 282.654046 288.157773 
z
" clip-path="url(#p4877d646ce)" style="fill: #008000"/>
   </g>
   <g id="patch_14">
    <path d="M 298.746678 288.88 
L 303.574467 288.88 
L 303.574467 288.88 
L 298.746678 288.88 
z
" clip-path="url(#p4877d646ce)" style="fill: #008000"/>
   </g>
   <g id="patch_15">
    <path d="M 314.83931 288.88 
L 319.667099 288.88 
L 319.667099 270.824335 
L 314.83931 270.824335 
z
" clip-path="url(#p4877d646ce)" style="fill: #008000"/>
   </g>
   <g id="patch_16">
    <path d="M 330.931941 288.88 
L 335.759731 288.88 
L 335.759731 277.324374 
L 330.931941 277.324374 
z
" clip-path="url(#p4877d646ce)" style="fill: #008000"/>
   </g>
   <g id="patch_17">
    <path d="M 347.024573 288.88 
L 351.852363 288.88 
L 351.852363 275.157694 
L 347.024573 275.157694 
z
" clip-path="url(#p4877d646ce)" style="fill: #008000"/>
   </g>
   <g id="patch_18">
    <path d="M 363.117205 288.88 
L 367.944995 288.88 
L 367.944995 284.54664 
L 363.117205 284.54664 
z
" clip-path="url(#p4877d646ce)" style="fill: #008000"/>
   </g>
   <g id="patch_19">
    <path d="M 379.209837 288.88 
L 384.037627 288.88 
L 384.037627 286.71332 
L 379.209837 286.71332 
z
" clip-path="url(#p4877d646ce)" style="fill: #008000"/>
   </g>
   <g id="patch_20">
    <path d="M 395.302469 288.88 
L 400.130258 288.88 
L 400.130258 279.491054 
L 395.302469 279.491054 
z
" clip-path="url(#p4877d646ce)" style="fill: #008000"/>
   </g>
   <g id="patch_21">
    <path d="M 411.395101 288.88 
L 416.22289 288.88 
L 416.22289 288.88 
L 411.395101 288.88 
z
" clip-path="url(#p4877d646ce)" style="fill: #008000"/>
   </g>
   <g id="patch_22">
    <path d="M 427.487733 288.88 
L 432.315522 288.88 
L 432.315522 288.157773 
L 427.487733 288.157773 
z
" clip-path="url(#p4877d646ce)" style="fill: #008000"/>
   </g>
   <g id="patch_23">
    <path d="M 443.580364 288.88 
L 448.408154 288.88 
L 448.408154 126.379011 
L 443.580364 126.379011 
z
" clip-path="url(#p4877d646ce)" style="fill: #008000"/>
   </g>
   <g id="patch_24">
    <path d="M 459.672996 288.88 
L 464.500786 288.88 
L 464.500786 288.157773 
L 459.672996 288.157773 
z
" clip-path="url(#p4877d646ce)" style="fill: #008000"/>
   </g>
   <g id="patch_25">
    <path d="M 475.765628 288.88 
L 480.593418 288.88 
L 480.593418 283.824414 
L 475.765628 283.824414 
z
" clip-path="url(#p4877d646ce)" style="fill: #008000"/>
   </g>
   <g id="patch_26">
    <path d="M 491.85826 288.88 
L 496.68605 288.88 
L 496.68605 160.323662 
L 491.85826 160.323662 
z
" clip-path="url(#p4877d646ce)" style="fill: #008000"/>
   </g>
   <g id="patch_27">
    <path d="M 507.950892 288.88 
L 512.778681 288.88 
L 512.778681 103.989985 
L 507.950892 103.989985 
z
" clip-path="url(#p4877d646ce)" style="fill: #008000"/>
   </g>
   <g id="patch_28">
    <path d="M 524.043524 288.88 
L 528.871313 288.88 
L 528.871313 261.435388 
L 524.043524 261.435388 
z
" clip-path="url(#p4877d646ce)" style="fill: #008000"/>
   </g>
   <g id="patch_29">
    <path d="M 540.136156 288.88 
L 544.963945 288.88 
L 544.963945 285.268867 
L 540.136156 285.268867 
z
" clip-path="url(#p4877d646ce)" style="fill: #008000"/>
   </g>
   <g id="patch_30">
    <path d="M 556.228787 288.88 
L 561.056577 288.88 
L 561.056577 50.545216 
L 556.228787 50.545216 
z
" clip-path="url(#p4877d646ce)" style="fill: #008000"/>
   </g>
   <g id="patch_31">
    <path d="M 572.321419 288.88 
L 577.149209 288.88 
L 577.149209 271.546561 
L 572.321419 271.546561 
z
" clip-path="url(#p4877d646ce)" style="fill: #008000"/>
   </g>
   <g id="patch_32">
    <path d="M 588.414051 288.88 
L 593.241841 288.88 
L 593.241841 288.157773 
L 588.414051 288.157773 
z
" clip-path="url(#p4877d646ce)" style="fill: #008000"/>
   </g>
   <g id="patch_33">
    <path d="M 604.506683 288.88 
L 609.334473 288.88 
L 609.334473 127.101237 
L 604.506683 127.101237 
z
" clip-path="url(#p4877d646ce)" style="fill: #008000"/>
   </g>
   <g id="patch_34">
    <path d="M 620.599315 288.88 
L 625.427104 288.88 
L 625.427104 288.157773 
L 620.599315 288.157773 
z
" clip-path="url(#p4877d646ce)" style="fill: #008000"/>
   </g>
   <g id="patch_35">
    <path d="M 636.691947 288.88 
L 641.519736 288.88 
L 641.519736 288.88 
L 636.691947 288.88 
z
" clip-path="url(#p4877d646ce)" style="fill: #008000"/>
   </g>
   <g id="patch_36">
    <path d="M 652.784579 288.88 
L 657.612368 288.88 
L 657.612368 287.435547 
L 652.784579 287.435547 
z
" clip-path="url(#p4877d646ce)" style="fill: #008000"/>
   </g>
   <g id="patch_37">
    <path d="M 668.87721 288.88 
L 673.705 288.88 
L 673.705 239.76859 
L 668.87721 239.76859 
z
" clip-path="url(#p4877d646ce)" style="fill: #008000"/>
   </g>
   <g id="patch_38">
    <path d="M 684.969842 288.88 
L 689.797632 288.88 
L 689.797632 283.824414 
L 684.969842 283.824414 
z
" clip-path="url(#p4877d646ce)" style="fill: #008000"/>
   </g>
   <g id="patch_39">
    <path d="M 701.062474 288.88 
L 705.890264 288.88 
L 705.890264 259.268709 
L 701.062474 259.268709 
z
" clip-path="url(#p4877d646ce)" style="fill: #008000"/>
   </g>
   <g id="patch_40">
    <path d="M 717.155106 288.88 
L 721.982896 288.88 
L 721.982896 196.434993 
L 717.155106 196.434993 
z
" clip-path="url(#p4877d646ce)" style="fill: #008000"/>
   </g>
   <g id="patch_41">
    <path d="M 733.247738 288.88 
L 738.075527 288.88 
L 738.075527 241.93527 
L 733.247738 241.93527 
z
" clip-path="url(#p4877d646ce)" style="fill: #008000"/>
   </g>
   <g id="patch_42">
    <path d="M 749.34037 288.88 
L 754.168159 288.88 
L 754.168159 282.37996 
L 749.34037 282.37996 
z
" clip-path="url(#p4877d646ce)" style="fill: #008000"/>
   </g>
   <g id="patch_43">
    <path d="M 765.433002 288.88 
L 770.260791 288.88 
L 770.260791 288.157773 
L 765.433002 288.157773 
z
" clip-path="url(#p4877d646ce)" style="fill: #008000"/>
   </g>
   <g id="patch_44">
    <path d="M 781.525633 288.88 
L 786.353423 288.88 
L 786.353423 286.71332 
L 781.525633 286.71332 
z
" clip-path="url(#p4877d646ce)" style="fill: #008000"/>
   </g>
   <g id="patch_45">
    <path d="M 797.618265 288.88 
L 802.446055 288.88 
L 802.446055 288.88 
L 797.618265 288.88 
z
" clip-path="url(#p4877d646ce)" style="fill: #008000"/>
   </g>
   <g id="patch_46">
    <path d="M 813.710897 288.88 
L 818.538687 288.88 
L 818.538687 215.935111 
L 813.710897 215.935111 
z
" clip-path="url(#p4877d646ce)" style="fill: #008000"/>
   </g>
   <g id="patch_47">
    <path d="M 829.803529 288.88 
L 834.631319 288.88 
L 834.631319 207.268392 
L 829.803529 207.268392 
z
" clip-path="url(#p4877d646ce)" style="fill: #008000"/>
   </g>
   <g id="patch_48">
    <path d="M 845.896161 288.88 
L 850.72395 288.88 
L 850.72395 275.157694 
L 845.896161 275.157694 
z
" clip-path="url(#p4877d646ce)" style="fill: #008000"/>
   </g>
   <g id="patch_49">
    <path d="M 861.988793 288.88 
L 866.816582 288.88 
L 866.816582 286.71332 
L 861.988793 286.71332 
z
" clip-path="url(#p4877d646ce)" style="fill: #008000"/>
   </g>
   <g id="patch_50">
    <path d="M 878.081425 288.88 
L 882.909214 288.88 
L 882.909214 288.88 
L 878.081425 288.88 
z
" clip-path="url(#p4877d646ce)" style="fill: #008000"/>
   </g>
   <g id="patch_51">
    <path d="M 894.174056 288.88 
L 899.001846 288.88 
L 899.001846 282.37996 
L 894.174056 282.37996 
z
" clip-path="url(#p4877d646ce)" style="fill: #008000"/>
   </g>
   <g id="patch_52">
    <path d="M 910.266688 288.88 
L 915.094478 288.88 
L 915.094478 288.88 
L 910.266688 288.88 
z
" clip-path="url(#p4877d646ce)" style="fill: #008000"/>
   </g>
   <g id="patch_53">
    <path d="M 926.35932 288.88 
L 931.18711 288.88 
L 931.18711 288.157773 
L 926.35932 288.157773 
z
" clip-path="url(#p4877d646ce)" style="fill: #008000"/>
   </g>
   <g id="patch_54">
    <path d="M 942.451952 288.88 
L 947.279742 288.88 
L 947.279742 288.88 
L 942.451952 288.88 
z
" clip-path="url(#p4877d646ce)" style="fill: #008000"/>
   </g>
   <g id="patch_55">
    <path d="M 958.544584 288.88 
L 963.372373 288.88 
L 963.372373 283.102187 
L 958.544584 283.102187 
z
" clip-path="url(#p4877d646ce)" style="fill: #008000"/>
   </g>
   <g id="patch_56">
    <path d="M 974.637216 288.88 
L 979.465005 288.88 
L 979.465005 262.879842 
L 974.637216 262.879842 
z
" clip-path="url(#p4877d646ce)" style="fill: #008000"/>
   </g>
   <g id="patch_57">
    <path d="M 990.729848 288.88 
L 995.557637 288.88 
L 995.557637 266.490975 
L 990.729848 266.490975 
z
" clip-path="url(#p4877d646ce)" style="fill: #008000"/>
   </g>
   <g id="patch_58">
    <path d="M 1006.822479 288.88 
L 1011.650269 288.88 
L 1011.650269 285.268867 
L 1006.822479 285.268867 
z
" clip-path="url(#p4877d646ce)" style="fill: #008000"/>
   </g>
   <g id="patch_59">
    <path d="M 1022.915111 288.88 
L 1027.742901 288.88 
L 1027.742901 283.824414 
L 1022.915111 283.824414 
z
" clip-path="url(#p4877d646ce)" style="fill: #008000"/>
   </g>
   <g id="patch_60">
    <path d="M 1039.007743 288.88 
L 1043.835533 288.88 
L 1043.835533 287.435547 
L 1039.007743 287.435547 
z
" clip-path="url(#p4877d646ce)" style="fill: #008000"/>
   </g>
   <g id="patch_61">
    <path d="M 1055.100375 288.88 
L 1059.928165 288.88 
L 1059.928165 288.157773 
L 1055.100375 288.157773 
z
" clip-path="url(#p4877d646ce)" style="fill: #008000"/>
   </g>
   <g id="patch_62">
    <path d="M 1071.193007 288.88 
L 1076.020796 288.88 
L 1076.020796 269.379881 
L 1071.193007 269.379881 
z
" clip-path="url(#p4877d646ce)" style="fill: #008000"/>
   </g>
   <g id="patch_63">
    <path d="M 1087.285639 288.88 
L 1092.113428 288.88 
L 1092.113428 269.379881 
L 1087.285639 269.379881 
z
" clip-path="url(#p4877d646ce)" style="fill: #008000"/>
   </g>
   <g id="patch_64">
    <path d="M 1103.378271 288.88 
L 1108.20606 288.88 
L 1108.20606 228.212964 
L 1103.378271 228.212964 
z
" clip-path="url(#p4877d646ce)" style="fill: #008000"/>
   </g>
   <g id="patch_65">
    <path d="M 1119.470902 288.88 
L 1124.298692 288.88 
L 1124.298692 287.435547 
L 1119.470902 287.435547 
z
" clip-path="url(#p4877d646ce)" style="fill: #008000"/>
   </g>
   <g id="patch_66">
    <path d="M 1135.563534 288.88 
L 1140.391324 288.88 
L 1140.391324 287.435547 
L 1135.563534 287.435547 
z
" clip-path="url(#p4877d646ce)" style="fill: #008000"/>
   </g>
   <g id="patch_67">
    <path d="M 1151.656166 288.88 
L 1156.483956 288.88 
L 1156.483956 285.991094 
L 1151.656166 285.991094 
z
" clip-path="url(#p4877d646ce)" style="fill: #008000"/>
   </g>
   <g id="patch_68">
    <path d="M 1167.748798 288.88 
L 1172.576588 288.88 
L 1172.576588 288.157773 
L 1167.748798 288.157773 
z
" clip-path="url(#p4877d646ce)" style="fill: #008000"/>
   </g>
   <g id="patch_69">
    <path d="M 1183.84143 288.88 
L 1188.669219 288.88 
L 1188.669219 288.88 
L 1183.84143 288.88 
z
" clip-path="url(#p4877d646ce)" style="fill: #008000"/>
   </g>
   <g id="patch_70">
    <path d="M 1199.934062 288.88 
L 1204.761851 288.88 
L 1204.761851 288.88 
L 1199.934062 288.88 
z
" clip-path="url(#p4877d646ce)" style="fill: #008000"/>
   </g>
   <g id="patch_71">
    <path d="M 1216.026694 288.88 
L 1220.854483 288.88 
L 1220.854483 285.268867 
L 1216.026694 285.268867 
z
" clip-path="url(#p4877d646ce)" style="fill: #008000"/>
   </g>
   <g id="patch_72">
    <path d="M 126.555517 288.88 
L 131.383306 288.88 
L 131.383306 288.157773 
L 126.555517 288.157773 
z
" clip-path="url(#p4877d646ce)" style="fill: #800080"/>
   </g>
   <g id="patch_73">
    <path d="M 142.648149 288.88 
L 147.475938 288.88 
L 147.475938 28.15619 
L 142.648149 28.15619 
z
" clip-path="url(#p4877d646ce)" style="fill: #800080"/>
   </g>
   <g id="patch_74">
    <path d="M 158.740781 288.88 
L 163.56857 288.88 
L 163.56857 286.71332 
L 158.740781 286.71332 
z
" clip-path="url(#p4877d646ce)" style="fill: #800080"/>
   </g>
   <g id="patch_75">
    <path d="M 174.833412 288.88 
L 179.661202 288.88 
L 179.661202 275.879921 
L 174.833412 275.879921 
z
" clip-path="url(#p4877d646ce)" style="fill: #800080"/>
   </g>
   <g id="patch_76">
    <path d="M 190.926044 288.88 
L 195.753834 288.88 
L 195.753834 239.76859 
L 190.926044 239.76859 
z
" clip-path="url(#p4877d646ce)" style="fill: #800080"/>
   </g>
   <g id="patch_77">
    <path d="M 207.018676 288.88 
L 211.846466 288.88 
L 211.846466 140.823543 
L 207.018676 140.823543 
z
" clip-path="url(#p4877d646ce)" style="fill: #800080"/>
   </g>
   <g id="patch_78">
    <path d="M 223.111308 288.88 
L 227.939098 288.88 
L 227.939098 286.71332 
L 223.111308 286.71332 
z
" clip-path="url(#p4877d646ce)" style="fill: #800080"/>
   </g>
   <g id="patch_79">
    <path d="M 239.20394 288.88 
L 244.031729 288.88 
L 244.031729 282.37996 
L 239.20394 282.37996 
z
" clip-path="url(#p4877d646ce)" style="fill: #800080"/>
   </g>
   <g id="patch_80">
    <path d="M 255.296572 288.88 
L 260.124361 288.88 
L 260.124361 227.490737 
L 255.296572 227.490737 
z
" clip-path="url(#p4877d646ce)" style="fill: #800080"/>
   </g>
   <g id="patch_81">
    <path d="M 271.389204 288.88 
L 276.216993 288.88 
L 276.216993 288.157773 
L 271.389204 288.157773 
z
" clip-path="url(#p4877d646ce)" style="fill: #800080"/>
   </g>
   <g id="patch_82">
    <path d="M 287.481835 288.88 
L 292.309625 288.88 
L 292.309625 285.268867 
L 287.481835 285.268867 
z
" clip-path="url(#p4877d646ce)" style="fill: #800080"/>
   </g>
   <g id="patch_83">
    <path d="M 303.574467 288.88 
L 308.402257 288.88 
L 308.402257 284.54664 
L 303.574467 284.54664 
z
" clip-path="url(#p4877d646ce)" style="fill: #800080"/>
   </g>
   <g id="patch_84">
    <path d="M 319.667099 288.88 
L 324.494889 288.88 
L 324.494889 233.26855 
L 319.667099 233.26855 
z
" clip-path="url(#p4877d646ce)" style="fill: #800080"/>
   </g>
   <g id="patch_85">
    <path d="M 335.759731 288.88 
L 340.587521 288.88 
L 340.587521 260.713162 
L 335.759731 260.713162 
z
" clip-path="url(#p4877d646ce)" style="fill: #800080"/>
   </g>
   <g id="patch_86">
    <path d="M 351.852363 288.88 
L 356.680152 288.88 
L 356.680152 248.435309 
L 351.852363 248.435309 
z
" clip-path="url(#p4877d646ce)" style="fill: #800080"/>
   </g>
   <g id="patch_87">
    <path d="M 367.944995 288.88 
L 372.772784 288.88 
L 372.772784 279.491054 
L 367.944995 279.491054 
z
" clip-path="url(#p4877d646ce)" style="fill: #800080"/>
   </g>
   <g id="patch_88">
    <path d="M 384.037627 288.88 
L 388.865416 288.88 
L 388.865416 283.824414 
L 384.037627 283.824414 
z
" clip-path="url(#p4877d646ce)" style="fill: #800080"/>
   </g>
   <g id="patch_89">
    <path d="M 400.130258 288.88 
L 404.958048 288.88 
L 404.958048 272.991014 
L 400.130258 272.991014 
z
" clip-path="url(#p4877d646ce)" style="fill: #800080"/>
   </g>
   <g id="patch_90">
    <path d="M 416.22289 288.88 
L 421.05068 288.88 
L 421.05068 288.157773 
L 416.22289 288.157773 
z
" clip-path="url(#p4877d646ce)" style="fill: #800080"/>
   </g>
   <g id="patch_91">
    <path d="M 432.315522 288.88 
L 437.143312 288.88 
L 437.143312 288.157773 
L 432.315522 288.157773 
z
" clip-path="url(#p4877d646ce)" style="fill: #800080"/>
   </g>
   <g id="patch_92">
    <path d="M 448.408154 288.88 
L 453.235944 288.88 
L 453.235944 80.156507 
L 448.408154 80.156507 
z
" clip-path="url(#p4877d646ce)" style="fill: #800080"/>
   </g>
   <g id="patch_93">
    <path d="M 464.500786 288.88 
L 469.328575 288.88 
L 469.328575 288.157773 
L 464.500786 288.157773 
z
" clip-path="url(#p4877d646ce)" style="fill: #800080"/>
   </g>
   <g id="patch_94">
    <path d="M 480.593418 288.88 
L 485.421207 288.88 
L 485.421207 278.046601 
L 480.593418 278.046601 
z
" clip-path="url(#p4877d646ce)" style="fill: #800080"/>
   </g>
   <g id="patch_95">
    <path d="M 496.68605 288.88 
L 501.513839 288.88 
L 501.513839 135.767957 
L 496.68605 135.767957 
z
" clip-path="url(#p4877d646ce)" style="fill: #800080"/>
   </g>
   <g id="patch_96">
    <path d="M 512.778681 288.88 
L 517.606471 288.88 
L 517.606471 98.934399 
L 512.778681 98.934399 
z
" clip-path="url(#p4877d646ce)" style="fill: #800080"/>
   </g>
   <g id="patch_97">
    <path d="M 528.871313 288.88 
L 533.699103 288.88 
L 533.699103 218.101791 
L 528.871313 218.101791 
z
" clip-path="url(#p4877d646ce)" style="fill: #800080"/>
   </g>
   <g id="patch_98">
    <path d="M 544.963945 288.88 
L 549.791735 288.88 
L 549.791735 227.490737 
L 544.963945 227.490737 
z
" clip-path="url(#p4877d646ce)" style="fill: #800080"/>
   </g>
   <g id="patch_99">
    <path d="M 561.056577 288.88 
L 565.884367 288.88 
L 565.884367 35.378457 
L 561.056577 35.378457 
z
" clip-path="url(#p4877d646ce)" style="fill: #800080"/>
   </g>
   <g id="patch_100">
    <path d="M 577.149209 288.88 
L 581.976998 288.88 
L 581.976998 252.046442 
L 577.149209 252.046442 
z
" clip-path="url(#p4877d646ce)" style="fill: #800080"/>
   </g>
   <g id="patch_101">
    <path d="M 593.241841 288.88 
L 598.06963 288.88 
L 598.06963 288.157773 
L 593.241841 288.157773 
z
" clip-path="url(#p4877d646ce)" style="fill: #800080"/>
   </g>
   <g id="patch_102">
    <path d="M 609.334473 288.88 
L 614.162262 288.88 
L 614.162262 114.823385 
L 609.334473 114.823385 
z
" clip-path="url(#p4877d646ce)" style="fill: #800080"/>
   </g>
   <g id="patch_103">
    <path d="M 625.427104 288.88 
L 630.254894 288.88 
L 630.254894 288.157773 
L 625.427104 288.157773 
z
" clip-path="url(#p4877d646ce)" style="fill: #800080"/>
   </g>
   <g id="patch_104">
    <path d="M 641.519736 288.88 
L 646.347526 288.88 
L 646.347526 286.71332 
L 641.519736 286.71332 
z
" clip-path="url(#p4877d646ce)" style="fill: #800080"/>
   </g>
   <g id="patch_105">
    <path d="M 657.612368 288.88 
L 662.440158 288.88 
L 662.440158 282.37996 
L 657.612368 282.37996 
z
" clip-path="url(#p4877d646ce)" style="fill: #800080"/>
   </g>
   <g id="patch_106">
    <path d="M 673.705 288.88 
L 678.53279 288.88 
L 678.53279 236.157457 
L 673.705 236.157457 
z
" clip-path="url(#p4877d646ce)" style="fill: #800080"/>
   </g>
   <g id="patch_107">
    <path d="M 689.797632 288.88 
L 694.625421 288.88 
L 694.625421 280.213281 
L 689.797632 280.213281 
z
" clip-path="url(#p4877d646ce)" style="fill: #800080"/>
   </g>
   <g id="patch_108">
    <path d="M 705.890264 288.88 
L 710.718053 288.88 
L 710.718053 259.268709 
L 705.890264 259.268709 
z
" clip-path="url(#p4877d646ce)" style="fill: #800080"/>
   </g>
   <g id="patch_109">
    <path d="M 721.982896 288.88 
L 726.810685 288.88 
L 726.810685 179.101554 
L 721.982896 179.101554 
z
" clip-path="url(#p4877d646ce)" style="fill: #800080"/>
   </g>
   <g id="patch_110">
    <path d="M 738.075527 288.88 
L 742.903317 288.88 
L 742.903317 241.93527 
L 738.075527 241.93527 
z
" clip-path="url(#p4877d646ce)" style="fill: #800080"/>
   </g>
   <g id="patch_111">
    <path d="M 754.168159 288.88 
L 758.995949 288.88 
L 758.995949 275.157694 
L 754.168159 275.157694 
z
" clip-path="url(#p4877d646ce)" style="fill: #800080"/>
   </g>
   <g id="patch_112">
    <path d="M 770.260791 288.88 
L 775.088581 288.88 
L 775.088581 288.157773 
L 770.260791 288.157773 
z
" clip-path="url(#p4877d646ce)" style="fill: #800080"/>
   </g>
   <g id="patch_113">
    <path d="M 786.353423 288.88 
L 791.181213 288.88 
L 791.181213 285.991094 
L 786.353423 285.991094 
z
" clip-path="url(#p4877d646ce)" style="fill: #800080"/>
   </g>
   <g id="patch_114">
    <path d="M 802.446055 288.88 
L 807.273844 288.88 
L 807.273844 288.157773 
L 802.446055 288.157773 
z
" clip-path="url(#p4877d646ce)" style="fill: #800080"/>
   </g>
   <g id="patch_115">
    <path d="M 818.538687 288.88 
L 823.366476 288.88 
L 823.366476 176.212647 
L 818.538687 176.212647 
z
" clip-path="url(#p4877d646ce)" style="fill: #800080"/>
   </g>
   <g id="patch_116">
    <path d="M 834.631319 288.88 
L 839.459108 288.88 
L 839.459108 81.60096 
L 834.631319 81.60096 
z
" clip-path="url(#p4877d646ce)" style="fill: #800080"/>
   </g>
   <g id="patch_117">
    <path d="M 850.72395 288.88 
L 855.55174 288.88 
L 855.55174 263.602068 
L 850.72395 263.602068 
z
" clip-path="url(#p4877d646ce)" style="fill: #800080"/>
   </g>
   <g id="patch_118">
    <path d="M 866.816582 288.88 
L 871.644372 288.88 
L 871.644372 275.879921 
L 866.816582 275.879921 
z
" clip-path="url(#p4877d646ce)" style="fill: #800080"/>
   </g>
   <g id="patch_119">
    <path d="M 882.909214 288.88 
L 887.737004 288.88 
L 887.737004 288.157773 
L 882.909214 288.157773 
z
" clip-path="url(#p4877d646ce)" style="fill: #800080"/>
   </g>
   <g id="patch_120">
    <path d="M 899.001846 288.88 
L 903.829636 288.88 
L 903.829636 282.37996 
L 899.001846 282.37996 
z
" clip-path="url(#p4877d646ce)" style="fill: #800080"/>
   </g>
   <g id="patch_121">
    <path d="M 915.094478 288.88 
L 919.922267 288.88 
L 919.922267 283.824414 
L 915.094478 283.824414 
z
" clip-path="url(#p4877d646ce)" style="fill: #800080"/>
   </g>
   <g id="patch_122">
    <path d="M 931.18711 288.88 
L 936.014899 288.88 
L 936.014899 288.157773 
L 931.18711 288.157773 
z
" clip-path="url(#p4877d646ce)" style="fill: #800080"/>
   </g>
   <g id="patch_123">
    <path d="M 947.279742 288.88 
L 952.107531 288.88 
L 952.107531 288.157773 
L 947.279742 288.157773 
z
" clip-path="url(#p4877d646ce)" style="fill: #800080"/>
   </g>
   <g id="patch_124">
    <path d="M 963.372373 288.88 
L 968.200163 288.88 
L 968.200163 278.046601 
L 963.372373 278.046601 
z
" clip-path="url(#p4877d646ce)" style="fill: #800080"/>
   </g>
   <g id="patch_125">
    <path d="M 979.465005 288.88 
L 984.292795 288.88 
L 984.292795 246.268629 
L 979.465005 246.268629 
z
" clip-path="url(#p4877d646ce)" style="fill: #800080"/>
   </g>
   <g id="patch_126">
    <path d="M 995.557637 288.88 
L 1000.385427 288.88 
L 1000.385427 241.213043 
L 995.557637 241.213043 
z
" clip-path="url(#p4877d646ce)" style="fill: #800080"/>
   </g>
   <g id="patch_127">
    <path d="M 1011.650269 288.88 
L 1016.478059 288.88 
L 1016.478059 272.991014 
L 1011.650269 272.991014 
z
" clip-path="url(#p4877d646ce)" style="fill: #800080"/>
   </g>
   <g id="patch_128">
    <path d="M 1027.742901 288.88 
L 1032.57069 288.88 
L 1032.57069 283.824414 
L 1027.742901 283.824414 
z
" clip-path="url(#p4877d646ce)" style="fill: #800080"/>
   </g>
   <g id="patch_129">
    <path d="M 1043.835533 288.88 
L 1048.663322 288.88 
L 1048.663322 287.435547 
L 1043.835533 287.435547 
z
" clip-path="url(#p4877d646ce)" style="fill: #800080"/>
   </g>
   <g id="patch_130">
    <path d="M 1059.928165 288.88 
L 1064.755954 288.88 
L 1064.755954 288.157773 
L 1059.928165 288.157773 
z
" clip-path="url(#p4877d646ce)" style="fill: #800080"/>
   </g>
   <g id="patch_131">
    <path d="M 1076.020796 288.88 
L 1080.848586 288.88 
L 1080.848586 269.379881 
L 1076.020796 269.379881 
z
" clip-path="url(#p4877d646ce)" style="fill: #800080"/>
   </g>
   <g id="patch_132">
    <path d="M 1092.113428 288.88 
L 1096.941218 288.88 
L 1096.941218 244.824176 
L 1092.113428 244.824176 
z
" clip-path="url(#p4877d646ce)" style="fill: #800080"/>
   </g>
   <g id="patch_133">
    <path d="M 1108.20606 288.88 
L 1113.03385 288.88 
L 1113.03385 226.046284 
L 1108.20606 226.046284 
z
" clip-path="url(#p4877d646ce)" style="fill: #800080"/>
   </g>
   <g id="patch_134">
    <path d="M 1124.298692 288.88 
L 1129.126482 288.88 
L 1129.126482 285.268867 
L 1124.298692 285.268867 
z
" clip-path="url(#p4877d646ce)" style="fill: #800080"/>
   </g>
   <g id="patch_135">
    <path d="M 1140.391324 288.88 
L 1145.219113 288.88 
L 1145.219113 287.435547 
L 1140.391324 287.435547 
z
" clip-path="url(#p4877d646ce)" style="fill: #800080"/>
   </g>
   <g id="patch_136">
    <path d="M 1156.483956 288.88 
L 1161.311745 288.88 
L 1161.311745 285.268867 
L 1156.483956 285.268867 
z
" clip-path="url(#p4877d646ce)" style="fill: #800080"/>
   </g>
   <g id="patch_137">
    <path d="M 1172.576588 288.88 
L 1177.404377 288.88 
L 1177.404377 285.991094 
L 1172.576588 285.991094 
z
" clip-path="url(#p4877d646ce)" style="fill: #800080"/>
   </g>
   <g id="patch_138">
    <path d="M 1188.669219 288.88 
L 1193.497009 288.88 
L 1193.497009 283.102187 
L 1188.669219 283.102187 
z
" clip-path="url(#p4877d646ce)" style="fill: #800080"/>
   </g>
   <g id="patch_139">
    <path d="M 1204.761851 288.88 
L 1209.589641 288.88 
L 1209.589641 282.37996 
L 1204.761851 282.37996 
z
" clip-path="url(#p4877d646ce)" style="fill: #800080"/>
   </g>
   <g id="patch_140">
    <path d="M 1220.854483 288.88 
L 1225.682273 288.88 
L 1225.682273 280.935507 
L 1220.854483 280.935507 
z
" clip-path="url(#p4877d646ce)" style="fill: #800080"/>
   </g>
   <g id="matplotlib.axis_1">
    <g id="xtick_1">
     <g id="line2d_1">
      <defs>
       <path id="maabc374810" d="M 0 0 
L 0 3.5 
" style="stroke: #000000; stroke-width: 0.8"/>
      </defs>
      <g>
       <use xlink:href="#maabc374810" x="126.555517" y="288.88" style="stroke: #000000; stroke-width: 0.8"/>
      </g>
     </g>
     <g id="text_1">
      <!-- 1.- -->
      <g transform="translate(130.418642 314.287812) rotate(-90) scale(0.14 -0.14)">
       <defs>
        <path id="DejaVuSans-31" d="M 794 531 
L 1825 531 
L 1825 4091 
L 703 3866 
L 703 4441 
L 1819 4666 
L 2450 4666 
L 2450 531 
L 3481 531 
L 3481 0 
L 794 0 
L 794 531 
z
" transform="scale(0.015625)"/>
        <path id="DejaVuSans-2e" d="M 684 794 
L 1344 794 
L 1344 0 
L 684 0 
L 684 794 
z
" transform="scale(0.015625)"/>
        <path id="DejaVuSans-2d" d="M 313 2009 
L 1997 2009 
L 1997 1497 
L 313 1497 
L 313 2009 
z
" transform="scale(0.015625)"/>
       </defs>
       <use xlink:href="#DejaVuSans-31"/>
       <use xlink:href="#DejaVuSans-2e" transform="translate(63.623047 0)"/>
       <use xlink:href="#DejaVuSans-2d" transform="translate(95.410156 0)"/>
      </g>
     </g>
    </g>
    <g id="xtick_2">
     <g id="line2d_2">
      <g>
       <use xlink:href="#maabc374810" x="142.648149" y="288.88" style="stroke: #000000; stroke-width: 0.8"/>
      </g>
     </g>
     <g id="text_2">
      <!-- 1.1 -->
      <g transform="translate(146.511274 318.144375) rotate(-90) scale(0.14 -0.14)">
       <use xlink:href="#DejaVuSans-31"/>
       <use xlink:href="#DejaVuSans-2e" transform="translate(63.623047 0)"/>
       <use xlink:href="#DejaVuSans-31" transform="translate(95.410156 0)"/>
      </g>
     </g>
    </g>
    <g id="xtick_3">
     <g id="line2d_3">
      <g>
       <use xlink:href="#maabc374810" x="158.740781" y="288.88" style="stroke: #000000; stroke-width: 0.8"/>
      </g>
     </g>
     <g id="text_3">
      <!-- 1.10 -->
      <g transform="translate(162.603906 327.051875) rotate(-90) scale(0.14 -0.14)">
       <defs>
        <path id="DejaVuSans-30" d="M 2034 4250 
Q 1547 4250 1301 3770 
Q 1056 3291 1056 2328 
Q 1056 1369 1301 889 
Q 1547 409 2034 409 
Q 2525 409 2770 889 
Q 3016 1369 3016 2328 
Q 3016 3291 2770 3770 
Q 2525 4250 2034 4250 
z
M 2034 4750 
Q 2819 4750 3233 4129 
Q 3647 3509 3647 2328 
Q 3647 1150 3233 529 
Q 2819 -91 2034 -91 
Q 1250 -91 836 529 
Q 422 1150 422 2328 
Q 422 3509 836 4129 
Q 1250 4750 2034 4750 
z
" transform="scale(0.015625)"/>
       </defs>
       <use xlink:href="#DejaVuSans-31"/>
       <use xlink:href="#DejaVuSans-2e" transform="translate(63.623047 0)"/>
       <use xlink:href="#DejaVuSans-31" transform="translate(95.410156 0)"/>
       <use xlink:href="#DejaVuSans-30" transform="translate(159.033203 0)"/>
      </g>
     </g>
    </g>
    <g id="xtick_4">
     <g id="line2d_4">
      <g>
       <use xlink:href="#maabc374810" x="174.833412" y="288.88" style="stroke: #000000; stroke-width: 0.8"/>
      </g>
     </g>
     <g id="text_4">
      <!-- 1.11 -->
      <g transform="translate(178.696537 327.051875) rotate(-90) scale(0.14 -0.14)">
       <use xlink:href="#DejaVuSans-31"/>
       <use xlink:href="#DejaVuSans-2e" transform="translate(63.623047 0)"/>
       <use xlink:href="#DejaVuSans-31" transform="translate(95.410156 0)"/>
       <use xlink:href="#DejaVuSans-31" transform="translate(159.033203 0)"/>
      </g>
     </g>
    </g>
    <g id="xtick_5">
     <g id="line2d_5">
      <g>
       <use xlink:href="#maabc374810" x="190.926044" y="288.88" style="stroke: #000000; stroke-width: 0.8"/>
      </g>
     </g>
     <g id="text_5">
      <!-- 1.13 -->
      <g transform="translate(194.789169 327.051875) rotate(-90) scale(0.14 -0.14)">
       <defs>
        <path id="DejaVuSans-33" d="M 2597 2516 
Q 3050 2419 3304 2112 
Q 3559 1806 3559 1356 
Q 3559 666 3084 287 
Q 2609 -91 1734 -91 
Q 1441 -91 1130 -33 
Q 819 25 488 141 
L 488 750 
Q 750 597 1062 519 
Q 1375 441 1716 441 
Q 2309 441 2620 675 
Q 2931 909 2931 1356 
Q 2931 1769 2642 2001 
Q 2353 2234 1838 2234 
L 1294 2234 
L 1294 2753 
L 1863 2753 
Q 2328 2753 2575 2939 
Q 2822 3125 2822 3475 
Q 2822 3834 2567 4026 
Q 2313 4219 1838 4219 
Q 1578 4219 1281 4162 
Q 984 4106 628 3988 
L 628 4550 
Q 988 4650 1302 4700 
Q 1616 4750 1894 4750 
Q 2613 4750 3031 4423 
Q 3450 4097 3450 3541 
Q 3450 3153 3228 2886 
Q 3006 2619 2597 2516 
z
" transform="scale(0.015625)"/>
       </defs>
       <use xlink:href="#DejaVuSans-31"/>
       <use xlink:href="#DejaVuSans-2e" transform="translate(63.623047 0)"/>
       <use xlink:href="#DejaVuSans-31" transform="translate(95.410156 0)"/>
       <use xlink:href="#DejaVuSans-33" transform="translate(159.033203 0)"/>
      </g>
     </g>
    </g>
    <g id="xtick_6">
     <g id="line2d_6">
      <g>
       <use xlink:href="#maabc374810" x="207.018676" y="288.88" style="stroke: #000000; stroke-width: 0.8"/>
      </g>
     </g>
     <g id="text_6">
      <!-- 1.14 -->
      <g transform="translate(210.881801 327.051875) rotate(-90) scale(0.14 -0.14)">
       <defs>
        <path id="DejaVuSans-34" d="M 2419 4116 
L 825 1625 
L 2419 1625 
L 2419 4116 
z
M 2253 4666 
L 3047 4666 
L 3047 1625 
L 3713 1625 
L 3713 1100 
L 3047 1100 
L 3047 0 
L 2419 0 
L 2419 1100 
L 313 1100 
L 313 1709 
L 2253 4666 
z
" transform="scale(0.015625)"/>
       </defs>
       <use xlink:href="#DejaVuSans-31"/>
       <use xlink:href="#DejaVuSans-2e" transform="translate(63.623047 0)"/>
       <use xlink:href="#DejaVuSans-31" transform="translate(95.410156 0)"/>
       <use xlink:href="#DejaVuSans-34" transform="translate(159.033203 0)"/>
      </g>
     </g>
    </g>
    <g id="xtick_7">
     <g id="line2d_7">
      <g>
       <use xlink:href="#maabc374810" x="223.111308" y="288.88" style="stroke: #000000; stroke-width: 0.8"/>
      </g>
     </g>
     <g id="text_7">
      <!-- 1.16 -->
      <g transform="translate(226.974433 327.051875) rotate(-90) scale(0.14 -0.14)">
       <defs>
        <path id="DejaVuSans-36" d="M 2113 2584 
Q 1688 2584 1439 2293 
Q 1191 2003 1191 1497 
Q 1191 994 1439 701 
Q 1688 409 2113 409 
Q 2538 409 2786 701 
Q 3034 994 3034 1497 
Q 3034 2003 2786 2293 
Q 2538 2584 2113 2584 
z
M 3366 4563 
L 3366 3988 
Q 3128 4100 2886 4159 
Q 2644 4219 2406 4219 
Q 1781 4219 1451 3797 
Q 1122 3375 1075 2522 
Q 1259 2794 1537 2939 
Q 1816 3084 2150 3084 
Q 2853 3084 3261 2657 
Q 3669 2231 3669 1497 
Q 3669 778 3244 343 
Q 2819 -91 2113 -91 
Q 1303 -91 875 529 
Q 447 1150 447 2328 
Q 447 3434 972 4092 
Q 1497 4750 2381 4750 
Q 2619 4750 2861 4703 
Q 3103 4656 3366 4563 
z
" transform="scale(0.015625)"/>
       </defs>
       <use xlink:href="#DejaVuSans-31"/>
       <use xlink:href="#DejaVuSans-2e" transform="translate(63.623047 0)"/>
       <use xlink:href="#DejaVuSans-31" transform="translate(95.410156 0)"/>
       <use xlink:href="#DejaVuSans-36" transform="translate(159.033203 0)"/>
      </g>
     </g>
    </g>
    <g id="xtick_8">
     <g id="line2d_8">
      <g>
       <use xlink:href="#maabc374810" x="239.20394" y="288.88" style="stroke: #000000; stroke-width: 0.8"/>
      </g>
     </g>
     <g id="text_8">
      <!-- 1.17 -->
      <g transform="translate(243.067065 327.051875) rotate(-90) scale(0.14 -0.14)">
       <defs>
        <path id="DejaVuSans-37" d="M 525 4666 
L 3525 4666 
L 3525 4397 
L 1831 0 
L 1172 0 
L 2766 4134 
L 525 4134 
L 525 4666 
z
" transform="scale(0.015625)"/>
       </defs>
       <use xlink:href="#DejaVuSans-31"/>
       <use xlink:href="#DejaVuSans-2e" transform="translate(63.623047 0)"/>
       <use xlink:href="#DejaVuSans-31" transform="translate(95.410156 0)"/>
       <use xlink:href="#DejaVuSans-37" transform="translate(159.033203 0)"/>
      </g>
     </g>
    </g>
    <g id="xtick_9">
     <g id="line2d_9">
      <g>
       <use xlink:href="#maabc374810" x="255.296572" y="288.88" style="stroke: #000000; stroke-width: 0.8"/>
      </g>
     </g>
     <g id="text_9">
      <!-- 1.2 -->
      <g transform="translate(259.159697 318.144375) rotate(-90) scale(0.14 -0.14)">
       <defs>
        <path id="DejaVuSans-32" d="M 1228 531 
L 3431 531 
L 3431 0 
L 469 0 
L 469 531 
Q 828 903 1448 1529 
Q 2069 2156 2228 2338 
Q 2531 2678 2651 2914 
Q 2772 3150 2772 3378 
Q 2772 3750 2511 3984 
Q 2250 4219 1831 4219 
Q 1534 4219 1204 4116 
Q 875 4013 500 3803 
L 500 4441 
Q 881 4594 1212 4672 
Q 1544 4750 1819 4750 
Q 2544 4750 2975 4387 
Q 3406 4025 3406 3419 
Q 3406 3131 3298 2873 
Q 3191 2616 2906 2266 
Q 2828 2175 2409 1742 
Q 1991 1309 1228 531 
z
" transform="scale(0.015625)"/>
       </defs>
       <use xlink:href="#DejaVuSans-31"/>
       <use xlink:href="#DejaVuSans-2e" transform="translate(63.623047 0)"/>
       <use xlink:href="#DejaVuSans-32" transform="translate(95.410156 0)"/>
      </g>
     </g>
    </g>
    <g id="xtick_10">
     <g id="line2d_10">
      <g>
       <use xlink:href="#maabc374810" x="271.389204" y="288.88" style="stroke: #000000; stroke-width: 0.8"/>
      </g>
     </g>
     <g id="text_10">
      <!-- 1.20 -->
      <g transform="translate(275.252329 327.051875) rotate(-90) scale(0.14 -0.14)">
       <use xlink:href="#DejaVuSans-31"/>
       <use xlink:href="#DejaVuSans-2e" transform="translate(63.623047 0)"/>
       <use xlink:href="#DejaVuSans-32" transform="translate(95.410156 0)"/>
       <use xlink:href="#DejaVuSans-30" transform="translate(159.033203 0)"/>
      </g>
     </g>
    </g>
    <g id="xtick_11">
     <g id="line2d_11">
      <g>
       <use xlink:href="#maabc374810" x="287.481835" y="288.88" style="stroke: #000000; stroke-width: 0.8"/>
      </g>
     </g>
     <g id="text_11">
      <!-- 1.21 -->
      <g transform="translate(291.34496 327.051875) rotate(-90) scale(0.14 -0.14)">
       <use xlink:href="#DejaVuSans-31"/>
       <use xlink:href="#DejaVuSans-2e" transform="translate(63.623047 0)"/>
       <use xlink:href="#DejaVuSans-32" transform="translate(95.410156 0)"/>
       <use xlink:href="#DejaVuSans-31" transform="translate(159.033203 0)"/>
      </g>
     </g>
    </g>
    <g id="xtick_12">
     <g id="line2d_12">
      <g>
       <use xlink:href="#maabc374810" x="303.574467" y="288.88" style="stroke: #000000; stroke-width: 0.8"/>
      </g>
     </g>
     <g id="text_12">
      <!-- 1.23 -->
      <g transform="translate(307.437592 327.051875) rotate(-90) scale(0.14 -0.14)">
       <use xlink:href="#DejaVuSans-31"/>
       <use xlink:href="#DejaVuSans-2e" transform="translate(63.623047 0)"/>
       <use xlink:href="#DejaVuSans-32" transform="translate(95.410156 0)"/>
       <use xlink:href="#DejaVuSans-33" transform="translate(159.033203 0)"/>
      </g>
     </g>
    </g>
    <g id="xtick_13">
     <g id="line2d_13">
      <g>
       <use xlink:href="#maabc374810" x="319.667099" y="288.88" style="stroke: #000000; stroke-width: 0.8"/>
      </g>
     </g>
     <g id="text_13">
      <!-- 1.3 -->
      <g transform="translate(323.530224 318.144375) rotate(-90) scale(0.14 -0.14)">
       <use xlink:href="#DejaVuSans-31"/>
       <use xlink:href="#DejaVuSans-2e" transform="translate(63.623047 0)"/>
       <use xlink:href="#DejaVuSans-33" transform="translate(95.410156 0)"/>
      </g>
     </g>
    </g>
    <g id="xtick_14">
     <g id="line2d_14">
      <g>
       <use xlink:href="#maabc374810" x="335.759731" y="288.88" style="stroke: #000000; stroke-width: 0.8"/>
      </g>
     </g>
     <g id="text_14">
      <!-- 1.4 -->
      <g transform="translate(339.622856 318.144375) rotate(-90) scale(0.14 -0.14)">
       <use xlink:href="#DejaVuSans-31"/>
       <use xlink:href="#DejaVuSans-2e" transform="translate(63.623047 0)"/>
       <use xlink:href="#DejaVuSans-34" transform="translate(95.410156 0)"/>
      </g>
     </g>
    </g>
    <g id="xtick_15">
     <g id="line2d_15">
      <g>
       <use xlink:href="#maabc374810" x="351.852363" y="288.88" style="stroke: #000000; stroke-width: 0.8"/>
      </g>
     </g>
     <g id="text_15">
      <!-- 1.5 -->
      <g transform="translate(355.715488 318.144375) rotate(-90) scale(0.14 -0.14)">
       <defs>
        <path id="DejaVuSans-35" d="M 691 4666 
L 3169 4666 
L 3169 4134 
L 1269 4134 
L 1269 2991 
Q 1406 3038 1543 3061 
Q 1681 3084 1819 3084 
Q 2600 3084 3056 2656 
Q 3513 2228 3513 1497 
Q 3513 744 3044 326 
Q 2575 -91 1722 -91 
Q 1428 -91 1123 -41 
Q 819 9 494 109 
L 494 744 
Q 775 591 1075 516 
Q 1375 441 1709 441 
Q 2250 441 2565 725 
Q 2881 1009 2881 1497 
Q 2881 1984 2565 2268 
Q 2250 2553 1709 2553 
Q 1456 2553 1204 2497 
Q 953 2441 691 2322 
L 691 4666 
z
" transform="scale(0.015625)"/>
       </defs>
       <use xlink:href="#DejaVuSans-31"/>
       <use xlink:href="#DejaVuSans-2e" transform="translate(63.623047 0)"/>
       <use xlink:href="#DejaVuSans-35" transform="translate(95.410156 0)"/>
      </g>
     </g>
    </g>
    <g id="xtick_16">
     <g id="line2d_16">
      <g>
       <use xlink:href="#maabc374810" x="367.944995" y="288.88" style="stroke: #000000; stroke-width: 0.8"/>
      </g>
     </g>
     <g id="text_16">
      <!-- 1.6 -->
      <g transform="translate(371.80812 318.144375) rotate(-90) scale(0.14 -0.14)">
       <use xlink:href="#DejaVuSans-31"/>
       <use xlink:href="#DejaVuSans-2e" transform="translate(63.623047 0)"/>
       <use xlink:href="#DejaVuSans-36" transform="translate(95.410156 0)"/>
      </g>
     </g>
    </g>
    <g id="xtick_17">
     <g id="line2d_17">
      <g>
       <use xlink:href="#maabc374810" x="384.037627" y="288.88" style="stroke: #000000; stroke-width: 0.8"/>
      </g>
     </g>
     <g id="text_17">
      <!-- 1.7 -->
      <g transform="translate(387.900752 318.144375) rotate(-90) scale(0.14 -0.14)">
       <use xlink:href="#DejaVuSans-31"/>
       <use xlink:href="#DejaVuSans-2e" transform="translate(63.623047 0)"/>
       <use xlink:href="#DejaVuSans-37" transform="translate(95.410156 0)"/>
      </g>
     </g>
    </g>
    <g id="xtick_18">
     <g id="line2d_18">
      <g>
       <use xlink:href="#maabc374810" x="400.130258" y="288.88" style="stroke: #000000; stroke-width: 0.8"/>
      </g>
     </g>
     <g id="text_18">
      <!-- 1.8 -->
      <g transform="translate(403.993383 318.144375) rotate(-90) scale(0.14 -0.14)">
       <defs>
        <path id="DejaVuSans-38" d="M 2034 2216 
Q 1584 2216 1326 1975 
Q 1069 1734 1069 1313 
Q 1069 891 1326 650 
Q 1584 409 2034 409 
Q 2484 409 2743 651 
Q 3003 894 3003 1313 
Q 3003 1734 2745 1975 
Q 2488 2216 2034 2216 
z
M 1403 2484 
Q 997 2584 770 2862 
Q 544 3141 544 3541 
Q 544 4100 942 4425 
Q 1341 4750 2034 4750 
Q 2731 4750 3128 4425 
Q 3525 4100 3525 3541 
Q 3525 3141 3298 2862 
Q 3072 2584 2669 2484 
Q 3125 2378 3379 2068 
Q 3634 1759 3634 1313 
Q 3634 634 3220 271 
Q 2806 -91 2034 -91 
Q 1263 -91 848 271 
Q 434 634 434 1313 
Q 434 1759 690 2068 
Q 947 2378 1403 2484 
z
M 1172 3481 
Q 1172 3119 1398 2916 
Q 1625 2713 2034 2713 
Q 2441 2713 2670 2916 
Q 2900 3119 2900 3481 
Q 2900 3844 2670 4047 
Q 2441 4250 2034 4250 
Q 1625 4250 1398 4047 
Q 1172 3844 1172 3481 
z
" transform="scale(0.015625)"/>
       </defs>
       <use xlink:href="#DejaVuSans-31"/>
       <use xlink:href="#DejaVuSans-2e" transform="translate(63.623047 0)"/>
       <use xlink:href="#DejaVuSans-38" transform="translate(95.410156 0)"/>
      </g>
     </g>
    </g>
    <g id="xtick_19">
     <g id="line2d_19">
      <g>
       <use xlink:href="#maabc374810" x="416.22289" y="288.88" style="stroke: #000000; stroke-width: 0.8"/>
      </g>
     </g>
     <g id="text_19">
      <!-- 1.97 -->
      <g transform="translate(420.086015 327.051875) rotate(-90) scale(0.14 -0.14)">
       <defs>
        <path id="DejaVuSans-39" d="M 703 97 
L 703 672 
Q 941 559 1184 500 
Q 1428 441 1663 441 
Q 2288 441 2617 861 
Q 2947 1281 2994 2138 
Q 2813 1869 2534 1725 
Q 2256 1581 1919 1581 
Q 1219 1581 811 2004 
Q 403 2428 403 3163 
Q 403 3881 828 4315 
Q 1253 4750 1959 4750 
Q 2769 4750 3195 4129 
Q 3622 3509 3622 2328 
Q 3622 1225 3098 567 
Q 2575 -91 1691 -91 
Q 1453 -91 1209 -44 
Q 966 3 703 97 
z
M 1959 2075 
Q 2384 2075 2632 2365 
Q 2881 2656 2881 3163 
Q 2881 3666 2632 3958 
Q 2384 4250 1959 4250 
Q 1534 4250 1286 3958 
Q 1038 3666 1038 3163 
Q 1038 2656 1286 2365 
Q 1534 2075 1959 2075 
z
" transform="scale(0.015625)"/>
       </defs>
       <use xlink:href="#DejaVuSans-31"/>
       <use xlink:href="#DejaVuSans-2e" transform="translate(63.623047 0)"/>
       <use xlink:href="#DejaVuSans-39" transform="translate(95.410156 0)"/>
       <use xlink:href="#DejaVuSans-37" transform="translate(159.033203 0)"/>
      </g>
     </g>
    </g>
    <g id="xtick_20">
     <g id="line2d_20">
      <g>
       <use xlink:href="#maabc374810" x="432.315522" y="288.88" style="stroke: #000000; stroke-width: 0.8"/>
      </g>
     </g>
     <g id="text_20">
      <!-- 2.- -->
      <g transform="translate(436.178647 314.287812) rotate(-90) scale(0.14 -0.14)">
       <use xlink:href="#DejaVuSans-32"/>
       <use xlink:href="#DejaVuSans-2e" transform="translate(63.623047 0)"/>
       <use xlink:href="#DejaVuSans-2d" transform="translate(95.410156 0)"/>
      </g>
     </g>
    </g>
    <g id="xtick_21">
     <g id="line2d_21">
      <g>
       <use xlink:href="#maabc374810" x="448.408154" y="288.88" style="stroke: #000000; stroke-width: 0.8"/>
      </g>
     </g>
     <g id="text_21">
      <!-- 2.1 -->
      <g transform="translate(452.271279 318.144375) rotate(-90) scale(0.14 -0.14)">
       <use xlink:href="#DejaVuSans-32"/>
       <use xlink:href="#DejaVuSans-2e" transform="translate(63.623047 0)"/>
       <use xlink:href="#DejaVuSans-31" transform="translate(95.410156 0)"/>
      </g>
     </g>
    </g>
    <g id="xtick_22">
     <g id="line2d_22">
      <g>
       <use xlink:href="#maabc374810" x="464.500786" y="288.88" style="stroke: #000000; stroke-width: 0.8"/>
      </g>
     </g>
     <g id="text_22">
      <!-- 2.10 -->
      <g transform="translate(468.363911 327.051875) rotate(-90) scale(0.14 -0.14)">
       <use xlink:href="#DejaVuSans-32"/>
       <use xlink:href="#DejaVuSans-2e" transform="translate(63.623047 0)"/>
       <use xlink:href="#DejaVuSans-31" transform="translate(95.410156 0)"/>
       <use xlink:href="#DejaVuSans-30" transform="translate(159.033203 0)"/>
      </g>
     </g>
    </g>
    <g id="xtick_23">
     <g id="line2d_23">
      <g>
       <use xlink:href="#maabc374810" x="480.593418" y="288.88" style="stroke: #000000; stroke-width: 0.8"/>
      </g>
     </g>
     <g id="text_23">
      <!-- 2.2 -->
      <g transform="translate(484.456543 318.144375) rotate(-90) scale(0.14 -0.14)">
       <use xlink:href="#DejaVuSans-32"/>
       <use xlink:href="#DejaVuSans-2e" transform="translate(63.623047 0)"/>
       <use xlink:href="#DejaVuSans-32" transform="translate(95.410156 0)"/>
      </g>
     </g>
    </g>
    <g id="xtick_24">
     <g id="line2d_24">
      <g>
       <use xlink:href="#maabc374810" x="496.68605" y="288.88" style="stroke: #000000; stroke-width: 0.8"/>
      </g>
     </g>
     <g id="text_24">
      <!-- 2.3 -->
      <g transform="translate(500.549175 318.144375) rotate(-90) scale(0.14 -0.14)">
       <use xlink:href="#DejaVuSans-32"/>
       <use xlink:href="#DejaVuSans-2e" transform="translate(63.623047 0)"/>
       <use xlink:href="#DejaVuSans-33" transform="translate(95.410156 0)"/>
      </g>
     </g>
    </g>
    <g id="xtick_25">
     <g id="line2d_25">
      <g>
       <use xlink:href="#maabc374810" x="512.778681" y="288.88" style="stroke: #000000; stroke-width: 0.8"/>
      </g>
     </g>
     <g id="text_25">
      <!-- 2.4 -->
      <g transform="translate(516.641806 318.144375) rotate(-90) scale(0.14 -0.14)">
       <use xlink:href="#DejaVuSans-32"/>
       <use xlink:href="#DejaVuSans-2e" transform="translate(63.623047 0)"/>
       <use xlink:href="#DejaVuSans-34" transform="translate(95.410156 0)"/>
      </g>
     </g>
    </g>
    <g id="xtick_26">
     <g id="line2d_26">
      <g>
       <use xlink:href="#maabc374810" x="528.871313" y="288.88" style="stroke: #000000; stroke-width: 0.8"/>
      </g>
     </g>
     <g id="text_26">
      <!-- 2.5 -->
      <g transform="translate(532.734438 318.144375) rotate(-90) scale(0.14 -0.14)">
       <use xlink:href="#DejaVuSans-32"/>
       <use xlink:href="#DejaVuSans-2e" transform="translate(63.623047 0)"/>
       <use xlink:href="#DejaVuSans-35" transform="translate(95.410156 0)"/>
      </g>
     </g>
    </g>
    <g id="xtick_27">
     <g id="line2d_27">
      <g>
       <use xlink:href="#maabc374810" x="544.963945" y="288.88" style="stroke: #000000; stroke-width: 0.8"/>
      </g>
     </g>
     <g id="text_27">
      <!-- 2.6 -->
      <g transform="translate(548.82707 318.144375) rotate(-90) scale(0.14 -0.14)">
       <use xlink:href="#DejaVuSans-32"/>
       <use xlink:href="#DejaVuSans-2e" transform="translate(63.623047 0)"/>
       <use xlink:href="#DejaVuSans-36" transform="translate(95.410156 0)"/>
      </g>
     </g>
    </g>
    <g id="xtick_28">
     <g id="line2d_28">
      <g>
       <use xlink:href="#maabc374810" x="561.056577" y="288.88" style="stroke: #000000; stroke-width: 0.8"/>
      </g>
     </g>
     <g id="text_28">
      <!-- 2.7 -->
      <g transform="translate(564.919702 318.144375) rotate(-90) scale(0.14 -0.14)">
       <use xlink:href="#DejaVuSans-32"/>
       <use xlink:href="#DejaVuSans-2e" transform="translate(63.623047 0)"/>
       <use xlink:href="#DejaVuSans-37" transform="translate(95.410156 0)"/>
      </g>
     </g>
    </g>
    <g id="xtick_29">
     <g id="line2d_29">
      <g>
       <use xlink:href="#maabc374810" x="577.149209" y="288.88" style="stroke: #000000; stroke-width: 0.8"/>
      </g>
     </g>
     <g id="text_29">
      <!-- 2.8 -->
      <g transform="translate(581.012334 318.144375) rotate(-90) scale(0.14 -0.14)">
       <use xlink:href="#DejaVuSans-32"/>
       <use xlink:href="#DejaVuSans-2e" transform="translate(63.623047 0)"/>
       <use xlink:href="#DejaVuSans-38" transform="translate(95.410156 0)"/>
      </g>
     </g>
    </g>
    <g id="xtick_30">
     <g id="line2d_30">
      <g>
       <use xlink:href="#maabc374810" x="593.241841" y="288.88" style="stroke: #000000; stroke-width: 0.8"/>
      </g>
     </g>
     <g id="text_30">
      <!-- 3.- -->
      <g transform="translate(597.104966 314.287812) rotate(-90) scale(0.14 -0.14)">
       <use xlink:href="#DejaVuSans-33"/>
       <use xlink:href="#DejaVuSans-2e" transform="translate(63.623047 0)"/>
       <use xlink:href="#DejaVuSans-2d" transform="translate(95.410156 0)"/>
      </g>
     </g>
    </g>
    <g id="xtick_31">
     <g id="line2d_31">
      <g>
       <use xlink:href="#maabc374810" x="609.334473" y="288.88" style="stroke: #000000; stroke-width: 0.8"/>
      </g>
     </g>
     <g id="text_31">
      <!-- 3.1 -->
      <g transform="translate(613.197598 318.144375) rotate(-90) scale(0.14 -0.14)">
       <use xlink:href="#DejaVuSans-33"/>
       <use xlink:href="#DejaVuSans-2e" transform="translate(63.623047 0)"/>
       <use xlink:href="#DejaVuSans-31" transform="translate(95.410156 0)"/>
      </g>
     </g>
    </g>
    <g id="xtick_32">
     <g id="line2d_32">
      <g>
       <use xlink:href="#maabc374810" x="625.427104" y="288.88" style="stroke: #000000; stroke-width: 0.8"/>
      </g>
     </g>
     <g id="text_32">
      <!-- 3.10 -->
      <g transform="translate(629.290229 327.051875) rotate(-90) scale(0.14 -0.14)">
       <use xlink:href="#DejaVuSans-33"/>
       <use xlink:href="#DejaVuSans-2e" transform="translate(63.623047 0)"/>
       <use xlink:href="#DejaVuSans-31" transform="translate(95.410156 0)"/>
       <use xlink:href="#DejaVuSans-30" transform="translate(159.033203 0)"/>
      </g>
     </g>
    </g>
    <g id="xtick_33">
     <g id="line2d_33">
      <g>
       <use xlink:href="#maabc374810" x="641.519736" y="288.88" style="stroke: #000000; stroke-width: 0.8"/>
      </g>
     </g>
     <g id="text_33">
      <!-- 3.11 -->
      <g transform="translate(645.382861 327.051875) rotate(-90) scale(0.14 -0.14)">
       <use xlink:href="#DejaVuSans-33"/>
       <use xlink:href="#DejaVuSans-2e" transform="translate(63.623047 0)"/>
       <use xlink:href="#DejaVuSans-31" transform="translate(95.410156 0)"/>
       <use xlink:href="#DejaVuSans-31" transform="translate(159.033203 0)"/>
      </g>
     </g>
    </g>
    <g id="xtick_34">
     <g id="line2d_34">
      <g>
       <use xlink:href="#maabc374810" x="657.612368" y="288.88" style="stroke: #000000; stroke-width: 0.8"/>
      </g>
     </g>
     <g id="text_34">
      <!-- 3.13 -->
      <g transform="translate(661.475493 327.051875) rotate(-90) scale(0.14 -0.14)">
       <use xlink:href="#DejaVuSans-33"/>
       <use xlink:href="#DejaVuSans-2e" transform="translate(63.623047 0)"/>
       <use xlink:href="#DejaVuSans-31" transform="translate(95.410156 0)"/>
       <use xlink:href="#DejaVuSans-33" transform="translate(159.033203 0)"/>
      </g>
     </g>
    </g>
    <g id="xtick_35">
     <g id="line2d_35">
      <g>
       <use xlink:href="#maabc374810" x="673.705" y="288.88" style="stroke: #000000; stroke-width: 0.8"/>
      </g>
     </g>
     <g id="text_35">
      <!-- 3.2 -->
      <g transform="translate(677.568125 318.144375) rotate(-90) scale(0.14 -0.14)">
       <use xlink:href="#DejaVuSans-33"/>
       <use xlink:href="#DejaVuSans-2e" transform="translate(63.623047 0)"/>
       <use xlink:href="#DejaVuSans-32" transform="translate(95.410156 0)"/>
      </g>
     </g>
    </g>
    <g id="xtick_36">
     <g id="line2d_36">
      <g>
       <use xlink:href="#maabc374810" x="689.797632" y="288.88" style="stroke: #000000; stroke-width: 0.8"/>
      </g>
     </g>
     <g id="text_36">
      <!-- 3.3 -->
      <g transform="translate(693.660757 318.144375) rotate(-90) scale(0.14 -0.14)">
       <use xlink:href="#DejaVuSans-33"/>
       <use xlink:href="#DejaVuSans-2e" transform="translate(63.623047 0)"/>
       <use xlink:href="#DejaVuSans-33" transform="translate(95.410156 0)"/>
      </g>
     </g>
    </g>
    <g id="xtick_37">
     <g id="line2d_37">
      <g>
       <use xlink:href="#maabc374810" x="705.890264" y="288.88" style="stroke: #000000; stroke-width: 0.8"/>
      </g>
     </g>
     <g id="text_37">
      <!-- 3.4 -->
      <g transform="translate(709.753389 318.144375) rotate(-90) scale(0.14 -0.14)">
       <use xlink:href="#DejaVuSans-33"/>
       <use xlink:href="#DejaVuSans-2e" transform="translate(63.623047 0)"/>
       <use xlink:href="#DejaVuSans-34" transform="translate(95.410156 0)"/>
      </g>
     </g>
    </g>
    <g id="xtick_38">
     <g id="line2d_38">
      <g>
       <use xlink:href="#maabc374810" x="721.982896" y="288.88" style="stroke: #000000; stroke-width: 0.8"/>
      </g>
     </g>
     <g id="text_38">
      <!-- 3.5 -->
      <g transform="translate(725.846021 318.144375) rotate(-90) scale(0.14 -0.14)">
       <use xlink:href="#DejaVuSans-33"/>
       <use xlink:href="#DejaVuSans-2e" transform="translate(63.623047 0)"/>
       <use xlink:href="#DejaVuSans-35" transform="translate(95.410156 0)"/>
      </g>
     </g>
    </g>
    <g id="xtick_39">
     <g id="line2d_39">
      <g>
       <use xlink:href="#maabc374810" x="738.075527" y="288.88" style="stroke: #000000; stroke-width: 0.8"/>
      </g>
     </g>
     <g id="text_39">
      <!-- 3.6 -->
      <g transform="translate(741.938652 318.144375) rotate(-90) scale(0.14 -0.14)">
       <use xlink:href="#DejaVuSans-33"/>
       <use xlink:href="#DejaVuSans-2e" transform="translate(63.623047 0)"/>
       <use xlink:href="#DejaVuSans-36" transform="translate(95.410156 0)"/>
      </g>
     </g>
    </g>
    <g id="xtick_40">
     <g id="line2d_40">
      <g>
       <use xlink:href="#maabc374810" x="754.168159" y="288.88" style="stroke: #000000; stroke-width: 0.8"/>
      </g>
     </g>
     <g id="text_40">
      <!-- 3.7 -->
      <g transform="translate(758.031284 318.144375) rotate(-90) scale(0.14 -0.14)">
       <use xlink:href="#DejaVuSans-33"/>
       <use xlink:href="#DejaVuSans-2e" transform="translate(63.623047 0)"/>
       <use xlink:href="#DejaVuSans-37" transform="translate(95.410156 0)"/>
      </g>
     </g>
    </g>
    <g id="xtick_41">
     <g id="line2d_41">
      <g>
       <use xlink:href="#maabc374810" x="770.260791" y="288.88" style="stroke: #000000; stroke-width: 0.8"/>
      </g>
     </g>
     <g id="text_41">
      <!-- 3.8 -->
      <g transform="translate(774.123916 318.144375) rotate(-90) scale(0.14 -0.14)">
       <use xlink:href="#DejaVuSans-33"/>
       <use xlink:href="#DejaVuSans-2e" transform="translate(63.623047 0)"/>
       <use xlink:href="#DejaVuSans-38" transform="translate(95.410156 0)"/>
      </g>
     </g>
    </g>
    <g id="xtick_42">
     <g id="line2d_42">
      <g>
       <use xlink:href="#maabc374810" x="786.353423" y="288.88" style="stroke: #000000; stroke-width: 0.8"/>
      </g>
     </g>
     <g id="text_42">
      <!-- 3.9 -->
      <g transform="translate(790.216548 318.144375) rotate(-90) scale(0.14 -0.14)">
       <use xlink:href="#DejaVuSans-33"/>
       <use xlink:href="#DejaVuSans-2e" transform="translate(63.623047 0)"/>
       <use xlink:href="#DejaVuSans-39" transform="translate(95.410156 0)"/>
      </g>
     </g>
    </g>
    <g id="xtick_43">
     <g id="line2d_43">
      <g>
       <use xlink:href="#maabc374810" x="802.446055" y="288.88" style="stroke: #000000; stroke-width: 0.8"/>
      </g>
     </g>
     <g id="text_43">
      <!-- 4.- -->
      <g transform="translate(806.30918 314.287812) rotate(-90) scale(0.14 -0.14)">
       <use xlink:href="#DejaVuSans-34"/>
       <use xlink:href="#DejaVuSans-2e" transform="translate(63.623047 0)"/>
       <use xlink:href="#DejaVuSans-2d" transform="translate(95.410156 0)"/>
      </g>
     </g>
    </g>
    <g id="xtick_44">
     <g id="line2d_44">
      <g>
       <use xlink:href="#maabc374810" x="818.538687" y="288.88" style="stroke: #000000; stroke-width: 0.8"/>
      </g>
     </g>
     <g id="text_44">
      <!-- 4.1 -->
      <g transform="translate(822.401812 318.144375) rotate(-90) scale(0.14 -0.14)">
       <use xlink:href="#DejaVuSans-34"/>
       <use xlink:href="#DejaVuSans-2e" transform="translate(63.623047 0)"/>
       <use xlink:href="#DejaVuSans-31" transform="translate(95.410156 0)"/>
      </g>
     </g>
    </g>
    <g id="xtick_45">
     <g id="line2d_45">
      <g>
       <use xlink:href="#maabc374810" x="834.631319" y="288.88" style="stroke: #000000; stroke-width: 0.8"/>
      </g>
     </g>
     <g id="text_45">
      <!-- 4.2 -->
      <g transform="translate(838.494444 318.144375) rotate(-90) scale(0.14 -0.14)">
       <use xlink:href="#DejaVuSans-34"/>
       <use xlink:href="#DejaVuSans-2e" transform="translate(63.623047 0)"/>
       <use xlink:href="#DejaVuSans-32" transform="translate(95.410156 0)"/>
      </g>
     </g>
    </g>
    <g id="xtick_46">
     <g id="line2d_46">
      <g>
       <use xlink:href="#maabc374810" x="850.72395" y="288.88" style="stroke: #000000; stroke-width: 0.8"/>
      </g>
     </g>
     <g id="text_46">
      <!-- 4.3 -->
      <g transform="translate(854.587075 318.144375) rotate(-90) scale(0.14 -0.14)">
       <use xlink:href="#DejaVuSans-34"/>
       <use xlink:href="#DejaVuSans-2e" transform="translate(63.623047 0)"/>
       <use xlink:href="#DejaVuSans-33" transform="translate(95.410156 0)"/>
      </g>
     </g>
    </g>
    <g id="xtick_47">
     <g id="line2d_47">
      <g>
       <use xlink:href="#maabc374810" x="866.816582" y="288.88" style="stroke: #000000; stroke-width: 0.8"/>
      </g>
     </g>
     <g id="text_47">
      <!-- 4.4 -->
      <g transform="translate(870.679707 318.144375) rotate(-90) scale(0.14 -0.14)">
       <use xlink:href="#DejaVuSans-34"/>
       <use xlink:href="#DejaVuSans-2e" transform="translate(63.623047 0)"/>
       <use xlink:href="#DejaVuSans-34" transform="translate(95.410156 0)"/>
      </g>
     </g>
    </g>
    <g id="xtick_48">
     <g id="line2d_48">
      <g>
       <use xlink:href="#maabc374810" x="882.909214" y="288.88" style="stroke: #000000; stroke-width: 0.8"/>
      </g>
     </g>
     <g id="text_48">
      <!-- 4.5 -->
      <g transform="translate(886.772339 318.144375) rotate(-90) scale(0.14 -0.14)">
       <use xlink:href="#DejaVuSans-34"/>
       <use xlink:href="#DejaVuSans-2e" transform="translate(63.623047 0)"/>
       <use xlink:href="#DejaVuSans-35" transform="translate(95.410156 0)"/>
      </g>
     </g>
    </g>
    <g id="xtick_49">
     <g id="line2d_49">
      <g>
       <use xlink:href="#maabc374810" x="899.001846" y="288.88" style="stroke: #000000; stroke-width: 0.8"/>
      </g>
     </g>
     <g id="text_49">
      <!-- 4.6 -->
      <g transform="translate(902.864971 318.144375) rotate(-90) scale(0.14 -0.14)">
       <use xlink:href="#DejaVuSans-34"/>
       <use xlink:href="#DejaVuSans-2e" transform="translate(63.623047 0)"/>
       <use xlink:href="#DejaVuSans-36" transform="translate(95.410156 0)"/>
      </g>
     </g>
    </g>
    <g id="xtick_50">
     <g id="line2d_50">
      <g>
       <use xlink:href="#maabc374810" x="915.094478" y="288.88" style="stroke: #000000; stroke-width: 0.8"/>
      </g>
     </g>
     <g id="text_50">
      <!-- 4.8 -->
      <g transform="translate(918.957603 318.144375) rotate(-90) scale(0.14 -0.14)">
       <use xlink:href="#DejaVuSans-34"/>
       <use xlink:href="#DejaVuSans-2e" transform="translate(63.623047 0)"/>
       <use xlink:href="#DejaVuSans-38" transform="translate(95.410156 0)"/>
      </g>
     </g>
    </g>
    <g id="xtick_51">
     <g id="line2d_51">
      <g>
       <use xlink:href="#maabc374810" x="931.18711" y="288.88" style="stroke: #000000; stroke-width: 0.8"/>
      </g>
     </g>
     <g id="text_51">
      <!-- 4.99 -->
      <g transform="translate(935.050235 327.051875) rotate(-90) scale(0.14 -0.14)">
       <use xlink:href="#DejaVuSans-34"/>
       <use xlink:href="#DejaVuSans-2e" transform="translate(63.623047 0)"/>
       <use xlink:href="#DejaVuSans-39" transform="translate(95.410156 0)"/>
       <use xlink:href="#DejaVuSans-39" transform="translate(159.033203 0)"/>
      </g>
     </g>
    </g>
    <g id="xtick_52">
     <g id="line2d_52">
      <g>
       <use xlink:href="#maabc374810" x="947.279742" y="288.88" style="stroke: #000000; stroke-width: 0.8"/>
      </g>
     </g>
     <g id="text_52">
      <!-- 5.- -->
      <g transform="translate(951.142867 314.287812) rotate(-90) scale(0.14 -0.14)">
       <use xlink:href="#DejaVuSans-35"/>
       <use xlink:href="#DejaVuSans-2e" transform="translate(63.623047 0)"/>
       <use xlink:href="#DejaVuSans-2d" transform="translate(95.410156 0)"/>
      </g>
     </g>
    </g>
    <g id="xtick_53">
     <g id="line2d_53">
      <g>
       <use xlink:href="#maabc374810" x="963.372373" y="288.88" style="stroke: #000000; stroke-width: 0.8"/>
      </g>
     </g>
     <g id="text_53">
      <!-- 5.1 -->
      <g transform="translate(967.235498 318.144375) rotate(-90) scale(0.14 -0.14)">
       <use xlink:href="#DejaVuSans-35"/>
       <use xlink:href="#DejaVuSans-2e" transform="translate(63.623047 0)"/>
       <use xlink:href="#DejaVuSans-31" transform="translate(95.410156 0)"/>
      </g>
     </g>
    </g>
    <g id="xtick_54">
     <g id="line2d_54">
      <g>
       <use xlink:href="#maabc374810" x="979.465005" y="288.88" style="stroke: #000000; stroke-width: 0.8"/>
      </g>
     </g>
     <g id="text_54">
      <!-- 5.3 -->
      <g transform="translate(983.32813 318.144375) rotate(-90) scale(0.14 -0.14)">
       <use xlink:href="#DejaVuSans-35"/>
       <use xlink:href="#DejaVuSans-2e" transform="translate(63.623047 0)"/>
       <use xlink:href="#DejaVuSans-33" transform="translate(95.410156 0)"/>
      </g>
     </g>
    </g>
    <g id="xtick_55">
     <g id="line2d_55">
      <g>
       <use xlink:href="#maabc374810" x="995.557637" y="288.88" style="stroke: #000000; stroke-width: 0.8"/>
      </g>
     </g>
     <g id="text_55">
      <!-- 5.4 -->
      <g transform="translate(999.420762 318.144375) rotate(-90) scale(0.14 -0.14)">
       <use xlink:href="#DejaVuSans-35"/>
       <use xlink:href="#DejaVuSans-2e" transform="translate(63.623047 0)"/>
       <use xlink:href="#DejaVuSans-34" transform="translate(95.410156 0)"/>
      </g>
     </g>
    </g>
    <g id="xtick_56">
     <g id="line2d_56">
      <g>
       <use xlink:href="#maabc374810" x="1011.650269" y="288.88" style="stroke: #000000; stroke-width: 0.8"/>
      </g>
     </g>
     <g id="text_56">
      <!-- 5.5 -->
      <g transform="translate(1015.513394 318.144375) rotate(-90) scale(0.14 -0.14)">
       <use xlink:href="#DejaVuSans-35"/>
       <use xlink:href="#DejaVuSans-2e" transform="translate(63.623047 0)"/>
       <use xlink:href="#DejaVuSans-35" transform="translate(95.410156 0)"/>
      </g>
     </g>
    </g>
    <g id="xtick_57">
     <g id="line2d_57">
      <g>
       <use xlink:href="#maabc374810" x="1027.742901" y="288.88" style="stroke: #000000; stroke-width: 0.8"/>
      </g>
     </g>
     <g id="text_57">
      <!-- 5.6 -->
      <g transform="translate(1031.606026 318.144375) rotate(-90) scale(0.14 -0.14)">
       <use xlink:href="#DejaVuSans-35"/>
       <use xlink:href="#DejaVuSans-2e" transform="translate(63.623047 0)"/>
       <use xlink:href="#DejaVuSans-36" transform="translate(95.410156 0)"/>
      </g>
     </g>
    </g>
    <g id="xtick_58">
     <g id="line2d_58">
      <g>
       <use xlink:href="#maabc374810" x="1043.835533" y="288.88" style="stroke: #000000; stroke-width: 0.8"/>
      </g>
     </g>
     <g id="text_58">
      <!-- 5.99 -->
      <g transform="translate(1047.698658 327.051875) rotate(-90) scale(0.14 -0.14)">
       <use xlink:href="#DejaVuSans-35"/>
       <use xlink:href="#DejaVuSans-2e" transform="translate(63.623047 0)"/>
       <use xlink:href="#DejaVuSans-39" transform="translate(95.410156 0)"/>
       <use xlink:href="#DejaVuSans-39" transform="translate(159.033203 0)"/>
      </g>
     </g>
    </g>
    <g id="xtick_59">
     <g id="line2d_59">
      <g>
       <use xlink:href="#maabc374810" x="1059.928165" y="288.88" style="stroke: #000000; stroke-width: 0.8"/>
      </g>
     </g>
     <g id="text_59">
      <!-- 6.- -->
      <g transform="translate(1063.79129 314.287812) rotate(-90) scale(0.14 -0.14)">
       <use xlink:href="#DejaVuSans-36"/>
       <use xlink:href="#DejaVuSans-2e" transform="translate(63.623047 0)"/>
       <use xlink:href="#DejaVuSans-2d" transform="translate(95.410156 0)"/>
      </g>
     </g>
    </g>
    <g id="xtick_60">
     <g id="line2d_60">
      <g>
       <use xlink:href="#maabc374810" x="1076.020796" y="288.88" style="stroke: #000000; stroke-width: 0.8"/>
      </g>
     </g>
     <g id="text_60">
      <!-- 6.1 -->
      <g transform="translate(1079.883921 318.144375) rotate(-90) scale(0.14 -0.14)">
       <use xlink:href="#DejaVuSans-36"/>
       <use xlink:href="#DejaVuSans-2e" transform="translate(63.623047 0)"/>
       <use xlink:href="#DejaVuSans-31" transform="translate(95.410156 0)"/>
      </g>
     </g>
    </g>
    <g id="xtick_61">
     <g id="line2d_61">
      <g>
       <use xlink:href="#maabc374810" x="1092.113428" y="288.88" style="stroke: #000000; stroke-width: 0.8"/>
      </g>
     </g>
     <g id="text_61">
      <!-- 6.2 -->
      <g transform="translate(1095.976553 318.144375) rotate(-90) scale(0.14 -0.14)">
       <use xlink:href="#DejaVuSans-36"/>
       <use xlink:href="#DejaVuSans-2e" transform="translate(63.623047 0)"/>
       <use xlink:href="#DejaVuSans-32" transform="translate(95.410156 0)"/>
      </g>
     </g>
    </g>
    <g id="xtick_62">
     <g id="line2d_62">
      <g>
       <use xlink:href="#maabc374810" x="1108.20606" y="288.88" style="stroke: #000000; stroke-width: 0.8"/>
      </g>
     </g>
     <g id="text_62">
      <!-- 6.3 -->
      <g transform="translate(1112.069185 318.144375) rotate(-90) scale(0.14 -0.14)">
       <use xlink:href="#DejaVuSans-36"/>
       <use xlink:href="#DejaVuSans-2e" transform="translate(63.623047 0)"/>
       <use xlink:href="#DejaVuSans-33" transform="translate(95.410156 0)"/>
      </g>
     </g>
    </g>
    <g id="xtick_63">
     <g id="line2d_63">
      <g>
       <use xlink:href="#maabc374810" x="1124.298692" y="288.88" style="stroke: #000000; stroke-width: 0.8"/>
      </g>
     </g>
     <g id="text_63">
      <!-- 6.4 -->
      <g transform="translate(1128.161817 318.144375) rotate(-90) scale(0.14 -0.14)">
       <use xlink:href="#DejaVuSans-36"/>
       <use xlink:href="#DejaVuSans-2e" transform="translate(63.623047 0)"/>
       <use xlink:href="#DejaVuSans-34" transform="translate(95.410156 0)"/>
      </g>
     </g>
    </g>
    <g id="xtick_64">
     <g id="line2d_64">
      <g>
       <use xlink:href="#maabc374810" x="1140.391324" y="288.88" style="stroke: #000000; stroke-width: 0.8"/>
      </g>
     </g>
     <g id="text_64">
      <!-- 6.5 -->
      <g transform="translate(1144.254449 318.144375) rotate(-90) scale(0.14 -0.14)">
       <use xlink:href="#DejaVuSans-36"/>
       <use xlink:href="#DejaVuSans-2e" transform="translate(63.623047 0)"/>
       <use xlink:href="#DejaVuSans-35" transform="translate(95.410156 0)"/>
      </g>
     </g>
    </g>
    <g id="xtick_65">
     <g id="line2d_65">
      <g>
       <use xlink:href="#maabc374810" x="1156.483956" y="288.88" style="stroke: #000000; stroke-width: 0.8"/>
      </g>
     </g>
     <g id="text_65">
      <!-- 7.1 -->
      <g transform="translate(1160.347081 318.144375) rotate(-90) scale(0.14 -0.14)">
       <use xlink:href="#DejaVuSans-37"/>
       <use xlink:href="#DejaVuSans-2e" transform="translate(63.623047 0)"/>
       <use xlink:href="#DejaVuSans-31" transform="translate(95.410156 0)"/>
      </g>
     </g>
    </g>
    <g id="xtick_66">
     <g id="line2d_66">
      <g>
       <use xlink:href="#maabc374810" x="1172.576588" y="288.88" style="stroke: #000000; stroke-width: 0.8"/>
      </g>
     </g>
     <g id="text_66">
      <!-- 7.2 -->
      <g transform="translate(1176.439713 318.144375) rotate(-90) scale(0.14 -0.14)">
       <use xlink:href="#DejaVuSans-37"/>
       <use xlink:href="#DejaVuSans-2e" transform="translate(63.623047 0)"/>
       <use xlink:href="#DejaVuSans-32" transform="translate(95.410156 0)"/>
      </g>
     </g>
    </g>
    <g id="xtick_67">
     <g id="line2d_67">
      <g>
       <use xlink:href="#maabc374810" x="1188.669219" y="288.88" style="stroke: #000000; stroke-width: 0.8"/>
      </g>
     </g>
     <g id="text_67">
      <!-- 7.4 -->
      <g transform="translate(1192.532344 318.144375) rotate(-90) scale(0.14 -0.14)">
       <use xlink:href="#DejaVuSans-37"/>
       <use xlink:href="#DejaVuSans-2e" transform="translate(63.623047 0)"/>
       <use xlink:href="#DejaVuSans-34" transform="translate(95.410156 0)"/>
      </g>
     </g>
    </g>
    <g id="xtick_68">
     <g id="line2d_68">
      <g>
       <use xlink:href="#maabc374810" x="1204.761851" y="288.88" style="stroke: #000000; stroke-width: 0.8"/>
      </g>
     </g>
     <g id="text_68">
      <!-- 7.5 -->
      <g transform="translate(1208.624976 318.144375) rotate(-90) scale(0.14 -0.14)">
       <use xlink:href="#DejaVuSans-37"/>
       <use xlink:href="#DejaVuSans-2e" transform="translate(63.623047 0)"/>
       <use xlink:href="#DejaVuSans-35" transform="translate(95.410156 0)"/>
      </g>
     </g>
    </g>
    <g id="xtick_69">
     <g id="line2d_69">
      <g>
       <use xlink:href="#maabc374810" x="1220.854483" y="288.88" style="stroke: #000000; stroke-width: 0.8"/>
      </g>
     </g>
     <g id="text_69">
      <!-- 7.6 -->
      <g transform="translate(1224.717608 318.144375) rotate(-90) scale(0.14 -0.14)">
       <use xlink:href="#DejaVuSans-37"/>
       <use xlink:href="#DejaVuSans-2e" transform="translate(63.623047 0)"/>
       <use xlink:href="#DejaVuSans-36" transform="translate(95.410156 0)"/>
      </g>
     </g>
    </g>
    <g id="text_70">
     <!-- EC level 2 number -->
     <g transform="translate(609.299531 341.689687) scale(0.14 -0.14)">
      <defs>
       <path id="DejaVuSans-45" d="M 628 4666 
L 3578 4666 
L 3578 4134 
L 1259 4134 
L 1259 2753 
L 3481 2753 
L 3481 2222 
L 1259 2222 
L 1259 531 
L 3634 531 
L 3634 0 
L 628 0 
L 628 4666 
z
" transform="scale(0.015625)"/>
       <path id="DejaVuSans-43" d="M 4122 4306 
L 4122 3641 
Q 3803 3938 3442 4084 
Q 3081 4231 2675 4231 
Q 1875 4231 1450 3742 
Q 1025 3253 1025 2328 
Q 1025 1406 1450 917 
Q 1875 428 2675 428 
Q 3081 428 3442 575 
Q 3803 722 4122 1019 
L 4122 359 
Q 3791 134 3420 21 
Q 3050 -91 2638 -91 
Q 1578 -91 968 557 
Q 359 1206 359 2328 
Q 359 3453 968 4101 
Q 1578 4750 2638 4750 
Q 3056 4750 3426 4639 
Q 3797 4528 4122 4306 
z
" transform="scale(0.015625)"/>
       <path id="DejaVuSans-20" transform="scale(0.015625)"/>
       <path id="DejaVuSans-6c" d="M 603 4863 
L 1178 4863 
L 1178 0 
L 603 0 
L 603 4863 
z
" transform="scale(0.015625)"/>
       <path id="DejaVuSans-65" d="M 3597 1894 
L 3597 1613 
L 953 1613 
Q 991 1019 1311 708 
Q 1631 397 2203 397 
Q 2534 397 2845 478 
Q 3156 559 3463 722 
L 3463 178 
Q 3153 47 2828 -22 
Q 2503 -91 2169 -91 
Q 1331 -91 842 396 
Q 353 884 353 1716 
Q 353 2575 817 3079 
Q 1281 3584 2069 3584 
Q 2775 3584 3186 3129 
Q 3597 2675 3597 1894 
z
M 3022 2063 
Q 3016 2534 2758 2815 
Q 2500 3097 2075 3097 
Q 1594 3097 1305 2825 
Q 1016 2553 972 2059 
L 3022 2063 
z
" transform="scale(0.015625)"/>
       <path id="DejaVuSans-76" d="M 191 3500 
L 800 3500 
L 1894 563 
L 2988 3500 
L 3597 3500 
L 2284 0 
L 1503 0 
L 191 3500 
z
" transform="scale(0.015625)"/>
       <path id="DejaVuSans-6e" d="M 3513 2113 
L 3513 0 
L 2938 0 
L 2938 2094 
Q 2938 2591 2744 2837 
Q 2550 3084 2163 3084 
Q 1697 3084 1428 2787 
Q 1159 2491 1159 1978 
L 1159 0 
L 581 0 
L 581 3500 
L 1159 3500 
L 1159 2956 
Q 1366 3272 1645 3428 
Q 1925 3584 2291 3584 
Q 2894 3584 3203 3211 
Q 3513 2838 3513 2113 
z
" transform="scale(0.015625)"/>
       <path id="DejaVuSans-75" d="M 544 1381 
L 544 3500 
L 1119 3500 
L 1119 1403 
Q 1119 906 1312 657 
Q 1506 409 1894 409 
Q 2359 409 2629 706 
Q 2900 1003 2900 1516 
L 2900 3500 
L 3475 3500 
L 3475 0 
L 2900 0 
L 2900 538 
Q 2691 219 2414 64 
Q 2138 -91 1772 -91 
Q 1169 -91 856 284 
Q 544 659 544 1381 
z
M 1991 3584 
L 1991 3584 
z
" transform="scale(0.015625)"/>
       <path id="DejaVuSans-6d" d="M 3328 2828 
Q 3544 3216 3844 3400 
Q 4144 3584 4550 3584 
Q 5097 3584 5394 3201 
Q 5691 2819 5691 2113 
L 5691 0 
L 5113 0 
L 5113 2094 
Q 5113 2597 4934 2840 
Q 4756 3084 4391 3084 
Q 3944 3084 3684 2787 
Q 3425 2491 3425 1978 
L 3425 0 
L 2847 0 
L 2847 2094 
Q 2847 2600 2669 2842 
Q 2491 3084 2119 3084 
Q 1678 3084 1418 2786 
Q 1159 2488 1159 1978 
L 1159 0 
L 581 0 
L 581 3500 
L 1159 3500 
L 1159 2956 
Q 1356 3278 1631 3431 
Q 1906 3584 2284 3584 
Q 2666 3584 2933 3390 
Q 3200 3197 3328 2828 
z
" transform="scale(0.015625)"/>
       <path id="DejaVuSans-62" d="M 3116 1747 
Q 3116 2381 2855 2742 
Q 2594 3103 2138 3103 
Q 1681 3103 1420 2742 
Q 1159 2381 1159 1747 
Q 1159 1113 1420 752 
Q 1681 391 2138 391 
Q 2594 391 2855 752 
Q 3116 1113 3116 1747 
z
M 1159 2969 
Q 1341 3281 1617 3432 
Q 1894 3584 2278 3584 
Q 2916 3584 3314 3078 
Q 3713 2572 3713 1747 
Q 3713 922 3314 415 
Q 2916 -91 2278 -91 
Q 1894 -91 1617 61 
Q 1341 213 1159 525 
L 1159 0 
L 581 0 
L 581 4863 
L 1159 4863 
L 1159 2969 
z
" transform="scale(0.015625)"/>
       <path id="DejaVuSans-72" d="M 2631 2963 
Q 2534 3019 2420 3045 
Q 2306 3072 2169 3072 
Q 1681 3072 1420 2755 
Q 1159 2438 1159 1844 
L 1159 0 
L 581 0 
L 581 3500 
L 1159 3500 
L 1159 2956 
Q 1341 3275 1631 3429 
Q 1922 3584 2338 3584 
Q 2397 3584 2469 3576 
Q 2541 3569 2628 3553 
L 2631 2963 
z
" transform="scale(0.015625)"/>
      </defs>
      <use xlink:href="#DejaVuSans-45"/>
      <use xlink:href="#DejaVuSans-43" transform="translate(63.183594 0)"/>
      <use xlink:href="#DejaVuSans-20" transform="translate(133.007812 0)"/>
      <use xlink:href="#DejaVuSans-6c" transform="translate(164.794922 0)"/>
      <use xlink:href="#DejaVuSans-65" transform="translate(192.578125 0)"/>
      <use xlink:href="#DejaVuSans-76" transform="translate(254.101562 0)"/>
      <use xlink:href="#DejaVuSans-65" transform="translate(313.28125 0)"/>
      <use xlink:href="#DejaVuSans-6c" transform="translate(374.804688 0)"/>
      <use xlink:href="#DejaVuSans-20" transform="translate(402.587891 0)"/>
      <use xlink:href="#DejaVuSans-32" transform="translate(434.375 0)"/>
      <use xlink:href="#DejaVuSans-20" transform="translate(497.998047 0)"/>
      <use xlink:href="#DejaVuSans-6e" transform="translate(529.785156 0)"/>
      <use xlink:href="#DejaVuSans-75" transform="translate(593.164062 0)"/>
      <use xlink:href="#DejaVuSans-6d" transform="translate(656.542969 0)"/>
      <use xlink:href="#DejaVuSans-62" transform="translate(753.955078 0)"/>
      <use xlink:href="#DejaVuSans-65" transform="translate(817.431641 0)"/>
      <use xlink:href="#DejaVuSans-72" transform="translate(878.955078 0)"/>
     </g>
    </g>
   </g>
   <g id="matplotlib.axis_2">
    <g id="ytick_1">
     <g id="line2d_70">
      <defs>
       <path id="mf56231b1aa" d="M 0 0 
L -3.5 0 
" style="stroke: #000000; stroke-width: 0.8"/>
      </defs>
      <g>
       <use xlink:href="#mf56231b1aa" x="66.53" y="288.88" style="stroke: #000000; stroke-width: 0.8"/>
      </g>
     </g>
     <g id="text_71">
      <!-- 0 -->
      <g transform="translate(50.6225 294.198906) scale(0.14 -0.14)">
       <use xlink:href="#DejaVuSans-30"/>
      </g>
     </g>
    </g>
    <g id="ytick_2">
     <g id="line2d_71">
      <g>
       <use xlink:href="#mf56231b1aa" x="66.53" y="252.768669" style="stroke: #000000; stroke-width: 0.8"/>
      </g>
     </g>
     <g id="text_72">
      <!-- 50 -->
      <g transform="translate(41.715 258.087575) scale(0.14 -0.14)">
       <use xlink:href="#DejaVuSans-35"/>
       <use xlink:href="#DejaVuSans-30" transform="translate(63.623047 0)"/>
      </g>
     </g>
    </g>
    <g id="ytick_3">
     <g id="line2d_72">
      <g>
       <use xlink:href="#mf56231b1aa" x="66.53" y="216.657338" style="stroke: #000000; stroke-width: 0.8"/>
      </g>
     </g>
     <g id="text_73">
      <!-- 100 -->
      <g transform="translate(32.8075 221.976244) scale(0.14 -0.14)">
       <use xlink:href="#DejaVuSans-31"/>
       <use xlink:href="#DejaVuSans-30" transform="translate(63.623047 0)"/>
       <use xlink:href="#DejaVuSans-30" transform="translate(127.246094 0)"/>
      </g>
     </g>
    </g>
    <g id="ytick_4">
     <g id="line2d_73">
      <g>
       <use xlink:href="#mf56231b1aa" x="66.53" y="180.546007" style="stroke: #000000; stroke-width: 0.8"/>
      </g>
     </g>
     <g id="text_74">
      <!-- 150 -->
      <g transform="translate(32.8075 185.864913) scale(0.14 -0.14)">
       <use xlink:href="#DejaVuSans-31"/>
       <use xlink:href="#DejaVuSans-35" transform="translate(63.623047 0)"/>
       <use xlink:href="#DejaVuSans-30" transform="translate(127.246094 0)"/>
      </g>
     </g>
    </g>
    <g id="ytick_5">
     <g id="line2d_74">
      <g>
       <use xlink:href="#mf56231b1aa" x="66.53" y="144.434676" style="stroke: #000000; stroke-width: 0.8"/>
      </g>
     </g>
     <g id="text_75">
      <!-- 200 -->
      <g transform="translate(32.8075 149.753582) scale(0.14 -0.14)">
       <use xlink:href="#DejaVuSans-32"/>
       <use xlink:href="#DejaVuSans-30" transform="translate(63.623047 0)"/>
       <use xlink:href="#DejaVuSans-30" transform="translate(127.246094 0)"/>
      </g>
     </g>
    </g>
    <g id="ytick_6">
     <g id="line2d_75">
      <g>
       <use xlink:href="#mf56231b1aa" x="66.53" y="108.323345" style="stroke: #000000; stroke-width: 0.8"/>
      </g>
     </g>
     <g id="text_76">
      <!-- 250 -->
      <g transform="translate(32.8075 113.642251) scale(0.14 -0.14)">
       <use xlink:href="#DejaVuSans-32"/>
       <use xlink:href="#DejaVuSans-35" transform="translate(63.623047 0)"/>
       <use xlink:href="#DejaVuSans-30" transform="translate(127.246094 0)"/>
      </g>
     </g>
    </g>
    <g id="ytick_7">
     <g id="line2d_76">
      <g>
       <use xlink:href="#mf56231b1aa" x="66.53" y="72.212014" style="stroke: #000000; stroke-width: 0.8"/>
      </g>
     </g>
     <g id="text_77">
      <!-- 300 -->
      <g transform="translate(32.8075 77.53092) scale(0.14 -0.14)">
       <use xlink:href="#DejaVuSans-33"/>
       <use xlink:href="#DejaVuSans-30" transform="translate(63.623047 0)"/>
       <use xlink:href="#DejaVuSans-30" transform="translate(127.246094 0)"/>
      </g>
     </g>
    </g>
    <g id="ytick_8">
     <g id="line2d_77">
      <g>
       <use xlink:href="#mf56231b1aa" x="66.53" y="36.100683" style="stroke: #000000; stroke-width: 0.8"/>
      </g>
     </g>
     <g id="text_78">
      <!-- 350 -->
      <g transform="translate(32.8075 41.41959) scale(0.14 -0.14)">
       <use xlink:href="#DejaVuSans-33"/>
       <use xlink:href="#DejaVuSans-35" transform="translate(63.623047 0)"/>
       <use xlink:href="#DejaVuSans-30" transform="translate(127.246094 0)"/>
      </g>
     </g>
    </g>
    <g id="text_79">
     <!-- # reactions -->
     <g transform="translate(25.895937 192.31125) rotate(-90) scale(0.14 -0.14)">
      <defs>
       <path id="DejaVuSans-23" d="M 3272 2816 
L 2363 2816 
L 2100 1772 
L 3016 1772 
L 3272 2816 
z
M 2803 4594 
L 2478 3297 
L 3391 3297 
L 3719 4594 
L 4219 4594 
L 3897 3297 
L 4872 3297 
L 4872 2816 
L 3775 2816 
L 3519 1772 
L 4513 1772 
L 4513 1294 
L 3397 1294 
L 3072 0 
L 2572 0 
L 2894 1294 
L 1978 1294 
L 1656 0 
L 1153 0 
L 1478 1294 
L 494 1294 
L 494 1772 
L 1594 1772 
L 1856 2816 
L 850 2816 
L 850 3297 
L 1978 3297 
L 2297 4594 
L 2803 4594 
z
" transform="scale(0.015625)"/>
       <path id="DejaVuSans-61" d="M 2194 1759 
Q 1497 1759 1228 1600 
Q 959 1441 959 1056 
Q 959 750 1161 570 
Q 1363 391 1709 391 
Q 2188 391 2477 730 
Q 2766 1069 2766 1631 
L 2766 1759 
L 2194 1759 
z
M 3341 1997 
L 3341 0 
L 2766 0 
L 2766 531 
Q 2569 213 2275 61 
Q 1981 -91 1556 -91 
Q 1019 -91 701 211 
Q 384 513 384 1019 
Q 384 1609 779 1909 
Q 1175 2209 1959 2209 
L 2766 2209 
L 2766 2266 
Q 2766 2663 2505 2880 
Q 2244 3097 1772 3097 
Q 1472 3097 1187 3025 
Q 903 2953 641 2809 
L 641 3341 
Q 956 3463 1253 3523 
Q 1550 3584 1831 3584 
Q 2591 3584 2966 3190 
Q 3341 2797 3341 1997 
z
" transform="scale(0.015625)"/>
       <path id="DejaVuSans-63" d="M 3122 3366 
L 3122 2828 
Q 2878 2963 2633 3030 
Q 2388 3097 2138 3097 
Q 1578 3097 1268 2742 
Q 959 2388 959 1747 
Q 959 1106 1268 751 
Q 1578 397 2138 397 
Q 2388 397 2633 464 
Q 2878 531 3122 666 
L 3122 134 
Q 2881 22 2623 -34 
Q 2366 -91 2075 -91 
Q 1284 -91 818 406 
Q 353 903 353 1747 
Q 353 2603 823 3093 
Q 1294 3584 2113 3584 
Q 2378 3584 2631 3529 
Q 2884 3475 3122 3366 
z
" transform="scale(0.015625)"/>
       <path id="DejaVuSans-74" d="M 1172 4494 
L 1172 3500 
L 2356 3500 
L 2356 3053 
L 1172 3053 
L 1172 1153 
Q 1172 725 1289 603 
Q 1406 481 1766 481 
L 2356 481 
L 2356 0 
L 1766 0 
Q 1100 0 847 248 
Q 594 497 594 1153 
L 594 3053 
L 172 3053 
L 172 3500 
L 594 3500 
L 594 4494 
L 1172 4494 
z
" transform="scale(0.015625)"/>
       <path id="DejaVuSans-69" d="M 603 3500 
L 1178 3500 
L 1178 0 
L 603 0 
L 603 3500 
z
M 603 4863 
L 1178 4863 
L 1178 4134 
L 603 4134 
L 603 4863 
z
" transform="scale(0.015625)"/>
       <path id="DejaVuSans-6f" d="M 1959 3097 
Q 1497 3097 1228 2736 
Q 959 2375 959 1747 
Q 959 1119 1226 758 
Q 1494 397 1959 397 
Q 2419 397 2687 759 
Q 2956 1122 2956 1747 
Q 2956 2369 2687 2733 
Q 2419 3097 1959 3097 
z
M 1959 3584 
Q 2709 3584 3137 3096 
Q 3566 2609 3566 1747 
Q 3566 888 3137 398 
Q 2709 -91 1959 -91 
Q 1206 -91 779 398 
Q 353 888 353 1747 
Q 353 2609 779 3096 
Q 1206 3584 1959 3584 
z
" transform="scale(0.015625)"/>
       <path id="DejaVuSans-73" d="M 2834 3397 
L 2834 2853 
Q 2591 2978 2328 3040 
Q 2066 3103 1784 3103 
Q 1356 3103 1142 2972 
Q 928 2841 928 2578 
Q 928 2378 1081 2264 
Q 1234 2150 1697 2047 
L 1894 2003 
Q 2506 1872 2764 1633 
Q 3022 1394 3022 966 
Q 3022 478 2636 193 
Q 2250 -91 1575 -91 
Q 1294 -91 989 -36 
Q 684 19 347 128 
L 347 722 
Q 666 556 975 473 
Q 1284 391 1588 391 
Q 1994 391 2212 530 
Q 2431 669 2431 922 
Q 2431 1156 2273 1281 
Q 2116 1406 1581 1522 
L 1381 1569 
Q 847 1681 609 1914 
Q 372 2147 372 2553 
Q 372 3047 722 3315 
Q 1072 3584 1716 3584 
Q 2034 3584 2315 3537 
Q 2597 3491 2834 3397 
z
" transform="scale(0.015625)"/>
      </defs>
      <use xlink:href="#DejaVuSans-23"/>
      <use xlink:href="#DejaVuSans-20" transform="translate(83.789062 0)"/>
      <use xlink:href="#DejaVuSans-72" transform="translate(115.576172 0)"/>
      <use xlink:href="#DejaVuSans-65" transform="translate(154.439453 0)"/>
      <use xlink:href="#DejaVuSans-61" transform="translate(215.962891 0)"/>
      <use xlink:href="#DejaVuSans-63" transform="translate(277.242188 0)"/>
      <use xlink:href="#DejaVuSans-74" transform="translate(332.222656 0)"/>
      <use xlink:href="#DejaVuSans-69" transform="translate(371.431641 0)"/>
      <use xlink:href="#DejaVuSans-6f" transform="translate(399.214844 0)"/>
      <use xlink:href="#DejaVuSans-6e" transform="translate(460.396484 0)"/>
      <use xlink:href="#DejaVuSans-73" transform="translate(523.775391 0)"/>
     </g>
    </g>
   </g>
   <g id="patch_141">
    <path d="M 66.53 288.88 
L 66.53 15.12 
" style="fill: none; stroke: #000000; stroke-width: 0.8; stroke-linejoin: miter; stroke-linecap: square"/>
   </g>
   <g id="patch_142">
    <path d="M 1280.88 288.88 
L 1280.88 15.12 
" style="fill: none; stroke: #000000; stroke-width: 0.8; stroke-linejoin: miter; stroke-linecap: square"/>
   </g>
   <g id="patch_143">
    <path d="M 66.53 288.88 
L 1280.88 288.88 
" style="fill: none; stroke: #000000; stroke-width: 0.8; stroke-linejoin: miter; stroke-linecap: square"/>
   </g>
   <g id="patch_144">
    <path d="M 66.53 15.12 
L 1280.88 15.12 
" style="fill: none; stroke: #000000; stroke-width: 0.8; stroke-linejoin: miter; stroke-linecap: square"/>
   </g>
   <g id="legend_1">
    <g id="patch_145">
     <path d="M 1148.22 59.9475 
L 1272.48 59.9475 
Q 1274.88 59.9475 1274.88 57.5475 
L 1274.88 23.52 
Q 1274.88 21.12 1272.48 21.12 
L 1148.22 21.12 
Q 1145.82 21.12 1145.82 23.52 
L 1145.82 57.5475 
Q 1145.82 59.9475 1148.22 59.9475 
z
" style="fill: #ffffff; opacity: 0.8; stroke: #cccccc; stroke-linejoin: miter"/>
    </g>
    <g id="patch_146">
     <path d="M 1150.62 35.038125 
L 1174.62 35.038125 
L 1174.62 26.638125 
L 1150.62 26.638125 
z
" style="fill: #008000"/>
    </g>
    <g id="text_80">
     <!-- Mechinformed -->
     <g transform="translate(1184.22 35.038125) scale(0.12 -0.12)">
      <defs>
       <path id="DejaVuSans-4d" d="M 628 4666 
L 1569 4666 
L 2759 1491 
L 3956 4666 
L 4897 4666 
L 4897 0 
L 4281 0 
L 4281 4097 
L 3078 897 
L 2444 897 
L 1241 4097 
L 1241 0 
L 628 0 
L 628 4666 
z
" transform="scale(0.015625)"/>
       <path id="DejaVuSans-68" d="M 3513 2113 
L 3513 0 
L 2938 0 
L 2938 2094 
Q 2938 2591 2744 2837 
Q 2550 3084 2163 3084 
Q 1697 3084 1428 2787 
Q 1159 2491 1159 1978 
L 1159 0 
L 581 0 
L 581 4863 
L 1159 4863 
L 1159 2956 
Q 1366 3272 1645 3428 
Q 1925 3584 2291 3584 
Q 2894 3584 3203 3211 
Q 3513 2838 3513 2113 
z
" transform="scale(0.015625)"/>
       <path id="DejaVuSans-66" d="M 2375 4863 
L 2375 4384 
L 1825 4384 
Q 1516 4384 1395 4259 
Q 1275 4134 1275 3809 
L 1275 3500 
L 2222 3500 
L 2222 3053 
L 1275 3053 
L 1275 0 
L 697 0 
L 697 3053 
L 147 3053 
L 147 3500 
L 697 3500 
L 697 3744 
Q 697 4328 969 4595 
Q 1241 4863 1831 4863 
L 2375 4863 
z
" transform="scale(0.015625)"/>
       <path id="DejaVuSans-64" d="M 2906 2969 
L 2906 4863 
L 3481 4863 
L 3481 0 
L 2906 0 
L 2906 525 
Q 2725 213 2448 61 
Q 2172 -91 1784 -91 
Q 1150 -91 751 415 
Q 353 922 353 1747 
Q 353 2572 751 3078 
Q 1150 3584 1784 3584 
Q 2172 3584 2448 3432 
Q 2725 3281 2906 2969 
z
M 947 1747 
Q 947 1113 1208 752 
Q 1469 391 1925 391 
Q 2381 391 2643 752 
Q 2906 1113 2906 1747 
Q 2906 2381 2643 2742 
Q 2381 3103 1925 3103 
Q 1469 3103 1208 2742 
Q 947 2381 947 1747 
z
" transform="scale(0.015625)"/>
      </defs>
      <use xlink:href="#DejaVuSans-4d"/>
      <use xlink:href="#DejaVuSans-65" transform="translate(86.279297 0)"/>
      <use xlink:href="#DejaVuSans-63" transform="translate(147.802734 0)"/>
      <use xlink:href="#DejaVuSans-68" transform="translate(202.783203 0)"/>
      <use xlink:href="#DejaVuSans-69" transform="translate(266.162109 0)"/>
      <use xlink:href="#DejaVuSans-6e" transform="translate(293.945312 0)"/>
      <use xlink:href="#DejaVuSans-66" transform="translate(357.324219 0)"/>
      <use xlink:href="#DejaVuSans-6f" transform="translate(392.529297 0)"/>
      <use xlink:href="#DejaVuSans-72" transform="translate(453.710938 0)"/>
      <use xlink:href="#DejaVuSans-6d" transform="translate(493.074219 0)"/>
      <use xlink:href="#DejaVuSans-65" transform="translate(590.486328 0)"/>
      <use xlink:href="#DejaVuSans-64" transform="translate(652.009766 0)"/>
     </g>
    </g>
    <g id="patch_147">
     <path d="M 1150.62 52.651875 
L 1174.62 52.651875 
L 1174.62 44.251875 
L 1150.62 44.251875 
z
" style="fill: #800080"/>
    </g>
    <g id="text_81">
     <!-- Mechinferred -->
     <g transform="translate(1184.22 52.651875) scale(0.12 -0.12)">
      <use xlink:href="#DejaVuSans-4d"/>
      <use xlink:href="#DejaVuSans-65" transform="translate(86.279297 0)"/>
      <use xlink:href="#DejaVuSans-63" transform="translate(147.802734 0)"/>
      <use xlink:href="#DejaVuSans-68" transform="translate(202.783203 0)"/>
      <use xlink:href="#DejaVuSans-69" transform="translate(266.162109 0)"/>
      <use xlink:href="#DejaVuSans-6e" transform="translate(293.945312 0)"/>
      <use xlink:href="#DejaVuSans-66" transform="translate(357.324219 0)"/>
      <use xlink:href="#DejaVuSans-65" transform="translate(392.529297 0)"/>
      <use xlink:href="#DejaVuSans-72" transform="translate(454.052734 0)"/>
      <use xlink:href="#DejaVuSans-72" transform="translate(493.416016 0)"/>
      <use xlink:href="#DejaVuSans-65" transform="translate(532.279297 0)"/>
      <use xlink:href="#DejaVuSans-64" transform="translate(593.802734 0)"/>
     </g>
    </g>
   </g>
  </g>
 </g>
 <defs>
  <clipPath id="p4877d646ce">
   <rect x="66.53" y="15.12" width="1214.35" height="273.76"/>
  </clipPath>
 </defs>
</svg>
