<?xml version="1.0" encoding="utf-8" standalone="no"?>
<!DOCTYPE svg PUBLIC "-//W3C//DTD SVG 1.1//EN"
  "http://www.w3.org/Graphics/SVG/1.1/DTD/svg11.dtd">
<svg xmlns:xlink="http://www.w3.org/1999/xlink" width="460.8pt" height="345.6pt" viewBox="0 0 460.8 345.6" xmlns="http://www.w3.org/2000/svg" version="1.1">
 <metadata>
  <rdf:RDF xmlns:dc="http://purl.org/dc/elements/1.1/" xmlns:cc="http://creativecommons.org/ns#" xmlns:rdf="http://www.w3.org/1999/02/22-rdf-syntax-ns#">
   <cc:Work>
    <dc:type rdf:resource="http://purl.org/dc/dcmitype/StillImage"/>
    <dc:date>2025-07-23T12:26:57.230272</dc:date>
    <dc:format>image/svg+xml</dc:format>
    <dc:creator>
     <cc:Agent>
      <dc:title>Matplotlib v3.10.1, https://matplotlib.org/</dc:title>
     </cc:Agent>
    </dc:creator>
   </cc:Work>
  </rdf:RDF>
 </metadata>
 <defs>
  <style type="text/css">*{stroke-linejoin: round; stroke-linecap: butt}</style>
 </defs>
 <g id="figure_1">
  <g id="patch_1">
   <path d="M 0 345.6 
L 460.8 345.6 
L 460.8 0 
L 0 0 
z
" style="fill: #ffffff"/>
  </g>
  <g id="axes_1">
   <g id="patch_2">
    <path d="M 47.72 303.64 
L 450 303.64 
L 450 10.8 
L 47.72 10.8 
z
" style="fill: #ffffff"/>
   </g>
   <g id="matplotlib.axis_1">
    <g id="xtick_1">
     <g id="line2d_1">
      <path d="M 47.72 303.64 
L 47.72 10.8 
" clip-path="url(#p299a6de499)" style="fill: none; stroke: #b0b0b0; stroke-width: 0.8; stroke-linecap: square"/>
     </g>
     <g id="line2d_2">
      <defs>
       <path id="mebcd30f2e7" d="M 0 0 
L 0 3.5 
" style="stroke: #000000; stroke-width: 0.8"/>
      </defs>
      <g>
       <use xlink:href="#mebcd30f2e7" x="47.72" y="303.64" style="stroke: #000000; stroke-width: 0.8"/>
      </g>
     </g>
     <g id="text_1">
      <!-- 0.5 -->
      <g transform="translate(39.768438 318.238437) scale(0.1 -0.1)">
       <defs>
        <path id="DejaVuSans-30" d="M 2034 4250 
Q 1547 4250 1301 3770 
Q 1056 3291 1056 2328 
Q 1056 1369 1301 889 
Q 1547 409 2034 409 
Q 2525 409 2770 889 
Q 3016 1369 3016 2328 
Q 3016 3291 2770 3770 
Q 2525 4250 2034 4250 
z
M 2034 4750 
Q 2819 4750 3233 4129 
Q 3647 3509 3647 2328 
Q 3647 1150 3233 529 
Q 2819 -91 2034 -91 
Q 1250 -91 836 529 
Q 422 1150 422 2328 
Q 422 3509 836 4129 
Q 1250 4750 2034 4750 
z
" transform="scale(0.015625)"/>
        <path id="DejaVuSans-2e" d="M 684 794 
L 1344 794 
L 1344 0 
L 684 0 
L 684 794 
z
" transform="scale(0.015625)"/>
        <path id="DejaVuSans-35" d="M 691 4666 
L 3169 4666 
L 3169 4134 
L 1269 4134 
L 1269 2991 
Q 1406 3038 1543 3061 
Q 1681 3084 1819 3084 
Q 2600 3084 3056 2656 
Q 3513 2228 3513 1497 
Q 3513 744 3044 326 
Q 2575 -91 1722 -91 
Q 1428 -91 1123 -41 
Q 819 9 494 109 
L 494 744 
Q 775 591 1075 516 
Q 1375 441 1709 441 
Q 2250 441 2565 725 
Q 2881 1009 2881 1497 
Q 2881 1984 2565 2268 
Q 2250 2553 1709 2553 
Q 1456 2553 1204 2497 
Q 953 2441 691 2322 
L 691 4666 
z
" transform="scale(0.015625)"/>
       </defs>
       <use xlink:href="#DejaVuSans-30"/>
       <use xlink:href="#DejaVuSans-2e" transform="translate(63.623047 0)"/>
       <use xlink:href="#DejaVuSans-35" transform="translate(95.410156 0)"/>
      </g>
     </g>
    </g>
    <g id="xtick_2">
     <g id="line2d_3">
      <path d="M 120.861818 303.64 
L 120.861818 10.8 
" clip-path="url(#p299a6de499)" style="fill: none; stroke: #b0b0b0; stroke-width: 0.8; stroke-linecap: square"/>
     </g>
     <g id="line2d_4">
      <g>
       <use xlink:href="#mebcd30f2e7" x="120.861818" y="303.64" style="stroke: #000000; stroke-width: 0.8"/>
      </g>
     </g>
     <g id="text_2">
      <!-- 0.6 -->
      <g transform="translate(112.910256 318.238437) scale(0.1 -0.1)">
       <defs>
        <path id="DejaVuSans-36" d="M 2113 2584 
Q 1688 2584 1439 2293 
Q 1191 2003 1191 1497 
Q 1191 994 1439 701 
Q 1688 409 2113 409 
Q 2538 409 2786 701 
Q 3034 994 3034 1497 
Q 3034 2003 2786 2293 
Q 2538 2584 2113 2584 
z
M 3366 4563 
L 3366 3988 
Q 3128 4100 2886 4159 
Q 2644 4219 2406 4219 
Q 1781 4219 1451 3797 
Q 1122 3375 1075 2522 
Q 1259 2794 1537 2939 
Q 1816 3084 2150 3084 
Q 2853 3084 3261 2657 
Q 3669 2231 3669 1497 
Q 3669 778 3244 343 
Q 2819 -91 2113 -91 
Q 1303 -91 875 529 
Q 447 1150 447 2328 
Q 447 3434 972 4092 
Q 1497 4750 2381 4750 
Q 2619 4750 2861 4703 
Q 3103 4656 3366 4563 
z
" transform="scale(0.015625)"/>
       </defs>
       <use xlink:href="#DejaVuSans-30"/>
       <use xlink:href="#DejaVuSans-2e" transform="translate(63.623047 0)"/>
       <use xlink:href="#DejaVuSans-36" transform="translate(95.410156 0)"/>
      </g>
     </g>
    </g>
    <g id="xtick_3">
     <g id="line2d_5">
      <path d="M 194.003636 303.64 
L 194.003636 10.8 
" clip-path="url(#p299a6de499)" style="fill: none; stroke: #b0b0b0; stroke-width: 0.8; stroke-linecap: square"/>
     </g>
     <g id="line2d_6">
      <g>
       <use xlink:href="#mebcd30f2e7" x="194.003636" y="303.64" style="stroke: #000000; stroke-width: 0.8"/>
      </g>
     </g>
     <g id="text_3">
      <!-- 0.7 -->
      <g transform="translate(186.052074 318.238437) scale(0.1 -0.1)">
       <defs>
        <path id="DejaVuSans-37" d="M 525 4666 
L 3525 4666 
L 3525 4397 
L 1831 0 
L 1172 0 
L 2766 4134 
L 525 4134 
L 525 4666 
z
" transform="scale(0.015625)"/>
       </defs>
       <use xlink:href="#DejaVuSans-30"/>
       <use xlink:href="#DejaVuSans-2e" transform="translate(63.623047 0)"/>
       <use xlink:href="#DejaVuSans-37" transform="translate(95.410156 0)"/>
      </g>
     </g>
    </g>
    <g id="xtick_4">
     <g id="line2d_7">
      <path d="M 267.145455 303.64 
L 267.145455 10.8 
" clip-path="url(#p299a6de499)" style="fill: none; stroke: #b0b0b0; stroke-width: 0.8; stroke-linecap: square"/>
     </g>
     <g id="line2d_8">
      <g>
       <use xlink:href="#mebcd30f2e7" x="267.145455" y="303.64" style="stroke: #000000; stroke-width: 0.8"/>
      </g>
     </g>
     <g id="text_4">
      <!-- 0.8 -->
      <g transform="translate(259.193892 318.238437) scale(0.1 -0.1)">
       <defs>
        <path id="DejaVuSans-38" d="M 2034 2216 
Q 1584 2216 1326 1975 
Q 1069 1734 1069 1313 
Q 1069 891 1326 650 
Q 1584 409 2034 409 
Q 2484 409 2743 651 
Q 3003 894 3003 1313 
Q 3003 1734 2745 1975 
Q 2488 2216 2034 2216 
z
M 1403 2484 
Q 997 2584 770 2862 
Q 544 3141 544 3541 
Q 544 4100 942 4425 
Q 1341 4750 2034 4750 
Q 2731 4750 3128 4425 
Q 3525 4100 3525 3541 
Q 3525 3141 3298 2862 
Q 3072 2584 2669 2484 
Q 3125 2378 3379 2068 
Q 3634 1759 3634 1313 
Q 3634 634 3220 271 
Q 2806 -91 2034 -91 
Q 1263 -91 848 271 
Q 434 634 434 1313 
Q 434 1759 690 2068 
Q 947 2378 1403 2484 
z
M 1172 3481 
Q 1172 3119 1398 2916 
Q 1625 2713 2034 2713 
Q 2441 2713 2670 2916 
Q 2900 3119 2900 3481 
Q 2900 3844 2670 4047 
Q 2441 4250 2034 4250 
Q 1625 4250 1398 4047 
Q 1172 3844 1172 3481 
z
" transform="scale(0.015625)"/>
       </defs>
       <use xlink:href="#DejaVuSans-30"/>
       <use xlink:href="#DejaVuSans-2e" transform="translate(63.623047 0)"/>
       <use xlink:href="#DejaVuSans-38" transform="translate(95.410156 0)"/>
      </g>
     </g>
    </g>
    <g id="xtick_5">
     <g id="line2d_9">
      <path d="M 340.287273 303.64 
L 340.287273 10.8 
" clip-path="url(#p299a6de499)" style="fill: none; stroke: #b0b0b0; stroke-width: 0.8; stroke-linecap: square"/>
     </g>
     <g id="line2d_10">
      <g>
       <use xlink:href="#mebcd30f2e7" x="340.287273" y="303.64" style="stroke: #000000; stroke-width: 0.8"/>
      </g>
     </g>
     <g id="text_5">
      <!-- 0.9 -->
      <g transform="translate(332.33571 318.238437) scale(0.1 -0.1)">
       <defs>
        <path id="DejaVuSans-39" d="M 703 97 
L 703 672 
Q 941 559 1184 500 
Q 1428 441 1663 441 
Q 2288 441 2617 861 
Q 2947 1281 2994 2138 
Q 2813 1869 2534 1725 
Q 2256 1581 1919 1581 
Q 1219 1581 811 2004 
Q 403 2428 403 3163 
Q 403 3881 828 4315 
Q 1253 4750 1959 4750 
Q 2769 4750 3195 4129 
Q 3622 3509 3622 2328 
Q 3622 1225 3098 567 
Q 2575 -91 1691 -91 
Q 1453 -91 1209 -44 
Q 966 3 703 97 
z
M 1959 2075 
Q 2384 2075 2632 2365 
Q 2881 2656 2881 3163 
Q 2881 3666 2632 3958 
Q 2384 4250 1959 4250 
Q 1534 4250 1286 3958 
Q 1038 3666 1038 3163 
Q 1038 2656 1286 2365 
Q 1534 2075 1959 2075 
z
" transform="scale(0.015625)"/>
       </defs>
       <use xlink:href="#DejaVuSans-30"/>
       <use xlink:href="#DejaVuSans-2e" transform="translate(63.623047 0)"/>
       <use xlink:href="#DejaVuSans-39" transform="translate(95.410156 0)"/>
      </g>
     </g>
    </g>
    <g id="xtick_6">
     <g id="line2d_11">
      <path d="M 413.429091 303.64 
L 413.429091 10.8 
" clip-path="url(#p299a6de499)" style="fill: none; stroke: #b0b0b0; stroke-width: 0.8; stroke-linecap: square"/>
     </g>
     <g id="line2d_12">
      <g>
       <use xlink:href="#mebcd30f2e7" x="413.429091" y="303.64" style="stroke: #000000; stroke-width: 0.8"/>
      </g>
     </g>
     <g id="text_6">
      <!-- 1.0 -->
      <g transform="translate(405.477528 318.238437) scale(0.1 -0.1)">
       <defs>
        <path id="DejaVuSans-31" d="M 794 531 
L 1825 531 
L 1825 4091 
L 703 3866 
L 703 4441 
L 1819 4666 
L 2450 4666 
L 2450 531 
L 3481 531 
L 3481 0 
L 794 0 
L 794 531 
z
" transform="scale(0.015625)"/>
       </defs>
       <use xlink:href="#DejaVuSans-31"/>
       <use xlink:href="#DejaVuSans-2e" transform="translate(63.623047 0)"/>
       <use xlink:href="#DejaVuSans-30" transform="translate(95.410156 0)"/>
      </g>
     </g>
    </g>
    <g id="text_7">
     <!-- Atom Recall -->
     <g transform="translate(219.131094 331.916562) scale(0.1 -0.1)">
      <defs>
       <path id="DejaVuSans-41" d="M 2188 4044 
L 1331 1722 
L 3047 1722 
L 2188 4044 
z
M 1831 4666 
L 2547 4666 
L 4325 0 
L 3669 0 
L 3244 1197 
L 1141 1197 
L 716 0 
L 50 0 
L 1831 4666 
z
" transform="scale(0.015625)"/>
       <path id="DejaVuSans-74" d="M 1172 4494 
L 1172 3500 
L 2356 3500 
L 2356 3053 
L 1172 3053 
L 1172 1153 
Q 1172 725 1289 603 
Q 1406 481 1766 481 
L 2356 481 
L 2356 0 
L 1766 0 
Q 1100 0 847 248 
Q 594 497 594 1153 
L 594 3053 
L 172 3053 
L 172 3500 
L 594 3500 
L 594 4494 
L 1172 4494 
z
" transform="scale(0.015625)"/>
       <path id="DejaVuSans-6f" d="M 1959 3097 
Q 1497 3097 1228 2736 
Q 959 2375 959 1747 
Q 959 1119 1226 758 
Q 1494 397 1959 397 
Q 2419 397 2687 759 
Q 2956 1122 2956 1747 
Q 2956 2369 2687 2733 
Q 2419 3097 1959 3097 
z
M 1959 3584 
Q 2709 3584 3137 3096 
Q 3566 2609 3566 1747 
Q 3566 888 3137 398 
Q 2709 -91 1959 -91 
Q 1206 -91 779 398 
Q 353 888 353 1747 
Q 353 2609 779 3096 
Q 1206 3584 1959 3584 
z
" transform="scale(0.015625)"/>
       <path id="DejaVuSans-6d" d="M 3328 2828 
Q 3544 3216 3844 3400 
Q 4144 3584 4550 3584 
Q 5097 3584 5394 3201 
Q 5691 2819 5691 2113 
L 5691 0 
L 5113 0 
L 5113 2094 
Q 5113 2597 4934 2840 
Q 4756 3084 4391 3084 
Q 3944 3084 3684 2787 
Q 3425 2491 3425 1978 
L 3425 0 
L 2847 0 
L 2847 2094 
Q 2847 2600 2669 2842 
Q 2491 3084 2119 3084 
Q 1678 3084 1418 2786 
Q 1159 2488 1159 1978 
L 1159 0 
L 581 0 
L 581 3500 
L 1159 3500 
L 1159 2956 
Q 1356 3278 1631 3431 
Q 1906 3584 2284 3584 
Q 2666 3584 2933 3390 
Q 3200 3197 3328 2828 
z
" transform="scale(0.015625)"/>
       <path id="DejaVuSans-20" transform="scale(0.015625)"/>
       <path id="DejaVuSans-52" d="M 2841 2188 
Q 3044 2119 3236 1894 
Q 3428 1669 3622 1275 
L 4263 0 
L 3584 0 
L 2988 1197 
Q 2756 1666 2539 1819 
Q 2322 1972 1947 1972 
L 1259 1972 
L 1259 0 
L 628 0 
L 628 4666 
L 2053 4666 
Q 2853 4666 3247 4331 
Q 3641 3997 3641 3322 
Q 3641 2881 3436 2590 
Q 3231 2300 2841 2188 
z
M 1259 4147 
L 1259 2491 
L 2053 2491 
Q 2509 2491 2742 2702 
Q 2975 2913 2975 3322 
Q 2975 3731 2742 3939 
Q 2509 4147 2053 4147 
L 1259 4147 
z
" transform="scale(0.015625)"/>
       <path id="DejaVuSans-65" d="M 3597 1894 
L 3597 1613 
L 953 1613 
Q 991 1019 1311 708 
Q 1631 397 2203 397 
Q 2534 397 2845 478 
Q 3156 559 3463 722 
L 3463 178 
Q 3153 47 2828 -22 
Q 2503 -91 2169 -91 
Q 1331 -91 842 396 
Q 353 884 353 1716 
Q 353 2575 817 3079 
Q 1281 3584 2069 3584 
Q 2775 3584 3186 3129 
Q 3597 2675 3597 1894 
z
M 3022 2063 
Q 3016 2534 2758 2815 
Q 2500 3097 2075 3097 
Q 1594 3097 1305 2825 
Q 1016 2553 972 2059 
L 3022 2063 
z
" transform="scale(0.015625)"/>
       <path id="DejaVuSans-63" d="M 3122 3366 
L 3122 2828 
Q 2878 2963 2633 3030 
Q 2388 3097 2138 3097 
Q 1578 3097 1268 2742 
Q 959 2388 959 1747 
Q 959 1106 1268 751 
Q 1578 397 2138 397 
Q 2388 397 2633 464 
Q 2878 531 3122 666 
L 3122 134 
Q 2881 22 2623 -34 
Q 2366 -91 2075 -91 
Q 1284 -91 818 406 
Q 353 903 353 1747 
Q 353 2603 823 3093 
Q 1294 3584 2113 3584 
Q 2378 3584 2631 3529 
Q 2884 3475 3122 3366 
z
" transform="scale(0.015625)"/>
       <path id="DejaVuSans-61" d="M 2194 1759 
Q 1497 1759 1228 1600 
Q 959 1441 959 1056 
Q 959 750 1161 570 
Q 1363 391 1709 391 
Q 2188 391 2477 730 
Q 2766 1069 2766 1631 
L 2766 1759 
L 2194 1759 
z
M 3341 1997 
L 3341 0 
L 2766 0 
L 2766 531 
Q 2569 213 2275 61 
Q 1981 -91 1556 -91 
Q 1019 -91 701 211 
Q 384 513 384 1019 
Q 384 1609 779 1909 
Q 1175 2209 1959 2209 
L 2766 2209 
L 2766 2266 
Q 2766 2663 2505 2880 
Q 2244 3097 1772 3097 
Q 1472 3097 1187 3025 
Q 903 2953 641 2809 
L 641 3341 
Q 956 3463 1253 3523 
Q 1550 3584 1831 3584 
Q 2591 3584 2966 3190 
Q 3341 2797 3341 1997 
z
" transform="scale(0.015625)"/>
       <path id="DejaVuSans-6c" d="M 603 4863 
L 1178 4863 
L 1178 0 
L 603 0 
L 603 4863 
z
" transform="scale(0.015625)"/>
      </defs>
      <use xlink:href="#DejaVuSans-41"/>
      <use xlink:href="#DejaVuSans-74" transform="translate(66.658203 0)"/>
      <use xlink:href="#DejaVuSans-6f" transform="translate(105.867188 0)"/>
      <use xlink:href="#DejaVuSans-6d" transform="translate(167.048828 0)"/>
      <use xlink:href="#DejaVuSans-20" transform="translate(264.460938 0)"/>
      <use xlink:href="#DejaVuSans-52" transform="translate(296.248047 0)"/>
      <use xlink:href="#DejaVuSans-65" transform="translate(361.230469 0)"/>
      <use xlink:href="#DejaVuSans-63" transform="translate(422.753906 0)"/>
      <use xlink:href="#DejaVuSans-61" transform="translate(477.734375 0)"/>
      <use xlink:href="#DejaVuSans-6c" transform="translate(539.013672 0)"/>
      <use xlink:href="#DejaVuSans-6c" transform="translate(566.796875 0)"/>
     </g>
    </g>
   </g>
   <g id="matplotlib.axis_2">
    <g id="ytick_1">
     <g id="line2d_13">
      <path d="M 47.72 237.538566 
L 450 237.538566 
" clip-path="url(#p299a6de499)" style="fill: none; stroke: #b0b0b0; stroke-width: 0.8; stroke-linecap: square"/>
     </g>
     <g id="line2d_14">
      <defs>
       <path id="m133221afca" d="M 0 0 
L -3.5 0 
" style="stroke: #000000; stroke-width: 0.8"/>
      </defs>
      <g>
       <use xlink:href="#m133221afca" x="47.72" y="237.538566" style="stroke: #000000; stroke-width: 0.8"/>
      </g>
     </g>
     <g id="text_8">
      <!-- 0.3 -->
      <g transform="translate(24.816875 241.337785) scale(0.1 -0.1)">
       <defs>
        <path id="DejaVuSans-33" d="M 2597 2516 
Q 3050 2419 3304 2112 
Q 3559 1806 3559 1356 
Q 3559 666 3084 287 
Q 2609 -91 1734 -91 
Q 1441 -91 1130 -33 
Q 819 25 488 141 
L 488 750 
Q 750 597 1062 519 
Q 1375 441 1716 441 
Q 2309 441 2620 675 
Q 2931 909 2931 1356 
Q 2931 1769 2642 2001 
Q 2353 2234 1838 2234 
L 1294 2234 
L 1294 2753 
L 1863 2753 
Q 2328 2753 2575 2939 
Q 2822 3125 2822 3475 
Q 2822 3834 2567 4026 
Q 2313 4219 1838 4219 
Q 1578 4219 1281 4162 
Q 984 4106 628 3988 
L 628 4550 
Q 988 4650 1302 4700 
Q 1616 4750 1894 4750 
Q 2613 4750 3031 4423 
Q 3450 4097 3450 3541 
Q 3450 3153 3228 2886 
Q 3006 2619 2597 2516 
z
" transform="scale(0.015625)"/>
       </defs>
       <use xlink:href="#DejaVuSans-30"/>
       <use xlink:href="#DejaVuSans-2e" transform="translate(63.623047 0)"/>
       <use xlink:href="#DejaVuSans-33" transform="translate(95.410156 0)"/>
      </g>
     </g>
    </g>
    <g id="ytick_2">
     <g id="line2d_15">
      <path d="M 47.72 207.048901 
L 450 207.048901 
" clip-path="url(#p299a6de499)" style="fill: none; stroke: #b0b0b0; stroke-width: 0.8; stroke-linecap: square"/>
     </g>
     <g id="line2d_16">
      <g>
       <use xlink:href="#m133221afca" x="47.72" y="207.048901" style="stroke: #000000; stroke-width: 0.8"/>
      </g>
     </g>
     <g id="text_9">
      <!-- 0.4 -->
      <g transform="translate(24.816875 210.84812) scale(0.1 -0.1)">
       <defs>
        <path id="DejaVuSans-34" d="M 2419 4116 
L 825 1625 
L 2419 1625 
L 2419 4116 
z
M 2253 4666 
L 3047 4666 
L 3047 1625 
L 3713 1625 
L 3713 1100 
L 3047 1100 
L 3047 0 
L 2419 0 
L 2419 1100 
L 313 1100 
L 313 1709 
L 2253 4666 
z
" transform="scale(0.015625)"/>
       </defs>
       <use xlink:href="#DejaVuSans-30"/>
       <use xlink:href="#DejaVuSans-2e" transform="translate(63.623047 0)"/>
       <use xlink:href="#DejaVuSans-34" transform="translate(95.410156 0)"/>
      </g>
     </g>
    </g>
    <g id="ytick_3">
     <g id="line2d_17">
      <path d="M 47.72 176.559236 
L 450 176.559236 
" clip-path="url(#p299a6de499)" style="fill: none; stroke: #b0b0b0; stroke-width: 0.8; stroke-linecap: square"/>
     </g>
     <g id="line2d_18">
      <g>
       <use xlink:href="#m133221afca" x="47.72" y="176.559236" style="stroke: #000000; stroke-width: 0.8"/>
      </g>
     </g>
     <g id="text_10">
      <!-- 0.5 -->
      <g transform="translate(24.816875 180.358454) scale(0.1 -0.1)">
       <use xlink:href="#DejaVuSans-30"/>
       <use xlink:href="#DejaVuSans-2e" transform="translate(63.623047 0)"/>
       <use xlink:href="#DejaVuSans-35" transform="translate(95.410156 0)"/>
      </g>
     </g>
    </g>
    <g id="ytick_4">
     <g id="line2d_19">
      <path d="M 47.72 146.06957 
L 450 146.06957 
" clip-path="url(#p299a6de499)" style="fill: none; stroke: #b0b0b0; stroke-width: 0.8; stroke-linecap: square"/>
     </g>
     <g id="line2d_20">
      <g>
       <use xlink:href="#m133221afca" x="47.72" y="146.06957" style="stroke: #000000; stroke-width: 0.8"/>
      </g>
     </g>
     <g id="text_11">
      <!-- 0.6 -->
      <g transform="translate(24.816875 149.868789) scale(0.1 -0.1)">
       <use xlink:href="#DejaVuSans-30"/>
       <use xlink:href="#DejaVuSans-2e" transform="translate(63.623047 0)"/>
       <use xlink:href="#DejaVuSans-36" transform="translate(95.410156 0)"/>
      </g>
     </g>
    </g>
    <g id="ytick_5">
     <g id="line2d_21">
      <path d="M 47.72 115.579905 
L 450 115.579905 
" clip-path="url(#p299a6de499)" style="fill: none; stroke: #b0b0b0; stroke-width: 0.8; stroke-linecap: square"/>
     </g>
     <g id="line2d_22">
      <g>
       <use xlink:href="#m133221afca" x="47.72" y="115.579905" style="stroke: #000000; stroke-width: 0.8"/>
      </g>
     </g>
     <g id="text_12">
      <!-- 0.7 -->
      <g transform="translate(24.816875 119.379124) scale(0.1 -0.1)">
       <use xlink:href="#DejaVuSans-30"/>
       <use xlink:href="#DejaVuSans-2e" transform="translate(63.623047 0)"/>
       <use xlink:href="#DejaVuSans-37" transform="translate(95.410156 0)"/>
      </g>
     </g>
    </g>
    <g id="ytick_6">
     <g id="line2d_23">
      <path d="M 47.72 85.09024 
L 450 85.09024 
" clip-path="url(#p299a6de499)" style="fill: none; stroke: #b0b0b0; stroke-width: 0.8; stroke-linecap: square"/>
     </g>
     <g id="line2d_24">
      <g>
       <use xlink:href="#m133221afca" x="47.72" y="85.09024" style="stroke: #000000; stroke-width: 0.8"/>
      </g>
     </g>
     <g id="text_13">
      <!-- 0.8 -->
      <g transform="translate(24.816875 88.889458) scale(0.1 -0.1)">
       <use xlink:href="#DejaVuSans-30"/>
       <use xlink:href="#DejaVuSans-2e" transform="translate(63.623047 0)"/>
       <use xlink:href="#DejaVuSans-38" transform="translate(95.410156 0)"/>
      </g>
     </g>
    </g>
    <g id="ytick_7">
     <g id="line2d_25">
      <path d="M 47.72 54.600574 
L 450 54.600574 
" clip-path="url(#p299a6de499)" style="fill: none; stroke: #b0b0b0; stroke-width: 0.8; stroke-linecap: square"/>
     </g>
     <g id="line2d_26">
      <g>
       <use xlink:href="#m133221afca" x="47.72" y="54.600574" style="stroke: #000000; stroke-width: 0.8"/>
      </g>
     </g>
     <g id="text_14">
      <!-- 0.9 -->
      <g transform="translate(24.816875 58.399793) scale(0.1 -0.1)">
       <use xlink:href="#DejaVuSans-30"/>
       <use xlink:href="#DejaVuSans-2e" transform="translate(63.623047 0)"/>
       <use xlink:href="#DejaVuSans-39" transform="translate(95.410156 0)"/>
      </g>
     </g>
    </g>
    <g id="ytick_8">
     <g id="line2d_27">
      <path d="M 47.72 24.110909 
L 450 24.110909 
" clip-path="url(#p299a6de499)" style="fill: none; stroke: #b0b0b0; stroke-width: 0.8; stroke-linecap: square"/>
     </g>
     <g id="line2d_28">
      <g>
       <use xlink:href="#m133221afca" x="47.72" y="24.110909" style="stroke: #000000; stroke-width: 0.8"/>
      </g>
     </g>
     <g id="text_15">
      <!-- 1.0 -->
      <g transform="translate(24.816875 27.910128) scale(0.1 -0.1)">
       <use xlink:href="#DejaVuSans-31"/>
       <use xlink:href="#DejaVuSans-2e" transform="translate(63.623047 0)"/>
       <use xlink:href="#DejaVuSans-30" transform="translate(95.410156 0)"/>
      </g>
     </g>
    </g>
    <g id="text_16">
     <!-- Atom Precision -->
     <g transform="translate(18.737188 194.33875) rotate(-90) scale(0.1 -0.1)">
      <defs>
       <path id="DejaVuSans-50" d="M 1259 4147 
L 1259 2394 
L 2053 2394 
Q 2494 2394 2734 2622 
Q 2975 2850 2975 3272 
Q 2975 3691 2734 3919 
Q 2494 4147 2053 4147 
L 1259 4147 
z
M 628 4666 
L 2053 4666 
Q 2838 4666 3239 4311 
Q 3641 3956 3641 3272 
Q 3641 2581 3239 2228 
Q 2838 1875 2053 1875 
L 1259 1875 
L 1259 0 
L 628 0 
L 628 4666 
z
" transform="scale(0.015625)"/>
       <path id="DejaVuSans-72" d="M 2631 2963 
Q 2534 3019 2420 3045 
Q 2306 3072 2169 3072 
Q 1681 3072 1420 2755 
Q 1159 2438 1159 1844 
L 1159 0 
L 581 0 
L 581 3500 
L 1159 3500 
L 1159 2956 
Q 1341 3275 1631 3429 
Q 1922 3584 2338 3584 
Q 2397 3584 2469 3576 
Q 2541 3569 2628 3553 
L 2631 2963 
z
" transform="scale(0.015625)"/>
       <path id="DejaVuSans-69" d="M 603 3500 
L 1178 3500 
L 1178 0 
L 603 0 
L 603 3500 
z
M 603 4863 
L 1178 4863 
L 1178 4134 
L 603 4134 
L 603 4863 
z
" transform="scale(0.015625)"/>
       <path id="DejaVuSans-73" d="M 2834 3397 
L 2834 2853 
Q 2591 2978 2328 3040 
Q 2066 3103 1784 3103 
Q 1356 3103 1142 2972 
Q 928 2841 928 2578 
Q 928 2378 1081 2264 
Q 1234 2150 1697 2047 
L 1894 2003 
Q 2506 1872 2764 1633 
Q 3022 1394 3022 966 
Q 3022 478 2636 193 
Q 2250 -91 1575 -91 
Q 1294 -91 989 -36 
Q 684 19 347 128 
L 347 722 
Q 666 556 975 473 
Q 1284 391 1588 391 
Q 1994 391 2212 530 
Q 2431 669 2431 922 
Q 2431 1156 2273 1281 
Q 2116 1406 1581 1522 
L 1381 1569 
Q 847 1681 609 1914 
Q 372 2147 372 2553 
Q 372 3047 722 3315 
Q 1072 3584 1716 3584 
Q 2034 3584 2315 3537 
Q 2597 3491 2834 3397 
z
" transform="scale(0.015625)"/>
       <path id="DejaVuSans-6e" d="M 3513 2113 
L 3513 0 
L 2938 0 
L 2938 2094 
Q 2938 2591 2744 2837 
Q 2550 3084 2163 3084 
Q 1697 3084 1428 2787 
Q 1159 2491 1159 1978 
L 1159 0 
L 581 0 
L 581 3500 
L 1159 3500 
L 1159 2956 
Q 1366 3272 1645 3428 
Q 1925 3584 2291 3584 
Q 2894 3584 3203 3211 
Q 3513 2838 3513 2113 
z
" transform="scale(0.015625)"/>
      </defs>
      <use xlink:href="#DejaVuSans-41"/>
      <use xlink:href="#DejaVuSans-74" transform="translate(66.658203 0)"/>
      <use xlink:href="#DejaVuSans-6f" transform="translate(105.867188 0)"/>
      <use xlink:href="#DejaVuSans-6d" transform="translate(167.048828 0)"/>
      <use xlink:href="#DejaVuSans-20" transform="translate(264.460938 0)"/>
      <use xlink:href="#DejaVuSans-50" transform="translate(296.248047 0)"/>
      <use xlink:href="#DejaVuSans-72" transform="translate(354.800781 0)"/>
      <use xlink:href="#DejaVuSans-65" transform="translate(393.664062 0)"/>
      <use xlink:href="#DejaVuSans-63" transform="translate(455.1875 0)"/>
      <use xlink:href="#DejaVuSans-69" transform="translate(510.167969 0)"/>
      <use xlink:href="#DejaVuSans-73" transform="translate(537.951172 0)"/>
      <use xlink:href="#DejaVuSans-69" transform="translate(590.050781 0)"/>
      <use xlink:href="#DejaVuSans-6f" transform="translate(617.833984 0)"/>
      <use xlink:href="#DejaVuSans-6e" transform="translate(679.015625 0)"/>
     </g>
    </g>
   </g>
   <g id="line2d_29">
    <path d="M 413.429091 290.329091 
L 413.321301 287.99558 
L 413.296427 287.934084 
L 413.296427 287.912743 
L 413.188637 286.312967 
L 413.114014 286.218259 
L 413.114014 286.214036 
L 413.006224 283.734641 
L 412.989641 283.735135 
L 412.989641 283.630813 
L 412.881852 280.564677 
L 412.87356 280.565139 
L 412.87356 280.513042 
L 412.765771 280.03506 
L 412.757479 280.035526 
L 412.757479 279.941275 
L 412.64969 277.163923 
L 412.591649 277.103742 
L 412.591649 277.061088 
L 412.48386 276.082643 
L 412.467277 276.039176 
L 412.467277 275.979362 
L 412.359487 274.153901 
L 412.351196 274.154412 
L 412.351196 274.071829 
L 412.243406 272.365136 
L 412.235115 272.36566 
L 412.235115 272.262719 
L 412.135617 271.054328 
L 412.119034 271.055144 
L 412.119034 271.053017 
L 412.011244 270.072309 
L 412.002953 270.072849 
L 412.002953 269.962531 
L 411.903455 269.172606 
L 411.870289 269.174791 
L 411.870289 269.069362 
L 411.812248 267.829025 
L 411.596669 267.670492 
L 411.497171 267.374917 
L 411.314758 267.356191 
L 411.314758 267.28908 
L 411.223552 265.811441 
L 411.132345 265.730763 
L 411.132345 265.720308 
L 411.024556 264.889224 
L 411.016264 264.8898 
L 411.016264 264.876148 
L 410.908475 263.282613 
L 410.891892 263.171586 
L 410.784102 262.015283 
L 410.759228 261.985066 
L 410.759228 261.911229 
L 410.709479 260.834471 
L 410.502191 260.834959 
L 410.502191 260.754712 
L 410.402693 260.182019 
L 410.369527 260.183031 
L 410.369527 260.135069 
L 410.270029 259.683306 
L 410.187114 259.637146 
L 410.187114 259.579048 
L 410.087616 259.045048 
L 410.004701 259.012775 
L 410.004701 258.940043 
L 409.896911 258.585274 
L 409.880328 258.499132 
L 409.880328 258.479066 
L 409.78083 258.014857 
L 409.755956 258.005041 
L 409.755956 258.002592 
L 409.648166 257.162719 
L 409.598417 257.096188 
L 409.598417 257.092902 
L 409.507211 256.408196 
L 409.399421 256.28554 
L 409.291632 255.623744 
L 409.241883 255.516441 
L 409.142385 255.069308 
L 409.11751 255.044226 
L 409.009721 254.301296 
L 408.802433 254.224375 
L 408.802433 254.203444 
L 408.777559 254.046546 
L 408.760976 254.047626 
L 408.686352 254.051328 
L 408.686352 253.97303 
L 408.578563 253.045842 
L 408.570271 253.046493 
L 408.570271 252.938572 
L 408.553688 252.833167 
L 408.545397 252.833168 
L 408.387858 252.759464 
L 408.387858 252.734207 
L 408.280069 251.440012 
L 408.263486 251.421952 
L 408.263486 251.356983 
L 408.172279 251.29601 
L 407.989866 251.213198 
L 407.989866 251.19914 
L 407.882077 250.896058 
L 407.840619 250.810128 
L 407.840619 250.789733 
L 407.73283 249.251959 
L 407.724538 249.252631 
L 407.724538 249.141162 
L 407.616749 247.772831 
L 407.591874 247.736274 
L 407.591874 247.663428 
L 407.508959 247.005969 
L 407.467502 247.005866 
L 407.467502 246.9082 
L 407.359712 246.711195 
L 407.29338 246.575529 
L 407.23534 246.557916 
L 407.23534 246.467835 
L 407.135842 245.755879 
L 407.102676 245.647251 
L 406.994886 243.809746 
L 406.928554 243.746697 
L 406.928554 243.733878 
L 406.920263 243.372428 
L 406.895388 243.374266 
L 406.613477 243.310109 
L 406.613477 243.284469 
L 406.505688 242.6003 
L 406.232068 242.004798 
L 406.124278 241.313261 
L 406.074529 241.220118 
L 406.074529 241.211723 
L 405.999906 240.968497 
L 405.916991 240.913616 
L 405.916991 240.904869 
L 405.850659 240.258507 
L 405.784327 240.228158 
L 405.684829 239.847778 
L 405.651663 239.850669 
L 405.651663 239.756772 
L 405.543873 238.024853 
L 405.436084 237.925344 
L 405.436084 237.922849 
L 405.394626 237.059772 
L 405.087841 236.995082 
L 405.087841 236.975655 
L 404.980051 236.184232 
L 404.963468 236.14421 
L 404.963468 236.1361 
L 404.855679 235.201567 
L 404.764472 235.197512 
L 404.764472 235.179297 
L 404.681557 234.110952 
L 404.664974 234.112452 
L 404.573768 234.013501 
L 404.573768 234.009765 
L 404.465978 233.915821 
L 404.341606 233.817708 
L 404.341606 233.816684 
L 404.242108 233.746838 
L 404.109444 233.415285 
L 404.018237 233.406365 
L 404.018237 233.401201 
L 403.960197 232.786584 
L 403.935322 232.788853 
L 403.835824 232.79793 
L 403.835824 232.737911 
L 403.744618 232.2634 
L 403.578788 232.17762 
L 403.578788 232.17656 
L 403.487581 231.864422 
L 403.446124 231.749992 
L 403.354917 231.505636 
L 403.330043 231.507923 
L 403.330043 231.463821 
L 403.280294 231.295192 
L 403.213962 231.301298 
L 403.213962 231.26853 
L 403.131047 230.81838 
L 403.106172 230.820677 
L 403.064715 230.770666 
L 403.064715 230.76739 
L 402.990091 229.535152 
L 402.932051 229.420229 
L 402.923759 229.398923 
L 402.683306 229.350889 
L 402.683306 229.310024 
L 402.675014 229.203035 
L 402.476018 228.949476 
L 402.409686 228.536734 
L 402.326771 228.437301 
L 402.326771 228.433483 
L 402.218981 228.23042 
L 402.177524 228.146027 
L 402.177524 228.119898 
L 402.078026 227.999925 
L 402.003402 227.899698 
L 402.003402 227.897767 
L 401.895613 227.538184 
L 401.787823 227.438136 
L 401.787823 227.436967 
L 401.680034 226.91977 
L 401.60541 226.875592 
L 401.497621 226.285071 
L 401.265459 226.241609 
L 401.265459 226.216447 
L 401.248876 225.956086 
L 401.04988 225.877308 
L 401.04988 225.863629 
L 400.950382 225.435082 
L 400.94209 225.435871 
L 400.88405 225.3809 
L 400.88405 225.327656 
L 400.77626 224.674556 
L 400.643596 224.593243 
L 400.535807 222.854827 
L 400.519224 222.832963 
L 400.519224 222.78729 
L 400.419726 222.098409 
L 399.980276 221.976686 
L 399.88907 221.670015 
L 399.822738 221.641952 
L 399.822738 221.607441 
L 399.673491 221.057888 
L 399.623742 220.98672 
L 399.623742 220.952661 
L 399.515952 220.490317 
L 399.466203 220.42594 
L 399.466203 220.383916 
L 399.383288 220.072192 
L 399.308665 220.017361 
L 399.308665 219.968251 
L 399.200875 219.170049 
L 399.035045 219.082823 
L 399.035045 219.081907 
L 398.935547 218.493118 
L 398.852632 218.380686 
L 398.744843 218.022833 
L 398.645345 217.921294 
L 398.603887 217.797394 
L 398.247352 217.755064 
L 398.247352 217.728271 
L 398.139563 217.587783 
L 398.139563 217.162828 
L 398.114688 217.163862 
L 397.907401 217.050729 
L 397.799611 216.784087 
L 397.666947 216.725417 
L 397.666947 216.685641 
L 397.592324 216.328478 
L 397.434785 216.234971 
L 397.434785 216.233037 
L 397.335287 215.734499 
L 397.260664 215.654547 
L 397.260664 215.631093 
L 397.161166 215.502036 
L 396.96217 215.337863 
L 396.945587 215.128287 
L 396.85438 215.136896 
L 396.812923 215.024996 
L 396.812923 215.021042 
L 396.705133 215.031805 
L 396.705133 215.025874 
L 396.622218 214.962926 
L 396.622218 214.926783 
L 396.290558 214.425583 
L 396.19106 214.130836 
L 396.124728 214.117383 
L 396.124728 214.03388 
L 396.02523 213.950658 
L 395.710153 213.839427 
L 395.610655 213.612415 
L 395.552615 213.572053 
L 395.552615 213.559863 
L 395.444825 213.275339 
L 394.615675 213.202941 
L 394.507886 212.631062 
L 394.433262 212.57964 
L 394.433262 212.552727 
L 394.325472 212.025888 
L 394.143059 211.941346 
L 394.143059 211.939776 
L 394.03527 211.094051 
L 394.010395 211.094453 
L 394.002104 210.987396 
L 393.894314 210.461801 
L 393.711901 210.358926 
L 393.711901 210.105569 
L 393.612403 210.108687 
L 393.496322 209.936556 
L 393.488031 209.913553 
L 393.388533 209.916655 
L 393.189537 209.835492 
L 393.189537 209.828975 
L 393.172954 209.805679 
L 392.882751 209.726006 
L 392.882751 209.724373 
L 392.808128 209.426407 
L 391.962395 208.960148 
L 391.87948 208.13992 
L 391.854605 208.140238 
L 391.838022 208.004667 
L 391.730233 207.550644 
L 391.473196 207.511513 
L 391.473196 207.506986 
L 391.423447 205.95267 
L 391.207868 205.869826 
L 391.207868 205.864593 
L 391.100079 205.747696 
L 390.983998 205.699092 
L 390.983998 205.676342 
L 390.876208 204.875911 
L 390.859625 204.798963 
L 390.859625 204.772915 
L 390.751836 204.53017 
L 390.511382 204.45104 
L 390.511382 204.449253 
L 390.403593 204.212245 
L 390.229471 204.145416 
L 390.229471 204.12925 
L 390.188013 203.161995 
L 389.698815 203.108993 
L 389.698815 203.106557 
L 389.632483 202.967741 
L 389.541276 202.888075 
L 389.541276 202.866062 
L 389.433487 202.580638 
L 389.416904 202.5793 
L 389.416904 202.568853 
L 389.325697 202.199928 
L 389.267657 202.19364 
L 389.267657 202.190548 
L 389.126701 201.220082 
L 389.027203 201.207916 
L 388.919414 200.345119 
L 388.894539 200.245126 
L 388.911122 200.249759 
L 388.894539 200.243212 
L 388.78675 200.185632 
L 388.604337 200.104512 
L 388.604337 200.097477 
L 388.529713 200.077189 
L 388.421924 199.628153 
L 388.363883 199.530443 
L 388.363883 199.529152 
L 388.256094 199.452684 
L 388.18147 199.397836 
L 388.18147 199.349947 
L 388.156596 199.285209 
L 387.882976 199.166175 
L 387.783478 198.601951 
L 387.775187 198.602172 
L 387.559608 198.523332 
L 387.559608 198.5148 
L 387.534733 198.449795 
L 387.29428 198.408195 
L 387.29428 198.39504 
L 387.29428 197.582249 
L 387.070409 197.48667 
L 387.070409 197.485335 
L 387.004077 197.425619 
L 386.987494 197.427378 
L 386.705583 197.280751 
L 386.672417 197.020587 
L 386.655834 197.021676 
L 386.349048 195.861065 
L 386.133469 195.814859 
L 386.133469 195.772366 
L 386.042263 195.533437 
L 386.02568 195.535204 
L 385.992514 195.527729 
L 385.942765 195.171411 
L 385.834975 195.070717 
L 385.760352 194.903089 
L 385.577939 194.839816 
L 385.577939 194.838425 
L 385.544773 194.784887 
L 385.519898 194.786847 
L 385.428692 194.724127 
L 385.428692 194.280688 
L 385.237987 194.168322 
L 385.130198 193.922028 
L 385.063866 193.867696 
L 385.063866 193.833779 
L 384.964368 193.737624 
L 384.956076 193.737804 
L 384.69904 193.578195 
L 384.607833 193.03491 
L 384.558084 193.02092 
L 384.450295 192.55336 
L 384.317631 192.490425 
L 384.317631 192.457943 
L 384.234716 192.267285 
L 383.961096 192.160415 
L 383.894764 191.854862 
L 383.820141 191.780479 
L 383.770392 191.126687 
L 383.712351 191.130723 
L 383.654311 191.034489 
L 383.654311 191.030062 
L 383.546521 190.804407 
L 383.513355 190.749463 
L 383.513355 190.699055 
L 383.413857 190.41028 
L 383.347525 190.345895 
L 383.347525 190.301895 
L 383.248027 190.057769 
L 383.049031 189.912818 
L 382.941242 189.756884 
L 382.87491 189.667682 
L 382.87491 189.666928 
L 382.816869 189.52387 
L 382.534958 189.378949 
L 382.427168 189.059074 
L 382.062342 188.921884 
L 381.954553 188.42323 
L 381.921387 188.413765 
L 381.921387 188.353834 
L 381.921387 188.291544 
L 381.705808 188.234059 
L 381.705808 188.220964 
L 381.631184 187.892369 
L 381.548269 187.836304 
L 381.548269 187.810732 
L 381.515103 187.741436 
L 381.357565 187.70729 
L 381.357565 187.695643 
L 381.258067 187.451279 
L 381.175152 187.383079 
L 381.175152 187.381519 
L 380.760577 187.169371 
L 380.66937 186.817406 
L 380.652787 186.819207 
L 380.594747 186.78379 
L 380.594747 186.758588 
L 380.511832 186.580667 
L 380.039216 186.458873 
L 379.931427 186.124601 
L 379.475394 185.963118 
L 379.384188 185.733306 
L 379.259815 185.657944 
L 379.259815 185.645119 
L 379.259815 185.586578 
L 378.861823 185.519955 
L 378.861823 185.518348 
L 378.762325 185.119054 
L 378.62137 185.052766 
L 378.62137 185.029301 
L 378.273126 184.382685 
L 378.107296 184.332956 
L 378.107296 184.301877 
L 377.999507 184.106387 
L 377.966341 184.080471 
L 377.966341 184.06898 
L 377.924883 183.669346 
L 377.9083 183.671159 
L 377.800511 183.622659 
L 377.800511 183.597871 
L 377.692721 183.453299 
L 377.57664 183.366546 
L 377.57664 183.364887 
L 377.5186 183.30735 
L 377.236689 183.236858 
L 377.236689 183.216075 
L 377.228397 183.151271 
L 377.104025 183.10994 
L 377.104025 183.105776 
L 377.004527 182.82961 
L 376.938195 182.821822 
L 376.938195 182.774139 
L 376.91332 182.492628 
L 376.697741 182.513722 
L 376.556786 182.273333 
L 375.934923 182.24366 
L 375.934923 182.224243 
L 375.885174 182.093634 
L 375.594972 182.088249 
L 375.495474 181.819351 
L 375.487182 181.819412 
L 375.313061 181.73311 
L 375.313061 181.727155 
L 375.205271 181.213863 
L 375.105773 181.174219 
L 375.105773 181.130474 
L 375.006275 180.758609 
L 374.939943 180.602718 
L 374.832154 180.384295 
L 374.749239 180.283218 
L 374.749239 180.273666 
L 374.716073 180.277314 
L 374.541951 180.220005 
L 374.541951 180.186964 
L 374.409287 179.900036 
L 374.376121 179.852147 
L 374.351246 179.854885 
L 374.127376 179.786842 
L 374.127376 179.770217 
L 374.019586 179.523484 
L 373.870339 179.443262 
L 373.870339 179.436228 
L 373.837173 179.126177 
L 373.646469 179.103905 
L 373.646469 179.035841 
L 373.546971 178.572183 
L 373.314809 178.555043 
L 373.314809 178.553263 
L 373.215311 178.292147 
L 373.207019 178.293062 
L 373.198728 178.293082 
L 373.198728 178.291295 
L 373.09923 177.857671 
L 372.742695 177.656587 
L 372.643197 176.462171 
L 372.402744 176.241834 
L 371.971586 175.69144 
L 371.847213 175.705181 
L 371.847213 175.619898 
L 371.739424 175.472112 
L 371.623343 175.386357 
L 371.623343 175.373327 
L 371.515553 175.058773 
L 371.49897 175.060606 
L 371.49897 174.953034 
L 371.449221 174.756079 
L 370.926857 174.705839 
L 370.926857 174.70208 
L 370.83565 174.532442 
L 370.545447 174.428777 
L 370.454241 173.584808 
L 370.445949 173.585725 
L 370.304994 173.494383 
L 370.304994 173.492472 
L 370.197204 173.224883 
L 370.105998 173.206206 
L 370.105998 173.189895 
L 369.998208 172.952911 
L 369.973334 172.903667 
L 369.973334 172.8738 
L 369.915293 172.716238 
L 369.865544 172.721747 
L 369.591925 172.673797 
L 369.591925 172.657362 
L 369.542176 172.140978 
L 369.318305 170.900074 
L 369.218807 170.816084 
L 369.218807 170.800238 
L 369.193933 170.746515 
L 368.878856 168.956623 
L 368.538904 168.895824 
L 368.538904 168.883637 
L 368.497447 168.720474 
L 368.389657 168.625475 
L 368.389657 168.621398 
L 368.281868 168.360751 
L 368.057997 168.305741 
L 368.057997 168.297551 
L 367.975082 168.134554 
L 367.767795 167.066704 
L 367.35322 166.975223 
L 367.35322 166.971056 
L 367.328345 166.844521 
L 367.096183 166.762689 
L 367.096183 166.761644 
L 366.996685 166.645088 
L 366.872313 166.533183 
L 366.805981 166.467126 
L 366.41628 166.293903 
L 366.374822 166.155301 
L 366.358239 166.156085 
L 366.018288 166.138962 
L 366.018288 166.121031 
L 365.968539 165.05627 
L 365.927081 165.058727 
L 365.844166 165.033707 
L 365.777834 164.376505 
L 365.396425 164.309816 
L 365.396425 164.307657 
L 365.396425 164.210449 
L 365.189138 164.025657 
L 365.08964 163.863143 
L 365.048182 163.804739 
L 365.048182 163.798219 
L 365.039891 163.714332 
L 363.48938 163.697907 
L 363.48938 163.632451 
L 363.398174 163.63494 
L 363.298676 163.548792 
L 363.298676 163.536771 
L 363.190886 163.359448 
L 363.149429 163.331182 
L 363.149429 163.309261 
L 363.091388 163.186257 
L 363.058222 163.18994 
L 362.967016 163.100099 
L 362.967016 163.089106 
L 362.908975 162.788253 
L 362.759728 162.607066 
L 362.66023 162.45757 
L 362.651939 162.458491 
L 362.560732 162.359935 
L 362.544149 162.344019 
L 362.287112 162.265935 
L 361.905703 161.986467 
L 361.897412 161.763932 
L 361.797914 161.767151 
L 361.773039 161.767676 
L 361.773039 161.720668 
L 360.330318 161.737643 
L 360.330318 161.736522 
L 360.322027 161.634182 
L 360.305444 161.636027 
L 360.131322 161.625079 
L 360.131322 161.621708 
L 359.758205 161.319839 
L 359.666998 161.28598 
L 359.617249 161.282489 
L 359.617249 161.264423 
L 359.50946 160.076519 
L 359.210966 159.970993 
L 359.119759 158.887479 
L 359.003678 158.851539 
L 359.003678 158.849213 
L 358.962221 158.460958 
L 357.361961 158.457489 
L 357.361961 158.450461 
L 357.262463 158.249249 
L 357.254171 158.250172 
L 357.113216 158.173033 
L 357.113216 158.154221 
L 357.088341 158.155813 
L 357.030301 158.118752 
L 356.889345 158.043797 
L 356.889345 158.033197 
L 356.764973 157.452469 
L 356.58256 157.386118 
L 356.58256 157.373056 
L 356.483062 157.060486 
L 356.466479 157.057561 
L 356.366981 156.738951 
L 356.176276 156.641582 
L 356.176276 156.640384 
L 356.167985 156.634114 
L 355.91924 156.629395 
L 355.869491 155.55624 
L 355.629037 155.480876 
L 355.629037 155.47115 
L 355.554414 155.184715 
L 355.529539 155.187475 
L 355.363709 154.945635 
L 354.9823 154.89858 
L 354.9823 154.877753 
L 354.9823 154.855695 
L 354.841345 154.792865 
L 354.841345 154.785504 
L 354.733555 154.421241 
L 354.70868 154.419071 
L 354.70868 154.354972 
L 354.501393 153.702037 
L 354.401895 153.681987 
L 354.401895 153.669554 
L 354.302397 153.026594 
L 354.086818 152.907525 
L 354.020486 152.879725 
L 353.838073 152.804458 
L 353.838073 152.801944 
L 353.738575 151.984611 
L 353.730283 151.985528 
L 353.721992 151.986444 
L 353.721992 151.889973 
L 353.705409 151.726544 
L 353.622494 151.735704 
L 353.556162 151.706124 
L 353.556162 151.698485 
L 353.556162 151.423066 
L 353.191336 151.312527 
L 353.183044 151.286572 
L 353.166461 151.288403 
L 353.033797 151.21727 
L 353.033797 151.209584 
L 352.934299 151.028191 
L 352.834801 150.931259 
L 352.743595 150.722516 
L 352.668971 150.646945 
L 352.668971 150.619852 
L 352.561182 150.47289 
L 352.469975 150.457097 
L 352.469975 150.450631 
L 352.130024 150.061645 
L 352.022234 149.728499 
L 351.972485 149.6387 
L 351.972485 149.623027 
L 351.914445 149.547097 
L 351.732032 149.565897 
L 351.732032 149.465165 
L 351.632534 149.342517 
L 350.629262 149.436131 
L 350.629262 149.358718 
L 350.521472 149.236621 
L 350.446849 149.134356 
L 350.347351 148.901484 
L 350.23127 148.815239 
L 350.23127 148.804667 
L 350.198104 148.563503 
L 350.12348 148.57173 
L 350.098606 148.51084 
L 350.098606 148.468394 
L 350.023982 148.295997 
L 349.808403 148.198688 
L 349.476743 147.935178 
L 349.377245 147.427674 
L 349.368954 147.428587 
L 349.103626 147.452418 
L 349.103626 147.441667 
L 348.995836 146.634089 
L 348.96267 146.590257 
L 348.96267 146.582116 
L 348.863172 146.238191 
L 348.680759 146.147805 
L 348.390557 143.557647 
L 348.13352 143.338311 
L 348.034022 142.63852 
L 347.793569 142.579545 
L 347.793569 142.555408 
L 347.702362 142.124082 
L 347.685779 142.125884 
L 347.41216 142.132791 
L 347.41216 142.04426 
L 347.30437 141.927309 
L 347.296079 141.845197 
L 347.221455 141.784546 
L 347.204872 141.786348 
L 346.873212 141.720577 
L 346.873212 141.713403 
L 346.856629 141.676457 
L 346.541552 141.61734 
L 346.541552 141.600094 
L 346.500094 141.476593 
L 346.243058 141.457011 
L 346.243058 141.393625 
L 346.176726 141.325864 
L 346.135268 141.330368 
L 345.64607 141.289729 
L 345.64607 141.272399 
L 345.53828 139.515673 
L 345.463657 139.429505 
L 345.463657 139.419192 
L 345.364159 139.118556 
L 345.297827 139.017746 
L 345.198329 138.366115 
L 345.015916 138.293318 
L 345.015916 138.275413 
L 344.908126 138.143666 
L 344.87496 138.124818 
L 344.87496 138.042567 
L 344.775462 137.893055 
L 344.70913 137.781722 
L 344.70913 137.756208 
L 344.700839 137.7571 
L 344.452094 137.62762 
L 344.352596 137.630804 
L 344.352596 137.61727 
L 344.219932 137.532224 
L 344.219932 137.520179 
L 344.137017 137.523074 
L 344.112142 137.384086 
L 343.863397 137.308216 
L 343.855106 137.192771 
L 343.846814 137.193663 
L 343.65611 137.214165 
L 343.65611 137.134001 
L 343.175203 136.534248 
L 343.075705 136.377165 
L 342.967915 136.284871 
L 342.967915 136.281815 
L 342.901583 135.935254 
L 342.876709 135.936386 
L 342.395801 134.744942 
L 342.105599 134.677961 
L 342.105599 134.67485 
L 341.923186 134.521462 
L 341.848562 134.471734 
L 341.691024 134.158871 
L 341.682732 134.140972 
L 341.583234 134.148449 
L 341.375947 134.023271 
L 341.276449 133.853381 
L 341.052578 133.771916 
L 340.986246 133.645196 
L 340.936497 133.49917 
L 340.936497 133.401315 
L 340.828708 133.412786 
L 340.78725 133.344528 
L 340.78725 133.308173 
L 340.679461 133.03147 
L 340.604837 132.982299 
L 340.604837 132.929925 
L 340.571671 132.871515 
L 340.546797 132.872569 
L 340.389258 132.854352 
L 340.281469 132.612776 
L 340.198554 132.500399 
L 340.148805 132.211668 
L 340.140513 132.212547 
L 339.725938 132.211692 
L 339.12895 131.567765 
L 339.029452 131.264818 
L 338.921663 131.094777 
L 338.921663 131.093155 
L 338.913371 131.094032 
L 338.52367 131.128757 
L 338.52367 131.046003 
L 338.092512 129.574992 
L 337.769144 129.316729 
L 337.686229 128.856332 
L 337.603314 128.775261 
L 337.603314 128.770272 
L 337.495524 128.306421 
L 336.624917 127.955254 
L 336.517127 127.113182 
L 336.343006 127.021176 
L 336.235216 126.816824 
L 336.135718 126.725167 
L 336.135718 126.718363 
L 336.03622 126.328116 
L 335.762601 126.344592 
L 335.762601 126.337758 
L 335.663103 126.05549 
L 335.588479 126.063238 
L 335.588479 126.05981 
L 335.406066 125.42019 
L 335.157321 125.437322 
L 335.157321 125.423518 
L 334.485709 124.422417 
L 334.37792 124.064769 
L 334.253547 123.984736 
L 334.253547 123.967209 
L 334.145758 123.767735 
L 334.062843 123.677845 
L 334.062843 123.665536 
L 333.979928 123.633606 
L 333.971636 123.634459 
L 333.913596 123.628111 
L 333.913596 123.612273 
L 333.805806 123.256632 
L 333.7146 123.218292 
L 333.7146 123.158191 
L 333.623393 123.02245 
L 333.615102 123.0233 
L 333.474146 122.931448 
L 333.474146 122.92613 
L 333.38294 122.72784 
L 333.374648 122.72869 
L 333.250276 122.638335 
L 333.150778 120.024302 
L 333.101029 119.956337 
L 333.101029 119.932605 
L 333.076154 119.792607 
L 332.993239 119.793655 
L 332.926907 119.714368 
L 332.926907 119.710708 
L 332.794243 119.403297 
L 332.686454 119.305769 
L 332.686454 119.303931 
L 332.603539 119.227693 
L 332.595247 119.228527 
L 332.122632 119.220877 
L 332.122632 119.206148 
L 332.039717 119.078148 
L 331.633433 118.753256 
L 331.351522 118.670475 
L 331.243733 118.514406 
L 331.218858 118.409203 
L 331.218858 118.407346 
L 331.111069 118.3308 
L 330.95353 118.199585 
L 330.829157 118.10957 
L 327.272104 118.340274 
L 327.272104 118.329051 
L 327.172606 117.855334 
L 326.849237 117.791978 
L 326.849237 117.788215 
L 326.749739 117.713524 
L 326.741447 117.714358 
L 326.53416 117.5769 
L 326.467828 117.500544 
L 326.459536 117.501377 
L 325.779633 117.505548 
L 325.779633 117.463968 
L 325.680135 117.112277 
L 325.630386 117.029973 
L 325.630386 117.007188 
L 325.53918 115.801591 
L 325.464556 115.712932 
L 325.464556 115.697549 
L 325.37335 115.205442 
L 325.365058 115.206265 
L 323.590677 115.286023 
L 323.590677 115.276342 
L 323.491179 115.107958 
L 323.292183 114.970521 
L 323.234143 114.851884 
L 323.184394 114.852939 
L 322.993689 114.755111 
L 322.993689 114.749268 
L 322.885899 114.6372 
L 322.628863 114.430394 
L 322.529365 114.356184 
L 321.866045 114.326089 
L 321.866045 114.320213 
L 321.658757 113.895143 
L 321.600717 113.839886 
L 321.600717 113.804447 
L 321.492927 113.428446 
L 321.335389 113.372827 
L 321.335389 113.360959 
L 320.605737 113.147705 
L 320.497947 113.029283 
L 319.710255 113.001652 
L 319.610757 112.915923 
L 319.602465 112.916742 
L 319.502967 112.791039 
L 319.403469 112.571256 
L 319.279097 112.419485 
L 319.121558 112.328836 
L 319.038643 112.162497 
L 318.988894 112.163373 
L 318.881104 111.697118 
L 318.375323 111.670044 
L 318.143161 111.403736 
L 317.571047 110.781331 
L 317.479841 110.655655 
L 317.471549 110.656464 
L 317.330594 110.664092 
L 317.322302 110.568948 
L 317.214513 110.442518 
L 316.874561 110.375369 
L 316.874561 110.365131 
L 316.824812 110.160905 
L 316.766772 110.1645 
L 316.476569 110.106521 
L 316.476569 110.083926 
L 316.36878 109.748727 
L 316.277573 109.670984 
L 316.277573 109.646229 
L 316.227824 109.605656 
L 315.954205 109.526869 
L 315.896164 109.135008 
L 315.59767 108.977031 
L 315.489881 108.835643 
L 311.576292 109.115103 
L 311.576292 109.10466 
L 311.468503 108.83697 
L 311.078802 108.767976 
L 311.078802 108.763783 
L 310.987595 108.625755 
L 310.979304 108.62656 
L 310.73885 108.546959 
L 310.73885 108.519627 
L 310.689101 107.117154 
L 310.465231 106.291933 
L 310.257943 106.288122 
L 310.158445 105.996598 
L 310.083822 105.954178 
L 310.083822 105.893844 
L 309.976032 105.681873 
L 309.967741 105.682662 
L 309.967741 105.656741 
L 309.893117 105.37396 
L 309.876534 105.375535 
L 309.752162 105.283312 
L 309.752162 105.276807 
L 309.652664 105.197299 
L 309.461959 104.978537 
L 309.35417 104.749193 
L 309.337587 104.74204 
L 309.337587 104.667886 
L 309.229797 104.538343 
L 309.18834 104.524779 
L 309.18834 104.522594 
L 309.088842 104.133569 
L 308.649392 103.585492 
L 305.092338 103.761113 
L 305.092338 103.756684 
L 304.99284 103.47337 
L 304.196856 103.225833 
L 304.130524 103.196422 
L 304.097358 103.197316 
L 303.840322 103.123385 
L 303.840322 103.118922 
L 303.740824 102.911609 
L 303.649617 102.857553 
L 303.649617 102.835177 
L 303.558411 102.590574 
L 303.550119 102.591351 
L 303.417455 102.516273 
L 303.417455 102.505048 
L 303.309666 102.083218 
L 303.143835 102.024297 
L 303.143835 101.990456 
L 303.036046 101.81759 
L 302.853633 101.726044 
L 302.83705 101.673271 
L 302.654637 101.617791 
L 302.621471 101.48486 
L 302.546847 101.489535 
L 302.538556 101.490306 
L 302.538556 101.379093 
L 302.455641 101.173135 
L 302.248353 101.135476 
L 302.248353 101.133199 
L 302.140564 100.892466 
L 302.016191 100.780685 
L 301.933276 100.626025 
L 301.659657 100.488727 
L 301.651365 100.400077 
L 298.119186 100.564112 
L 298.011396 100.209576 
L 297.903607 100.166399 
L 297.903607 100.164087 
L 297.820692 99.736195 
L 297.704611 99.64937 
L 297.704611 99.647046 
L 297.605113 99.551614 
L 297.555364 99.549224 
L 297.555364 99.463126 
L 297.48074 99.372187 
L 297.389534 98.618438 
L 297.381242 98.619196 
L 297.240287 98.521783 
L 297.140789 97.129829 
L 297.066165 97.122302 
L 297.066165 97.11517 
L 297.057874 96.954127 
L 296.950084 96.961463 
L 296.933501 96.962959 
L 296.933501 96.917706 
L 296.867169 96.694758 
L 296.693048 96.605332 
L 296.270181 96.411268 
L 296.170683 96.242811 
L 296.09606 96.227908 
L 296.09606 96.213509 
L 296.09606 96.119875 
L 296.062894 96.122846 
L 295.847315 96.096508 
L 295.747817 95.290194 
L 295.664902 95.217661 
L 295.664902 95.186168 
L 295.557112 95.047843 
L 295.43274 95.058878 
L 295.333242 94.36431 
L 295.258618 94.265863 
L 295.258618 94.260975 
L 295.21716 92.347855 
L 295.167411 92.352153 
L 295.043039 92.275918 
L 295.043039 92.265974 
L 295.034747 92.202029 
L 294.99329 92.205605 
L 294.918666 92.212044 
L 294.918666 92.119956 
L 294.819168 91.874277 
L 294.810877 91.87499 
L 294.752836 91.772625 
L 294.678213 91.56902 
L 294.189014 91.508304 
L 294.189014 91.500787 
L 294.089516 91.341294 
L 294.081225 91.342004 
L 293.865646 91.24997 
L 293.782731 91.166575 
L 293.766148 91.167993 
L 293.575443 91.108828 
L 293.575443 91.106311 
L 293.525694 90.944338 
L 293.260366 90.866107 
L 293.152577 90.688429 
L 293.019913 90.611228 
L 293.019913 90.588461 
L 293.019913 90.583401 
L 292.696544 90.524843 
L 292.638504 90.339669 
L 292.190763 90.324397 
L 292.190763 90.276146 
L 292.091265 90.07102 
L 292.082973 90.071723 
L 291.552317 88.878011 
L 291.461111 88.723449 
L 291.444528 88.724834 
L 291.121159 88.692576 
L 291.121159 88.679684 
L 291.096284 88.459788 
L 289.786227 88.476011 
L 289.41311 88.234981 
L 289.355069 88.169718 
L 289.180948 88.090679 
L 289.180948 88.080281 
L 289.073158 87.761199 
L 288.791247 87.714162 
L 288.791247 87.675015 
L 288.683458 87.537677 
L 288.658583 87.513596 
L 288.658583 87.429909 
L 288.567377 87.335372 
L 288.559085 87.336057 
L 288.401547 87.288825 
L 288.401547 87.257377 
L 288.401547 87.19708 
L 287.887474 87.15554 
L 287.779684 86.927897 
L 287.738227 86.826028 
L 287.630437 86.674144 
L 287.572397 86.583936 
L 287.572397 86.570739 
L 287.547522 86.538461 
L 287.257319 86.504145 
L 287.257319 86.48829 
L 287.199279 84.644964 
L 287.157821 84.648288 
L 286.859327 84.591678 
L 286.859327 84.562129 
L 286.784704 84.396035 
L 286.751538 84.398688 
L 286.693497 84.392566 
L 286.693497 84.373728 
L 286.693497 84.249858 
L 283.028654 84.446498 
L 283.028654 84.392361 
L 282.920864 83.996916 
L 282.804783 83.894766 
L 282.755034 83.645559 
L 282.73016 83.647543 
L 282.547747 83.536643 
L 282.45654 83.467479 
L 282.315585 83.35028 
L 282.249253 83.289921 
L 281.992216 83.252879 
L 281.992216 83.206333 
L 281.925884 82.88252 
L 281.917593 82.883176 
L 281.088443 82.797568 
L 281.088443 82.794817 
L 281.005528 82.636143 
L 280.988945 82.637452 
L 280.309042 82.337689 
L 280.24271 81.888481 
L 279.836426 81.811943 
L 279.828135 81.779232 
L 279.098482 81.582892 
L 278.990693 81.582947 
L 278.990693 81.569003 
L 278.940944 81.572889 
L 278.833154 81.145381 
L 278.667324 81.049026 
L 278.559535 80.58847 
L 278.443454 80.496096 
L 278.443454 80.487648 
L 278.418579 80.4614 
L 278.410288 80.462039 
L 277.241186 80.44219 
L 277.241186 80.408313 
L 277.133397 80.416626 
L 276.519826 80.396161 
L 276.519826 80.353745 
L 276.503243 80.230519 
L 276.412036 80.231882 
L 276.246206 80.134163 
L 276.155 79.843173 
L 276.146708 79.843809 
L 275.956004 79.775981 
L 275.956004 79.767448 
L 275.864797 79.606494 
L 275.773591 79.556481 
L 275.773591 79.53938 
L 275.665801 79.299359 
L 275.54972 79.262482 
L 275.54972 79.228185 
L 275.508263 79.062563 
L 275.483388 79.064451 
L 275.135145 79.033611 
L 275.027355 78.843931 
L 274.795193 78.758134 
L 274.687404 78.553486 
L 274.38891 78.466565 
L 274.339161 78.314603 
L 274.032375 78.282843 
L 274.032375 78.227966 
L 273.924586 78.175384 
L 273.89142 78.10848 
L 273.89142 78.102695 
L 273.833379 77.950753 
L 271.602966 78.054462 
L 267.556713 78.261657 
L 267.448923 78.033082 
L 267.332842 77.930637 
L 267.316259 77.823476 
L 267.307968 77.824102 
L 266.27153 77.796877 
L 266.163741 77.708058 
L 266.089117 77.625466 
L 266.089117 77.604868 
L 266.031077 77.394235 
L 265.500421 77.351601 
L 265.500421 77.325033 
L 265.417506 77.118514 
L 265.259967 77.04157 
L 265.259967 77.035649 
L 265.259967 76.988276 
L 265.251676 76.988898 
L 264.986348 76.902101 
L 264.895141 76.843682 
L 264.77906 76.70096 
L 264.696145 76.626914 
L 264.11574 76.563115 
L 264.016242 76.33211 
L 262.988096 76.298119 
L 262.880306 76.192489 
L 262.739351 76.107164 
L 262.739351 76.092188 
L 262.631561 75.950315 
L 262.415982 75.858246 
L 262.415982 75.855243 
L 262.316484 75.805538 
L 262.308193 75.806152 
L 262.225278 75.794257 
L 262.225278 75.716099 
L 262.117488 75.48626 
L 262.034573 75.426056 
L 262.001407 75.365166 
L 261.835577 75.350203 
L 261.835577 75.271718 
L 261.818994 75.21555 
L 261.503917 75.144957 
L 261.503917 75.135884 
L 261.404419 74.819102 
L 261.396128 74.819707 
L 261.371253 74.697119 
L 261.263464 74.568273 
L 261.230298 74.464258 
L 261.230298 74.461216 
L 261.18884 74.40641 
L 260.865472 74.338494 
L 260.757682 74.050374 
L 260.724516 73.945814 
L 260.707933 73.928665 
L 260.699642 73.929262 
L 259.663204 73.945842 
L 259.663204 73.936654 
L 259.654913 72.925544 
L 259.630038 72.92731 
L 259.082799 72.87347 
L 258.991592 71.846171 
L 252.996837 72.158259 
L 252.889048 71.917408 
L 251.711654 71.969157 
L 251.711654 71.893444 
L 251.612156 71.859448 
L 251.603865 71.860034 
L 251.57899 71.846006 
L 251.57899 71.839691 
L 251.537533 71.387087 
L 251.479492 71.391158 
L 251.404869 71.2981 
L 251.297079 71.175518 
L 251.164415 71.073584 
L 251.114666 70.972106 
L 250.973711 70.899168 
L 250.973711 70.880061 
L 250.865921 70.747343 
L 250.351848 69.944429 
L 250.351848 68.847961 
L 249.406617 68.785024 
L 249.406617 68.781779 
L 249.348577 68.75971 
L 248.710131 68.685619 
L 248.710131 68.679115 
L 248.527718 68.684861 
L 247.623944 68.059942 
L 247.532738 67.422664 
L 247.466406 67.32497 
L 247.375199 67.241994 
L 247.358616 67.24308 
L 247.250827 67.141314 
L 247.250827 67.124817 
L 247.184495 67.129153 
L 242.955829 67.350981 
L 242.955829 67.307825 
L 242.897789 66.815975 
L 242.84804 66.819233 
L 242.823165 66.814195 
L 242.823165 66.794192 
L 242.748542 66.605541 
L 242.723667 66.607163 
L 242.483214 66.519258 
L 242.483214 66.512572 
L 242.483214 66.499198 
L 242.466631 66.500278 
L 242.101805 66.413609 
L 241.994015 66.32683 
L 241.496525 65.929273 
L 239.208071 65.976123 
L 239.100281 65.881758 
L 239.009075 65.887661 
L 239.009075 65.796366 
L 238.942743 65.526361 
L 238.934451 65.526894 
L 238.237965 65.463082 
L 238.204799 64.777451 
L 238.188216 64.778502 
L 238.038969 64.702574 
L 238.038969 64.695741 
L 237.956054 64.321139 
L 237.947763 64.321659 
L 237.757058 64.271921 
L 237.757058 64.22733 
L 237.665852 63.775931 
L 237.65756 63.776445 
L 237.516605 63.478366 
L 237.334192 63.47927 
L 237.3259 63.168673 
L 237.276151 63.171724 
L 236.728912 63.115234 
L 236.728912 63.094436 
L 236.621123 62.854661 
L 236.239714 62.624003 
L 236.131924 62.560883 
L 235.874887 62.576476 
L 235.874887 62.468386 
L 235.775389 62.07611 
L 235.750515 62.077603 
L 235.750515 62.056606 
L 235.72564 61.844435 
L 235.369106 61.788557 
L 235.369106 61.76399 
L 235.286191 61.403371 
L 235.045737 61.329547 
L 235.045737 61.318976 
L 234.937948 61.085489 
L 234.929656 61.085976 
L 233.959551 60.519429 
L 233.951259 60.153586 
L 233.495227 60.137094 
L 233.495227 60.090744 
L 233.387437 60.032734 
L 233.23819 59.902051 
L 233.138692 59.352769 
L 233.039194 59.257883 
L 233.039194 59.24711 
L 233.022611 59.248045 
L 232.931405 58.410052 
L 232.84849 58.288055 
L 232.7407 58.254182 
L 232.599745 58.113419 
L 232.508538 57.791781 
L 232.491955 57.792683 
L 232.384166 57.707661 
L 232.359291 57.610779 
L 231.928133 57.550369 
L 231.928133 57.54308 
L 231.828635 57.044554 
L 230.385914 56.942073 
L 230.385914 56.934731 
L 230.385914 56.916375 
L 230.162043 56.807082 
L 230.070837 56.756784 
L 230.037671 56.747513 
L 230.037671 56.673928 
L 229.929881 55.819301 
L 229.905007 55.772427 
L 229.905007 55.735366 
L 229.8138 54.440159 
L 229.606513 54.349384 
L 229.606513 54.341891 
L 229.498723 54.152264 
L 229.457266 54.082996 
L 229.457266 54.0492 
L 229.349476 53.274791 
L 228.313039 53.218847 
L 228.313039 53.215061 
L 228.205249 53.042158 
L 228.105751 53.043136 
L 228.105751 53.016587 
L 228.047711 52.612866 
L 228.006253 52.614828 
L 227.915046 52.523976 
L 227.915046 52.512552 
L 227.82384 52.139261 
L 226.679613 52.085554 
L 226.604989 51.977944 
L 226.364536 51.95462 
L 226.364536 51.885579 
L 226.281621 51.628261 
L 226.140665 51.565517 
L 226.140665 51.527042 
L 226.074333 51.499292 
L 226.05775 51.500052 
L 225.991418 51.46844 
L 225.991418 51.395256 
L 225.949961 50.852808 
L 225.941669 50.85318 
L 225.692924 50.786926 
L 225.692924 50.755949 
L 225.676341 48.389828 
L 225.576843 48.393918 
L 225.485637 48.216307 
L 225.029604 48.136215 
L 225.029604 48.128313 
L 224.946689 47.961675 
L 224.921815 47.962682 
L 224.872066 47.841985 
L 224.863774 47.755167 
L 224.623321 47.764831 
L 224.623321 47.713288 
L 224.532114 47.415194 
L 224.515531 47.415852 
L 224.424325 47.328008 
L 224.316535 47.288499 
L 224.316535 47.252676 
L 224.258495 47.087653 
L 224.208746 47.089603 
L 224.200454 47.089927 
L 224.200454 47.010178 
L 224.100956 46.838431 
L 224.092665 46.838753 
L 224.001458 46.774364 
L 224.001458 46.758376 
L 223.976583 46.595352 
L 223.968292 46.595671 
L 223.470802 46.526664 
L 223.470802 46.51464 
L 223.363012 46.346294 
L 222.724567 46.266134 
L 222.724567 46.262114 
L 222.625069 46.100922 
L 222.550445 46.091659 
L 222.46753 45.274856 
L 222.459239 45.275159 
L 222.285117 45.184226 
L 222.160745 45.058906 
L 222.119287 44.800356 
L 220.80923 44.761629 
L 220.80923 44.745316 
L 220.726315 44.458375 
L 220.701441 44.459251 
L 220.510736 44.35963 
L 220.510736 44.355538 
L 220.494153 43.970952 
L 220.228825 43.877447 
L 220.14591 43.258583 
L 220.121036 43.259412 
L 219.897165 43.262753 
L 219.897165 43.159514 
L 219.797667 42.649565 
L 219.789375 42.649834 
L 219.441132 42.553201 
L 219.383092 42.538462 
L 218.885602 42.496303 
L 218.885602 42.467194 
L 218.835853 42.389745 
L 218.81927 42.390276 
L 218.37982 42.34187 
L 218.37982 42.337704 
L 218.272031 41.777453 
L 218.056452 41.725541 
L 218.056452 41.712979 
L 217.948662 41.569659 
L 217.923788 41.499133 
L 217.915496 41.402878 
L 214.930556 41.418261 
L 214.56573 41.120829 
L 214.549147 41.079 
L 214.308693 40.920971 
L 214.217487 40.36283 
L 214.117989 40.293304 
L 214.018491 40.08724 
L 210.088319 40.152611 
L 207.517954 39.972084 
L 204.715427 39.713453 
L 204.657386 39.667189 
L 204.649095 39.667423 
L 204.533014 39.640201 
L 204.533014 39.631485 
L 204.441807 39.149417 
L 204.350601 39.151913 
L 204.350601 39.051273 
L 204.284269 38.996157 
L 204.275977 38.996382 
L 204.101855 38.895927 
L 204.101855 38.891543 
L 204.052106 38.840261 
L 203.994066 38.841819 
L 203.712155 38.744029 
L 203.620948 38.561863 
L 199.740526 38.563126 
L 199.740526 38.554263 
L 199.715651 38.497304 
L 199.632736 38.4995 
L 198.289513 38.428461 
L 198.289513 38.424013 
L 198.289513 38.397324 
L 196.739003 37.413236 
L 196.656088 37.338886 
L 195.147034 37.331015 
L 195.039245 37.22089 
L 194.210095 37.186952 
L 194.210095 37.168865 
L 194.201803 36.933732 
L 194.110597 36.93592 
L 193.928184 36.894975 
L 193.928184 36.849638 
L 193.85356 36.76069 
L 193.820394 36.761476 
L 192.551795 36.746112 
L 192.551795 36.682401 
L 192.493754 36.629134 
L 192.485463 36.629329 
L 192.369382 36.577389 
L 192.369382 36.572832 
L 192.369382 36.454307 
L 191.797268 36.440204 
L 191.797268 36.399103 
L 191.788976 36.065492 
L 191.291486 35.966702 
L 191.183697 35.675296 
L 191.009575 35.573333 
L 191.009575 35.568733 
L 190.910077 35.543278 
L 189.003032 35.427562 
L 188.928409 35.350542 
L 188.920117 35.350719 
L 188.886951 35.351427 
L 188.721121 34.584716 
L 188.679664 34.478494 
L 188.654789 34.39515 
L 187.435938 33.820222 
L 187.328149 33.714335 
L 187.253525 33.631204 
L 187.195485 33.632264 
L 187.195485 33.571196 
L 187.17061 32.80849 
L 186.17563 32.721028 
L 186.17563 32.716293 
L 186.17563 32.702087 
L 186.076132 32.703735 
L 185.794221 32.618337 
L 185.794221 32.608853 
L 185.719598 32.567384 
L 185.686432 32.567925 
L 185.578642 32.531715 
L 185.520602 31.5897 
L 185.470853 31.590421 
L 185.363063 31.591984 
L 185.363063 31.477244 
L 185.34648 31.47748 
L 184.749492 31.390221 
L 184.749492 31.38543 
L 184.384666 31.246673 
L 180.76128 31.1861 
L 180.76128 31.152242 
L 180.728114 31.1527 
L 180.330122 31.056491 
L 180.330122 31.051646 
L 180.222332 30.864007 
L 179.442931 30.767412 
L 179.368308 30.646754 
L 179.343433 30.647074 
L 178.00021 30.591173 
L 178.00021 30.55699 
L 177.917295 30.514078 
L 177.900712 30.514288 
L 177.328599 30.413876 
L 177.328599 30.408981 
L 177.287141 30.409497 
L 176.275578 30.368154 
L 176.275578 30.083277 
L 174.899189 29.249333 
L 171.731835 29.172214 
L 171.706961 29.082575 
L 170.92756 28.98026 
L 170.828062 28.951185 
L 170.645649 28.852716 
L 170.554442 28.788379 
L 170.040369 28.783186 
L 169.965746 28.321031 
L 169.949163 28.321173 
L 169.567754 28.233623 
L 169.567754 28.218484 
L 169.567754 28.208391 
L 169.559462 28.20846 
L 168.183073 28.113592 
L 168.174781 28.10353 
L 168.158198 28.103664 
L 165.936076 28.014882 
L 165.84487 27.944302 
L 158.573223 27.898608 
L 158.573223 27.893434 
L 158.573223 27.88826 
L 158.465434 27.889104 
L 158.341061 27.859015 
L 158.283021 27.475786 
L 153.449076 27.200217 
L 148.548798 26.934772 
L 148.548798 26.929453 
L 148.441009 26.930098 
L 139.154528 26.883693 
L 139.11307 26.802464 
L 139.05503 26.802802 
L 137.993718 26.732742 
L 137.993718 26.700043 
L 137.993718 26.694593 
L 137.935677 26.694919 
L 130.116792 26.628682 
L 130.1085 26.617629 
L 130.083626 26.617767 
L 125.324304 26.565921 
L 124.047413 25.613312 
L 120.838602 25.521539 
L 120.838602 25.515831 
L 120.755687 25.436148 
L 120.739104 25.436197 
L 120.158699 25.437945 
L 120.150407 25.180359 
L 118.906682 25.074184 
L 118.873516 25.057005 
L 118.798893 25.057166 
L 114.304899 24.956516 
L 114.213693 24.933425 
L 114.19711 24.933456 
L 111.402874 24.833357 
L 111.336542 24.798301 
L 108.683261 24.702264 
L 108.683261 24.696362 
L 108.683261 24.678654 
L 108.575472 24.678797 
L 101.552571 24.580194 
L 101.552571 24.544146 
L 101.477947 24.544223 
L 98.940748 24.480334 
L 98.940748 24.407731 
L 98.832958 24.407808 
L 82.82207 24.337804 
L 82.82207 24.281112 
L 82.730863 24.281151 
L -1 24.222521 
L -1 24.222521 
" clip-path="url(#p299a6de499)" style="fill: none; stroke: #800080; stroke-width: 1.5; stroke-linecap: square"/>
   </g>
   <g id="line2d_30">
    <path d="M 96.403548 24.263348 
L 217.981828 124.656686 
L 305.050881 178.595963 
L 355.47979 207.514983 
L 391.199577 227.370591 
" clip-path="url(#p299a6de499)" style="fill: none; stroke-dasharray: 5.55,2.4; stroke-dashoffset: 0; stroke: #000000; stroke-width: 1.5"/>
    <defs>
     <path id="m5c722b416e" d="M -3 3 
L 3 -3 
M -3 -3 
L 3 3 
" style="stroke: #000000"/>
    </defs>
    <g clip-path="url(#p299a6de499)">
     <use xlink:href="#m5c722b416e" x="96.403548" y="24.263348" style="stroke: #000000"/>
     <use xlink:href="#m5c722b416e" x="217.981828" y="124.656686" style="stroke: #000000"/>
     <use xlink:href="#m5c722b416e" x="305.050881" y="178.595963" style="stroke: #000000"/>
     <use xlink:href="#m5c722b416e" x="355.47979" y="207.514983" style="stroke: #000000"/>
     <use xlink:href="#m5c722b416e" x="391.199577" y="227.370591" style="stroke: #000000"/>
    </g>
   </g>
   <g id="patch_3">
    <path d="M 47.72 303.64 
L 47.72 10.8 
" style="fill: none; stroke: #000000; stroke-width: 0.8; stroke-linejoin: miter; stroke-linecap: square"/>
   </g>
   <g id="patch_4">
    <path d="M 450 303.64 
L 450 10.8 
" style="fill: none; stroke: #000000; stroke-width: 0.8; stroke-linejoin: miter; stroke-linecap: square"/>
   </g>
   <g id="patch_5">
    <path d="M 47.72 303.64 
L 450 303.64 
" style="fill: none; stroke: #000000; stroke-width: 0.8; stroke-linejoin: miter; stroke-linecap: square"/>
   </g>
   <g id="patch_6">
    <path d="M 47.72 10.8 
L 450 10.8 
" style="fill: none; stroke: #000000; stroke-width: 0.8; stroke-linejoin: miter; stroke-linecap: square"/>
   </g>
   <g id="text_17">
    <!-- R=0 -->
    <g transform="translate(72.543861 32.62163) scale(0.11 -0.11)">
     <defs>
      <path id="DejaVuSans-3d" d="M 678 2906 
L 4684 2906 
L 4684 2381 
L 678 2381 
L 678 2906 
z
M 678 1631 
L 4684 1631 
L 4684 1100 
L 678 1100 
L 678 1631 
z
" transform="scale(0.015625)"/>
     </defs>
     <use xlink:href="#DejaVuSans-52"/>
     <use xlink:href="#DejaVuSans-3d" transform="translate(69.482422 0)"/>
     <use xlink:href="#DejaVuSans-30" transform="translate(153.271484 0)"/>
    </g>
   </g>
   <g id="text_18">
    <!-- R=1 -->
    <g transform="translate(194.122141 133.014968) scale(0.11 -0.11)">
     <use xlink:href="#DejaVuSans-52"/>
     <use xlink:href="#DejaVuSans-3d" transform="translate(69.482422 0)"/>
     <use xlink:href="#DejaVuSans-31" transform="translate(153.271484 0)"/>
    </g>
   </g>
   <g id="text_19">
    <!-- R=2 -->
    <g transform="translate(281.191193 186.954245) scale(0.11 -0.11)">
     <defs>
      <path id="DejaVuSans-32" d="M 1228 531 
L 3431 531 
L 3431 0 
L 469 0 
L 469 531 
Q 828 903 1448 1529 
Q 2069 2156 2228 2338 
Q 2531 2678 2651 2914 
Q 2772 3150 2772 3378 
Q 2772 3750 2511 3984 
Q 2250 4219 1831 4219 
Q 1534 4219 1204 4116 
Q 875 4013 500 3803 
L 500 4441 
Q 881 4594 1212 4672 
Q 1544 4750 1819 4750 
Q 2544 4750 2975 4387 
Q 3406 4025 3406 3419 
Q 3406 3131 3298 2873 
Q 3191 2616 2906 2266 
Q 2828 2175 2409 1742 
Q 1991 1309 1228 531 
z
" transform="scale(0.015625)"/>
     </defs>
     <use xlink:href="#DejaVuSans-52"/>
     <use xlink:href="#DejaVuSans-3d" transform="translate(69.482422 0)"/>
     <use xlink:href="#DejaVuSans-32" transform="translate(153.271484 0)"/>
    </g>
   </g>
   <g id="text_20">
    <!-- R=3 -->
    <g transform="translate(331.620103 215.873265) scale(0.11 -0.11)">
     <use xlink:href="#DejaVuSans-52"/>
     <use xlink:href="#DejaVuSans-3d" transform="translate(69.482422 0)"/>
     <use xlink:href="#DejaVuSans-33" transform="translate(153.271484 0)"/>
    </g>
   </g>
   <g id="text_21">
    <!-- R=4 -->
    <g transform="translate(367.339889 235.728872) scale(0.11 -0.11)">
     <use xlink:href="#DejaVuSans-52"/>
     <use xlink:href="#DejaVuSans-3d" transform="translate(69.482422 0)"/>
     <use xlink:href="#DejaVuSans-34" transform="translate(153.271484 0)"/>
    </g>
   </g>
   <g id="legend_1">
    <g id="patch_7">
     <path d="M 54.72 298.64 
L 121.835625 298.64 
Q 123.835625 298.64 123.835625 296.64 
L 123.835625 268.28375 
Q 123.835625 266.28375 121.835625 266.28375 
L 54.72 266.28375 
Q 52.72 266.28375 52.72 268.28375 
L 52.72 296.64 
Q 52.72 298.64 54.72 298.64 
z
" style="fill: #ffffff; opacity: 0.8; stroke: #cccccc; stroke-linejoin: miter"/>
    </g>
    <g id="line2d_31">
     <path d="M 56.72 274.382187 
L 66.72 274.382187 
L 76.72 274.382187 
" style="fill: none; stroke: #800080; stroke-width: 1.5; stroke-linecap: square"/>
    </g>
    <g id="text_22">
     <!-- GNN -->
     <g transform="translate(84.72 277.882187) scale(0.1 -0.1)">
      <defs>
       <path id="DejaVuSans-47" d="M 3809 666 
L 3809 1919 
L 2778 1919 
L 2778 2438 
L 4434 2438 
L 4434 434 
Q 4069 175 3628 42 
Q 3188 -91 2688 -91 
Q 1594 -91 976 548 
Q 359 1188 359 2328 
Q 359 3472 976 4111 
Q 1594 4750 2688 4750 
Q 3144 4750 3555 4637 
Q 3966 4525 4313 4306 
L 4313 3634 
Q 3963 3931 3569 4081 
Q 3175 4231 2741 4231 
Q 1884 4231 1454 3753 
Q 1025 3275 1025 2328 
Q 1025 1384 1454 906 
Q 1884 428 2741 428 
Q 3075 428 3337 486 
Q 3600 544 3809 666 
z
" transform="scale(0.015625)"/>
       <path id="DejaVuSans-4e" d="M 628 4666 
L 1478 4666 
L 3547 763 
L 3547 4666 
L 4159 4666 
L 4159 0 
L 3309 0 
L 1241 3903 
L 1241 0 
L 628 0 
L 628 4666 
z
" transform="scale(0.015625)"/>
      </defs>
      <use xlink:href="#DejaVuSans-47"/>
      <use xlink:href="#DejaVuSans-4e" transform="translate(77.490234 0)"/>
      <use xlink:href="#DejaVuSans-4e" transform="translate(152.294922 0)"/>
     </g>
    </g>
    <g id="line2d_32">
     <path d="M 56.72 289.060312 
L 66.72 289.060312 
L 76.72 289.060312 
" style="fill: none; stroke-dasharray: 5.55,2.4; stroke-dashoffset: 0; stroke: #000000; stroke-width: 1.5"/>
     <g>
      <use xlink:href="#m5c722b416e" x="66.72" y="289.060312" style="stroke: #000000"/>
     </g>
    </g>
    <g id="text_23">
     <!-- RC + R -->
     <g transform="translate(84.72 292.560312) scale(0.1 -0.1)">
      <defs>
       <path id="DejaVuSans-43" d="M 4122 4306 
L 4122 3641 
Q 3803 3938 3442 4084 
Q 3081 4231 2675 4231 
Q 1875 4231 1450 3742 
Q 1025 3253 1025 2328 
Q 1025 1406 1450 917 
Q 1875 428 2675 428 
Q 3081 428 3442 575 
Q 3803 722 4122 1019 
L 4122 359 
Q 3791 134 3420 21 
Q 3050 -91 2638 -91 
Q 1578 -91 968 557 
Q 359 1206 359 2328 
Q 359 3453 968 4101 
Q 1578 4750 2638 4750 
Q 3056 4750 3426 4639 
Q 3797 4528 4122 4306 
z
" transform="scale(0.015625)"/>
       <path id="DejaVuSans-2b" d="M 2944 4013 
L 2944 2272 
L 4684 2272 
L 4684 1741 
L 2944 1741 
L 2944 0 
L 2419 0 
L 2419 1741 
L 678 1741 
L 678 2272 
L 2419 2272 
L 2419 4013 
L 2944 4013 
z
" transform="scale(0.015625)"/>
      </defs>
      <use xlink:href="#DejaVuSans-52"/>
      <use xlink:href="#DejaVuSans-43" transform="translate(64.482422 0)"/>
      <use xlink:href="#DejaVuSans-20" transform="translate(134.306641 0)"/>
      <use xlink:href="#DejaVuSans-2b" transform="translate(166.09375 0)"/>
      <use xlink:href="#DejaVuSans-20" transform="translate(249.882812 0)"/>
      <use xlink:href="#DejaVuSans-52" transform="translate(281.669922 0)"/>
     </g>
    </g>
   </g>
  </g>
 </g>
 <defs>
  <clipPath id="p299a6de499">
   <rect x="47.72" y="10.8" width="402.28" height="292.84"/>
  </clipPath>
 </defs>
</svg>
